<svg width="46" height="46" viewBox="0 0 46 46" fill="none" xmlns="http://www.w3.org/2000/svg">
<rect width="46" height="46" rx="8" fill="#512BD4" fill-opacity="0.3"/>
<path d="M6.29362 30C5.93428 30 5.62874 29.875 5.37721 29.625C5.12567 29.3685 5 29.0641 5 28.7116C5 28.3526 5.12567 28.0449 5.37721 27.7886C5.62874 27.5321 5.93428 27.4039 6.29362 27.4039C6.65891 27.4039 6.96733 27.5321 7.21886 27.7886C7.47645 28.0449 7.6052 28.3526 7.6052 28.7116C7.6052 29.0641 7.47645 29.3685 7.21886 29.625C6.96733 29.875 6.65901 30 6.29362 30ZM20.6594 28.2937C20.6594 29.1193 19.9902 29.7885 19.1646 29.7885C18.6424 29.7885 18.158 29.516 17.8869 29.0696L12.1695 19.6539C12.0193 19.4074 11.8923 19.1464 11.7902 18.8745C11.7859 18.8632 11.7752 18.8557 11.7631 18.8557C11.7454 18.8557 11.7318 18.8715 11.7344 18.8891C11.7789 19.1969 11.8011 19.8171 11.8011 20.7499V28.7553C11.8011 29.3259 11.3385 29.7885 10.7679 29.7885C10.1973 29.7885 9.73472 29.3259 9.73472 28.7553V17.5895C9.73472 16.7116 10.4464 16 11.3242 16C11.8821 16 12.3991 16.2925 12.6865 16.7706L18.1708 25.8942C18.4163 26.2947 18.5762 26.5729 18.6506 26.729C18.6539 26.736 18.6608 26.7404 18.6685 26.7404C18.6808 26.7404 18.6901 26.7296 18.6882 26.7175C18.6308 26.3495 18.602 25.7386 18.602 24.8846V17.0287C18.602 16.4606 19.0626 16 19.6307 16C20.1988 16 20.6594 16.4606 20.6594 17.0287V28.2937ZM30.7217 28.8222C30.7217 29.3559 30.2891 29.7885 29.7554 29.7885H27.1057C25.1087 29.7885 23.4897 28.1696 23.4897 26.1725V19.4723C23.4897 17.5546 25.0443 16 26.962 16H29.4631C29.9995 16 30.4343 16.4348 30.4343 16.9712C30.4343 17.5075 29.9995 17.9423 29.4631 17.9423H27.5798C26.5018 17.9423 25.6279 18.8162 25.6279 19.8942C25.6279 20.9723 26.5018 21.8462 27.5798 21.8462H29.0907C29.6244 21.8462 30.0571 22.2788 30.0571 22.8125C30.0571 23.3462 29.6244 23.7788 29.0907 23.7788H27.6664C26.5405 23.7788 25.6279 24.6915 25.6279 25.8173C25.6279 26.9432 26.5405 27.8558 27.6664 27.8558H29.7554C30.2891 27.8558 30.7217 28.2885 30.7217 28.8222ZM41 16.9712C41 17.5075 40.5652 17.9423 40.0288 17.9423H39.1493C38.1271 17.9423 37.2985 18.7709 37.2985 19.7931V28.7194C37.2985 29.3099 36.8199 29.7885 36.2294 29.7885C35.639 29.7885 35.1604 29.3099 35.1604 28.7194V19.7885C35.1604 18.7689 34.3338 17.9423 33.3141 17.9423H32.4391C31.9027 17.9423 31.4679 17.5075 31.4679 16.9712C31.4679 16.4348 31.9027 16 32.4391 16H40.0288C40.5652 16 41 16.4348 41 16.9712Z" fill="white"/>
</svg>
