<svg width="19" height="22" viewBox="0 0 19 22" fill="none" xmlns="http://www.w3.org/2000/svg">
<path d="M9.49995 10.5557C12.4148 10.5557 14.7777 8.19271 14.7777 5.27784C14.7777 2.36297 12.4148 0 9.49995 0C6.58511 0 4.22217 2.36297 4.22217 5.27784C4.22217 8.19271 6.58511 10.5557 9.49995 10.5557Z" fill="#393939"/>
<path d="M19 16.6459V17.9443C19 19.686 17.575 21.111 15.8333 21.111H3.16667C1.425 21.111 0 19.686 0 17.9443V16.6459C0 15.0731 1.15056 13.7431 2.68111 13.5109L7.75833 12.0648C8.89833 11.7375 10.1017 11.7375 11.2311 12.0648L16.3189 13.5109C17.8494 13.7431 19 15.0731 19 16.6459Z" fill="#393939"/>
</svg>
