<svg width="5" height="5" viewBox="0 0 18 19" fill="none" xmlns="http://www.w3.org/2000/svg">
<path d="M6.10995 17.2883V14.4725C6.10995 13.7537 6.69692 13.1709 7.42099 13.1709H10.0678C10.4155 13.1709 10.749 13.3081 10.9949 13.5522C11.2407 13.7962 11.3788 14.1273 11.3788 14.4725V17.2883C11.3767 17.5872 11.4947 17.8745 11.7068 18.0866C11.9189 18.2987 12.2075 18.4179 12.5085 18.4179H14.3143C15.1576 18.4201 15.9672 18.089 16.5643 17.4978C17.1615 16.9065 17.497 16.1037 17.497 15.2665V7.24457C17.497 6.56826 17.1951 5.92675 16.6725 5.49285L10.5296 0.622406C9.46098 -0.231549 7.92995 -0.203977 6.89327 0.687891L0.890519 5.49285C0.343256 5.91396 0.0161639 6.55737 0 7.24457V15.2583C0 17.0033 1.42498 18.4179 3.18278 18.4179H4.94733C5.57256 18.4179 6.08068 17.9172 6.08521 17.2965L6.10995 17.2883Z" fill="url(#paint0_linear_2220_3340)"/>
<defs>
<linearGradient id="paint0_linear_2220_3340" x1="17.5221" y1="11.9609" x2="-0.0462363" y2="11.8926" gradientUnits="userSpaceOnUse">
<stop stop-color="#C7FB15"/>
<stop offset="1" stop-color="#CCFF14"/>
</linearGradient>
</defs>
</svg>
