<svg width="48" height="48" viewBox="0 0 48 48" fill="none" xmlns="http://www.w3.org/2000/svg">
<g clip-path="url(#clip0_943_216475)">
<rect width="48" height="48" rx="10" fill="#141414"/>
<rect x="0.5" y="0.5" width="47" height="47" rx="9.5" stroke="#191919"/>
<path opacity="0.2" d="M24 12.625C21.6794 12.625 19.4538 13.5469 17.8128 15.1878C16.1719 16.8288 15.25 19.0544 15.25 21.375C15.25 29.25 24 35.375 24 35.375C24 35.375 32.75 29.25 32.75 21.375C32.75 19.0544 31.8281 16.8288 30.1872 15.1878C28.5462 13.5469 26.3206 12.625 24 12.625ZM24 24.875C23.3078 24.875 22.6311 24.6697 22.0555 24.2851C21.4799 23.9006 21.0313 23.3539 20.7664 22.7144C20.5015 22.0749 20.4322 21.3711 20.5673 20.6922C20.7023 20.0133 21.0356 19.3896 21.5251 18.9001C22.0146 18.4106 22.6383 18.0773 23.3172 17.9422C23.9961 17.8072 24.6999 17.8765 25.3394 18.1414C25.9789 18.4063 26.5256 18.8549 26.9101 19.4305C27.2947 20.0061 27.5 20.6828 27.5 21.375C27.5 22.3033 27.1313 23.1935 26.4749 23.8499C25.8185 24.5063 24.9283 24.875 24 24.875Z" fill="#CAFE15"/>
<path d="M24 17C23.1347 17 22.2888 17.2566 21.5694 17.7373C20.8499 18.2181 20.2892 18.9013 19.958 19.7008C19.6269 20.5002 19.5402 21.3799 19.7091 22.2285C19.8779 23.0772 20.2946 23.8567 20.9064 24.4686C21.5183 25.0804 22.2978 25.4971 23.1465 25.6659C23.9951 25.8347 24.8748 25.7481 25.6742 25.417C26.4737 25.0858 27.1569 24.5251 27.6377 23.8056C28.1184 23.0862 28.375 22.2403 28.375 21.375C28.375 20.2147 27.9141 19.1019 27.0936 18.2814C26.2731 17.4609 25.1603 17 24 17ZM24 24C23.4808 24 22.9733 23.846 22.5416 23.5576C22.1099 23.2692 21.7735 22.8592 21.5748 22.3795C21.3761 21.8999 21.3242 21.3721 21.4254 20.8629C21.5267 20.3537 21.7767 19.886 22.1438 19.5188C22.511 19.1517 22.9787 18.9017 23.4879 18.8004C23.9971 18.6991 24.5249 18.7511 25.0045 18.9498C25.4842 19.1485 25.8942 19.4849 26.1826 19.9166C26.471 20.3483 26.625 20.8558 26.625 21.375C26.625 22.0712 26.3484 22.7389 25.8562 23.2312C25.3639 23.7234 24.6962 24 24 24ZM24 11.75C21.4482 11.7529 19.0017 12.7679 17.1973 14.5723C15.3929 16.3767 14.3779 18.8232 14.375 21.375C14.375 24.8094 15.962 28.4494 18.9688 31.9023C20.3198 33.4626 21.8403 34.8677 23.5023 36.0914C23.6495 36.1945 23.8247 36.2498 24.0044 36.2498C24.184 36.2498 24.3593 36.1945 24.5064 36.0914C26.1654 34.8672 27.683 33.4622 29.0312 31.9023C32.0336 28.4494 33.625 24.8094 33.625 21.375C33.6221 18.8232 32.6071 16.3767 30.8027 14.5723C28.9983 12.7679 26.5518 11.7529 24 11.75ZM24 34.2812C22.192 32.8594 16.125 27.6367 16.125 21.375C16.125 19.2864 16.9547 17.2834 18.4315 15.8065C19.9084 14.3297 21.9114 13.5 24 13.5C26.0886 13.5 28.0916 14.3297 29.5685 15.8065C31.0453 17.2834 31.875 19.2864 31.875 21.375C31.875 27.6345 25.808 32.8594 24 34.2812Z" fill="#CAFE15"/>
</g>
<defs>
<clipPath id="clip0_943_216475">
<rect width="48" height="48" rx="10" fill="white"/>
</clipPath>
</defs>
</svg>
