<svg width="62" height="62" viewBox="0 0 62 62" fill="none" xmlns="http://www.w3.org/2000/svg">
<g clip-path="url(#clip0_943_216128)">
<rect width="62" height="62" rx="12" fill="#1F1F1F"/>
<g clip-path="url(#clip1_943_216128)">
<g clip-path="url(#clip2_943_216128)">
<g clip-path="url(#clip3_943_216128)">
<path fill-rule="evenodd" clip-rule="evenodd" d="M26.9806 19.3477C27.065 19.6165 27.0393 19.9078 26.9091 20.1576C26.7788 20.4074 26.5547 20.5952 26.286 20.6798C23.8524 21.4458 21.7267 22.968 20.2177 25.0252C18.7087 27.0823 17.8951 29.5671 17.8953 32.1184C17.8953 38.7362 23.2624 44.1034 29.8815 44.1034C35.2474 44.1034 39.7925 40.5771 41.3201 35.7126C41.3619 35.5795 41.4296 35.4559 41.5192 35.3489C41.6088 35.2419 41.7187 35.1536 41.8424 35.0891C41.9662 35.0245 42.1014 34.985 42.2405 34.9727C42.3795 34.9604 42.5196 34.9756 42.6527 35.0175C42.7859 35.0593 42.9095 35.127 43.0165 35.2166C43.1235 35.3063 43.2118 35.4161 43.2763 35.5398C43.3409 35.6636 43.3804 35.7988 43.3927 35.9379C43.405 36.0769 43.3898 36.217 43.3479 36.3501C41.5496 42.0743 36.2018 46.2284 29.8815 46.2284C22.0882 46.2284 15.7715 39.9104 15.7715 32.1184C15.7715 25.7968 19.9243 20.4503 25.6485 18.6519C25.7816 18.6101 25.9217 18.595 26.0607 18.6073C26.1997 18.6197 26.335 18.6593 26.4587 18.7239C26.5824 18.7885 26.6921 18.8768 26.7817 18.9839C26.8712 19.0909 26.9388 19.2146 26.9806 19.3477Z" fill="#DCFC36"/>
<path d="M45.0423 28.0918C44.2967 25.4368 42.8809 23.0181 40.931 21.0681C38.981 19.1182 36.5623 17.7024 33.9073 16.9568C31.5783 16.3059 29.582 18.3265 29.582 20.7441V30.2277C29.582 31.4359 30.562 32.4158 31.7714 32.4158H41.255C43.6714 32.4158 45.692 30.4196 45.0423 28.0918Z" fill="#DCFC36"/>
</g>
</g>
</g>
<rect x="0.5" y="0.5" width="61" height="61" rx="11.5" stroke="#191919"/>
</g>
<defs>
<clipPath id="clip0_943_216128">
<rect width="62" height="62" rx="12" fill="white"/>
</clipPath>
<clipPath id="clip1_943_216128">
<rect width="34" height="34" fill="white" transform="translate(14 14)"/>
</clipPath>
<clipPath id="clip2_943_216128">
<rect width="34" height="34" fill="white" transform="translate(14 14)"/>
</clipPath>
<clipPath id="clip3_943_216128">
<rect width="34" height="34" fill="white" transform="translate(14 14)"/>
</clipPath>
</defs>
</svg>
