<svg width="62" height="62" viewBox="0 0 62 62" fill="none" xmlns="http://www.w3.org/2000/svg">
<rect x="1" y="1" width="60" height="60" rx="9" fill="url(#paint0_linear_914_36323)" stroke="url(#paint1_linear_914_36323)" stroke-width="2"/>
<g clip-path="url(#clip0_914_36323)">
<path d="M32.4062 19.75H29.5938C29.4694 19.75 29.3502 19.7006 29.2623 19.6127C29.1744 19.5248 29.125 19.4056 29.125 19.2812C29.125 19.1569 29.1744 19.0377 29.2623 18.9498C29.3502 18.8619 29.4694 18.8125 29.5938 18.8125H32.4062C32.5306 18.8125 32.6498 18.8619 32.7377 18.9498C32.8256 19.0377 32.875 19.1569 32.875 19.2812C32.875 19.4056 32.8256 19.5248 32.7377 19.6127C32.6498 19.7006 32.5306 19.75 32.4062 19.75ZM36.1562 45.0625H25.8438C25.2224 45.0618 24.6267 44.8146 24.1873 44.3752C23.7479 43.9358 23.5007 43.3401 23.5 42.7188V26.7812C23.5 26.6569 23.5494 26.5377 23.6373 26.4498C23.7252 26.3619 23.8444 26.3125 23.9688 26.3125C24.0931 26.3125 24.2123 26.3619 24.3002 26.4498C24.3881 26.5377 24.4375 26.6569 24.4375 26.7812V42.7188C24.4375 43.4941 25.0684 44.125 25.8438 44.125H36.1562C36.9316 44.125 37.5625 43.4941 37.5625 42.7188V26.7812C37.5625 26.6569 37.6119 26.5377 37.6998 26.4498C37.7877 26.3619 37.9069 26.3125 38.0312 26.3125C38.1556 26.3125 38.2748 26.3619 38.3627 26.4498C38.4506 26.5377 38.5 26.6569 38.5 26.7812V42.7188C38.5 44.0106 37.4491 45.0625 36.1562 45.0625Z" fill="#A1FF8D"/>
<path d="M38.0312 30.0625C37.9069 30.0625 37.7877 30.0131 37.6998 29.9252C37.6119 29.8373 37.5625 29.7181 37.5625 29.5938V19.2812C37.5625 18.5059 36.9316 17.875 36.1562 17.875H25.8438C25.0684 17.875 24.4375 18.5059 24.4375 19.2812V29.5938C24.4375 29.7181 24.3881 29.8373 24.3002 29.9252C24.2123 30.0131 24.0931 30.0625 23.9688 30.0625C23.8444 30.0625 23.7252 30.0131 23.6373 29.9252C23.5494 29.8373 23.5 29.7181 23.5 29.5938V19.2812C23.5 17.9894 24.5509 16.9375 25.8438 16.9375H36.1562C37.4491 16.9375 38.5 17.9894 38.5 19.2812V29.5938C38.5 29.7181 38.4506 29.8373 38.3627 29.9252C38.2748 30.0131 38.1556 30.0625 38.0312 30.0625ZM40.8438 21.6719C40.585 21.6719 40.375 21.5087 40.375 21.25V21.1562C40.375 21.0319 40.4244 20.9127 40.5123 20.8248C40.6002 20.7369 40.7194 20.6875 40.8438 20.6875C40.9681 20.6875 41.0873 20.7369 41.1752 20.8248C41.2631 20.9127 41.3125 21.0319 41.3125 21.1562C41.3125 21.415 41.1025 21.6719 40.8438 21.6719ZM40.8438 23.5469C40.585 23.5469 40.375 23.3837 40.375 23.125V23.0312C40.375 22.9069 40.4244 22.7877 40.5123 22.6998C40.6002 22.6119 40.7194 22.5625 40.8438 22.5625C40.9681 22.5625 41.0873 22.6119 41.1752 22.6998C41.2631 22.7877 41.3125 22.9069 41.3125 23.0312C41.3125 23.29 41.1025 23.5469 40.8438 23.5469ZM40.8438 25.4219C40.585 25.4219 40.375 25.2587 40.375 25V24.9062C40.375 24.7819 40.4244 24.6627 40.5123 24.5748C40.6002 24.4869 40.7194 24.4375 40.8438 24.4375C40.9681 24.4375 41.0873 24.4869 41.1752 24.5748C41.2631 24.6627 41.3125 24.7819 41.3125 24.9062C41.3125 25.165 41.1025 25.4219 40.8438 25.4219ZM21.1562 37.5156C20.8975 37.5156 20.6875 37.3525 20.6875 37.0938V37C20.6875 36.8757 20.7369 36.7565 20.8248 36.6685C20.9127 36.5806 21.0319 36.5312 21.1562 36.5312C21.2806 36.5312 21.3998 36.5806 21.4877 36.6685C21.5756 36.7565 21.625 36.8757 21.625 37C21.625 37.2587 21.415 37.5156 21.1562 37.5156ZM21.1562 39.3906C20.8975 39.3906 20.6875 39.2275 20.6875 38.9688V38.875C20.6875 38.7507 20.7369 38.6315 20.8248 38.5435C20.9127 38.4556 21.0319 38.4062 21.1562 38.4062C21.2806 38.4062 21.3998 38.4556 21.4877 38.5435C21.5756 38.6315 21.625 38.7507 21.625 38.875C21.625 39.1337 21.415 39.3906 21.1562 39.3906ZM21.1562 41.2656C20.8975 41.2656 20.6875 41.1025 20.6875 40.8438V40.75C20.6875 40.6257 20.7369 40.5065 20.8248 40.4185C20.9127 40.3306 21.0319 40.2812 21.1562 40.2812C21.2806 40.2812 21.3998 40.3306 21.4877 40.4185C21.5756 40.5065 21.625 40.6257 21.625 40.75C21.625 41.0087 21.415 41.2656 21.1562 41.2656Z" fill="#A1FF8D"/>
<path d="M39.2884 41.3125C39.2185 41.3125 39.1495 41.2969 39.0864 41.2668C39.0233 41.2367 38.9677 41.1928 38.9237 41.1384C38.8798 41.084 38.8486 41.0205 38.8323 40.9525C38.8161 40.8845 38.8153 40.8137 38.83 40.7453L39.1394 39.3109C39.1578 39.2248 39.2003 39.1456 39.2618 39.0826C39.3234 39.0195 39.4015 38.9752 39.4872 38.9547C39.9395 38.8438 40.3719 38.6632 40.7688 38.4194C40.8436 38.3737 40.9297 38.3499 41.0174 38.3508C41.1051 38.3516 41.1907 38.377 41.2647 38.4241L42.1928 39.0175L42.7675 38.4381L42.1741 37.5175C42.1264 37.4435 42.1006 37.3576 42.0994 37.2695C42.0982 37.1815 42.1218 37.0949 42.1675 37.0197C42.4114 36.623 42.5917 36.1906 42.7019 35.7381C42.7225 35.6527 42.7666 35.5748 42.8292 35.5131C42.8919 35.4515 42.9705 35.4086 43.0563 35.3894L44.125 35.1522V34.3488L43.0572 34.1116C42.9715 34.0923 42.8928 34.0494 42.8302 33.9878C42.7676 33.9262 42.7234 33.8482 42.7028 33.7628C42.5922 33.3105 42.412 32.8781 42.1684 32.4812C42.1224 32.4063 42.0985 32.3199 42.0995 32.232C42.1005 32.1441 42.1263 32.0582 42.1741 31.9844L42.7684 31.0553L42.1947 30.4816L41.2656 31.0759C41.1917 31.1232 41.106 31.1488 41.0183 31.1496C40.9306 31.1504 40.8444 31.1265 40.7697 31.0806C40.3727 30.8371 39.9404 30.6566 39.4881 30.5453C39.4024 30.5248 39.3243 30.4805 39.2628 30.4174C39.2012 30.3544 39.1588 30.2752 39.1403 30.1891L38.9097 29.125H38.5C38.3757 29.125 38.2565 29.0756 38.1685 28.9877C38.0806 28.8998 38.0312 28.7806 38.0312 28.6562C38.0312 28.5319 38.0806 28.4127 38.1685 28.3248C38.2565 28.2369 38.3757 28.1875 38.5 28.1875H39.2875C39.3946 28.1877 39.4984 28.2245 39.5816 28.2919C39.6649 28.3593 39.7225 28.4531 39.745 28.5578L39.9953 29.7138C40.3384 29.8178 40.675 29.9584 40.9994 30.1338L42.0062 29.4897C42.0963 29.4322 42.2033 29.4071 42.3095 29.4187C42.4157 29.4303 42.5148 29.4778 42.5903 29.5534L43.6975 30.6597C43.773 30.7353 43.8203 30.8344 43.8317 30.9407C43.8432 31.0469 43.818 31.1538 43.7603 31.2438L43.1163 32.2506C43.2916 32.5759 43.4322 32.9125 43.5362 33.2566L44.6941 33.5134C44.9097 33.5612 45.0625 33.7525 45.0625 33.9719V35.5281C45.0625 35.6348 45.026 35.7383 44.9592 35.8215C44.8924 35.9047 44.7992 35.9626 44.695 35.9856L43.5372 36.2425C43.4314 36.5908 43.2907 36.9275 43.1172 37.2475L43.7603 38.245C43.8185 38.3346 43.8443 38.4415 43.8332 38.5478C43.8221 38.6541 43.7748 38.7534 43.6994 38.8291L42.5922 39.9447C42.5166 40.0205 42.4175 40.0683 42.3111 40.08C42.2047 40.0918 42.0975 40.0669 42.0072 40.0094L41.0003 39.3653C40.6805 39.5385 40.3441 39.6792 39.9963 39.7853L39.7459 40.9412C39.7235 41.046 39.6659 41.14 39.5826 41.2075C39.4994 41.2751 39.3956 41.3121 39.2884 41.3125Z" fill="#A1FF8D"/>
<path d="M39.803 37.1678C39.7026 37.1676 39.6049 37.1352 39.5243 37.0753C39.4437 37.0155 39.3845 36.9313 39.3553 36.8353C39.3261 36.7392 39.3285 36.6364 39.3622 36.5418C39.3959 36.4472 39.459 36.366 39.5423 36.31C39.9021 36.0675 40.1668 35.7078 40.2913 35.2922C40.4159 34.8766 40.3926 34.4306 40.2254 34.0303C40.0582 33.6299 39.7574 33.2998 39.3743 33.0962C38.9911 32.8926 38.5493 32.828 38.1239 32.9134C38.0636 32.9258 38.0014 32.9261 37.9409 32.9145C37.8805 32.9028 37.8229 32.8794 37.7715 32.8455C37.7201 32.8116 37.6758 32.7679 37.6413 32.7169C37.6068 32.6659 37.5827 32.6086 37.5703 32.5482C37.5579 32.4879 37.5576 32.4257 37.5692 32.3653C37.5809 32.3048 37.6043 32.2472 37.6382 32.1958C37.6721 32.1444 37.7158 32.1002 37.7668 32.0657C37.8178 32.0312 37.8751 32.007 37.9355 31.9946C38.3441 31.9118 38.7661 31.9207 39.1709 32.0207C39.5757 32.1208 39.9532 32.3095 40.2762 32.5732C40.5992 32.8369 40.8596 33.1691 41.0387 33.5457C41.2177 33.9223 41.3108 34.3339 41.3114 34.7509C41.3115 35.213 41.1977 35.668 40.9801 36.0757C40.7624 36.4833 40.4476 36.8311 40.0636 37.0881C39.9865 37.1399 39.8958 37.1677 39.803 37.1678ZM23.4989 30.0634C22.8946 30.0642 22.3062 29.8703 21.8207 29.5104C21.3353 29.1505 20.9787 28.6438 20.8039 28.0654C20.629 27.487 20.6452 26.8676 20.85 26.2991C21.0547 25.7305 21.4372 25.2431 21.9408 24.909C22.0442 24.8444 22.1687 24.8227 22.2879 24.8484C22.4071 24.8742 22.5116 24.9453 22.5792 25.0468C22.6468 25.1483 22.6721 25.2722 22.6499 25.3921C22.6277 25.512 22.5596 25.6185 22.4602 25.689C22.1003 25.9306 21.8352 26.2892 21.7097 26.7039C21.5843 27.1187 21.6062 27.5642 21.7718 27.9646C21.9375 28.3651 22.2365 28.6959 22.6183 28.9009C23.0001 29.1059 23.4411 29.1725 23.8664 29.0893C23.9883 29.0653 24.1148 29.0904 24.2182 29.1593C24.3217 29.2281 24.3937 29.3351 24.4186 29.4568C24.4307 29.5172 24.4309 29.5793 24.419 29.6397C24.4071 29.7001 24.3834 29.7575 24.3492 29.8087C24.3151 29.8599 24.2712 29.9039 24.22 29.9381C24.1689 29.9723 24.1115 29.9961 24.0511 30.0081C23.8694 30.0451 23.6844 30.0636 23.4989 30.0634Z" fill="#A1FF8D"/>
<path d="M23.5 33.8125H22.7125C22.6054 33.8123 22.5016 33.7755 22.4184 33.7081C22.3351 33.6407 22.2775 33.5469 22.255 33.4422L22.0047 32.2862C21.6568 32.1802 21.3204 32.0395 21.0006 31.8662L19.9938 32.5103C19.9037 32.5678 19.7967 32.5929 19.6905 32.5813C19.5843 32.5697 19.4852 32.5221 19.4097 32.4465L18.3025 31.3403C18.227 31.2647 18.1797 31.1655 18.1683 31.0593C18.1568 30.9531 18.182 30.8462 18.2397 30.7562L18.8838 29.7494C18.7104 29.4289 18.5697 29.0919 18.4638 28.7434L17.3059 28.4865C17.2015 28.4635 17.1081 28.4055 17.0411 28.3221C16.9741 28.2388 16.9375 28.135 16.9375 28.0281V26.4719C16.9375 26.3652 16.974 26.2617 17.0408 26.1785C17.1076 26.0953 17.2008 26.0374 17.305 26.0144L18.4628 25.7575C18.5669 25.4134 18.7075 25.0769 18.8828 24.7525L18.2406 23.754C18.1824 23.6644 18.1567 23.5575 18.1678 23.4512C18.1789 23.3449 18.2261 23.2457 18.3016 23.17L19.4088 22.0544C19.484 21.9781 19.5833 21.93 19.6898 21.9182C19.7963 21.9064 19.9036 21.9317 19.9938 21.9897L21.0006 22.6337C21.3205 22.4606 21.6568 22.3199 22.0047 22.2137L22.255 21.0578C22.2664 20.9961 22.29 20.9372 22.3245 20.8848C22.359 20.8324 22.4037 20.7874 22.456 20.7526C22.5082 20.7178 22.5669 20.6938 22.6285 20.6821C22.6902 20.6703 22.7536 20.6711 22.815 20.6844C22.8763 20.6976 22.9344 20.7231 22.9857 20.7592C23.0371 20.7953 23.0806 20.8414 23.1138 20.8947C23.147 20.9479 23.1692 21.0073 23.179 21.0693C23.1888 21.1313 23.1861 21.1947 23.1709 21.2556L22.8616 22.69C22.8431 22.7761 22.8007 22.8553 22.7391 22.9183C22.6776 22.9814 22.5994 23.0257 22.5138 23.0462C22.0612 23.1573 21.6285 23.3379 21.2313 23.5815C21.1564 23.6272 21.0703 23.651 20.9826 23.6502C20.8949 23.6493 20.8093 23.6239 20.7353 23.5769L19.8072 22.9834L19.2316 23.5628L19.825 24.4834C19.8731 24.5573 19.8992 24.6433 19.9003 24.7314C19.9015 24.8195 19.8777 24.9061 19.8316 24.9812C19.5877 25.3779 19.4074 25.8103 19.2972 26.2628C19.2766 26.3482 19.2324 26.4262 19.1698 26.4878C19.1072 26.5494 19.0285 26.5923 18.9428 26.6115L17.875 26.8478V27.6512L18.9428 27.8884C19.0285 27.9077 19.1072 27.9505 19.1698 28.0122C19.2324 28.0738 19.2766 28.1518 19.2972 28.2372C19.4031 28.6797 19.5841 29.1109 19.8316 29.5187C19.9253 29.6715 19.9234 29.8647 19.8259 30.0156L19.2316 30.9437L19.8053 31.5175L20.7344 30.9231C20.8084 30.8762 20.8941 30.851 20.9817 30.8501C21.0693 30.8493 21.1554 30.873 21.2303 30.9184C21.6391 31.1669 22.0703 31.3469 22.5119 31.4537C22.5976 31.4742 22.6757 31.5186 22.7372 31.5816C22.7988 31.6447 22.8412 31.7238 22.8597 31.81L23.0903 32.875H23.5C23.6243 32.875 23.7435 32.9244 23.8315 33.0123C23.9194 33.1002 23.9688 33.2194 23.9688 33.3437C23.9688 33.4681 23.9194 33.5873 23.8315 33.6752C23.7435 33.7631 23.6243 33.8125 23.5 33.8125ZM30.5313 33.3437C30.46 33.3439 30.3896 33.3278 30.3255 33.2966C30.2615 33.2654 30.2053 33.22 30.1615 33.1639C30.1176 33.1077 30.0872 33.0423 30.0725 32.9725C30.0577 32.9028 30.0591 32.8306 30.0766 32.7615L31.0141 29.0115C31.0285 28.9516 31.0548 28.8951 31.0913 28.8454C31.1278 28.7957 31.1738 28.7537 31.2267 28.722C31.2795 28.6902 31.3382 28.6693 31.3992 28.6604C31.4603 28.6515 31.5225 28.6549 31.5822 28.6703C31.642 28.6851 31.6982 28.7115 31.7477 28.7481C31.7973 28.7847 31.8391 28.8307 31.8708 28.8835C31.9025 28.9363 31.9234 28.9948 31.9325 29.0557C31.9415 29.1166 31.9384 29.1787 31.9234 29.2384L30.9859 32.9884C30.9609 33.09 30.9025 33.1803 30.8201 33.2447C30.7376 33.3092 30.6359 33.344 30.5313 33.3437ZM33.3438 33.3437C33.2511 33.3437 33.1606 33.3162 33.0835 33.2648C33.0065 33.2133 32.9464 33.1402 32.9109 33.0547C32.8754 32.9691 32.866 32.8749 32.884 32.784C32.902 32.6932 32.9465 32.6097 33.0119 32.544L34.5559 31L33.0128 29.4569C32.9274 29.3684 32.8802 29.25 32.8812 29.1271C32.8823 29.0042 32.9316 28.8867 33.0185 28.7998C33.1054 28.7128 33.223 28.6635 33.3459 28.6625C33.4688 28.6614 33.5872 28.7087 33.6756 28.794L35.5506 30.669C35.6385 30.7569 35.6879 30.8762 35.6879 31.0004C35.6879 31.1247 35.6385 31.244 35.5506 31.3319L33.6756 33.2069C33.5874 33.2945 33.4681 33.3437 33.3438 33.3437ZM28.6563 33.3437C28.5319 33.3437 28.4126 33.2945 28.3244 33.2069L26.4494 31.3319C26.3615 31.244 26.3121 31.1247 26.3121 31.0004C26.3121 30.8762 26.3615 30.7569 26.4494 30.669L28.3244 28.794C28.4128 28.7087 28.5312 28.6614 28.6541 28.6625C28.777 28.6635 28.8946 28.7128 28.9815 28.7998C29.0684 28.8867 29.1177 29.0042 29.1188 29.1271C29.1198 29.25 29.0726 29.3684 28.9872 29.4569L27.4441 31L28.9872 32.5431C29.0529 32.6086 29.0976 32.6921 29.1158 32.7831C29.134 32.874 29.1248 32.9683 29.0894 33.054C29.0539 33.1398 28.9939 33.213 28.9168 33.2646C28.8397 33.3162 28.749 33.3437 28.6563 33.3437Z" fill="#A1FF8D"/>
</g>
<defs>
<linearGradient id="paint0_linear_914_36323" x1="-7.34654e-06" y1="-4.90396" x2="72.4452" y2="45.2893" gradientUnits="userSpaceOnUse">
<stop stop-color="#1A2613"/>
<stop offset="0.489"/>
<stop offset="1" stop-color="#001D2B"/>
</linearGradient>
<linearGradient id="paint1_linear_914_36323" x1="62" y1="60.4878" x2="6.92052" y2="-4.78893" gradientUnits="userSpaceOnUse">
<stop stop-color="#14FF87" stop-opacity="0.3"/>
<stop offset="1" stop-color="#CAFE15"/>
</linearGradient>
<clipPath id="clip0_914_36323">
<rect width="30" height="30" fill="white" transform="translate(16 16)"/>
</clipPath>
</defs>
</svg>
