<svg width="72" height="72" viewBox="0 0 72 72" fill="none" xmlns="http://www.w3.org/2000/svg">
<circle cx="36" cy="36" r="35" fill="url(#paint0_linear_1138_2089)" stroke="url(#paint1_linear_1138_2089)" stroke-width="2"/>
<path d="M28.9967 27.0001C29.136 27.0136 29.2765 26.9978 29.4093 26.9538C29.5421 26.9098 29.6642 26.8385 29.7678 26.7444C29.8714 26.6504 29.9541 26.5358 30.0108 26.4078C30.0674 26.2799 30.0967 26.1416 30.0967 26.0017C30.0967 25.8618 30.0674 25.7234 30.0108 25.5955C29.9541 25.4676 29.8714 25.3529 29.7678 25.2589C29.6642 25.1649 29.5421 25.0935 29.4093 25.0495C29.2765 25.0055 29.136 24.9897 28.9967 25.0032C28.7486 25.0273 28.5183 25.1429 28.3508 25.3275C28.1833 25.512 28.0905 25.7524 28.0905 26.0017C28.0905 26.2509 28.1833 26.4913 28.3508 26.6759C28.5183 26.8604 28.7486 26.976 28.9967 27.0001Z" fill="#CAFE15"/>
<path d="M46.5375 22.4625C45.5994 21.5264 44.3284 21.0005 43.0031 21H28.9969C27.6716 21 26.4006 21.5265 25.4636 22.4636C24.5265 23.4006 24 24.6716 24 25.9969V46.0031C24 47.3284 24.5265 48.5994 25.4636 49.5365C26.4006 50.4735 27.6716 51 28.9969 51H43.0031C44.3284 51 45.5994 50.4735 46.5364 49.5365C47.4735 48.5994 48 47.3284 48 46.0031V25.9969C47.9995 24.6716 47.4736 23.4006 46.5375 22.4625ZM26.85 23.8781C27.4121 23.3161 28.1738 22.9993 28.9688 22.9969H43.0031C43.798 22.9993 44.5596 23.3162 45.1217 23.8783C45.6838 24.4404 46.0007 25.202 46.0031 25.9969V43.0031H25.9969V25.9969C25.9993 25.202 26.3161 24.4403 26.8781 23.8781H26.85ZM45.1219 48.1219C44.5597 48.6839 43.798 49.0007 43.0031 49.0031H28.9969C28.202 49.0007 27.4404 48.6838 26.8783 48.1217C26.3162 47.5596 25.9993 46.798 25.9969 46.0031V45H46.0031V46.0031C46.0007 46.798 45.6839 47.5597 45.1219 48.1219Z" fill="#CAFE15"/>
<path d="M28.95 35.6065L30.825 38.1003C30.9921 38.2761 31.2173 38.3853 31.4588 38.4079C31.7004 38.4304 31.9419 38.3646 32.1386 38.2228C32.3354 38.0809 32.4741 37.8726 32.529 37.6363C32.584 37.4001 32.5515 37.1519 32.4375 36.9378L31.0031 35.0628L32.4375 33.1878C32.5979 32.9752 32.6672 32.7076 32.6303 32.4439C32.5934 32.1801 32.4532 31.9419 32.2406 31.7815C32.028 31.6211 31.7605 31.5518 31.4967 31.5887C31.233 31.6256 30.9948 31.7658 30.8344 31.9784L28.9594 34.4815C28.8455 34.6466 28.7838 34.842 28.7821 35.0426C28.7805 35.2431 28.8389 35.4395 28.95 35.6065ZM39.75 38.2971C39.8552 38.3767 39.9751 38.4347 40.1027 38.4678C40.2304 38.501 40.3633 38.5086 40.494 38.4903C40.6246 38.472 40.7503 38.4282 40.864 38.3612C40.9776 38.2943 41.0769 38.2056 41.1563 38.1003L43.0313 35.6065C43.1628 35.4324 43.234 35.2201 43.234 35.0018C43.234 34.7836 43.1628 34.5713 43.0313 34.3971L41.1563 31.894C40.9932 31.6847 40.7545 31.5479 40.4915 31.5128C40.2285 31.4777 39.9622 31.5473 39.75 31.7065C39.5399 31.8665 39.4014 32.103 39.3646 32.3645C39.3277 32.626 39.3955 32.8915 39.5531 33.1034L40.9875 34.9784L39.5625 36.9378C39.4152 37.1458 39.3526 37.402 39.3875 37.6545C39.4223 37.907 39.5519 38.1368 39.75 38.2971ZM34.7719 38.4378C35.017 38.5303 35.2886 38.5233 35.5287 38.4182C35.7687 38.3131 35.9581 38.1182 36.0563 37.8753L37.9313 32.869C38.0245 32.6204 38.0152 32.3449 37.9053 32.1031C37.7954 31.8614 37.594 31.6732 37.3453 31.58C37.0967 31.4867 36.8212 31.4961 36.5794 31.6059C36.3377 31.7158 36.1495 31.9172 36.0563 32.1659L34.1813 37.1628C34.0956 37.4104 34.1093 37.6816 34.2194 37.9194C34.3295 38.1572 34.5276 38.343 34.7719 38.4378Z" fill="#CAFE15"/>
<defs>
<linearGradient id="paint0_linear_1138_2089" x1="-8.53146e-06" y1="-5.69493" x2="84.1299" y2="52.5941" gradientUnits="userSpaceOnUse">
<stop stop-color="#1A2613"/>
<stop offset="0.489"/>
<stop offset="1" stop-color="#001D2B"/>
</linearGradient>
<linearGradient id="paint1_linear_1138_2089" x1="72" y1="70.2439" x2="8.03673" y2="-5.56134" gradientUnits="userSpaceOnUse">
<stop stop-color="#14FF87"/>
<stop offset="1" stop-color="#CAFE15"/>
</linearGradient>
</defs>
</svg>
