<svg width="60" height="60" viewBox="0 0 60 60" fill="none" xmlns="http://www.w3.org/2000/svg">
<g clip-path="url(#clip0_943_216231)">
<rect width="60" height="60" rx="12" fill="#1F1F1F"/>
<path d="M20.668 35.333L27.334 31.333M32.668 28.667L39.334 24.667M30.001 20.667V27.333M30.001 32.667V39.333M20.668 24.667L27.334 28.667M32.668 31.333L39.334 35.333M41.334 26V33.333M32.001 41.333L39.334 37.333M20.001 37.333L28.001 41.333M18.668 34V26M20.001 22.667L28.001 18.667M40.001 22.667L32.001 18.667" stroke="#CAFE15" stroke-width="1.5" stroke-linecap="round" stroke-linejoin="round"/>
<path d="M30 20.667C31.105 20.667 32 19.771 32 18.667C32 17.562 31.105 16.667 30 16.667C28.895 16.667 28 17.562 28 18.667C28 19.771 28.895 20.667 30 20.667Z" stroke="#CAFE15" stroke-width="1.5" stroke-linecap="round" stroke-linejoin="round"/>
<path d="M30 43.334C31.105 43.334 32 42.438 32 41.334C32 40.229 31.105 39.334 30 39.334C28.895 39.334 28 40.229 28 41.334C28 42.438 28.895 43.334 30 43.334Z" stroke="#CAFE15" stroke-width="1.5" stroke-linecap="round" stroke-linejoin="round"/>
<path d="M18.668 26C19.772 26 20.668 25.105 20.668 24C20.668 22.895 19.772 22 18.668 22C17.563 22 16.668 22.895 16.668 24C16.668 25.105 17.563 26 18.668 26Z" stroke="#CAFE15" stroke-width="1.5" stroke-linecap="round" stroke-linejoin="round"/>
<path d="M41.334 26C42.438 26 43.334 25.105 43.334 24C43.334 22.895 42.438 22 41.334 22C40.229 22 39.334 22.895 39.334 24C39.334 25.105 40.229 26 41.334 26Z" stroke="#CAFE15" stroke-width="1.5" stroke-linecap="round" stroke-linejoin="round"/>
<path d="M41.334 38C42.438 38 43.334 37.105 43.334 36C43.334 34.895 42.438 34 41.334 34C40.229 34 39.334 34.895 39.334 36C39.334 37.105 40.229 38 41.334 38Z" stroke="#CAFE15" stroke-width="1.5" stroke-linecap="round" stroke-linejoin="round"/>
<path d="M18.668 38C19.772 38 20.668 37.105 20.668 36C20.668 34.895 19.772 34 18.668 34C17.563 34 16.668 34.895 16.668 36C16.668 37.105 17.563 38 18.668 38Z" stroke="#CAFE15" stroke-width="1.5" stroke-linecap="round" stroke-linejoin="round"/>
<path d="M30 27L32.667 28.5V31.5L30 33L27.334 31.5V28.5L30 27Z" stroke="#CAFE15" stroke-width="1.5" stroke-linecap="round" stroke-linejoin="round"/>
<rect x="0.5" y="0.5" width="59" height="59" rx="11.5" stroke="#191919"/>
</g>
<defs>
<clipPath id="clip0_943_216231">
<rect width="60" height="60" rx="12" fill="white"/>
</clipPath>
</defs>
</svg>
