<svg width="48" height="48" viewBox="0 0 48 48" fill="none" xmlns="http://www.w3.org/2000/svg">
<g clip-path="url(#clip0_943_216471)">
<rect width="48" height="48" rx="10" fill="#141414"/>
<rect x="0.5" y="0.5" width="47" height="47" rx="9.5" stroke="#191919"/>
<path opacity="0.2" d="M33.6184 29.9145C33.4485 31.1844 32.8232 32.3494 31.8587 33.1928C30.8942 34.0361 29.6562 34.5005 28.375 34.4995C24.4299 34.4995 20.6464 32.9324 17.8568 30.1428C15.0672 27.3532 13.5 23.5696 13.5 19.6246C13.499 18.3433 13.9634 17.1054 14.8068 16.1409C15.6501 15.1764 16.8151 14.551 18.085 14.3811C18.2727 14.3588 18.4626 14.3979 18.6263 14.4925C18.7899 14.5872 18.9185 14.7323 18.9928 14.9061L21.3039 20.0686C21.3607 20.2012 21.3838 20.3458 21.3712 20.4895C21.3586 20.6332 21.3107 20.7715 21.2317 20.8922L18.8944 23.6714C18.8115 23.7965 18.7624 23.941 18.7521 24.0907C18.7417 24.2405 18.7704 24.3903 18.8353 24.5256C19.7399 26.3774 21.6539 28.2685 23.5111 29.1642C23.6471 29.2289 23.7977 29.2569 23.9479 29.2456C24.098 29.2343 24.2427 29.184 24.3675 29.0997L27.1019 26.77C27.2231 26.6894 27.3624 26.6403 27.5074 26.6271C27.6523 26.6139 27.7983 26.6371 27.932 26.6945L33.0902 29.0056C33.2648 29.0795 33.4107 29.208 33.506 29.3719C33.6013 29.5358 33.6407 29.7263 33.6184 29.9145Z" fill="#CAFE15"/>
<path d="M25.7795 15.0234C25.8092 14.9123 25.8605 14.8082 25.9305 14.717C26.0004 14.6258 26.0877 14.5493 26.1872 14.4918C26.2868 14.4343 26.3966 14.397 26.5106 14.382C26.6246 14.3669 26.7404 14.3745 26.8514 14.4043C28.4735 14.8275 29.9535 15.6755 31.1389 16.8609C32.3243 18.0463 33.1723 19.5263 33.5955 21.1484C33.6252 21.2594 33.6328 21.3752 33.6178 21.4892C33.6028 21.6031 33.5655 21.713 33.508 21.8126C33.4505 21.9121 33.374 21.9994 33.2828 22.0693C33.1916 22.1393 33.0875 22.1905 32.9764 22.2202C32.9025 22.2397 32.8264 22.2496 32.75 22.2498C32.5572 22.2498 32.3698 22.1861 32.2169 22.0686C32.064 21.9511 31.9542 21.7864 31.9045 21.6001C31.5594 20.2759 30.8673 19.0677 29.8997 18.1001C28.932 17.1325 27.7239 16.4404 26.3997 16.0953C26.2886 16.0657 26.1843 16.0145 26.093 15.9446C26.0017 15.8747 25.925 15.7874 25.8674 15.6879C25.8098 15.5883 25.7724 15.4784 25.7573 15.3644C25.7422 15.2504 25.7498 15.1345 25.7795 15.0234ZM25.5247 19.5953C27.033 19.9978 28.002 20.9668 28.4045 22.4751C28.4542 22.6614 28.564 22.8261 28.7169 22.9436C28.8698 23.0611 29.0572 23.1248 29.25 23.1248C29.3264 23.1246 29.4025 23.1147 29.4764 23.0952C29.5875 23.0655 29.6916 23.0143 29.7828 22.9443C29.874 22.8744 29.9505 22.7871 30.008 22.6876C30.0655 22.588 30.1028 22.4781 30.1178 22.3642C30.1328 22.2502 30.1252 22.1344 30.0955 22.0234C29.5355 19.9278 28.072 18.4643 25.9764 17.9043C25.7522 17.8444 25.5133 17.876 25.3124 17.9922C25.1115 18.1084 24.965 18.2997 24.9051 18.5239C24.8452 18.7482 24.8768 18.987 24.993 19.1879C25.1092 19.3888 25.3005 19.5354 25.5247 19.5953ZM34.4869 30.0242C34.2919 31.5062 33.564 32.8666 32.4393 33.8513C31.3145 34.8359 29.8698 35.3775 28.375 35.3748C19.6906 35.3748 12.625 28.3092 12.625 19.6248C12.6223 18.1299 13.1639 16.6852 14.1485 15.5605C15.1332 14.4358 16.4936 13.7079 17.9756 13.5129C18.3504 13.4671 18.7299 13.5438 19.0576 13.7315C19.3852 13.9191 19.6433 14.2077 19.7935 14.5542L22.1034 19.7112V19.7243C22.2184 19.9895 22.2659 20.279 22.2416 20.567C22.2174 20.855 22.1222 21.1325 21.9645 21.3748C21.9449 21.4043 21.9241 21.4317 21.9022 21.459L19.625 24.1584C20.4442 25.8231 22.1855 27.549 23.872 28.3704L26.5342 26.1052C26.5604 26.0833 26.5878 26.0628 26.6163 26.044C26.8583 25.8826 27.1368 25.784 27.4265 25.7573C27.7162 25.7305 28.008 25.7765 28.2755 25.8909L28.2897 25.8974L33.4424 28.2063C33.7894 28.3559 34.0787 28.6138 34.267 28.9415C34.4552 29.2692 34.5324 29.649 34.4869 30.0242ZM32.75 29.8054C32.75 29.8054 32.7424 29.8054 32.738 29.8054L27.5974 27.5031L24.9341 29.7682C24.9082 29.7901 24.8812 29.8105 24.8531 29.8295C24.6013 29.9975 24.3102 30.0973 24.0083 30.1191C23.7063 30.141 23.4039 30.0841 23.1305 29.9542C21.0819 28.9643 19.0398 26.9376 18.0489 24.9109C17.9177 24.6395 17.8588 24.3388 17.878 24.0379C17.8971 23.7371 17.9937 23.4463 18.1583 23.1937C18.1768 23.164 18.1977 23.1359 18.2206 23.1095L20.5 20.4068L18.2031 15.2662C18.2027 15.2618 18.2027 15.2574 18.2031 15.2531C17.1425 15.3914 16.1686 15.9117 15.464 16.7164C14.7593 17.5211 14.3721 18.5551 14.375 19.6248C14.3791 23.3366 15.8554 26.8952 18.48 29.5198C21.1046 32.1444 24.6632 33.6207 28.375 33.6248C29.444 33.6285 30.4777 33.2427 31.2829 32.5395C32.0881 31.8364 32.6096 30.864 32.75 29.8043V29.8054Z" fill="#CAFE15"/>
</g>
<defs>
<clipPath id="clip0_943_216471">
<rect width="48" height="48" rx="10" fill="white"/>
</clipPath>
</defs>
</svg>
