<svg width="28" height="28" viewBox="0 0 28 28" fill="none" xmlns="http://www.w3.org/2000/svg">
<path opacity="0.2" d="M23.6184 19.9145C23.4485 21.1844 22.8232 22.3494 21.8587 23.1928C20.8942 24.0361 19.6562 24.5005 18.375 24.4995C14.4299 24.4995 10.6464 22.9324 7.85679 20.1428C5.06718 17.3532 3.5 13.5696 3.5 9.62455C3.49902 8.34333 3.9634 7.10537 4.80677 6.14088C5.65014 5.17639 6.81511 4.55104 8.085 4.38111C8.27273 4.35881 8.46262 4.3979 8.62627 4.49254C8.78992 4.58718 8.91852 4.73228 8.99281 4.90611L11.3039 10.0686C11.3607 10.2012 11.3838 10.3458 11.3712 10.4895C11.3586 10.6332 11.3107 10.7715 11.2317 10.8922L8.89438 13.6714C8.81147 13.7965 8.76244 13.941 8.75209 14.0907C8.74173 14.2405 8.77041 14.3903 8.83531 14.5256C9.73985 16.3774 11.6539 18.2685 13.5111 19.1642C13.6471 19.2289 13.7977 19.2569 13.9479 19.2456C14.098 19.2343 14.2427 19.184 14.3675 19.0997L17.1019 16.77C17.2231 16.6894 17.3624 16.6403 17.5074 16.6271C17.6523 16.6139 17.7983 16.6371 17.932 16.6945L23.0902 19.0056C23.2648 19.0795 23.4107 19.208 23.506 19.3719C23.6013 19.5358 23.6407 19.7263 23.6184 19.9145Z" fill="#CAFE15"/>
<path d="M15.7795 5.02337C15.8092 4.91233 15.8605 4.80822 15.9305 4.717C16.0004 4.62579 16.0877 4.54925 16.1872 4.49176C16.2868 4.43427 16.3966 4.39695 16.5106 4.38195C16.6246 4.36694 16.7404 4.37454 16.8514 4.40431C18.4735 4.82754 19.9535 5.67551 21.1389 6.86091C22.3243 8.04631 23.1723 9.52627 23.5955 11.1484C23.6252 11.2594 23.6328 11.3752 23.6178 11.4892C23.6028 11.6031 23.5655 11.713 23.508 11.8126C23.4505 11.9121 23.374 11.9994 23.2828 12.0693C23.1916 12.1393 23.0875 12.1905 22.9764 12.2202C22.9025 12.2397 22.8264 12.2496 22.75 12.2498C22.5572 12.2498 22.3698 12.1861 22.2169 12.0686C22.064 11.9511 21.9542 11.7864 21.9045 11.6001C21.5594 10.2759 20.8673 9.06774 19.8997 8.10012C18.932 7.13249 17.7239 6.44042 16.3997 6.09525C16.2886 6.06566 16.1843 6.01446 16.093 5.94456C16.0017 5.87466 15.925 5.78744 15.8674 5.68788C15.8098 5.58833 15.7724 5.4784 15.7573 5.36437C15.7422 5.25035 15.7498 5.13447 15.7795 5.02337ZM15.5247 9.59525C17.033 9.99775 18.002 10.9668 18.4045 12.4751C18.4542 12.6614 18.564 12.8261 18.7169 12.9436C18.8698 13.0611 19.0572 13.1248 19.25 13.1248C19.3264 13.1246 19.4025 13.1147 19.4764 13.0952C19.5875 13.0655 19.6916 13.0143 19.7828 12.9443C19.874 12.8744 19.9505 12.7871 20.008 12.6876C20.0655 12.588 20.1028 12.4781 20.1178 12.3642C20.1328 12.2502 20.1252 12.1344 20.0955 12.0234C19.5355 9.92775 18.072 8.46431 15.9764 7.90431C15.7522 7.84441 15.5133 7.87604 15.3124 7.99224C15.1115 8.10843 14.965 8.29969 14.9051 8.52392C14.8452 8.74815 14.8768 8.987 14.993 9.18791C15.1092 9.38882 15.3005 9.53535 15.5247 9.59525ZM24.4869 20.0242C24.2919 21.5062 23.564 22.8666 22.4393 23.8513C21.3145 24.8359 19.8698 25.3775 18.375 25.3748C9.69063 25.3748 2.62501 18.3092 2.62501 9.62478C2.62233 8.12994 3.16389 6.68524 4.14853 5.56051C5.13317 4.43578 6.49357 3.70793 7.97563 3.5129C8.35041 3.46714 8.72994 3.54382 9.05756 3.73148C9.38518 3.91914 9.64332 4.20772 9.79345 4.55415L12.1034 9.71119V9.72431C12.2184 9.98949 12.2659 10.279 12.2416 10.567C12.2174 10.855 12.1222 11.1325 11.9645 11.3748C11.9449 11.4043 11.9241 11.4317 11.9022 11.459L9.62501 14.1584C10.4442 15.8231 12.1855 17.549 13.872 18.3704L16.5342 16.1052C16.5604 16.0833 16.5878 16.0628 16.6163 16.044C16.8583 15.8826 17.1368 15.784 17.4265 15.7573C17.7162 15.7305 18.008 15.7765 18.2755 15.8909L18.2897 15.8974L23.4424 18.2063C23.7894 18.3559 24.0787 18.6138 24.267 18.9415C24.4552 19.2692 24.5324 19.649 24.4869 20.0242ZM22.75 19.8054C22.75 19.8054 22.7424 19.8054 22.738 19.8054L17.5974 17.5031L14.9341 19.7682C14.9082 19.7901 14.8812 19.8105 14.8531 19.8295C14.6013 19.9975 14.3102 20.0973 14.0083 20.1191C13.7063 20.141 13.4039 20.0841 13.1305 19.9542C11.0819 18.9643 9.03985 16.9376 8.04892 14.9109C7.9177 14.6395 7.85882 14.3388 7.87798 14.0379C7.89714 13.7371 7.9937 13.4463 8.15829 13.1937C8.17684 13.164 8.19769 13.1359 8.22064 13.1095L10.5 10.4068L8.20314 5.26619C8.2027 5.26182 8.2027 5.25742 8.20314 5.25306C7.14248 5.39142 6.16863 5.91168 5.46396 6.7164C4.75929 7.52113 4.37214 8.55514 4.37501 9.62478C4.37906 13.3366 5.85536 16.8952 8.47999 19.5198C11.1046 22.1444 14.6632 23.6207 18.375 23.6248C19.444 23.6285 20.4777 23.2427 21.2829 22.5395C22.0881 21.8364 22.6096 20.864 22.75 19.8043V19.8054Z" fill="#CAFE15"/>
</svg>
