<svg width="44" height="44" viewBox="0 0 44 44" fill="none" xmlns="http://www.w3.org/2000/svg">
<path opacity="0.5" d="M24.9855 37.5316L23.9916 39.2107C23.1058 40.7073 20.8929 40.7073 20.0071 39.2107L19.0132 37.5316C18.2424 36.2292 17.8569 35.5782 17.2378 35.2179C16.6187 34.8579 15.8392 34.8445 14.2802 34.8177C11.9788 34.7779 10.5353 34.6369 9.32475 34.1355C7.07866 33.2051 5.29414 31.4207 4.36378 29.1745C3.66602 27.4901 3.66602 25.3544 3.66602 21.0833V19.25C3.66602 13.2487 3.66602 10.248 5.01682 8.04373C5.77266 6.8103 6.80969 5.77327 8.04312 5.01743C10.2474 3.66663 13.2481 3.66663 19.2493 3.66663H24.7493C30.7506 3.66663 33.7512 3.66663 35.9556 5.01743C37.1891 5.77327 38.226 6.8103 38.9819 8.04373C40.3327 10.248 40.3327 13.2487 40.3327 19.25V21.0833C40.3327 25.3544 40.3327 27.4901 39.6349 29.1745C38.7045 31.4207 36.9201 33.2051 34.6739 34.1355C33.4634 34.6369 32.02 34.7779 29.7184 34.8177C28.1593 34.8445 27.38 34.8579 26.7609 35.2179C26.1418 35.578 25.7562 36.2292 24.9855 37.5316Z" fill="#DCFC36"/>
<path d="M20.1485 26.2317C17.716 24.4391 13.75 21.0236 13.75 17.8104C13.75 12.9023 18.2876 11.0698 22 14.8613C25.7123 11.0698 30.25 12.9023 30.25 17.8104C30.25 21.0236 26.284 24.4391 23.8515 26.2317C23.019 26.8455 22.6026 27.1523 22 27.1523C21.3974 27.1523 20.981 26.8455 20.1485 26.2317Z" fill="#DCFC36"/>
</svg>
