<svg width="180" height="180" viewBox="0 0 180 180" fill="none" xmlns="http://www.w3.org/2000/svg">
<g clip-path="url(#clip0_1264_7142)">
<g clip-path="url(#clip1_1264_7142)">
<g clip-path="url(#clip2_1264_7142)">
<g clip-path="url(#clip3_1264_7142)">
<path d="M180 90C180 40.2944 139.706 0 90 0C40.2944 0 0 40.2944 0 90C0 139.706 40.2944 180 90 180C139.706 180 180 139.706 180 90Z" fill="url(#paint0_linear_1264_7142)" fill-opacity="0.1"/>
<path d="M179.285 90.0001C179.285 40.6889 139.311 0.714355 89.9996 0.714355C40.6884 0.714355 0.713867 40.6889 0.713867 90.0001C0.713867 139.311 40.6884 179.286 89.9996 179.286C139.311 179.286 179.285 139.311 179.285 90.0001Z" stroke="url(#paint1_linear_1264_7142)" stroke-opacity="0.05" stroke-width="1.42857"/>
<path d="M168.572 89.9999C168.572 46.6061 133.394 11.4285 90.0001 11.4285C46.6063 11.4285 11.4287 46.6061 11.4287 89.9999C11.4287 133.394 46.6063 168.571 90.0001 168.571C133.394 168.571 168.572 133.394 168.572 89.9999Z" fill="url(#paint2_linear_1264_7142)" fill-opacity="0.15"/>
<path d="M167.857 90C167.857 47.0006 132.999 12.1428 89.9997 12.1428C47.0004 12.1428 12.1426 47.0006 12.1426 90C12.1426 132.999 47.0004 167.857 89.9997 167.857C132.999 167.857 167.857 132.999 167.857 90Z" stroke="url(#paint3_linear_1264_7142)" stroke-opacity="0.15" stroke-width="1.42857"/>
<path d="M157.143 90C157.143 52.9181 127.082 22.8572 90.0003 22.8572C52.9183 22.8572 22.8574 52.9181 22.8574 90C22.8574 127.082 52.9183 157.143 90.0003 157.143C127.082 157.143 157.143 127.082 157.143 90Z" fill="url(#paint4_linear_1264_7142)" fill-opacity="0.2"/>
<path d="M156.428 90.0001C156.428 53.3126 126.687 23.5715 89.9999 23.5715C53.3124 23.5715 23.5713 53.3126 23.5713 90.0001C23.5713 126.688 53.3124 156.429 89.9999 156.429C126.687 156.429 156.428 126.688 156.428 90.0001Z" stroke="url(#paint5_linear_1264_7142)" stroke-opacity="0.2" stroke-width="1.42857"/>
<g filter="url(#filter0_i_1264_7142)">
<path d="M142.857 90C142.857 60.8078 119.192 37.1428 89.9997 37.1428C60.8075 37.1428 37.1426 60.8078 37.1426 90C37.1426 119.192 60.8075 142.857 89.9997 142.857C119.192 142.857 142.857 119.192 142.857 90Z" fill="url(#paint6_linear_1264_7142)" fill-opacity="0.2"/>
<path d="M142.142 90C142.142 61.2023 118.797 37.8572 89.9993 37.8572C61.2016 37.8572 37.8564 61.2023 37.8564 90C37.8564 118.798 61.2016 142.143 89.9993 142.143C118.797 142.143 142.142 118.798 142.142 90Z" stroke="url(#paint7_linear_1264_7142)" stroke-opacity="0.2" stroke-width="1.42857"/>
</g>
</g>
</g>
</g>
<path opacity="0.5" d="M92.9865 105.531L91.9926 107.211C91.1067 108.707 88.8939 108.707 88.008 107.211L87.0142 105.531C86.2433 104.229 85.8579 103.578 85.2388 103.218C84.6197 102.858 83.8402 102.844 82.2812 102.818C79.9797 102.778 78.5363 102.637 77.3257 102.135C75.0796 101.205 73.2951 99.4206 72.3648 97.1744C71.667 95.4899 71.667 93.3543 71.667 89.0832V87.2498C71.667 81.2485 71.667 78.2479 73.0178 76.0436C73.7736 74.8102 74.8107 73.7732 76.0441 73.0173C78.2484 71.6665 81.249 71.6665 87.2503 71.6665H92.7503C98.7516 71.6665 101.752 71.6665 103.957 73.0173C105.19 73.7732 106.227 74.8102 106.983 76.0436C108.334 78.2479 108.334 81.2485 108.334 87.2498V89.0832C108.334 93.3543 108.334 95.4899 107.636 97.1744C106.705 99.4206 104.921 101.205 102.675 102.135C101.464 102.637 100.021 102.778 97.7194 102.818C96.1603 102.844 95.381 102.858 94.7619 103.218C94.1427 103.578 93.7572 104.229 92.9865 105.531Z" fill="#DCFC36"/>
<path d="M88.1485 94.2316C85.716 92.439 81.75 89.0235 81.75 85.8103C81.75 80.9022 86.2876 79.0697 90 82.8612C93.7123 79.0697 98.25 80.9022 98.25 85.8103C98.25 89.0235 94.284 92.439 91.8515 94.2316C91.019 94.8454 90.6026 95.1521 90 95.1521C89.3974 95.1521 88.981 94.8454 88.1485 94.2316Z" fill="#DCFC36"/>
</g>
<defs>
<filter id="filter0_i_1264_7142" x="37.1426" y="37.1428" width="105.714" height="111.429" filterUnits="userSpaceOnUse" color-interpolation-filters="sRGB">
<feFlood flood-opacity="0" result="BackgroundImageFix"/>
<feBlend mode="normal" in="SourceGraphic" in2="BackgroundImageFix" result="shape"/>
<feColorMatrix in="SourceAlpha" type="matrix" values="0 0 0 0 0 0 0 0 0 0 0 0 0 0 0 0 0 0 127 0" result="hardAlpha"/>
<feOffset dy="5.71429"/>
<feGaussianBlur stdDeviation="2.85714"/>
<feComposite in2="hardAlpha" operator="arithmetic" k2="-1" k3="1"/>
<feColorMatrix type="matrix" values="0 0 0 0 0.862745 0 0 0 0 0.988235 0 0 0 0 0.211765 0 0 0 0.2 0"/>
<feBlend mode="normal" in2="shape" result="effect1_innerShadow_1264_7142"/>
</filter>
<linearGradient id="paint0_linear_1264_7142" x1="90" y1="-48.2729" x2="90" y2="226.636" gradientUnits="userSpaceOnUse">
<stop stop-color="#DCFC36"/>
<stop offset="0.793" stop-color="#DCFC36" stop-opacity="0"/>
</linearGradient>
<linearGradient id="paint1_linear_1264_7142" x1="89.9996" y1="6.97008e-05" x2="89.9996" y2="180" gradientUnits="userSpaceOnUse">
<stop stop-color="#F6FECD"/>
<stop offset="1" stop-color="#F6FECD" stop-opacity="0"/>
</linearGradient>
<linearGradient id="paint2_linear_1264_7142" x1="90.0001" y1="-30.7144" x2="90.0001" y2="209.286" gradientUnits="userSpaceOnUse">
<stop stop-color="#DCFC36"/>
<stop offset="0.793" stop-color="#DCFC36" stop-opacity="0"/>
</linearGradient>
<linearGradient id="paint3_linear_1264_7142" x1="89.9997" y1="11.4285" x2="89.9997" y2="168.571" gradientUnits="userSpaceOnUse">
<stop stop-color="#F6FECD"/>
<stop offset="1" stop-color="#F6FECD" stop-opacity="0"/>
</linearGradient>
<linearGradient id="paint4_linear_1264_7142" x1="90.0003" y1="-13.1557" x2="90.0003" y2="191.936" gradientUnits="userSpaceOnUse">
<stop stop-color="#DCFC36"/>
<stop offset="0.793" stop-color="#DCFC36" stop-opacity="0"/>
</linearGradient>
<linearGradient id="paint5_linear_1264_7142" x1="89.9999" y1="22.8572" x2="89.9999" y2="157.143" gradientUnits="userSpaceOnUse">
<stop stop-color="#F6FECD"/>
<stop offset="1" stop-color="#F6FECD" stop-opacity="0"/>
</linearGradient>
<linearGradient id="paint6_linear_1264_7142" x1="89.9997" y1="-20.67" x2="89.9997" y2="170.247" gradientUnits="userSpaceOnUse">
<stop stop-color="#DCFC36"/>
<stop offset="0.87" stop-color="#DCFC36" stop-opacity="0"/>
</linearGradient>
<linearGradient id="paint7_linear_1264_7142" x1="89.9993" y1="37.1429" x2="89.9993" y2="142.857" gradientUnits="userSpaceOnUse">
<stop stop-color="#F6FECD"/>
<stop offset="1" stop-color="#F6FECD" stop-opacity="0"/>
</linearGradient>
<clipPath id="clip0_1264_7142">
<rect width="180" height="180" fill="white"/>
</clipPath>
<clipPath id="clip1_1264_7142">
<rect width="180" height="180" fill="white"/>
</clipPath>
<clipPath id="clip2_1264_7142">
<rect width="180" height="180" fill="white"/>
</clipPath>
<clipPath id="clip3_1264_7142">
<rect width="180" height="180" fill="white"/>
</clipPath>
</defs>
</svg>
