<svg width="46" height="46" viewBox="0 0 46 46" fill="none" xmlns="http://www.w3.org/2000/svg">
<rect width="46" height="46" rx="8" fill="#A179DC" fill-opacity="0.4"/>
<path d="M35.9987 16.8195C35.9985 16.3151 35.8934 15.8694 35.6809 15.4869C35.4721 15.1107 35.1595 14.7954 34.7402 14.5462C31.2789 12.4973 27.8142 10.4547 24.354 8.40377C23.4212 7.85091 22.5167 7.87107 21.5908 8.43187C20.213 9.26597 13.3153 13.3228 11.2599 14.545C10.4134 15.0481 10.0015 15.8179 10.0013 16.8186C10 20.939 10.0013 25.0592 10 29.1797C10 29.6731 10.1008 30.1101 10.304 30.4869C10.5128 30.8744 10.8298 31.1984 11.2588 31.4533C13.3143 32.6755 20.2129 36.732 21.5903 37.5663C22.5167 38.1275 23.4212 38.1475 24.3543 37.5944C27.8146 35.5434 31.2795 33.5009 34.7413 31.4521C35.1703 31.1972 35.4873 30.8731 35.6961 30.4858C35.899 30.1091 36 29.672 36 29.1786C36 29.1786 36 20.94 35.9987 16.8195Z" fill="#A179DC"/>
<path d="M23.0385 22.9595L10.3027 30.4874C10.5116 30.8749 10.8286 31.1989 11.2576 31.4538C13.3131 32.6759 20.2117 36.7325 21.5891 37.5668C22.5155 38.1279 23.4199 38.148 24.3531 37.5949C27.8134 35.5439 31.2783 33.5014 34.7401 31.4525C35.1691 31.1977 35.4861 30.8735 35.6949 30.4863L23.0385 22.9595Z" fill="#280068"/>
<path d="M35.998 16.8185C35.9978 16.3141 35.8927 15.8684 35.6802 15.4858L23.0391 22.958L35.6954 30.4848C35.8983 30.108 35.9991 29.671 35.9993 29.1775C35.9993 29.1775 35.9993 20.939 35.998 16.8185Z" fill="#390091"/>
<path d="M30.5384 20.147V21.5541H31.9091V20.147H32.5944V21.5541H33.9651V22.2576H32.5944V23.6647H33.9651V24.3682H32.5944V25.7753H31.9091V24.3682H30.5384V25.7753H29.8531V24.3682H28.4824V23.6647H29.8531V22.2576H28.4824V21.5541H29.8531V20.147H30.5384ZM31.9091 22.2576H30.5384V23.6647H31.9091V22.2576Z" fill="white"/>
<path d="M23.0666 13.0776C26.6417 13.0776 29.7631 15.0709 31.435 18.0336L31.4187 18.0051L27.2123 20.4914C26.3836 19.0509 24.8643 18.0788 23.1215 18.0588L23.0666 18.0585C20.4089 18.0585 18.2542 20.2703 18.2542 22.9986C18.2542 23.8909 18.486 24.7272 18.8889 25.4496C19.7184 26.9362 21.2778 27.9389 23.0666 27.9389C24.8665 27.9389 26.4347 26.9235 27.26 25.421L27.24 25.457L31.44 27.9548C29.7865 30.8925 26.7078 32.8795 23.1743 32.9191L23.0666 32.9197C19.4802 32.9197 16.35 30.9143 14.6823 27.9359C13.8682 26.4819 13.4023 24.7962 13.4023 22.9986C13.4023 17.5195 17.7291 13.0776 23.0666 13.0776Z" fill="white"/>
</svg>
