<svg width="46" height="46" viewBox="0 0 46 46" fill="none" xmlns="http://www.w3.org/2000/svg">
<rect width="46" height="46" rx="8" fill="#264DE4" fill-opacity="0.3"/>
<path d="M36 12.0742L33.6313 38.1045L22.9841 41.0001L12.3662 38.1086L10 12.0742H36Z" fill="#264DE4"/>
<path d="M31.6035 36.4472L33.6277 14.2031H23V38.7871L31.6035 36.4472Z" fill="#2965F1"/>
<path d="M15.4234 23.8594L15.7152 27.0524H22.9991V23.8594H15.4234Z" fill="#EBEBEB"/>
<path d="M23.0003 17.3965H22.989H14.8384L15.1343 20.5895H23.0003V17.3965Z" fill="#EBEBEB"/>
<path d="M23.0007 35.4755V32.1535L22.9864 32.1572L19.3614 31.197L19.1296 28.6504H17.3681H15.8622L16.3182 33.6639L22.9857 35.4796L23.0007 35.4755Z" fill="#EBEBEB"/>
<path d="M16.1181 5H20.0604V6.61723H17.7667V8.23446H20.0604V9.85169H16.1181V5Z" fill="white"/>
<path d="M20.8509 5H24.7932V6.40629H22.4995V6.68755H24.7932V9.92201H20.8509V8.4454H23.1446V8.16415H20.8509V5Z" fill="white"/>
<path d="M25.5797 5H29.522V6.40629H27.2283V6.68755H29.522V9.92201H25.5797V8.4454H27.8734V8.16415H25.5797V5Z" fill="white"/>
<path d="M27 27.0522L26.6222 31.1933L22.9919 32.1545V35.4764L29.6647 33.6622L29.7136 33.1228L30.4785 24.7166L30.5579 23.8592L31.1455 17.3965H22.9919V20.5895H27.5784L27.2822 23.8592H22.9919V27.0522H27Z" fill="white"/>
</svg>
