<svg width="60" height="60" viewBox="0 0 60 60" fill="none" xmlns="http://www.w3.org/2000/svg">
<g clip-path="url(#clip0_943_216252)">
<rect width="60" height="60" rx="12" fill="#1F1F1F"/>
<path d="M40.666 22C40.666 19.109 35.782 16.667 29.999 16.667C24.216 16.667 19.332 19.109 19.332 22V24.667C19.332 27.557 24.216 30 29.999 30C35.782 30 40.666 27.557 40.666 24.667V22ZM29.999 39.333C24.216 39.333 19.332 36.891 19.332 34V38C19.332 40.891 24.216 43.333 29.999 43.333C35.782 43.333 40.666 40.891 40.666 38V34C40.666 36.891 35.782 39.333 29.999 39.333Z" fill="#CAFE15"/>
<path d="M40.666 27.333C40.666 30.224 35.782 32.667 29.999 32.667C24.216 32.667 19.332 30.224 19.332 27.333V31.333C19.332 34.224 24.216 36.667 29.999 36.667C35.782 36.667 40.666 34.224 40.666 31.333V27.333Z" fill="#CAFE15"/>
<rect x="0.5" y="0.5" width="59" height="59" rx="11.5" stroke="#191919"/>
</g>
<defs>
<clipPath id="clip0_943_216252">
<rect width="60" height="60" rx="12" fill="white"/>
</clipPath>
</defs>
</svg>
