<svg width="62" height="62" viewBox="0 0 62 62" fill="none" xmlns="http://www.w3.org/2000/svg">
<g clip-path="url(#clip0_943_216201)">
<rect width="62" height="62" rx="12" fill="#1F1F1F"/>
<path d="M24.625 45.875H18.25C17.686 45.875 17.146 45.651 16.747 45.253C16.349 44.854 16.125 44.314 16.125 43.75V31C16.125 30.436 16.349 29.896 16.747 29.497C17.146 29.099 17.686 28.875 18.25 28.875H24.625C25.189 28.875 25.729 29.099 26.128 29.497C26.526 29.896 26.75 30.436 26.75 31V43.75C26.75 44.314 26.526 44.854 26.128 45.253C25.729 45.651 25.189 45.875 24.625 45.875ZM18.25 31V43.75H24.625V31H18.25Z" fill="#CAFE15"/>
<path d="M43.75 18.25H20.375C19.811 18.25 19.271 18.474 18.872 18.872C18.474 19.271 18.25 19.811 18.25 20.375V26.75H20.375V20.375H43.75V35.25H28.875V37.375H31V41.625H28.875V43.75H38.438V41.625H33.125V37.375H43.75C44.314 37.375 44.854 37.151 45.253 36.753C45.651 36.354 45.875 35.814 45.875 35.25V20.375C45.875 19.811 45.651 19.271 45.253 18.872C44.854 18.474 44.314 18.25 43.75 18.25Z" fill="#CAFE15"/>
<rect x="0.5" y="0.5" width="61" height="61" rx="11.5" stroke="#191919"/>
</g>
<defs>
<clipPath id="clip0_943_216201">
<rect width="62" height="62" rx="12" fill="white"/>
</clipPath>
</defs>
</svg>
