<svg width="72" height="72" viewBox="0 0 72 72" fill="none" xmlns="http://www.w3.org/2000/svg">
<circle cx="36" cy="36" r="35" fill="url(#paint0_linear_1138_2097)" stroke="url(#paint1_linear_1138_2097)" stroke-width="2"/>
<path d="M29.57 40.2864H28.4986V39.215C28.4986 38.9308 28.3857 38.6583 28.1848 38.4574C27.9839 38.2564 27.7113 38.1436 27.4272 38.1436C27.143 38.1436 26.8705 38.2564 26.6696 38.4574C26.4686 38.6583 26.3557 38.9308 26.3557 39.215V40.2864H25.2843C25.0002 40.2864 24.7276 40.3993 24.5267 40.6002C24.3258 40.8012 24.2129 41.0737 24.2129 41.3579C24.2129 41.642 24.3258 41.9146 24.5267 42.1155C24.7276 42.3164 25.0002 42.4293 25.2843 42.4293H26.3557V43.5007C26.3557 43.7849 26.4686 44.0574 26.6696 44.2584C26.8705 44.4593 27.143 44.5722 27.4272 44.5722C27.7113 44.5722 27.9839 44.4593 28.1848 44.2584C28.3857 44.0574 28.4986 43.7849 28.4986 43.5007V42.4293H29.57C29.8542 42.4293 30.1267 42.3164 30.3276 42.1155C30.5286 41.9146 30.6415 41.642 30.6415 41.3579C30.6415 41.0737 30.5286 40.8012 30.3276 40.6002C30.1267 40.3993 29.8542 40.2864 29.57 40.2864Z" fill="white"/>
<path d="M44.5695 40.2864C45.1612 40.2864 45.6409 39.8067 45.6409 39.215C45.6409 38.6233 45.1612 38.1436 44.5695 38.1436C43.9777 38.1436 43.498 38.6233 43.498 39.215C43.498 39.8067 43.9777 40.2864 44.5695 40.2864Z" fill="white"/>
<path d="M44.5695 44.5716C45.1612 44.5716 45.6409 44.0919 45.6409 43.5001C45.6409 42.9084 45.1612 42.4287 44.5695 42.4287C43.9777 42.4287 43.498 42.9084 43.498 43.5001C43.498 44.0919 43.9777 44.5716 44.5695 44.5716Z" fill="white"/>
<path d="M46.714 42.428C47.3057 42.428 47.7854 41.9483 47.7854 41.3566C47.7854 40.7649 47.3057 40.2852 46.714 40.2852C46.1223 40.2852 45.6426 40.7649 45.6426 41.3566C45.6426 41.9483 46.1223 42.428 46.714 42.428Z" fill="white"/>
<path d="M42.4249 42.428C43.0167 42.428 43.4964 41.9483 43.4964 41.3566C43.4964 40.7649 43.0167 40.2852 42.4249 40.2852C41.8332 40.2852 41.3535 40.7649 41.3535 41.3566C41.3535 41.9483 41.8332 42.428 42.4249 42.428Z" fill="white"/>
<path d="M33.0991 30.3295C33.1984 30.4294 33.3164 30.5086 33.4464 30.5627C33.5764 30.6167 33.7158 30.6446 33.8566 30.6446C33.9974 30.6446 34.1368 30.6167 34.2668 30.5627C34.3968 30.5086 34.5149 30.4294 34.6141 30.3295C34.815 30.1286 34.9278 29.8561 34.9278 29.572C34.9278 29.2879 34.815 29.0154 34.6141 28.8145L33.2288 27.4291L34.6141 26.0438C34.7165 25.9449 34.7981 25.8267 34.8542 25.696C34.9104 25.5653 34.94 25.4247 34.9412 25.2824C34.9424 25.1401 34.9153 24.9991 34.8614 24.8674C34.8076 24.7357 34.728 24.6161 34.6274 24.5155C34.5268 24.4149 34.4072 24.3353 34.2755 24.2814C34.1438 24.2276 34.0028 24.2005 33.8605 24.2017C33.7182 24.2029 33.5776 24.2325 33.4469 24.2886C33.3162 24.3448 33.198 24.4264 33.0991 24.5288L30.9563 26.6716C30.7554 26.8726 30.6426 27.145 30.6426 27.4291C30.6426 27.7132 30.7554 27.9857 30.9563 28.1866L33.0991 30.3295ZM37.3848 30.3295C37.4841 30.4294 37.6021 30.5086 37.7322 30.5627C37.8621 30.6167 38.0016 30.6446 38.1423 30.6446C38.2831 30.6446 38.4225 30.6167 38.5525 30.5627C38.6825 30.5086 38.8006 30.4294 38.8998 30.3295L41.0427 28.1866C41.2436 27.9857 41.3564 27.7132 41.3564 27.4291C41.3564 27.145 41.2436 26.8726 41.0427 26.6716L38.8998 24.5288C38.801 24.4264 38.6828 24.3448 38.5521 24.2886C38.4213 24.2325 38.2808 24.2029 38.1385 24.2017C37.9962 24.2005 37.8551 24.2276 37.7235 24.2814C37.5918 24.3353 37.4722 24.4149 37.3716 24.5155C37.271 24.6161 37.1914 24.7357 37.1375 24.8674C37.0837 24.9991 37.0566 25.1401 37.0578 25.2824C37.059 25.4247 37.0886 25.5653 37.1447 25.696C37.2009 25.8267 37.2825 25.9449 37.3848 26.0438L38.7702 27.4291L37.3848 28.8145C37.184 29.0154 37.0711 29.2879 37.0711 29.572C37.0711 29.8561 37.184 30.1286 37.3848 30.3295Z" fill="white"/>
<path d="M30.6392 33.8573H33.5289L36.4732 35.8201C36.6344 35.9281 36.8221 35.9901 37.0159 35.9995C37.2098 36.009 37.4025 35.9655 37.5735 35.8737C37.7445 35.7821 37.8875 35.6459 37.9871 35.4794C38.0867 35.313 38.1393 35.1227 38.1392 34.9287V33.8573H41.3535C43.7171 33.8573 45.6392 31.9351 45.6392 29.5715V25.2858C45.6392 22.9222 43.7171 21 41.3535 21H30.6392C28.2757 21 26.3535 22.9222 26.3535 25.2858V29.5715C26.3535 31.9351 28.2757 33.8573 30.6392 33.8573ZM28.4964 25.2858C28.4964 24.104 29.4574 23.1429 30.6392 23.1429H41.3535C42.5353 23.1429 43.4964 24.104 43.4964 25.2858V29.5715C43.4964 30.7533 42.5353 31.7144 41.3535 31.7144H37.0678C36.7836 31.7144 36.5111 31.8273 36.3102 32.0282C36.1093 32.2291 35.9964 32.5017 35.9964 32.7858V32.9262L34.4482 31.8944C34.272 31.777 34.0651 31.7144 33.8535 31.7144H30.6392C29.4574 31.7144 28.4964 30.7533 28.4964 29.5715V25.2858Z" fill="white"/>
<path d="M45.6409 34.9282H42.0366C41.3102 34.9282 40.6288 35.2111 40.1155 35.7243L38.937 36.9029C38.8838 36.9565 38.8206 36.9989 38.7508 37.0278C38.6811 37.0567 38.6064 37.0714 38.5309 37.0711H33.4652C33.3897 37.0714 33.315 37.0567 33.2453 37.0278C33.1755 36.9989 33.1123 36.9565 33.0591 36.9029L31.8805 35.7243C31.6289 35.4711 31.3296 35.2704 30.9998 35.1337C30.67 34.9971 30.3164 34.9272 29.9595 34.9282H26.3552C23.1977 34.9282 20.998 39.4454 20.998 43.4997C20.998 47.7051 23.3509 50.9998 26.3552 50.9998C27.4187 51.0011 28.452 50.6463 29.2903 49.9918C30.1287 49.3374 30.7237 48.4211 30.9805 47.3891C31.2388 46.3605 32.1591 45.6426 33.2198 45.6426H38.7763C39.837 45.6426 40.7573 46.3605 41.0155 47.3891C41.2726 48.421 41.8676 49.3372 42.7059 49.9916C43.5442 50.646 44.5774 51.0009 45.6409 50.9998C48.6452 50.9998 50.998 47.7051 50.998 43.4997C50.998 39.4454 48.7984 34.9282 45.6409 34.9282ZM45.6409 48.8569C45.0551 48.8574 44.4861 48.6618 44.0245 48.3012C43.5629 47.9406 43.2353 47.4357 43.0941 46.8673C42.8535 45.9045 42.2977 45.05 41.5152 44.4398C40.7327 43.8295 39.7686 43.4986 38.7763 43.4997H33.2198C32.2274 43.4988 31.2632 43.83 30.4808 44.4404C29.6983 45.0508 29.1425 45.9055 28.902 46.8683C28.7607 47.4367 28.4331 47.9414 27.9715 48.3018C27.5099 48.6623 26.9409 48.8577 26.3552 48.8569C24.613 48.8569 23.1409 46.4033 23.1409 43.4997C23.1409 40.0979 24.9388 37.0711 26.3552 37.0711H29.9595C30.1127 37.0711 30.2573 37.1311 30.3655 37.2393L31.5441 38.4179C31.7957 38.6711 32.0951 38.8718 32.4249 39.0085C32.7546 39.1451 33.1082 39.215 33.4652 39.214H38.5309C39.2573 39.214 39.9388 38.9311 40.452 38.4179L41.6305 37.2393C41.6837 37.1858 41.747 37.1433 41.8167 37.1144C41.8864 37.0855 41.9612 37.0708 42.0366 37.0711H45.6409C47.0573 37.0711 48.8552 40.0979 48.8552 43.4997C48.8552 46.4033 47.383 48.8569 45.6409 48.8569Z" fill="white"/>
<defs>
<linearGradient id="paint0_linear_1138_2097" x1="-8.53146e-06" y1="-5.69493" x2="84.1299" y2="52.5941" gradientUnits="userSpaceOnUse">
<stop stop-color="#1A2613"/>
<stop offset="0.489"/>
<stop offset="1" stop-color="#001D2B"/>
</linearGradient>
<linearGradient id="paint1_linear_1138_2097" x1="72" y1="70.2439" x2="8.03673" y2="-5.56134" gradientUnits="userSpaceOnUse">
<stop stop-color="#14FF87"/>
<stop offset="1" stop-color="#CAFE15"/>
</linearGradient>
</defs>
</svg>
