<svg width="62" height="62" viewBox="0 0 62 62" fill="none" xmlns="http://www.w3.org/2000/svg">
<rect x="1" y="1" width="60" height="60" rx="9" fill="url(#paint0_linear_914_36336)" stroke="url(#paint1_linear_914_36336)" stroke-width="2"/>
<g clip-path="url(#clip0_914_36336)">
<path d="M41.5 36C41.6326 36 41.7598 35.9473 41.8536 35.8536C41.9473 35.7598 42 35.6326 42 35.5V35C42 34.8674 41.9473 34.7402 41.8536 34.6464C41.7598 34.5527 41.6326 34.5 41.5 34.5C41.3674 34.5 41.2402 34.5527 41.1464 34.6464C41.0527 34.7402 41 34.8674 41 35V35.5C41 35.6326 41.0527 35.7598 41.1464 35.8536C41.2402 35.9473 41.3674 36 41.5 36ZM40.5 36H40C39.8674 36 39.7402 36.0527 39.6464 36.1464C39.5527 36.2402 39.5 36.3674 39.5 36.5C39.5 36.6326 39.5527 36.7598 39.6464 36.8536C39.7402 36.9473 39.8674 37 40 37H40.5C40.6326 37 40.7598 36.9473 40.8536 36.8536C40.9473 36.7598 41 36.6326 41 36.5C41 36.3674 40.9473 36.2402 40.8536 36.1464C40.7598 36.0527 40.6326 36 40.5 36ZM41.5 37C41.3674 37 41.2402 37.0527 41.1464 37.1464C41.0527 37.2402 41 37.3674 41 37.5V38C41 38.1326 41.0527 38.2598 41.1464 38.3536C41.2402 38.4473 41.3674 38.5 41.5 38.5C41.6326 38.5 41.7598 38.4473 41.8536 38.3536C41.9473 38.2598 42 38.1326 42 38V37.5C42 37.3674 41.9473 37.2402 41.8536 37.1464C41.7598 37.0527 41.6326 37 41.5 37ZM43.5 36.5C43.5 36.3674 43.4473 36.2402 43.3536 36.1464C43.2598 36.0527 43.1326 36 43 36H42.5C42.3674 36 42.2402 36.0527 42.1464 36.1464C42.0527 36.2402 42 36.3674 42 36.5C42 36.6326 42.0527 36.7598 42.1464 36.8536C42.2402 36.9473 42.3674 37 42.5 37H43C43.1326 37 43.2598 36.9473 43.3536 36.8536C43.4473 36.7598 43.5 36.6326 43.5 36.5ZM33 36H32V35C32 34.8674 31.9473 34.7402 31.8536 34.6464C31.7598 34.5527 31.6326 34.5 31.5 34.5C31.3674 34.5 31.2402 34.5527 31.1464 34.6464C31.0527 34.7402 31 34.8674 31 35V36H30C29.8674 36 29.7402 36.0527 29.6464 36.1464C29.5527 36.2402 29.5 36.3674 29.5 36.5C29.5 36.6326 29.5527 36.7598 29.6464 36.8536C29.7402 36.9473 29.8674 37 30 37H31V38C31 38.1326 31.0527 38.2598 31.1464 38.3536C31.2402 38.4473 31.3674 38.5 31.5 38.5C31.6326 38.5 31.7598 38.4473 31.8536 38.3536C31.9473 38.2598 32 38.1326 32 38V37H33C33.1326 37 33.2598 36.9473 33.3536 36.8536C33.4473 36.7598 33.5 36.6326 33.5 36.5C33.5 36.3674 33.4473 36.2402 33.3536 36.1464C33.2598 36.0527 33.1326 36 33 36ZM35.5 38H35C34.8674 38 34.7402 38.0527 34.6464 38.1464C34.5527 38.2402 34.5 38.3674 34.5 38.5C34.5 38.6326 34.5527 38.7598 34.6464 38.8536C34.7402 38.9473 34.8674 39 35 39H35.5C35.6326 39 35.7598 38.9473 35.8536 38.8536C35.9473 38.7598 36 38.6326 36 38.5C36 38.3674 35.9473 38.2402 35.8536 38.1464C35.7598 38.0527 35.6326 38 35.5 38ZM38 38H37.5C37.3674 38 37.2402 38.0527 37.1464 38.1464C37.0527 38.2402 37 38.3674 37 38.5C37 38.6326 37.0527 38.7598 37.1464 38.8536C37.2402 38.9473 37.3674 39 37.5 39H38C38.1326 39 38.2598 38.9473 38.3536 38.8536C38.4473 38.7598 38.5 38.6326 38.5 38.5C38.5 38.3674 38.4473 38.2402 38.3536 38.1464C38.2598 38.0527 38.1326 38 38 38Z" fill="#A1FF8D"/>
<path d="M45.9905 36.454C45.9585 35.3629 45.5396 34.3187 44.8086 33.5081C44.0775 32.6974 43.082 32.1732 42 32.029V18.5C41.9992 17.8372 41.7356 17.2018 41.2669 16.7331C40.7982 16.2644 40.1628 16.0008 39.5 16H18.5C17.8372 16.0008 17.2018 16.2644 16.7331 16.7331C16.2644 17.2018 16.0008 17.8372 16 18.5V41C16.0008 41.6628 16.2644 42.2982 16.7331 42.7669C17.2018 43.2356 17.8372 43.4992 18.5 43.5H27.02C27.0654 44.1801 27.3684 44.8173 27.8673 45.2818C28.3662 45.7463 29.0234 46.0032 29.705 46C30.1863 45.9992 30.6587 45.8703 31.0738 45.6267C31.4889 45.383 31.8317 45.0334 32.067 44.6135L32.687 43.5H39.5C39.7536 43.4986 40.0056 43.4583 40.247 43.3805L40.934 44.6145C41.2259 45.1374 41.683 45.5486 42.2338 45.7837C42.7845 46.0188 43.3977 46.0644 43.9772 45.9135C44.5567 45.7626 45.0697 45.4236 45.4357 44.9497C45.8018 44.4758 46.0003 43.8938 46 43.295V36.645C46 36.617 45.9965 36.59 45.996 36.5625C45.9955 36.535 46 36.5205 46 36.5C45.9976 36.4845 45.9944 36.4692 45.9905 36.454ZM18.5 17H39.5C39.8978 17 40.2794 17.158 40.5607 17.4393C40.842 17.7206 41 18.1022 41 18.5V20H17V18.5C17 18.1022 17.158 17.7206 17.4393 17.4393C17.7206 17.158 18.1022 17 18.5 17ZM17 41V21H41V32.028C39.9001 32.1476 38.8842 32.6724 38.15 33.5H34.855C34.4293 33.0233 33.9069 32.6428 33.3224 32.3842C32.738 32.1255 32.1051 31.9945 31.466 32C30.2946 32.0311 29.1798 32.5102 28.3511 33.3388C27.5225 34.1673 27.0432 35.2821 27.012 36.4535C27.012 36.4695 27.0025 36.4835 27.0025 36.5C27.0025 36.5165 27.0065 36.541 27.0065 36.5615C27.0065 36.5895 27.0025 36.617 27.0025 36.645V42.5H18.5C18.1022 42.5 17.7206 42.342 17.4393 42.0607C17.158 41.7794 17 41.3978 17 41ZM39.5 42.5H33.2435L33.936 41.257C33.9793 41.1792 34.0426 41.1143 34.1193 41.0691C34.196 41.024 34.2834 41.0001 34.3725 41H38.6275C38.7166 41.0001 38.804 41.024 38.8807 41.0691C38.9574 41.1143 39.0207 41.1792 39.064 41.257L39.7395 42.4695C39.6606 42.4862 39.5805 42.4964 39.5 42.5ZM45 43.295C44.9999 43.6723 44.8747 44.0389 44.644 44.3374C44.4132 44.6359 44.09 44.8494 43.7249 44.9445C43.3598 45.0396 42.9735 45.011 42.6264 44.8631C42.2794 44.7151 41.9912 44.4563 41.807 44.127L39.938 40.7705C39.808 40.537 39.618 40.3424 39.3876 40.2069C39.1572 40.0715 38.8948 40 38.6275 40H34.3725C34.1052 40 33.8428 40.0715 33.6124 40.2069C33.382 40.3424 33.192 40.537 33.062 40.7705L31.194 44.1255C31.0104 44.4556 30.7223 44.7153 30.3751 44.8639C30.0279 45.0125 29.6411 45.0415 29.2756 44.9465C28.91 44.8514 28.5864 44.6377 28.3555 44.3387C28.1247 44.0398 27.9996 43.6727 28 43.295V39.317C28.3459 39.7524 28.7698 40.1196 29.25 40.4C29.3645 40.4616 29.4984 40.4762 29.6235 40.4407C29.7485 40.4052 29.8549 40.3224 29.9199 40.2098C29.9849 40.0973 30.0035 39.9638 29.9718 39.8377C29.9401 39.7117 29.8606 39.6029 29.75 39.5345C29.2281 39.2312 28.7931 38.7984 28.4872 38.278C28.1813 37.7576 28.0147 37.1671 28.0035 36.5635C28.0072 35.636 28.3707 34.7462 29.0176 34.0815C29.6644 33.4167 30.544 33.029 31.471 33H31.5C32.2751 33.0037 33.0273 33.2629 33.6401 33.7375C34.2529 34.2121 34.692 34.8755 34.8895 35.625C34.9059 35.6888 34.9347 35.7487 34.9742 35.8013C35.0138 35.8539 35.0634 35.8981 35.1201 35.9315C35.1768 35.9649 35.2396 35.9868 35.3048 35.9959C35.37 36.005 35.4363 36.0011 35.5 35.9845C35.5637 35.9681 35.6234 35.9394 35.676 35.8999C35.7285 35.8604 35.7727 35.8109 35.8061 35.7543C35.8395 35.6977 35.8614 35.635 35.8706 35.57C35.8797 35.5049 35.876 35.4386 35.8595 35.375C35.7788 35.0726 35.6668 34.7793 35.5255 34.5H37.4755C37.3345 34.7794 37.2229 35.0726 37.1425 35.375C37.1223 35.4397 37.1155 35.5077 37.1225 35.5751C37.1295 35.6425 37.15 35.7077 37.183 35.7669C37.2159 35.8261 37.2605 35.878 37.3141 35.9194C37.3677 35.9608 37.4291 35.9909 37.4947 36.0079C37.5603 36.0248 37.6286 36.0283 37.6956 36.018C37.7625 36.0078 37.8267 35.984 37.8842 35.9482C37.9417 35.9124 37.9913 35.8653 38.03 35.8097C38.0687 35.7542 38.0958 35.6913 38.1095 35.625C38.307 34.8753 38.7463 34.2118 39.3593 33.7372C39.9723 33.2626 40.7248 33.0035 41.5 33H41.529C42.4555 33.029 43.3346 33.4163 43.9812 34.0804C44.6279 34.7445 44.9917 35.6336 44.996 36.5605C44.9851 37.1641 44.8186 37.7547 44.5128 38.2753C44.2069 38.7958 43.772 39.2286 43.25 39.532C43.1911 39.5637 43.1391 39.6069 43.0972 39.6591C43.0552 39.7113 43.0242 39.7714 43.0059 39.8357C42.9877 39.9001 42.9825 39.9675 42.9908 40.0339C42.999 40.1004 43.0205 40.1645 43.054 40.2224C43.0875 40.2804 43.1322 40.331 43.1857 40.3713C43.2391 40.4117 43.3001 40.4409 43.365 40.4572C43.4299 40.4735 43.4974 40.4766 43.5635 40.4664C43.6297 40.4561 43.6931 40.4327 43.75 40.3975C44.23 40.1179 44.6539 39.7515 45 39.317V43.295Z" fill="#A1FF8D"/>
<path d="M18.5 18.998H19C19.1326 18.998 19.2598 18.9454 19.3536 18.8516C19.4473 18.7578 19.5 18.6307 19.5 18.498C19.5 18.3654 19.4473 18.2383 19.3536 18.1445C19.2598 18.0507 19.1326 17.998 19 17.998H18.5C18.3674 17.998 18.2402 18.0507 18.1464 18.1445C18.0527 18.2383 18 18.3654 18 18.498C18 18.6307 18.0527 18.7578 18.1464 18.8516C18.2402 18.9454 18.3674 18.998 18.5 18.998ZM21 18.998H21.5C21.6326 18.998 21.7598 18.9454 21.8536 18.8516C21.9473 18.7578 22 18.6307 22 18.498C22 18.3654 21.9473 18.2383 21.8536 18.1445C21.7598 18.0507 21.6326 17.998 21.5 17.998H21C20.8674 17.998 20.7402 18.0507 20.6464 18.1445C20.5527 18.2383 20.5 18.3654 20.5 18.498C20.5 18.6307 20.5527 18.7578 20.6464 18.8516C20.7402 18.9454 20.8674 18.998 21 18.998ZM23.5 18.998H24C24.1326 18.998 24.2598 18.9454 24.3536 18.8516C24.4473 18.7578 24.5 18.6307 24.5 18.498C24.5 18.3654 24.4473 18.2383 24.3536 18.1445C24.2598 18.0507 24.1326 17.998 24 17.998H23.5C23.3674 17.998 23.2402 18.0507 23.1464 18.1445C23.0527 18.2383 23 18.3654 23 18.498C23 18.6307 23.0527 18.7578 23.1464 18.8516C23.2402 18.9454 23.3674 18.998 23.5 18.998ZM37 18.998H39.5C39.6326 18.998 39.7598 18.9454 39.8536 18.8516C39.9473 18.7578 40 18.6307 40 18.498C40 18.3654 39.9473 18.2383 39.8536 18.1445C39.7598 18.0507 39.6326 17.998 39.5 17.998H37C36.8674 17.998 36.7402 18.0507 36.6464 18.1445C36.5527 18.2383 36.5 18.3654 36.5 18.498C36.5 18.6307 36.5527 18.7578 36.6464 18.8516C36.7402 18.9454 36.8674 18.998 37 18.998ZM25.8535 23.1445C25.7597 23.0508 25.6326 22.9982 25.5 22.9982C25.3674 22.9982 25.2403 23.0508 25.1465 23.1445L21.6465 26.6445C21.5528 26.7383 21.5001 26.8655 21.5001 26.998C21.5001 27.1306 21.5528 27.2578 21.6465 27.3515L25.1465 30.8515C25.2408 30.9426 25.3671 30.993 25.4982 30.9919C25.6293 30.9907 25.7547 30.9382 25.8474 30.8455C25.9401 30.7528 25.9927 30.6273 25.9938 30.4962C25.995 30.3652 25.9446 30.2388 25.8535 30.1445L22.707 26.998L25.8535 23.8515C25.9472 23.7578 25.9999 23.6306 25.9999 23.498C25.9999 23.3655 25.9472 23.2383 25.8535 23.1445ZM32.1465 30.8515C32.2403 30.9453 32.3674 30.9979 32.5 30.9979C32.6326 30.9979 32.7597 30.9453 32.8535 30.8515L36.3535 27.3515C36.4472 27.2578 36.4999 27.1306 36.4999 26.998C36.4999 26.8655 36.4472 26.7383 36.3535 26.6445L32.8535 23.1445C32.7592 23.0535 32.6329 23.0031 32.5018 23.0042C32.3707 23.0053 32.2453 23.0579 32.1526 23.1506C32.0599 23.2433 32.0073 23.3687 32.0062 23.4998C32.005 23.6309 32.0554 23.7572 32.1465 23.8515L35.293 26.998L32.1465 30.1445C32.0528 30.2383 32.0001 30.3655 32.0001 30.498C32.0001 30.6306 32.0528 30.7578 32.1465 30.8515ZM27.303 30.9575C27.4249 31.0098 27.5625 31.0115 27.6856 30.9622C27.8087 30.913 27.9072 30.8169 27.9595 30.695L30.9595 23.695C31.0095 23.5736 31.0098 23.4373 30.9601 23.3157C30.9105 23.194 30.815 23.0968 30.6942 23.045C30.5735 22.9933 30.4372 22.9911 30.3149 23.039C30.1925 23.0869 30.094 23.1811 30.0405 23.301L27.0405 30.301C26.9883 30.4229 26.9866 30.5605 27.0358 30.6837C27.085 30.8068 27.1811 30.9053 27.303 30.9575Z" fill="#A1FF8D"/>
</g>
<defs>
<linearGradient id="paint0_linear_914_36336" x1="-7.34654e-06" y1="-4.90396" x2="72.4452" y2="45.2893" gradientUnits="userSpaceOnUse">
<stop stop-color="#1A2613"/>
<stop offset="0.489"/>
<stop offset="1" stop-color="#001D2B"/>
</linearGradient>
<linearGradient id="paint1_linear_914_36336" x1="62" y1="60.4878" x2="6.92052" y2="-4.78893" gradientUnits="userSpaceOnUse">
<stop stop-color="#14FF87" stop-opacity="0.3"/>
<stop offset="1" stop-color="#CAFE15"/>
</linearGradient>
<clipPath id="clip0_914_36336">
<rect width="30" height="30" fill="white" transform="translate(16 16)"/>
</clipPath>
</defs>
</svg>
