<svg width="46" height="46" viewBox="0 0 46 46" fill="none" xmlns="http://www.w3.org/2000/svg">
<rect width="46" height="46" rx="8" fill="#23699C" fill-opacity="0.5"/>
<path d="M13.2945 5H14.8561V6.60319H16.2955V5H17.8571V9.85177H16.2955V8.23451H14.8697V9.85177H13.2945M19.9211 6.61726H18.5428V5H22.8677V6.61726H21.4827V9.85177H19.9211M23.5535 5H25.1897L26.1946 6.70867L27.1995 5H28.8357V9.85177H27.2741V7.44698L26.181 9.1908L25.0879 7.44698V9.85177H23.5535M29.6097 5H31.1713V8.24858H33.3847V9.85177H29.6097" fill="white"/>
<path d="M13.2405 38.1171L11 12.0723H35.6324L33.3919 38.1031L23.2958 41.0001" fill="#E44D26"/>
<path d="M23.3162 38.7867V14.2114H33.3851L31.4636 36.4311" fill="#F16529"/>
<path d="M15.5779 17.396H23.3179V20.5883H18.9591L19.2442 23.858H23.3179V27.0433H16.4198M16.5556 28.6465H19.6516L19.8689 31.1989L23.3179 32.1552V35.4882L16.9901 33.66" fill="#EBEBEB"/>
<path d="M31.0316 17.396H23.3051V20.5883H30.7464M30.4681 23.858H23.3051V27.0503H27.1072L26.7474 31.1989L23.3051 32.1552V35.4741L29.6194 33.66" fill="white"/>
</svg>
