<svg width="62" height="62" viewBox="0 0 62 62" fill="none" xmlns="http://www.w3.org/2000/svg">
<g clip-path="url(#clip0_943_216184)">
<rect width="62" height="62" rx="12" fill="#1F1F1F"/>
<path d="M36.3132 34.5417C36.0314 34.5417 35.7611 34.6537 35.5619 34.8529C35.3626 35.0522 35.2507 35.3224 35.2507 35.6042C35.2507 35.886 35.3626 36.1563 35.5619 36.3555C35.7611 36.5548 36.0314 36.6667 36.3132 36.6667H39.8548C40.1366 36.6667 40.4069 36.5548 40.6061 36.3555C40.8054 36.1563 40.9173 35.886 40.9173 35.6042C40.9173 35.3224 40.8054 35.0522 40.6061 34.8529C40.4069 34.6537 40.1366 34.5417 39.8548 34.5417H36.3132ZM16.834 25.6875C16.834 24.4664 17.3191 23.2954 18.1825 22.4319C19.046 21.5685 20.2171 21.0834 21.4382 21.0834H40.5632C41.1678 21.0834 41.7665 21.2025 42.3251 21.4338C42.8837 21.6652 43.3913 22.0044 43.8188 22.4319C44.2463 22.8594 44.5855 23.367 44.8168 23.9256C45.0482 24.4842 45.1673 25.0829 45.1673 25.6875V36.3125C45.1673 36.9172 45.0482 37.5159 44.8168 38.0745C44.5855 38.6331 44.2463 39.1406 43.8188 39.5682C43.3913 39.9957 42.8837 40.3349 42.3251 40.5662C41.7665 40.7976 41.1678 40.9167 40.5632 40.9167H21.4382C20.2171 40.9167 19.046 40.4316 18.1825 39.5682C17.3191 38.7047 16.834 37.5336 16.834 36.3125V25.6875ZM43.0423 27.4584V25.6875C43.0423 25.03 42.7811 24.3994 42.3162 23.9345C41.8513 23.4696 41.2207 23.2084 40.5632 23.2084H21.4382C20.7806 23.2084 20.15 23.4696 19.6851 23.9345C19.2202 24.3994 18.959 25.03 18.959 25.6875V27.4584H43.0423ZM18.959 29.5834V36.3125C18.959 37.681 20.0697 38.7917 21.4382 38.7917H40.5632C41.2207 38.7917 41.8513 38.5305 42.3162 38.0656C42.7811 37.6006 43.0423 36.9701 43.0423 36.3125V29.5834H18.959Z" fill="#DCFC36"/>
<rect x="0.5" y="0.5" width="61" height="61" rx="11.5" stroke="#191919"/>
</g>
<defs>
<clipPath id="clip0_943_216184">
<rect width="62" height="62" rx="12" fill="white"/>
</clipPath>
</defs>
</svg>
