<svg width="46" height="46" viewBox="0 0 46 46" fill="none" xmlns="http://www.w3.org/2000/svg">
<rect width="46" height="46" rx="8" fill="#5382A1" fill-opacity="0.4"/>
<path d="M28.0108 26.1135C28.5821 25.747 29.3746 25.4299 29.3746 25.4299C29.3746 25.4299 27.1191 25.8128 24.8752 25.9878C22.1301 26.201 19.181 26.2447 17.7006 26.0588C14.1977 25.6213 19.6239 24.4126 19.6239 24.4126C19.6239 24.4126 17.5199 24.2815 14.9262 25.4517C11.8664 26.8408 22.5031 27.4752 28.0108 26.1135Z" fill="#5382A1"/>
<path d="M23.035 24.3564C21.9276 22.0213 18.1917 19.9704 23.035 16.3829C29.0791 11.9095 25.9783 9 25.9783 9C27.2314 13.6212 21.5721 15.0212 19.5263 17.8923C18.1333 19.8556 20.2083 21.9611 23.035 24.3564Z" fill="#F8981D"/>
<path d="M29.7138 14.7207C29.7197 14.7207 19.5026 17.116 24.3809 22.3879C25.8205 23.9411 24.0021 25.3411 24.0021 25.3411C24.0021 25.3411 27.6565 23.5693 25.9779 21.3544C24.4101 19.2871 23.2094 18.259 29.7138 14.7207Z" fill="#F8981D"/>
<path d="M29.3591 29.5148C29.3299 29.5804 29.2425 29.6515 29.2425 29.657C36.7202 27.814 33.9692 23.1545 30.3964 24.3358C30.0816 24.4397 29.9186 24.6804 29.9186 24.6804C29.9186 24.6804 30.1167 24.6037 30.5597 24.5163C32.3664 24.1608 34.9601 26.7858 29.3591 29.5148Z" fill="#5382A1"/>
<path d="M32.1104 32.9194C32.1104 32.9194 32.9555 33.5703 31.1837 34.0788C27.8091 35.0358 17.1491 35.3257 14.1883 34.1172C13.1217 33.6851 15.1208 33.078 15.7503 32.9523C16.403 32.821 16.7818 32.8428 16.7818 32.8428C15.5987 32.0608 9.12921 34.3796 13.4946 35.0414C25.3961 36.8569 35.1995 34.2264 32.1104 32.9194Z" fill="#5382A1"/>
<path d="M19.079 30.6562C14.4921 31.8594 21.8708 34.3423 27.7107 31.9961C26.755 31.6462 26.0672 31.2415 26.0672 31.2415C23.4619 31.7063 22.2555 31.7391 19.8891 31.4876C17.9367 31.2798 19.079 30.6562 19.079 30.6562Z" fill="#5382A1"/>
<path d="M29.5588 35.9719C24.9719 36.7812 19.3127 36.6884 15.9612 36.1687C15.9612 36.1633 16.649 36.6992 20.181 36.9125C25.5547 37.2353 33.8076 36.732 34 34.3477C34 34.3477 33.627 35.2501 29.5588 35.9719Z" fill="#5382A1"/>
<path d="M27.0166 28.3042C23.5661 28.9277 21.5671 28.9113 19.0434 28.6652C17.0909 28.4737 18.3673 27.5879 18.3673 27.5879C13.3084 29.1629 21.1766 30.9458 28.2463 29.0043C27.4945 28.7581 27.0166 28.3042 27.0166 28.3042Z" fill="#5382A1"/>
</svg>
