<svg width="46" height="46" viewBox="0 0 46 46" fill="none" xmlns="http://www.w3.org/2000/svg">
<rect width="46" height="46" rx="8" fill="#D6BA32" fill-opacity="0.3"/>
<path opacity="0.85" d="M29.5181 9.01109C29.8303 9.00665 30.1447 9.00222 30.4591 9C30.4636 9.17297 30.4703 9.51671 30.4747 9.68968C30.1536 9.68968 29.8325 9.68746 29.5137 9.68746C29.5137 9.51892 29.5181 9.18185 29.5181 9.01109Z" fill="white"/>
<path d="M10.4683 9.15332C11.0413 9.15776 11.6167 9.15997 12.1942 9.16219C12.1451 10.1823 12.3458 11.2423 12.0559 12.2358C11.6813 12.9499 10.7492 12.8102 10.078 12.8235C10.0513 12.5973 10.0245 12.3711 10 12.1449C10.3858 12.1138 10.805 12.1892 11.1595 11.9919C11.3892 11.2845 11.2866 10.5282 11.2287 9.80087C11.0324 9.8053 10.6422 9.80974 10.446 9.81195C10.4527 9.64785 10.4616 9.31742 10.4683 9.15332Z" fill="white"/>
<path d="M21.9507 9.43277C22.6263 8.91385 23.5138 9.12674 24.2653 9.32854C24.263 9.52591 24.2608 9.92065 24.2608 10.118C23.6788 9.88517 22.5728 9.37733 22.4256 10.3353C22.9764 10.5017 23.5584 10.5992 24.0579 10.8964C24.5886 11.3266 24.4392 12.3046 23.8282 12.5995C23.1325 13.0098 22.3074 12.7858 21.5738 12.6372C21.5314 12.3334 21.4891 12.0318 21.4512 11.728C22.0688 11.9986 23.3198 12.6395 23.5049 11.6038C22.885 11.371 22.1134 11.3377 21.663 10.8055C21.4646 10.3531 21.498 9.72328 21.9507 9.43277Z" fill="white"/>
<path d="M34.2797 9.27979C34.5406 9.27979 34.8037 9.27979 35.069 9.27979C35.0757 9.53038 35.0847 9.78097 35.0958 10.0316C35.2965 10.0338 35.7001 10.0382 35.903 10.0404C35.9075 10.1934 35.9142 10.4973 35.9186 10.6481C35.7135 10.6458 35.3032 10.6414 35.098 10.637C35.1092 11.1448 34.9776 11.6992 35.2341 12.1671C35.4258 12.1871 35.8094 12.2248 36.0011 12.2448C35.9811 13.1784 34.9107 12.7548 34.3443 12.6084C34.2931 12.0385 34.2685 11.4686 34.2685 10.8964C34.1236 10.6946 33.9786 10.4906 33.8359 10.2888C33.9452 10.189 34.1637 9.98943 34.273 9.88963C34.2752 9.73662 34.2774 9.43058 34.2797 9.27979Z" fill="white"/>
<path d="M12.8895 10.0605C13.6165 10.0228 14.6333 9.75443 15.0904 10.5018C15.2532 11.2425 15.1506 12.012 15.1751 12.766C14.8496 12.7371 14.524 12.7061 14.2007 12.6773C13.8305 12.7083 13.3957 12.9811 13.0545 12.7371C12.4882 12.4666 12.4792 11.4687 13.0746 11.2269C13.5072 11.0495 13.9799 11.0185 14.4326 10.912C14.0022 10.4685 13.3913 10.637 12.8494 10.6947C12.8605 10.535 12.8806 10.2179 12.8895 10.0605ZM13.5986 11.584C13.5741 11.7991 13.5518 12.0142 13.5317 12.2315C13.7792 12.2182 14.0268 12.2071 14.2765 12.1938C14.2943 11.961 14.3144 11.7281 14.3345 11.4953C14.087 11.5241 13.8417 11.5551 13.5986 11.584Z" fill="white"/>
<path d="M15.5078 9.98291C15.7219 10.025 16.1522 10.1093 16.3663 10.1514C16.5915 10.6659 16.7454 11.207 16.9639 11.726C17.1468 11.1716 17.3162 10.6105 17.4812 10.0494C17.6953 10.045 18.1257 10.0383 18.3397 10.0339C18.0365 10.9853 17.6975 11.9255 17.3185 12.8525C17.0241 12.8148 16.7342 12.7527 16.4533 12.6707C16.0474 11.8102 15.7799 10.8921 15.5078 9.98291Z" fill="white"/>
<path d="M18.6172 10.6894C18.6797 10.4787 18.751 10.268 18.8291 10.0618C19.5203 9.96198 20.4569 9.81562 20.9318 10.4587C21.0946 11.226 20.9943 12.0199 21.0099 12.7983C20.6821 12.754 20.3565 12.7096 20.031 12.6653C19.4467 12.9735 18.4723 12.8626 18.4857 12.0443C18.3742 11.073 19.5939 11.0597 20.2562 10.9311C19.857 10.3988 19.1658 10.6805 18.6172 10.6894ZM19.4244 11.603C19.3999 11.8026 19.3776 12.0044 19.3553 12.204C19.6006 12.2106 19.8459 12.2173 20.0934 12.2217C20.1157 11.9756 20.138 11.7316 20.1603 11.4855C19.915 11.5232 19.6697 11.5631 19.4244 11.603Z" fill="white"/>
<path d="M24.581 11.4145C24.5118 10.2082 26.0549 9.57613 26.9781 10.2192C27.0004 10.39 27.0427 10.7337 27.0628 10.9045C26.6391 10.7714 26.2043 10.4698 25.7494 10.6739C25.2678 11.1307 25.3681 12.2905 26.1842 12.2218C26.4095 12.1508 26.8576 12.0089 27.0829 11.9379C27.0427 12.1286 26.9647 12.51 26.9268 12.6985C25.9612 13.1509 24.5052 12.6165 24.581 11.4145Z" fill="white"/>
<path d="M27.4331 9.97314C27.7676 10.0618 28.1087 10.1506 28.4454 10.2459C28.6974 10.155 28.9516 10.0663 29.2081 9.97536C29.2192 10.1883 29.246 10.614 29.2593 10.8269C28.9382 10.8425 28.6171 10.858 28.3005 10.8735C28.2782 11.51 28.2715 12.1442 28.267 12.7807C28.0574 12.7829 27.636 12.7851 27.4264 12.7873C27.4152 11.8493 27.413 10.9112 27.4331 9.97314Z" fill="white"/>
<path d="M31.0594 10.033C31.6749 10.1705 32.2948 10.1283 32.908 10.0063C33.869 10.2037 33.8913 11.5587 33.5256 12.2683C33.2224 12.8804 32.4798 12.8227 31.9068 12.7917C31.9112 13.1155 31.9157 13.437 31.9201 13.7608C31.7061 13.7586 31.2735 13.7541 31.0572 13.7497C31.0572 12.5123 31.055 11.2726 31.0594 10.033ZM31.9291 10.6849C31.9202 11.2016 31.9157 11.7206 31.9201 12.2373C32.1966 12.1619 32.5534 12.2151 32.763 11.9778C32.9191 11.5565 32.7965 11.1019 32.7653 10.6672C32.4865 10.6716 32.2078 10.6783 31.9291 10.6849Z" fill="white"/>
<path d="M29.5976 10.0391C29.7961 10.0391 30.193 10.0391 30.3893 10.0391C30.4026 10.9549 30.4026 11.8686 30.3893 12.7845C30.1908 12.7845 29.7961 12.7845 29.5976 12.7845C29.582 11.8708 29.582 10.9549 29.5976 10.0391Z" fill="white"/>
<path d="M13.0547 14.566C15.2779 14.4729 17.5055 14.5927 19.7309 14.555C22.186 14.4773 24.6388 14.5416 27.0961 14.5505C29.045 14.555 30.9939 14.5416 32.9428 14.5572C32.3296 21.2832 31.7119 28.0093 31.1433 34.7398C28.5321 35.4782 25.9187 36.2056 23.3076 36.9397C22.9731 37.0771 22.6297 36.9485 22.3086 36.862C19.8268 36.1524 17.3449 35.4494 14.8586 34.7664C14.212 28.0381 13.6032 21.3032 13.0547 14.566ZM23.04 16.3202C22.9486 19.6377 23.0266 22.9553 22.9999 26.2729C23.0244 29.3066 22.9553 32.3425 23.0355 35.3762C25.2297 34.8617 27.3949 34.2297 29.5601 33.6066C30.1042 27.8474 30.6349 22.0882 31.0898 16.3224C28.4073 16.2958 25.7225 16.3268 23.04 16.3202ZM20.2482 29.2755C18.9594 28.9252 17.6861 28.5216 16.3794 28.2443C16.3415 29.0161 16.3549 29.7878 16.4441 30.5551C18.3573 31.0186 20.2304 31.6284 22.1458 32.0831C22.1592 27.6899 22.1391 23.2946 22.1547 18.9015C21.5304 18.886 20.906 18.8771 20.2817 18.8638C20.2103 22.3322 20.2772 25.805 20.2482 29.2755Z" fill="#D6BA32"/>
<path d="M23.0401 16.3208C25.7226 16.3274 28.4073 16.2964 31.0898 16.323C30.6349 22.0888 30.1042 27.848 29.5602 33.6071C27.395 34.2303 25.2298 34.8623 23.0356 35.3768C22.9553 32.3431 23.0245 29.3072 22.9999 26.2735C23.0267 22.9559 22.9486 19.6383 23.0401 16.3208ZM23.7915 18.8999C23.8004 21.7562 23.8027 24.6147 23.7915 27.471C25.1027 27.2603 26.4094 27.0186 27.7161 26.7813C27.696 27.4466 27.6692 28.1119 27.6403 28.7772C26.367 29.1142 25.096 29.4624 23.8161 29.7751C23.796 30.5424 23.7938 31.3097 23.8004 32.0792C25.4126 31.7199 27.0003 31.2676 28.6013 30.8662C28.802 30.773 29.1878 30.7841 29.1699 30.4714C29.3639 28.4179 29.4843 26.3555 29.6717 24.2976C28.3449 24.4062 27.0315 24.628 25.7047 24.7189C25.6936 23.5524 25.6914 22.386 25.7092 21.2195C27.1051 21.2195 28.4987 21.2195 29.8946 21.2217C29.9838 20.4433 30.0619 19.6627 30.1221 18.8821C28.0126 18.891 25.901 18.8622 23.7915 18.8999Z" fill="#FFDA3E"/>
<path d="M20.2461 29.2755C20.2751 25.8049 20.2082 22.3321 20.2796 18.8638C20.9039 18.8771 21.5283 18.886 22.1527 18.9015C22.1371 23.2946 22.1571 27.6899 22.1438 32.083C20.2283 31.6284 18.3552 31.0186 16.442 30.5551C16.3528 29.7878 16.3394 29.0161 16.3773 28.2443C17.684 28.5215 18.9573 28.9251 20.2461 29.2755Z" fill="#EBEBEB"/>
</svg>
