<svg width="28" height="28" viewBox="0 0 28 28" fill="none" xmlns="http://www.w3.org/2000/svg">
<path opacity="0.2" d="M14 2.625C11.6794 2.625 9.45376 3.54687 7.81282 5.18782C6.17187 6.82876 5.25 9.05436 5.25 11.375C5.25 19.25 14 25.375 14 25.375C14 25.375 22.75 19.25 22.75 11.375C22.75 9.05436 21.8281 6.82876 20.1872 5.18782C18.5462 3.54687 16.3206 2.625 14 2.625ZM14 14.875C13.3078 14.875 12.6311 14.6697 12.0555 14.2851C11.4799 13.9006 11.0313 13.3539 10.7664 12.7144C10.5015 12.0749 10.4322 11.3711 10.5673 10.6922C10.7023 10.0133 11.0356 9.38961 11.5251 8.90013C12.0146 8.41064 12.6383 8.0773 13.3172 7.94225C13.9961 7.8072 14.6999 7.87651 15.3394 8.14142C15.9789 8.40633 16.5256 8.85493 16.9101 9.4305C17.2947 10.0061 17.5 10.6828 17.5 11.375C17.5 12.3033 17.1313 13.1935 16.4749 13.8499C15.8185 14.5063 14.9283 14.875 14 14.875Z" fill="#CAFE15"/>
<path d="M14 7C13.1347 7 12.2888 7.25659 11.5694 7.73732C10.8499 8.21805 10.2892 8.90133 9.95803 9.70076C9.62689 10.5002 9.54025 11.3799 9.70906 12.2285C9.87787 13.0772 10.2946 13.8567 10.9064 14.4686C11.5183 15.0804 12.2978 15.4971 13.1465 15.6659C13.9951 15.8347 14.8748 15.7481 15.6742 15.417C16.4737 15.0858 17.1569 14.5251 17.6377 13.8056C18.1184 13.0862 18.375 12.2403 18.375 11.375C18.375 10.2147 17.9141 9.10188 17.0936 8.28141C16.2731 7.46094 15.1603 7 14 7ZM14 14C13.4808 14 12.9733 13.846 12.5416 13.5576C12.1099 13.2692 11.7735 12.8592 11.5748 12.3795C11.3761 11.8999 11.3242 11.3721 11.4254 10.8629C11.5267 10.3537 11.7767 9.88596 12.1438 9.51884C12.511 9.15173 12.9787 8.90172 13.4879 8.80044C13.9971 8.69915 14.5249 8.75114 15.0045 8.94982C15.4842 9.1485 15.8942 9.48495 16.1826 9.91663C16.471 10.3483 16.625 10.8558 16.625 11.375C16.625 12.0712 16.3484 12.7389 15.8562 13.2312C15.3639 13.7234 14.6962 14 14 14ZM14 1.75C11.4482 1.75289 9.0017 2.76788 7.19729 4.57229C5.39288 6.37671 4.37789 8.82318 4.375 11.375C4.375 14.8094 5.96203 18.4494 8.96875 21.9023C10.3198 23.4626 11.8403 24.8677 13.5023 26.0914C13.6495 26.1945 13.8247 26.2498 14.0044 26.2498C14.184 26.2498 14.3593 26.1945 14.5064 26.0914C16.1654 24.8672 17.683 23.4622 19.0312 21.9023C22.0336 18.4494 23.625 14.8094 23.625 11.375C23.6221 8.82318 22.6071 6.37671 20.8027 4.57229C18.9983 2.76788 16.5518 1.75289 14 1.75ZM14 24.2812C12.192 22.8594 6.125 17.6367 6.125 11.375C6.125 9.28642 6.95469 7.28338 8.43153 5.80653C9.90838 4.32969 11.9114 3.5 14 3.5C16.0886 3.5 18.0916 4.32969 19.5685 5.80653C21.0453 7.28338 21.875 9.28642 21.875 11.375C21.875 17.6345 15.808 22.8594 14 24.2812Z" fill="#CAFE15"/>
</svg>
