<svg width="28" height="28" viewBox="0 0 28 28" fill="none" xmlns="http://www.w3.org/2000/svg">
<path opacity="0.2" d="M25.3371 23.3763C25.3814 23.5271 25.3842 23.687 25.3454 23.8392C25.3065 23.9915 25.2274 24.1304 25.1163 24.2416C25.0052 24.3527 24.8662 24.4318 24.7139 24.4707C24.5617 24.5095 24.4018 24.5067 24.251 24.4624L21.218 23.5699C20.2162 24.1057 19.1103 24.4185 17.9761 24.4869C16.842 24.5553 15.7065 24.3777 14.6475 23.9662C13.5885 23.5547 12.631 22.9191 11.8406 22.1029C11.0502 21.2867 10.4456 20.3092 10.0684 19.2375C10.2116 19.2452 10.3549 19.2496 10.4993 19.2496C11.758 19.2497 12.9984 18.948 14.1165 18.37C15.2347 17.7919 16.1979 16.9542 16.9256 15.9271C17.6533 14.9001 18.1242 13.7135 18.2988 12.467C18.4734 11.2204 18.3466 9.95017 17.9291 8.7627C19.252 8.83453 20.5353 9.23893 21.6604 9.93847C22.7855 10.638 23.7158 11.6101 24.3654 12.7647C25.015 13.9193 25.3629 15.2191 25.3767 16.5439C25.3905 17.8686 25.07 19.1754 24.4446 20.3433L25.3371 23.3763Z" fill="#CAFE15"/>
<path d="M25.3818 20.4267C25.9864 19.1727 26.2831 17.7925 26.2472 16.4008C26.2112 15.0091 25.8438 13.6461 25.1753 12.425C24.5068 11.2038 23.5566 10.1598 22.4036 9.37965C21.2506 8.59949 19.9281 8.10571 18.5459 7.93931C18.086 6.87003 17.4174 5.90325 16.5792 5.09559C15.741 4.28793 14.7501 3.65563 13.6644 3.23571C12.5788 2.81579 11.4203 2.6167 10.2568 2.65009C9.09332 2.68347 7.94816 2.94868 6.88841 3.43016C5.82867 3.91164 4.87564 4.59973 4.08514 5.45413C3.29464 6.30853 2.68256 7.31206 2.28473 8.40596C1.88691 9.49986 1.71134 10.6621 1.76831 11.8247C1.82529 12.9873 2.11365 14.1269 2.61652 15.1767L1.82136 17.8793C1.73246 18.181 1.72651 18.5011 1.80415 18.8059C1.88179 19.1107 2.04015 19.389 2.26256 19.6114C2.48498 19.8338 2.76322 19.9922 3.06803 20.0698C3.37283 20.1474 3.69293 20.1415 3.99464 20.0526L6.6973 19.2574C7.56511 19.6744 8.49552 19.946 9.45136 20.0613C9.91574 21.1494 10.5959 22.132 11.4508 22.9497C12.3058 23.7675 13.3176 24.4034 14.4252 24.8189C15.5328 25.2345 16.7132 25.4212 17.8951 25.3677C19.0769 25.3141 20.2355 25.0215 21.301 24.5074L24.0037 25.3026C24.3053 25.3914 24.6253 25.3973 24.9299 25.3197C25.2346 25.2421 25.5127 25.0839 25.7351 24.8616C25.9575 24.6393 26.1159 24.3613 26.1936 24.0566C26.2714 23.752 26.2656 23.4321 26.177 23.1304L25.3818 20.4267ZM6.78042 17.4451C6.69681 17.4453 6.61362 17.4571 6.53324 17.4801L3.49917 18.3748L4.39277 15.3385C4.45632 15.1192 4.43159 14.8837 4.32386 14.6823C3.53232 13.202 3.2991 11.4865 3.6667 9.84863C4.0343 8.21074 4.97824 6.75948 6.32646 5.75941C7.67467 4.75934 9.33738 4.27706 11.0115 4.40049C12.6856 4.52391 14.2596 5.24481 15.4465 6.43179C16.6335 7.61877 17.3544 9.19277 17.4778 10.8669C17.6013 12.541 17.119 14.2037 16.1189 15.5519C15.1188 16.9001 13.6676 17.844 12.0297 18.2116C10.3918 18.5792 8.67635 18.346 7.19605 17.5545C7.06875 17.484 6.9259 17.4464 6.78042 17.4451ZM23.6012 20.5874L24.4992 23.6248L21.4629 22.7312C21.2436 22.6676 21.008 22.6924 20.8067 22.8001C19.1954 23.6605 17.3118 23.8575 15.5573 23.3492C13.8029 22.8408 12.3164 21.6673 11.4146 20.0788C12.6127 19.9538 13.772 19.5825 14.8198 18.9883C15.8676 18.3941 16.7813 17.5897 17.5036 16.6257C18.2259 15.6617 18.7411 14.5588 19.017 13.3862C19.293 12.2137 19.3236 10.9968 19.107 9.8118C20.1508 10.0579 21.1242 10.5405 21.952 11.2224C22.7797 11.9044 23.4397 12.7674 23.881 13.7449C24.3223 14.7223 24.533 15.7881 24.497 16.86C24.461 17.9319 24.1792 18.9811 23.6734 19.9268C23.5645 20.1294 23.5397 20.3667 23.6045 20.5874H23.6012Z" fill="#CAFE15"/>
</svg>
