<svg width="28" height="28" viewBox="0 0 28 28" fill="none" xmlns="http://www.w3.org/2000/svg">
<path opacity="0.3" d="M23.3337 7H4.66699L14.0003 12.8217L23.3337 7ZM4.66699 9.33333V21H23.3337V9.33333L14.0003 15.1667L4.66699 9.33333Z" fill="#CAFE15"/>
<path d="M23.333 4.66663H4.66634C3.38301 4.66663 2.33301 5.71663 2.33301 6.99996V21C2.33301 22.2833 3.38301 23.3333 4.66634 23.3333H23.333C24.6163 23.3333 25.6663 22.2833 25.6663 21V6.99996C25.6663 5.71663 24.6163 4.66663 23.333 4.66663ZM23.333 6.99996L13.9997 12.8216L4.66634 6.99996H23.333ZM23.333 21H4.66634V9.33329L13.9997 15.1666L23.333 9.33329V21Z" fill="#CAFE15"/>
</svg>
