<svg width="48" height="48" viewBox="0 0 48 48" fill="none" xmlns="http://www.w3.org/2000/svg">
<g clip-path="url(#clip0_943_216467)">
<rect width="48" height="48" rx="10" fill="#141414"/>
<rect x="0.5" y="0.5" width="47" height="47" rx="9.5" stroke="#191919"/>
<path opacity="0.2" d="M35.3371 33.3763C35.3814 33.5271 35.3842 33.687 35.3454 33.8392C35.3065 33.9915 35.2274 34.1304 35.1163 34.2416C35.0052 34.3527 34.8662 34.4318 34.7139 34.4707C34.5617 34.5095 34.4018 34.5067 34.251 34.4624L31.218 33.5699C30.2162 34.1057 29.1103 34.4185 27.9761 34.4869C26.842 34.5553 25.7065 34.3777 24.6475 33.9662C23.5885 33.5547 22.631 32.9191 21.8406 32.1029C21.0502 31.2867 20.4456 30.3092 20.0684 29.2375C20.2116 29.2452 20.3549 29.2496 20.4993 29.2496C21.758 29.2497 22.9984 28.948 24.1165 28.37C25.2347 27.7919 26.1979 26.9542 26.9256 25.9271C27.6533 24.9001 28.1242 23.7135 28.2988 22.467C28.4734 21.2204 28.3466 19.9502 27.9291 18.7627C29.252 18.8345 30.5353 19.2389 31.6604 19.9385C32.7855 20.638 33.7158 21.6101 34.3654 22.7647C35.015 23.9193 35.3629 25.2191 35.3767 26.5439C35.3905 27.8686 35.07 29.1754 34.4446 30.3433L35.3371 33.3763Z" fill="#CAFE15"/>
<path d="M35.3818 30.4267C35.9864 29.1727 36.2831 27.7925 36.2472 26.4008C36.2112 25.0091 35.8438 23.6461 35.1753 22.425C34.5068 21.2038 33.5566 20.1598 32.4036 19.3796C31.2506 18.5995 29.9281 18.1057 28.5459 17.9393C28.086 16.87 27.4174 15.9032 26.5792 15.0956C25.741 14.2879 24.7501 13.6556 23.6644 13.2357C22.5788 12.8158 21.4203 12.6167 20.2568 12.6501C19.0933 12.6835 17.9482 12.9487 16.8884 13.4302C15.8287 13.9116 14.8756 14.5997 14.0851 15.4541C13.2946 16.3085 12.6826 17.3121 12.2847 18.406C11.8869 19.4999 11.7113 20.6621 11.7683 21.8247C11.8253 22.9873 12.1136 24.1269 12.6165 25.1767L11.8214 27.8793C11.7325 28.181 11.7265 28.5011 11.8041 28.8059C11.8818 29.1107 12.0401 29.389 12.2626 29.6114C12.485 29.8338 12.7632 29.9922 13.068 30.0698C13.3728 30.1474 13.6929 30.1415 13.9946 30.0526L16.6973 29.2574C17.5651 29.6744 18.4955 29.946 19.4514 30.0613C19.9157 31.1494 20.5959 32.132 21.4508 32.9497C22.3058 33.7675 23.3176 34.4034 24.4252 34.8189C25.5328 35.2345 26.7132 35.4212 27.8951 35.3677C29.0769 35.3141 30.2355 35.0215 31.301 34.5074L34.0037 35.3026C34.3053 35.3914 34.6253 35.3973 34.9299 35.3197C35.2346 35.2421 35.5127 35.0839 35.7351 34.8616C35.9575 34.6393 36.1159 34.3613 36.1936 34.0566C36.2714 33.752 36.2656 33.4321 36.177 33.1304L35.3818 30.4267ZM16.7804 27.4451C16.6968 27.4453 16.6136 27.4571 16.5332 27.4801L13.4992 28.3748L14.3928 25.3385C14.4563 25.1192 14.4316 24.8837 14.3239 24.6823C13.5323 23.202 13.2991 21.4865 13.6667 19.8486C14.0343 18.2107 14.9782 16.7595 16.3265 15.7594C17.6747 14.7593 19.3374 14.2771 21.0115 14.4005C22.6856 14.5239 24.2596 15.2448 25.4465 16.4318C26.6335 17.6188 27.3544 19.1928 27.4778 20.8669C27.6013 22.541 27.119 24.2037 26.1189 25.5519C25.1188 26.9001 23.6676 27.844 22.0297 28.2116C20.3918 28.5792 18.6763 28.346 17.196 27.5545C17.0687 27.484 16.9259 27.4464 16.7804 27.4451ZM33.6012 30.5874L34.4992 33.6248L31.4629 32.7312C31.2436 32.6676 31.008 32.6924 30.8067 32.8001C29.1954 33.6605 27.3118 33.8575 25.5573 33.3492C23.8029 32.8408 22.3164 31.6673 21.4146 30.0788C22.6127 29.9538 23.772 29.5825 24.8198 28.9883C25.8676 28.3941 26.7813 27.5897 27.5036 26.6257C28.2259 25.6617 28.7411 24.5588 29.017 23.3862C29.293 22.2137 29.3236 20.9968 29.107 19.8118C30.1508 20.0579 31.1242 20.5405 31.952 21.2224C32.7797 21.9044 33.4397 22.7674 33.881 23.7449C34.3223 24.7223 34.533 25.7881 34.497 26.86C34.461 27.9319 34.1792 28.9811 33.6734 29.9268C33.5645 30.1294 33.5397 30.3667 33.6045 30.5874H33.6012Z" fill="#CAFE15"/>
</g>
<defs>
<clipPath id="clip0_943_216467">
<rect width="48" height="48" rx="10" fill="white"/>
</clipPath>
</defs>
</svg>
