<svg width="48" height="45" viewBox="0 0 48 45" fill="none" xmlns="http://www.w3.org/2000/svg">
<path d="M37.5522 36.1629L37.5521 36.1628L37.5424 36.1722L31.5159 42.0343C30.4652 43.0562 29.0574 43.628 27.5917 43.628H7.13958C4.03137 43.628 1.51168 41.1083 1.51168 38.0001L1.51168 7.13979C1.51168 4.03158 4.03138 1.51188 7.13958 1.51188L40.4418 1.51188C43.55 1.51188 46.0697 4.03158 46.0697 7.13979V25.8386C46.0697 27.4097 45.413 28.9092 44.2584 29.9746L37.5522 36.1629Z" stroke="#7B7B7B" stroke-width="1.02326"/>
<path d="M47.0283 43.6545C47.0284 43.93 46.7918 44.1539 46.5008 44.1539L37.8739 44.1531C37.4063 44.153 37.174 43.6181 37.5054 43.3045L46.1312 35.1408C46.4625 34.8272 47.0274 35.0472 47.0274 35.4898L47.0283 43.6545Z" fill="#7B7B7B"/>
<path fill-rule="evenodd" clip-rule="evenodd" d="M27.3369 22.9887L20.6672 29.3798L19 27.7823L24.8362 22.1899L19 16.5975L20.6672 15L27.3369 21.3911C27.558 21.603 27.6821 21.8903 27.6821 22.1899C27.6821 22.4895 27.558 22.7768 27.3369 22.9887Z" fill="#66BE53"/>
</svg>
