<svg width="52" height="49" viewBox="0 0 52 49" fill="none" xmlns="http://www.w3.org/2000/svg">
<path d="M36.9406 35.1624L36.9405 35.1623L36.9308 35.1717L30.9043 41.0338C29.8537 42.0558 28.4458 42.6275 26.9802 42.6275H6.52801C3.4198 42.6275 0.900105 40.1078 0.900105 36.9996L0.900105 6.1393C0.900105 3.03109 3.41981 0.511391 6.52801 0.511391L39.8302 0.511391C42.9384 0.511391 45.4581 3.03109 45.4581 6.1393V24.8381C45.4581 26.4092 44.8014 27.9087 43.6468 28.9742L36.9406 35.1624Z" fill="#212121" stroke="#7B7B7B" stroke-width="1.02326"/>
<path opacity="0.5" d="M46.4168 42.654C46.4168 42.9295 46.1802 43.1535 45.8892 43.1534L37.2624 43.1526C36.7948 43.1525 36.5624 42.6177 36.8938 42.304L45.5197 34.1403C45.851 33.8267 46.4158 34.0467 46.4158 34.4893L46.4168 42.654Z" fill="#D9D9D9"/>
<path fill-rule="evenodd" clip-rule="evenodd" d="M26.9571 22.37L20.2873 28.7611L18.6201 27.1636L24.4563 21.5712L18.6201 15.9789L20.2873 14.3813L26.9571 20.7725C27.1781 20.9844 27.3023 21.2717 27.3023 21.5712C27.3023 21.8708 27.1781 22.1581 26.9571 22.37Z" fill="#66BE53"/>
</svg>
