<svg width="60" height="60" viewBox="0 0 60 60" fill="none" xmlns="http://www.w3.org/2000/svg">
<g clip-path="url(#clip0_943_216245)">
<rect width="60" height="60" rx="12" fill="#1F1F1F"/>
<path d="M16 23.5C16 22.307 16.474 21.162 17.318 20.318C18.162 19.474 19.307 19 20.5 19H39.5C40.694 19 41.838 19.474 42.682 20.318C43.526 21.162 44 22.307 44 23.5V36.5C44 37.694 43.526 38.838 42.682 39.682C41.838 40.526 40.694 41 39.5 41H20.5C19.307 41 18.162 40.526 17.318 39.682C16.474 38.838 16 37.694 16 36.5V23.5ZM20.5 21C19.837 21 19.201 21.263 18.732 21.732C18.263 22.201 18 22.837 18 23.5V25H42V23.5C42 22.837 41.737 22.201 41.268 21.732C40.799 21.263 40.163 21 39.5 21H20.5ZM18 36.5C18 37.163 18.263 37.799 18.732 38.268C19.201 38.737 19.837 39 20.5 39H39.5C40.163 39 40.799 38.737 41.268 38.268C41.737 37.799 42 37.163 42 36.5V27H18V36.5ZM35 33H38C38.265 33 38.52 33.105 38.707 33.293C38.895 33.48 39 33.735 39 34C39 34.265 38.895 34.52 38.707 34.707C38.52 34.895 38.265 35 38 35H35C34.735 35 34.48 34.895 34.293 34.707C34.105 34.52 34 34.265 34 34C34 33.735 34.105 33.48 34.293 33.293C34.48 33.105 34.735 33 35 33Z" fill="#CAFE15"/>
<rect x="0.5" y="0.5" width="59" height="59" rx="11.5" stroke="#191919"/>
</g>
<defs>
<clipPath id="clip0_943_216245">
<rect width="60" height="60" rx="12" fill="white"/>
</clipPath>
</defs>
</svg>
