<svg width="62" height="62" viewBox="0 0 62 62" fill="none" xmlns="http://www.w3.org/2000/svg">
<g clip-path="url(#clip0_943_216196)">
<rect width="62" height="62" rx="12" fill="#1F1F1F"/>
<path fill-rule="evenodd" clip-rule="evenodd" d="M24.9939 20.375H37.0044C37.7864 20.3751 38.5412 20.6626 39.125 21.183C39.7088 21.7033 40.081 22.4201 40.1706 23.197L41.8876 38.072C41.9392 38.5184 41.8957 38.9707 41.7601 39.3992C41.6245 39.8277 41.3999 40.2226 41.1009 40.5582C40.8019 40.8937 40.4353 41.1622 40.0252 41.346C39.6151 41.5299 39.1708 41.625 38.7214 41.625H23.2769C22.8275 41.625 22.3832 41.5299 21.9731 41.346C21.563 41.1622 21.1964 40.8937 20.8974 40.5582C20.5984 40.2226 20.3738 39.8277 20.2382 39.3992C20.1026 38.9707 20.0591 38.5184 20.1106 38.072L21.8276 23.197C21.9173 22.4201 22.2895 21.7033 22.8733 21.183C23.4571 20.6626 24.2118 20.3751 24.9939 20.375ZM18.6614 22.8315C18.8407 21.2777 19.585 19.8441 20.7527 18.8034C21.9203 17.7627 23.4298 17.1876 24.9939 17.1875H37.0044C38.5685 17.1876 40.078 17.7627 41.2456 18.8034C42.4132 19.8441 43.1575 21.2777 43.3369 22.8315L45.0539 37.7065C45.157 38.5994 45.07 39.504 44.7989 40.3609C44.5277 41.2179 44.0783 42.0078 43.4803 42.6788C42.8823 43.3499 42.1492 43.8869 41.329 44.2546C40.5089 44.6223 39.6202 44.8124 38.7214 44.8125H23.2769C22.3781 44.8124 21.4894 44.6223 20.6692 44.2546C19.8491 43.8869 19.1159 43.3499 18.518 42.6788C17.92 42.0078 17.4706 41.2179 17.1994 40.3609C16.9282 39.504 16.8413 38.5994 16.9444 37.7065L18.6614 22.8315ZM24.6241 25.1562C24.6241 24.7336 24.7921 24.3282 25.0909 24.0293C25.3898 23.7304 25.7952 23.5625 26.2179 23.5625C26.6406 23.5625 27.046 23.7304 27.3448 24.0293C27.6437 24.3282 27.8116 24.7336 27.8116 25.1562V25.6875C27.8116 26.5329 28.1475 27.3436 28.7452 27.9414C29.343 28.5392 30.1538 28.875 30.9991 28.875C31.8445 28.875 32.6553 28.5392 33.253 27.9414C33.8508 27.3436 34.1866 26.5329 34.1866 25.6875V25.1562C34.1866 24.7336 34.3546 24.3282 34.6534 24.0293C34.9523 23.7304 35.3577 23.5625 35.7804 23.5625C36.2031 23.5625 36.6085 23.7304 36.9073 24.0293C37.2062 24.3282 37.3741 24.7336 37.3741 25.1562V25.6875C37.3741 27.3783 36.7025 28.9998 35.507 30.1953C34.3114 31.3909 32.6899 32.0625 30.9991 32.0625C29.3084 32.0625 27.6869 31.3909 26.4913 30.1953C25.2958 28.9998 24.6241 27.3783 24.6241 25.6875V25.1562Z" fill="#DCFC36"/>
<rect x="0.5" y="0.5" width="61" height="61" rx="11.5" stroke="#191919"/>
</g>
<defs>
<clipPath id="clip0_943_216196">
<rect width="62" height="62" rx="12" fill="white"/>
</clipPath>
</defs>
</svg>
