<svg width="52" height="49" viewBox="0 0 52 49" fill="none" xmlns="http://www.w3.org/2000/svg">
<path d="M15.0594 12.9069L15.0595 12.9071L15.0692 12.8977L21.0957 7.03553C22.1463 6.01358 23.5542 5.4418 25.0198 5.4418H45.472C48.5802 5.4418 51.0999 7.9615 51.0999 11.0697V41.93C51.0999 45.0382 48.5802 47.5579 45.472 47.5579H12.1698C9.06159 47.5579 6.5419 45.0382 6.5419 41.93V23.2312C6.5419 21.6602 7.1986 20.1606 8.3532 19.0952L15.0594 12.9069Z" fill="#212121" stroke="#7B7B7B" stroke-width="1.02326"/>
<path opacity="0.5" d="M5.58323 5.41733C5.5832 5.14179 5.81977 4.91783 6.11082 4.91786L14.7376 4.91872C15.2052 4.91877 15.4376 5.45363 15.1062 5.76725L6.48034 13.931C6.14903 14.2446 5.5842 14.0246 5.58415 13.582L5.58323 5.41733Z" fill="#D9D9D9"/>
<path fill-rule="evenodd" clip-rule="evenodd" d="M25.0429 25.7013L31.7127 19.3101L33.3799 20.9076L27.5437 26.5L33.3799 32.0924L31.7127 33.6899L25.0429 27.2988C24.8219 27.0869 24.6977 26.7996 24.6977 26.5C24.6977 26.2005 24.8219 25.9132 25.0429 25.7013Z" fill="#66BE53"/>
</svg>
