<svg width="46" height="46" viewBox="0 0 46 46" fill="none" xmlns="http://www.w3.org/2000/svg">
<rect width="46" height="46" rx="8" fill="#FFE98D" fill-opacity="0.4"/>
<path d="M36.948 35.1779C36.948 36.4566 35.5016 37.683 32.9269 38.5871C30.3522 39.4913 26.8602 39.9993 23.219 39.9993C19.5779 39.9993 16.0859 39.4913 13.5112 38.5871C10.9365 37.683 9.49005 36.4566 9.49005 35.1779C9.49005 33.8992 10.9365 32.6728 13.5112 31.7686C16.0859 30.8644 19.5779 30.3564 23.219 30.3564C26.8602 30.3564 30.3522 30.8644 32.9269 31.7686C35.5016 32.6728 36.948 33.8992 36.948 35.1779Z" fill="url(#paint0_radial_914_59983)"/>
<path d="M30.2572 33.3663C30.2572 35.3089 28.6016 36.2928 26.9213 36.7835C24.3935 37.5233 22.3648 37.41 20.2522 36.7835C18.4878 36.26 16.9164 35.1906 16.9164 33.3663V26.9573C16.9164 25.1127 18.4261 23.5376 20.2522 23.5376L26.8147 23.103C29.0361 23.103 30.4879 21.691 30.4879 19.3735L31.0923 16.2754H33.593C35.5351 16.2754 36.4495 17.745 36.9288 19.6925C37.596 22.3977 37.6255 24.4208 36.9288 26.5295C36.2542 28.5777 35.5323 29.9466 33.593 29.9466H30.2572H23.588V29.9324C29.3433 29.9466 30.2572 27.5742 30.2572 33.3655V33.3663Z" fill="url(#paint1_linear_914_59983)"/>
<path d="M26.0926 33.7896C26.0926 33.0826 26.6535 32.5088 27.3429 32.5088C28.0411 32.5088 28.5932 33.0826 28.5932 33.7896C28.5932 34.4992 28.0348 35.0729 27.3429 35.0729C26.6535 35.0729 26.0926 34.4992 26.0926 33.7896Z" fill="white"/>
<path opacity="0.837" d="M31.0874 16.2754V19.2807C28.7056 23.545 24.1808 23.5533 20.3851 23.5533L18.9767 23.6992C16.9977 25.4317 16.9347 28.2119 16.9362 30.6504C21.3005 25.6912 25.9559 25.317 28.2784 25.3277C32.9132 25.3483 35.0961 24.1879 37.3096 21.6345C37.2984 21.5847 37.3208 21.5406 37.3096 21.4896C37.2243 20.9208 37.0748 20.3132 36.9185 19.6792C36.6938 18.7663 36.3998 17.9626 35.923 17.3619C35.9118 17.3505 35.8965 17.3377 35.8874 17.3264C35.8874 17.3264 35.8581 17.3264 35.8525 17.3264C35.8364 17.3064 35.8329 17.273 35.8176 17.2545C35.7847 17.2303 35.7812 17.2047 35.747 17.1826C35.7359 17.1713 35.7198 17.194 35.7121 17.1826C35.2065 16.8489 34.5924 16.5999 33.9698 16.4946C33.4056 16.3996 32.8392 16.3272 32.2632 16.2774H31.9076H31.0899L31.0874 16.2754Z" fill="url(#paint2_linear_914_59983)"/>
<path d="M30.594 33.3676C30.594 35.3103 28.6042 36.2944 26.9239 36.785C24.3963 37.5246 22.3678 37.4115 20.2549 36.785C18.4904 36.2617 16.9026 35.1922 16.8998 33.3683L16.8886 26.7852C16.8816 24.6001 18.496 23.2227 20.2745 23.2299L26.1864 23.2405C28.4557 23.2405 30.6622 20.894 30.6559 18.583V16.2812H33.5956C35.5377 16.2812 36.4515 17.751 36.9312 19.6987C37.5987 22.4036 37.6294 24.4266 36.9312 26.5356C36.2566 28.5835 35.5346 30.196 33.5956 30.1962H30.5931H23.5896V30.182L30.5931 30.2062L30.594 33.3676Z" stroke="#BB9400" stroke-width="1.63"/>
<path opacity="0.384" d="M31.2277 16.855V18.5568C31.2277 21.2052 28.7863 23.8015 26.0041 23.8015H20.2441C18.2537 23.8015 17.4383 25.3352 17.4482 26.9571L17.4873 33.366C17.4943 34.1087 17.7666 34.6626 18.2889 35.1402C18.8112 35.6176 19.5964 35.9814 20.4223 36.2265C22.4587 36.8303 24.3157 36.9391 26.7511 36.2265C27.542 35.9955 28.5941 35.558 29.1235 35.0913C29.6529 34.6245 30.0366 34.1697 30.0366 33.366V30.7849H23.0178V29.5907L33.6133 29.6262C34.4518 29.6262 34.8618 29.2903 35.2782 28.799C35.6947 28.3077 36.0567 27.3435 36.3866 26.3415C37.0469 24.3437 37.0385 22.4668 36.3866 19.824C36.1596 18.9012 35.8297 18.1557 35.3911 17.6515C34.9526 17.1473 34.4436 16.855 33.6133 16.855H31.2277ZM32.3655 18.0136H33.613C33.9763 18.0136 34.4504 18.3118 34.5375 18.4119C34.7906 18.703 35.0822 19.2927 35.2842 20.1137C35.9053 22.632 35.9067 24.2034 35.3192 25.9794C35.0037 26.9372 34.6764 27.8383 34.4303 28.1126C34.208 28.354 33.7321 28.4748 33.6125 28.4748L30.2703 28.4385H21.8791V31.9501H28.898V33.3722C28.898 33.8892 28.2184 34.2105 28.1014 34.3136C27.7612 34.6136 27.1582 34.908 26.4659 35.1101C24.2154 35.7689 22.6255 35.669 20.7413 35.1101C20.0283 34.8986 19.4103 34.5883 19.0607 34.2857C18.711 33.983 18.6895 33.7352 18.6251 33.3719L18.586 26.9631C18.5769 25.525 19.0369 24.9661 20.2442 24.9661H26.0042C29.4419 24.9661 32.3655 21.8728 32.3655 18.5628C32.3656 18.3797 32.3655 18.1966 32.3655 18.0136Z" fill="white"/>
<path d="M16.2268 11.847C16.2268 9.9044 16.7382 8.84753 19.5625 8.34423C21.4801 8.00199 23.9387 7.95925 26.2318 8.34423C28.043 8.64871 29.5676 10.0226 29.5676 11.847V18.2562C29.5676 20.1358 28.0875 21.6758 26.2318 21.6758L20.1834 22.0162C17.9201 22.0162 15.5826 24.0301 15.5826 26.2521L15.3916 28.9378H13.0985C11.1588 28.9378 10.0296 27.5136 9.55519 25.5207C8.91517 22.8434 8.9424 21.248 9.55519 18.6839C10.0864 16.4468 11.784 15.2667 13.5353 15.2667H16.0384C16.0384 15.2667 22.2841 15.2418 16.0384 15.2439V11.847L16.2268 11.847Z" fill="url(#paint3_linear_914_59983)"/>
<path d="M17.8945 11.424C17.8945 10.7129 18.4531 10.1406 19.1448 10.1406C19.8342 10.1406 20.3952 10.7143 20.3952 11.424C20.3952 12.1311 19.8342 12.7048 19.1448 12.7048C18.453 12.7048 17.8945 12.1311 17.8945 11.424Z" fill="white"/>
<path opacity="0.377" d="M22.3228 8.06502C21.3359 8.08934 20.3884 8.20496 19.5495 8.35464C16.7252 8.85794 16.2429 9.92426 16.2429 11.8668L16.0368 15.2707L13.7183 15.2705C11.7787 15.2705 10.0896 16.4371 9.5584 18.674C9.19775 20.1833 9.03443 21.3649 9.09609 22.6208C13.4898 17.5495 18.2043 17.1788 20.5451 17.1896C25.1798 17.2102 27.3626 16.0498 29.5762 13.4963V11.867C29.5762 10.0427 28.0452 8.65933 26.234 8.35485C24.9441 8.13812 23.5917 8.03373 22.3228 8.06502Z" fill="url(#paint4_linear_914_59983)"/>
<path d="M19.5163 8.51325C22.0441 7.77345 24.0728 7.88672 26.1854 8.51325C27.9497 9.03667 29.5221 10.1061 29.5212 11.9305V18.8503C29.5212 19.8217 28.1424 22.0709 26.1887 22.0709H19.9751C18.2306 22.0709 15.7876 24.0063 15.7876 26.3239V29.0215H12.848C10.9058 29.0215 9.99146 27.5519 9.51211 25.6042C8.84492 22.8992 8.81385 20.876 9.51211 18.7674C10.1867 16.719 10.9086 15.107 12.848 15.107H15.8494H22.8529V15.1205L15.8494 15.0963L15.8627 11.631C15.8445 10.2114 17.5488 9.10493 19.5163 8.51325Z" stroke="#274E70" stroke-width="1.63"/>
<path opacity="0.165" d="M15.2142 28.4393V26.4511C15.2142 23.8026 17.585 21.4532 20.1342 21.4532H26.1978C27.7025 21.4532 29.0076 19.8596 28.9938 18.3372L28.9355 11.9283C28.9288 11.1856 28.6756 10.6316 28.1533 10.1541C27.6311 9.67652 26.8457 9.31281 26.02 9.06784C23.9834 8.46386 22.1264 8.35513 19.691 9.06784C18.9002 9.2988 17.8479 9.73625 17.3186 10.203C16.7892 10.6697 16.4056 11.1245 16.4056 11.9283V14.5093H23.4244V15.7042L12.8289 15.668C11.9909 15.668 11.5804 16.0039 11.1639 16.4952C10.7475 16.9864 10.3854 17.9506 10.0555 18.9526C9.39525 20.9504 9.40369 22.8272 10.0555 25.4701C10.2826 26.3929 10.6124 27.1383 11.0511 27.6426C11.4896 28.1469 11.9986 28.4392 12.8289 28.4392L15.2142 28.4393ZM14.0764 27.2806H12.8289C12.4658 27.2806 11.9909 26.9823 11.9044 26.8824C11.6512 26.5912 11.3597 26.0015 11.1576 25.1805C10.5365 22.6622 10.5352 21.0909 11.1224 19.3148C11.4378 18.3571 11.7651 17.4559 12.0113 17.1887C12.2336 16.9475 12.7032 16.8266 12.8291 16.8266L24.5624 16.8629V13.3506H17.5436V11.9285C17.5436 11.4115 18.2232 11.0902 18.3401 10.9871C18.6804 10.6871 19.2834 10.3927 19.9757 10.1907C22.2261 9.5321 23.8161 9.63194 25.7002 10.1907C26.4133 10.4022 27.0312 10.7126 27.3713 11.0235C27.4923 11.1196 27.5561 11.2349 27.6561 11.3493C27.7948 11.5178 27.7644 11.7406 27.7965 11.9286V18.3375C27.7965 19.2162 27.0588 20.2949 26.1966 20.2949H20.133C16.9282 20.2949 14.0752 23.1413 14.0752 26.4514C14.0752 26.727 14.0752 27.2806 14.0752 27.2806H14.0764Z" fill="white"/>
<defs>
<radialGradient id="paint0_radial_914_59983" cx="0" cy="0" r="1" gradientUnits="userSpaceOnUse" gradientTransform="translate(23.2191 35.1777) scale(13.7294 4.82144)">
<stop/>
<stop offset="1" stop-opacity="0"/>
</radialGradient>
<linearGradient id="paint1_linear_914_59983" x1="24.4679" y1="16.2754" x2="23.8975" y2="36.443" gradientUnits="userSpaceOnUse">
<stop stop-color="#FFE253"/>
<stop offset="1" stop-color="#FFCA1C"/>
</linearGradient>
<linearGradient id="paint2_linear_914_59983" x1="25.4641" y1="29.3067" x2="25.4641" y2="17.113" gradientUnits="userSpaceOnUse">
<stop stop-color="white"/>
<stop offset="1" stop-color="white" stop-opacity="0.165"/>
</linearGradient>
<linearGradient id="paint3_linear_914_59983" x1="9.08521" y1="18.5052" x2="29.5676" y2="18.5052" gradientUnits="userSpaceOnUse">
<stop stop-color="#3778AE"/>
<stop offset="1" stop-color="#366C99"/>
</linearGradient>
<linearGradient id="paint4_linear_914_59983" x1="17.7234" y1="21.1542" x2="17.7234" y2="8.96058" gradientUnits="userSpaceOnUse">
<stop stop-color="white"/>
<stop offset="1" stop-color="white" stop-opacity="0.165"/>
</linearGradient>
</defs>
</svg>
