<svg width="60" height="60" viewBox="0 0 60 60" fill="none" xmlns="http://www.w3.org/2000/svg">
<g clip-path="url(#clip0_943_216189)">
<rect width="60" height="60" rx="12" fill="#1F1F1F"/>
<path d="M42 28.667C42 36.067 36.88 42.987 30 44.667C23.12 42.987 18 36.067 18 28.667V20.667L30 15.333L42 20.667V28.667ZM30 42C35 40.667 39.333 34.72 39.333 28.96V22.4L30 18.24L20.667 22.4V28.96C20.667 34.72 25 40.667 30 42ZM34.067 35.333L29.96 32.867L25.867 35.333L26.947 30.667L23.333 27.547L28.107 27.133L29.96 22.733L31.827 27.12L36.6 27.533L32.973 30.667L34.067 35.333Z" fill="#CAFE15"/>
<rect x="0.5" y="0.5" width="59" height="59" rx="11.5" stroke="#191919"/>
</g>
<defs>
<clipPath id="clip0_943_216189">
<rect width="60" height="60" rx="12" fill="white"/>
</clipPath>
</defs>
</svg>
