<svg width="46" height="46" viewBox="0 0 46 46" fill="none" xmlns="http://www.w3.org/2000/svg">
<rect width="46" height="46" rx="8" fill="#61DAFB" fill-opacity="0.3"/>
<path d="M22.9983 25.6471C24.4393 25.6471 25.6074 24.463 25.6074 23.0023C25.6074 21.5416 24.4393 20.3574 22.9983 20.3574C21.5574 20.3574 20.3892 21.5416 20.3892 23.0023C20.3892 24.463 21.5574 25.6471 22.9983 25.6471Z" fill="#61DAFB"/>
<path d="M23 28.4194C30.732 28.4194 37 25.9934 37 23.0007C37 20.0081 30.732 17.582 23 17.582C15.268 17.582 9 20.0081 9 23.0007C9 25.9934 15.268 28.4194 23 28.4194Z" stroke="#61DAFB"/>
<path d="M18.3695 25.7091C22.2354 32.497 27.4421 36.7866 29.9988 35.2902C32.5554 33.7939 31.494 27.0783 27.6281 20.2905C23.7621 13.5026 18.5554 9.21301 15.9988 10.7093C13.4421 12.2057 14.5035 18.9213 18.3695 25.7091Z" stroke="#61DAFB"/>
<path d="M18.3705 20.2917C14.5045 27.0795 13.4431 33.7952 15.9998 35.2915C18.5565 36.7878 23.7631 32.4982 27.6291 25.7104C31.4951 18.9225 32.5565 12.2069 29.9998 10.7106C27.4431 9.21425 22.2365 13.5039 18.3705 20.2917Z" stroke="#61DAFB"/>
</svg>
