<svg width="62" height="62" viewBox="0 0 62 62" fill="none" xmlns="http://www.w3.org/2000/svg">
<g clip-path="url(#clip0_943_216112)">
<rect width="62" height="62" rx="12" fill="#1F1F1F"/>
<g clip-path="url(#clip1_943_216112)">
<g clip-path="url(#clip2_943_216112)">
<g clip-path="url(#clip3_943_216112)">
<path d="M38.4982 17.2482C38.0829 17.6635 38.0829 18.3314 38.0829 19.6671V38.083C38.0829 39.4187 38.0829 40.0865 38.4982 40.5018C38.9135 40.9171 39.5814 40.9171 40.9171 40.9171C42.2528 40.9171 42.9206 40.9171 43.3347 40.5018C43.75 40.0865 43.75 39.4187 43.75 38.0842V19.6671C43.75 18.3314 43.75 17.6635 43.3347 17.2482C42.9206 16.8342 42.2528 16.8342 40.9171 16.8342C39.5814 16.8342 38.9135 16.8342 38.4982 17.2482ZM28.1671 23.9171C28.1671 22.5814 28.1671 21.9135 28.5811 21.4982C28.9964 21.0842 29.6643 21.0842 31 21.0842C32.3357 21.0842 33.0036 21.0842 33.4189 21.4982C33.8329 21.9135 33.8329 22.5814 33.8329 23.9171V38.0842C33.8329 39.4199 33.8329 40.0877 33.4189 40.5018C33.0036 40.9171 32.3357 40.9171 31 40.9171C29.6643 40.9171 28.9964 40.9171 28.5811 40.5018C28.1671 40.0865 28.1671 39.4187 28.1671 38.0842V23.9171ZM18.6653 27.1653C18.25 27.5806 18.25 28.2485 18.25 29.5842V38.0842C18.25 39.4199 18.25 40.0877 18.6653 40.5018C19.0794 40.9171 19.7472 40.9171 21.0829 40.9171C22.4186 40.9171 23.0865 40.9171 23.5018 40.5018C23.9171 40.0865 23.9171 39.4187 23.9171 38.0842V29.5842C23.9171 28.2485 23.9171 27.5806 23.5018 27.1653C23.0865 26.75 22.4186 26.75 21.0829 26.75C19.7472 26.75 19.0794 26.75 18.6653 27.1653ZM18.25 44.1046C17.9682 44.1046 17.698 44.2165 17.4987 44.4158C17.2994 44.6151 17.1875 44.8853 17.1875 45.1671C17.1875 45.4489 17.2994 45.7191 17.4987 45.9184C17.698 46.1177 17.9682 46.2296 18.25 46.2296H43.75C44.0318 46.2296 44.302 46.1177 44.5013 45.9184C44.7006 45.7191 44.8125 45.4489 44.8125 45.1671C44.8125 44.8853 44.7006 44.6151 44.5013 44.4158C44.302 44.2165 44.0318 44.1046 43.75 44.1046H18.25Z" fill="#DCFC36"/>
</g>
</g>
</g>
<rect x="0.5" y="0.5" width="61" height="61" rx="11.5" stroke="#191919"/>
</g>
<defs>
<clipPath id="clip0_943_216112">
<rect width="62" height="62" rx="12" fill="white"/>
</clipPath>
<clipPath id="clip1_943_216112">
<rect width="34" height="34" fill="white" transform="translate(14 14)"/>
</clipPath>
<clipPath id="clip2_943_216112">
<rect width="34" height="34" fill="white" transform="translate(14 14)"/>
</clipPath>
<clipPath id="clip3_943_216112">
<rect width="34" height="34" fill="white" transform="translate(14 14)"/>
</clipPath>
</defs>
</svg>
