<svg width="22" height="22" viewBox="0 0 22 22" fill="none" xmlns="http://www.w3.org/2000/svg">
<path d="M8.43596 21.6837C5.6899 21.0255 3.33844 19.335 1.81975 17.047H5.77095C6.39088 19.0796 7.3172 20.6964 8.43596 21.6837ZM5.55813 16.2874H1.35937C0.54421 14.8169 0.0606737 13.1389 0 11.3571H4.93032C4.95834 13.1363 5.18112 14.8044 5.55813 16.2874ZM5.56067 5.65701C5.18088 7.14282 4.95857 8.81343 4.93055 10.5977H0C0.0563643 8.86593 0.523986 7.17238 1.36423 5.65701H5.56067ZM8.43596 0.270947C7.31975 1.25539 6.39343 2.87042 5.77326 4.89789H1.82739C3.34608 2.61453 5.69244 0.929095 8.43596 0.270947ZM10.6202 0V4.89789H6.59861C7.49482 2.15646 8.96766 0.255663 10.6207 0H10.6202ZM10.6202 5.65701V10.5977H5.68989C5.72 8.82339 5.96571 7.14027 6.37074 5.65701H10.6202ZM10.6202 11.3571V16.2874H6.36842C5.96339 14.8067 5.72046 13.1287 5.68989 11.3571H10.6202ZM10.6202 17.047V21.9546C8.96512 21.6989 7.49204 19.7931 6.59583 17.0468L10.6202 17.047ZM15.4042 17.047C14.508 19.7931 13.0351 21.6989 11.3796 21.9546V17.0468L15.4042 17.047ZM16.3101 11.3571C16.28 13.1287 16.0368 14.8067 15.6318 16.2874H11.3798V11.3571H16.3101ZM16.3101 10.5975H11.3798V5.65724H15.6293C16.0343 7.14051 16.28 8.82362 16.3101 10.598V10.5975ZM15.4016 4.89766H11.3796V0C13.0323 0.255663 14.5054 2.15623 15.4016 4.89766ZM20.1726 4.89766H16.2265C15.6066 2.87042 14.6803 1.25539 13.564 0.270716C16.3076 0.929095 18.6541 2.61476 20.1726 4.89766ZM22 10.5975H17.0697C17.0417 8.8132 16.8189 7.14282 16.4393 5.65701H20.6355C21.4759 7.17236 21.9436 8.86568 22 10.5975ZM22 11.3571C21.9393 13.1389 21.4558 14.8169 20.6406 16.2874H16.4421C16.8191 14.8044 17.0419 13.1363 17.0697 11.3571H22ZM20.1803 17.047C18.6616 19.335 16.3101 21.0255 13.564 21.6837C14.6826 20.6967 15.6089 19.0793 16.2291 17.0468L20.1803 17.047Z" fill="#393939"/>
</svg>
