<svg width="21" height="22" viewBox="0 0 21 22" fill="none" xmlns="http://www.w3.org/2000/svg">
<path d="M20.4287 19.6429C20.4287 20.9432 19.3711 22 18.0696 22H12.5648C12.3488 22 12.1716 21.8232 12.1716 21.6071C12.1716 21.3911 12.3484 21.2143 12.5645 21.2143H14.1375C14.344 21.2145 14.5485 21.174 14.7393 21.0951C14.9301 21.0162 15.1036 20.9005 15.2496 20.7546C15.3957 20.6086 15.5116 20.4353 15.5907 20.2446C15.6698 20.0538 15.7105 19.8494 15.7105 19.6429C15.8193 16.524 20.3195 16.5232 20.4287 19.6429ZM8.23949 21.6071C8.23949 21.8232 8.06271 22 7.84663 22H2.34153C-0.77933 21.8912 -0.781687 17.3957 2.34153 17.2857C2.9668 17.2859 3.56643 17.5343 4.00874 17.9762C4.45106 18.4182 4.69991 19.0176 4.70063 19.6429C4.70063 19.8494 4.74133 20.0538 4.8204 20.2446C4.89947 20.4353 5.01536 20.6086 5.16145 20.7546C5.30754 20.9005 5.48096 21.0162 5.67179 21.0951C5.86263 21.174 6.06714 21.2145 6.27363 21.2143H7.84624C8.06231 21.2143 8.23949 21.3911 8.23949 21.6071ZM16.2722 10.9018C16.0212 9.95264 15.1396 8.80746 14.4796 8.34036C14.405 6.4075 13.9175 4.2625 12.5609 2.31393C11.9702 1.47063 11.2588 0.718783 10.4493 0.0825C10.304 -0.0275 10.1036 -0.0275 9.96178 0.0825C9.15137 0.717722 8.43974 1.46973 7.85017 2.31393C6.49363 4.26643 6.0061 6.41143 5.93146 8.34036C3.19088 10.4755 3.65956 13.9134 4.9996 15.6868C5.14299 15.895 5.47771 15.9001 5.62856 15.6986L6.9576 14.0014L7.8816 15.3096H12.5291L13.4535 14.0014L14.7825 15.6986C14.8587 15.7952 14.9766 15.8502 15.1007 15.8479C15.2265 15.8479 15.3404 15.785 15.4115 15.6868C15.6865 15.3057 17.0198 13.2904 16.2726 10.9018H16.2722ZM10.6143 9.39714C9.08021 9.71221 7.58617 8.25668 7.87413 6.70607C8.34988 4.08179 12.075 4.07393 12.5373 6.71393C12.7405 7.9585 11.8581 9.19993 10.6143 9.39714ZM7.97235 17.1325C7.97038 18.6132 8.80717 20.3052 10.2053 20.8882C11.6043 20.3048 12.4399 18.614 12.4391 17.1325V16.0954H7.97235V17.1325Z" fill="#C8FC14"/>
<path d="M11.7786 7.15423C11.572 9.33773 8.38945 9.00184 8.65267 6.82423C9.02234 4.89687 11.8152 5.1813 11.7786 7.15423Z" fill="#C8FC14"/>
</svg>
