<svg width="44" height="44" viewBox="0 0 44 44" fill="none" xmlns="http://www.w3.org/2000/svg">
<g clip-path="url(#clip0_943_216104)">
<g clip-path="url(#clip1_943_216104)">
<g clip-path="url(#clip2_943_216104)">
<path d="M28.2663 19.5965C26.4586 17.4332 25.553 16.3515 24.5135 16.5165C23.474 16.6833 22.9881 17.9887 22.0146 20.5993L21.7635 21.274C21.4885 22.0165 21.3491 22.3868 21.0796 22.66C20.812 22.9332 20.4416 23.078 19.7046 23.3677L19.0318 23.6298C16.4321 24.6473 15.1341 25.157 14.9856 26.1965C14.839 27.236 15.939 28.1197 18.139 29.8833L18.711 30.3417C19.3343 30.8422 19.6478 31.0933 19.8293 31.4362C20.0108 31.779 20.0401 32.1768 20.097 32.9707L20.1501 33.693C20.3518 36.4852 20.4545 37.8822 21.4023 38.3588C22.3501 38.8355 23.518 38.0747 25.8518 36.5567L26.455 36.1625C27.1168 35.7317 27.4486 35.5153 27.83 35.453C28.2113 35.3925 28.5981 35.4933 29.3718 35.695L30.0758 35.8783C32.8001 36.586 34.1623 36.9417 34.8975 36.1955C35.6308 35.4493 35.2513 34.0982 34.4905 31.3922L34.2943 30.6955C34.078 29.9255 33.9698 29.5405 34.0248 29.161C34.0798 28.7797 34.2888 28.446 34.7105 27.775L35.0936 27.1663C36.5731 24.8105 37.3138 23.6335 36.8206 22.6967C36.3256 21.7598 34.9231 21.6828 32.12 21.5325L31.3958 21.4922C30.5983 21.45 30.2005 21.428 29.854 21.2538C29.5056 21.0797 29.249 20.7717 28.7356 20.1557L28.2663 19.5965Z" fill="#DCFC36"/>
<path d="M27.584 9.47286L27.9195 10.4299C28.2862 11.4804 28.4714 12.0065 28.8307 12.3915C29.1882 12.7802 29.6814 12.9855 30.664 13.3944L31.5624 13.7684C35.0274 15.2094 36.758 15.9317 36.956 17.4039C37.0385 18.0162 36.8314 18.5919 36.351 19.2335C36.197 19.192 36.0417 19.1553 35.8854 19.1235C34.921 18.9274 33.6945 18.8614 32.4442 18.7935L31.5459 18.7459L31.1242 18.722L30.8474 18.392L30.268 17.7009C29.4614 16.7329 28.6712 15.7887 27.936 15.1324C27.1532 14.432 25.8424 13.519 24.0805 13.8014C22.2985 14.0874 21.3489 15.3835 20.8355 16.3075C20.3607 17.1655 19.9335 18.3132 19.5009 19.4737L19.1892 20.3134L19.0554 20.6672C18.9376 20.7142 18.8197 20.7606 18.7015 20.8065L17.8674 21.1329C16.7124 21.5857 15.5702 22.0312 14.7195 22.5207C13.8047 23.0469 12.5195 24.0185 12.2647 25.8079C12.0117 27.5807 12.9559 28.875 13.6709 29.6432C14.2025 30.2134 14.9175 30.8165 15.6839 31.4362C12.8074 32.2154 11.2784 32.5069 10.4075 31.5682C9.43036 30.5122 9.93636 28.5982 10.9484 24.7665L11.2105 23.7765C11.4984 22.6857 11.6432 22.143 11.5699 21.6022C11.4965 21.0632 11.2179 20.5884 10.6569 19.6405L10.1454 18.7789C8.17269 15.4422 7.18452 13.7739 7.84452 12.4447C8.50452 11.1174 10.3727 11.0092 14.109 10.7947L15.077 10.7397C16.1404 10.6774 16.6702 10.648 17.1322 10.4005C17.596 10.153 17.9389 9.71853 18.6245 8.84586L19.2479 8.05386C21.6605 4.9867 22.865 3.45403 24.2529 3.69053C25.637 3.92703 26.2879 5.77503 27.584 9.47286Z" fill="#DCFC36"/>
</g>
</g>
</g>
<defs>
<clipPath id="clip0_943_216104">
<rect width="44" height="44" fill="white"/>
</clipPath>
<clipPath id="clip1_943_216104">
<rect width="44" height="44" fill="white"/>
</clipPath>
<clipPath id="clip2_943_216104">
<rect width="44" height="44" fill="white"/>
</clipPath>
</defs>
</svg>
