<svg width="23" height="22" viewBox="0 0 23 22" fill="none" xmlns="http://www.w3.org/2000/svg">
<path d="M11.2417 5.67871L9.67773 8.84765L6.18066 9.35578L8.71118 11.8225L8.11382 15.3054L11.2417 13.661L14.3696 15.3054L13.7722 11.8225L16.3028 9.35578L12.8057 8.84765L11.2417 5.67871Z" fill="#C8FC14"/>
<path d="M22.079 12.0474C22.6186 11.4532 22.6185 10.5463 22.0788 9.95224L21.2722 9.05972C21.1924 8.97081 21.1367 8.86303 21.1102 8.74657C21.0837 8.63011 21.0874 8.50882 21.1208 8.39417L21.4604 7.24286C21.6904 6.47209 21.2956 5.65296 20.5494 5.35276L19.438 4.90186C19.3273 4.85643 19.2301 4.78353 19.1554 4.69004C19.0807 4.59655 19.0312 4.48556 19.0114 4.36757L18.8178 3.18188C18.6907 2.38869 17.9812 1.8223 17.1795 1.87418L15.9795 1.94832C15.8603 1.95533 15.7413 1.93179 15.6337 1.87993C15.5262 1.82807 15.4337 1.7496 15.365 1.65197L14.6758 0.667852C14.2164 0.0080279 13.3303 -0.19381 12.6305 0.201976L11.5837 0.790036C11.4792 0.848375 11.3615 0.879002 11.2418 0.879002C11.1221 0.879002 11.0045 0.848375 10.9 0.790036L9.85354 0.202138C9.15372 -0.193756 8.26753 0.00797389 7.80803 0.667798L7.11924 1.65148C7.05092 1.74958 6.95845 1.8284 6.85077 1.88031C6.74309 1.93223 6.62383 1.95548 6.50454 1.94783L5.30469 1.8738C4.50253 1.8203 3.79202 2.38745 3.66643 3.18151L3.47264 4.36703C3.45294 4.485 3.40343 4.59598 3.3288 4.68945C3.25417 4.78292 3.1569 4.85577 3.04621 4.9011L1.9344 5.35244C1.18839 5.65279 0.793626 6.47165 1.02335 7.24237L1.36299 8.39428C1.39634 8.50889 1.39992 8.63012 1.3734 8.74651C1.34688 8.8629 1.29112 8.9706 1.21141 9.05945L0.404811 9.95229C-0.134937 10.5464 -0.134937 11.4534 0.404811 12.0474L1.21141 12.9399C1.29112 13.0288 1.34687 13.1366 1.37339 13.253C1.39991 13.3694 1.39633 13.4907 1.36299 13.6053L1.02313 14.7572C0.79368 15.5278 1.18839 16.3465 1.93419 16.6469L3.04578 17.0983C3.15646 17.1436 3.25373 17.2165 3.32836 17.3099C3.40299 17.4034 3.4525 17.5144 3.47221 17.6324L3.66578 18.8179C3.79207 19.6115 4.5022 20.1783 5.30405 20.1254L6.50389 20.0515C6.62314 20.0444 6.74223 20.0679 6.84985 20.1198C6.95747 20.1716 7.05005 20.2501 7.1188 20.3478L7.80759 21.3315C8.26672 21.9918 9.15307 22.1939 9.8531 21.7981L10.9001 21.2099C11.0045 21.1514 11.1222 21.1207 11.2419 21.1207C11.3616 21.1207 11.4792 21.1514 11.5836 21.2099L12.63 21.7981C13.3301 22.1938 14.2164 21.9917 14.6757 21.3315L15.364 20.3483C15.4331 20.2508 15.5257 20.1725 15.6333 20.1207C15.7409 20.0689 15.8599 20.0452 15.9791 20.0519L17.1786 20.1258C17.9812 20.1809 18.6928 19.6132 18.8173 18.8183L19.0108 17.6328C19.0305 17.5148 19.08 17.4038 19.1547 17.3104C19.2293 17.2169 19.3266 17.144 19.4373 17.0987L20.5493 16.6474C21.2954 16.347 21.6901 15.528 21.4601 14.7572L21.1205 13.6057C21.0871 13.491 21.0835 13.3697 21.1101 13.2533C21.1366 13.1369 21.1925 13.0291 21.2723 12.9403L22.079 12.0474ZM18.2022 10.9997C18.2022 14.8439 15.086 17.9601 11.2419 17.9601C7.39776 17.9601 4.28151 14.8439 4.28151 10.9997C4.28151 7.15563 7.39781 4.03939 11.2419 4.03939C15.0841 4.04382 18.1978 7.15747 18.2022 10.9997Z" fill="#C8FC14"/>
</svg>
