<svg width="180" height="181" viewBox="0 0 180 181" fill="none" xmlns="http://www.w3.org/2000/svg">
<g clip-path="url(#clip0_1264_7159)">
<g clip-path="url(#clip1_1264_7159)">
<g clip-path="url(#clip2_1264_7159)">
<g clip-path="url(#clip3_1264_7159)">
<path d="M96.2663 87.7964C94.4586 85.633 93.553 84.5514 92.5135 84.7164C91.474 84.8832 90.9881 86.1885 90.0146 88.7992L89.7635 89.4739C89.4885 90.2164 89.3491 90.5867 89.0796 90.8599C88.812 91.133 88.4416 91.2779 87.7046 91.5675L87.0318 91.8297C84.4321 92.8472 83.1341 93.3569 82.9856 94.3964C82.839 95.4359 83.939 96.3195 86.139 98.0832L86.711 98.5415C87.3343 99.042 87.6478 99.2932 87.8293 99.636C88.0108 99.9789 88.0401 100.377 88.097 101.171L88.1501 101.893C88.3518 104.685 88.4545 106.082 89.4023 106.559C90.3501 107.035 91.518 106.275 93.8518 104.757L94.455 104.362C95.1168 103.932 95.4486 103.715 95.83 103.653C96.2113 103.592 96.5981 103.693 97.3718 103.895L98.0758 104.078C100.8 104.786 102.162 105.142 102.897 104.395C103.631 103.649 103.251 102.298 102.49 99.592L102.294 98.8954C102.078 98.1254 101.97 97.7404 102.025 97.3609C102.08 96.9795 102.289 96.6459 102.71 95.9749L103.094 95.3662C104.573 93.0104 105.314 91.8334 104.821 90.8965C104.326 89.9597 102.923 89.8827 100.12 89.7324L99.3958 89.692C98.5983 89.6499 98.2005 89.6279 97.854 89.4537C97.5056 89.2795 97.249 88.9715 96.7356 88.3555L96.2663 87.7964Z" fill="#DCFC36"/>
<path d="M95.5821 77.6728L95.9176 78.6298C96.2842 79.6803 96.4694 80.2065 96.8287 80.5915C97.1862 80.9801 97.6794 81.1855 98.6621 81.5943L99.5604 81.9683C103.025 83.4093 104.756 84.1316 104.954 85.6038C105.037 86.2161 104.829 86.7918 104.349 87.4335C104.195 87.392 104.04 87.3553 103.883 87.3235C102.919 87.1273 101.693 87.0613 100.442 86.9935L99.5439 86.9458L99.1222 86.922L98.8454 86.592L98.2661 85.9008C97.4594 84.9328 96.6692 83.9886 95.9341 83.3323C95.1512 82.632 93.8404 81.719 92.0786 82.0013C90.2966 82.2873 89.3469 83.5835 88.8336 84.5075C88.3587 85.3655 87.9316 86.5131 87.4989 87.6736L87.1872 88.5133L87.0534 88.8671C86.9357 88.9141 86.8177 88.9606 86.6996 89.0065L85.8654 89.3328C84.7104 89.7856 83.5682 90.2311 82.7176 90.7206C81.8027 91.2468 80.5176 92.2185 80.2627 94.0078C80.0097 95.7806 80.9539 97.075 81.6689 97.8431C82.2006 98.4133 82.9156 99.0165 83.6819 99.6361C80.8054 100.415 79.2764 100.707 78.4056 99.7681C77.4284 98.7121 77.9344 96.7981 78.9464 92.9665L79.2086 91.9765C79.4964 90.8856 79.6412 90.343 79.5679 89.8021C79.4946 89.2631 79.2159 88.7883 78.6549 87.8405L78.1434 86.9788C76.1707 83.6421 75.1826 81.9738 75.8426 80.6446C76.5026 79.3173 78.3707 79.2091 82.1071 78.9946L83.0751 78.9396C84.1384 78.8773 84.6682 78.848 85.1302 78.6005C85.5941 78.353 85.9369 77.9185 86.6226 77.0458L87.2459 76.2538C89.6586 73.1866 90.8631 71.654 92.2509 71.8905C93.6351 72.127 94.2859 73.975 95.5821 77.6728Z" fill="#DCFC36"/>
</g>
</g>
</g>
<g clip-path="url(#clip4_1264_7159)">
<g clip-path="url(#clip5_1264_7159)">
<g clip-path="url(#clip6_1264_7159)">
<path d="M180 90.2C180 40.4943 139.706 0.199951 90 0.199951C40.2944 0.199951 0 40.4943 0 90.2C0 139.906 40.2944 180.2 90 180.2C139.706 180.2 180 139.906 180 90.2Z" fill="url(#paint0_linear_1264_7159)" fill-opacity="0.1"/>
<path d="M179.285 90.2C179.285 40.8889 139.311 0.914307 89.9996 0.914307C40.6884 0.914307 0.713867 40.8889 0.713867 90.2C0.713867 139.511 40.6884 179.486 89.9996 179.486C139.311 179.486 179.285 139.511 179.285 90.2Z" stroke="url(#paint1_linear_1264_7159)" stroke-opacity="0.05" stroke-width="1.42857"/>
<path d="M168.572 90.1998C168.572 46.806 133.394 11.6284 90.0001 11.6284C46.6063 11.6284 11.4287 46.806 11.4287 90.1998C11.4287 133.594 46.6063 168.771 90.0001 168.771C133.394 168.771 168.572 133.594 168.572 90.1998Z" fill="url(#paint2_linear_1264_7159)" fill-opacity="0.15"/>
<path d="M167.857 90.1999C167.857 47.2006 132.999 12.3428 89.9997 12.3428C47.0004 12.3428 12.1426 47.2006 12.1426 90.1999C12.1426 133.199 47.0004 168.057 89.9997 168.057C132.999 168.057 167.857 133.199 167.857 90.1999Z" stroke="url(#paint3_linear_1264_7159)" stroke-opacity="0.15" stroke-width="1.42857"/>
<path d="M157.143 90.2C157.143 53.118 127.082 23.0571 90.0003 23.0571C52.9183 23.0571 22.8574 53.118 22.8574 90.2C22.8574 127.282 52.9183 157.343 90.0003 157.343C127.082 157.343 157.143 127.282 157.143 90.2Z" fill="url(#paint4_linear_1264_7159)" fill-opacity="0.2"/>
<path d="M156.428 90.2001C156.428 53.5126 126.687 23.7715 89.9999 23.7715C53.3124 23.7715 23.5713 53.5126 23.5713 90.2001C23.5713 126.888 53.3124 156.629 89.9999 156.629C126.687 156.629 156.428 126.888 156.428 90.2001Z" stroke="url(#paint5_linear_1264_7159)" stroke-opacity="0.2" stroke-width="1.42857"/>
<g filter="url(#filter0_i_1264_7159)">
<path d="M142.857 90.1999C142.857 61.0077 119.192 37.3428 89.9997 37.3428C60.8075 37.3428 37.1426 61.0077 37.1426 90.1999C37.1426 119.392 60.8075 143.057 89.9997 143.057C119.192 143.057 142.857 119.392 142.857 90.1999Z" fill="url(#paint6_linear_1264_7159)" fill-opacity="0.2"/>
<path d="M142.142 90.2C142.142 61.4023 118.797 38.0571 89.9993 38.0571C61.2016 38.0571 37.8564 61.4023 37.8564 90.2C37.8564 118.998 61.2016 142.343 89.9993 142.343C118.797 142.343 142.142 118.998 142.142 90.2Z" stroke="url(#paint7_linear_1264_7159)" stroke-opacity="0.2" stroke-width="1.42857"/>
</g>
</g>
</g>
</g>
</g>
<defs>
<filter id="filter0_i_1264_7159" x="37.1426" y="37.3428" width="105.714" height="111.429" filterUnits="userSpaceOnUse" color-interpolation-filters="sRGB">
<feFlood flood-opacity="0" result="BackgroundImageFix"/>
<feBlend mode="normal" in="SourceGraphic" in2="BackgroundImageFix" result="shape"/>
<feColorMatrix in="SourceAlpha" type="matrix" values="0 0 0 0 0 0 0 0 0 0 0 0 0 0 0 0 0 0 127 0" result="hardAlpha"/>
<feOffset dy="5.71429"/>
<feGaussianBlur stdDeviation="2.85714"/>
<feComposite in2="hardAlpha" operator="arithmetic" k2="-1" k3="1"/>
<feColorMatrix type="matrix" values="0 0 0 0 0.862745 0 0 0 0 0.988235 0 0 0 0 0.211765 0 0 0 0.2 0"/>
<feBlend mode="normal" in2="shape" result="effect1_innerShadow_1264_7159"/>
</filter>
<linearGradient id="paint0_linear_1264_7159" x1="90" y1="-48.0729" x2="90" y2="226.836" gradientUnits="userSpaceOnUse">
<stop stop-color="#DCFC36"/>
<stop offset="0.793" stop-color="#DCFC36" stop-opacity="0"/>
</linearGradient>
<linearGradient id="paint1_linear_1264_7159" x1="89.9996" y1="0.200021" x2="89.9996" y2="180.2" gradientUnits="userSpaceOnUse">
<stop stop-color="#F6FECD"/>
<stop offset="1" stop-color="#F6FECD" stop-opacity="0"/>
</linearGradient>
<linearGradient id="paint2_linear_1264_7159" x1="90.0001" y1="-30.5144" x2="90.0001" y2="209.486" gradientUnits="userSpaceOnUse">
<stop stop-color="#DCFC36"/>
<stop offset="0.793" stop-color="#DCFC36" stop-opacity="0"/>
</linearGradient>
<linearGradient id="paint3_linear_1264_7159" x1="89.9997" y1="11.6285" x2="89.9997" y2="168.771" gradientUnits="userSpaceOnUse">
<stop stop-color="#F6FECD"/>
<stop offset="1" stop-color="#F6FECD" stop-opacity="0"/>
</linearGradient>
<linearGradient id="paint4_linear_1264_7159" x1="90.0003" y1="-12.9557" x2="90.0003" y2="192.136" gradientUnits="userSpaceOnUse">
<stop stop-color="#DCFC36"/>
<stop offset="0.793" stop-color="#DCFC36" stop-opacity="0"/>
</linearGradient>
<linearGradient id="paint5_linear_1264_7159" x1="89.9999" y1="23.0572" x2="89.9999" y2="157.343" gradientUnits="userSpaceOnUse">
<stop stop-color="#F6FECD"/>
<stop offset="1" stop-color="#F6FECD" stop-opacity="0"/>
</linearGradient>
<linearGradient id="paint6_linear_1264_7159" x1="89.9997" y1="-20.4701" x2="89.9997" y2="170.447" gradientUnits="userSpaceOnUse">
<stop stop-color="#DCFC36"/>
<stop offset="0.87" stop-color="#DCFC36" stop-opacity="0"/>
</linearGradient>
<linearGradient id="paint7_linear_1264_7159" x1="89.9993" y1="37.3428" x2="89.9993" y2="143.057" gradientUnits="userSpaceOnUse">
<stop stop-color="#F6FECD"/>
<stop offset="1" stop-color="#F6FECD" stop-opacity="0"/>
</linearGradient>
<clipPath id="clip0_1264_7159">
<rect width="180" height="180" fill="white" transform="translate(0 0.199951)"/>
</clipPath>
<clipPath id="clip1_1264_7159">
<rect width="44" height="44" fill="white" transform="translate(68 68.2)"/>
</clipPath>
<clipPath id="clip2_1264_7159">
<rect width="44" height="44" fill="white" transform="translate(68 68.2)"/>
</clipPath>
<clipPath id="clip3_1264_7159">
<rect width="44" height="44" fill="white" transform="translate(68 68.2)"/>
</clipPath>
<clipPath id="clip4_1264_7159">
<rect width="180" height="180" fill="white" transform="translate(0 0.199951)"/>
</clipPath>
<clipPath id="clip5_1264_7159">
<rect width="180" height="180" fill="white" transform="translate(0 0.199951)"/>
</clipPath>
<clipPath id="clip6_1264_7159">
<rect width="180" height="180" fill="white" transform="translate(0 0.199951)"/>
</clipPath>
</defs>
</svg>
