<svg width="60" height="60" viewBox="0 0 60 60" fill="none" xmlns="http://www.w3.org/2000/svg">
<g clip-path="url(#clip0_943_216260)">
<rect width="60" height="60" rx="12" fill="#1F1F1F"/>
<path d="M32 28H44V30H32V28ZM32 33H40V35H32V33ZM32 23H44V25H32V23Z" fill="#CAFE15"/>
<path d="M36 38V42H20V30H28V28H24V22C23.999 21.08 24.315 20.188 24.895 19.474C25.475 18.76 26.283 18.268 27.183 18.08C28.083 17.892 29.021 18.02 29.838 18.443C30.655 18.865 31.301 19.557 31.668 20.4L33.5 19.6C32.948 18.337 31.979 17.303 30.754 16.67C29.529 16.038 28.124 15.847 26.775 16.128C25.426 16.41 24.215 17.147 23.345 18.216C22.476 19.286 22.001 20.622 22 22V28H20C19.47 28 18.961 28.211 18.586 28.586C18.211 28.961 18 29.47 18 30V42C18 42.53 18.211 43.039 18.586 43.414C18.961 43.789 19.47 44 20 44H36C36.53 44 37.039 43.789 37.414 43.414C37.789 43.039 38 42.53 38 42V38H36Z" fill="#CAFE15"/>
<rect x="0.5" y="0.5" width="59" height="59" rx="11.5" stroke="#191919"/>
</g>
<defs>
<clipPath id="clip0_943_216260">
<rect width="60" height="60" rx="12" fill="white"/>
</clipPath>
</defs>
</svg>
