<svg width="62" height="62" viewBox="0 0 62 62" fill="none" xmlns="http://www.w3.org/2000/svg">
<rect x="0.911765" y="0.911765" width="60.1765" height="60.1765" rx="8.20588" fill="url(#paint0_linear_914_36313)" stroke="url(#paint1_linear_914_36313)" stroke-width="1.82353"/>
<path d="M44.2578 15.7578H17.2578C16.8601 15.7583 16.4789 15.9164 16.1976 16.1976C15.9164 16.4789 15.7583 16.8601 15.7578 17.2578V39.2578C15.7583 39.6555 15.9164 40.0368 16.1976 40.318C16.4789 40.5992 16.8601 40.7574 17.2578 40.7578H27.5858L26.3858 44.7578H24.7578V45.7578H36.7578V44.7578H35.1298L33.9298 40.7578H44.2578C44.6555 40.7574 45.0368 40.5992 45.318 40.318C45.5992 40.0368 45.7574 39.6555 45.7578 39.2578V17.2578C45.7574 16.8601 45.5992 16.4789 45.318 16.1976C45.0368 15.9164 44.6555 15.7583 44.2578 15.7578ZM34.0858 44.7578H27.4298L28.6298 40.7578H32.8858L34.0858 44.7578ZM44.7578 39.2578C44.7576 39.3904 44.7049 39.5175 44.6112 39.6112C44.5175 39.7049 44.3904 39.7576 44.2578 39.7578H17.2578C17.1253 39.7576 16.9982 39.7049 16.9044 39.6112C16.8107 39.5175 16.758 39.3904 16.7578 39.2578V37.7578H44.7578V39.2578ZM44.7578 36.7578H16.7578V17.2578C16.758 17.1253 16.8107 16.9982 16.9044 16.9044C16.9982 16.8107 17.1253 16.758 17.2578 16.7578H44.2578C44.3904 16.758 44.5175 16.8107 44.6112 16.9044C44.7049 16.9982 44.7576 17.1253 44.7578 17.2578V36.7578Z" fill="#A1FF8D"/>
<path d="M42.2578 24.2578H35.672C35.6063 24.258 35.5412 24.2451 35.4805 24.22C35.4199 24.1948 35.3648 24.1579 35.3184 24.1113L33.9042 22.6971C33.7653 22.5574 33.6 22.4466 33.4179 22.3712C33.2359 22.2958 33.0407 22.2573 32.8436 22.2578H27.2578C26.8601 22.2583 26.4789 22.4164 26.1976 22.6977C25.9164 22.9789 25.7583 23.3601 25.7578 23.7578V34.2578C25.7583 34.6555 25.9164 35.0368 26.1976 35.318C26.4789 35.5992 26.8601 35.7574 27.2578 35.7578H42.2578C42.6555 35.7574 43.0368 35.5992 43.318 35.318C43.5992 35.0368 43.7574 34.6555 43.7578 34.2578V25.7578C43.7574 25.3601 43.5992 24.9789 43.318 24.6977C43.0368 24.4164 42.6555 24.2583 42.2578 24.2578ZM42.7578 34.2578C42.7576 34.3904 42.7049 34.5175 42.6112 34.6112C42.5175 34.7049 42.3904 34.7577 42.2578 34.7578H27.2578C27.1253 34.7577 26.9982 34.7049 26.9044 34.6112C26.8107 34.5175 26.758 34.3904 26.7578 34.2578V23.7578C26.758 23.6253 26.8107 23.4982 26.9044 23.4044C26.9982 23.3107 27.1253 23.258 27.2578 23.2578H32.8436C32.9093 23.2576 32.9744 23.2705 33.0351 23.2956C33.0958 23.3208 33.1509 23.3577 33.1972 23.4043L34.6114 24.8185C34.7503 24.9582 34.9156 25.069 35.0977 25.1444C35.2797 25.2198 35.4749 25.2584 35.672 25.2578H42.2578C42.3904 25.258 42.5175 25.3107 42.6112 25.4044C42.7049 25.4982 42.7576 25.6253 42.7578 25.7578V34.2578Z" fill="#A1FF8D"/>
<path d="M31.4042 26.9043L28.5507 29.7578L31.4042 32.6114L32.1114 31.9042L29.9649 29.7578L32.1114 27.6114L31.4042 26.9043ZM33.3251 32.0239L35.8269 27.5247L36.7009 28.0106L34.199 32.5098L33.3251 32.0239ZM37.4042 27.6114L39.5508 29.7578L37.4042 31.9042L38.1114 32.6114L40.9649 29.7578L38.1114 26.9043L37.4042 27.6114ZM27.4324 18.7578L28.2421 20.6465L30.0278 21.3864L31.9389 20.6227L32.9276 21.6114L33.6347 20.9043L32.18 19.4494L30.0346 20.3067L29.0009 19.8784L28.0918 17.7578H25.4239L24.5148 19.8784L23.481 20.3067L21.3357 19.4494L19.4495 21.3357L20.3067 23.481L19.8784 24.5147L17.7578 25.4239V28.0918L19.8784 29.0009L20.3067 30.0346L19.4494 32.1799L21.3356 34.0662L23.481 33.2089L24.5664 33.6586L24.9493 32.7348L23.4879 32.1292L21.5767 32.8929L20.6227 31.9389L21.3864 30.0278L20.6464 28.2421L18.7578 27.4324V26.0832L20.6465 25.2736L21.3864 23.4879L20.6227 21.5767L21.5767 20.6227L23.4879 21.3864L25.2735 20.6465L26.0832 18.7578H27.4324Z" fill="#A1FF8D"/>
<path d="M24.9804 23.1728L24.5354 22.2773C23.7012 22.6915 22.9993 23.3303 22.5085 24.1218C22.0178 24.9133 21.7578 25.8261 21.7578 26.7573C21.7578 27.6886 22.0178 28.6014 22.5085 29.3929C22.9993 30.1844 23.7012 30.8232 24.5354 31.2373L24.9804 30.3418C24.3129 30.0105 23.7512 29.4994 23.3585 28.8662C22.9659 28.2329 22.7578 27.5025 22.7578 26.7573C22.7578 26.0122 22.9659 25.2818 23.3585 24.6485C23.7512 24.0152 24.3129 23.5042 24.9804 23.1728Z" fill="#A1FF8D"/>
<defs>
<linearGradient id="paint0_linear_914_36313" x1="-7.34654e-06" y1="-4.90396" x2="72.4452" y2="45.2893" gradientUnits="userSpaceOnUse">
<stop stop-color="#1A2613"/>
<stop offset="0.489"/>
<stop offset="1" stop-color="#001D2B"/>
</linearGradient>
<linearGradient id="paint1_linear_914_36313" x1="62" y1="60.4878" x2="6.92052" y2="-4.78893" gradientUnits="userSpaceOnUse">
<stop stop-color="#14FF87" stop-opacity="0.3"/>
<stop offset="1" stop-color="#CAFE15"/>
</linearGradient>
</defs>
</svg>
