<svg width="60" height="60" viewBox="0 0 60 60" fill="none" xmlns="http://www.w3.org/2000/svg">
<path d="M53.8957 3.51562C54.582 3.51656 55.2399 3.78959 55.7251 4.27486C56.2104 4.76013 56.4834 5.41802 56.4844 6.1043V53.8957C56.4834 54.582 56.2104 55.2399 55.7251 55.7251C55.2399 56.2104 54.582 56.4834 53.8957 56.4844H6.1043C5.41802 56.4834 4.76013 56.2104 4.27486 55.7251C3.78959 55.2399 3.51656 54.582 3.51562 53.8957V6.1043C3.51656 5.41802 3.78959 4.76013 4.27486 4.27486C4.76013 3.78959 5.41802 3.51656 6.1043 3.51562H53.8957ZM53.8957 0H6.1043C4.48534 0 2.93268 0.643129 1.78791 1.78791C0.643129 2.93268 0 4.48534 0 6.1043L0 53.8957C0 55.5147 0.643129 57.0673 1.78791 58.2121C2.93268 59.3569 4.48534 60 6.1043 60H53.8957C55.5147 60 57.0673 59.3569 58.2121 58.2121C59.3569 57.0673 60 55.5147 60 53.8957V6.1043C60 4.48534 59.3569 2.93268 58.2121 1.78791C57.0673 0.643129 55.5147 0 53.8957 0Z" fill="white"/>
<path d="M23.7469 18.662C23.7118 18.4862 23.6766 18.451 23.5008 18.451H18.6141C18.4735 18.451 18.4032 18.5565 18.4032 18.6971C18.3329 19.8925 18.2274 20.244 18.0868 20.5956L10.8446 41.1971C10.8094 41.4432 10.8797 41.5487 11.0907 41.5487H14.6063C14.6943 41.5592 14.7831 41.5361 14.8548 41.484C14.9265 41.4318 14.9759 41.3545 14.993 41.2675L16.9266 35.4667H25.3289L27.368 41.3378C27.3972 41.4053 27.4468 41.462 27.5099 41.4998C27.5729 41.5376 27.6463 41.5547 27.7196 41.5487H31.6571C31.868 41.5487 31.9032 41.4432 31.868 41.2323L23.7469 18.662ZM18.0469 31.6405C19.1016 28.4413 20.5079 24.328 21.0704 21.9725H21.1055C21.8086 24.4335 23.461 29.3202 24.1993 31.6405H18.0469ZM43.2879 23.871C41.3895 23.871 39.702 24.5389 38.1903 25.8046C38.148 25.3528 38.0656 24.9058 37.9442 24.4686C37.8739 24.2928 37.7684 24.2225 37.5223 24.2225H34.3231C34.1122 24.2225 34.077 24.2928 34.077 24.4686C34.1473 25.1718 34.2176 27.0702 34.2176 28.2655V41.2733C34.2176 41.4491 34.2879 41.5546 34.4989 41.5546H38.1903C38.2281 41.558 38.2661 41.5531 38.3018 41.5401C38.3375 41.5272 38.3699 41.5066 38.3967 41.4798C38.4235 41.4529 38.4442 41.4205 38.4571 41.3849C38.47 41.3492 38.4749 41.3111 38.4715 41.2733V28.9979C39.3153 28.0839 40.4754 27.5565 41.8817 27.5565C43.9219 27.5565 44.9063 28.8925 44.9063 31.2128V41.2323C44.9 41.2752 44.9039 41.319 44.9175 41.3601C44.9311 41.4013 44.9541 41.4387 44.9847 41.4694C45.0153 41.5001 45.0526 41.5233 45.0937 41.5371C45.1348 41.5508 45.1786 41.5548 45.2215 41.5487H48.8789C49.0547 41.5487 49.1602 41.4784 49.1602 41.2323V30.826C49.1649 25.201 45.9293 23.8651 43.2926 23.8651L43.2879 23.871Z" fill="white"/>
</svg>
