<svg width="114" height="114" viewBox="0 0 114 114" fill="none" xmlns="http://www.w3.org/2000/svg">
<circle cx="57" cy="57" r="55" fill="url(#paint0_linear_955_11467)"/>
<circle cx="57" cy="57" r="56" stroke="url(#paint1_linear_955_11467)" stroke-opacity="0.5" stroke-width="2"/>
<g clip-path="url(#clip0_955_11467)">
<path d="M80.8957 30.5156C81.582 30.5166 82.2399 30.7896 82.7251 31.2749C83.2104 31.7601 83.4834 32.418 83.4844 33.1043V80.8957C83.4834 81.582 83.2104 82.2399 82.7251 82.7251C82.2399 83.2104 81.582 83.4834 80.8957 83.4844H33.1043C32.418 83.4834 31.7601 83.2104 31.2749 82.7251C30.7896 82.2399 30.5166 81.582 30.5156 80.8957V33.1043C30.5166 32.418 30.7896 31.7601 31.2749 31.2749C31.7601 30.7896 32.418 30.5166 33.1043 30.5156H80.8957ZM80.8957 27H33.1043C31.4853 27 29.9327 27.6431 28.7879 28.7879C27.6431 29.9327 27 31.4853 27 33.1043V80.8957C27 82.5147 27.6431 84.0673 28.7879 85.2121C29.9327 86.3569 31.4853 87 33.1043 87H80.8957C82.5147 87 84.0673 86.3569 85.2121 85.2121C86.3569 84.0673 87 82.5147 87 80.8957V33.1043C87 31.4853 86.3569 29.9327 85.2121 28.7879C84.0673 27.6431 82.5147 27 80.8957 27Z" fill="white"/>
<path d="M50.7469 45.662C50.7118 45.4862 50.6766 45.451 50.5008 45.451H45.6141C45.4735 45.451 45.4032 45.5565 45.4032 45.6971C45.3329 46.8925 45.2274 47.244 45.0868 47.5956L37.8446 68.1971C37.8094 68.4432 37.8797 68.5487 38.0907 68.5487H41.6063C41.6943 68.5592 41.7831 68.5361 41.8548 68.484C41.9265 68.4318 41.9759 68.3545 41.993 68.2675L43.9266 62.4667H52.3289L54.368 68.3378C54.3972 68.4053 54.4468 68.462 54.5099 68.4998C54.5729 68.5376 54.6463 68.5547 54.7196 68.5487H58.6571C58.868 68.5487 58.9032 68.4432 58.868 68.2323L50.7469 45.662ZM45.0469 58.6405C46.1016 55.4413 47.5079 51.328 48.0704 48.9725H48.1055C48.8086 51.4335 50.461 56.3202 51.1993 58.6405H45.0469ZM70.2879 50.871C68.3895 50.871 66.702 51.5389 65.1903 52.8046C65.148 52.3528 65.0656 51.9058 64.9442 51.4686C64.8739 51.2928 64.7684 51.2225 64.5223 51.2225H61.3231C61.1122 51.2225 61.077 51.2928 61.077 51.4686C61.1473 52.1718 61.2176 54.0702 61.2176 55.2655V68.2733C61.2176 68.4491 61.2879 68.5546 61.4989 68.5546H65.1903C65.2281 68.558 65.2661 68.5531 65.3018 68.5401C65.3375 68.5272 65.3699 68.5066 65.3967 68.4798C65.4235 68.4529 65.4442 68.4205 65.4571 68.3849C65.47 68.3492 65.4749 68.3111 65.4715 68.2733V55.9979C66.3153 55.0839 67.4754 54.5565 68.8817 54.5565C70.9219 54.5565 71.9063 55.8925 71.9063 58.2128V68.2323C71.9 68.2752 71.9039 68.319 71.9175 68.3601C71.9311 68.4013 71.9541 68.4387 71.9847 68.4694C72.0153 68.5001 72.0526 68.5233 72.0937 68.5371C72.1348 68.5508 72.1786 68.5548 72.2215 68.5487H75.8789C76.0547 68.5487 76.1602 68.4784 76.1602 68.2323V57.826C76.1649 52.201 72.9293 50.8651 70.2926 50.8651L70.2879 50.871Z" fill="white"/>
</g>
<defs>
<linearGradient id="paint0_linear_955_11467" x1="1.99999" y1="-6.70058" x2="130.532" y2="82.3521" gradientUnits="userSpaceOnUse">
<stop stop-color="#1A2613"/>
<stop offset="0.489"/>
<stop offset="1" stop-color="#001D2B"/>
</linearGradient>
<linearGradient id="paint1_linear_955_11467" x1="104.274" y1="86.2271" x2="22.0377" y2="10.7919" gradientUnits="userSpaceOnUse">
<stop stop-color="#14FF87" stop-opacity="0.76"/>
<stop offset="1" stop-color="#CAFE15"/>
</linearGradient>
<clipPath id="clip0_955_11467">
<rect width="60" height="60" fill="white" transform="translate(27 27)"/>
</clipPath>
</defs>
</svg>
