<svg width="60" height="60" viewBox="0 0 60 60" fill="none" xmlns="http://www.w3.org/2000/svg">
<path d="M8.79441 0H1.76516C0.794727 0 0.00792969 0.786797 0.00792969 1.75734V8.90379C0.00792969 9.87434 0.794609 10.6611 1.76527 10.6611C2.73582 10.6611 3.52262 9.87434 3.52262 8.90379V3.51469H8.79453C9.76508 3.51469 10.5519 2.72789 10.5519 1.75734C10.5518 0.786797 9.76496 0 8.79441 0ZM58.2336 0H51.2043C50.2338 0 49.447 0.786797 49.447 1.75734C49.447 2.72789 50.2337 3.51469 51.2043 3.51469H56.4762V8.90379C56.4762 9.87434 57.2631 10.6611 58.2336 10.6611C59.2041 10.6611 59.9909 9.87434 59.9909 8.90379V1.75734C59.9909 0.786797 59.2041 0 58.2336 0ZM8.79441 56.4684H3.5225V51.0793C3.5225 50.1088 2.7357 49.322 1.76516 49.322C0.794609 49.322 0.0078125 50.1088 0.0078125 51.0793V58.2258C0.0078125 59.1963 0.794492 59.9831 1.76516 59.9831H8.79441C9.76496 59.9831 10.5518 59.1963 10.5518 58.2258C10.5518 57.2552 9.76496 56.4684 8.79441 56.4684ZM58.2336 49.322C57.2631 49.322 56.4762 50.1088 56.4762 51.0793V56.4684H51.2043C50.2338 56.4684 49.447 57.2552 49.447 58.2258C49.447 59.1963 50.2338 59.9831 51.2043 59.9831H58.2336C59.2041 59.9831 59.9909 59.1963 59.9909 58.2258V51.0793C59.9909 50.1088 59.2041 49.322 58.2336 49.322ZM55.3552 14.4168L30.8803 0.236836C30.6126 0.0817353 30.3087 5.66451e-05 29.9993 5.66451e-05C29.6899 5.66451e-05 29.386 0.0817353 29.1184 0.236836L4.63344 14.4166C4.09367 14.7294 3.75676 15.3117 3.75676 15.9361C3.75676 15.9396 3.75711 15.9431 3.75711 15.9465V44.0626C3.75711 44.693 4.09965 45.2829 4.65125 45.5934L29.1185 59.7633C29.3867 59.9171 29.6903 59.9987 29.9995 60C30.3167 60 30.6267 59.9102 30.8805 59.7633L55.3378 45.5933L55.35 45.5863C55.9168 45.1773 56.2223 44.8336 56.2309 44.0838C56.231 44.0768 56.2316 44.0699 56.2316 44.0629V15.9468C56.2316 15.9432 56.2319 15.9397 56.2319 15.9363C56.2313 15.6285 56.15 15.3263 55.9961 15.0597C55.8423 14.7931 55.6214 14.5714 55.3552 14.4168ZM28.242 55.1937L9.04367 44.0706L23.8443 35.5828C24.6863 35.1 24.9774 34.0261 24.4945 33.1842C24.0118 32.3422 22.9379 32.0513 22.0959 32.5341L7.27145 41.0292V18.9737L28.242 31.0171V55.1937ZM29.9994 27.9734L9.04109 15.9311L29.9994 3.78832L50.9577 15.9311L29.9994 27.9734ZM52.7284 41.0292L37.9029 32.5339C37.061 32.0512 35.9871 32.3421 35.5043 33.1841C35.0213 34.0261 35.3124 35.0999 36.1544 35.5827L50.9551 44.0704L31.7566 55.1934V31.0171L52.7282 18.9737V41.0292H52.7284Z" fill="white"/>
</svg>
