<svg width="60" height="60" viewBox="0 0 60 60" fill="none" xmlns="http://www.w3.org/2000/svg">
<path d="M44.6529 58.125H15.3466C7.91788 58.125 1.87476 52.0819 1.87476 44.655V15.345C1.87476 7.91813 7.91788 1.875 15.3466 1.875H44.6548C52.0816 1.875 58.1248 7.91813 58.1248 15.345V44.655C58.1248 52.0819 52.0816 58.125 44.6529 58.125ZM15.3466 5.625C12.7693 5.62748 10.2982 6.65229 8.47563 8.47455C6.65302 10.2968 5.62773 12.7677 5.62476 15.345V44.655C5.62773 47.2323 6.65302 49.7032 8.47563 51.5255C10.2982 53.3477 12.7693 54.3725 15.3466 54.375H44.6548C47.2317 54.372 49.7023 53.347 51.5245 51.5248C53.3468 49.7026 54.3718 47.232 54.3748 44.655V15.345C54.3718 12.7677 53.3465 10.2968 51.5239 8.47455C49.7013 6.65229 47.2302 5.62748 44.6529 5.625H15.3466Z" fill="white"/>
<path d="M29.0623 20.6249C28.565 20.6249 28.0881 20.8224 27.7364 21.174C27.3848 21.5257 27.1873 22.0026 27.1873 22.4999V29.9999C27.1873 33.1011 25.0854 35.6249 22.4998 35.6249C19.9141 35.6249 17.8123 33.1011 17.8123 29.9999V22.4999C17.8123 21.4705 16.9666 20.6249 15.9373 20.6249C14.9079 20.6249 14.0623 21.4705 14.0623 22.4999V29.9999C14.0623 35.1692 17.8479 39.3749 22.4998 39.3749C27.1516 39.3749 30.9373 35.1692 30.9373 29.9999V22.4999C30.9373 22.0026 30.7397 21.5257 30.3881 21.174C30.0365 20.8224 29.5595 20.6249 29.0623 20.6249ZM41.5854 29.9999L45.6523 23.4936C45.8988 23.0727 45.9716 22.5722 45.8551 22.0984C45.7386 21.6247 45.4421 21.215 45.0285 20.9563C44.6149 20.6976 44.1167 20.6104 43.6398 20.713C43.1628 20.8157 42.7447 21.1002 42.4741 21.5061L39.3748 26.4636L36.2773 21.508C36.1505 21.2916 35.9816 21.1028 35.7806 20.9528C35.5796 20.8028 35.3505 20.6947 35.1069 20.6348C34.8634 20.5749 34.6103 20.5645 34.3626 20.6042C34.115 20.6439 33.8778 20.7328 33.6651 20.8658C33.4525 20.9988 33.2687 21.1731 33.1246 21.3784C32.9805 21.5837 32.8791 21.8158 32.8263 22.061C32.7735 22.3062 32.7705 22.5595 32.8173 22.8059C32.8642 23.0523 32.96 23.2868 33.0991 23.4955L37.1641 29.9999L33.0973 36.5061C32.8355 36.9281 32.7511 37.4364 32.8625 37.9204C32.9738 38.4043 33.2718 38.8247 33.6916 39.0899C34.114 39.3509 34.6223 39.4348 35.1061 39.3231C35.5899 39.2115 36.0101 38.9134 36.2754 38.4936L39.3748 33.5361L42.4723 38.4917C43.0179 39.3636 44.1841 39.6336 45.056 39.088C45.9279 38.5424 46.196 37.3761 45.6504 36.5042L41.5854 29.9999Z" fill="white"/>
</svg>
