<svg width="60" height="60" viewBox="0 0 60 60" fill="none" xmlns="http://www.w3.org/2000/svg">
<path d="M44.6529 58.125H15.3466C7.91788 58.125 1.87476 52.0819 1.87476 44.655V15.345C1.87476 7.91813 7.91788 1.875 15.3466 1.875H44.6548C52.0816 1.875 58.1248 7.91813 58.1248 15.345V44.655C58.1248 52.0819 52.0816 58.125 44.6529 58.125ZM15.3466 5.625C12.7693 5.62748 10.2982 6.65229 8.47563 8.47455C6.65302 10.2968 5.62773 12.7677 5.62476 15.345V44.655C5.62773 47.2323 6.65302 49.7032 8.47563 51.5255C10.2982 53.3477 12.7693 54.3725 15.3466 54.375H44.6548C47.2317 54.372 49.7023 53.347 51.5245 51.5248C53.3468 49.7026 54.3718 47.232 54.3748 44.655V15.345C54.3718 12.7677 53.3465 10.2968 51.5239 8.47455C49.7013 6.65229 47.2302 5.62748 44.6529 5.625H15.3466Z" fill="white"/>
<path d="M27.1873 39.375C22.5354 39.375 18.7498 35.1694 18.7498 30V22.5C18.7498 21.4706 19.5954 20.625 20.6248 20.625C21.6541 20.625 22.4998 21.4706 22.4998 22.5V30C22.4998 33.1012 24.6016 35.625 27.1873 35.625C29.7729 35.625 31.8748 33.1012 31.8748 30V22.5C31.8748 22.0027 32.0723 21.5258 32.4239 21.1742C32.7756 20.8225 33.2525 20.625 33.7498 20.625C34.247 20.625 34.724 20.8225 35.0756 21.1742C35.4272 21.5258 35.6248 22.0027 35.6248 22.5V30C35.6248 35.1694 31.8391 39.375 27.1873 39.375ZM39.3748 39.375C38.3454 39.375 37.4998 38.5294 37.4998 37.5V22.5C37.4998 21.4706 38.3454 20.625 39.3748 20.625C40.4041 20.625 41.2498 21.4706 41.2498 22.5V37.5C41.2498 38.5294 40.4041 39.375 39.3748 39.375Z" fill="white"/>
</svg>
