<svg width="326" height="305" viewBox="0 0 326 305" fill="none" xmlns="http://www.w3.org/2000/svg">
<circle cx="163" cy="153" r="120" fill="url(#paint0_linear_955_11437)"/>
<g filter="url(#filter0_di_955_11437)">
<circle cx="163" cy="153" r="102" fill="url(#paint1_linear_955_11437)"/>
</g>
<path d="M96.7727 201.614V200.364H105.5V201.614H101.841V212H100.432V201.614H96.7727ZM107.371 212V200.364H108.78V205.545H114.984V200.364H116.393V212H114.984V206.795H108.78V212H107.371ZM118.91 212V200.364H125.933V201.614H120.32V205.545H125.57V206.795H120.32V210.75H126.024V212H118.91ZM132.365 212V200.364H136.297C137.206 200.364 137.952 200.519 138.535 200.83C139.119 201.136 139.551 201.559 139.831 202.097C140.111 202.634 140.251 203.246 140.251 203.932C140.251 204.617 140.111 205.225 139.831 205.756C139.551 206.286 139.121 206.703 138.541 207.006C137.962 207.305 137.221 207.455 136.32 207.455H133.138V206.182H136.274C136.895 206.182 137.395 206.091 137.774 205.909C138.157 205.727 138.433 205.47 138.604 205.136C138.778 204.799 138.865 204.398 138.865 203.932C138.865 203.466 138.778 203.059 138.604 202.71C138.429 202.362 138.151 202.093 137.768 201.903C137.386 201.71 136.88 201.614 136.251 201.614H133.774V212H132.365ZM137.842 206.773L140.706 212H139.07L136.251 206.773H137.842ZM142.295 212V200.364H149.318V201.614H143.704V205.545H148.954V206.795H143.704V210.75H149.409V212H142.295ZM157.917 203.273C157.849 202.697 157.573 202.25 157.088 201.932C156.603 201.614 156.008 201.455 155.304 201.455C154.789 201.455 154.338 201.538 153.952 201.705C153.569 201.871 153.27 202.1 153.054 202.392C152.842 202.684 152.736 203.015 152.736 203.386C152.736 203.697 152.81 203.964 152.957 204.188C153.109 204.407 153.302 204.591 153.537 204.739C153.772 204.883 154.018 205.002 154.275 205.097C154.533 205.187 154.77 205.261 154.986 205.318L156.167 205.636C156.471 205.716 156.808 205.826 157.179 205.966C157.554 206.106 157.912 206.297 158.253 206.54C158.597 206.778 158.881 207.085 159.105 207.46C159.328 207.835 159.44 208.295 159.44 208.841C159.44 209.47 159.275 210.038 158.946 210.545C158.62 211.053 158.143 211.456 157.514 211.756C156.889 212.055 156.13 212.205 155.236 212.205C154.402 212.205 153.681 212.07 153.071 211.801C152.465 211.532 151.988 211.157 151.639 210.676C151.294 210.195 151.099 209.636 151.054 209H152.508C152.546 209.439 152.694 209.803 152.952 210.091C153.213 210.375 153.542 210.587 153.94 210.727C154.342 210.864 154.774 210.932 155.236 210.932C155.774 210.932 156.256 210.845 156.685 210.67C157.113 210.492 157.452 210.246 157.702 209.932C157.952 209.614 158.077 209.242 158.077 208.818C158.077 208.432 157.969 208.117 157.753 207.875C157.537 207.633 157.253 207.436 156.9 207.284C156.548 207.133 156.167 207 155.758 206.886L154.327 206.477C153.417 206.216 152.698 205.843 152.167 205.358C151.637 204.873 151.372 204.239 151.372 203.455C151.372 202.803 151.548 202.235 151.9 201.75C152.256 201.261 152.734 200.883 153.332 200.614C153.935 200.341 154.607 200.205 155.349 200.205C156.099 200.205 156.766 200.339 157.349 200.608C157.933 200.873 158.395 201.237 158.736 201.699C159.08 202.161 159.262 202.686 159.281 203.273H157.917ZM171.271 206.182C171.271 207.409 171.05 208.47 170.606 209.364C170.163 210.258 169.555 210.947 168.783 211.432C168.01 211.917 167.127 212.159 166.135 212.159C165.142 212.159 164.26 211.917 163.487 211.432C162.714 210.947 162.106 210.258 161.663 209.364C161.22 208.47 160.998 207.409 160.998 206.182C160.998 204.955 161.22 203.894 161.663 203C162.106 202.106 162.714 201.417 163.487 200.932C164.26 200.447 165.142 200.205 166.135 200.205C167.127 200.205 168.01 200.447 168.783 200.932C169.555 201.417 170.163 202.106 170.606 203C171.05 203.894 171.271 204.955 171.271 206.182ZM169.908 206.182C169.908 205.174 169.739 204.324 169.402 203.631C169.068 202.938 168.616 202.413 168.044 202.057C167.476 201.701 166.839 201.523 166.135 201.523C165.43 201.523 164.792 201.701 164.22 202.057C163.652 202.413 163.199 202.938 162.862 203.631C162.529 204.324 162.362 205.174 162.362 206.182C162.362 207.189 162.529 208.04 162.862 208.733C163.199 209.426 163.652 209.951 164.22 210.307C164.792 210.663 165.43 210.841 166.135 210.841C166.839 210.841 167.476 210.663 168.044 210.307C168.616 209.951 169.068 209.426 169.402 208.733C169.739 208.04 169.908 207.189 169.908 206.182ZM173.336 212V200.364H174.746V210.75H180.155V212H173.336ZM189.669 200.364H191.078V208.068C191.078 208.864 190.89 209.574 190.515 210.199C190.144 210.82 189.62 211.311 188.942 211.67C188.264 212.027 187.468 212.205 186.555 212.205C185.642 212.205 184.847 212.027 184.169 211.67C183.491 211.311 182.964 210.82 182.589 210.199C182.218 209.574 182.032 208.864 182.032 208.068V200.364H183.442V207.955C183.442 208.523 183.567 209.028 183.817 209.472C184.067 209.911 184.423 210.258 184.885 210.511C185.351 210.761 185.907 210.886 186.555 210.886C187.203 210.886 187.76 210.761 188.226 210.511C188.692 210.258 189.048 209.911 189.294 209.472C189.544 209.028 189.669 208.523 189.669 207.955V200.364ZM192.951 201.614V200.364H201.679V201.614H198.02V212H196.611V201.614H192.951ZM204.959 200.364V212H203.549V200.364H204.959ZM217.298 206.182C217.298 207.409 217.076 208.47 216.633 209.364C216.19 210.258 215.582 210.947 214.809 211.432C214.037 211.917 213.154 212.159 212.162 212.159C211.169 212.159 210.287 211.917 209.514 211.432C208.741 210.947 208.133 210.258 207.69 209.364C207.247 208.47 207.025 207.409 207.025 206.182C207.025 204.955 207.247 203.894 207.69 203C208.133 202.106 208.741 201.417 209.514 200.932C210.287 200.447 211.169 200.205 212.162 200.205C213.154 200.205 214.037 200.447 214.809 200.932C215.582 201.417 216.19 202.106 216.633 203C217.076 203.894 217.298 204.955 217.298 206.182ZM215.934 206.182C215.934 205.174 215.766 204.324 215.429 203.631C215.095 202.938 214.643 202.413 214.071 202.057C213.503 201.701 212.866 201.523 212.162 201.523C211.457 201.523 210.819 201.701 210.247 202.057C209.679 202.413 209.226 202.938 208.889 203.631C208.556 204.324 208.389 205.174 208.389 206.182C208.389 207.189 208.556 208.04 208.889 208.733C209.226 209.426 209.679 209.951 210.247 210.307C210.819 210.663 211.457 210.841 212.162 210.841C212.866 210.841 213.503 210.663 214.071 210.307C214.643 209.951 215.095 209.426 215.429 208.733C215.766 208.04 215.934 207.189 215.934 206.182ZM228.591 200.364V212H227.227L220.886 202.864H220.772V212H219.363V200.364H220.727L227.091 209.523H227.204V200.364H228.591Z" fill="#093200"/>
<g clip-path="url(#clip0_955_11437)">
<path d="M138.273 106.209H134.758C133.786 106.209 133 106.996 133 107.967C133 108.939 133.786 109.725 134.758 109.725H138.273C139.245 109.725 140.031 108.939 140.031 107.967C140.031 106.996 139.245 106.209 138.273 106.209ZM139.118 97.4204L136.633 94.9348C135.946 94.2482 134.834 94.2482 134.147 94.9348C133.461 95.6214 133.461 96.7339 134.147 97.4205L136.633 99.906C137.32 100.593 138.432 100.593 139.118 99.906C139.805 99.2194 139.805 98.107 139.118 97.4204ZM139.118 116.029C138.432 115.342 137.319 115.342 136.633 116.029L134.147 118.514C133.461 119.201 133.461 120.313 134.147 121C134.834 121.687 135.946 121.687 136.633 121L139.118 118.514C139.805 117.828 139.805 116.715 139.118 116.029ZM191.242 106.209H187.727C186.755 106.209 185.969 106.996 185.969 107.967C185.969 108.939 186.755 109.725 187.727 109.725H191.242C192.214 109.725 193 108.939 193 107.967C193 106.996 192.214 106.209 191.242 106.209ZM191.853 94.9347C191.166 94.2481 190.054 94.2481 189.367 94.9347L186.882 97.4204C186.195 98.107 186.195 99.2194 186.882 99.906C187.568 100.593 188.68 100.593 189.367 99.906L191.853 97.4204C192.539 96.7338 192.539 95.6213 191.853 94.9347ZM191.853 118.514L189.367 116.029C188.681 115.342 187.568 115.342 186.882 116.029C186.195 116.715 186.195 117.828 186.882 118.514L189.367 121C190.054 121.687 191.166 121.687 191.853 121C192.539 120.313 192.539 119.201 191.853 118.514ZM176.295 89.7158C171.338 85.6852 164.833 84.1334 158.47 85.4723C150.536 87.1289 144.074 93.6868 142.392 101.618C140.962 108.366 142.727 115.139 147.231 120.203C149.052 122.253 150.163 124.726 150.528 127.303H155.969V111.483C155.969 110.802 161.123 100.759 161.428 100.15C162.025 98.9586 163.975 98.9586 164.572 100.15C164.891 100.788 170.031 110.836 170.031 111.483V127.303H175.478C175.855 124.738 176.999 122.226 178.872 120.088C182.239 116.249 184.095 111.316 184.094 106.209C184.094 99.8288 181.251 93.7429 176.295 89.7158Z" fill="#105A00"/>
<path d="M163 114.844C161.811 114.844 160.628 114.637 159.484 114.259V127.303H166.516V114.259C165.372 114.637 164.189 114.844 163 114.844ZM150.695 130.819V132.577C150.695 135.485 153.061 137.85 155.969 137.85H170.031C172.939 137.85 175.305 135.485 175.305 132.577V130.819H150.695ZM163 104.867L160.095 110.677C161.972 111.446 164.028 111.446 165.905 110.677L163 104.867ZM154.535 141.366C155.263 143.407 157.196 144.999 159.484 144.999H166.516C168.804 144.999 170.737 143.407 171.465 141.366H154.535Z" fill="#105A00"/>
</g>
<path d="M91.4418 171.05C91.3045 170.619 91.1198 170.233 90.8878 169.892C90.6605 169.546 90.3883 169.253 90.071 169.011C89.7538 168.765 89.3916 168.578 88.9844 168.45C88.5819 168.322 88.1392 168.259 87.6562 168.259C86.8371 168.259 86.0985 168.469 85.4403 168.891C84.7822 169.312 84.2614 169.93 83.8778 170.744C83.4991 171.554 83.3097 172.546 83.3097 173.72C83.3097 174.899 83.5014 175.896 83.8849 176.71C84.2685 177.525 84.794 178.143 85.4616 178.564C86.1293 178.985 86.8892 179.196 87.7415 179.196C88.5322 179.196 89.2211 179.035 89.8082 178.713C90.4001 178.391 90.857 177.937 91.179 177.349C91.5057 176.758 91.669 176.062 91.669 175.261L92.2372 175.368H88.0753V173.557H93.7926V175.212C93.7926 176.433 93.5322 177.494 93.0114 178.393C92.4953 179.288 91.7803 179.98 90.8665 180.467C89.9574 180.955 88.9157 181.199 87.7415 181.199C86.4252 181.199 85.2699 180.896 84.2756 180.29C83.286 179.684 82.5142 178.824 81.9602 177.712C81.4063 176.594 81.1293 175.268 81.1293 173.734C81.1293 172.574 81.2902 171.533 81.6122 170.609C81.9342 169.686 82.3864 168.902 82.9688 168.259C83.5559 167.61 84.2448 167.115 85.0355 166.774C85.831 166.429 86.6998 166.256 87.642 166.256C88.428 166.256 89.1596 166.372 89.8366 166.604C90.5185 166.836 91.1245 167.165 91.6548 167.591C92.1899 168.017 92.6326 168.524 92.983 169.111C93.3333 169.693 93.5701 170.339 93.6932 171.05H91.4418ZM96.1985 181V166.455H101.383C102.51 166.455 103.445 166.649 104.189 167.037C104.937 167.425 105.495 167.963 105.865 168.649C106.234 169.331 106.419 170.119 106.419 171.014C106.419 171.904 106.232 172.688 105.858 173.365C105.488 174.037 104.93 174.561 104.181 174.935C103.438 175.309 102.503 175.496 101.376 175.496H97.4485V173.607H101.177C101.887 173.607 102.465 173.505 102.91 173.301C103.36 173.098 103.689 172.802 103.897 172.413C104.106 172.025 104.21 171.559 104.21 171.014C104.21 170.465 104.103 169.989 103.89 169.587C103.682 169.184 103.353 168.876 102.903 168.663C102.458 168.446 101.873 168.337 101.149 168.337H98.3931V181H96.1985ZM103.379 174.438L106.973 181H104.473L100.95 174.438H103.379ZM109.938 181H107.608L112.843 166.455H115.378L120.613 181H118.283L114.171 169.097H114.057L109.938 181ZM110.328 175.304H117.885V177.151H110.328V175.304ZM122.333 181V166.455H127.518C128.649 166.455 129.587 166.661 130.33 167.072C131.074 167.484 131.63 168.048 131.999 168.763C132.369 169.473 132.553 170.273 132.553 171.163C132.553 172.058 132.366 172.863 131.992 173.578C131.623 174.288 131.064 174.852 130.316 175.268C129.573 175.68 128.637 175.886 127.511 175.886H123.945V174.026H127.312C128.027 174.026 128.607 173.902 129.052 173.656C129.497 173.405 129.824 173.064 130.032 172.634C130.24 172.203 130.344 171.713 130.344 171.163C130.344 170.614 130.24 170.126 130.032 169.7C129.824 169.274 129.494 168.94 129.045 168.699C128.6 168.457 128.012 168.337 127.283 168.337H124.528V181H122.333ZM134.746 181V166.455H136.941V172.776H144.192V166.455H146.394V181H144.192V174.658H136.941V181H134.746ZM151.404 166.455V181H149.21V166.455H151.404ZM166.301 171.185H164.085C164 170.711 163.842 170.295 163.61 169.935C163.378 169.575 163.093 169.269 162.757 169.018C162.421 168.768 162.045 168.578 161.628 168.45C161.216 168.322 160.778 168.259 160.314 168.259C159.476 168.259 158.726 168.469 158.063 168.891C157.405 169.312 156.884 169.93 156.5 170.744C156.121 171.559 155.932 172.553 155.932 173.727C155.932 174.911 156.121 175.91 156.5 176.724C156.884 177.539 157.407 178.154 158.07 178.571C158.733 178.988 159.478 179.196 160.307 179.196C160.766 179.196 161.202 179.134 161.614 179.011C162.03 178.884 162.407 178.696 162.743 178.45C163.079 178.204 163.363 177.903 163.595 177.548C163.832 177.188 163.995 176.777 164.085 176.312L166.301 176.32C166.183 177.035 165.953 177.693 165.612 178.294C165.276 178.891 164.843 179.407 164.313 179.842C163.787 180.273 163.186 180.607 162.509 180.844C161.832 181.08 161.093 181.199 160.293 181.199C159.033 181.199 157.911 180.901 156.926 180.304C155.941 179.703 155.165 178.843 154.597 177.726C154.033 176.608 153.752 175.276 153.752 173.727C153.752 172.174 154.036 170.841 154.604 169.729C155.172 168.611 155.949 167.754 156.933 167.158C157.918 166.556 159.038 166.256 160.293 166.256C161.065 166.256 161.784 166.367 162.452 166.589C163.124 166.807 163.728 167.129 164.263 167.555C164.798 167.977 165.241 168.493 165.591 169.104C165.941 169.71 166.178 170.403 166.301 171.185ZM178.169 181H173.46V166.455H178.318C179.743 166.455 180.967 166.746 181.99 167.328C183.013 167.906 183.797 168.737 184.341 169.821C184.89 170.901 185.165 172.196 185.165 173.706C185.165 175.221 184.888 176.523 184.334 177.612C183.785 178.701 182.989 179.539 181.948 180.126C180.906 180.709 179.646 181 178.169 181ZM175.655 179.082H178.048C179.156 179.082 180.077 178.874 180.811 178.457C181.545 178.036 182.094 177.428 182.459 176.632C182.824 175.832 183.006 174.857 183.006 173.706C183.006 172.565 182.824 171.597 182.459 170.801C182.099 170.006 181.562 169.402 180.847 168.99C180.132 168.578 179.244 168.372 178.183 168.372H175.655V179.082ZM187.514 181V166.455H196.633V168.344H189.709V172.776H196.157V174.658H189.709V179.111H196.718V181H187.514ZM207.118 170.276C207.042 169.603 206.73 169.082 206.18 168.713C205.631 168.339 204.94 168.152 204.107 168.152C203.51 168.152 202.994 168.247 202.558 168.436C202.123 168.621 201.784 168.876 201.543 169.203C201.306 169.525 201.188 169.892 201.188 170.304C201.188 170.65 201.268 170.948 201.429 171.199C201.595 171.45 201.81 171.661 202.075 171.831C202.345 171.997 202.634 172.136 202.942 172.25C203.25 172.359 203.546 172.449 203.83 172.52L205.25 172.889C205.714 173.003 206.19 173.157 206.678 173.351C207.165 173.545 207.617 173.801 208.034 174.118C208.451 174.435 208.787 174.828 209.043 175.297C209.303 175.766 209.433 176.327 209.433 176.98C209.433 177.804 209.22 178.536 208.794 179.175C208.373 179.814 207.76 180.318 206.955 180.688C206.154 181.057 205.186 181.241 204.05 181.241C202.961 181.241 202.019 181.069 201.223 180.723C200.428 180.377 199.805 179.887 199.355 179.253C198.905 178.614 198.657 177.856 198.609 176.98H200.811C200.854 177.506 201.024 177.944 201.323 178.294C201.626 178.64 202.011 178.898 202.48 179.068C202.954 179.234 203.472 179.317 204.036 179.317C204.656 179.317 205.207 179.22 205.69 179.026C206.178 178.827 206.562 178.552 206.841 178.202C207.12 177.847 207.26 177.432 207.26 176.959C207.26 176.528 207.137 176.175 206.891 175.901C206.649 175.626 206.32 175.399 205.903 175.219C205.492 175.039 205.025 174.88 204.504 174.743L202.786 174.274C201.621 173.957 200.698 173.491 200.016 172.875C199.339 172.259 199 171.445 199 170.432C199 169.594 199.227 168.862 199.682 168.237C200.136 167.612 200.752 167.127 201.528 166.781C202.305 166.431 203.181 166.256 204.156 166.256C205.141 166.256 206.01 166.429 206.763 166.774C207.52 167.12 208.117 167.596 208.553 168.202C208.988 168.803 209.216 169.494 209.234 170.276H207.118ZM213.87 166.455V181H211.676V166.455H213.87ZM226.53 171.05C226.393 170.619 226.208 170.233 225.976 169.892C225.749 169.546 225.477 169.253 225.159 169.011C224.842 168.765 224.48 168.578 224.073 168.45C223.67 168.322 223.228 168.259 222.745 168.259C221.926 168.259 221.187 168.469 220.529 168.891C219.871 169.312 219.35 169.93 218.966 170.744C218.587 171.554 218.398 172.546 218.398 173.72C218.398 174.899 218.59 175.896 218.973 176.71C219.357 177.525 219.882 178.143 220.55 178.564C221.218 178.985 221.978 179.196 222.83 179.196C223.621 179.196 224.31 179.035 224.897 178.713C225.489 178.391 225.945 177.937 226.267 177.349C226.594 176.758 226.757 176.062 226.757 175.261L227.326 175.368H223.164V173.557H228.881V175.212C228.881 176.433 228.621 177.494 228.1 178.393C227.584 179.288 226.869 179.98 225.955 180.467C225.046 180.955 224.004 181.199 222.83 181.199C221.514 181.199 220.358 180.896 219.364 180.29C218.374 179.684 217.603 178.824 217.049 177.712C216.495 176.594 216.218 175.268 216.218 173.734C216.218 172.574 216.379 171.533 216.701 170.609C217.023 169.686 217.475 168.902 218.057 168.259C218.644 167.61 219.333 167.115 220.124 166.774C220.919 166.429 221.788 166.256 222.73 166.256C223.516 166.256 224.248 166.372 224.925 166.604C225.607 166.836 226.213 167.165 226.743 167.591C227.278 168.017 227.721 168.524 228.071 169.111C228.422 169.693 228.659 170.339 228.782 171.05H226.53ZM243.027 166.455V181H241.01L233.616 170.332H233.482V181H231.287V166.455H233.318L240.719 177.136H240.854V166.455H243.027Z" fill="#093200"/>
<circle cx="163.5" cy="152.5" r="151.5" stroke="url(#paint2_linear_955_11437)" stroke-width="2" stroke-dasharray="9 9"/>
<circle cx="238.751" cy="20.298" r="10.6066" fill="url(#paint3_linear_955_11437)"/>
<circle cx="238.753" cy="20.2972" r="10.6066" fill="black" fill-opacity="0.5"/>
<circle cx="87.2511" cy="282.703" r="10.6066" fill="url(#paint4_linear_955_11437)"/>
<circle cx="87.2492" cy="282.702" r="10.6066" fill="black" fill-opacity="0.5"/>
<circle cx="238.749" cy="282.704" r="10.6066" fill="url(#paint5_linear_955_11437)"/>
<circle cx="238.751" cy="282.703" r="10.6066" fill="black" fill-opacity="0.5"/>
<circle cx="87.2492" cy="20.2973" r="10.6066" fill="url(#paint6_linear_955_11437)"/>
<circle cx="87.2492" cy="20.2968" r="10.6066" fill="black" fill-opacity="0.5"/>
<circle cx="11.5011" cy="151.5" r="10.6066" fill="url(#paint7_linear_955_11437)"/>
<circle cx="11.5011" cy="151.501" r="10.6066" fill="black" fill-opacity="0.5"/>
<circle cx="314.499" cy="151.5" r="10.6066" fill="url(#paint8_linear_955_11437)"/>
<circle cx="314.501" cy="151.5" r="10.6066" fill="black" fill-opacity="0.5"/>
<defs>
<filter id="filter0_di_955_11437" x="57" y="49" width="212" height="212" filterUnits="userSpaceOnUse" color-interpolation-filters="sRGB">
<feFlood flood-opacity="0" result="BackgroundImageFix"/>
<feColorMatrix in="SourceAlpha" type="matrix" values="0 0 0 0 0 0 0 0 0 0 0 0 0 0 0 0 0 0 127 0" result="hardAlpha"/>
<feOffset dy="2"/>
<feGaussianBlur stdDeviation="2"/>
<feComposite in2="hardAlpha" operator="out"/>
<feColorMatrix type="matrix" values="0 0 0 0 0 0 0 0 0 0 0 0 0 0 0 0 0 0 0.25 0"/>
<feBlend mode="normal" in2="BackgroundImageFix" result="effect1_dropShadow_955_11437"/>
<feBlend mode="normal" in="SourceGraphic" in2="effect1_dropShadow_955_11437" result="shape"/>
<feColorMatrix in="SourceAlpha" type="matrix" values="0 0 0 0 0 0 0 0 0 0 0 0 0 0 0 0 0 0 127 0" result="hardAlpha"/>
<feOffset dy="4"/>
<feGaussianBlur stdDeviation="2"/>
<feComposite in2="hardAlpha" operator="arithmetic" k2="-1" k3="1"/>
<feColorMatrix type="matrix" values="0 0 0 0 1 0 0 0 0 1 0 0 0 0 1 0 0 0 1 0"/>
<feBlend mode="normal" in2="shape" result="effect2_innerShadow_955_11437"/>
</filter>
<linearGradient id="paint0_linear_955_11437" x1="163" y1="33" x2="163" y2="273" gradientUnits="userSpaceOnUse">
<stop stop-color="white"/>
<stop offset="1" stop-color="#D1D1D1"/>
</linearGradient>
<linearGradient id="paint1_linear_955_11437" x1="163" y1="51" x2="163" y2="255" gradientUnits="userSpaceOnUse">
<stop stop-color="#F6F6F6"/>
<stop offset="1" stop-color="#BFBFBF"/>
</linearGradient>
<linearGradient id="paint2_linear_955_11437" x1="302.676" y1="-4.74216e-06" x2="10.7065" y2="331.877" gradientUnits="userSpaceOnUse">
<stop stop-color="#66BE53"/>
<stop offset="1" stop-color="#2F5826"/>
</linearGradient>
<linearGradient id="paint3_linear_955_11437" x1="247.868" y1="25.9344" x2="232.009" y2="11.3869" gradientUnits="userSpaceOnUse">
<stop stop-color="#14FF87"/>
<stop offset="1" stop-color="#CAFE15"/>
</linearGradient>
<linearGradient id="paint4_linear_955_11437" x1="96.3678" y1="288.339" x2="80.5087" y2="273.792" gradientUnits="userSpaceOnUse">
<stop stop-color="#14FF87"/>
<stop offset="1" stop-color="#CAFE15"/>
</linearGradient>
<linearGradient id="paint5_linear_955_11437" x1="247.866" y1="288.34" x2="232.007" y2="273.792" gradientUnits="userSpaceOnUse">
<stop stop-color="#14FF87"/>
<stop offset="1" stop-color="#CAFE15"/>
</linearGradient>
<linearGradient id="paint6_linear_955_11437" x1="96.3659" y1="25.9336" x2="80.5068" y2="11.3862" gradientUnits="userSpaceOnUse">
<stop stop-color="#14FF87"/>
<stop offset="1" stop-color="#CAFE15"/>
</linearGradient>
<linearGradient id="paint7_linear_955_11437" x1="20.6178" y1="157.136" x2="4.75874" y2="142.589" gradientUnits="userSpaceOnUse">
<stop stop-color="#14FF87"/>
<stop offset="1" stop-color="#CAFE15"/>
</linearGradient>
<linearGradient id="paint8_linear_955_11437" x1="323.616" y1="157.136" x2="307.757" y2="142.589" gradientUnits="userSpaceOnUse">
<stop stop-color="#14FF87"/>
<stop offset="1" stop-color="#CAFE15"/>
</linearGradient>
<clipPath id="clip0_955_11437">
<rect width="60" height="60" fill="white" transform="translate(133 85)"/>
</clipPath>
</defs>
</svg>
