<svg width="100" height="100" viewBox="0 0 100 100" fill="none" xmlns="http://www.w3.org/2000/svg">
<rect width="100" height="100" rx="50" fill="#12171C"/>
<g clip-path="url(#clip0_1699_7304)">
<g clip-path="url(#clip1_1699_7304)">
<path d="M41.2458 38.6C41.4198 38.617 41.5958 38.597 41.7618 38.541C41.9278 38.485 42.0798 38.395 42.2098 38.276C42.3388 38.157 42.4428 38.012 42.5138 37.85C42.5838 37.688 42.6208 37.512 42.6208 37.335C42.6208 37.158 42.5838 36.983 42.5138 36.821C42.4428 36.659 42.3388 36.513 42.2098 36.394C42.0798 36.275 41.9278 36.185 41.7618 36.129C41.5958 36.073 41.4198 36.053 41.2458 36.07C40.9358 36.101 40.6478 36.247 40.4388 36.481C40.2288 36.715 40.1128 37.019 40.1128 37.335C40.1128 37.651 40.2288 37.955 40.4388 38.189C40.6478 38.423 40.9358 38.569 41.2458 38.6Z" fill="#BAEA15"/>
<path d="M63.172 32.852C61.999 31.667 60.41 31.001 58.754 31H41.246C39.59 31 38.001 31.667 36.829 32.854C35.658 34.041 35 35.651 35 37.329V62.671C35 64.349 35.658 65.959 36.829 67.146C38.001 68.333 39.59 69 41.246 69H58.754C60.41 69 61.999 68.333 63.171 67.146C64.342 65.959 65 64.349 65 62.671V37.329C64.999 35.651 64.342 34.041 63.172 32.852ZM38.563 34.646C39.265 33.934 40.217 33.532 41.211 33.529H58.754C59.748 33.533 60.7 33.934 61.402 34.646C62.105 35.358 62.501 36.323 62.504 37.329V58.871H37.496V37.329C37.499 36.322 37.895 35.358 38.598 34.646H38.563ZM61.402 65.354C60.7 66.066 59.748 66.468 58.754 66.471H41.246C40.252 66.468 39.3 66.066 38.598 65.354C37.895 64.642 37.499 63.677 37.496 62.671V61.4H62.504V62.671C62.501 63.677 62.105 64.642 61.402 65.354Z" fill="#BAEA15"/>
<path d="M41.1871 49.501L43.5311 52.66C43.7401 52.883 44.0221 53.021 44.3231 53.05C44.6251 53.078 44.9271 52.995 45.1731 52.815C45.4191 52.636 45.5921 52.372 45.6611 52.072C45.7301 51.773 45.6891 51.459 45.5471 51.188L43.7541 48.813L45.5471 46.438C45.7471 46.168 45.8341 45.829 45.7881 45.495C45.7421 45.161 45.5661 44.859 45.3011 44.656C45.0351 44.453 44.7001 44.365 44.3711 44.412C44.0411 44.459 43.7431 44.636 43.5431 44.906L41.1991 48.076C41.0571 48.285 40.9801 48.533 40.9781 48.787C40.9751 49.041 41.0491 49.29 41.1871 49.501ZM54.6871 52.909C54.8191 53.01 54.9691 53.084 55.1281 53.126C55.2881 53.168 55.4541 53.177 55.6171 53.154C55.7811 53.131 55.9381 53.075 56.0801 52.991C56.2221 52.906 56.3461 52.794 56.4451 52.66L58.7891 49.501C58.9531 49.281 59.0421 49.012 59.0421 48.735C59.0421 48.459 58.9531 48.19 58.7891 47.969L56.4451 44.799C56.2411 44.534 55.9431 44.36 55.6141 44.316C55.2861 44.272 54.9531 44.36 54.6871 44.561C54.4251 44.764 54.2521 45.063 54.2061 45.395C54.1601 45.726 54.2441 46.062 54.4411 46.331L56.2341 48.706L54.4531 51.188C54.2691 51.451 54.1911 51.776 54.2341 52.095C54.2781 52.415 54.4401 52.706 54.6871 52.909ZM48.4651 53.088C48.7711 53.205 49.1111 53.196 49.4111 53.063C49.7111 52.93 49.9471 52.683 50.0701 52.375L52.4141 46.034C52.5311 45.719 52.5191 45.37 52.3811 45.064C52.2441 44.757 51.9921 44.519 51.6821 44.401C51.3711 44.283 51.0261 44.295 50.7241 44.434C50.4221 44.573 50.1871 44.828 50.0701 45.143L47.7261 51.473C47.6191 51.786 47.6361 52.13 47.7741 52.431C47.9121 52.732 48.1591 52.967 48.4651 53.088Z" fill="#BAEA15"/>
</g>
</g>
<rect x="0.5" y="0.5" width="99" height="99" rx="49.5" stroke="#5E5E5E"/>
<defs>
<clipPath id="clip0_1699_7304">
<rect width="30" height="38" fill="white" transform="translate(35 31)"/>
</clipPath>
<clipPath id="clip1_1699_7304">
<rect width="30" height="38" fill="white" transform="translate(35 31)"/>
</clipPath>
</defs>
</svg>
