<svg width="100" height="100" viewBox="0 0 100 100" fill="none" xmlns="http://www.w3.org/2000/svg">
<rect width="100" height="100" rx="50" fill="#12171C"/>
<rect x="0.5" y="0.5" width="99" height="99" rx="49.5" stroke="#5E5E5E"/>
<path d="M41.858 55.4295H40.5008V54.0723C40.5008 53.7124 40.3579 53.3672 40.1033 53.1127C39.8488 52.8581 39.5036 52.7152 39.1437 52.7152C38.7838 52.7152 38.4386 52.8581 38.184 53.1127C37.9295 53.3672 37.7866 53.7124 37.7866 54.0723V55.4295H36.4294C36.0695 55.4295 35.7243 55.5725 35.4698 55.827C35.2153 56.0815 35.0723 56.4267 35.0723 56.7866C35.0723 57.1466 35.2153 57.4918 35.4698 57.7463C35.7243 58.0008 36.0695 58.1438 36.4294 58.1438H37.7866V59.5009C37.7866 59.8609 37.9295 60.2061 38.184 60.4606C38.4386 60.7151 38.7838 60.8581 39.1437 60.8581C39.5036 60.8581 39.8488 60.7151 40.1033 60.4606C40.3579 60.2061 40.5008 59.8609 40.5008 59.5009V58.1438H41.858C42.2179 58.1438 42.5631 58.0008 42.8176 57.7463C43.0721 57.4918 43.2151 57.1466 43.2151 56.7866C43.2151 56.4267 43.0721 56.0815 42.8176 55.827C42.5631 55.5725 42.2179 55.4295 41.858 55.4295Z" fill="url(#paint0_linear_1704_7627)"/>
<path d="M60.8571 55.4295C61.6067 55.4295 62.2143 54.8219 62.2143 54.0723C62.2143 53.3228 61.6067 52.7152 60.8571 52.7152C60.1076 52.7152 59.5 53.3228 59.5 54.0723C59.5 54.8219 60.1076 55.4295 60.8571 55.4295Z" fill="url(#paint1_linear_1704_7627)"/>
<path d="M60.8571 60.8573C61.6067 60.8573 62.2143 60.2497 62.2143 59.5002C62.2143 58.7507 61.6067 58.143 60.8571 58.143C60.1076 58.143 59.5 58.7507 59.5 59.5002C59.5 60.2497 60.1076 60.8573 60.8571 60.8573Z" fill="url(#paint2_linear_1704_7627)"/>
<path d="M63.5735 58.1422C64.323 58.1422 64.9306 57.5346 64.9306 56.785C64.9306 56.0355 64.323 55.4279 63.5735 55.4279C62.8239 55.4279 62.2163 56.0355 62.2163 56.785C62.2163 57.5346 62.8239 58.1422 63.5735 58.1422Z" fill="url(#paint3_linear_1704_7627)"/>
<path d="M58.1408 58.1422C58.8904 58.1422 59.498 57.5346 59.498 56.785C59.498 56.0355 58.8904 55.4279 58.1408 55.4279C57.3913 55.4279 56.7837 56.0355 56.7837 56.785C56.7837 57.5346 57.3913 58.1422 58.1408 58.1422Z" fill="url(#paint4_linear_1704_7627)"/>
<path d="M46.3279 42.8174C46.4537 42.9439 46.6032 43.0442 46.7679 43.1127C46.9325 43.1812 47.1091 43.2164 47.2874 43.2164C47.4658 43.2164 47.6424 43.1812 47.807 43.1127C47.9717 43.0442 48.1212 42.9439 48.2469 42.8174C48.5014 42.5629 48.6443 42.2178 48.6443 41.8579C48.6443 41.498 48.5014 41.1529 48.2469 40.8984L46.4922 39.1436L48.2469 37.3888C48.3766 37.2636 48.48 37.1138 48.5511 36.9482C48.6222 36.7827 48.6597 36.6046 48.6612 36.4244C48.6628 36.2442 48.6284 36.0655 48.5602 35.8987C48.492 35.7319 48.3912 35.5804 48.2638 35.4529C48.1363 35.3255 47.9848 35.2247 47.818 35.1565C47.6512 35.0883 47.4725 35.0539 47.2923 35.0555C47.1121 35.0571 46.934 35.0945 46.7685 35.1656C46.6029 35.2367 46.4531 35.3401 46.3279 35.4698L43.6137 38.1841C43.3592 38.4386 43.2163 38.7837 43.2163 39.1436C43.2163 39.5034 43.3592 39.8486 43.6137 40.1031L46.3279 42.8174ZM51.7565 42.8174C51.8823 42.9439 52.0318 43.0442 52.1964 43.1127C52.3611 43.1812 52.5377 43.2164 52.716 43.2164C52.8944 43.2164 53.0709 43.1812 53.2356 43.1127C53.4003 43.0442 53.5498 42.9439 53.6755 42.8174L56.3898 40.1031C56.6442 39.8486 56.7872 39.5034 56.7872 39.1436C56.7872 38.7837 56.6442 38.4386 56.3898 38.1841L53.6755 35.4698C53.5503 35.3401 53.4006 35.2367 53.235 35.1656C53.0694 35.0945 52.8913 35.0571 52.7111 35.0555C52.5309 35.0539 52.3522 35.0883 52.1854 35.1565C52.0187 35.2247 51.8671 35.3255 51.7397 35.4529C51.6123 35.5804 51.5115 35.7319 51.4433 35.8987C51.375 36.0655 51.3407 36.2442 51.3422 36.4244C51.3438 36.6046 51.3813 36.7827 51.4524 36.9482C51.5235 37.1138 51.6269 37.2636 51.7565 37.3888L53.5113 39.1436L51.7565 40.8984C51.5021 41.1529 51.3592 41.498 51.3592 41.8579C51.3592 42.2178 51.5021 42.5629 51.7565 42.8174Z" fill="url(#paint5_linear_1704_7627)"/>
<path d="M43.2123 47.2859H46.8725L50.6019 49.7722C50.8062 49.9089 51.0438 49.9874 51.2894 49.9994C51.5349 50.0114 51.7791 49.9563 51.9957 49.84C52.2123 49.724 52.3934 49.5514 52.5196 49.3406C52.6458 49.1298 52.7124 48.8887 52.7123 48.643V47.2859H56.7837C59.7775 47.2859 62.2123 44.8511 62.2123 41.8572V36.4286C62.2123 33.4347 59.7775 31 56.7837 31H43.2123C40.2184 31 37.7837 33.4347 37.7837 36.4286V41.8572C37.7837 44.8511 40.2184 47.2859 43.2123 47.2859ZM40.498 36.4286C40.498 34.9317 41.7153 33.7143 43.2123 33.7143H56.7837C58.2806 33.7143 59.498 34.9317 59.498 36.4286V41.8572C59.498 43.3542 58.2806 44.5715 56.7837 44.5715H51.3551C50.9952 44.5715 50.65 44.7145 50.3955 44.969C50.141 45.2236 49.998 45.5688 49.998 45.9287V46.1065L48.0369 44.7995C47.8138 44.6509 47.5518 44.5716 47.2837 44.5715H43.2123C41.7153 44.5715 40.498 43.3542 40.498 41.8572V36.4286Z" fill="url(#paint6_linear_1704_7627)"/>
<path d="M62.2143 48.6424H57.6489C56.7287 48.6424 55.8656 49.0007 55.2155 49.6508L53.7226 51.1437C53.6553 51.2115 53.5752 51.2653 53.4869 51.3019C53.3986 51.3385 53.3039 51.3571 53.2083 51.3567H46.7917C46.6961 51.3571 46.6014 51.3385 46.5131 51.3019C46.4248 51.2653 46.3447 51.2115 46.2774 51.1437L44.7845 49.6508C44.4658 49.3301 44.0866 49.0758 43.6689 48.9027C43.2512 48.7296 42.8033 48.6412 42.3511 48.6424H37.7857C33.7862 48.6424 31 54.3642 31 59.4997C31 64.8265 33.9803 68.9997 37.7857 68.9997C39.1328 69.0014 40.4417 68.5519 41.5036 67.723C42.5655 66.894 43.3192 65.7334 43.6445 64.4261C43.9716 63.1233 45.1374 62.214 46.4809 62.214H53.5191C54.8626 62.214 56.0284 63.1233 56.3555 64.4261C56.681 65.7333 57.4348 66.8938 58.4966 67.7227C59.5585 68.5516 60.8672 69.0012 62.2143 68.9997C66.0197 68.9997 69 64.8265 69 59.4997C69 54.3642 66.2138 48.6424 62.2143 48.6424ZM62.2143 66.2854C61.4723 66.2861 60.7515 66.0383 60.1668 65.5815C59.5821 65.1247 59.1672 64.4853 58.9884 63.7652C58.6836 62.5458 57.9796 61.4634 56.9884 60.6903C55.9973 59.9173 54.776 59.4982 53.5191 59.4997H46.4809C45.2239 59.4985 44.0026 59.9179 43.0114 60.6912C42.0203 61.4644 41.3164 62.547 41.0116 63.7666C40.8327 64.4865 40.4178 65.1258 39.8331 65.5823C39.2483 66.0389 38.5276 66.2864 37.7857 66.2854C35.579 66.2854 33.7143 63.1775 33.7143 59.4997C33.7143 55.1907 35.9916 51.3567 37.7857 51.3567H42.3511C42.5452 51.3567 42.7284 51.4327 42.8655 51.5698L44.3584 53.0627C44.6771 53.3834 45.0563 53.6376 45.474 53.8107C45.8917 53.9838 46.3396 54.0723 46.7917 54.071H53.2083C54.1284 54.071 54.9916 53.7128 55.6416 53.0627L57.1345 51.5698C57.2018 51.502 57.282 51.4482 57.3703 51.4116C57.4586 51.375 57.5533 51.3564 57.6489 51.3567H62.2143C64.0084 51.3567 66.2857 55.1907 66.2857 59.4997C66.2857 63.1775 64.421 66.2854 62.2143 66.2854Z" fill="url(#paint7_linear_1704_7627)"/>
<defs>
<linearGradient id="paint0_linear_1704_7627" x1="43.2268" y1="58.0033" x2="35.0508" y2="57.9699" gradientUnits="userSpaceOnUse">
<stop stop-color="#C7FB15"/>
<stop offset="1" stop-color="#CCFF14"/>
</linearGradient>
<linearGradient id="paint1_linear_1704_7627" x1="62.2182" y1="54.4779" x2="59.4928" y2="54.4667" gradientUnits="userSpaceOnUse">
<stop stop-color="#C7FB15"/>
<stop offset="1" stop-color="#CCFF14"/>
</linearGradient>
<linearGradient id="paint2_linear_1704_7627" x1="62.2182" y1="59.9058" x2="59.4928" y2="59.8946" gradientUnits="userSpaceOnUse">
<stop stop-color="#C7FB15"/>
<stop offset="1" stop-color="#CCFF14"/>
</linearGradient>
<linearGradient id="paint3_linear_1704_7627" x1="64.9345" y1="57.1906" x2="62.2091" y2="57.1794" gradientUnits="userSpaceOnUse">
<stop stop-color="#C7FB15"/>
<stop offset="1" stop-color="#CCFF14"/>
</linearGradient>
<linearGradient id="paint4_linear_1704_7627" x1="59.5019" y1="57.1906" x2="56.7765" y2="57.1794" gradientUnits="userSpaceOnUse">
<stop stop-color="#C7FB15"/>
<stop offset="1" stop-color="#CCFF14"/>
</linearGradient>
<linearGradient id="paint5_linear_1704_7627" x1="56.8066" y1="40.3553" x2="43.1809" y2="40.2626" gradientUnits="userSpaceOnUse">
<stop stop-color="#C7FB15"/>
<stop offset="1" stop-color="#CCFF14"/>
</linearGradient>
<linearGradient id="paint6_linear_1704_7627" x1="62.2473" y1="43.3396" x2="37.7194" y2="43.2105" gradientUnits="userSpaceOnUse">
<stop stop-color="#C7FB15"/>
<stop offset="1" stop-color="#CCFF14"/>
</linearGradient>
<linearGradient id="paint7_linear_1704_7627" x1="69.0545" y1="61.8628" x2="30.9012" y2="61.5714" gradientUnits="userSpaceOnUse">
<stop stop-color="#C7FB15"/>
<stop offset="1" stop-color="#CCFF14"/>
</linearGradient>
</defs>
</svg>
