<svg width="524" height="509" viewBox="0 0 524 509" fill="none" xmlns="http://www.w3.org/2000/svg">
<mask id="mask0_2030_7271" style="mask-type:alpha" maskUnits="userSpaceOnUse" x="0" y="9" width="520" height="500">
<path d="M488 508H32.032C14.8991 508 1.01489 494.102 1.03204 476.969L1.46802 40.969C1.48517 23.8603 15.3593 10 32.468 10H382.093C390.589 10 398.712 13.4865 404.564 19.6447L423.39 39.4537C429.62 46.0092 438.267 49.7207 447.311 49.7207H488C505.121 49.7207 519 63.5998 519 80.7207V477C519 494.121 505.121 508 488 508Z" fill="url(#paint0_linear_2030_7271)" stroke="url(#paint1_linear_2030_7271)" stroke-width="2"/>
</mask>
<g mask="url(#mask0_2030_7271)">
<path d="M488 508H32.032C14.8991 508 1.01489 494.102 1.03204 476.969L1.46802 40.969C1.48517 23.8603 15.3593 10 32.468 10H382.093C390.589 10 398.712 13.4865 404.564 19.6447L423.39 39.4537C429.62 46.0092 438.267 49.7207 447.311 49.7207H488C505.121 49.7207 519 63.5998 519 80.7207V477C519 494.121 505.121 508 488 508Z" fill="url(#paint2_linear_2030_7271)" stroke="url(#paint3_linear_2030_7271)" stroke-width="2"/>
</g>
<path d="M520.91 49V80.72C520.91 80.72 519.9 80.7 519.9 80.69C519.9 78.96 519.76 77.26 519.49 75.6C519.24 74.09 518.9 72.6 518.45 71.17C518.02 69.82 517.51 68.51 516.91 67.24C516.35 66.03 515.71 64.85 515 63.73C514.3 62.63 513.55 61.57 512.73 60.57C511.93 59.58 511.06 58.64 510.15 57.75C509.23 56.87 508.27 56.03 507.25 55.26C506.23 54.48 505.15 53.76 504.03 53.1C502.89 52.43 501.7 51.83 500.48 51.3C499.2 50.76 497.88 50.29 496.53 49.91C495.09 49.51 493.62 49.21 492.12 49.01C490.74 48.83 489.33 48.72 487.91 48.72H447.22C446.48 48.72 445.74 48.69 445.01 48.64C443.44 48.53 441.89 48.3 440.37 47.97C438.97 47.66 437.59 47.26 436.24 46.77C434.97 46.3 433.73 45.75 432.53 45.13C431.37 44.53 430.24 43.87 429.16 43.13C428.11 42.41 427.1 41.63 426.13 40.78C425.4 40.14 424.69 39.47 424.02 38.76L423.4 38.12L420.77 35.35L418.13 32.58L415.5 29.81L412.87 27.04L407.61 21.5L405.2 18.96C405.12 18.89 405.04 18.81 404.97 18.74C404.08 17.82 403.14 16.96 402.15 16.16C401.15 15.35 400.1 14.6 399.02 13.92C397.9 13.22 396.73 12.59 395.54 12.04C394.29 11.45 393.01 10.95 391.7 10.53C390.31 10.08 388.88 9.74 387.43 9.48C385.84 9.21 384.22 9.05 382.59 9.02C382.39 9.02 382.2 6 382 6H479.91C502 6 520.91 26.91 520.91 49Z" fill="#121212"/>
<defs>
<linearGradient id="paint0_linear_2030_7271" x1="520" y1="548.548" x2="-71.9387" y2="122.021" gradientUnits="userSpaceOnUse">
<stop stop-color="#1A2613"/>
<stop offset="0.489"/>
<stop offset="1" stop-color="#001D2B"/>
</linearGradient>
<linearGradient id="paint1_linear_2030_7271" x1="36.5226" y1="126.149" x2="411.302" y2="483.685" gradientUnits="userSpaceOnUse">
<stop stop-color="#14FF87" stop-opacity="0.76"/>
<stop offset="1" stop-color="#CAFE15"/>
</linearGradient>
<linearGradient id="paint2_linear_2030_7271" x1="520" y1="548.548" x2="-71.9387" y2="122.021" gradientUnits="userSpaceOnUse">
<stop stop-color="#1A2613"/>
<stop offset="0.489"/>
<stop offset="1" stop-color="#001D2B"/>
</linearGradient>
<linearGradient id="paint3_linear_2030_7271" x1="36.5226" y1="126.149" x2="411.302" y2="483.685" gradientUnits="userSpaceOnUse">
<stop stop-color="#14FF87" stop-opacity="0.76"/>
<stop offset="1" stop-color="#CAFE15"/>
</linearGradient>
</defs>
</svg>
