<svg width="180" height="180" viewBox="0 0 180 180" fill="none" xmlns="http://www.w3.org/2000/svg">
<g clip-path="url(#clip0_911_10530)">
<path d="M101.654 70.9693C102.045 70.3181 102.89 70.107 103.541 70.4977L102.833 71.6767C103.541 70.4977 103.54 70.4973 103.541 70.4977L103.543 70.4992L103.546 70.5009L103.553 70.5051L103.571 70.5159C103.584 70.5243 103.601 70.535 103.621 70.5481C103.662 70.5742 103.715 70.6097 103.779 70.6548C103.908 70.7451 104.082 70.8743 104.287 71.0444C104.694 71.3837 105.226 71.8906 105.757 72.58C106.825 73.9692 107.875 76.0902 107.875 79.0101C107.875 81.9299 106.825 84.0509 105.757 85.4401C105.226 86.1295 104.694 86.6363 104.287 86.9757C104.082 87.1458 103.908 87.2751 103.779 87.3653C103.715 87.4104 103.662 87.4459 103.621 87.472C103.611 87.4786 103.602 87.4844 103.594 87.4898C103.585 87.4953 103.577 87.5 103.571 87.5042L103.553 87.5151L103.546 87.5191L103.543 87.5209C103.543 87.5213 103.541 87.5224 102.833 86.3434L103.541 87.5224C102.89 87.9131 102.045 87.7021 101.654 87.0509C101.265 86.4024 101.473 85.5622 102.118 85.1693L102.128 85.1628C102.141 85.1542 102.167 85.1374 102.202 85.1124C102.274 85.0623 102.386 84.9795 102.526 84.8631C102.806 84.6295 103.191 84.2656 103.577 83.7634C104.342 82.7692 105.125 81.2235 105.125 79.0101C105.125 76.7966 104.342 75.2509 103.577 74.2567C103.191 73.7545 102.806 73.3906 102.526 73.157C102.386 73.0406 102.274 72.9578 102.202 72.9077C102.167 72.8827 102.141 72.8659 102.128 72.8573L102.118 72.8508C101.473 72.458 101.265 71.6177 101.654 70.9693Z" fill="#DCFC36"/>
<path d="M86.3333 86.3433C90.3833 86.3433 93.6667 83.0601 93.6667 79.01C93.6667 74.9599 90.3833 71.6766 86.3333 71.6766C82.2832 71.6766 79 74.9599 79 79.01C79 83.0601 82.2832 86.3433 86.3333 86.3433Z" fill="#DCFC36"/>
<path d="M71.6667 100.093C71.6667 104.65 71.6667 108.343 86.3334 108.343C101 108.343 101 104.65 101 100.093C101 95.537 94.4336 91.8434 86.3334 91.8434C78.2332 91.8434 71.6667 95.537 71.6667 100.093Z" fill="#DCFC36"/>
<path d="M99.8742 74.1643C99.223 73.7736 98.3784 73.9847 97.9877 74.6359L98.4427 76.5123L98.457 76.5221C98.4785 76.5371 98.5192 76.5668 98.5729 76.6116C98.6814 76.702 98.8363 76.8482 98.9934 77.0525C99.3 77.4508 99.625 78.0799 99.625 79.01C99.625 79.9401 99.3 80.5692 98.9934 80.9675C98.8363 81.1718 98.6814 81.318 98.5729 81.4084C98.5192 81.4532 98.4785 81.4829 98.457 81.498L98.4427 81.5077C97.8045 81.9027 97.6003 82.7385 97.9877 83.3841C98.3784 84.0353 99.223 84.2464 99.8742 83.8557L99.1667 82.6767C99.8742 83.8557 99.8734 83.8561 99.8742 83.8557L99.8766 83.8542L99.8793 83.8527L99.885 83.8491L99.8987 83.8407L99.9339 83.8183C99.9609 83.8009 99.9944 83.7785 100.034 83.7508C100.113 83.6957 100.215 83.6194 100.333 83.521C100.569 83.3249 100.872 83.0357 101.173 82.6442C101.783 81.8508 102.375 80.6465 102.375 79.01C102.375 77.3735 101.783 76.1692 101.173 75.3758C100.872 74.9843 100.569 74.6951 100.333 74.499C100.215 74.4006 100.113 74.3243 100.034 74.2692C99.9944 74.2416 99.9609 74.2191 99.9339 74.2017L99.8987 74.1793L99.885 74.1709L99.8793 74.1674L99.8766 74.1658C99.876 74.1654 99.8742 74.1643 99.1667 75.3433L99.8742 74.1643Z" fill="#DCFC36"/>
<g clip-path="url(#clip1_911_10530)">
<g clip-path="url(#clip2_911_10530)">
<g clip-path="url(#clip3_911_10530)">
<path d="M180 90.01C180 40.3044 139.706 0.0100098 90 0.0100098C40.2944 0.0100098 0 40.3044 0 90.01C0 139.716 40.2944 180.01 90 180.01C139.706 180.01 180 139.716 180 90.01Z" fill="url(#paint0_linear_911_10530)" fill-opacity="0.1"/>
<path d="M179.286 90.01C179.286 40.6988 139.311 0.724243 90.0001 0.724243C40.6889 0.724243 0.714355 40.6988 0.714355 90.01C0.714355 139.321 40.6889 179.296 90.0001 179.296C139.311 179.296 179.286 139.321 179.286 90.01Z" stroke="url(#paint1_linear_911_10530)" stroke-opacity="0.05" stroke-width="1.42857"/>
<path d="M168.571 90.01C168.571 46.6162 133.394 11.4386 89.9999 11.4386C46.6061 11.4386 11.4285 46.6162 11.4285 90.01C11.4285 133.404 46.6061 168.581 89.9999 168.581C133.394 168.581 168.571 133.404 168.571 90.01Z" fill="url(#paint2_linear_911_10530)" fill-opacity="0.15"/>
<path d="M167.857 90.01C167.857 47.0107 132.999 12.1528 90 12.1528C47.0006 12.1528 12.1428 47.0107 12.1428 90.01C12.1428 133.009 47.0006 167.867 90 167.867C132.999 167.867 167.857 133.009 167.857 90.01Z" stroke="url(#paint3_linear_911_10530)" stroke-opacity="0.15" stroke-width="1.42857"/>
<path d="M157.143 90.01C157.143 52.9281 127.082 22.8672 90 22.8672C52.9181 22.8672 22.8572 52.9281 22.8572 90.01C22.8572 127.092 52.9181 157.153 90 157.153C127.082 157.153 157.143 127.092 157.143 90.01Z" fill="url(#paint4_linear_911_10530)" fill-opacity="0.2"/>
<path d="M156.429 90.01C156.429 53.3225 126.688 23.5814 90.0001 23.5814C53.3126 23.5814 23.5715 53.3225 23.5715 90.01C23.5715 126.697 53.3126 156.439 90.0001 156.439C126.688 156.439 156.429 126.697 156.429 90.01Z" stroke="url(#paint5_linear_911_10530)" stroke-opacity="0.2" stroke-width="1.42857"/>
<g filter="url(#filter0_i_911_10530)">
<path d="M142.857 90.01C142.857 60.8178 119.192 37.1528 90 37.1528C60.8078 37.1528 37.1428 60.8178 37.1428 90.01C37.1428 119.202 60.8078 142.867 90 142.867C119.192 142.867 142.857 119.202 142.857 90.01Z" fill="url(#paint6_linear_911_10530)" fill-opacity="0.2"/>
<path d="M142.143 90.0099C142.143 61.2122 118.798 37.8671 90 37.8671C61.2023 37.8671 37.8572 61.2122 37.8572 90.0099C37.8572 118.808 61.2023 142.153 90 142.153C118.798 142.153 142.143 118.808 142.143 90.0099Z" stroke="url(#paint7_linear_911_10530)" stroke-opacity="0.2" stroke-width="1.42857"/>
</g>
</g>
</g>
</g>
</g>
<defs>
<filter id="filter0_i_911_10530" x="37.1428" y="37.1528" width="105.714" height="111.429" filterUnits="userSpaceOnUse" color-interpolation-filters="sRGB">
<feFlood flood-opacity="0" result="BackgroundImageFix"/>
<feBlend mode="normal" in="SourceGraphic" in2="BackgroundImageFix" result="shape"/>
<feColorMatrix in="SourceAlpha" type="matrix" values="0 0 0 0 0 0 0 0 0 0 0 0 0 0 0 0 0 0 127 0" result="hardAlpha"/>
<feOffset dy="5.71429"/>
<feGaussianBlur stdDeviation="2.85714"/>
<feComposite in2="hardAlpha" operator="arithmetic" k2="-1" k3="1"/>
<feColorMatrix type="matrix" values="0 0 0 0 0.862745 0 0 0 0 0.988235 0 0 0 0 0.211765 0 0 0 0.2 0"/>
<feBlend mode="normal" in2="shape" result="effect1_innerShadow_911_10530"/>
</filter>
<linearGradient id="paint0_linear_911_10530" x1="90" y1="-48.2628" x2="90" y2="226.646" gradientUnits="userSpaceOnUse">
<stop stop-color="#DCFC36"/>
<stop offset="0.793" stop-color="#DCFC36" stop-opacity="0"/>
</linearGradient>
<linearGradient id="paint1_linear_911_10530" x1="90.0001" y1="0.0099574" x2="90.0001" y2="180.01" gradientUnits="userSpaceOnUse">
<stop stop-color="#F6FECD"/>
<stop offset="1" stop-color="#F6FECD" stop-opacity="0"/>
</linearGradient>
<linearGradient id="paint2_linear_911_10530" x1="89.9999" y1="-30.7043" x2="89.9999" y2="209.296" gradientUnits="userSpaceOnUse">
<stop stop-color="#DCFC36"/>
<stop offset="0.793" stop-color="#DCFC36" stop-opacity="0"/>
</linearGradient>
<linearGradient id="paint3_linear_911_10530" x1="90" y1="11.4385" x2="90" y2="168.581" gradientUnits="userSpaceOnUse">
<stop stop-color="#F6FECD"/>
<stop offset="1" stop-color="#F6FECD" stop-opacity="0"/>
</linearGradient>
<linearGradient id="paint4_linear_911_10530" x1="90" y1="-13.1457" x2="90" y2="191.946" gradientUnits="userSpaceOnUse">
<stop stop-color="#DCFC36"/>
<stop offset="0.793" stop-color="#DCFC36" stop-opacity="0"/>
</linearGradient>
<linearGradient id="paint5_linear_911_10530" x1="90.0001" y1="22.8671" x2="90.0001" y2="157.153" gradientUnits="userSpaceOnUse">
<stop stop-color="#F6FECD"/>
<stop offset="1" stop-color="#F6FECD" stop-opacity="0"/>
</linearGradient>
<linearGradient id="paint6_linear_911_10530" x1="90" y1="-20.66" x2="90" y2="170.257" gradientUnits="userSpaceOnUse">
<stop stop-color="#DCFC36"/>
<stop offset="0.87" stop-color="#DCFC36" stop-opacity="0"/>
</linearGradient>
<linearGradient id="paint7_linear_911_10530" x1="90" y1="37.1528" x2="90" y2="142.867" gradientUnits="userSpaceOnUse">
<stop stop-color="#F6FECD"/>
<stop offset="1" stop-color="#F6FECD" stop-opacity="0"/>
</linearGradient>
<clipPath id="clip0_911_10530">
<rect width="180" height="180" fill="white" transform="translate(0 0.0100098)"/>
</clipPath>
<clipPath id="clip1_911_10530">
<rect width="180" height="180" fill="white" transform="translate(0 0.0100098)"/>
</clipPath>
<clipPath id="clip2_911_10530">
<rect width="180" height="180" fill="white" transform="translate(0 0.0100098)"/>
</clipPath>
<clipPath id="clip3_911_10530">
<rect width="180" height="180" fill="white" transform="translate(0 0.0100098)"/>
</clipPath>
</defs>
</svg>
