<svg width="472" height="96" viewBox="0 0 472 96" fill="none" xmlns="http://www.w3.org/2000/svg">
<path d="M0 16C0 7.16345 7.16344 0 16 0H456C464.837 0 472 7.16344 472 16V80C472 88.8366 464.837 96 456 96H16C7.16344 96 0 88.8366 0 80V16Z" fill="url(#paint0_linear_999_6483)"/>
<circle cx="48" cy="48" r="35" fill="url(#paint1_linear_999_6483)" stroke="url(#paint2_linear_999_6483)" stroke-width="2"/>
<path d="M103.963 57H100.588L106.733 39.5455H110.636L116.79 57H113.415L108.753 43.125H108.616L103.963 57ZM104.074 50.1562H113.278V52.696H104.074V50.1562ZM123.791 62.1818C122.683 62.1818 121.732 62.0313 120.936 61.7301C120.141 61.4347 119.501 61.0369 119.018 60.5369C118.535 60.0369 118.2 59.483 118.013 58.875L120.791 58.2017C120.916 58.4574 121.098 58.7102 121.337 58.9602C121.575 59.2159 121.896 59.4261 122.3 59.5909C122.709 59.7614 123.223 59.8466 123.842 59.8466C124.717 59.8466 125.442 59.6335 126.016 59.2074C126.589 58.7869 126.876 58.0938 126.876 57.1278V54.6477H126.723C126.564 54.9659 126.331 55.2926 126.024 55.6278C125.723 55.9631 125.322 56.2443 124.822 56.4716C124.328 56.6989 123.706 56.8125 122.956 56.8125C121.95 56.8125 121.038 56.5767 120.22 56.1051C119.408 55.6278 118.76 54.9176 118.277 53.9744C117.8 53.0256 117.561 51.8381 117.561 50.4119C117.561 48.9744 117.8 47.7614 118.277 46.7727C118.76 45.7784 119.41 45.0256 120.229 44.5142C121.047 43.9972 121.959 43.7386 122.964 43.7386C123.732 43.7386 124.362 43.8693 124.857 44.1307C125.357 44.3864 125.754 44.696 126.05 45.0597C126.345 45.4176 126.57 45.7557 126.723 46.0739H126.893V43.9091H129.936V57.2131C129.936 58.3324 129.669 59.2585 129.135 59.9915C128.601 60.7244 127.871 61.2727 126.945 61.6364C126.018 62 124.967 62.1818 123.791 62.1818ZM123.817 54.392C124.47 54.392 125.027 54.233 125.487 53.9148C125.947 53.5966 126.297 53.1392 126.535 52.5426C126.774 51.946 126.893 51.2301 126.893 50.3949C126.893 49.571 126.774 48.8494 126.535 48.2301C126.303 47.6108 125.956 47.1307 125.496 46.7898C125.041 46.4432 124.482 46.2699 123.817 46.2699C123.129 46.2699 122.555 46.4489 122.095 46.8068C121.635 47.1648 121.288 47.6562 121.055 48.2812C120.822 48.9006 120.706 49.6051 120.706 50.3949C120.706 51.196 120.822 51.8977 121.055 52.5C121.294 53.0966 121.643 53.5625 122.104 53.8977C122.57 54.2273 123.141 54.392 123.817 54.392ZM132.642 57V43.9091H135.727V57H132.642ZM134.193 42.0511C133.704 42.0511 133.284 41.8892 132.932 41.5653C132.579 41.2358 132.403 40.8409 132.403 40.3807C132.403 39.9148 132.579 39.5199 132.932 39.196C133.284 38.8665 133.704 38.7017 134.193 38.7017C134.687 38.7017 135.108 38.8665 135.454 39.196C135.807 39.5199 135.983 39.9148 135.983 40.3807C135.983 40.8409 135.807 41.2358 135.454 41.5653C135.108 41.8892 134.687 42.0511 134.193 42.0511ZM141.529 39.5455V57H138.444V39.5455H141.529ZM150.041 57.2557C148.729 57.2557 147.595 56.983 146.64 56.4375C145.692 55.8864 144.962 55.108 144.45 54.1023C143.939 53.0909 143.683 51.9006 143.683 50.5312C143.683 49.1847 143.939 48.0028 144.45 46.9858C144.967 45.9631 145.689 45.1676 146.615 44.5994C147.541 44.0256 148.629 43.7386 149.879 43.7386C150.686 43.7386 151.447 43.8693 152.163 44.1307C152.885 44.3864 153.521 44.7841 154.072 45.3239C154.629 45.8636 155.067 46.5511 155.385 47.3864C155.703 48.2159 155.862 49.2045 155.862 50.3523V51.2983H145.132V49.2188H152.905C152.899 48.6278 152.771 48.1023 152.521 47.642C152.271 47.1761 151.922 46.8097 151.473 46.5426C151.03 46.2756 150.513 46.142 149.922 46.142C149.291 46.142 148.737 46.2955 148.26 46.6023C147.783 46.9034 147.41 47.3011 147.143 47.7955C146.882 48.2841 146.748 48.821 146.743 49.4062V51.2216C146.743 51.983 146.882 52.6364 147.16 53.1818C147.439 53.7216 147.828 54.1364 148.328 54.4261C148.828 54.7102 149.413 54.8523 150.084 54.8523C150.533 54.8523 150.939 54.7898 151.302 54.6648C151.666 54.5341 151.981 54.3438 152.248 54.0938C152.515 53.8438 152.717 53.5341 152.854 53.1648L155.734 53.4886C155.552 54.25 155.206 54.9148 154.694 55.483C154.189 56.0455 153.541 56.483 152.751 56.7955C151.962 57.1023 151.058 57.2557 150.041 57.2557Z" fill="white"/>
<path d="M33.4322 59.3449C33.8945 59.798 34.6365 59.7903 35.0894 59.3281C35.5424 58.8658 35.5348 58.1239 35.0726 57.6709C32.0232 54.6826 30.3438 50.8181 30.3438 46.789C30.3438 38.3887 37.2481 31.5545 45.7345 31.5545C46.3817 31.5545 46.9064 31.0298 46.9064 30.3826C46.9064 29.7354 46.3817 29.2107 45.7345 29.2107C41.0325 29.2107 36.5923 31.0372 33.2322 34.3539C29.8581 37.6841 28 42.1003 28 46.789C28 49.1739 28.5059 51.5103 29.5035 53.7331C30.44 55.82 31.7619 57.7081 33.4322 59.3449ZM67.6569 62.3666L65.3133 60.0229C64.8557 59.5653 64.1137 59.5653 63.6561 60.0229C63.1984 60.4806 63.1984 61.2226 63.6561 61.6802L63.9993 62.0235H58.9785C58.3313 62.0235 57.8066 62.5482 57.8066 63.1954C57.8066 63.8426 58.3313 64.3673 58.9785 64.3673H64.0636L63.6425 64.8024C63.1925 65.2675 63.2046 66.0093 63.6697 66.4594C64.1359 66.9105 64.8778 66.8963 65.3268 66.4322L67.6706 64.0103C68.1048 63.5624 68.1192 62.8282 67.6569 62.3666Z" fill="white"/>
<path d="M63.3128 46.7892C63.3128 43.2341 62.2567 39.8091 60.2584 36.8844C58.8487 34.821 57.039 33.0996 54.9403 31.8097L55.413 31.6831C56.0382 31.5156 56.4091 30.873 56.2416 30.2478C56.074 29.6226 55.4317 29.2515 54.8063 29.4192L51.6047 30.2771C50.9795 30.4446 50.6086 31.0872 50.7761 31.7124L51.6339 34.9139C51.7742 35.4375 52.2477 35.7829 52.7651 35.7829C53.5356 35.7829 54.0971 35.0513 53.8978 34.3074L53.7729 33.8411C58.2119 36.5879 60.9691 41.4382 60.9691 46.7892C60.9691 55.1895 54.1349 62.0237 45.7345 62.0237H29.1719C28.5247 62.0237 28 62.5484 28 63.1956C28 63.8428 28.5247 64.3675 29.1719 64.3675H45.7345C50.4299 64.3675 54.8442 62.5391 58.1643 59.219C61.4844 55.8988 63.3128 51.4846 63.3128 46.7892Z" fill="white"/>
<path d="M35.1875 46.7889C35.1875 52.6045 39.9189 57.3359 45.7345 57.3359C51.5501 57.3359 56.2815 52.6045 56.2815 46.7889C56.2815 40.9733 51.5501 36.2419 45.7345 36.2419C39.9189 36.2419 35.1875 40.9733 35.1875 46.7889ZM53.9377 46.7889C53.9377 51.3122 50.2577 54.9921 45.7345 54.9921C41.2112 54.9921 37.5313 51.3122 37.5313 46.7889C37.5313 42.2657 41.2112 38.5857 45.7345 38.5857C50.2577 38.5857 53.9377 42.2657 53.9377 46.7889Z" fill="white"/>
<path d="M43.0984 47.0821C42.613 46.5967 41.826 46.5967 41.3406 47.0821C40.8552 47.5675 40.8552 48.3545 41.3406 48.8399L43.6844 51.1837C43.927 51.4264 44.2452 51.5478 44.5633 51.5478C44.8813 51.5478 45.1996 51.4264 45.4422 51.1837L50.1298 46.4961C50.6152 46.0107 50.6152 45.2237 50.1298 44.7383C49.6444 44.2529 48.8573 44.2529 48.3719 44.7383L44.5633 48.5469L43.0984 47.0821Z" fill="white"/>
<defs>
<linearGradient id="paint0_linear_999_6483" x1="488.235" y1="5.70002" x2="226.614" y2="298.49" gradientUnits="userSpaceOnUse">
<stop stop-color="#B0D8A7" stop-opacity="0"/>
<stop offset="1" stop-color="#66BE53"/>
</linearGradient>
<linearGradient id="paint1_linear_999_6483" x1="12" y1="6.30507" x2="96.1299" y2="64.5941" gradientUnits="userSpaceOnUse">
<stop stop-color="#1A2613"/>
<stop offset="0.489"/>
<stop offset="1" stop-color="#001D2B"/>
</linearGradient>
<linearGradient id="paint2_linear_999_6483" x1="84" y1="82.2439" x2="20.0367" y2="6.43866" gradientUnits="userSpaceOnUse">
<stop stop-color="#14FF87"/>
<stop offset="1" stop-color="#CAFE15"/>
</linearGradient>
</defs>
</svg>
