<svg width="472" height="96" viewBox="0 0 472 96" fill="none" xmlns="http://www.w3.org/2000/svg">
<path d="M0 16C0 7.16345 7.16344 0 16 0H456C464.837 0 472 7.16344 472 16V80C472 88.8366 464.837 96 456 96H16C7.16344 96 0 88.8366 0 80V16Z" fill="url(#paint0_linear_1678_7046)"/>
<circle cx="48" cy="48" r="35" fill="url(#paint1_linear_1678_7046)" stroke="url(#paint2_linear_1678_7046)" stroke-width="2"/>
<path d="M59.1204 50.1332C59.3459 50.042 59.5422 49.8909 59.6882 49.6964C59.8342 49.5019 59.9244 49.2712 59.9491 49.0292C60.0119 48.3418 60.0119 47.65 59.9491 46.9626C59.9226 46.7217 59.8313 46.4925 59.6847 46.2994C59.5382 46.1064 59.342 45.9568 59.1171 45.8666L58.1171 45.4666C57.8683 44.4694 57.4722 43.5149 56.9417 42.6346L57.3624 41.6479C57.4621 41.4228 57.4962 41.1741 57.4608 40.9305C57.4254 40.6868 57.322 40.4581 57.1624 40.2706C56.7268 39.7496 56.2473 39.2669 55.7291 38.828C55.5417 38.6686 55.3133 38.5653 55.0699 38.53C54.8265 38.4946 54.5781 38.5286 54.3531 38.628L53.3651 39.05C52.4833 38.5199 51.5275 38.124 50.5291 37.8753L50.1291 36.8753C50.0385 36.6494 49.8877 36.4527 49.6933 36.3064C49.4988 36.1601 49.2679 36.0698 49.0258 36.0453C48.3403 35.9839 47.6507 35.9839 46.9651 36.0453C46.7228 36.0707 46.492 36.1618 46.2977 36.3088C46.1033 36.4557 45.9529 36.653 45.8625 36.8793L45.4625 37.8753C44.4654 38.1244 43.511 38.5205 42.6305 39.0506L41.6438 38.63C41.4187 38.5304 41.17 38.4963 40.9264 38.5317C40.6828 38.5671 40.454 38.6704 40.2665 38.83C39.7451 39.2683 39.2624 39.7507 38.8239 40.2719C38.6644 40.4592 38.561 40.6877 38.5256 40.9311C38.4903 41.1745 38.5243 41.423 38.6239 41.6479L39.0459 42.6366C38.5162 43.5165 38.1203 44.4702 37.8712 45.4666L36.8712 45.8666C36.6453 45.9572 36.4486 46.108 36.3023 46.3024C36.156 46.4969 36.0657 46.7278 36.0412 46.9699C35.9785 47.6554 35.9785 48.3451 36.0412 49.0306C36.0666 49.2729 36.1577 49.5037 36.3047 49.698C36.4516 49.8924 36.6489 50.0428 36.8752 50.1332L37.8712 50.5332C38.1203 51.5303 38.5164 52.4848 39.0465 53.3652L38.6259 54.3519C38.526 54.577 38.4918 54.8257 38.5272 55.0694C38.5626 55.3131 38.6661 55.5418 38.8259 55.7292C39.2642 56.2508 39.7469 56.7335 40.2685 57.1718C40.4559 57.3312 40.6844 57.4344 40.9277 57.4698C41.1711 57.5052 41.4195 57.4712 41.6445 57.3718L42.6332 56.9498C43.5128 57.4795 44.4664 57.8754 45.4625 58.1245L45.8625 59.1245C45.9532 59.3505 46.104 59.5473 46.2986 59.6936C46.4932 59.8399 46.7242 59.9301 46.9665 59.9545C47.2498 59.9792 47.6191 60.0018 48.0331 60.0018C48.3465 60.0018 48.6845 59.9885 49.0291 59.9545C49.271 59.9287 49.5012 59.8373 49.6951 59.6904C49.8889 59.5434 50.039 59.3464 50.1291 59.1205L50.5291 58.1245C51.5264 57.8755 52.4811 57.4794 53.3618 56.9492L54.3478 57.3698C54.5728 57.4699 54.8216 57.5042 55.0653 57.4688C55.3091 57.4334 55.5378 57.3298 55.7251 57.1698C56.2471 56.7312 56.7302 56.2483 57.1691 55.7265C57.3282 55.5392 57.4314 55.3108 57.4667 55.0676C57.5021 54.8244 57.4683 54.5761 57.3691 54.3512L56.9471 53.3625C57.4766 52.483 57.872 51.5294 58.1204 50.5332L59.1204 50.1332ZM56.8971 49.9039C56.6669 50.986 56.2396 52.0165 55.6364 52.9439C55.5769 53.0356 55.5408 53.1405 55.5314 53.2495C55.522 53.3584 55.5395 53.468 55.5824 53.5685L56.1484 54.8705C55.7608 55.3309 55.3341 55.7569 54.8731 56.1438L53.5651 55.5859C53.4645 55.5429 53.355 55.5254 53.246 55.5348C53.1371 55.5443 53.0321 55.5803 52.9404 55.6399C52.0127 56.243 50.982 56.6705 49.8998 56.9012C49.7929 56.9241 49.6933 56.9729 49.6097 57.0433C49.5261 57.1138 49.4611 57.2037 49.4205 57.3052L48.9005 58.6245C48.3017 58.6797 47.6992 58.6797 47.1005 58.6245L46.5731 57.3052C46.5325 57.2037 46.4675 57.1138 46.3839 57.0433C46.3003 56.9729 46.2007 56.9241 46.0938 56.9012C45.0117 56.6702 43.981 56.2427 43.0532 55.6399C42.9615 55.5803 42.8565 55.5443 42.7476 55.5348C42.6386 55.5254 42.5291 55.5429 42.4285 55.5859L41.1265 56.1512C40.6659 55.764 40.2399 55.3375 39.8532 54.8765L40.4112 53.5685C40.4541 53.468 40.4716 53.3584 40.4622 53.2495C40.4528 53.1405 40.4167 53.0356 40.3572 52.9439C39.7543 52.016 39.3268 50.9854 39.0959 49.9032C39.073 49.7963 39.0242 49.6967 38.9537 49.6131C38.8833 49.5295 38.7933 49.4645 38.6919 49.4239L37.3725 48.9039C37.3173 48.3052 37.3173 47.7026 37.3725 47.1039L38.6919 46.5766C38.7933 46.5359 38.8833 46.4709 38.9537 46.3874C39.0242 46.3038 39.073 46.2041 39.0959 46.0972C39.3268 45.0151 39.7543 43.9845 40.3572 43.0566C40.4167 42.9649 40.4528 42.8599 40.4622 42.751C40.4716 42.6421 40.4541 42.5325 40.4112 42.4319L39.8459 41.1299C40.2334 40.6697 40.6599 40.2437 41.1205 39.8566L42.4285 40.4146C42.5291 40.4575 42.6386 40.475 42.7476 40.4656C42.8565 40.4562 42.9615 40.4202 43.0532 40.3606C43.981 39.7577 45.0117 39.3302 46.0938 39.0993C46.2007 39.0764 46.3003 39.0276 46.3839 38.9571C46.4675 38.8867 46.5325 38.7968 46.5731 38.6953L47.0931 37.376C47.6919 37.3211 48.2944 37.3211 48.8931 37.376L49.4205 38.6953C49.4611 38.7968 49.5261 38.8867 49.6097 38.9571C49.6933 39.0276 49.7929 39.0764 49.8998 39.0993C50.982 39.33 52.0127 39.7575 52.9404 40.3606C53.0321 40.4202 53.1371 40.4562 53.246 40.4656C53.355 40.475 53.4645 40.4575 53.5651 40.4146L54.8671 39.8493C55.3276 40.2365 55.7537 40.663 56.1404 41.1239L55.5824 42.4319C55.5395 42.5325 55.522 42.6421 55.5314 42.751C55.5408 42.8599 55.5769 42.9649 55.6364 43.0566C56.2396 43.984 56.6669 45.0145 56.8971 46.0966C56.9199 46.2037 56.9688 46.3035 57.0394 46.3872C57.11 46.4709 57.2001 46.536 57.3017 46.5766L58.6224 47.1099C58.6764 47.706 58.6764 48.3058 58.6224 48.9019L57.3024 49.4292C57.2012 49.4693 57.1113 49.5336 57.0406 49.6165C56.97 49.6993 56.9207 49.7976 56.8971 49.9039Z" fill="white"/>
<path d="M48 28C42.6975 28.006 37.614 30.115 33.8646 33.8645C30.1152 37.6139 28.0061 42.6974 28.0001 47.9999C27.9905 50.7559 28.5556 53.4837 29.6596 56.0091C30.7635 58.5344 32.3819 60.8018 34.4114 62.6665H30.0001C29.4697 62.6665 28.961 62.8772 28.5859 63.2522C28.2108 63.6273 28.0001 64.136 28.0001 64.6664V65.9998C28.0001 66.5302 28.2108 67.0389 28.5859 67.414C28.961 67.789 29.4697 67.9998 30.0001 67.9998H65.3332C65.5084 68.0002 65.6819 67.9659 65.8437 67.8989C66.0055 67.8318 66.1524 67.7333 66.2759 67.6091L67.6092 66.2758C67.8592 66.0257 67.9996 65.6867 67.9996 65.3331C67.9996 64.9796 67.8592 64.6405 67.6092 64.3904L66.2759 63.0571C66.1524 62.9329 66.0055 62.8344 65.8437 62.7673C65.6819 62.7003 65.5084 62.666 65.3332 62.6665H61.5886C63.6181 60.8018 65.2365 58.5344 66.3404 56.0091C67.4444 53.4837 68.0095 50.7559 67.9999 47.9999C67.9939 42.6974 65.8848 37.6139 62.1354 33.8645C58.386 30.115 53.3025 28.006 48 28ZM66.5866 46.3106L66.2759 45.9999C66.0259 45.7499 65.6868 45.6095 65.3332 45.6095C64.9797 45.6095 64.6406 45.7499 64.3906 45.9999L63.9239 46.4666C63.5423 42.5583 61.7385 38.9264 58.8551 36.2607C55.9716 33.595 52.2095 32.0814 48.2833 32.0073L46.9427 30.6667L48.2667 29.34C52.8757 29.4113 57.2957 31.1835 60.6773 34.3161C64.0589 37.4486 66.1635 41.7204 66.5866 46.3106ZM48 62.6665C45.0992 62.6665 42.2636 61.8063 39.8517 60.1947C37.4398 58.5831 35.5599 56.2925 34.4498 53.6125C33.3398 50.9326 33.0493 47.9836 33.6152 45.1386C34.1811 42.2935 35.578 39.6802 37.6292 37.629C39.6803 35.5779 42.2937 34.181 45.1387 33.6151C47.9837 33.0492 50.9327 33.3396 53.6127 34.4497C56.2926 35.5598 58.5832 37.4397 60.1948 39.8516C61.8064 42.2635 62.6666 45.0991 62.6666 47.9999C62.6622 51.8883 61.1155 55.6163 58.366 58.3658C55.6164 61.1154 51.8885 62.662 48 62.6665ZM46.3107 29.4133L46 29.724C45.7501 29.974 45.6096 30.3131 45.6096 30.6667C45.6096 31.0202 45.7501 31.3593 46 31.6093L46.4667 32.076C42.5584 32.4575 38.9265 34.2614 36.2608 37.1448C33.5952 40.0283 32.0815 43.7904 32.0074 47.7165L30.6668 49.0572L29.3401 47.7332C29.4114 43.1242 31.1837 38.7041 34.3162 35.3225C37.4487 31.9409 41.7206 29.8364 46.3107 29.4133ZM29.4161 49.6919L29.7241 49.9999C29.9741 50.2498 30.3132 50.3902 30.6668 50.3902C31.0203 50.3902 31.3594 50.2498 31.6094 49.9999L32.0761 49.5332C32.3537 52.373 33.3841 55.0873 35.0608 57.396C36.7376 59.7046 39.0001 61.524 41.6147 62.6665H36.4667C34.4626 61.1047 32.8022 59.1465 31.589 56.9141C30.3759 54.6817 29.6362 52.2231 29.4161 49.6919ZM29.3334 65.9998V64.6664C29.3334 64.4896 29.4037 64.3201 29.5287 64.195C29.6537 64.07 29.8233 63.9998 30.0001 63.9998H47.724L49.0573 65.3331L47.724 66.6664H30.0001C29.8233 66.6664 29.6537 66.5962 29.5287 66.4712C29.4037 66.3461 29.3334 66.1766 29.3334 65.9998ZM66.6665 65.3331L65.3332 66.6664H55.1666C56.8887 66.0058 58.5103 65.1083 59.9846 63.9998H65.3332L66.6665 65.3331ZM59.3666 62.8051C56.5706 64.9688 53.2108 66.2818 49.6887 66.5871L50 66.2758C50.2499 66.0257 50.3904 65.6867 50.3904 65.3331C50.3904 64.9796 50.2499 64.6405 50 64.3904L49.5333 63.9238C53.4416 63.5422 57.0735 61.7384 59.7392 58.8549C62.4048 55.9715 63.9185 52.2093 63.9926 48.2832L65.3332 46.9426L66.6592 48.2665C66.6309 51.0852 65.9591 53.8601 64.6953 56.3797C63.4315 58.8993 61.6089 61.097 59.3666 62.8051Z" fill="white"/>
<path d="M48.0032 40.6694C46.5528 40.6694 45.135 41.0995 43.9291 41.9053C42.7231 42.7111 41.7832 43.8564 41.2281 45.1964C40.6731 46.5364 40.5279 48.0109 40.8108 49.4334C41.0938 50.8559 41.7922 52.1626 42.8178 53.1881C43.8434 54.2137 45.15 54.9121 46.5726 55.1951C47.9951 55.4781 49.4696 55.3328 50.8095 54.7778C52.1495 54.2228 53.2948 53.2828 54.1006 52.0769C54.9064 50.8709 55.3365 49.4531 55.3365 48.0027C55.3342 46.0585 54.5609 44.1946 53.1861 42.8198C51.8113 41.4451 49.9474 40.6717 48.0032 40.6694ZM48.0032 54.0027C46.8165 54.0027 45.6565 53.6508 44.6698 52.9915C43.6831 52.3322 42.9141 51.3952 42.46 50.2988C42.0058 49.2025 41.887 47.9961 42.1185 46.8322C42.35 45.6683 42.9215 44.5992 43.7606 43.7601C44.5997 42.921 45.6688 42.3496 46.8327 42.118C47.9966 41.8865 49.2029 42.0054 50.2993 42.4595C51.3956 42.9136 52.3327 43.6826 52.992 44.6693C53.6513 45.656 54.0032 46.816 54.0032 48.0027C54.0014 49.5935 53.3687 51.1186 52.2439 52.2434C51.119 53.3682 49.594 54.0009 48.0032 54.0027Z" fill="white"/>
<path d="M103.963 57H100.588L106.733 39.5455H110.636L116.79 57H113.415L108.753 43.125H108.616L103.963 57ZM104.074 50.1562H113.278V52.696H104.074V50.1562ZM123.791 62.1818C122.683 62.1818 121.732 62.0313 120.936 61.7301C120.141 61.4347 119.501 61.0369 119.018 60.5369C118.535 60.0369 118.2 59.483 118.013 58.875L120.791 58.2017C120.916 58.4574 121.098 58.7102 121.337 58.9602C121.575 59.2159 121.896 59.4261 122.3 59.5909C122.709 59.7614 123.223 59.8466 123.842 59.8466C124.717 59.8466 125.442 59.6335 126.016 59.2074C126.589 58.7869 126.876 58.0938 126.876 57.1278V54.6477H126.723C126.564 54.9659 126.331 55.2926 126.024 55.6278C125.723 55.9631 125.322 56.2443 124.822 56.4716C124.328 56.6989 123.706 56.8125 122.956 56.8125C121.95 56.8125 121.038 56.5767 120.22 56.1051C119.408 55.6278 118.76 54.9176 118.277 53.9744C117.8 53.0256 117.561 51.8381 117.561 50.4119C117.561 48.9744 117.8 47.7614 118.277 46.7727C118.76 45.7784 119.41 45.0256 120.229 44.5142C121.047 43.9972 121.959 43.7386 122.964 43.7386C123.732 43.7386 124.362 43.8693 124.857 44.1307C125.357 44.3864 125.754 44.696 126.05 45.0597C126.345 45.4176 126.57 45.7557 126.723 46.0739H126.893V43.9091H129.936V57.2131C129.936 58.3324 129.669 59.2585 129.135 59.9915C128.601 60.7244 127.871 61.2727 126.945 61.6364C126.018 62 124.967 62.1818 123.791 62.1818ZM123.817 54.392C124.47 54.392 125.027 54.233 125.487 53.9148C125.947 53.5966 126.297 53.1392 126.535 52.5426C126.774 51.946 126.893 51.2301 126.893 50.3949C126.893 49.571 126.774 48.8494 126.535 48.2301C126.303 47.6108 125.956 47.1307 125.496 46.7898C125.041 46.4432 124.482 46.2699 123.817 46.2699C123.129 46.2699 122.555 46.4489 122.095 46.8068C121.635 47.1648 121.288 47.6562 121.055 48.2812C120.822 48.9006 120.706 49.6051 120.706 50.3949C120.706 51.196 120.822 51.8977 121.055 52.5C121.294 53.0966 121.643 53.5625 122.104 53.8977C122.57 54.2273 123.141 54.392 123.817 54.392ZM132.642 57V43.9091H135.727V57H132.642ZM134.193 42.0511C133.704 42.0511 133.284 41.8892 132.932 41.5653C132.579 41.2358 132.403 40.8409 132.403 40.3807C132.403 39.9148 132.579 39.5199 132.932 39.196C133.284 38.8665 133.704 38.7017 134.193 38.7017C134.687 38.7017 135.108 38.8665 135.454 39.196C135.807 39.5199 135.983 39.9148 135.983 40.3807C135.983 40.8409 135.807 41.2358 135.454 41.5653C135.108 41.8892 134.687 42.0511 134.193 42.0511ZM141.529 39.5455V57H138.444V39.5455H141.529ZM150.041 57.2557C148.729 57.2557 147.595 56.983 146.64 56.4375C145.692 55.8864 144.962 55.108 144.45 54.1023C143.939 53.0909 143.683 51.9006 143.683 50.5312C143.683 49.1847 143.939 48.0028 144.45 46.9858C144.967 45.9631 145.689 45.1676 146.615 44.5994C147.541 44.0256 148.629 43.7386 149.879 43.7386C150.686 43.7386 151.447 43.8693 152.163 44.1307C152.885 44.3864 153.521 44.7841 154.072 45.3239C154.629 45.8636 155.067 46.5511 155.385 47.3864C155.703 48.2159 155.862 49.2045 155.862 50.3523V51.2983H145.132V49.2188H152.905C152.899 48.6278 152.771 48.1023 152.521 47.642C152.271 47.1761 151.922 46.8097 151.473 46.5426C151.03 46.2756 150.513 46.142 149.922 46.142C149.291 46.142 148.737 46.2955 148.26 46.6023C147.783 46.9034 147.41 47.3011 147.143 47.7955C146.882 48.2841 146.748 48.821 146.743 49.4062V51.2216C146.743 51.983 146.882 52.6364 147.16 53.1818C147.439 53.7216 147.828 54.1364 148.328 54.4261C148.828 54.7102 149.413 54.8523 150.084 54.8523C150.533 54.8523 150.939 54.7898 151.302 54.6648C151.666 54.5341 151.981 54.3438 152.248 54.0938C152.515 53.8438 152.717 53.5341 152.854 53.1648L155.734 53.4886C155.552 54.25 155.206 54.9148 154.694 55.483C154.189 56.0455 153.541 56.483 152.751 56.7955C151.962 57.1023 151.058 57.2557 150.041 57.2557Z" fill="white"/>
<defs>
<linearGradient id="paint0_linear_1678_7046" x1="488.235" y1="5.70002" x2="226.614" y2="298.49" gradientUnits="userSpaceOnUse">
<stop stop-color="#B0D8A7" stop-opacity="0"/>
<stop offset="1" stop-color="#66BE53"/>
</linearGradient>
<linearGradient id="paint1_linear_1678_7046" x1="12" y1="6.30507" x2="96.1299" y2="64.5941" gradientUnits="userSpaceOnUse">
<stop stop-color="#1A2613"/>
<stop offset="0.489"/>
<stop offset="1" stop-color="#001D2B"/>
</linearGradient>
<linearGradient id="paint2_linear_1678_7046" x1="84" y1="82.2439" x2="20.0367" y2="6.43866" gradientUnits="userSpaceOnUse">
<stop stop-color="#14FF87"/>
<stop offset="1" stop-color="#CAFE15"/>
</linearGradient>
</defs>
</svg>
