<svg width="472" height="96" viewBox="0 0 472 96" fill="none" xmlns="http://www.w3.org/2000/svg">
<rect x="1" y="1" width="470" height="94" rx="15" fill="url(#paint0_linear_1678_7056)"/>
<rect x="1" y="1" width="470" height="94" rx="15" stroke="url(#paint1_linear_1678_7056)" stroke-width="2"/>
<circle cx="48" cy="48" r="35" fill="url(#paint2_linear_1678_7056)" stroke="url(#paint3_linear_1678_7056)" stroke-width="2"/>
<path d="M65.1352 48.3085C65.056 52.5152 63.4342 56.5462 60.5781 59.6358C57.7219 62.7254 53.8303 64.6581 49.6426 65.067L50.1426 65.567C50.4104 65.8349 50.5609 66.1982 50.5609 66.577C50.5609 66.9558 50.4104 67.3191 50.1426 67.587L49.809 67.9205C54.7304 67.4749 59.3122 65.2222 62.6702 61.5971C66.0282 57.972 67.9243 53.2315 67.9924 48.2906L66.5717 46.8721L65.1352 48.3085ZM66.5717 68.0048L68.0003 66.5762L66.5717 65.1477H60.8408C59.2612 66.3354 57.5237 67.297 55.6785 68.0048H66.5717Z" fill="white"/>
<path d="M48.001 54.4328C51.5515 54.4328 54.4298 51.5546 54.4298 48.0042C54.4298 44.4538 51.5515 41.5757 48.001 41.5757C44.4505 41.5757 41.5723 44.4538 41.5723 48.0042C41.5723 51.5546 44.4505 54.4328 48.001 54.4328Z" fill="white"/>
<path d="M57.538 50.0452C57.5625 49.9304 57.6149 49.8235 57.6905 49.7338C57.7661 49.6441 57.8627 49.5744 57.9716 49.5309L59.386 48.9659C59.4438 48.3272 59.4438 47.6846 59.386 47.0459L57.9709 46.4745C57.862 46.431 57.7654 46.3613 57.6898 46.2716C57.6142 46.1819 57.5618 46.0749 57.5373 45.9602C57.2907 44.8008 56.8329 43.6967 56.1866 42.7031C56.1228 42.6048 56.0841 42.4924 56.074 42.3757C56.064 42.2589 56.0827 42.1415 56.1287 42.0338L56.7266 40.6324C56.3122 40.1385 55.8557 39.6815 55.3623 39.2667L53.9672 39.8724C53.8595 39.9183 53.7421 39.9371 53.6253 39.927C53.5086 39.9169 53.3962 39.8783 53.2979 39.8145C52.3039 39.1683 51.1995 38.7103 50.04 38.4631C49.9254 38.4386 49.8187 38.3863 49.7291 38.3108C49.6395 38.2353 49.5699 38.139 49.5264 38.0302L48.9614 36.6167C48.3198 36.5578 47.6743 36.5578 47.0327 36.6167L46.4756 38.0302C46.432 38.139 46.3624 38.2353 46.2728 38.3108C46.1833 38.3863 46.0765 38.4386 45.962 38.4631C44.8025 38.7105 43.6982 39.1686 42.704 39.8145C42.6058 39.8783 42.4933 39.9169 42.3766 39.927C42.2599 39.9371 42.1425 39.9183 42.0347 39.8724L40.6332 39.2745C40.1397 39.6892 39.6827 40.1457 39.2675 40.6388L39.8732 42.0338C39.9192 42.1415 39.938 42.2589 39.9279 42.3757C39.9178 42.4924 39.8792 42.6048 39.8154 42.7031C39.1694 43.6972 38.7113 44.8014 38.4639 45.9609C38.4394 46.0754 38.3871 46.1822 38.3116 46.2717C38.2361 46.3613 38.1397 46.4309 38.031 46.4745L36.6174 47.0395C36.5582 47.681 36.5582 48.3265 36.6174 48.968L38.031 49.5252C38.1397 49.5687 38.2361 49.6383 38.3116 49.7279C38.3871 49.8175 38.4394 49.9242 38.4639 50.0387C38.7113 51.1982 39.1694 52.3024 39.8154 53.2966C39.8792 53.3948 39.9178 53.5073 39.9279 53.624C39.938 53.7407 39.9192 53.8581 39.8732 53.9659L39.2753 55.3673C39.6897 55.8612 40.1462 56.3181 40.6397 56.733L42.0347 56.1273C42.1425 56.0813 42.2599 56.0625 42.3766 56.0726C42.4933 56.0827 42.6058 56.1213 42.704 56.1851C43.6982 56.8311 44.8025 57.2891 45.962 57.5366C46.0765 57.5611 46.1833 57.6134 46.2728 57.6889C46.3624 57.7643 46.432 57.8607 46.4756 57.9694L47.0406 59.383C47.6821 59.4422 48.3277 59.4422 48.9692 59.383L49.5264 57.9694C49.5699 57.8607 49.6395 57.7643 49.7291 57.6889C49.8187 57.6134 49.9254 57.5611 50.04 57.5366C51.1995 57.2894 52.3039 56.8313 53.2979 56.1851C53.3962 56.1213 53.5086 56.0827 53.6253 56.0726C53.7421 56.0625 53.8595 56.0813 53.9672 56.1273L55.3687 56.7251C55.8626 56.3106 56.3198 55.8541 56.7352 55.3609L56.1287 53.9659C56.0827 53.8581 56.064 53.7407 56.074 53.624C56.0841 53.5073 56.1228 53.3948 56.1866 53.2966C56.8325 52.3047 57.2906 51.2026 57.538 50.0452ZM48.0006 55.8616C46.4466 55.8616 44.9274 55.4008 43.6353 54.5374C42.3431 53.6741 41.336 52.4469 40.7413 51.0112C40.1466 49.5756 39.991 47.9958 40.2942 46.4716C40.5974 44.9475 41.3457 43.5475 42.4446 42.4487C43.5435 41.3498 44.9435 40.6015 46.4677 40.2983C47.9919 39.9952 49.5718 40.1508 51.0075 40.7455C52.4432 41.3401 53.6704 42.3472 54.5338 43.6393C55.3972 44.9314 55.858 46.4505 55.858 48.0045C55.8555 50.0875 55.0269 52.0846 53.5539 53.5576C52.0809 55.0305 50.0838 55.8591 48.0006 55.8616ZM30.4386 50.1473C30.1707 50.4151 29.8074 50.5656 29.4286 50.5656C29.0498 50.5656 28.6865 50.4151 28.4186 50.1473L28.0886 49.8173C28.3244 52.5293 29.1169 55.1635 30.4168 57.5554C31.7166 59.9473 33.4958 62.0454 35.6431 63.7187H41.1625C38.3602 62.4953 35.9352 60.5461 34.1378 58.0725C32.3404 55.5989 31.2358 52.6904 30.9379 49.6473L30.4386 50.1473ZM65.5626 45.8616C65.8305 45.5938 66.1938 45.4434 66.5726 45.4434C66.9514 45.4434 67.3147 45.5938 67.5826 45.8616L67.9155 46.1945C67.4622 41.2765 65.2073 36.6995 61.584 33.3432C57.9607 29.9869 53.2247 28.0881 48.2863 28.0117L46.8677 29.4331L48.3042 30.8696C52.511 30.9488 56.5422 32.5705 59.6319 35.4265C62.7216 38.2826 64.6544 42.1741 65.0633 46.3616L65.5626 45.8616ZM30.8651 47.7009C30.9443 43.4942 32.566 39.4632 35.4222 36.3736C38.2784 33.284 42.17 31.3512 46.3577 30.9424L45.8577 30.4424C45.5899 30.1745 45.4394 29.8112 45.4394 29.4324C45.4394 29.0536 45.5899 28.6903 45.8577 28.4224L46.1906 28.0896C41.2723 28.5429 36.6951 30.7978 33.3386 34.4211C29.9822 38.0445 28.0834 42.7804 28.0071 47.7188L29.4286 49.1373L30.8651 47.7009ZM28.7143 65.1472C28.5249 65.1472 28.3432 65.2225 28.2092 65.3564C28.0753 65.4904 28 65.6721 28 65.8615V67.2901C28 67.4795 28.0753 67.6612 28.2092 67.7952C28.3432 67.9291 28.5249 68.0044 28.7143 68.0044H47.7049L49.1335 66.5758L47.7049 65.1472H28.7143Z" fill="white"/>
<path d="M103.963 57H100.588L106.733 39.5455H110.636L116.79 57H113.415L108.753 43.125H108.616L103.963 57ZM104.074 50.1562H113.278V52.696H104.074V50.1562ZM123.791 62.1818C122.683 62.1818 121.732 62.0313 120.936 61.7301C120.141 61.4347 119.501 61.0369 119.018 60.5369C118.535 60.0369 118.2 59.483 118.013 58.875L120.791 58.2017C120.916 58.4574 121.098 58.7102 121.337 58.9602C121.575 59.2159 121.896 59.4261 122.3 59.5909C122.709 59.7614 123.223 59.8466 123.842 59.8466C124.717 59.8466 125.442 59.6335 126.016 59.2074C126.589 58.7869 126.876 58.0938 126.876 57.1278V54.6477H126.723C126.564 54.9659 126.331 55.2926 126.024 55.6278C125.723 55.9631 125.322 56.2443 124.822 56.4716C124.328 56.6989 123.706 56.8125 122.956 56.8125C121.95 56.8125 121.038 56.5767 120.22 56.1051C119.408 55.6278 118.76 54.9176 118.277 53.9744C117.8 53.0256 117.561 51.8381 117.561 50.4119C117.561 48.9744 117.8 47.7614 118.277 46.7727C118.76 45.7784 119.41 45.0256 120.229 44.5142C121.047 43.9972 121.959 43.7386 122.964 43.7386C123.732 43.7386 124.362 43.8693 124.857 44.1307C125.357 44.3864 125.754 44.696 126.05 45.0597C126.345 45.4176 126.57 45.7557 126.723 46.0739H126.893V43.9091H129.936V57.2131C129.936 58.3324 129.669 59.2585 129.135 59.9915C128.601 60.7244 127.871 61.2727 126.945 61.6364C126.018 62 124.967 62.1818 123.791 62.1818ZM123.817 54.392C124.47 54.392 125.027 54.233 125.487 53.9148C125.947 53.5966 126.297 53.1392 126.535 52.5426C126.774 51.946 126.893 51.2301 126.893 50.3949C126.893 49.571 126.774 48.8494 126.535 48.2301C126.303 47.6108 125.956 47.1307 125.496 46.7898C125.041 46.4432 124.482 46.2699 123.817 46.2699C123.129 46.2699 122.555 46.4489 122.095 46.8068C121.635 47.1648 121.288 47.6562 121.055 48.2812C120.822 48.9006 120.706 49.6051 120.706 50.3949C120.706 51.196 120.822 51.8977 121.055 52.5C121.294 53.0966 121.643 53.5625 122.104 53.8977C122.57 54.2273 123.141 54.392 123.817 54.392ZM132.642 57V43.9091H135.727V57H132.642ZM134.193 42.0511C133.704 42.0511 133.284 41.8892 132.932 41.5653C132.579 41.2358 132.403 40.8409 132.403 40.3807C132.403 39.9148 132.579 39.5199 132.932 39.196C133.284 38.8665 133.704 38.7017 134.193 38.7017C134.687 38.7017 135.108 38.8665 135.454 39.196C135.807 39.5199 135.983 39.9148 135.983 40.3807C135.983 40.8409 135.807 41.2358 135.454 41.5653C135.108 41.8892 134.687 42.0511 134.193 42.0511ZM141.529 39.5455V57H138.444V39.5455H141.529ZM150.041 57.2557C148.729 57.2557 147.595 56.983 146.64 56.4375C145.692 55.8864 144.962 55.108 144.45 54.1023C143.939 53.0909 143.683 51.9006 143.683 50.5312C143.683 49.1847 143.939 48.0028 144.45 46.9858C144.967 45.9631 145.689 45.1676 146.615 44.5994C147.541 44.0256 148.629 43.7386 149.879 43.7386C150.686 43.7386 151.447 43.8693 152.163 44.1307C152.885 44.3864 153.521 44.7841 154.072 45.3239C154.629 45.8636 155.067 46.5511 155.385 47.3864C155.703 48.2159 155.862 49.2045 155.862 50.3523V51.2983H145.132V49.2188H152.905C152.899 48.6278 152.771 48.1023 152.521 47.642C152.271 47.1761 151.922 46.8097 151.473 46.5426C151.03 46.2756 150.513 46.142 149.922 46.142C149.291 46.142 148.737 46.2955 148.26 46.6023C147.783 46.9034 147.41 47.3011 147.143 47.7955C146.882 48.2841 146.748 48.821 146.743 49.4062V51.2216C146.743 51.983 146.882 52.6364 147.16 53.1818C147.439 53.7216 147.828 54.1364 148.328 54.4261C148.828 54.7102 149.413 54.8523 150.084 54.8523C150.533 54.8523 150.939 54.7898 151.302 54.6648C151.666 54.5341 151.981 54.3438 152.248 54.0938C152.515 53.8438 152.717 53.5341 152.854 53.1648L155.734 53.4886C155.552 54.25 155.206 54.9148 154.694 55.483C154.189 56.0455 153.541 56.483 152.751 56.7955C151.962 57.1023 151.058 57.2557 150.041 57.2557Z" fill="url(#paint4_linear_1678_7056)"/>
<defs>
<linearGradient id="paint0_linear_1678_7056" x1="-5.59285e-05" y1="-7.59324" x2="64.7616" y2="213.017" gradientUnits="userSpaceOnUse">
<stop stop-color="#1A2613"/>
<stop offset="0.489"/>
<stop offset="1" stop-color="#001D2B"/>
</linearGradient>
<linearGradient id="paint1_linear_1678_7056" x1="472" y1="93.6585" x2="443.154" y2="-74.4262" gradientUnits="userSpaceOnUse">
<stop stop-color="#14FF87" stop-opacity="0.3"/>
<stop offset="1" stop-color="#CAFE15"/>
</linearGradient>
<linearGradient id="paint2_linear_1678_7056" x1="12" y1="6.30507" x2="96.1299" y2="64.5941" gradientUnits="userSpaceOnUse">
<stop stop-color="#1A2613"/>
<stop offset="0.489"/>
<stop offset="1" stop-color="#001D2B"/>
</linearGradient>
<linearGradient id="paint3_linear_1678_7056" x1="84" y1="82.2439" x2="20.0367" y2="6.43866" gradientUnits="userSpaceOnUse">
<stop stop-color="#14FF87"/>
<stop offset="1" stop-color="#CAFE15"/>
</linearGradient>
<linearGradient id="paint4_linear_1678_7056" x1="152.997" y1="56.5024" x2="131.614" y2="21.5642" gradientUnits="userSpaceOnUse">
<stop stop-color="#14FF87" stop-opacity="0.76"/>
<stop offset="1" stop-color="#CAFE15"/>
</linearGradient>
</defs>
</svg>
