<svg width="472" height="96" viewBox="0 0 472 96" fill="none" xmlns="http://www.w3.org/2000/svg">
<rect x="1" y="1" width="470" height="94" rx="15" fill="url(#paint0_linear_999_6492)"/>
<rect x="1" y="1" width="470" height="94" rx="15" stroke="url(#paint1_linear_999_6492)" stroke-width="2"/>
<circle cx="48" cy="48" r="35" fill="url(#paint2_linear_999_6492)" stroke="url(#paint3_linear_999_6492)" stroke-width="2"/>
<path d="M35.6174 57.6431C36.0103 58.0283 36.6411 58.0217 37.026 57.6288C37.4111 57.2359 37.4046 56.6052 37.0118 56.2202C34.4197 53.6802 32.9922 50.3953 32.9922 46.9706C32.9922 39.8303 38.8609 34.0213 46.0744 34.0213C46.6245 34.0213 47.0705 33.5753 47.0705 33.0252C47.0705 32.475 46.6245 32.0291 46.0744 32.0291C42.0776 32.0291 38.3035 33.5816 35.4473 36.4008C32.5794 39.2314 31 42.9852 31 46.9706C31 48.9978 31.43 50.9837 32.2779 52.8731C33.074 54.647 34.1976 56.2518 35.6174 57.6431ZM64.7084 60.2115L62.7163 58.2195C62.3274 57.8305 61.6967 57.8305 61.3076 58.2195C60.9186 58.6085 60.9186 59.2391 61.3076 59.6282L61.5994 59.92H57.3317C56.7816 59.92 56.3356 60.3659 56.3356 60.9161C56.3356 61.4662 56.7816 61.9122 57.3317 61.9122H61.654L61.2962 62.282C60.9136 62.6773 60.9239 63.3079 61.3193 63.6905C61.7155 64.0739 62.3461 64.0618 62.7278 63.6674L64.72 61.6087C65.0891 61.228 65.1013 60.6039 64.7084 60.2115Z" fill="white"/>
<path d="M61.0159 46.9706C61.0159 43.9488 60.1182 41.0375 58.4197 38.5515C57.2214 36.7976 55.6831 35.3345 53.8992 34.2381L54.3011 34.1304C54.8324 33.988 55.1477 33.4418 55.0054 32.9104C54.8629 32.3791 54.3169 32.0636 53.7853 32.2061L51.064 32.9353C50.5326 33.0777 50.2173 33.6239 50.3597 34.1553L51.0888 36.8767C51.2081 37.3217 51.6105 37.6152 52.0503 37.6152C52.7053 37.6152 53.1826 36.9934 53.0132 36.3611L52.907 35.9648C56.6801 38.2995 59.0237 42.4223 59.0237 46.9706C59.0237 54.1109 53.2146 59.92 46.0744 59.92H31.9961C31.446 59.92 31 60.366 31 60.9161C31 61.4662 31.446 61.9122 31.9961 61.9122H46.0744C50.0654 61.9122 53.8175 60.358 56.6396 57.5359C59.4617 54.7138 61.0159 50.9617 61.0159 46.9706Z" fill="white"/>
<path d="M37.1094 46.9705C37.1094 51.9138 41.131 55.9355 46.0743 55.9355C51.0176 55.9355 55.0392 51.9138 55.0392 46.9705C55.0392 42.0273 51.0176 38.0056 46.0743 38.0056C41.131 38.0056 37.1094 42.0273 37.1094 46.9705ZM53.047 46.9705C53.047 50.8153 49.9191 53.9433 46.0743 53.9433C42.2295 53.9433 39.1016 50.8153 39.1016 46.9705C39.1016 43.1258 42.2295 39.9978 46.0743 39.9978C49.9191 39.9978 53.047 43.1258 53.047 46.9705Z" fill="white"/>
<path d="M43.8329 47.2199C43.4203 46.8073 42.7513 46.8073 42.3387 47.2199C41.9262 47.6324 41.9262 48.3014 42.3387 48.714L44.3309 50.7062C44.5372 50.9125 44.8077 51.0157 45.078 51.0157C45.3484 51.0157 45.6188 50.9125 45.8251 50.7062L49.8095 46.7218C50.2221 46.3092 50.2221 45.6402 49.8095 45.2277C49.3969 44.8151 48.7279 44.8151 48.3154 45.2277L45.078 48.465L43.8329 47.2199Z" fill="white"/>
<path d="M103.963 57H100.588L106.733 39.5455H110.636L116.79 57H113.415L108.753 43.125H108.616L103.963 57ZM104.074 50.1562H113.278V52.696H104.074V50.1562ZM123.791 62.1818C122.683 62.1818 121.732 62.0313 120.936 61.7301C120.141 61.4347 119.501 61.0369 119.018 60.5369C118.535 60.0369 118.2 59.483 118.013 58.875L120.791 58.2017C120.916 58.4574 121.098 58.7102 121.337 58.9602C121.575 59.2159 121.896 59.4261 122.3 59.5909C122.709 59.7614 123.223 59.8466 123.842 59.8466C124.717 59.8466 125.442 59.6335 126.016 59.2074C126.589 58.7869 126.876 58.0938 126.876 57.1278V54.6477H126.723C126.564 54.9659 126.331 55.2926 126.024 55.6278C125.723 55.9631 125.322 56.2443 124.822 56.4716C124.328 56.6989 123.706 56.8125 122.956 56.8125C121.95 56.8125 121.038 56.5767 120.22 56.1051C119.408 55.6278 118.76 54.9176 118.277 53.9744C117.8 53.0256 117.561 51.8381 117.561 50.4119C117.561 48.9744 117.8 47.7614 118.277 46.7727C118.76 45.7784 119.41 45.0256 120.229 44.5142C121.047 43.9972 121.959 43.7386 122.964 43.7386C123.732 43.7386 124.362 43.8693 124.857 44.1307C125.357 44.3864 125.754 44.696 126.05 45.0597C126.345 45.4176 126.57 45.7557 126.723 46.0739H126.893V43.9091H129.936V57.2131C129.936 58.3324 129.669 59.2585 129.135 59.9915C128.601 60.7244 127.871 61.2727 126.945 61.6364C126.018 62 124.967 62.1818 123.791 62.1818ZM123.817 54.392C124.47 54.392 125.027 54.233 125.487 53.9148C125.947 53.5966 126.297 53.1392 126.535 52.5426C126.774 51.946 126.893 51.2301 126.893 50.3949C126.893 49.571 126.774 48.8494 126.535 48.2301C126.303 47.6108 125.956 47.1307 125.496 46.7898C125.041 46.4432 124.482 46.2699 123.817 46.2699C123.129 46.2699 122.555 46.4489 122.095 46.8068C121.635 47.1648 121.288 47.6562 121.055 48.2812C120.822 48.9006 120.706 49.6051 120.706 50.3949C120.706 51.196 120.822 51.8977 121.055 52.5C121.294 53.0966 121.643 53.5625 122.104 53.8977C122.57 54.2273 123.141 54.392 123.817 54.392ZM132.642 57V43.9091H135.727V57H132.642ZM134.193 42.0511C133.704 42.0511 133.284 41.8892 132.932 41.5653C132.579 41.2358 132.403 40.8409 132.403 40.3807C132.403 39.9148 132.579 39.5199 132.932 39.196C133.284 38.8665 133.704 38.7017 134.193 38.7017C134.687 38.7017 135.108 38.8665 135.454 39.196C135.807 39.5199 135.983 39.9148 135.983 40.3807C135.983 40.8409 135.807 41.2358 135.454 41.5653C135.108 41.8892 134.687 42.0511 134.193 42.0511ZM141.529 39.5455V57H138.444V39.5455H141.529ZM150.041 57.2557C148.729 57.2557 147.595 56.983 146.64 56.4375C145.692 55.8864 144.962 55.108 144.45 54.1023C143.939 53.0909 143.683 51.9006 143.683 50.5312C143.683 49.1847 143.939 48.0028 144.45 46.9858C144.967 45.9631 145.689 45.1676 146.615 44.5994C147.541 44.0256 148.629 43.7386 149.879 43.7386C150.686 43.7386 151.447 43.8693 152.163 44.1307C152.885 44.3864 153.521 44.7841 154.072 45.3239C154.629 45.8636 155.067 46.5511 155.385 47.3864C155.703 48.2159 155.862 49.2045 155.862 50.3523V51.2983H145.132V49.2188H152.905C152.899 48.6278 152.771 48.1023 152.521 47.642C152.271 47.1761 151.922 46.8097 151.473 46.5426C151.03 46.2756 150.513 46.142 149.922 46.142C149.291 46.142 148.737 46.2955 148.26 46.6023C147.783 46.9034 147.41 47.3011 147.143 47.7955C146.882 48.2841 146.748 48.821 146.743 49.4062V51.2216C146.743 51.983 146.882 52.6364 147.16 53.1818C147.439 53.7216 147.828 54.1364 148.328 54.4261C148.828 54.7102 149.413 54.8523 150.084 54.8523C150.533 54.8523 150.939 54.7898 151.302 54.6648C151.666 54.5341 151.981 54.3438 152.248 54.0938C152.515 53.8438 152.717 53.5341 152.854 53.1648L155.734 53.4886C155.552 54.25 155.206 54.9148 154.694 55.483C154.189 56.0455 153.541 56.483 152.751 56.7955C151.962 57.1023 151.058 57.2557 150.041 57.2557Z" fill="url(#paint4_linear_999_6492)"/>
<defs>
<linearGradient id="paint0_linear_999_6492" x1="-5.59285e-05" y1="-7.59324" x2="64.7616" y2="213.017" gradientUnits="userSpaceOnUse">
<stop stop-color="#1A2613"/>
<stop offset="0.489"/>
<stop offset="1" stop-color="#001D2B"/>
</linearGradient>
<linearGradient id="paint1_linear_999_6492" x1="472" y1="93.6585" x2="443.154" y2="-74.4262" gradientUnits="userSpaceOnUse">
<stop stop-color="#14FF87" stop-opacity="0.3"/>
<stop offset="1" stop-color="#CAFE15"/>
</linearGradient>
<linearGradient id="paint2_linear_999_6492" x1="12" y1="6.30507" x2="96.1299" y2="64.5941" gradientUnits="userSpaceOnUse">
<stop stop-color="#1A2613"/>
<stop offset="0.489"/>
<stop offset="1" stop-color="#001D2B"/>
</linearGradient>
<linearGradient id="paint3_linear_999_6492" x1="84" y1="82.2439" x2="20.0367" y2="6.43866" gradientUnits="userSpaceOnUse">
<stop stop-color="#14FF87"/>
<stop offset="1" stop-color="#CAFE15"/>
</linearGradient>
<linearGradient id="paint4_linear_999_6492" x1="152.997" y1="56.5024" x2="131.614" y2="21.5642" gradientUnits="userSpaceOnUse">
<stop stop-color="#14FF87" stop-opacity="0.76"/>
<stop offset="1" stop-color="#CAFE15"/>
</linearGradient>
</defs>
</svg>
