<svg width="720" height="1046" viewBox="0 0 720 1046" fill="none" xmlns="http://www.w3.org/2000/svg">
<path opacity="0.01" d="M560.445 3.00001C273.257 3 40.4453 235.812 40.4453 523C40.4453 810.188 273.257 1043 560.445 1043C847.633 1043 1080.45 810.188 1080.45 523C1080.45 235.812 847.633 3.00001 560.445 3.00001Z" fill="url(#paint0_linear_914_59748)"/>
<path d="M560.445 1.55555C272.46 1.55554 39.0009 235.014 39.0009 523C39.0009 810.986 272.46 1044.44 560.445 1044.44C848.431 1044.44 1081.89 810.986 1081.89 523C1081.89 235.014 848.431 1.55555 560.445 1.55555Z" stroke="url(#paint1_linear_914_59748)" stroke-opacity="0.3" stroke-width="2.88889"/>
<path opacity="0.02" d="M560.439 69.0402C309.719 69.0402 106.471 272.289 106.471 523.008C106.471 773.728 309.719 976.977 560.439 976.977C811.159 976.977 1014.41 773.728 1014.41 523.008C1014.41 272.289 811.159 69.0402 560.439 69.0402Z" fill="url(#paint2_linear_914_59748)"/>
<path d="M560.439 67.5957C308.921 67.5957 105.026 271.491 105.026 523.008C105.026 774.526 308.921 978.421 560.439 978.421C811.956 978.421 1015.85 774.526 1015.85 523.008C1015.85 271.491 811.956 67.5957 560.439 67.5957Z" stroke="url(#paint3_linear_914_59748)" stroke-opacity="0.5" stroke-width="2.88889"/>
<path opacity="0.03" d="M560.44 135.068C346.189 135.068 172.504 308.753 172.504 523.005C172.504 737.256 346.189 910.941 560.44 910.941C774.692 910.941 948.377 737.256 948.377 523.005C948.377 308.753 774.692 135.068 560.44 135.068Z" fill="url(#paint4_linear_914_59748)"/>
<path d="M560.44 133.624C345.391 133.624 171.059 307.956 171.059 523.005C171.059 738.054 345.391 912.386 560.44 912.386C775.49 912.386 949.821 738.054 949.821 523.005C949.821 307.956 775.49 133.624 560.44 133.624Z" stroke="url(#paint5_linear_914_59748)" stroke-width="2.88889"/>
<g filter="url(#filter0_i_914_59748)">
<path opacity="0.05" d="M560.619 216.816C391.953 216.816 255.223 353.547 255.223 522.213C255.223 690.879 391.953 827.609 560.619 827.609C729.285 827.609 866.016 690.879 866.016 522.213C866.016 353.547 729.285 216.816 560.619 216.816Z" fill="url(#paint6_linear_914_59748)"/>
<path d="M560.455 215.762C390.992 215.762 253.614 353.139 253.614 522.603C253.614 692.067 390.992 829.444 560.455 829.444C729.919 829.444 867.297 692.067 867.297 522.603C867.297 353.14 729.919 215.762 560.455 215.762Z" stroke="url(#paint7_linear_914_59748)" stroke-width="2.88889"/>
</g>
<path opacity="0.5" d="M105 269H421C429.837 269 437 276.163 437 285V511" stroke="white" stroke-opacity="0.2" stroke-width="2"/>
<path opacity="0.5" d="M349 505H128C119.163 505 112 497.837 112 489V444" stroke="white" stroke-opacity="0.2" stroke-width="2"/>
<path opacity="0.5" d="M349 542H142C133.163 542 126 549.163 126 558V661" stroke="white" stroke-opacity="0.2" stroke-width="2"/>
<path opacity="0.5" d="M437 533L437 663.158C437 671.995 429.837 679.158 421 679.158L275 679.158C266.163 679.158 259 686.322 259 695.158L259 770" stroke="white" stroke-opacity="0.2" stroke-width="2"/>
<rect x="280" y="579" width="112" height="280" rx="24" transform="rotate(-90 280 579)" fill="white" fill-opacity="0.02"/>
<rect x="288" y="475" width="264" height="96" rx="20" fill="white" fill-opacity="0.05"/>
<rect x="296.5" y="483.5" width="247" height="79" rx="15.5" fill="url(#paint8_linear_914_59748)"/>
<rect x="296.5" y="483.5" width="247" height="79" rx="15.5" stroke="url(#paint9_linear_914_59748)"/>
<path d="M351.062 527.453H351V511.016C351 509.465 349.738 508.203 348.188 508.203H323.812C322.262 508.203 321 509.465 321 511.016V527.453H320.938C320.42 527.453 320 527.873 320 528.391V531.203C320 531.452 320.099 531.69 320.275 531.866L322.15 533.741C322.325 533.917 322.564 534.016 322.812 534.016H327.089L327.044 534.28C326.738 536.121 328.158 537.797 330.03 537.797H330.077C331.194 537.797 332.2 537.176 332.7 536.177L333.769 534.047H338.236L339.276 536.128C339.791 537.157 340.826 537.797 341.977 537.797C342.416 537.797 342.849 537.702 343.247 537.518C343.645 537.333 343.997 537.064 344.281 536.73C345.331 535.49 344.909 534.111 344.912 534.016H349.188C349.436 534.016 349.675 533.917 349.85 533.741L351.725 531.866C351.901 531.69 352 531.452 352 531.203V528.391C352 527.873 351.58 527.453 351.062 527.453ZM322.875 511.016C322.875 510.499 323.296 510.078 323.812 510.078H348.188C348.704 510.078 349.125 510.499 349.125 511.016V527.453H343.771C343.229 525.81 341.697 524.672 339.916 524.672H332.087C330.307 524.672 328.774 525.81 328.232 527.453H322.875V511.016ZM323.201 532.141L321.875 530.815V529.328H327.87L327.401 532.141H323.201ZM341.977 535.922C341.541 535.922 341.148 535.679 340.953 535.289L339.653 532.69C339.576 532.534 339.456 532.403 339.308 532.312C339.16 532.22 338.989 532.172 338.815 532.172H333.19C333.016 532.172 332.846 532.22 332.698 532.312C332.55 532.403 332.43 532.534 332.352 532.689L331.024 535.337C330.704 535.975 330.038 535.92 330.03 535.922C329.317 535.922 328.777 535.29 328.894 534.588L329.929 528.375C330.013 527.863 330.276 527.399 330.672 527.064C331.067 526.729 331.569 526.545 332.087 526.547H339.916C340.435 526.545 340.937 526.729 341.332 527.064C341.727 527.399 341.991 527.864 342.074 528.376L343.106 534.59C343.222 535.288 342.686 535.922 341.977 535.922ZM350.125 530.815L348.799 532.141H344.6L344.133 529.328H350.125V530.815Z" fill="white"/>
<path d="M331.585 521.321C331.951 521.688 332.545 521.688 332.911 521.321C333.277 520.955 333.277 520.362 332.911 519.996L331.699 518.783L332.915 517.571C333.282 517.205 333.283 516.612 332.917 516.245C332.551 515.878 331.958 515.877 331.591 516.243L329.71 518.118C329.343 518.484 329.342 519.078 329.709 519.445L331.585 521.321ZM339.083 521.32C339.449 521.688 340.043 521.687 340.409 521.322L342.29 519.447C342.657 519.082 342.657 518.487 342.291 518.121L340.414 516.244C340.048 515.878 339.455 515.878 339.089 516.244C338.722 516.61 338.722 517.204 339.089 517.57L340.301 518.782L339.085 519.995C338.718 520.36 338.717 520.954 339.083 521.32ZM335.062 522.064C335.435 522.064 335.788 521.84 335.934 521.472L337.809 516.751C338 516.27 337.765 515.725 337.283 515.534C336.802 515.342 336.257 515.578 336.066 516.059L334.191 520.78C333.946 521.398 334.405 522.064 335.062 522.064Z" fill="white"/>
<path d="M333.183 530.297C333.701 530.297 334.121 529.877 334.121 529.359C334.121 528.842 333.701 528.422 333.183 528.422C332.666 528.422 332.246 528.842 332.246 529.359C332.246 529.877 332.666 530.297 333.183 530.297Z" fill="white"/>
<path d="M338.808 530.297C339.326 530.297 339.746 529.877 339.746 529.359C339.746 528.842 339.326 528.422 338.808 528.422C338.291 528.422 337.871 528.842 337.871 529.359C337.871 529.877 338.291 530.297 338.808 530.297Z" fill="white"/>
<path d="M373.686 530.144C372.786 530.144 371.994 529.97 371.31 529.622C370.626 529.262 370.098 528.758 369.726 528.11C369.354 527.462 369.168 526.718 369.168 525.878V521.522C369.168 520.67 369.354 519.926 369.726 519.29C370.098 518.642 370.626 518.144 371.31 517.796C371.994 517.436 372.786 517.256 373.686 517.256C374.574 517.256 375.354 517.43 376.026 517.778C376.71 518.126 377.238 518.6 377.61 519.2C377.982 519.8 378.168 520.478 378.168 521.234V521.378C378.168 521.438 378.144 521.492 378.096 521.54C378.06 521.576 378.012 521.594 377.952 521.594H376.314C376.254 521.594 376.2 521.576 376.152 521.54C376.116 521.492 376.098 521.438 376.098 521.378V521.288C376.098 520.64 375.876 520.106 375.432 519.686C375 519.266 374.418 519.056 373.686 519.056C372.954 519.056 372.366 519.278 371.922 519.722C371.478 520.154 371.256 520.73 371.256 521.45V525.95C371.256 526.67 371.49 527.252 371.958 527.696C372.426 528.128 373.032 528.344 373.776 528.344C374.496 528.344 375.06 528.158 375.468 527.786C375.888 527.402 376.098 526.88 376.098 526.22V525.104C376.098 525.044 376.068 525.014 376.008 525.014H373.794C373.734 525.014 373.68 524.996 373.632 524.96C373.596 524.912 373.578 524.858 373.578 524.798V523.466C373.578 523.406 373.596 523.358 373.632 523.322C373.68 523.274 373.734 523.25 373.794 523.25H377.952C378.012 523.25 378.06 523.274 378.096 523.322C378.144 523.358 378.168 523.406 378.168 523.466V525.77C378.168 527.15 377.76 528.224 376.944 528.992C376.14 529.76 375.054 530.144 373.686 530.144ZM383.755 520.658C384.511 520.658 385.177 520.79 385.753 521.054C386.329 521.318 386.773 521.684 387.085 522.152C387.397 522.608 387.553 523.13 387.553 523.718V529.784C387.553 529.844 387.529 529.898 387.481 529.946C387.445 529.982 387.397 530 387.337 530H385.681C385.621 530 385.567 529.982 385.519 529.946C385.483 529.898 385.465 529.844 385.465 529.784V529.208C385.465 529.172 385.453 529.154 385.429 529.154C385.405 529.142 385.381 529.148 385.357 529.172C384.769 529.82 383.917 530.144 382.801 530.144C381.901 530.144 381.157 529.916 380.569 529.46C379.993 529.004 379.705 528.326 379.705 527.426C379.705 526.49 380.029 525.764 380.677 525.248C381.337 524.72 382.261 524.456 383.449 524.456H385.375C385.435 524.456 385.465 524.426 385.465 524.366V523.934C385.465 523.466 385.327 523.106 385.051 522.854C384.775 522.59 384.361 522.458 383.809 522.458C383.353 522.458 382.981 522.542 382.693 522.71C382.417 522.866 382.243 523.088 382.171 523.376C382.135 523.52 382.051 523.58 381.919 523.556L380.173 523.34C380.113 523.328 380.059 523.31 380.011 523.286C379.975 523.25 379.963 523.208 379.975 523.16C380.071 522.428 380.461 521.828 381.145 521.36C381.841 520.892 382.711 520.658 383.755 520.658ZM383.323 528.488C383.911 528.488 384.415 528.332 384.835 528.02C385.255 527.708 385.465 527.312 385.465 526.832V525.986C385.465 525.926 385.435 525.896 385.375 525.896H383.863C383.227 525.896 382.723 526.016 382.351 526.256C381.991 526.496 381.811 526.838 381.811 527.282C381.811 527.666 381.949 527.966 382.225 528.182C382.513 528.386 382.879 528.488 383.323 528.488ZM399.495 520.658C400.419 520.658 401.139 520.94 401.655 521.504C402.183 522.056 402.447 522.83 402.447 523.826V529.784C402.447 529.844 402.423 529.898 402.375 529.946C402.339 529.982 402.291 530 402.231 530H400.593C400.533 530 400.479 529.982 400.431 529.946C400.395 529.898 400.377 529.844 400.377 529.784V524.258C400.377 523.706 400.227 523.268 399.927 522.944C399.639 522.62 399.249 522.458 398.757 522.458C398.265 522.458 397.863 522.62 397.551 522.944C397.239 523.268 397.083 523.7 397.083 524.24V529.784C397.083 529.844 397.059 529.898 397.011 529.946C396.975 529.982 396.927 530 396.867 530H395.229C395.169 530 395.115 529.982 395.067 529.946C395.031 529.898 395.013 529.844 395.013 529.784V524.258C395.013 523.706 394.863 523.268 394.563 522.944C394.263 522.62 393.867 522.458 393.375 522.458C392.919 522.458 392.541 522.59 392.241 522.854C391.953 523.118 391.785 523.478 391.737 523.934V529.784C391.737 529.844 391.713 529.898 391.665 529.946C391.629 529.982 391.581 530 391.521 530H389.865C389.805 530 389.751 529.982 389.703 529.946C389.667 529.898 389.649 529.844 389.649 529.784V521.018C389.649 520.958 389.667 520.91 389.703 520.874C389.751 520.826 389.805 520.802 389.865 520.802H391.521C391.581 520.802 391.629 520.826 391.665 520.874C391.713 520.91 391.737 520.958 391.737 521.018V521.612C391.737 521.648 391.749 521.672 391.773 521.684C391.797 521.696 391.821 521.684 391.845 521.648C392.109 521.312 392.433 521.066 392.817 520.91C393.213 520.742 393.651 520.658 394.131 520.658C394.719 520.658 395.235 520.778 395.679 521.018C396.123 521.258 396.465 521.606 396.705 522.062C396.741 522.11 396.783 522.11 396.831 522.062C397.095 521.582 397.461 521.228 397.929 521C398.397 520.772 398.919 520.658 399.495 520.658ZM412.261 524.366C412.309 524.666 412.333 525.002 412.333 525.374L412.315 525.932C412.315 526.076 412.243 526.148 412.099 526.148H406.465C406.405 526.148 406.375 526.178 406.375 526.238C406.411 526.634 406.465 526.904 406.537 527.048C406.825 527.912 407.527 528.35 408.643 528.362C409.459 528.362 410.107 528.026 410.587 527.354C410.635 527.282 410.695 527.246 410.767 527.246C410.815 527.246 410.857 527.264 410.893 527.3L412.009 528.218C412.117 528.302 412.135 528.398 412.063 528.506C411.691 529.034 411.193 529.442 410.569 529.73C409.957 530.018 409.273 530.162 408.517 530.162C407.581 530.162 406.783 529.952 406.123 529.532C405.475 529.112 405.001 528.524 404.701 527.768C404.425 527.12 404.287 526.22 404.287 525.068C404.287 524.372 404.359 523.808 404.503 523.376C404.743 522.536 405.193 521.876 405.853 521.396C406.525 520.904 407.329 520.658 408.265 520.658C410.629 520.658 411.961 521.894 412.261 524.366ZM408.265 522.458C407.821 522.458 407.449 522.572 407.149 522.8C406.861 523.016 406.657 523.322 406.537 523.718C406.465 523.922 406.417 524.186 406.393 524.51C406.369 524.57 406.393 524.6 406.465 524.6H410.119C410.179 524.6 410.209 524.57 410.209 524.51C410.185 524.21 410.149 523.982 410.101 523.826C409.993 523.394 409.777 523.058 409.453 522.818C409.141 522.578 408.745 522.458 408.265 522.458ZM423.551 517.616C423.551 517.556 423.569 517.508 423.605 517.472C423.653 517.424 423.707 517.4 423.767 517.4H425.423C425.483 517.4 425.531 517.424 425.567 517.472C425.615 517.508 425.639 517.556 425.639 517.616V529.784C425.639 529.844 425.615 529.898 425.567 529.946C425.531 529.982 425.483 530 425.423 530H423.767C423.707 530 423.653 529.982 423.605 529.946C423.569 529.898 423.551 529.844 423.551 529.784V529.244C423.551 529.208 423.539 529.184 423.515 529.172C423.491 529.16 423.467 529.172 423.443 529.208C422.915 529.832 422.225 530.144 421.373 530.144C420.521 530.144 419.801 529.922 419.213 529.478C418.625 529.034 418.199 528.416 417.935 527.624C417.719 526.952 417.611 526.202 417.611 525.374C417.611 524.522 417.713 523.79 417.917 523.178C418.181 522.386 418.607 521.768 419.195 521.324C419.783 520.88 420.521 520.658 421.409 520.658C422.237 520.658 422.915 520.958 423.443 521.558C423.467 521.582 423.491 521.594 423.515 521.594C423.539 521.582 423.551 521.558 423.551 521.522V517.616ZM423.119 527.48C423.395 526.988 423.533 526.292 423.533 525.392C423.533 524.456 423.383 523.742 423.083 523.25C422.759 522.722 422.303 522.458 421.715 522.458C421.103 522.458 420.623 522.71 420.275 523.214C419.915 523.742 419.735 524.474 419.735 525.41C419.735 526.25 419.879 526.94 420.167 527.48C420.503 528.056 421.013 528.344 421.697 528.344C422.309 528.344 422.783 528.056 423.119 527.48ZM435.657 524.366C435.705 524.666 435.729 525.002 435.729 525.374L435.711 525.932C435.711 526.076 435.639 526.148 435.495 526.148H429.861C429.801 526.148 429.771 526.178 429.771 526.238C429.807 526.634 429.861 526.904 429.933 527.048C430.221 527.912 430.923 528.35 432.039 528.362C432.855 528.362 433.503 528.026 433.983 527.354C434.031 527.282 434.091 527.246 434.163 527.246C434.211 527.246 434.253 527.264 434.289 527.3L435.405 528.218C435.513 528.302 435.531 528.398 435.459 528.506C435.087 529.034 434.589 529.442 433.965 529.73C433.353 530.018 432.669 530.162 431.913 530.162C430.977 530.162 430.179 529.952 429.519 529.532C428.871 529.112 428.397 528.524 428.097 527.768C427.821 527.12 427.683 526.22 427.683 525.068C427.683 524.372 427.755 523.808 427.899 523.376C428.139 522.536 428.589 521.876 429.249 521.396C429.921 520.904 430.725 520.658 431.661 520.658C434.025 520.658 435.357 521.894 435.657 524.366ZM431.661 522.458C431.217 522.458 430.845 522.572 430.545 522.8C430.257 523.016 430.053 523.322 429.933 523.718C429.861 523.922 429.813 524.186 429.789 524.51C429.765 524.57 429.789 524.6 429.861 524.6H433.515C433.575 524.6 433.605 524.57 433.605 524.51C433.581 524.21 433.545 523.982 433.497 523.826C433.389 523.394 433.173 523.058 432.849 522.818C432.537 522.578 432.141 522.458 431.661 522.458ZM439.717 530C439.597 530 439.519 529.94 439.483 529.82L436.585 521.036C436.573 521.012 436.567 520.982 436.567 520.946C436.567 520.838 436.633 520.784 436.765 520.784H438.601C438.733 520.784 438.817 520.844 438.853 520.964L440.599 526.976C440.611 527.012 440.629 527.03 440.653 527.03C440.677 527.03 440.695 527.012 440.707 526.976L442.453 520.964C442.489 520.844 442.573 520.784 442.705 520.784L444.541 520.82C444.613 520.82 444.667 520.844 444.703 520.892C444.739 520.928 444.745 520.988 444.721 521.072L441.841 529.82C441.805 529.94 441.727 530 441.607 530H439.717ZM453.569 524.366C453.617 524.666 453.641 525.002 453.641 525.374L453.623 525.932C453.623 526.076 453.551 526.148 453.407 526.148H447.773C447.713 526.148 447.683 526.178 447.683 526.238C447.719 526.634 447.773 526.904 447.845 527.048C448.133 527.912 448.835 528.35 449.951 528.362C450.767 528.362 451.415 528.026 451.895 527.354C451.943 527.282 452.003 527.246 452.075 527.246C452.123 527.246 452.165 527.264 452.201 527.3L453.317 528.218C453.425 528.302 453.443 528.398 453.371 528.506C452.999 529.034 452.501 529.442 451.877 529.73C451.265 530.018 450.581 530.162 449.825 530.162C448.889 530.162 448.091 529.952 447.431 529.532C446.783 529.112 446.309 528.524 446.009 527.768C445.733 527.12 445.595 526.22 445.595 525.068C445.595 524.372 445.667 523.808 445.811 523.376C446.051 522.536 446.501 521.876 447.161 521.396C447.833 520.904 448.637 520.658 449.573 520.658C451.937 520.658 453.269 521.894 453.569 524.366ZM449.573 522.458C449.129 522.458 448.757 522.572 448.457 522.8C448.169 523.016 447.965 523.322 447.845 523.718C447.773 523.922 447.725 524.186 447.701 524.51C447.677 524.57 447.701 524.6 447.773 524.6H451.427C451.487 524.6 451.517 524.57 451.517 524.51C451.493 524.21 451.457 523.982 451.409 523.826C451.301 523.394 451.085 523.058 450.761 522.818C450.449 522.578 450.053 522.458 449.573 522.458ZM455.766 530C455.706 530 455.652 529.982 455.604 529.946C455.568 529.898 455.55 529.844 455.55 529.784V517.616C455.55 517.556 455.568 517.508 455.604 517.472C455.652 517.424 455.706 517.4 455.766 517.4H457.422C457.482 517.4 457.53 517.424 457.566 517.472C457.614 517.508 457.638 517.556 457.638 517.616V529.784C457.638 529.844 457.614 529.898 457.566 529.946C457.53 529.982 457.482 530 457.422 530H455.766ZM463.762 530.144C462.814 530.144 461.998 529.904 461.314 529.424C460.642 528.944 460.168 528.278 459.892 527.426C459.688 526.778 459.586 526.094 459.586 525.374C459.586 524.606 459.682 523.922 459.874 523.322C460.15 522.482 460.63 521.828 461.314 521.36C461.998 520.892 462.82 520.658 463.78 520.658C464.692 520.658 465.478 520.892 466.138 521.36C466.81 521.828 467.284 522.476 467.56 523.304C467.776 523.88 467.884 524.564 467.884 525.356C467.884 526.112 467.782 526.796 467.578 527.408C467.302 528.26 466.828 528.932 466.156 529.424C465.484 529.904 464.686 530.144 463.762 530.144ZM463.762 528.344C464.206 528.344 464.584 528.218 464.896 527.966C465.22 527.714 465.454 527.36 465.598 526.904C465.718 526.508 465.778 526.004 465.778 525.392C465.778 524.744 465.718 524.24 465.598 523.88C465.466 523.424 465.238 523.076 464.914 522.836C464.59 522.584 464.194 522.458 463.726 522.458C463.282 522.458 462.898 522.584 462.574 522.836C462.25 523.076 462.016 523.424 461.872 523.88C461.752 524.3 461.692 524.804 461.692 525.392C461.692 525.98 461.752 526.484 461.872 526.904C462.004 527.36 462.232 527.714 462.556 527.966C462.892 528.218 463.294 528.344 463.762 528.344ZM477.652 523.178C477.868 523.79 477.976 524.54 477.976 525.428C477.976 526.28 477.874 527.012 477.67 527.624C477.406 528.416 476.98 529.034 476.392 529.478C475.816 529.922 475.084 530.144 474.196 530.144C473.344 530.144 472.66 529.838 472.144 529.226C472.12 529.202 472.096 529.196 472.072 529.208C472.048 529.22 472.036 529.244 472.036 529.28V533.186C472.036 533.246 472.012 533.294 471.964 533.33C471.928 533.378 471.88 533.402 471.82 533.402H470.164C470.104 533.402 470.05 533.378 470.002 533.33C469.966 533.294 469.948 533.246 469.948 533.186V521.018C469.948 520.958 469.966 520.91 470.002 520.874C470.05 520.826 470.104 520.802 470.164 520.802H471.82C471.88 520.802 471.928 520.826 471.964 520.874C472.012 520.91 472.036 520.958 472.036 521.018V521.558C472.036 521.594 472.048 521.618 472.072 521.63C472.096 521.642 472.12 521.63 472.144 521.594C472.672 520.97 473.362 520.658 474.214 520.658C475.066 520.658 475.786 520.88 476.374 521.324C476.962 521.768 477.388 522.386 477.652 523.178ZM475.312 527.588C475.672 527.036 475.852 526.304 475.852 525.392C475.852 524.516 475.708 523.826 475.42 523.322C475.084 522.734 474.574 522.44 473.89 522.44C473.266 522.44 472.798 522.728 472.486 523.304C472.21 523.772 472.072 524.468 472.072 525.392C472.072 526.34 472.222 527.06 472.522 527.552C472.834 528.08 473.284 528.344 473.872 528.344C474.508 528.344 474.988 528.092 475.312 527.588ZM489.847 520.658C490.771 520.658 491.491 520.94 492.007 521.504C492.535 522.056 492.799 522.83 492.799 523.826V529.784C492.799 529.844 492.775 529.898 492.727 529.946C492.691 529.982 492.643 530 492.583 530H490.945C490.885 530 490.831 529.982 490.783 529.946C490.747 529.898 490.729 529.844 490.729 529.784V524.258C490.729 523.706 490.579 523.268 490.279 522.944C489.991 522.62 489.601 522.458 489.109 522.458C488.617 522.458 488.215 522.62 487.903 522.944C487.591 523.268 487.435 523.7 487.435 524.24V529.784C487.435 529.844 487.411 529.898 487.363 529.946C487.327 529.982 487.279 530 487.219 530H485.581C485.521 530 485.467 529.982 485.419 529.946C485.383 529.898 485.365 529.844 485.365 529.784V524.258C485.365 523.706 485.215 523.268 484.915 522.944C484.615 522.62 484.219 522.458 483.727 522.458C483.271 522.458 482.893 522.59 482.593 522.854C482.305 523.118 482.137 523.478 482.089 523.934V529.784C482.089 529.844 482.065 529.898 482.017 529.946C481.981 529.982 481.933 530 481.873 530H480.217C480.157 530 480.103 529.982 480.055 529.946C480.019 529.898 480.001 529.844 480.001 529.784V521.018C480.001 520.958 480.019 520.91 480.055 520.874C480.103 520.826 480.157 520.802 480.217 520.802H481.873C481.933 520.802 481.981 520.826 482.017 520.874C482.065 520.91 482.089 520.958 482.089 521.018V521.612C482.089 521.648 482.101 521.672 482.125 521.684C482.149 521.696 482.173 521.684 482.197 521.648C482.461 521.312 482.785 521.066 483.169 520.91C483.565 520.742 484.003 520.658 484.483 520.658C485.071 520.658 485.587 520.778 486.031 521.018C486.475 521.258 486.817 521.606 487.057 522.062C487.093 522.11 487.135 522.11 487.183 522.062C487.447 521.582 487.813 521.228 488.281 521C488.749 520.772 489.271 520.658 489.847 520.658ZM502.612 524.366C502.66 524.666 502.684 525.002 502.684 525.374L502.666 525.932C502.666 526.076 502.594 526.148 502.45 526.148H496.816C496.756 526.148 496.726 526.178 496.726 526.238C496.762 526.634 496.816 526.904 496.888 527.048C497.176 527.912 497.878 528.35 498.994 528.362C499.81 528.362 500.458 528.026 500.938 527.354C500.986 527.282 501.046 527.246 501.118 527.246C501.166 527.246 501.208 527.264 501.244 527.3L502.36 528.218C502.468 528.302 502.486 528.398 502.414 528.506C502.042 529.034 501.544 529.442 500.92 529.73C500.308 530.018 499.624 530.162 498.868 530.162C497.932 530.162 497.134 529.952 496.474 529.532C495.826 529.112 495.352 528.524 495.052 527.768C494.776 527.12 494.638 526.22 494.638 525.068C494.638 524.372 494.71 523.808 494.854 523.376C495.094 522.536 495.544 521.876 496.204 521.396C496.876 520.904 497.68 520.658 498.616 520.658C500.98 520.658 502.312 521.894 502.612 524.366ZM498.616 522.458C498.172 522.458 497.8 522.572 497.5 522.8C497.212 523.016 497.008 523.322 496.888 523.718C496.816 523.922 496.768 524.186 496.744 524.51C496.72 524.57 496.744 524.6 496.816 524.6H500.47C500.53 524.6 500.56 524.57 500.56 524.51C500.536 524.21 500.5 523.982 500.452 523.826C500.344 523.394 500.128 523.058 499.804 522.818C499.492 522.578 499.096 522.458 498.616 522.458ZM509.003 520.658C509.975 520.658 510.749 520.946 511.325 521.522C511.913 522.098 512.207 522.884 512.207 523.88V529.784C512.207 529.844 512.183 529.898 512.135 529.946C512.099 529.982 512.051 530 511.991 530H510.335C510.275 530 510.221 529.982 510.173 529.946C510.137 529.898 510.119 529.844 510.119 529.784V524.312C510.119 523.76 509.963 523.316 509.651 522.98C509.339 522.632 508.925 522.458 508.409 522.458C507.893 522.458 507.473 522.626 507.149 522.962C506.837 523.298 506.681 523.742 506.681 524.294V529.784C506.681 529.844 506.657 529.898 506.609 529.946C506.573 529.982 506.525 530 506.465 530H504.809C504.749 530 504.695 529.982 504.647 529.946C504.611 529.898 504.593 529.844 504.593 529.784V521.018C504.593 520.958 504.611 520.91 504.647 520.874C504.695 520.826 504.749 520.802 504.809 520.802H506.465C506.525 520.802 506.573 520.826 506.609 520.874C506.657 520.91 506.681 520.958 506.681 521.018V521.594C506.681 521.63 506.693 521.654 506.717 521.666C506.741 521.678 506.759 521.666 506.771 521.63C507.263 520.982 508.007 520.658 509.003 520.658ZM519.262 522.278C519.262 522.338 519.238 522.392 519.19 522.44C519.154 522.476 519.106 522.494 519.046 522.494H517.21C517.15 522.494 517.12 522.524 517.12 522.584V526.922C517.12 527.378 517.216 527.708 517.408 527.912C517.612 528.116 517.93 528.218 518.362 528.218H518.902C518.962 528.218 519.01 528.242 519.046 528.29C519.094 528.326 519.118 528.374 519.118 528.434V529.784C519.118 529.916 519.046 529.994 518.902 530.018L517.966 530.036C517.018 530.036 516.31 529.874 515.842 529.55C515.374 529.226 515.134 528.614 515.122 527.714V522.584C515.122 522.524 515.092 522.494 515.032 522.494H514.006C513.946 522.494 513.892 522.476 513.844 522.44C513.808 522.392 513.79 522.338 513.79 522.278V521.018C513.79 520.958 513.808 520.91 513.844 520.874C513.892 520.826 513.946 520.802 514.006 520.802H515.032C515.092 520.802 515.122 520.772 515.122 520.712V518.606C515.122 518.546 515.14 518.498 515.176 518.462C515.224 518.414 515.278 518.39 515.338 518.39H516.904C516.964 518.39 517.012 518.414 517.048 518.462C517.096 518.498 517.12 518.546 517.12 518.606V520.712C517.12 520.772 517.15 520.802 517.21 520.802H519.046C519.106 520.802 519.154 520.826 519.19 520.874C519.238 520.91 519.262 520.958 519.262 521.018V522.278Z" fill="white"/>
<path d="M364 269L304 269" stroke="white" stroke-width="2"/>
<path d="M437 605V665" stroke="white" stroke-width="2"/>
<path d="M205 542L145 542" stroke="white" stroke-width="2"/>
<path d="M271 505L237 505" stroke="white" stroke-width="2"/>
<circle opacity="0.2" cx="105.931" cy="268.776" r="13.4815" fill="#66BE53"/>
<circle cx="105.933" cy="268.778" r="6.93333" fill="#66BE53"/>
<circle opacity="0.2" cx="112.817" cy="440.929" r="13.4815" fill="#66BE53"/>
<circle cx="112.82" cy="440.93" r="6.93333" fill="#66BE53"/>
<circle opacity="0.2" cx="125.997" cy="662.26" r="13.4815" fill="#66BE53"/>
<circle cx="126" cy="662.261" r="6.93333" fill="#66BE53"/>
<circle opacity="0.2" cx="259.997" cy="770.48" r="13.4815" fill="#66BE53"/>
<circle cx="260" cy="770.481" r="6.93333" fill="#66BE53"/>
<rect y="230.258" width="77.037" height="77.037" rx="15.4074" fill="#131412"/>
<rect x="0.962963" y="231.221" width="75.1111" height="75.1111" rx="14.4444" stroke="white" stroke-opacity="0.2" stroke-width="1.92593"/>
<rect x="9.62976" y="239.889" width="57.7778" height="57.7778" rx="10.0483" fill="#512BD4" fill-opacity="0.3"/>
<path d="M17.5348 277.57C17.0835 277.57 16.6997 277.413 16.3838 277.099C16.0678 276.777 15.91 276.394 15.91 275.952C15.91 275.501 16.0678 275.114 16.3838 274.792C16.6997 274.47 17.0835 274.309 17.5348 274.309C17.9936 274.309 18.381 274.47 18.697 274.792C19.0205 275.114 19.1822 275.501 19.1822 275.952C19.1822 276.394 19.0205 276.777 18.697 277.099C18.381 277.413 17.9938 277.57 17.5348 277.57ZM35.5788 275.427C35.5788 276.464 34.7382 277.304 33.7013 277.304C33.0453 277.304 32.4369 276.962 32.0965 276.401L24.9151 264.575C24.7265 264.265 24.5669 263.937 24.4387 263.596C24.4333 263.582 24.4198 263.572 24.4047 263.572C24.3824 263.572 24.3654 263.592 24.3686 263.614C24.4245 264.001 24.4524 264.78 24.4524 265.951V276.007C24.4524 276.723 23.8714 277.304 23.1547 277.304C22.438 277.304 21.857 276.723 21.857 276.007V261.982C21.857 260.879 22.7508 259.985 23.8534 259.985C24.5541 259.985 25.2035 260.353 25.5645 260.953L32.453 272.413C32.7614 272.916 32.9622 273.265 33.0556 273.461C33.0598 273.47 33.0685 273.476 33.0782 273.476C33.0935 273.476 33.1053 273.462 33.1029 273.447C33.0308 272.985 32.9947 272.217 32.9947 271.145V261.277C32.9947 260.564 33.5731 259.985 34.2867 259.985C35.0003 259.985 35.5788 260.564 35.5788 261.277V275.427ZM48.2175 276.09C48.2175 276.761 47.6741 277.304 47.0037 277.304H43.6756C41.1672 277.304 39.1338 275.271 39.1338 272.762V264.347C39.1338 261.938 41.0864 259.985 43.4951 259.985H46.6366C47.3103 259.985 47.8564 260.531 47.8564 261.205C47.8564 261.879 47.3103 262.425 46.6366 262.425H44.2711C42.917 262.425 41.8194 263.523 41.8194 264.877C41.8194 266.231 42.917 267.328 44.2711 267.328H46.1689C46.8392 267.328 47.3826 267.872 47.3826 268.542C47.3826 269.212 46.8392 269.756 46.1689 269.756H44.3798C42.9657 269.756 41.8194 270.902 41.8194 272.316C41.8194 273.73 42.9657 274.877 44.3798 274.877H47.0037C47.6741 274.877 48.2175 275.42 48.2175 276.09ZM61.1274 261.205C61.1274 261.879 60.5812 262.425 59.9075 262.425H58.8028C57.5189 262.425 56.4782 263.466 56.4782 264.75V275.961C56.4782 276.703 55.877 277.304 55.1354 277.304C54.3937 277.304 53.7926 276.703 53.7926 275.961V264.744C53.7926 263.463 52.7543 262.425 51.4736 262.425H50.3745C49.7008 262.425 49.1547 261.879 49.1547 261.205C49.1547 260.531 49.7008 259.985 50.3745 259.985H59.9075C60.5812 259.985 61.1274 260.531 61.1274 261.205Z" fill="white"/>
<path d="M25.649 325.323C25.3597 325.323 25.1217 325.23 24.935 325.043C24.7484 324.856 24.655 324.618 24.655 324.329C24.655 324.04 24.7484 323.802 24.935 323.615C25.1217 323.428 25.3597 323.335 25.649 323.335C25.9384 323.335 26.1717 323.428 26.349 323.615C26.5357 323.802 26.629 324.04 26.629 324.329C26.629 324.618 26.5357 324.856 26.349 325.043C26.1624 325.23 25.929 325.323 25.649 325.323ZM34.3352 315.663C34.3352 315.616 34.3492 315.579 34.3772 315.551C34.4145 315.514 34.4565 315.495 34.5032 315.495H35.7912C35.8378 315.495 35.8752 315.514 35.9032 315.551C35.9405 315.579 35.9592 315.616 35.9592 315.663V325.127C35.9592 325.174 35.9405 325.216 35.9032 325.253C35.8752 325.281 35.8378 325.295 35.7912 325.295H34.5452C34.4518 325.295 34.3865 325.258 34.3492 325.183L30.3172 318.575C30.2985 318.547 30.2798 318.538 30.2612 318.547C30.2425 318.547 30.2332 318.566 30.2332 318.603L30.2612 325.127C30.2612 325.174 30.2425 325.216 30.2052 325.253C30.1772 325.281 30.1398 325.295 30.0932 325.295H28.8052C28.7585 325.295 28.7165 325.281 28.6792 325.253C28.6512 325.216 28.6372 325.174 28.6372 325.127V315.663C28.6372 315.616 28.6512 315.579 28.6792 315.551C28.7165 315.514 28.7585 315.495 28.8052 315.495H30.0512C30.1445 315.495 30.2098 315.532 30.2472 315.607L34.2652 322.215C34.2838 322.243 34.3025 322.257 34.3212 322.257C34.3398 322.248 34.3492 322.224 34.3492 322.187L34.3352 315.663ZM44.5154 316.727C44.5154 316.774 44.4967 316.816 44.4594 316.853C44.4314 316.881 44.394 316.895 44.3474 316.895H39.5734C39.5267 316.895 39.5034 316.918 39.5034 316.965V319.583C39.5034 319.63 39.5267 319.653 39.5734 319.653H42.7794C42.826 319.653 42.8634 319.672 42.8914 319.709C42.9287 319.737 42.9474 319.774 42.9474 319.821V320.885C42.9474 320.932 42.9287 320.974 42.8914 321.011C42.8634 321.039 42.826 321.053 42.7794 321.053H39.5734C39.5267 321.053 39.5034 321.076 39.5034 321.123V323.825C39.5034 323.872 39.5267 323.895 39.5734 323.895H44.3474C44.394 323.895 44.4314 323.914 44.4594 323.951C44.4967 323.979 44.5154 324.016 44.5154 324.063V325.127C44.5154 325.174 44.4967 325.216 44.4594 325.253C44.4314 325.281 44.394 325.295 44.3474 325.295H38.0474C38.0007 325.295 37.9587 325.281 37.9214 325.253C37.8934 325.216 37.8794 325.174 37.8794 325.127V315.663C37.8794 315.616 37.8934 315.579 37.9214 315.551C37.9587 315.514 38.0007 315.495 38.0474 315.495H44.3474C44.394 315.495 44.4314 315.514 44.4594 315.551C44.4967 315.579 44.5154 315.616 44.5154 315.663V316.727ZM52.6045 315.495C52.6512 315.495 52.6885 315.514 52.7165 315.551C52.7539 315.579 52.7725 315.616 52.7725 315.663V316.741C52.7725 316.788 52.7539 316.83 52.7165 316.867C52.6885 316.895 52.6512 316.909 52.6045 316.909H50.0285C49.9819 316.909 49.9585 316.932 49.9585 316.979V325.127C49.9585 325.174 49.9399 325.216 49.9025 325.253C49.8745 325.281 49.8372 325.295 49.7905 325.295H48.5025C48.4559 325.295 48.4139 325.281 48.3765 325.253C48.3485 325.216 48.3345 325.174 48.3345 325.127V316.979C48.3345 316.932 48.3112 316.909 48.2645 316.909H45.7865C45.7399 316.909 45.6979 316.895 45.6605 316.867C45.6325 316.83 45.6185 316.788 45.6185 316.741V315.663C45.6185 315.616 45.6325 315.579 45.6605 315.551C45.6979 315.514 45.7399 315.495 45.7865 315.495H52.6045Z" fill="white"/>
<rect x="24" y="627.037" width="77.037" height="77.037" rx="15.4074" fill="#131412"/>
<rect x="24.963" y="628" width="75.1111" height="75.1111" rx="14.4444" stroke="white" stroke-opacity="0.2" stroke-width="1.92593"/>
<rect x="33.6332" y="636.667" width="57.7778" height="57.7778" rx="10.0483" fill="#5382A1" fill-opacity="0.4"/>
<path d="M68.8143 669.471C69.5319 669.011 70.5273 668.613 70.5273 668.613C70.5273 668.613 67.6943 669.094 64.8759 669.313C61.4279 669.581 57.7237 669.636 55.8642 669.403C51.4645 668.853 58.28 667.335 58.28 667.335C58.28 667.335 55.6372 667.17 52.3795 668.64C48.5363 670.385 61.8963 671.182 68.8143 669.471Z" fill="#5382A1"/>
<path d="M62.5666 667.268C61.1756 664.335 56.4831 661.759 62.5666 657.253C70.1581 651.634 66.2635 647.98 66.2635 647.98C67.8374 653.784 60.7291 655.543 58.1595 659.149C56.4098 661.615 59.016 664.259 62.5666 667.268Z" fill="#F8981D"/>
<path d="M70.9549 655.165C70.9623 655.165 58.1292 658.174 64.2566 664.795C66.0648 666.746 63.7807 668.505 63.7807 668.505C63.7807 668.505 68.3708 666.279 66.2625 663.497C64.2932 660.901 62.7851 659.609 70.9549 655.165Z" fill="#F8981D"/>
<path d="M70.504 673.749C70.4674 673.831 70.3575 673.921 70.3575 673.927C79.7498 671.613 76.2945 665.76 71.8069 667.244C71.4115 667.374 71.2068 667.677 71.2068 667.677C71.2068 667.677 71.4555 667.58 72.0121 667.471C74.2813 667.024 77.5391 670.321 70.504 673.749Z" fill="#5382A1"/>
<path d="M73.9633 678.023C73.9633 678.023 75.0247 678.84 72.7993 679.479C68.5607 680.681 55.1713 681.045 51.4524 679.527C50.1127 678.985 52.6236 678.222 53.4144 678.064C54.2342 677.899 54.71 677.927 54.71 677.927C53.2239 676.945 45.098 679.857 50.5812 680.688C65.5299 682.969 77.8433 679.665 73.9633 678.023Z" fill="#5382A1"/>
<path d="M57.5966 675.181C51.8352 676.692 61.1032 679.811 68.4383 676.864C67.2379 676.424 66.374 675.916 66.374 675.916C63.1016 676.5 61.5864 676.541 58.6141 676.225C56.1617 675.964 57.5966 675.181 57.5966 675.181Z" fill="#5382A1"/>
<path d="M70.7577 681.857C64.9964 682.873 57.8881 682.757 53.6786 682.104C53.6786 682.097 54.5425 682.77 58.9788 683.038C65.7284 683.444 76.0944 682.811 76.336 679.817C76.336 679.817 75.8676 680.95 70.7577 681.857Z" fill="#5382A1"/>
<path d="M67.5643 672.225C63.2304 673.008 60.7195 672.988 57.5497 672.679C55.0973 672.438 56.7005 671.325 56.7005 671.325C50.3463 673.304 60.2291 675.543 69.1089 673.105C68.1646 672.795 67.5643 672.225 67.5643 672.225Z" fill="#5382A1"/>
<path d="M51.5517 722.186C50.8704 722.186 50.2731 722.06 49.7597 721.808C49.2464 721.547 48.8497 721.183 48.5697 720.716C48.2897 720.25 48.1497 719.708 48.1497 719.092V718.154C48.1497 718.108 48.1637 718.07 48.1917 718.042C48.2291 718.005 48.2711 717.986 48.3177 717.986H49.6057C49.6524 717.986 49.6897 718.005 49.7177 718.042C49.7551 718.07 49.7737 718.108 49.7737 718.154V719.092C49.7737 719.596 49.9324 720.007 50.2497 720.324C50.5764 720.632 51.0104 720.786 51.5517 720.786C52.0744 720.786 52.5037 720.632 52.8397 720.324C53.1757 720.007 53.3437 719.596 53.3437 719.092V712.442C53.3437 712.396 53.3577 712.358 53.3857 712.33C53.4231 712.293 53.4651 712.274 53.5117 712.274H54.7857C54.8324 712.274 54.8697 712.293 54.8977 712.33C54.9351 712.358 54.9537 712.396 54.9537 712.442V719.092C54.9537 719.708 54.8091 720.25 54.5197 720.716C54.2397 721.183 53.8384 721.547 53.3157 721.808C52.8024 722.06 52.2144 722.186 51.5517 722.186ZM59.5745 714.808C60.1625 714.808 60.6805 714.911 61.1285 715.116C61.5765 715.322 61.9218 715.606 62.1645 715.97C62.4072 716.325 62.5285 716.731 62.5285 717.188V721.906C62.5285 721.953 62.5098 721.995 62.4725 722.032C62.4445 722.06 62.4072 722.074 62.3605 722.074H61.0725C61.0258 722.074 60.9838 722.06 60.9465 722.032C60.9185 721.995 60.9045 721.953 60.9045 721.906V721.458C60.9045 721.43 60.8952 721.416 60.8765 721.416C60.8578 721.407 60.8392 721.412 60.8205 721.43C60.3632 721.934 59.7005 722.186 58.8325 722.186C58.1325 722.186 57.5538 722.009 57.0965 721.654C56.6485 721.3 56.4245 720.772 56.4245 720.072C56.4245 719.344 56.6765 718.78 57.1805 718.378C57.6938 717.968 58.4125 717.762 59.3365 717.762H60.8345C60.8812 717.762 60.9045 717.739 60.9045 717.692V717.356C60.9045 716.992 60.7972 716.712 60.5825 716.516C60.3678 716.311 60.0458 716.208 59.6165 716.208C59.2618 716.208 58.9725 716.274 58.7485 716.404C58.5338 716.526 58.3985 716.698 58.3425 716.922C58.3145 717.034 58.2492 717.081 58.1465 717.062L56.7885 716.894C56.7418 716.885 56.6998 716.871 56.6625 716.852C56.6345 716.824 56.6252 716.792 56.6345 716.754C56.7092 716.185 57.0125 715.718 57.5445 715.354C58.0858 714.99 58.7625 714.808 59.5745 714.808ZM59.2385 720.898C59.6958 720.898 60.0878 720.777 60.4145 720.534C60.7412 720.292 60.9045 719.984 60.9045 719.61V718.952C60.9045 718.906 60.8812 718.882 60.8345 718.882H59.6585C59.1638 718.882 58.7718 718.976 58.4825 719.162C58.2025 719.349 58.0625 719.615 58.0625 719.96C58.0625 720.259 58.1698 720.492 58.3845 720.66C58.6085 720.819 58.8932 720.898 59.2385 720.898ZM65.9406 722.074C65.8472 722.074 65.7866 722.028 65.7586 721.934L63.5046 715.102C63.4952 715.084 63.4906 715.06 63.4906 715.032C63.4906 714.948 63.5419 714.906 63.6446 714.906H65.0726C65.1752 714.906 65.2406 714.953 65.2686 715.046L66.6266 719.722C66.6359 719.75 66.6499 719.764 66.6686 719.764C66.6872 719.764 66.7012 719.75 66.7106 719.722L68.0686 715.046C68.0966 714.953 68.1619 714.906 68.2646 714.906L69.6926 714.934C69.7486 714.934 69.7906 714.953 69.8186 714.99C69.8466 715.018 69.8512 715.065 69.8326 715.13L67.5926 721.934C67.5646 722.028 67.5039 722.074 67.4106 722.074H65.9406ZM73.4788 714.808C74.0668 714.808 74.5848 714.911 75.0328 715.116C75.4808 715.322 75.8261 715.606 76.0688 715.97C76.3115 716.325 76.4328 716.731 76.4328 717.188V721.906C76.4328 721.953 76.4141 721.995 76.3768 722.032C76.3488 722.06 76.3115 722.074 76.2648 722.074H74.9768C74.9301 722.074 74.8881 722.06 74.8508 722.032C74.8228 721.995 74.8088 721.953 74.8088 721.906V721.458C74.8088 721.43 74.7995 721.416 74.7808 721.416C74.7621 721.407 74.7435 721.412 74.7248 721.43C74.2675 721.934 73.6048 722.186 72.7368 722.186C72.0368 722.186 71.4581 722.009 71.0008 721.654C70.5528 721.3 70.3288 720.772 70.3288 720.072C70.3288 719.344 70.5808 718.78 71.0848 718.378C71.5981 717.968 72.3168 717.762 73.2408 717.762H74.7388C74.7855 717.762 74.8088 717.739 74.8088 717.692V717.356C74.8088 716.992 74.7015 716.712 74.4868 716.516C74.2721 716.311 73.9501 716.208 73.5208 716.208C73.1661 716.208 72.8768 716.274 72.6528 716.404C72.4381 716.526 72.3028 716.698 72.2468 716.922C72.2188 717.034 72.1535 717.081 72.0508 717.062L70.6928 716.894C70.6461 716.885 70.6041 716.871 70.5668 716.852C70.5388 716.824 70.5295 716.792 70.5388 716.754C70.6135 716.185 70.9168 715.718 71.4488 715.354C71.9901 714.99 72.6668 714.808 73.4788 714.808ZM73.1428 720.898C73.6001 720.898 73.9921 720.777 74.3188 720.534C74.6455 720.292 74.8088 719.984 74.8088 719.61V718.952C74.8088 718.906 74.7855 718.882 74.7388 718.882H73.5628C73.0681 718.882 72.6761 718.976 72.3868 719.162C72.1068 719.349 71.9668 719.615 71.9668 719.96C71.9668 720.259 72.0741 720.492 72.2888 720.66C72.5128 720.819 72.7975 720.898 73.1428 720.898Z" fill="white"/>
<rect x="288.889" y="732" width="77.037" height="77.037" rx="15.4074" fill="#131412"/>
<rect x="289.852" y="732.963" width="75.1111" height="75.1111" rx="14.4444" stroke="white" stroke-opacity="0.2" stroke-width="1.92593"/>
<rect x="298.517" y="741.638" width="57.7778" height="57.7778" rx="10.0483" fill="#FFE98D" fill-opacity="0.4"/>
<path d="M336.107 784.309C336.107 786.807 334.06 788.073 331.982 788.704C328.857 789.656 326.348 789.51 323.736 788.704C321.555 788.031 319.611 786.655 319.611 784.309V776.066C319.611 773.694 321.478 771.668 323.736 771.668L331.85 771.109C334.597 771.109 336.392 769.293 336.392 766.313L337.139 762.328H340.231C342.633 762.328 343.763 764.218 344.356 766.723C345.181 770.202 345.218 772.804 344.356 775.516C343.522 778.15 342.629 779.911 340.231 779.911H336.107H327.861V779.893C334.977 779.911 336.107 776.86 336.107 784.308V784.309Z" fill="url(#paint10_linear_914_59748)"/>
<path d="M330.957 784.857C330.957 783.948 331.65 783.21 332.503 783.21C333.366 783.21 334.049 783.948 334.049 784.857C334.049 785.77 333.358 786.508 332.503 786.508C331.65 786.508 330.957 785.77 330.957 784.857Z" fill="white"/>
<path opacity="0.837" d="M337.136 762.328V766.193C334.191 771.678 328.596 771.688 323.903 771.688L322.162 771.876C319.715 774.104 319.637 777.68 319.639 780.816C325.035 774.438 330.791 773.957 333.663 773.97C339.394 773.997 342.093 772.505 344.83 769.221C344.816 769.157 344.843 769.1 344.83 769.034C344.724 768.303 344.539 767.521 344.346 766.706C344.068 765.532 343.705 764.498 343.115 763.726C343.101 763.711 343.082 763.694 343.071 763.68C343.071 763.68 343.035 763.68 343.028 763.68C343.008 763.654 343.004 763.611 342.985 763.587C342.944 763.556 342.94 763.523 342.898 763.495C342.884 763.48 342.864 763.51 342.854 763.495C342.229 763.066 341.47 762.746 340.7 762.61C340.002 762.488 339.302 762.395 338.59 762.331H338.15H337.139L337.136 762.328Z" fill="url(#paint11_linear_914_59748)"/>
<path d="M336.526 784.315C336.526 786.813 334.066 788.079 331.989 788.71C328.863 789.661 326.355 789.516 323.743 788.71C321.561 788.037 319.597 786.662 319.594 784.316L319.58 775.849C319.572 773.039 321.568 771.267 323.767 771.277L331.077 771.29C333.882 771.29 336.611 768.272 336.603 765.3V762.34H340.238C342.639 762.34 343.769 764.23 344.362 766.735C345.187 770.214 345.225 772.816 344.362 775.528C343.528 778.162 342.635 780.236 340.238 780.236H336.525H327.866V780.218L336.525 780.249L336.526 784.315Z" stroke="#BB9400" stroke-width="2.04734"/>
<path opacity="0.384" d="M337.308 763.081V765.27C337.308 768.676 334.289 772.015 330.849 772.015H323.727C321.266 772.015 320.258 773.988 320.27 776.074L320.319 784.316C320.327 785.271 320.664 785.984 321.31 786.598C321.956 787.212 322.927 787.68 323.948 787.995C326.466 788.772 328.762 788.912 331.773 787.995C332.751 787.698 334.052 787.135 334.706 786.535C335.361 785.935 335.835 785.35 335.835 784.316V780.997H327.157V779.461L340.258 779.506C341.295 779.506 341.802 779.074 342.317 778.443C342.831 777.811 343.279 776.571 343.687 775.282C344.503 772.712 344.493 770.299 343.687 766.9C343.406 765.713 342.998 764.754 342.456 764.106C341.914 763.457 341.285 763.081 340.258 763.081H337.308ZM338.715 764.571H340.258C340.707 764.571 341.293 764.955 341.401 765.083C341.714 765.458 342.074 766.216 342.324 767.272C343.092 770.511 343.094 772.532 342.367 774.816C341.977 776.048 341.572 777.207 341.268 777.56C340.993 777.87 340.405 778.025 340.257 778.025L336.124 777.979H325.749V782.495H334.428V784.324C334.428 784.989 333.587 785.402 333.443 785.535C333.022 785.921 332.276 786.299 331.42 786.559C328.638 787.407 326.672 787.278 324.342 786.559C323.461 786.287 322.697 785.888 322.264 785.499C321.832 785.11 321.805 784.791 321.726 784.324L321.677 776.081C321.666 774.232 322.235 773.513 323.728 773.513H330.85C335.1 773.513 338.715 769.535 338.715 765.277C338.715 765.042 338.715 764.807 338.715 764.571Z" fill="white"/>
<path d="M318.765 756.638C318.765 754.14 319.397 752.78 322.889 752.133C325.26 751.693 328.3 751.638 331.136 752.133C333.375 752.525 335.26 754.292 335.26 756.638V764.881C335.26 767.298 333.43 769.279 331.136 769.279L323.657 769.717C320.859 769.717 317.968 772.307 317.968 775.165L317.732 778.619H314.897C312.498 778.619 311.102 776.787 310.516 774.224C309.724 770.781 309.758 768.729 310.516 765.431C311.173 762.554 313.272 761.036 315.437 761.036H318.532C318.532 761.036 326.254 761.004 318.532 761.007V756.638L318.765 756.638Z" fill="url(#paint12_linear_914_59748)"/>
<path d="M320.824 756.092C320.824 755.177 321.515 754.441 322.37 754.441C323.222 754.441 323.916 755.179 323.916 756.092C323.916 757.001 323.222 757.739 322.37 757.739C321.514 757.739 320.824 757.001 320.824 756.092Z" fill="white"/>
<path opacity="0.377" d="M326.297 751.773C325.077 751.805 323.905 751.953 322.868 752.146C319.376 752.793 318.779 754.165 318.779 756.663L318.524 761.041L315.658 761.041C313.26 761.041 311.171 762.541 310.514 765.418C310.068 767.359 309.866 768.879 309.943 770.494C315.375 763.971 321.205 763.495 324.099 763.509C329.829 763.535 332.528 762.043 335.265 758.759V756.663C335.265 754.317 333.372 752.538 331.133 752.146C329.538 751.867 327.866 751.733 326.297 751.773Z" fill="url(#paint13_linear_914_59748)"/>
<path d="M322.829 752.349C325.954 751.397 328.462 751.543 331.075 752.349C333.256 753.022 335.2 754.397 335.199 756.744V765.643C335.199 766.893 333.494 769.785 331.079 769.785H323.396C321.239 769.785 318.218 772.274 318.218 775.255V778.725H314.583C312.182 778.725 311.051 776.835 310.459 774.33C309.634 770.851 309.595 768.249 310.459 765.537C311.293 762.902 312.185 760.829 314.583 760.829H318.295H326.954V760.846L318.295 760.815L318.311 756.358C318.289 754.533 320.396 753.11 322.829 752.349Z" stroke="#274E70" stroke-width="2.04734"/>
<path opacity="0.165" d="M317.506 777.976V775.419C317.506 772.013 320.438 768.991 323.59 768.991H331.087C332.948 768.991 334.561 766.941 334.544 764.983L334.472 756.741C334.464 755.786 334.151 755.073 333.505 754.459C332.859 753.845 331.888 753.377 330.867 753.062C328.349 752.285 326.053 752.145 323.042 753.062C322.064 753.359 320.763 753.922 320.108 754.522C319.454 755.122 318.98 755.707 318.98 756.741V760.06H327.658V761.597L314.557 761.55C313.521 761.55 313.013 761.982 312.498 762.614C311.984 763.246 311.536 764.486 311.128 765.775C310.312 768.344 310.322 770.758 311.128 774.157C311.409 775.344 311.817 776.303 312.359 776.951C312.901 777.6 313.53 777.976 314.557 777.976L317.506 777.976ZM316.1 776.486H314.557C314.108 776.486 313.521 776.102 313.414 775.973C313.101 775.599 312.741 774.841 312.491 773.785C311.723 770.546 311.721 768.525 312.447 766.241C312.837 765.009 313.242 763.85 313.546 763.506C313.821 763.196 314.402 763.041 314.557 763.041L329.065 763.087V758.57H320.387V756.741C320.387 756.076 321.227 755.663 321.371 755.53C321.792 755.144 322.538 754.766 323.394 754.506C326.176 753.659 328.142 753.787 330.472 754.506C331.354 754.778 332.118 755.177 332.538 755.577C332.688 755.701 332.767 755.849 332.89 755.996C333.062 756.213 333.024 756.499 333.064 756.741V764.984C333.064 766.114 332.152 767.501 331.086 767.501H323.588C319.626 767.501 316.098 771.162 316.098 775.419C316.098 775.774 316.098 776.486 316.098 776.486H316.1Z" fill="white"/>
<path d="M310.68 817.223C311.268 817.223 311.786 817.344 312.234 817.587C312.682 817.83 313.027 818.175 313.27 818.623C313.522 819.062 313.648 819.57 313.648 820.149C313.648 820.718 313.522 821.222 313.27 821.661C313.018 822.1 312.658 822.44 312.192 822.683C311.734 822.916 311.202 823.033 310.596 823.033H308.356C308.309 823.033 308.286 823.056 308.286 823.103V826.869C308.286 826.916 308.267 826.958 308.23 826.995C308.202 827.023 308.164 827.037 308.118 827.037H306.83C306.783 827.037 306.741 827.023 306.704 826.995C306.676 826.958 306.662 826.916 306.662 826.869V817.391C306.662 817.344 306.676 817.307 306.704 817.279C306.741 817.242 306.783 817.223 306.83 817.223H310.68ZM310.442 821.717C310.918 821.717 311.3 821.577 311.59 821.297C311.879 821.017 312.024 820.648 312.024 820.191C312.024 819.724 311.879 819.346 311.59 819.057C311.3 818.768 310.918 818.623 310.442 818.623H308.356C308.309 818.623 308.286 818.646 308.286 818.693V821.647C308.286 821.694 308.309 821.717 308.356 821.717H310.442ZM314.778 829.823C314.75 829.823 314.726 829.804 314.708 829.767C314.689 829.739 314.68 829.702 314.68 829.655V828.647C314.68 828.6 314.694 828.558 314.722 828.521C314.759 828.493 314.801 828.479 314.848 828.479H314.862C315.244 828.47 315.543 828.428 315.758 828.353C315.972 828.288 316.15 828.157 316.29 827.961C316.43 827.765 316.556 827.471 316.668 827.079C316.677 827.06 316.677 827.032 316.668 826.995L314.358 820.065C314.348 820.046 314.344 820.023 314.344 819.995C314.344 819.911 314.39 819.869 314.484 819.869H315.856C315.958 819.869 316.024 819.916 316.052 820.009L317.452 824.937C317.461 824.965 317.475 824.979 317.494 824.979C317.512 824.979 317.526 824.965 317.536 824.937L318.936 820.009C318.964 819.916 319.029 819.869 319.132 819.869H320.462C320.518 819.869 320.555 819.888 320.574 819.925C320.602 819.953 320.606 820 320.588 820.065L318.124 827.429C317.89 828.092 317.662 828.586 317.438 828.913C317.214 829.24 316.906 829.473 316.514 829.613C316.131 829.753 315.585 829.823 314.876 829.823H314.778ZM325.561 821.031C325.561 821.078 325.543 821.12 325.505 821.157C325.477 821.185 325.44 821.199 325.393 821.199H323.965C323.919 821.199 323.895 821.222 323.895 821.269V824.643C323.895 824.998 323.97 825.254 324.119 825.413C324.278 825.572 324.525 825.651 324.861 825.651H325.281C325.328 825.651 325.365 825.67 325.393 825.707C325.431 825.735 325.449 825.772 325.449 825.819V826.869C325.449 826.972 325.393 827.032 325.281 827.051L324.553 827.065C323.816 827.065 323.265 826.939 322.901 826.687C322.537 826.435 322.351 825.959 322.341 825.259V821.269C322.341 821.222 322.318 821.199 322.271 821.199H321.473C321.427 821.199 321.385 821.185 321.347 821.157C321.319 821.12 321.305 821.078 321.305 821.031V820.051C321.305 820.004 321.319 819.967 321.347 819.939C321.385 819.902 321.427 819.883 321.473 819.883H322.271C322.318 819.883 322.341 819.86 322.341 819.813V818.175C322.341 818.128 322.355 818.091 322.383 818.063C322.421 818.026 322.463 818.007 322.509 818.007H323.727C323.774 818.007 323.811 818.026 323.839 818.063C323.877 818.091 323.895 818.128 323.895 818.175V819.813C323.895 819.86 323.919 819.883 323.965 819.883H325.393C325.44 819.883 325.477 819.902 325.505 819.939C325.543 819.967 325.561 820.004 325.561 820.051V821.031ZM330.434 819.771C331.19 819.771 331.792 819.995 332.24 820.443C332.697 820.891 332.926 821.502 332.926 822.277V826.869C332.926 826.916 332.907 826.958 332.87 826.995C332.842 827.023 332.804 827.037 332.758 827.037H331.47C331.423 827.037 331.381 827.023 331.344 826.995C331.316 826.958 331.302 826.916 331.302 826.869V822.613C331.302 822.184 331.18 821.838 330.938 821.577C330.695 821.306 330.373 821.171 329.972 821.171C329.57 821.171 329.244 821.302 328.992 821.563C328.749 821.824 328.628 822.17 328.628 822.599V826.869C328.628 826.916 328.609 826.958 328.572 826.995C328.544 827.023 328.506 827.037 328.46 827.037H327.172C327.125 827.037 327.083 827.023 327.046 826.995C327.018 826.958 327.004 826.916 327.004 826.869V817.405C327.004 817.358 327.018 817.321 327.046 817.293C327.083 817.256 327.125 817.237 327.172 817.237H328.46C328.506 817.237 328.544 817.256 328.572 817.293C328.609 817.321 328.628 817.358 328.628 817.405V820.499C328.628 820.527 328.637 820.546 328.656 820.555C328.674 820.564 328.688 820.555 328.698 820.527C329.08 820.023 329.659 819.771 330.434 819.771ZM337.602 827.149C336.865 827.149 336.23 826.962 335.698 826.589C335.176 826.216 334.807 825.698 334.592 825.035C334.434 824.531 334.354 823.999 334.354 823.439C334.354 822.842 334.429 822.31 334.578 821.843C334.793 821.19 335.166 820.681 335.698 820.317C336.23 819.953 336.87 819.771 337.616 819.771C338.326 819.771 338.937 819.953 339.45 820.317C339.973 820.681 340.342 821.185 340.556 821.829C340.724 822.277 340.808 822.809 340.808 823.425C340.808 824.013 340.729 824.545 340.57 825.021C340.356 825.684 339.987 826.206 339.464 826.589C338.942 826.962 338.321 827.149 337.602 827.149ZM337.602 825.749C337.948 825.749 338.242 825.651 338.484 825.455C338.736 825.259 338.918 824.984 339.03 824.629C339.124 824.321 339.17 823.929 339.17 823.453C339.17 822.949 339.124 822.557 339.03 822.277C338.928 821.922 338.75 821.652 338.498 821.465C338.246 821.269 337.938 821.171 337.574 821.171C337.229 821.171 336.93 821.269 336.678 821.465C336.426 821.652 336.244 821.922 336.132 822.277C336.039 822.604 335.992 822.996 335.992 823.453C335.992 823.91 336.039 824.302 336.132 824.629C336.235 824.984 336.412 825.259 336.664 825.455C336.926 825.651 337.238 825.749 337.602 825.749ZM345.774 819.771C346.53 819.771 347.132 819.995 347.58 820.443C348.037 820.891 348.266 821.502 348.266 822.277V826.869C348.266 826.916 348.247 826.958 348.21 826.995C348.182 827.023 348.144 827.037 348.098 827.037H346.81C346.763 827.037 346.721 827.023 346.684 826.995C346.656 826.958 346.642 826.916 346.642 826.869V822.613C346.642 822.184 346.52 821.838 346.278 821.577C346.035 821.306 345.713 821.171 345.312 821.171C344.91 821.171 344.584 821.302 344.332 821.563C344.089 821.824 343.968 822.17 343.968 822.599V826.869C343.968 826.916 343.949 826.958 343.912 826.995C343.884 827.023 343.846 827.037 343.8 827.037H342.512C342.465 827.037 342.423 827.023 342.386 826.995C342.358 826.958 342.344 826.916 342.344 826.869V820.051C342.344 820.004 342.358 819.967 342.386 819.939C342.423 819.902 342.465 819.883 342.512 819.883H343.8C343.846 819.883 343.884 819.902 343.912 819.939C343.949 819.967 343.968 820.004 343.968 820.051V820.499C343.968 820.527 343.977 820.546 343.996 820.555C344.014 820.564 344.028 820.555 344.038 820.527C344.42 820.023 344.999 819.771 345.774 819.771Z" fill="white"/>
<path d="M169.384 392.112C168.684 392.112 168.068 391.977 167.536 391.706C167.004 391.426 166.593 391.039 166.304 390.544C166.015 390.049 165.87 389.475 165.87 388.822V385.364C165.87 384.711 166.015 384.137 166.304 383.642C166.593 383.147 167.004 382.765 167.536 382.494C168.068 382.223 168.684 382.088 169.384 382.088C170.075 382.088 170.686 382.219 171.218 382.48C171.75 382.741 172.161 383.11 172.45 383.586C172.739 384.062 172.884 384.613 172.884 385.238C172.884 385.285 172.865 385.327 172.828 385.364C172.8 385.392 172.763 385.406 172.716 385.406L171.428 385.476C171.316 385.476 171.26 385.425 171.26 385.322C171.26 384.771 171.087 384.328 170.742 383.992C170.406 383.656 169.953 383.488 169.384 383.488C168.815 383.488 168.357 383.656 168.012 383.992C167.667 384.328 167.494 384.771 167.494 385.322V388.892C167.494 389.433 167.667 389.872 168.012 390.208C168.357 390.544 168.815 390.712 169.384 390.712C169.953 390.712 170.406 390.549 170.742 390.222C171.087 389.886 171.26 389.443 171.26 388.892C171.26 388.789 171.316 388.738 171.428 388.738L172.716 388.794C172.763 388.794 172.8 388.808 172.828 388.836C172.865 388.864 172.884 388.897 172.884 388.934C172.884 389.569 172.739 390.129 172.45 390.614C172.161 391.09 171.75 391.459 171.218 391.72C170.686 391.981 170.075 392.112 169.384 392.112ZM179.847 387.03C179.894 387.03 179.931 387.049 179.959 387.086C179.997 387.114 180.015 387.151 180.015 387.198V388.262C180.015 388.309 179.997 388.351 179.959 388.388C179.931 388.416 179.894 388.43 179.847 388.43H177.803C177.757 388.43 177.733 388.453 177.733 388.5V390.516C177.733 390.563 177.715 390.605 177.677 390.642C177.649 390.67 177.612 390.684 177.565 390.684H176.515C176.469 390.684 176.427 390.67 176.389 390.642C176.361 390.605 176.347 390.563 176.347 390.516V388.5C176.347 388.453 176.324 388.43 176.277 388.43H174.219C174.173 388.43 174.131 388.416 174.093 388.388C174.065 388.351 174.051 388.309 174.051 388.262V387.198C174.051 387.151 174.065 387.114 174.093 387.086C174.131 387.049 174.173 387.03 174.219 387.03H176.277C176.324 387.03 176.347 387.007 176.347 386.96V384.888C176.347 384.841 176.361 384.804 176.389 384.776C176.427 384.739 176.469 384.72 176.515 384.72H177.565C177.612 384.72 177.649 384.739 177.677 384.776C177.715 384.804 177.733 384.841 177.733 384.888V386.96C177.733 387.007 177.757 387.03 177.803 387.03H179.847ZM186.724 387.03C186.771 387.03 186.808 387.049 186.836 387.086C186.874 387.114 186.892 387.151 186.892 387.198V388.262C186.892 388.309 186.874 388.351 186.836 388.388C186.808 388.416 186.771 388.43 186.724 388.43H184.68C184.634 388.43 184.61 388.453 184.61 388.5V390.516C184.61 390.563 184.592 390.605 184.554 390.642C184.526 390.67 184.489 390.684 184.442 390.684H183.392C183.346 390.684 183.304 390.67 183.266 390.642C183.238 390.605 183.224 390.563 183.224 390.516V388.5C183.224 388.453 183.201 388.43 183.154 388.43H181.096C181.05 388.43 181.008 388.416 180.97 388.388C180.942 388.351 180.928 388.309 180.928 388.262V387.198C180.928 387.151 180.942 387.114 180.97 387.086C181.008 387.049 181.05 387.03 181.096 387.03H183.154C183.201 387.03 183.224 387.007 183.224 386.96V384.888C183.224 384.841 183.238 384.804 183.266 384.776C183.304 384.739 183.346 384.72 183.392 384.72H184.442C184.489 384.72 184.526 384.739 184.554 384.776C184.592 384.804 184.61 384.841 184.61 384.888V386.96C184.61 387.007 184.634 387.03 184.68 387.03H186.724Z" fill="white"/>
<rect x="137.703" y="400" width="77.037" height="77.037" rx="15.4074" fill="#131412"/>
<rect x="138.666" y="400.963" width="75.1111" height="75.1111" rx="14.4444" stroke="white" stroke-opacity="0.2" stroke-width="1.92593"/>
<rect x="147.337" y="409.624" width="57.7778" height="57.7778" rx="10.0483" fill="#A179DC" fill-opacity="0.4"/>
<path d="M192.55 430.752C192.549 430.119 192.417 429.559 192.15 429.079C191.888 428.606 191.495 428.21 190.969 427.897C186.621 425.324 182.269 422.758 177.923 420.182C176.752 419.488 175.616 419.513 174.453 420.217C172.722 421.265 164.058 426.36 161.477 427.896C160.413 428.527 159.896 429.494 159.896 430.751C159.894 435.927 159.896 441.102 159.894 446.277C159.894 446.897 160.021 447.446 160.276 447.919C160.538 448.406 160.936 448.813 161.475 449.133C164.057 450.668 172.722 455.763 174.452 456.811C175.616 457.516 176.752 457.541 177.924 456.847C182.27 454.27 186.622 451.705 190.97 449.131C191.509 448.811 191.907 448.404 192.17 447.918C192.424 447.445 192.551 446.896 192.551 446.276C192.551 446.276 192.551 435.928 192.55 430.752Z" fill="#A179DC"/>
<path d="M176.273 438.467L160.276 447.922C160.539 448.409 160.937 448.816 161.476 449.136C164.057 450.671 172.722 455.766 174.452 456.814C175.616 457.519 176.752 457.544 177.924 456.849C182.27 454.273 186.622 451.708 190.97 449.134C191.509 448.814 191.907 448.407 192.17 447.921L176.273 438.467Z" fill="#280068"/>
<path d="M192.55 430.748C192.549 430.115 192.417 429.555 192.151 429.074L176.273 438.459L192.17 447.913C192.424 447.44 192.551 446.891 192.551 446.272C192.551 446.272 192.551 435.924 192.55 430.748Z" fill="#390091"/>
<path d="M185.694 434.935V436.702H187.415V434.935H188.276V436.702H189.998V437.586H188.276V439.353H189.998V440.237H188.276V442.004H187.415V440.237H185.694V442.004H184.833V440.237H183.111V439.353H184.833V437.586H183.111V436.702H184.833V434.935H185.694ZM187.415 437.586H185.694V439.353H187.415V437.586Z" fill="white"/>
<path d="M176.306 426.053C180.796 426.053 184.717 428.556 186.817 432.278L186.796 432.242L181.513 435.365C180.472 433.555 178.564 432.334 176.375 432.309L176.306 432.309C172.968 432.309 170.261 435.087 170.261 438.514C170.261 439.635 170.552 440.685 171.059 441.592C172.1 443.46 174.059 444.719 176.306 444.719C178.567 444.719 180.536 443.444 181.573 441.556L181.548 441.602L186.823 444.739C184.746 448.429 180.879 450.925 176.441 450.974L176.306 450.975C171.801 450.975 167.869 448.456 165.775 444.715C164.752 442.889 164.167 440.772 164.167 438.514C164.167 431.632 169.602 426.053 176.306 426.053Z" fill="white"/>
<defs>
<filter id="filter0_i_914_59748" x="252.17" y="214.318" width="627.87" height="616.571" filterUnits="userSpaceOnUse" color-interpolation-filters="sRGB">
<feFlood flood-opacity="0" result="BackgroundImageFix"/>
<feBlend mode="normal" in="SourceGraphic" in2="BackgroundImageFix" result="shape"/>
<feColorMatrix in="SourceAlpha" type="matrix" values="0 0 0 0 0 0 0 0 0 0 0 0 0 0 0 0 0 0 127 0" result="hardAlpha"/>
<feOffset dx="11.5556"/>
<feGaussianBlur stdDeviation="5.64938"/>
<feComposite in2="hardAlpha" operator="arithmetic" k2="-1" k3="1"/>
<feColorMatrix type="matrix" values="0 0 0 0 0.4 0 0 0 0 0.745098 0 0 0 0 0.32549 0 0 0 0.2 0"/>
<feBlend mode="normal" in2="shape" result="effect1_innerShadow_914_59748"/>
</filter>
<linearGradient id="paint0_linear_914_59748" x1="40.4453" y1="523" x2="1080.45" y2="523" gradientUnits="userSpaceOnUse">
<stop stop-color="#66BE53"/>
<stop offset="0.542318" stop-color="#66BE53" stop-opacity="0.2"/>
<stop offset="1" stop-color="#66BE53" stop-opacity="0"/>
</linearGradient>
<linearGradient id="paint1_linear_914_59748" x1="40.4453" y1="523" x2="1080.45" y2="523" gradientUnits="userSpaceOnUse">
<stop stop-color="#66BE53" stop-opacity="0.2"/>
<stop offset="1" stop-color="#66BE53" stop-opacity="0"/>
</linearGradient>
<linearGradient id="paint2_linear_914_59748" x1="106.471" y1="523.008" x2="1014.41" y2="523.008" gradientUnits="userSpaceOnUse">
<stop stop-color="#66BE53"/>
<stop offset="0.542318" stop-color="#66BE53" stop-opacity="0.2"/>
<stop offset="1" stop-color="#66BE53" stop-opacity="0"/>
</linearGradient>
<linearGradient id="paint3_linear_914_59748" x1="106.471" y1="523.008" x2="1014.41" y2="523.008" gradientUnits="userSpaceOnUse">
<stop stop-color="#66BE53" stop-opacity="0.2"/>
<stop offset="1" stop-color="#66BE53" stop-opacity="0"/>
</linearGradient>
<linearGradient id="paint4_linear_914_59748" x1="172.504" y1="523.005" x2="948.377" y2="523.005" gradientUnits="userSpaceOnUse">
<stop stop-color="#66BE53"/>
<stop offset="0.542318" stop-color="#66BE53" stop-opacity="0.2"/>
<stop offset="1" stop-color="#66BE53" stop-opacity="0"/>
</linearGradient>
<linearGradient id="paint5_linear_914_59748" x1="172.504" y1="523.005" x2="948.377" y2="523.005" gradientUnits="userSpaceOnUse">
<stop stop-color="#66BE53" stop-opacity="0.2"/>
<stop offset="1" stop-color="#66BE53" stop-opacity="0"/>
</linearGradient>
<linearGradient id="paint6_linear_914_59748" x1="255.223" y1="522.213" x2="1243.84" y2="522.213" gradientUnits="userSpaceOnUse">
<stop stop-color="#66BE53"/>
<stop offset="0.542318" stop-color="#66BE53" stop-opacity="0.2"/>
<stop offset="1" stop-color="#66BE53" stop-opacity="0"/>
</linearGradient>
<linearGradient id="paint7_linear_914_59748" x1="255.059" y1="522.603" x2="865.852" y2="522.603" gradientUnits="userSpaceOnUse">
<stop stop-color="#66BE53" stop-opacity="0.2"/>
<stop offset="1" stop-color="#66BE53" stop-opacity="0"/>
</linearGradient>
<linearGradient id="paint8_linear_914_59748" x1="296" y1="476.672" x2="372.408" y2="640.782" gradientUnits="userSpaceOnUse">
<stop stop-color="#1A2613"/>
<stop offset="0.489"/>
<stop offset="1" stop-color="#001D2B"/>
</linearGradient>
<linearGradient id="paint9_linear_914_59748" x1="544" y1="561.049" x2="507.459" y2="426.799" gradientUnits="userSpaceOnUse">
<stop stop-color="#14FF87" stop-opacity="0"/>
<stop offset="1" stop-color="#CAFE15"/>
</linearGradient>
<linearGradient id="paint10_linear_914_59748" x1="328.949" y1="762.328" x2="328.186" y2="788.264" gradientUnits="userSpaceOnUse">
<stop stop-color="#FFE253"/>
<stop offset="1" stop-color="#FFCA1C"/>
</linearGradient>
<linearGradient id="paint11_linear_914_59748" x1="330.183" y1="779.088" x2="330.183" y2="763.405" gradientUnits="userSpaceOnUse">
<stop stop-color="white"/>
<stop offset="1" stop-color="white" stop-opacity="0.165"/>
</linearGradient>
<linearGradient id="paint12_linear_914_59748" x1="309.935" y1="765.201" x2="335.26" y2="765.201" gradientUnits="userSpaceOnUse">
<stop stop-color="#3778AE"/>
<stop offset="1" stop-color="#366C99"/>
</linearGradient>
<linearGradient id="paint13_linear_914_59748" x1="320.61" y1="768.608" x2="320.61" y2="752.925" gradientUnits="userSpaceOnUse">
<stop stop-color="white"/>
<stop offset="1" stop-color="white" stop-opacity="0.165"/>
</linearGradient>
</defs>
</svg>
