<svg width="114" height="114" viewBox="0 0 114 114" fill="none" xmlns="http://www.w3.org/2000/svg">
<circle cx="57" cy="57" r="56" fill="url(#paint0_linear_1215_7266)" stroke="url(#paint1_linear_1215_7266)" stroke-width="2"/>
<path d="M41.2417 47.3829C41.481 47.9479 41.7315 48.5082 41.9931 49.0632C44.0544 48.6127 46.2629 48.2585 48.5743 48.0082C49.125 47.3425 49.686 46.6855 50.2571 46.0373C47.0609 46.3025 44.0196 46.7558 41.2417 47.3829ZM57 66.4462C55.9406 66.4462 54.8909 66.4253 53.8529 66.3854C54.423 67.0128 55.004 67.6303 55.5954 68.2377C56.5317 68.2535 57.4683 68.2535 58.4046 68.2377C58.996 67.6304 59.5769 67.0129 60.147 66.3854C59.1091 66.4253 58.0593 66.4462 57 66.4462ZM50.2575 67.9743C49.6864 67.3261 49.1254 66.6691 48.5748 66.0034C46.2632 65.7532 44.0548 65.3989 41.9932 64.9484C41.7316 65.5034 41.481 66.0637 41.2417 66.6287C44.0196 67.2557 47.0609 67.7089 50.2575 67.9743ZM57 47.5652C58.0594 47.5652 59.1093 47.5862 60.1471 47.6259C59.577 46.9985 58.996 46.381 58.4046 45.7737C57.9382 45.7661 57.4698 45.7617 57 45.7617C56.53 45.7617 56.0617 45.7659 55.5952 45.7737C55.0038 46.381 54.4229 46.9985 53.8528 47.6259C54.9014 47.5856 55.9506 47.5654 57 47.5652ZM27 57.0057C27 60.1786 30.2398 63.0776 36.1225 65.1686C36.6108 65.3416 37.1025 65.5048 37.5973 65.6583C37.8267 65.0989 38.0667 64.5439 38.3171 63.9936C37.783 63.8307 37.2526 63.6557 36.7263 63.469C31.6911 61.6795 28.8035 59.3238 28.8035 57.0057C28.8035 54.6878 31.6913 52.332 36.7262 50.5424C37.2526 50.3557 37.7831 50.1808 38.3173 50.0177C38.0668 49.4675 37.8268 48.9126 37.5974 48.3533C37.1025 48.5067 36.6107 48.67 36.1223 48.843C30.2398 50.9339 27 53.8328 27 57.0057ZM63.7424 46.0371C64.3136 46.6853 64.8746 47.3423 65.4252 48.0081C67.7368 48.2584 69.945 48.6125 72.0066 49.0631C72.2682 48.5081 72.5187 47.9478 72.758 47.3828C69.9802 46.7558 66.9391 46.3025 63.7424 46.0371ZM87 57.0057C87 53.8328 83.7602 50.9339 77.8775 48.843C77.3891 48.6701 76.8974 48.5068 76.4025 48.3533C76.1729 48.9125 75.9329 49.4675 75.6826 50.0177C76.2168 50.1808 76.7472 50.3557 77.2736 50.5424C82.3088 52.3321 85.1965 54.6879 85.1965 57.0057C85.1965 59.3237 82.3086 61.6795 77.2736 63.469C76.7473 63.6557 76.2169 63.8306 75.6827 63.9936C75.9332 64.5439 76.1731 65.0989 76.4025 65.6583C76.8974 65.5049 77.3892 65.3416 77.8775 65.1686C83.7602 63.0776 87 60.1786 87 57.0057ZM65.4253 66.0033C64.8747 66.669 64.3137 67.326 63.7425 67.9741C66.9393 67.7088 69.9803 67.2555 72.7586 66.6286C72.5191 66.0635 72.2686 65.5033 72.007 64.9481C69.9454 65.3988 67.7368 65.7532 65.4253 66.0033Z" fill="white"/>
<path d="M76.3629 68.2982C75.2565 65.053 73.5372 61.5155 71.34 57.9164C70.981 58.4774 70.6147 59.0336 70.2411 59.5849C72.1583 62.8151 73.6649 65.973 74.6561 68.8802C76.3803 73.9379 76.3272 77.6644 74.5106 79.1037C73.9263 79.5666 73.1455 79.8014 72.1901 79.8014H72.1896C70.1988 79.8012 67.5482 78.8009 64.5243 76.9083C62.7471 75.7959 60.9108 74.4224 59.0635 72.8346C58.6246 73.2509 58.1802 73.6611 57.7302 74.0653C59.7017 75.7721 61.6656 77.2467 63.5677 78.4371C66.8681 80.5028 69.858 81.5946 72.2141 81.5946C73.5789 81.5946 74.7284 81.2321 75.6304 80.5175C78.1177 78.5469 78.3778 74.2073 76.3629 68.2982ZM48.1866 63.9873C50.3625 66.7336 52.652 69.2729 54.9663 71.5242C55.4168 71.1248 55.8613 70.7188 56.2997 70.3063C54.0172 68.0925 51.754 65.5853 49.6002 62.8672C48.2942 61.2192 47.0733 59.5494 45.9497 57.8822C45.5936 58.4334 45.2455 58.9896 44.9053 59.5508C45.9491 61.0659 47.0435 62.5456 48.1866 63.9873ZM37.6354 45.7104C38.7419 48.9554 40.4613 52.493 42.6583 56.0918C43.0172 55.5309 43.3835 54.9747 43.757 54.4234C41.8401 51.1934 40.3336 48.0355 39.3424 45.1286C37.618 40.0707 37.671 36.3443 39.488 34.9048C40.0722 34.4419 40.8529 34.2071 41.8087 34.2071C43.799 34.2071 46.4497 35.2076 49.474 37.1004C51.2512 38.2126 53.0874 39.5861 54.9348 41.1738C55.3737 40.7576 55.8182 40.3473 56.2682 39.9431C54.2969 38.2365 52.333 36.762 50.431 35.5717C47.1303 33.5059 44.1403 32.4141 41.784 32.4141C40.4193 32.4141 39.2699 32.7765 38.3679 33.4911C35.8808 35.4618 35.6207 39.8013 37.6354 45.7104ZM64.3982 51.1413C65.7042 52.7893 66.9251 54.4591 68.0488 56.1264C68.4048 55.5751 68.7529 55.0188 69.0931 54.4576C68.0492 52.9426 66.9549 51.463 65.8118 50.0214C63.6359 47.2752 61.3465 44.7357 59.0321 42.4843C58.5816 42.8837 58.1371 43.2898 57.6986 43.7023C59.981 45.9158 62.2443 48.4232 64.3982 51.1413Z" fill="white"/>
<path d="M65.8119 63.9874C70.7011 57.8169 74.4483 51.326 76.363 45.7105C78.3776 39.8014 78.1175 35.4619 75.6305 33.4913C74.7285 32.7764 73.579 32.4141 72.2144 32.4141C69.858 32.4141 66.8681 33.5059 63.5675 35.5717C58.5381 38.7192 53.0758 43.851 48.1866 50.0214C43.2968 56.1921 39.5498 62.6831 37.6355 68.2983C35.6207 74.2075 35.8808 78.547 38.368 80.5177C39.27 81.2324 40.4194 81.5947 41.7841 81.5947C44.1404 81.5947 47.1303 80.5029 50.4308 78.4372C55.4599 75.2898 60.9224 70.1582 65.8119 63.9874ZM41.8089 79.8016C40.8531 79.8016 40.0723 79.5668 39.4877 79.1039C37.6711 77.6647 37.6181 73.9384 39.3423 68.8805C41.1927 63.4541 44.8353 57.1543 49.6002 51.1414C54.3648 45.1282 59.6651 40.1418 64.5244 37.1005C67.5486 35.2076 70.1993 34.2071 72.19 34.2071C73.1455 34.2071 73.9262 34.4419 74.5105 34.9048C76.3273 36.3445 76.3802 40.071 74.6559 45.1286C72.8059 50.5547 69.1629 56.8545 64.3982 62.8673C59.6334 68.8806 54.3333 73.8671 49.4741 76.9084C46.45 78.8011 43.7993 79.8016 41.8089 79.8016Z" fill="white"/>
<path d="M51.9607 60.4871C52.3561 59.0463 53.8793 57.8749 55.3836 57.8749H55.3961C55.4755 57.8749 55.5538 57.8945 55.6239 57.9318C55.694 57.9692 55.7538 58.0233 55.798 58.0893L57.0023 59.8853L58.2065 58.0893C58.2507 58.0233 58.3106 57.9692 58.3807 57.9318C58.4508 57.8945 58.529 57.8749 58.6084 57.8749C60.1211 57.8749 61.6413 59.0409 62.0436 60.4871C62.7484 59.4691 63.1294 58.2601 63.1294 57.0043C63.1294 53.6257 60.3809 50.877 57.0023 50.877C53.6235 50.877 50.875 53.6257 50.875 57.0043C50.875 58.2615 51.256 59.4705 51.9607 60.4871ZM57.002 51.204C58.7083 51.204 59.7269 52.2588 59.7269 54.0255C59.7269 55.9993 58.5366 58.2939 57.002 58.2939C55.4673 58.2939 54.2771 55.9993 54.2771 54.0255C54.2771 52.2588 55.2958 51.204 57.002 51.204Z" fill="white"/>
<path d="M61.2849 61.3842L61.124 60.8007C60.8737 59.8127 59.869 58.9738 58.8552 58.8575L57.4021 61.0246C57.3579 61.0906 57.2981 61.1447 57.228 61.1821C57.1579 61.2195 57.0796 61.2391 57.0002 61.2391C56.9207 61.2391 56.8425 61.2195 56.7724 61.1821C56.7023 61.1447 56.6424 61.0906 56.5982 61.0246L55.1451 58.8574C54.1315 58.9731 53.1268 59.8116 52.8788 60.791L52.7148 61.3828C53.8538 62.4983 55.3989 63.1328 57.0002 63.1328C58.6 63.1328 60.145 62.4987 61.2849 61.3842Z" fill="white"/>
<defs>
<linearGradient id="paint0_linear_1215_7266" x1="1.99999" y1="-6.70058" x2="130.532" y2="82.3521" gradientUnits="userSpaceOnUse">
<stop stop-color="#1A2613"/>
<stop offset="0.489"/>
<stop offset="1" stop-color="#001D2B"/>
</linearGradient>
<linearGradient id="paint1_linear_1215_7266" x1="104.274" y1="86.2271" x2="22.0377" y2="10.7919" gradientUnits="userSpaceOnUse">
<stop stop-color="#14FF87" stop-opacity="0.76"/>
<stop offset="1" stop-color="#CAFE15"/>
</linearGradient>
</defs>
</svg>
