<svg width="114" height="114" viewBox="0 0 114 114" fill="none" xmlns="http://www.w3.org/2000/svg">
<circle cx="57" cy="57" r="56" fill="url(#paint0_linear_1215_7261)" stroke="url(#paint1_linear_1215_7261)" stroke-width="2"/>
<path d="M86.8461 56.4671C80.5964 46.4967 69.7635 40.3247 58 40.032V32H55.9999V40.032C44.2364 40.3247 33.4035 46.4967 27.1538 56.4671C27.0533 56.6267 27 56.8115 27 57.0001C27 57.1887 27.0533 57.3735 27.1538 57.5331C33.4035 67.5035 44.2364 73.6755 55.9999 73.9682V82.0002H58V73.9682C69.7635 73.6755 80.5964 67.5035 86.8461 57.5331C86.9466 57.3735 87 57.1887 87 57.0001C87 56.8115 86.9466 56.6267 86.8461 56.4671ZM29.1888 57.0001C33.2715 50.7575 39.3429 46.0768 46.4189 43.717C44.554 45.2021 43.0231 47.0635 41.9259 49.1799C40.8286 51.2963 40.1898 53.6202 40.0509 56.0001H31.9999V58.0001H40.0509C40.1898 60.38 40.8286 62.7039 41.9259 64.8203C43.0231 66.9367 44.554 68.7981 46.4189 70.2831C39.3429 67.9234 33.2715 63.2427 29.1888 57.0001ZM55.9999 66.0001V71.9492C48.5168 71.4409 42.5591 65.4833 42.0509 58.0001H47.9999V56.0001H42.0509C42.5591 48.5169 48.5168 42.5593 55.9999 42.051V48.0001H58V42.051C65.4831 42.5593 71.4408 48.5168 71.949 56.0001H66V58.0001H71.949C71.4408 65.4833 65.4831 71.4409 58 71.9492V66.0001H55.9999ZM84.8111 57.0001C80.7284 63.2427 74.657 67.9234 67.581 70.2831C69.4459 68.7981 70.9768 66.9367 72.074 64.8203C73.1713 62.7039 73.8102 60.38 73.949 58.0001H82V56.0001H73.949C73.8102 53.6202 73.1713 51.2963 72.0741 49.1799C70.9768 47.0635 69.4459 45.2021 67.581 43.717C74.657 46.0769 80.7284 50.7575 84.8111 57.0001Z" fill="white"/>
<path d="M57.0001 50.0001C53.1341 50.0001 50.0001 53.1341 50.0001 57.0001C50.0044 60.8642 53.136 63.9957 57.0001 64.0001C60.8661 64.0001 64.0001 60.8661 64.0001 57.0001C64.0001 53.1341 60.8661 50.0001 57.0001 50.0001ZM57.0001 62.0001C54.2387 62.0001 52.0001 59.7615 52.0001 57.0001C52.0033 54.2401 54.2401 52.0033 57.0001 52.0001C59.7615 52.0001 62.0001 54.2387 62.0001 57.0001C62.0001 59.7615 59.7616 62.0001 57.0001 62.0001ZM33 32C32.7348 32 32.4804 32.1054 32.2929 32.2929C32.1054 32.4804 32 32.7348 32 33V41H34V34H41V32H33ZM81.0002 32H73.0002V34H80.0002V41H82.0002V33C82.0002 32.7348 81.8948 32.4804 81.7073 32.2929C81.5198 32.1054 81.2654 32 81.0002 32ZM80.0002 73.0002V80.0002H73.0002V82.0002H81.0002C81.2654 82.0002 81.5198 81.8948 81.7073 81.7073C81.8948 81.5198 82.0002 81.2654 82.0002 81.0002V73.0002H80.0002ZM34 80.0002V73.0002H32V81.0002C32 81.2654 32.1054 81.5198 32.2929 81.7073C32.4804 81.8948 32.7348 82.0002 33 82.0002H41V80.0002H34Z" fill="white"/>
<defs>
<linearGradient id="paint0_linear_1215_7261" x1="1.99999" y1="-6.70058" x2="130.532" y2="82.3521" gradientUnits="userSpaceOnUse">
<stop stop-color="#1A2613"/>
<stop offset="0.489"/>
<stop offset="1" stop-color="#001D2B"/>
</linearGradient>
<linearGradient id="paint1_linear_1215_7261" x1="104.274" y1="86.2271" x2="22.0377" y2="10.7919" gradientUnits="userSpaceOnUse">
<stop stop-color="#14FF87" stop-opacity="0.76"/>
<stop offset="1" stop-color="#CAFE15"/>
</linearGradient>
</defs>
</svg>
