<svg width="114" height="114" viewBox="0 0 114 114" fill="none" xmlns="http://www.w3.org/2000/svg">
<circle cx="57" cy="57" r="56" fill="url(#paint0_linear_1215_7253)" stroke="url(#paint1_linear_1215_7253)" stroke-width="2"/>
<path d="M57.1063 47.9432C57.9323 47.9432 58.6012 47.274 58.6012 46.4484C58.6012 45.623 57.9323 44.9536 57.1063 44.9536C50.5023 44.9536 45.1484 50.3075 45.1484 56.912C45.1484 63.5162 50.5023 68.87 57.1063 68.87C63.711 68.87 69.0648 63.5162 69.0648 56.912C69.0648 56.0862 68.3955 55.4173 67.57 55.4173C66.7446 55.4173 66.0752 56.0862 66.0752 56.912C66.0752 61.8652 62.0601 65.8809 57.1063 65.8809C52.1532 65.8809 48.1376 61.8652 48.1376 56.912C48.1376 51.9584 52.1532 47.9432 57.1063 47.9432Z" fill="white"/>
<path d="M85.6172 48.0214C85.3575 47.2371 84.5115 46.8119 83.7267 47.0713C82.9603 47.325 82.5336 48.1408 82.7621 48.915C87.2322 63.1502 79.3165 78.3137 65.0813 82.784C50.8466 87.2541 35.683 79.3384 31.2129 65.1033C26.7422 50.8681 34.6584 35.7045 48.8931 31.2343C54.1623 29.5797 59.8121 29.5797 65.0813 31.2343C65.8724 31.4728 66.707 31.0251 66.9457 30.2339C67.1805 29.4547 66.7497 28.6311 65.9755 28.3793C50.1691 23.4201 33.3348 32.2136 28.3757 48.0205C23.4165 63.8268 32.2104 80.6611 48.0169 85.6202C63.8237 90.5794 80.6575 81.7859 85.6166 65.979C87.4506 60.1336 87.4507 53.8669 85.6171 48.0214H85.6172Z" fill="white"/>
<path d="M59.9532 37.6779C59.961 36.8268 59.3072 36.1154 58.4584 36.0517C58.012 36.0137 57.5652 35.9758 57.1068 35.9758C45.549 35.9758 36.1797 45.3451 36.1797 56.9029C36.1797 68.4603 45.549 77.8297 57.1068 77.8297C68.6642 77.8297 78.0336 68.4603 78.0336 56.903C78.0336 56.3622 78.0007 55.8221 77.9343 55.2855C77.8148 54.4651 77.053 53.8969 76.2325 54.0164C75.4121 54.1354 74.8439 54.8978 74.963 55.7182C74.9676 55.7493 74.9731 55.7799 74.9794 55.811C75.012 56.1732 75.044 56.5321 75.044 56.9021C75.0444 66.8089 67.0138 74.8396 57.1073 74.8405C47.2004 74.841 39.1697 66.8098 39.1693 56.9034C39.1688 46.997 47.199 38.9657 57.106 38.9654H57.1064C57.4773 38.9654 57.8365 38.9974 58.1979 39.0294L58.478 39.0528C59.2591 39.0862 59.9192 38.4801 59.9523 37.699C59.9528 37.6916 59.9528 37.6848 59.9532 37.6779Z" fill="white"/>
<path d="M66.0639 40.4514V45.8117L56.0383 55.8372C55.4445 56.4108 55.4281 57.3572 56.0017 57.951C56.5754 58.5447 57.5219 58.5612 58.1155 57.9876C58.1279 57.9757 58.1402 57.9634 58.1522 57.951L68.1778 47.9255H73.5378C73.9343 47.9255 74.3143 47.768 74.595 47.4874L83.5634 38.5185C84.1471 37.9348 84.1471 36.9886 83.5634 36.4048C83.4246 36.266 83.2599 36.1559 83.0786 36.0808C82.8973 36.0057 82.7029 35.9671 82.5067 35.9671H78.0223V31.4827C78.0223 30.6572 77.353 29.9879 76.527 29.9883C76.1308 29.9884 75.7509 30.1459 75.4709 30.426L66.502 39.3949C66.3631 39.5335 66.2529 39.6982 66.1777 39.8795C66.1025 40.0608 66.0638 40.2552 66.0639 40.4514ZM69.0535 41.0705L75.0326 35.0913V37.4619C75.0326 38.2874 75.702 38.9567 76.5274 38.9567H78.8981L72.9189 44.9359H69.0535V41.0705Z" fill="white"/>
<defs>
<linearGradient id="paint0_linear_1215_7253" x1="1.99999" y1="-6.70058" x2="130.532" y2="82.3521" gradientUnits="userSpaceOnUse">
<stop stop-color="#1A2613"/>
<stop offset="0.489"/>
<stop offset="1" stop-color="#001D2B"/>
</linearGradient>
<linearGradient id="paint1_linear_1215_7253" x1="104.274" y1="86.2271" x2="22.0377" y2="10.7919" gradientUnits="userSpaceOnUse">
<stop stop-color="#14FF87" stop-opacity="0.76"/>
<stop offset="1" stop-color="#CAFE15"/>
</linearGradient>
</defs>
</svg>
