<svg width="133" height="148" viewBox="0 0 133 148" fill="none" xmlns="http://www.w3.org/2000/svg">
<path d="M15.0793 74.1509C20.7393 71.6233 25.6538 66.1985 28.1719 59.6943C30.3913 53.966 34.1308 49.2827 36.4807 49.2827C38.8306 49.2827 42.5701 53.966 44.7895 59.6943C47.3076 66.1985 52.2221 71.6233 57.8821 74.1509C63.1679 76.5128 66.9422 80.4898 66.9422 83.696C66.9422 86.9022 63.1679 90.8792 57.8821 93.2411C52.2221 95.7693 47.3076 101.194 44.7895 107.698C42.5701 113.426 38.8306 118.109 36.4807 118.109C34.1308 118.109 30.3913 113.426 28.1719 107.698C25.6538 101.194 20.7393 95.7693 15.0793 93.2411C9.79348 90.8792 6.01917 86.9022 6.01917 83.696C6.01917 80.4898 9.79348 76.5128 15.0793 74.1509Z" fill="#CAFE15" fill-opacity="0.7"/>
<path d="M83.5871 125.292C86.5849 124.044 89.1877 121.364 90.5212 118.153C91.6974 115.324 93.6774 113.011 94.9221 113.011C96.1668 113.011 98.1476 115.324 99.3229 118.153C100.656 121.364 103.259 124.044 106.257 125.292C109.057 126.458 111.056 128.421 111.056 130.005C111.056 131.589 109.057 133.553 106.257 134.719C103.259 135.967 100.656 138.646 99.3229 141.858C98.1476 144.687 96.1668 146.999 94.9221 146.999C93.6774 146.999 91.6974 144.687 90.5212 141.858C89.1877 138.646 86.5849 135.967 83.5871 134.719C80.7875 133.553 78.7885 131.589 78.7885 130.005C78.7885 128.421 80.7875 126.458 83.5871 125.292Z" fill="#14FF87" fill-opacity="0.7"/>
<path d="M87.9438 36.7791C90.4924 35.7181 92.7051 33.441 93.8381 30.7109C94.8374 28.3064 96.5213 26.3406 97.579 26.3406C98.6367 26.3406 100.321 28.3064 101.32 30.7109C102.454 33.441 104.666 35.7181 107.214 36.7791C109.594 37.7705 111.293 39.4396 111.293 40.7857C111.293 42.1317 109.594 43.8008 107.214 44.7922C104.666 45.8533 102.454 48.1303 101.32 50.8604C100.321 53.2649 98.6367 55.2307 97.579 55.2307C96.5213 55.2307 94.8374 53.2649 93.8381 50.8604C92.7051 48.1303 90.4924 45.8533 87.9438 44.7922C85.5644 43.8008 83.8654 42.1317 83.8654 40.7857C83.8654 39.4396 85.5644 37.7705 87.9438 36.7791Z" fill="#CAFE15" fill-opacity="0.7"/>
</svg>
