<svg width="56" height="56" viewBox="0 0 56 56" fill="none" xmlns="http://www.w3.org/2000/svg">
<path d="M44.0461 26.8903C42.6231 26.7472 39.4922 26.7472 39.4922 24.7393C39.4922 22.0153 43.4765 18.4303 49.8802 14.5584C51.8719 13.2674 56 11.2604 56 8.53546C56 6.38448 54.4341 4.80746 51.1613 5.23747C48.0304 5.66749 43.1917 7.81847 36.7889 13.2674C30.1005 18.8603 23.8396 28.1812 23.8396 37.3582C23.8396 46.6791 30.1005 56 40.2046 56C48.3152 56 55.2885 49.834 55.2885 41.3732C55.2876 34.9202 50.8765 27.4642 44.0461 26.8903Z" fill="url(#paint0_linear_1195_2485)"/>
<path d="M24.0417 22.8581C22.8521 22.2245 21.5481 21.8387 20.2074 21.7238C18.7844 21.5807 15.6535 21.5807 15.6535 19.5728C15.6535 16.8488 19.6378 13.2638 26.0415 9.39187C28.0341 8.10092 32.1604 6.09389 32.1604 3.36895C32.1604 1.21798 30.5945 -0.359044 27.3217 0.0709705C24.1908 0.500985 19.3521 2.65196 12.9493 8.10092C6.26175 13.6938 0 23.0147 0 32.1926C0 41.5135 6.26085 50.8344 16.365 50.8344C18.675 50.8371 20.9573 50.3275 23.0499 49.3416C21.0564 45.7095 19.9936 41.5072 19.9936 37.3591C19.9945 32.2369 21.6313 27.2696 24.0417 22.8581Z" fill="url(#paint1_linear_1195_2485)"/>
<defs>
<linearGradient id="paint0_linear_1195_2485" x1="56.0462" y1="38.1786" x2="23.7543" y2="38.095" gradientUnits="userSpaceOnUse">
<stop stop-color="#C7FB15"/>
<stop offset="1" stop-color="#CCFF14"/>
</linearGradient>
<linearGradient id="paint1_linear_1195_2485" x1="32.2066" y1="33.0127" x2="-0.0852562" y2="32.9291" gradientUnits="userSpaceOnUse">
<stop stop-color="#C7FB15"/>
<stop offset="1" stop-color="#CCFF14"/>
</linearGradient>
</defs>
</svg>
