<svg width="300" height="180" viewBox="0 0 300 180" fill="none" xmlns="http://www.w3.org/2000/svg">
<g filter="url(#filter0_b_1123_6199)">
<path d="M276 0H24C10.7452 0 0 10.7452 0 24V116.279C0 129.534 10.7452 140.279 24 140.279H76.1229C82.7001 140.279 88.9891 142.979 93.5199 147.746L117.076 172.533C121.607 177.301 127.896 180 134.473 180H276C289.255 180 300 169.255 300 156V24C300 10.7452 289.255 0 276 0Z" fill="#464646" fill-opacity="0.35"/>
<path d="M276 0H24C10.7452 0 0 10.7452 0 24V116.279C0 129.534 10.7452 140.279 24 140.279H76.1229C82.7001 140.279 88.9891 142.979 93.5199 147.746L117.076 172.533C121.607 177.301 127.896 180 134.473 180H276C289.255 180 300 169.255 300 156V24C300 10.7452 289.255 0 276 0Z" fill="black" style="mix-blend-mode:color-dodge"/>
<path d="M24 1H276C288.703 1 299 11.2975 299 24V156C299 168.703 288.703 179 276 179H134.473C128.17 179 122.143 176.413 117.801 171.844L94.2448 147.057C89.5251 142.091 82.9742 139.279 76.1229 139.279H24C11.2975 139.279 1 128.982 1 116.279V24C1 11.2975 11.2975 1 24 1Z" stroke="url(#paint0_linear_1123_6199)" stroke-width="2"/>
</g>
<path d="M264 124L266.1 139.639L279.637 131.53L268.719 142.923L283.499 148.45L267.784 147.018L272.678 162.019L264 148.84L255.322 162.019L260.216 147.018L244.501 148.45L259.281 142.923L248.363 131.53L261.9 139.639L264 124Z" fill="#13FE86"/>
<path opacity="0.8" d="M32.544 33.176C33.52 33.176 34.376 33.384 35.112 33.8C35.864 34.2 36.44 34.768 36.84 35.504C37.256 36.24 37.464 37.088 37.464 38.048C37.464 39.008 37.256 39.848 36.84 40.568C36.424 41.288 35.832 41.848 35.064 42.248C34.312 42.648 33.44 42.848 32.448 42.848H28.224C28.16 42.848 28.128 42.88 28.128 42.944V49.76C28.128 49.92 28.048 50 27.888 50H26.064C25.904 50 25.824 49.92 25.824 49.76V33.416C25.824 33.256 25.904 33.176 26.064 33.176H32.544ZM32.232 40.976C33.112 40.976 33.816 40.712 34.344 40.184C34.888 39.656 35.16 38.96 35.16 38.096C35.16 37.216 34.888 36.512 34.344 35.984C33.816 35.44 33.112 35.168 32.232 35.168H28.224C28.16 35.168 28.128 35.2 28.128 35.264V40.88C28.128 40.944 28.16 40.976 28.224 40.976H32.232ZM40.1466 50C39.9866 50 39.9066 49.92 39.9066 49.76V33.44C39.9066 33.28 39.9866 33.2 40.1466 33.2H41.9706C42.1306 33.2 42.2106 33.28 42.2106 33.44V49.76C42.2106 49.92 42.1306 50 41.9706 50H40.1466ZM50.019 37.592C50.995 37.592 51.843 37.768 52.563 38.12C53.299 38.456 53.859 38.936 54.243 39.56C54.643 40.168 54.843 40.864 54.843 41.648V49.76C54.843 49.92 54.763 50 54.603 50H52.779C52.619 50 52.539 49.92 52.539 49.76V48.896C52.539 48.816 52.499 48.8 52.419 48.848C52.003 49.28 51.491 49.616 50.883 49.856C50.291 50.08 49.627 50.192 48.891 50.192C47.707 50.192 46.723 49.896 45.939 49.304C45.171 48.696 44.787 47.784 44.787 46.568C44.787 45.32 45.219 44.344 46.083 43.64C46.963 42.92 48.187 42.56 49.755 42.56H52.443C52.507 42.56 52.539 42.528 52.539 42.464V41.816C52.539 41.112 52.331 40.568 51.915 40.184C51.515 39.784 50.899 39.584 50.067 39.584C49.395 39.584 48.843 39.72 48.411 39.992C47.995 40.248 47.739 40.6 47.643 41.048C47.595 41.208 47.499 41.28 47.355 41.264L45.411 41C45.251 40.968 45.179 40.904 45.195 40.808C45.323 39.864 45.827 39.096 46.707 38.504C47.587 37.896 48.691 37.592 50.019 37.592ZM49.395 48.248C50.243 48.248 50.979 48.024 51.603 47.576C52.227 47.128 52.539 46.56 52.539 45.872V44.456C52.539 44.392 52.507 44.36 52.443 44.36H50.187C49.243 44.36 48.491 44.544 47.931 44.912C47.371 45.28 47.091 45.792 47.091 46.448C47.091 47.04 47.299 47.488 47.715 47.792C48.147 48.096 48.707 48.248 49.395 48.248ZM57.3825 54.776C57.2705 54.776 57.2145 54.696 57.2145 54.536V53.12C57.2145 52.96 57.2945 52.88 57.4545 52.88H57.5025C58.1425 52.864 58.6465 52.784 59.0145 52.64C59.3825 52.496 59.6865 52.224 59.9265 51.824C60.1665 51.44 60.3985 50.856 60.6225 50.072C60.6385 50.056 60.6385 50.032 60.6225 50C60.6225 49.952 60.6225 49.928 60.6225 49.928L56.6145 38.048L56.5905 37.952C56.5905 37.84 56.6625 37.784 56.8065 37.784H58.7505C58.8945 37.784 58.9905 37.848 59.0385 37.976L61.7505 47.024C61.7665 47.056 61.7905 47.072 61.8225 47.072C61.8545 47.072 61.8785 47.056 61.8945 47.024L64.5825 37.976C64.6305 37.848 64.7265 37.784 64.8705 37.784H66.7665C66.9425 37.784 67.0065 37.872 66.9585 38.048L62.5905 50.84C62.2225 51.944 61.8545 52.76 61.4865 53.288C61.1185 53.832 60.6385 54.216 60.0465 54.44C59.4545 54.664 58.6225 54.776 57.5505 54.776H57.3825ZM79.4093 37.616C80.7213 37.616 81.7613 38 82.5293 38.768C83.2973 39.52 83.6813 40.544 83.6813 41.84V49.76C83.6813 49.92 83.6013 50 83.4413 50H81.6173C81.4573 50 81.3773 49.92 81.3773 49.76V42.296C81.3773 41.496 81.1453 40.848 80.6813 40.352C80.2173 39.856 79.6013 39.608 78.8333 39.608C78.0813 39.608 77.4653 39.856 76.9853 40.352C76.5053 40.848 76.2653 41.488 76.2653 42.272V49.76C76.2653 49.92 76.1853 50 76.0253 50H74.2013C74.0413 50 73.9613 49.92 73.9613 49.76V38.024C73.9613 37.864 74.0413 37.784 74.2013 37.784H76.0253C76.1853 37.784 76.2653 37.864 76.2653 38.024V38.888C76.2653 38.92 76.2733 38.944 76.2893 38.96C76.3213 38.976 76.3453 38.968 76.3613 38.936C77.0493 38.056 78.0653 37.616 79.4093 37.616ZM91.8204 50.192C90.6364 50.192 89.6044 49.896 88.7244 49.304C87.8444 48.696 87.2284 47.856 86.8764 46.784C86.5884 45.92 86.4444 44.944 86.4444 43.856C86.4444 42.72 86.5804 41.76 86.8524 40.976C87.2044 39.92 87.8204 39.096 88.7004 38.504C89.5804 37.896 90.6284 37.592 91.8444 37.592C92.9964 37.592 93.9964 37.896 94.8444 38.504C95.7084 39.096 96.3244 39.912 96.6924 40.952C96.9804 41.768 97.1244 42.728 97.1244 43.832C97.1244 44.952 96.9804 45.936 96.6924 46.784C96.3404 47.856 95.7324 48.696 94.8684 49.304C94.0044 49.896 92.9884 50.192 91.8204 50.192ZM91.8204 48.2C92.4604 48.2 93.0204 48.024 93.5004 47.672C93.9804 47.304 94.3244 46.792 94.5324 46.136C94.7084 45.528 94.7964 44.776 94.7964 43.88C94.7964 42.984 94.7164 42.24 94.5564 41.648C94.3484 40.992 94.0044 40.488 93.5244 40.136C93.0444 39.768 92.4604 39.584 91.7724 39.584C91.1164 39.584 90.5484 39.768 90.0684 40.136C89.5884 40.488 89.2444 40.992 89.0364 41.648C88.8604 42.208 88.7724 42.952 88.7724 43.88C88.7724 44.808 88.8604 45.56 89.0364 46.136C89.2284 46.792 89.5644 47.304 90.0444 47.672C90.5404 48.024 91.1324 48.2 91.8204 48.2ZM102.29 50C102.162 50 102.074 49.936 102.026 49.808L98.5704 38.048L98.5464 37.976C98.5464 37.848 98.6264 37.784 98.7864 37.784H100.658C100.802 37.784 100.89 37.856 100.922 38L103.202 46.712C103.218 46.744 103.234 46.76 103.25 46.76C103.282 46.76 103.306 46.744 103.322 46.712L105.65 38C105.682 37.856 105.77 37.784 105.914 37.784H107.57C107.714 37.784 107.802 37.856 107.834 38L110.21 46.688C110.226 46.72 110.242 46.736 110.258 46.736C110.29 46.736 110.314 46.72 110.33 46.688L112.706 38C112.738 37.856 112.826 37.784 112.97 37.784L114.818 37.808C114.898 37.808 114.954 37.832 114.986 37.88C115.034 37.928 115.05 37.992 115.034 38.072L111.554 49.808C111.506 49.936 111.418 50 111.29 50H109.418C109.29 50 109.202 49.936 109.154 49.808L106.802 41.696C106.786 41.664 106.762 41.648 106.73 41.648C106.714 41.648 106.698 41.664 106.682 41.696L104.45 49.784C104.418 49.928 104.33 50 104.186 50H102.29ZM128.243 39.44C128.243 39.6 128.163 39.68 128.003 39.68H125.411C125.347 39.68 125.315 39.712 125.315 39.776V46.136C125.315 46.808 125.467 47.296 125.771 47.6C126.075 47.888 126.547 48.032 127.187 48.032H127.883C128.043 48.032 128.123 48.112 128.123 48.272V49.76C128.123 49.92 128.043 50 127.883 50C127.371 50.032 127.003 50.048 126.779 50.048C125.563 50.048 124.643 49.832 124.019 49.4C123.411 48.952 123.107 48.136 123.107 46.952V39.776C123.107 39.712 123.075 39.68 123.011 39.68H121.547C121.387 39.68 121.307 39.6 121.307 39.44V38.024C121.307 37.864 121.387 37.784 121.547 37.784H123.011C123.075 37.784 123.107 37.752 123.107 37.688V34.856C123.107 34.696 123.187 34.616 123.347 34.616H125.075C125.235 34.616 125.315 34.696 125.315 34.856V37.688C125.315 37.752 125.347 37.784 125.411 37.784H128.003C128.163 37.784 128.243 37.864 128.243 38.024V39.44ZM135.789 50.192C134.605 50.192 133.573 49.896 132.693 49.304C131.813 48.696 131.197 47.856 130.845 46.784C130.557 45.92 130.413 44.944 130.413 43.856C130.413 42.72 130.549 41.76 130.821 40.976C131.173 39.92 131.789 39.096 132.669 38.504C133.549 37.896 134.597 37.592 135.813 37.592C136.965 37.592 137.965 37.896 138.813 38.504C139.677 39.096 140.293 39.912 140.661 40.952C140.949 41.768 141.093 42.728 141.093 43.832C141.093 44.952 140.949 45.936 140.661 46.784C140.309 47.856 139.701 48.696 138.837 49.304C137.973 49.896 136.957 50.192 135.789 50.192ZM135.789 48.2C136.429 48.2 136.989 48.024 137.469 47.672C137.949 47.304 138.293 46.792 138.501 46.136C138.677 45.528 138.765 44.776 138.765 43.88C138.765 42.984 138.685 42.24 138.525 41.648C138.317 40.992 137.973 40.488 137.493 40.136C137.013 39.768 136.429 39.584 135.741 39.584C135.085 39.584 134.517 39.768 134.037 40.136C133.557 40.488 133.213 40.992 133.005 41.648C132.829 42.208 132.741 42.952 132.741 43.88C132.741 44.808 132.829 45.56 133.005 46.136C133.197 46.792 133.533 47.304 134.013 47.672C134.509 48.024 135.101 48.2 135.789 48.2ZM158.802 42.368C158.866 43.024 158.89 43.76 158.874 44.576C158.874 44.736 158.794 44.816 158.634 44.816H150.978C150.914 44.816 150.882 44.848 150.882 44.912C150.882 45.456 150.93 45.872 151.026 46.16C151.202 46.8 151.554 47.304 152.082 47.672C152.626 48.024 153.306 48.2 154.122 48.2C155.306 48.2 156.218 47.712 156.858 46.736C156.938 46.576 157.042 46.552 157.17 46.664L158.538 47.576C158.65 47.672 158.674 47.776 158.61 47.888C158.162 48.608 157.522 49.176 156.69 49.592C155.874 50.008 154.946 50.216 153.906 50.216C152.738 50.216 151.754 49.96 150.954 49.448C150.154 48.936 149.554 48.208 149.154 47.264C148.77 46.32 148.578 45.176 148.578 43.832C148.578 42.664 148.666 41.776 148.842 41.168C149.13 40.064 149.706 39.192 150.57 38.552C151.434 37.912 152.482 37.592 153.714 37.592C155.33 37.592 156.538 38 157.338 38.816C158.138 39.616 158.626 40.8 158.802 42.368ZM153.714 39.584C153.026 39.584 152.458 39.76 152.01 40.112C151.562 40.448 151.258 40.904 151.098 41.48C150.986 41.832 150.914 42.28 150.882 42.824C150.882 42.888 150.914 42.92 150.978 42.92H156.474C156.538 42.92 156.57 42.888 156.57 42.824C156.538 42.296 156.49 41.904 156.426 41.648C156.266 41.024 155.946 40.528 155.466 40.16C155.002 39.776 154.418 39.584 153.714 39.584ZM162.022 50C161.862 50 161.782 49.92 161.782 49.76V33.44C161.782 33.28 161.862 33.2 162.022 33.2H163.846C164.006 33.2 164.086 33.28 164.086 33.44V49.76C164.086 49.92 164.006 50 163.846 50H162.022ZM177.318 42.368C177.382 43.024 177.406 43.76 177.39 44.576C177.39 44.736 177.31 44.816 177.15 44.816H169.494C169.43 44.816 169.398 44.848 169.398 44.912C169.398 45.456 169.446 45.872 169.542 46.16C169.718 46.8 170.07 47.304 170.598 47.672C171.142 48.024 171.822 48.2 172.638 48.2C173.822 48.2 174.734 47.712 175.374 46.736C175.454 46.576 175.558 46.552 175.686 46.664L177.054 47.576C177.166 47.672 177.19 47.776 177.126 47.888C176.678 48.608 176.038 49.176 175.206 49.592C174.39 50.008 173.462 50.216 172.422 50.216C171.254 50.216 170.27 49.96 169.47 49.448C168.67 48.936 168.07 48.208 167.67 47.264C167.286 46.32 167.094 45.176 167.094 43.832C167.094 42.664 167.182 41.776 167.358 41.168C167.646 40.064 168.222 39.192 169.086 38.552C169.95 37.912 170.998 37.592 172.23 37.592C173.846 37.592 175.054 38 175.854 38.816C176.654 39.616 177.142 40.8 177.318 42.368ZM172.23 39.584C171.542 39.584 170.974 39.76 170.526 40.112C170.078 40.448 169.774 40.904 169.614 41.48C169.502 41.832 169.43 42.28 169.398 42.824C169.398 42.888 169.43 42.92 169.494 42.92H174.99C175.054 42.92 175.086 42.888 175.086 42.824C175.054 42.296 175.006 41.904 174.942 41.648C174.782 41.024 174.462 40.528 173.982 40.16C173.518 39.776 172.934 39.584 172.23 39.584ZM183.091 50C182.947 50 182.851 49.936 182.803 49.808L178.891 38.048L178.867 37.952C178.867 37.84 178.939 37.784 179.083 37.784H181.099C181.243 37.784 181.339 37.848 181.387 37.976L184.027 46.664C184.043 46.696 184.067 46.712 184.099 46.712C184.131 46.712 184.155 46.696 184.171 46.664L186.787 37.976C186.835 37.848 186.931 37.784 187.075 37.784L189.091 37.808C189.267 37.808 189.331 37.896 189.283 38.072L185.395 49.808C185.347 49.936 185.251 50 185.107 50H183.091ZM195.73 37.592C196.706 37.592 197.554 37.768 198.274 38.12C199.01 38.456 199.57 38.936 199.954 39.56C200.354 40.168 200.554 40.864 200.554 41.648V49.76C200.554 49.92 200.474 50 200.314 50H198.49C198.33 50 198.25 49.92 198.25 49.76V48.896C198.25 48.816 198.21 48.8 198.13 48.848C197.714 49.28 197.202 49.616 196.594 49.856C196.002 50.08 195.338 50.192 194.602 50.192C193.418 50.192 192.434 49.896 191.65 49.304C190.882 48.696 190.498 47.784 190.498 46.568C190.498 45.32 190.93 44.344 191.794 43.64C192.674 42.92 193.898 42.56 195.466 42.56H198.154C198.218 42.56 198.25 42.528 198.25 42.464V41.816C198.25 41.112 198.042 40.568 197.626 40.184C197.226 39.784 196.61 39.584 195.778 39.584C195.106 39.584 194.554 39.72 194.122 39.992C193.706 40.248 193.45 40.6 193.354 41.048C193.306 41.208 193.21 41.28 193.066 41.264L191.122 41C190.962 40.968 190.89 40.904 190.906 40.808C191.034 39.864 191.538 39.096 192.418 38.504C193.298 37.896 194.402 37.592 195.73 37.592ZM195.106 48.248C195.954 48.248 196.69 48.024 197.314 47.576C197.938 47.128 198.25 46.56 198.25 45.872V44.456C198.25 44.392 198.218 44.36 198.154 44.36H195.898C194.954 44.36 194.202 44.544 193.642 44.912C193.082 45.28 192.802 45.792 192.802 46.448C192.802 47.04 193.01 47.488 193.426 47.792C193.858 48.096 194.418 48.248 195.106 48.248ZM209.524 39.44C209.524 39.6 209.444 39.68 209.284 39.68H206.692C206.628 39.68 206.596 39.712 206.596 39.776V46.136C206.596 46.808 206.748 47.296 207.052 47.6C207.356 47.888 207.828 48.032 208.468 48.032H209.164C209.324 48.032 209.404 48.112 209.404 48.272V49.76C209.404 49.92 209.324 50 209.164 50C208.652 50.032 208.284 50.048 208.06 50.048C206.844 50.048 205.924 49.832 205.3 49.4C204.692 48.952 204.388 48.136 204.388 46.952V39.776C204.388 39.712 204.356 39.68 204.292 39.68H202.828C202.668 39.68 202.588 39.6 202.588 39.44V38.024C202.588 37.864 202.668 37.784 202.828 37.784H204.292C204.356 37.784 204.388 37.752 204.388 37.688V34.856C204.388 34.696 204.468 34.616 204.628 34.616H206.356C206.516 34.616 206.596 34.696 206.596 34.856V37.688C206.596 37.752 206.628 37.784 206.692 37.784H209.284C209.444 37.784 209.524 37.864 209.524 38.024V39.44ZM221.966 42.368C222.03 43.024 222.054 43.76 222.038 44.576C222.038 44.736 221.958 44.816 221.798 44.816H214.142C214.078 44.816 214.046 44.848 214.046 44.912C214.046 45.456 214.094 45.872 214.19 46.16C214.366 46.8 214.718 47.304 215.246 47.672C215.79 48.024 216.47 48.2 217.286 48.2C218.47 48.2 219.382 47.712 220.022 46.736C220.102 46.576 220.206 46.552 220.334 46.664L221.702 47.576C221.814 47.672 221.838 47.776 221.774 47.888C221.326 48.608 220.686 49.176 219.854 49.592C219.038 50.008 218.11 50.216 217.07 50.216C215.902 50.216 214.918 49.96 214.118 49.448C213.318 48.936 212.718 48.208 212.318 47.264C211.934 46.32 211.742 45.176 211.742 43.832C211.742 42.664 211.83 41.776 212.006 41.168C212.294 40.064 212.87 39.192 213.734 38.552C214.598 37.912 215.646 37.592 216.878 37.592C218.494 37.592 219.702 38 220.502 38.816C221.302 39.616 221.79 40.8 221.966 42.368ZM216.878 39.584C216.19 39.584 215.622 39.76 215.174 40.112C214.726 40.448 214.422 40.904 214.262 41.48C214.15 41.832 214.078 42.28 214.046 42.824C214.046 42.888 214.078 42.92 214.142 42.92H219.638C219.702 42.92 219.734 42.888 219.734 42.824C219.702 42.296 219.654 41.904 219.59 41.648C219.43 41.024 219.11 40.528 218.63 40.16C218.166 39.776 217.582 39.584 216.878 39.584ZM25.32 86.776C25.208 86.776 25.152 86.696 25.152 86.536V85.12C25.152 84.96 25.232 84.88 25.392 84.88H25.44C26.08 84.864 26.584 84.784 26.952 84.64C27.32 84.496 27.624 84.224 27.864 83.824C28.104 83.44 28.336 82.856 28.56 82.072C28.576 82.056 28.576 82.032 28.56 82C28.56 81.952 28.56 81.928 28.56 81.928L24.552 70.048L24.528 69.952C24.528 69.84 24.6 69.784 24.744 69.784H26.688C26.832 69.784 26.928 69.848 26.976 69.976L29.688 79.024C29.704 79.056 29.728 79.072 29.76 79.072C29.792 79.072 29.816 79.056 29.832 79.024L32.52 69.976C32.568 69.848 32.664 69.784 32.808 69.784H34.704C34.88 69.784 34.944 69.872 34.896 70.048L30.528 82.84C30.16 83.944 29.792 84.76 29.424 85.288C29.056 85.832 28.576 86.216 27.984 86.44C27.392 86.664 26.56 86.776 25.488 86.776H25.32ZM41.547 82.192C40.363 82.192 39.331 81.896 38.451 81.304C37.571 80.696 36.955 79.856 36.603 78.784C36.315 77.92 36.171 76.944 36.171 75.856C36.171 74.72 36.307 73.76 36.579 72.976C36.931 71.92 37.547 71.096 38.427 70.504C39.307 69.896 40.355 69.592 41.571 69.592C42.723 69.592 43.723 69.896 44.571 70.504C45.435 71.096 46.051 71.912 46.419 72.952C46.707 73.768 46.851 74.728 46.851 75.832C46.851 76.952 46.707 77.936 46.419 78.784C46.067 79.856 45.459 80.696 44.595 81.304C43.731 81.896 42.715 82.192 41.547 82.192ZM41.547 80.2C42.187 80.2 42.747 80.024 43.227 79.672C43.707 79.304 44.051 78.792 44.259 78.136C44.435 77.528 44.523 76.776 44.523 75.88C44.523 74.984 44.443 74.24 44.283 73.648C44.075 72.992 43.731 72.488 43.251 72.136C42.771 71.768 42.187 71.584 41.499 71.584C40.843 71.584 40.275 71.768 39.795 72.136C39.315 72.488 38.971 72.992 38.763 73.648C38.587 74.208 38.499 74.952 38.499 75.88C38.499 76.808 38.587 77.56 38.763 78.136C38.955 78.792 39.291 79.304 39.771 79.672C40.267 80.024 40.859 80.2 41.547 80.2ZM57.1395 70.024C57.1395 69.864 57.2195 69.784 57.3795 69.784H59.1795C59.3395 69.784 59.4195 69.864 59.4195 70.024V81.76C59.4195 81.92 59.3395 82 59.1795 82H57.3795C57.2195 82 57.1395 81.92 57.1395 81.76V80.872C57.1395 80.84 57.1235 80.824 57.0915 80.824C57.0755 80.808 57.0515 80.816 57.0195 80.848C56.3795 81.728 55.3955 82.168 54.0675 82.168C53.2835 82.168 52.5555 82.016 51.8835 81.712C51.2275 81.408 50.6995 80.96 50.2995 80.368C49.8995 79.776 49.6995 79.056 49.6995 78.208V70.024C49.6995 69.864 49.7795 69.784 49.9395 69.784H51.7395C51.8995 69.784 51.9795 69.864 51.9795 70.024V77.488C51.9795 78.32 52.1955 78.976 52.6275 79.456C53.0755 79.936 53.6995 80.176 54.4995 80.176C55.2995 80.176 55.9395 79.936 56.4195 79.456C56.8995 78.96 57.1395 78.304 57.1395 77.488V70.024ZM68.1336 69.664C68.6456 69.664 69.1096 69.768 69.5256 69.976C69.6376 70.024 69.6776 70.12 69.6456 70.264L69.2616 72.064C69.2456 72.208 69.1496 72.256 68.9736 72.208C68.7016 72.096 68.3816 72.04 68.0136 72.04L67.6776 72.064C66.9256 72.096 66.3016 72.36 65.8056 72.856C65.3256 73.336 65.0856 73.968 65.0856 74.752V81.76C65.0856 81.92 65.0056 82 64.8456 82H63.0216C62.8616 82 62.7816 81.92 62.7816 81.76V70.024C62.7816 69.864 62.8616 69.784 63.0216 69.784H64.8456C65.0056 69.784 65.0856 69.864 65.0856 70.024V71.296C65.0856 71.344 65.0936 71.376 65.1096 71.392C65.1416 71.392 65.1656 71.376 65.1816 71.344C65.9016 70.224 66.8856 69.664 68.1336 69.664ZM84.0045 70.024C84.0045 69.864 84.0845 69.784 84.2445 69.784H86.0685C86.2285 69.784 86.3085 69.864 86.3085 70.024V81.376C86.3085 83.312 85.7565 84.696 84.6525 85.528C83.5645 86.36 82.1005 86.776 80.2605 86.776C80.0045 86.776 79.6045 86.76 79.0605 86.728C78.9005 86.712 78.8205 86.624 78.8205 86.464L78.8925 84.808C78.8925 84.744 78.9165 84.688 78.9645 84.64C79.0125 84.592 79.0765 84.576 79.1565 84.592C79.3805 84.608 79.7085 84.616 80.1405 84.616C81.5005 84.616 82.4845 84.36 83.0925 83.848C83.7005 83.352 84.0045 82.504 84.0045 81.304V80.872C84.0045 80.84 83.9885 80.816 83.9565 80.8C83.9405 80.784 83.9165 80.792 83.8845 80.824C83.2125 81.608 82.2285 82 80.9325 82C79.8925 82 78.9485 81.728 78.1005 81.184C77.2685 80.64 76.6925 79.84 76.3725 78.784C76.1645 78.08 76.0605 77.104 76.0605 75.856C76.0605 74.528 76.1805 73.504 76.4205 72.784C76.7245 71.824 77.2605 71.056 78.0285 70.48C78.8125 69.888 79.7325 69.592 80.7885 69.592C82.1005 69.592 83.1325 69.992 83.8845 70.792C83.9165 70.824 83.9405 70.84 83.9565 70.84C83.9885 70.824 84.0045 70.8 84.0045 70.768V70.024ZM83.8605 78.088C83.9085 77.832 83.9405 77.56 83.9565 77.272C83.9885 76.984 84.0045 76.504 84.0045 75.832C84.0045 75.16 83.9885 74.688 83.9565 74.416C83.9405 74.128 83.9005 73.856 83.8365 73.6C83.7085 73.008 83.4205 72.528 82.9725 72.16C82.5245 71.776 81.9645 71.584 81.2925 71.584C80.6205 71.584 80.0605 71.776 79.6125 72.16C79.1645 72.528 78.8445 73.008 78.6525 73.6C78.4765 74.08 78.3885 74.824 78.3885 75.832C78.3885 76.936 78.4685 77.688 78.6285 78.088C78.7885 78.68 79.1005 79.168 79.5645 79.552C80.0445 79.92 80.6205 80.104 81.2925 80.104C81.9965 80.104 82.5645 79.92 82.9965 79.552C83.4445 79.168 83.7325 78.68 83.8605 78.088ZM93.9878 69.592C94.9638 69.592 95.8118 69.768 96.5318 70.12C97.2678 70.456 97.8278 70.936 98.2118 71.56C98.6118 72.168 98.8118 72.864 98.8118 73.648V81.76C98.8118 81.92 98.7318 82 98.5718 82H96.7478C96.5878 82 96.5078 81.92 96.5078 81.76V80.896C96.5078 80.816 96.4678 80.8 96.3878 80.848C95.9718 81.28 95.4598 81.616 94.8518 81.856C94.2598 82.08 93.5958 82.192 92.8598 82.192C91.6758 82.192 90.6918 81.896 89.9078 81.304C89.1398 80.696 88.7558 79.784 88.7558 78.568C88.7558 77.32 89.1878 76.344 90.0518 75.64C90.9318 74.92 92.1558 74.56 93.7238 74.56H96.4118C96.4758 74.56 96.5078 74.528 96.5078 74.464V73.816C96.5078 73.112 96.2998 72.568 95.8838 72.184C95.4838 71.784 94.8678 71.584 94.0358 71.584C93.3638 71.584 92.8118 71.72 92.3798 71.992C91.9638 72.248 91.7078 72.6 91.6118 73.048C91.5638 73.208 91.4678 73.28 91.3238 73.264L89.3798 73C89.2198 72.968 89.1478 72.904 89.1638 72.808C89.2918 71.864 89.7958 71.096 90.6758 70.504C91.5558 69.896 92.6598 69.592 93.9878 69.592ZM93.3638 80.248C94.2118 80.248 94.9478 80.024 95.5718 79.576C96.1958 79.128 96.5078 78.56 96.5078 77.872V76.456C96.5078 76.392 96.4758 76.36 96.4118 76.36H94.1558C93.2118 76.36 92.4598 76.544 91.8998 76.912C91.3398 77.28 91.0598 77.792 91.0598 78.448C91.0598 79.04 91.2678 79.488 91.6838 79.792C92.1158 80.096 92.6758 80.248 93.3638 80.248ZM114.618 69.616C115.834 69.616 116.794 69.984 117.498 70.72C118.202 71.44 118.554 72.448 118.554 73.744V81.76C118.554 81.92 118.474 82 118.314 82H116.514C116.354 82 116.274 81.92 116.274 81.76V74.224C116.274 73.424 116.05 72.792 115.602 72.328C115.17 71.848 114.586 71.608 113.85 71.608C113.114 71.608 112.514 71.84 112.05 72.304C111.586 72.768 111.354 73.392 111.354 74.176V81.76C111.354 81.92 111.274 82 111.114 82H109.314C109.154 82 109.074 81.92 109.074 81.76V74.224C109.074 73.424 108.85 72.792 108.402 72.328C107.97 71.848 107.386 71.608 106.65 71.608C105.914 71.608 105.322 71.84 104.874 72.304C104.442 72.768 104.226 73.392 104.226 74.176V81.76C104.226 81.92 104.146 82 103.986 82H102.162C102.002 82 101.922 81.92 101.922 81.76V70.024C101.922 69.864 102.002 69.784 102.162 69.784H103.986C104.146 69.784 104.226 69.864 104.226 70.024V70.84C104.226 70.872 104.234 70.896 104.25 70.912C104.282 70.928 104.314 70.92 104.346 70.888C105.05 70.04 106.074 69.616 107.418 69.616C108.234 69.616 108.93 69.776 109.506 70.096C110.082 70.4 110.53 70.856 110.85 71.464C110.898 71.528 110.946 71.528 110.994 71.464C111.378 70.84 111.882 70.376 112.506 70.072C113.146 69.768 113.85 69.616 114.618 69.616ZM123.142 67.864C122.694 67.864 122.326 67.72 122.038 67.432C121.75 67.144 121.606 66.776 121.606 66.328C121.606 65.88 121.75 65.512 122.038 65.224C122.326 64.936 122.694 64.792 123.142 64.792C123.59 64.792 123.958 64.936 124.246 65.224C124.534 65.512 124.678 65.88 124.678 66.328C124.678 66.776 124.534 67.144 124.246 67.432C123.958 67.72 123.59 67.864 123.142 67.864ZM122.182 81.976C122.022 81.976 121.942 81.896 121.942 81.736V70.024C121.942 69.864 122.022 69.784 122.182 69.784H124.006C124.166 69.784 124.246 69.864 124.246 70.024V81.736C124.246 81.896 124.166 81.976 124.006 81.976H122.182ZM133.316 69.616C134.628 69.616 135.668 70 136.436 70.768C137.204 71.52 137.588 72.544 137.588 73.84V81.76C137.588 81.92 137.508 82 137.348 82H135.524C135.364 82 135.284 81.92 135.284 81.76V74.296C135.284 73.496 135.052 72.848 134.588 72.352C134.124 71.856 133.508 71.608 132.74 71.608C131.988 71.608 131.372 71.856 130.892 72.352C130.412 72.848 130.172 73.488 130.172 74.272V81.76C130.172 81.92 130.092 82 129.932 82H128.108C127.948 82 127.868 81.92 127.868 81.76V70.024C127.868 69.864 127.948 69.784 128.108 69.784H129.932C130.092 69.784 130.172 69.864 130.172 70.024V70.888C130.172 70.92 130.18 70.944 130.196 70.96C130.228 70.976 130.252 70.968 130.268 70.936C130.956 70.056 131.972 69.616 133.316 69.616ZM148.387 70.024C148.387 69.864 148.467 69.784 148.627 69.784H150.451C150.611 69.784 150.691 69.864 150.691 70.024V81.376C150.691 83.312 150.139 84.696 149.035 85.528C147.947 86.36 146.483 86.776 144.643 86.776C144.387 86.776 143.987 86.76 143.443 86.728C143.283 86.712 143.203 86.624 143.203 86.464L143.275 84.808C143.275 84.744 143.299 84.688 143.347 84.64C143.395 84.592 143.459 84.576 143.539 84.592C143.763 84.608 144.091 84.616 144.523 84.616C145.883 84.616 146.867 84.36 147.475 83.848C148.083 83.352 148.387 82.504 148.387 81.304V80.872C148.387 80.84 148.371 80.816 148.339 80.8C148.323 80.784 148.299 80.792 148.267 80.824C147.595 81.608 146.611 82 145.315 82C144.275 82 143.331 81.728 142.483 81.184C141.651 80.64 141.075 79.84 140.755 78.784C140.547 78.08 140.443 77.104 140.443 75.856C140.443 74.528 140.563 73.504 140.803 72.784C141.107 71.824 141.643 71.056 142.411 70.48C143.195 69.888 144.115 69.592 145.171 69.592C146.483 69.592 147.515 69.992 148.267 70.792C148.299 70.824 148.323 70.84 148.339 70.84C148.371 70.824 148.387 70.8 148.387 70.768V70.024ZM148.243 78.088C148.291 77.832 148.323 77.56 148.339 77.272C148.371 76.984 148.387 76.504 148.387 75.832C148.387 75.16 148.371 74.688 148.339 74.416C148.323 74.128 148.283 73.856 148.219 73.6C148.091 73.008 147.803 72.528 147.355 72.16C146.907 71.776 146.347 71.584 145.675 71.584C145.003 71.584 144.443 71.776 143.995 72.16C143.547 72.528 143.227 73.008 143.035 73.6C142.859 74.08 142.771 74.824 142.771 75.832C142.771 76.936 142.851 77.688 143.011 78.088C143.171 78.68 143.483 79.168 143.947 79.552C144.427 79.92 145.003 80.104 145.675 80.104C146.379 80.104 146.947 79.92 147.379 79.552C147.827 79.168 148.115 78.68 148.243 78.088ZM168.599 74.368C168.663 75.024 168.687 75.76 168.671 76.576C168.671 76.736 168.591 76.816 168.431 76.816H160.775C160.711 76.816 160.679 76.848 160.679 76.912C160.679 77.456 160.727 77.872 160.823 78.16C160.999 78.8 161.351 79.304 161.879 79.672C162.423 80.024 163.103 80.2 163.919 80.2C165.103 80.2 166.015 79.712 166.655 78.736C166.735 78.576 166.839 78.552 166.967 78.664L168.335 79.576C168.447 79.672 168.471 79.776 168.407 79.888C167.959 80.608 167.319 81.176 166.487 81.592C165.671 82.008 164.743 82.216 163.703 82.216C162.535 82.216 161.551 81.96 160.751 81.448C159.951 80.936 159.351 80.208 158.951 79.264C158.567 78.32 158.375 77.176 158.375 75.832C158.375 74.664 158.463 73.776 158.639 73.168C158.927 72.064 159.503 71.192 160.367 70.552C161.231 69.912 162.279 69.592 163.511 69.592C165.127 69.592 166.335 70 167.135 70.816C167.935 71.616 168.423 72.8 168.599 74.368ZM163.511 71.584C162.823 71.584 162.255 71.76 161.807 72.112C161.359 72.448 161.055 72.904 160.895 73.48C160.783 73.832 160.711 74.28 160.679 74.824C160.679 74.888 160.711 74.92 160.775 74.92H166.271C166.335 74.92 166.367 74.888 166.367 74.824C166.335 74.296 166.287 73.904 166.223 73.648C166.063 73.024 165.743 72.528 165.263 72.16C164.799 71.776 164.215 71.584 163.511 71.584ZM170.293 82C170.197 82 170.133 81.976 170.101 81.928C170.069 81.864 170.077 81.792 170.125 81.712L174.109 75.976C174.141 75.928 174.141 75.88 174.109 75.832L170.125 70.072L170.077 69.952C170.077 69.84 170.149 69.784 170.293 69.784H172.237C172.365 69.784 172.461 69.832 172.525 69.928L175.333 74.032C175.349 74.048 175.373 74.056 175.405 74.056C175.437 74.056 175.461 74.048 175.477 74.032L178.261 69.928C178.325 69.832 178.421 69.784 178.549 69.784H180.637C180.733 69.784 180.797 69.816 180.829 69.88C180.861 69.928 180.853 69.992 180.805 70.072L176.821 75.832C176.805 75.88 176.805 75.928 176.821 75.976L180.805 81.712L180.853 81.832C180.853 81.944 180.781 82 180.637 82H178.669C178.541 82 178.445 81.952 178.381 81.856L175.597 77.752C175.581 77.72 175.557 77.704 175.525 77.704C175.493 77.704 175.469 77.72 175.453 77.752L172.645 81.856C172.581 81.952 172.485 82 172.357 82H170.293ZM193.045 72.856C193.349 73.72 193.501 74.744 193.501 75.928C193.501 77.048 193.373 78.016 193.117 78.832C192.781 79.904 192.229 80.736 191.461 81.328C190.693 81.904 189.709 82.192 188.509 82.192C187.965 82.192 187.445 82.088 186.949 81.88C186.469 81.656 186.053 81.344 185.701 80.944C185.669 80.912 185.637 80.904 185.605 80.92C185.589 80.936 185.581 80.96 185.581 80.992V86.344C185.581 86.504 185.501 86.584 185.341 86.584H183.517C183.357 86.584 183.277 86.504 183.277 86.344V70.024C183.277 69.864 183.357 69.784 183.517 69.784H185.341C185.501 69.784 185.581 69.864 185.581 70.024V70.816C185.581 70.848 185.589 70.872 185.605 70.888C185.637 70.904 185.669 70.896 185.701 70.864C186.053 70.464 186.469 70.152 186.949 69.928C187.429 69.704 187.949 69.592 188.509 69.592C189.661 69.592 190.613 69.88 191.365 70.456C192.133 71.016 192.693 71.816 193.045 72.856ZM190.405 79.048C190.917 78.28 191.173 77.224 191.173 75.88C191.173 74.648 190.973 73.656 190.573 72.904C190.109 72.024 189.349 71.584 188.293 71.584C187.365 71.584 186.661 72.016 186.181 72.88C185.797 73.568 185.605 74.576 185.605 75.904C185.605 77.248 185.813 78.272 186.229 78.976C186.693 79.792 187.373 80.2 188.269 80.2C189.229 80.2 189.941 79.816 190.405 79.048ZM206.263 74.368C206.327 75.024 206.351 75.76 206.335 76.576C206.335 76.736 206.255 76.816 206.095 76.816H198.439C198.375 76.816 198.343 76.848 198.343 76.912C198.343 77.456 198.391 77.872 198.487 78.16C198.663 78.8 199.015 79.304 199.543 79.672C200.087 80.024 200.767 80.2 201.583 80.2C202.767 80.2 203.679 79.712 204.319 78.736C204.399 78.576 204.503 78.552 204.631 78.664L205.999 79.576C206.111 79.672 206.135 79.776 206.071 79.888C205.623 80.608 204.983 81.176 204.151 81.592C203.335 82.008 202.407 82.216 201.367 82.216C200.199 82.216 199.215 81.96 198.415 81.448C197.615 80.936 197.015 80.208 196.615 79.264C196.231 78.32 196.039 77.176 196.039 75.832C196.039 74.664 196.127 73.776 196.303 73.168C196.591 72.064 197.167 71.192 198.031 70.552C198.895 69.912 199.943 69.592 201.175 69.592C202.791 69.592 203.999 70 204.799 70.816C205.599 71.616 206.087 72.8 206.263 74.368ZM201.175 71.584C200.487 71.584 199.919 71.76 199.471 72.112C199.023 72.448 198.719 72.904 198.559 73.48C198.447 73.832 198.375 74.28 198.343 74.824C198.343 74.888 198.375 74.92 198.439 74.92H203.935C203.999 74.92 204.031 74.888 204.031 74.824C203.999 74.296 203.951 73.904 203.887 73.648C203.727 73.024 203.407 72.528 202.927 72.16C202.463 71.776 201.879 71.584 201.175 71.584ZM214.595 69.664C215.107 69.664 215.571 69.768 215.987 69.976C216.099 70.024 216.139 70.12 216.107 70.264L215.723 72.064C215.707 72.208 215.611 72.256 215.435 72.208C215.163 72.096 214.843 72.04 214.475 72.04L214.139 72.064C213.387 72.096 212.763 72.36 212.267 72.856C211.787 73.336 211.547 73.968 211.547 74.752V81.76C211.547 81.92 211.467 82 211.307 82H209.483C209.323 82 209.243 81.92 209.243 81.76V70.024C209.243 69.864 209.323 69.784 209.483 69.784H211.307C211.467 69.784 211.547 69.864 211.547 70.024V71.296C211.547 71.344 211.555 71.376 211.571 71.392C211.603 71.392 211.627 71.376 211.643 71.344C212.363 70.224 213.347 69.664 214.595 69.664ZM219.541 67.864C219.093 67.864 218.725 67.72 218.437 67.432C218.149 67.144 218.005 66.776 218.005 66.328C218.005 65.88 218.149 65.512 218.437 65.224C218.725 64.936 219.093 64.792 219.541 64.792C219.989 64.792 220.357 64.936 220.645 65.224C220.933 65.512 221.077 65.88 221.077 66.328C221.077 66.776 220.933 67.144 220.645 67.432C220.357 67.72 219.989 67.864 219.541 67.864ZM218.581 81.976C218.421 81.976 218.341 81.896 218.341 81.736V70.024C218.341 69.864 218.421 69.784 218.581 69.784H220.405C220.565 69.784 220.645 69.864 220.645 70.024V81.736C220.645 81.896 220.565 81.976 220.405 81.976H218.581ZM234.154 74.368C234.218 75.024 234.242 75.76 234.226 76.576C234.226 76.736 234.146 76.816 233.986 76.816H226.33C226.266 76.816 226.234 76.848 226.234 76.912C226.234 77.456 226.282 77.872 226.378 78.16C226.554 78.8 226.906 79.304 227.434 79.672C227.978 80.024 228.658 80.2 229.474 80.2C230.658 80.2 231.57 79.712 232.21 78.736C232.29 78.576 232.394 78.552 232.522 78.664L233.89 79.576C234.002 79.672 234.026 79.776 233.962 79.888C233.514 80.608 232.874 81.176 232.042 81.592C231.226 82.008 230.298 82.216 229.258 82.216C228.09 82.216 227.106 81.96 226.306 81.448C225.506 80.936 224.906 80.208 224.506 79.264C224.122 78.32 223.93 77.176 223.93 75.832C223.93 74.664 224.018 73.776 224.194 73.168C224.482 72.064 225.058 71.192 225.922 70.552C226.786 69.912 227.834 69.592 229.066 69.592C230.682 69.592 231.89 70 232.69 70.816C233.49 71.616 233.978 72.8 234.154 74.368ZM229.066 71.584C228.378 71.584 227.81 71.76 227.362 72.112C226.914 72.448 226.61 72.904 226.45 73.48C226.338 73.832 226.266 74.28 226.234 74.824C226.234 74.888 226.266 74.92 226.33 74.92H231.826C231.89 74.92 231.922 74.888 231.922 74.824C231.89 74.296 231.842 73.904 231.778 73.648C231.618 73.024 231.298 72.528 230.818 72.16C230.354 71.776 229.77 71.584 229.066 71.584ZM242.581 69.616C243.893 69.616 244.933 70 245.701 70.768C246.469 71.52 246.853 72.544 246.853 73.84V81.76C246.853 81.92 246.773 82 246.613 82H244.789C244.629 82 244.549 81.92 244.549 81.76V74.296C244.549 73.496 244.317 72.848 243.853 72.352C243.389 71.856 242.773 71.608 242.005 71.608C241.253 71.608 240.637 71.856 240.157 72.352C239.677 72.848 239.437 73.488 239.437 74.272V81.76C239.437 81.92 239.357 82 239.197 82H237.373C237.213 82 237.133 81.92 237.133 81.76V70.024C237.133 69.864 237.213 69.784 237.373 69.784H239.197C239.357 69.784 239.437 69.864 239.437 70.024V70.888C239.437 70.92 239.445 70.944 239.461 70.96C239.493 70.976 239.517 70.968 239.533 70.936C240.221 70.056 241.237 69.616 242.581 69.616ZM254.896 82.192C253.68 82.192 252.64 81.888 251.776 81.28C250.912 80.656 250.32 79.816 250 78.76C249.76 78.024 249.64 77.056 249.64 75.856C249.64 74.752 249.76 73.784 250 72.952C250.32 71.928 250.912 71.112 251.776 70.504C252.656 69.896 253.696 69.592 254.896 69.592C256.096 69.592 257.144 69.896 258.04 70.504C258.936 71.112 259.52 71.88 259.792 72.808C259.888 73.064 259.952 73.328 259.984 73.6C259.984 73.728 259.912 73.808 259.768 73.84L257.968 74.104H257.92C257.808 74.104 257.728 74.032 257.68 73.888L257.608 73.504C257.48 72.96 257.168 72.504 256.672 72.136C256.176 71.768 255.576 71.584 254.872 71.584C254.184 71.584 253.6 71.768 253.12 72.136C252.64 72.504 252.328 72.992 252.184 73.6C252.04 74.176 251.968 74.936 251.968 75.88C251.968 76.808 252.04 77.56 252.184 78.136C252.344 78.776 252.656 79.28 253.12 79.648C253.6 80.016 254.184 80.2 254.872 80.2C255.576 80.2 256.176 80.016 256.672 79.648C257.184 79.28 257.504 78.8 257.632 78.208C257.648 78.192 257.648 78.176 257.632 78.16C257.632 78.128 257.64 78.104 257.656 78.088V77.992C257.704 77.864 257.792 77.816 257.92 77.848L259.72 78.136C259.848 78.168 259.912 78.232 259.912 78.328V78.424C259.912 78.568 259.872 78.744 259.792 78.952C259.52 79.928 258.936 80.712 258.04 81.304C257.144 81.896 256.096 82.192 254.896 82.192ZM272.427 74.368C272.491 75.024 272.515 75.76 272.499 76.576C272.499 76.736 272.419 76.816 272.259 76.816H264.603C264.539 76.816 264.507 76.848 264.507 76.912C264.507 77.456 264.555 77.872 264.651 78.16C264.827 78.8 265.179 79.304 265.707 79.672C266.251 80.024 266.931 80.2 267.747 80.2C268.931 80.2 269.843 79.712 270.483 78.736C270.563 78.576 270.667 78.552 270.795 78.664L272.163 79.576C272.275 79.672 272.299 79.776 272.235 79.888C271.787 80.608 271.147 81.176 270.315 81.592C269.499 82.008 268.571 82.216 267.531 82.216C266.363 82.216 265.379 81.96 264.579 81.448C263.779 80.936 263.179 80.208 262.779 79.264C262.395 78.32 262.203 77.176 262.203 75.832C262.203 74.664 262.291 73.776 262.467 73.168C262.755 72.064 263.331 71.192 264.195 70.552C265.059 69.912 266.107 69.592 267.339 69.592C268.955 69.592 270.163 70 270.963 70.816C271.763 71.616 272.251 72.8 272.427 74.368ZM267.339 71.584C266.651 71.584 266.083 71.76 265.635 72.112C265.187 72.448 264.883 72.904 264.723 73.48C264.611 73.832 264.539 74.28 264.507 74.824C264.507 74.888 264.539 74.92 264.603 74.92H270.099C270.163 74.92 270.195 74.888 270.195 74.824C270.163 74.296 270.115 73.904 270.051 73.648C269.891 73.024 269.571 72.528 269.091 72.16C268.627 71.776 268.043 71.584 267.339 71.584Z" fill="white"/>
<defs>
<filter id="filter0_b_1123_6199" x="-86.6" y="-86.6" width="473.2" height="353.2" filterUnits="userSpaceOnUse" color-interpolation-filters="sRGB">
<feFlood flood-opacity="0" result="BackgroundImageFix"/>
<feGaussianBlur in="BackgroundImageFix" stdDeviation="43.3"/>
<feComposite in2="SourceAlpha" operator="in" result="effect1_backgroundBlur_1123_6199"/>
<feBlend mode="normal" in="SourceGraphic" in2="effect1_backgroundBlur_1123_6199" result="shape"/>
</filter>
<linearGradient id="paint0_linear_1123_6199" x1="206.146" y1="1.75808e-05" x2="93.8541" y2="180" gradientUnits="userSpaceOnUse">
<stop stop-color="#CAFE15"/>
<stop offset="1" stop-color="#14FF87"/>
</linearGradient>
</defs>
</svg>
