<svg width="53" height="53" viewBox="0 0 53 53" fill="none" xmlns="http://www.w3.org/2000/svg">
<g clip-path="url(#clip0_504_2368)">
<rect x="0.467773" y="0.716797" width="52" height="52" rx="10" fill="#141414"/>
<path d="M36.2178 34.2168C36.2178 34.4157 36.1388 34.6065 35.9981 34.7471C35.8575 34.8878 35.6667 34.9668 35.4678 34.9668H17.4678C17.2689 34.9668 17.0781 34.8878 16.9374 34.7471C16.7968 34.6065 16.7178 34.4157 16.7178 34.2168C16.7178 34.0179 16.7968 33.8271 16.9374 33.6865C17.0781 33.5458 17.2689 33.4668 17.4678 33.4668H18.2178V27.4668C18.2178 27.2679 18.2968 27.0771 18.4374 26.9365C18.5781 26.7958 18.7689 26.7168 18.9678 26.7168H21.2178C21.4167 26.7168 21.6075 26.7958 21.7481 26.9365C21.8888 27.0771 21.9678 27.2679 21.9678 27.4668V33.4668H23.4678V22.9668C23.4678 22.7679 23.5468 22.5771 23.6874 22.4365C23.8281 22.2958 24.0189 22.2168 24.2178 22.2168H27.2178C27.4167 22.2168 27.6075 22.2958 27.7481 22.4365C27.8888 22.5771 27.9678 22.7679 27.9678 22.9668V33.4668H29.4678V18.4668C29.4678 18.2679 29.5468 18.0771 29.6874 17.9365C29.8281 17.7958 30.0189 17.7168 30.2178 17.7168H33.9678C34.1667 17.7168 34.3575 17.7958 34.4981 17.9365C34.6388 18.0771 34.7178 18.2679 34.7178 18.4668V33.4668H35.4678C35.6667 33.4668 35.8575 33.5458 35.9981 33.6865C36.1388 33.8271 36.2178 34.0179 36.2178 34.2168Z" fill="#CAFE15"/>
<mask id="path-3-inside-1_504_2368" fill="white">
<path d="M0.467773 10.7168C0.467773 5.19395 4.94493 0.716797 10.4678 0.716797H42.4678C47.9906 0.716797 52.4678 5.19395 52.4678 10.7168V42.7168C52.4678 48.2396 47.9906 52.7168 42.4678 52.7168H10.4678C4.94493 52.7168 0.467773 48.2396 0.467773 42.7168V10.7168Z"/>
</mask>
<path d="M10.4678 1.7168H42.4678V-0.283203H10.4678V1.7168ZM51.4678 10.7168V42.7168H53.4678V10.7168H51.4678ZM42.4678 51.7168H10.4678V53.7168H42.4678V51.7168ZM1.46777 42.7168V10.7168H-0.532227V42.7168H1.46777ZM10.4678 51.7168C5.49721 51.7168 1.46777 47.6874 1.46777 42.7168H-0.532227C-0.532227 48.7919 4.39264 53.7168 10.4678 53.7168V51.7168ZM51.4678 42.7168C51.4678 47.6874 47.4383 51.7168 42.4678 51.7168V53.7168C48.5429 53.7168 53.4678 48.7919 53.4678 42.7168H51.4678ZM42.4678 1.7168C47.4383 1.7168 51.4678 5.74623 51.4678 10.7168H53.4678C53.4678 4.64166 48.5429 -0.283203 42.4678 -0.283203V1.7168ZM10.4678 -0.283203C4.39264 -0.283203 -0.532227 4.64167 -0.532227 10.7168H1.46777C1.46777 5.74624 5.49721 1.7168 10.4678 1.7168V-0.283203Z" fill="#1F1F1F" mask="url(#path-3-inside-1_504_2368)"/>
</g>
<defs>
<clipPath id="clip0_504_2368">
<rect x="0.467773" y="0.716797" width="52" height="52" rx="10" fill="white"/>
</clipPath>
</defs>
</svg>
