<svg width="53" height="53" viewBox="0 0 53 53" fill="none" xmlns="http://www.w3.org/2000/svg">
<g clip-path="url(#clip0_504_2347)">
<rect x="0.467773" y="0.716797" width="52" height="52" rx="10" fill="#141414"/>
<path d="M26.4678 16.9668C24.5394 16.9668 22.6543 17.5386 21.051 18.61C19.4476 19.6813 18.1979 21.2041 17.46 22.9856C16.722 24.7672 16.5289 26.7276 16.9051 28.6189C17.2813 30.5102 18.2099 32.2475 19.5735 33.6111C20.937 34.9747 22.6743 35.9032 24.5656 36.2795C26.457 36.6557 28.4174 36.4626 30.1989 35.7246C31.9805 34.9867 33.5033 33.737 34.5746 32.1336C35.646 30.5302 36.2178 28.6452 36.2178 26.7168C36.2148 24.1319 35.1866 21.6536 33.3588 19.8258C31.5309 17.998 29.0527 16.9698 26.4678 16.9668ZM33.814 22.9668H30.4718C30.051 21.4226 29.3416 19.9721 28.3812 18.6918C29.5416 18.9705 30.6279 19.4969 31.5658 20.2348C32.5037 20.9727 33.271 21.9046 33.815 22.9668H33.814ZM34.7178 26.7168C34.7184 27.4776 34.6134 28.2349 34.4056 28.9668H30.7953C31.0253 27.4756 31.0253 25.958 30.7953 24.4668H34.4056C34.6134 25.1987 34.7184 25.956 34.7178 26.7168ZM26.4678 18.748C27.5908 19.9504 28.4245 21.3933 28.9053 22.9668H24.0303C24.5105 21.3931 25.3443 19.9501 26.4678 18.748ZM24.0303 30.4668H28.9053C28.425 32.0405 27.5913 33.4835 26.4678 34.6855C25.3447 33.4832 24.511 32.0403 24.0303 30.4668ZM23.6647 28.9668C23.4072 27.4778 23.4072 25.9557 23.6647 24.4668H29.2784C29.5359 25.9557 29.5359 27.4778 29.2784 28.9668H23.6647ZM28.385 34.7418C29.3453 33.4615 30.0547 32.0109 30.4756 30.4668H33.8187C33.2743 31.5294 32.5065 32.4616 31.5679 33.1995C30.6293 33.9374 29.5422 34.4635 28.3812 34.7418H28.385Z" fill="#CAFE15"/>
<mask id="path-3-inside-1_504_2347" fill="white">
<path d="M0.467773 10.7168C0.467773 5.19395 4.94493 0.716797 10.4678 0.716797H42.4678C47.9906 0.716797 52.4678 5.19395 52.4678 10.7168V42.7168C52.4678 48.2396 47.9906 52.7168 42.4678 52.7168H10.4678C4.94493 52.7168 0.467773 48.2396 0.467773 42.7168V10.7168Z"/>
</mask>
<path d="M10.4678 1.7168H42.4678V-0.283203H10.4678V1.7168ZM51.4678 10.7168V42.7168H53.4678V10.7168H51.4678ZM42.4678 51.7168H10.4678V53.7168H42.4678V51.7168ZM1.46777 42.7168V10.7168H-0.532227V42.7168H1.46777ZM10.4678 51.7168C5.49721 51.7168 1.46777 47.6874 1.46777 42.7168H-0.532227C-0.532227 48.7919 4.39264 53.7168 10.4678 53.7168V51.7168ZM51.4678 42.7168C51.4678 47.6874 47.4383 51.7168 42.4678 51.7168V53.7168C48.5429 53.7168 53.4678 48.7919 53.4678 42.7168H51.4678ZM42.4678 1.7168C47.4383 1.7168 51.4678 5.74623 51.4678 10.7168H53.4678C53.4678 4.64166 48.5429 -0.283203 42.4678 -0.283203V1.7168ZM10.4678 -0.283203C4.39264 -0.283203 -0.532227 4.64167 -0.532227 10.7168H1.46777C1.46777 5.74624 5.49721 1.7168 10.4678 1.7168V-0.283203Z" fill="#1F1F1F" mask="url(#path-3-inside-1_504_2347)"/>
</g>
<defs>
<clipPath id="clip0_504_2347">
<rect x="0.467773" y="0.716797" width="52" height="52" rx="10" fill="white"/>
</clipPath>
</defs>
</svg>
