<svg width="53" height="53" viewBox="0 0 53 53" fill="none" xmlns="http://www.w3.org/2000/svg">
<g clip-path="url(#clip0_504_2392)">
<rect x="0.467773" y="0.716797" width="52" height="52" rx="10" fill="#141414"/>
<g clip-path="url(#clip1_504_2392)">
<g clip-path="url(#clip2_504_2392)">
<g clip-path="url(#clip3_504_2392)">
<path d="M32.951 31.4839C31.5842 31.8121 30.1573 31.7962 28.7981 31.4376C27.4389 31.079 26.1899 30.3889 25.1629 29.4292C24.1358 28.4694 23.3628 27.2699 22.9131 25.9381C22.4634 24.6063 22.351 23.1838 22.586 21.7979C22.5503 21.8324 22.5125 21.8648 22.473 21.8949C22.193 22.1079 21.843 22.1869 21.143 22.3449L20.508 22.4889C18.048 23.0459 16.818 23.3239 16.525 24.2649C16.233 25.2049 17.071 26.1859 18.748 28.1469L19.182 28.6539C19.658 29.2109 19.897 29.4899 20.004 29.8339C20.111 30.1789 20.075 30.5509 20.003 31.2939L19.937 31.9709C19.684 34.5879 19.557 35.8959 20.323 36.4769C21.089 37.0589 22.241 36.5289 24.543 35.4679L25.14 35.1939C25.794 34.8919 26.121 34.7419 26.468 34.7419C26.815 34.7419 27.142 34.8919 27.797 35.1939L28.392 35.4679C30.695 36.5279 31.847 37.0579 32.612 36.4779C33.379 35.8959 33.252 34.5879 32.999 31.9709L32.951 31.4839Z" fill="#CEF240"/>
<path opacity="0.5" d="M23.621 20.1248L23.293 20.7128C22.933 21.3588 22.753 21.6818 22.473 21.8948C22.513 21.8648 22.55 21.8328 22.586 21.7978C22.3509 23.1838 22.4633 24.6065 22.9131 25.9384C23.3628 27.2703 24.1359 28.4699 25.1631 29.4296C26.1902 30.3894 27.4394 31.0795 28.7987 31.438C30.1581 31.7965 31.5851 31.8122 32.952 31.4838L32.933 31.2938C32.861 30.5508 32.825 30.1788 32.933 29.8338C33.039 29.4898 33.278 29.2108 33.754 28.6538L34.188 28.1468C35.865 26.1868 36.703 25.2058 36.411 24.2648C36.118 23.3238 34.888 23.0448 32.428 22.4888L31.792 22.3448C31.093 22.1868 30.744 22.1078 30.463 21.8948C30.183 21.6818 30.003 21.3588 29.643 20.7128L29.315 20.1248C28.048 17.8528 27.415 16.7168 26.468 16.7168C25.521 16.7168 24.888 17.8528 23.621 20.1248Z" fill="#CEF240"/>
</g>
</g>
</g>
<mask id="path-4-inside-1_504_2392" fill="white">
<path d="M0.467773 10.7168C0.467773 5.19395 4.94493 0.716797 10.4678 0.716797H42.4678C47.9906 0.716797 52.4678 5.19395 52.4678 10.7168V42.7168C52.4678 48.2396 47.9906 52.7168 42.4678 52.7168H10.4678C4.94493 52.7168 0.467773 48.2396 0.467773 42.7168V10.7168Z"/>
</mask>
<path d="M10.4678 1.7168H42.4678V-0.283203H10.4678V1.7168ZM51.4678 10.7168V42.7168H53.4678V10.7168H51.4678ZM42.4678 51.7168H10.4678V53.7168H42.4678V51.7168ZM1.46777 42.7168V10.7168H-0.532227V42.7168H1.46777ZM10.4678 51.7168C5.49721 51.7168 1.46777 47.6874 1.46777 42.7168H-0.532227C-0.532227 48.7919 4.39264 53.7168 10.4678 53.7168V51.7168ZM51.4678 42.7168C51.4678 47.6874 47.4383 51.7168 42.4678 51.7168V53.7168C48.5429 53.7168 53.4678 48.7919 53.4678 42.7168H51.4678ZM42.4678 1.7168C47.4383 1.7168 51.4678 5.74623 51.4678 10.7168H53.4678C53.4678 4.64166 48.5429 -0.283203 42.4678 -0.283203V1.7168ZM10.4678 -0.283203C4.39264 -0.283203 -0.532227 4.64167 -0.532227 10.7168H1.46777C1.46777 5.74624 5.49721 1.7168 10.4678 1.7168V-0.283203Z" fill="#1F1F1F" mask="url(#path-4-inside-1_504_2392)"/>
</g>
<defs>
<clipPath id="clip0_504_2392">
<rect x="0.467773" y="0.716797" width="52" height="52" rx="10" fill="white"/>
</clipPath>
<clipPath id="clip1_504_2392">
<rect width="24" height="24" fill="white" transform="translate(14.4678 14.7168)"/>
</clipPath>
<clipPath id="clip2_504_2392">
<rect width="24" height="24" fill="white" transform="translate(14.4678 14.7168)"/>
</clipPath>
<clipPath id="clip3_504_2392">
<rect width="24" height="24" fill="white" transform="translate(14.4678 14.7168)"/>
</clipPath>
</defs>
</svg>
