<svg width="53" height="53" viewBox="0 0 53 53" fill="none" xmlns="http://www.w3.org/2000/svg">
<g clip-path="url(#clip0_504_2375)">
<rect x="0.467773" y="0.716797" width="52" height="52" rx="10" fill="#141414"/>
<path d="M34.7178 18.4668H18.2178C17.8199 18.4668 17.4384 18.6248 17.1571 18.9061C16.8758 19.1874 16.7178 19.569 16.7178 19.9668V33.4668C16.7178 33.8646 16.8758 34.2462 17.1571 34.5275C17.4384 34.8088 17.8199 34.9668 18.2178 34.9668H34.7178C35.1156 34.9668 35.4971 34.8088 35.7784 34.5275C36.0597 34.2462 36.2178 33.8646 36.2178 33.4668V19.9668C36.2178 19.569 36.0597 19.1874 35.7784 18.9061C35.4971 18.6248 35.1156 18.4668 34.7178 18.4668ZM23.1678 28.3668C23.3269 28.4861 23.4321 28.6638 23.4602 28.8607C23.4884 29.0576 23.4371 29.2577 23.3178 29.4168C23.1984 29.5759 23.0208 29.6811 22.8238 29.7093C22.6269 29.7374 22.4269 29.6861 22.2678 29.5668L19.2678 27.3168C19.1746 27.2469 19.099 27.1563 19.047 27.0522C18.9949 26.9481 18.9678 26.8332 18.9678 26.7168C18.9678 26.6004 18.9949 26.4855 19.047 26.3814C19.099 26.2772 19.1746 26.1867 19.2678 26.1168L22.2678 23.8668C22.4269 23.7474 22.6269 23.6962 22.8238 23.7243C23.0208 23.7525 23.1984 23.8577 23.3178 24.0168C23.4371 24.1759 23.4884 24.3759 23.4602 24.5729C23.4321 24.7698 23.3269 24.9474 23.1678 25.0668L20.9675 26.7168L23.1678 28.3668ZM28.6887 21.673L25.6887 32.173C25.6631 32.2694 25.6186 32.3597 25.5577 32.4387C25.4968 32.5177 25.4208 32.5837 25.3341 32.6329C25.2474 32.6822 25.1518 32.7136 25.0527 32.7254C24.9537 32.7373 24.8534 32.7292 24.7575 32.7018C24.6616 32.6744 24.5722 32.6281 24.4944 32.5657C24.4167 32.5033 24.3521 32.426 24.3046 32.3384C24.257 32.2507 24.2274 32.1545 24.2175 32.0553C24.2076 31.9561 24.2176 31.8559 24.2468 31.7605L27.2468 21.2605C27.3045 21.0728 27.4335 20.9152 27.6061 20.8215C27.7788 20.7278 27.9812 20.7056 28.1701 20.7597C28.3589 20.8137 28.519 20.9396 28.616 21.1104C28.713 21.2812 28.7391 21.4832 28.6887 21.673ZM33.6678 27.3168L30.6678 29.5668C30.5086 29.6861 30.3086 29.7374 30.1117 29.7093C29.9148 29.6811 29.7371 29.5759 29.6178 29.4168C29.4984 29.2577 29.4472 29.0576 29.4753 28.8607C29.5034 28.6638 29.6086 28.4861 29.7678 28.3668L31.9681 26.7168L29.7678 25.0668C29.689 25.0077 29.6226 24.9337 29.5724 24.8489C29.5222 24.7642 29.4892 24.6704 29.4753 24.5729C29.4614 24.4754 29.4668 24.3761 29.4912 24.2807C29.5157 24.1853 29.5587 24.0956 29.6178 24.0168C29.6769 23.938 29.7509 23.8716 29.8357 23.8214C29.9204 23.7713 30.0142 23.7383 30.1117 23.7243C30.2092 23.7104 30.3085 23.7158 30.4039 23.7403C30.4993 23.7647 30.589 23.8077 30.6678 23.8668L33.6678 26.1168C33.7609 26.1867 33.8365 26.2772 33.8886 26.3814C33.9407 26.4855 33.9678 26.6004 33.9678 26.7168C33.9678 26.8332 33.9407 26.9481 33.8886 27.0522C33.8365 27.1563 33.7609 27.2469 33.6678 27.3168Z" fill="#CAFE15"/>
<mask id="path-3-inside-1_504_2375" fill="white">
<path d="M0.467773 10.7168C0.467773 5.19395 4.94493 0.716797 10.4678 0.716797H42.4678C47.9906 0.716797 52.4678 5.19395 52.4678 10.7168V42.7168C52.4678 48.2396 47.9906 52.7168 42.4678 52.7168H10.4678C4.94493 52.7168 0.467773 48.2396 0.467773 42.7168V10.7168Z"/>
</mask>
<path d="M10.4678 1.7168H42.4678V-0.283203H10.4678V1.7168ZM51.4678 10.7168V42.7168H53.4678V10.7168H51.4678ZM42.4678 51.7168H10.4678V53.7168H42.4678V51.7168ZM1.46777 42.7168V10.7168H-0.532227V42.7168H1.46777ZM10.4678 51.7168C5.49721 51.7168 1.46777 47.6874 1.46777 42.7168H-0.532227C-0.532227 48.7919 4.39264 53.7168 10.4678 53.7168V51.7168ZM51.4678 42.7168C51.4678 47.6874 47.4383 51.7168 42.4678 51.7168V53.7168C48.5429 53.7168 53.4678 48.7919 53.4678 42.7168H51.4678ZM42.4678 1.7168C47.4383 1.7168 51.4678 5.74623 51.4678 10.7168H53.4678C53.4678 4.64166 48.5429 -0.283203 42.4678 -0.283203V1.7168ZM10.4678 -0.283203C4.39264 -0.283203 -0.532227 4.64167 -0.532227 10.7168H1.46777C1.46777 5.74624 5.49721 1.7168 10.4678 1.7168V-0.283203Z" fill="#1F1F1F" mask="url(#path-3-inside-1_504_2375)"/>
</g>
<defs>
<clipPath id="clip0_504_2375">
<rect x="0.467773" y="0.716797" width="52" height="52" rx="10" fill="white"/>
</clipPath>
</defs>
</svg>
