<svg width="53" height="53" viewBox="0 0 53 53" fill="none" xmlns="http://www.w3.org/2000/svg">
<g clip-path="url(#clip0_504_2382)">
<rect x="0.467773" y="0.716797" width="52" height="52" rx="10" fill="#141414"/>
<g clip-path="url(#clip1_504_2382)">
<g clip-path="url(#clip2_504_2382)">
<g clip-path="url(#clip3_504_2382)">
<path d="M16.4678 32.2168C16.4678 31.0233 16.9419 29.8787 17.7858 29.0348C18.6297 28.1909 19.7743 27.7168 20.9678 27.7168H23.6678C24.2978 27.7168 24.6128 27.7168 24.8538 27.8398C25.0648 27.9468 25.2378 28.1198 25.3448 28.3308C25.4678 28.5708 25.4678 28.8868 25.4678 29.5168V32.2168C25.4678 32.8077 25.3514 33.3929 25.1252 33.9389C24.8991 34.4848 24.5676 34.9809 24.1498 35.3988C23.7319 35.8166 23.2358 36.1481 22.6898 36.3743C22.1439 36.6004 21.5587 36.7168 20.9678 36.7168C20.3768 36.7168 19.7917 36.6004 19.2457 36.3743C18.6997 36.1481 18.2037 35.8166 17.7858 35.3988C17.3679 34.9809 17.0365 34.4848 16.8103 33.9389C16.5842 33.3929 16.4678 32.8077 16.4678 32.2168ZM27.4678 21.2168C27.4678 20.3268 27.7317 19.4568 28.2262 18.7167C28.7206 17.9767 29.4234 17.3999 30.2457 17.0593C31.068 16.7187 31.9728 16.6296 32.8457 16.8033C33.7186 16.9769 34.5204 17.4055 35.1498 18.0348C35.7791 18.6642 36.2077 19.466 36.3813 20.3389C36.5549 21.2118 36.4658 22.1166 36.1252 22.9389C35.7846 23.7611 35.2079 24.4639 34.4678 24.9584C33.7278 25.4529 32.8578 25.7168 31.9678 25.7168H28.7538C28.6038 25.7168 28.5298 25.7168 28.4668 25.7098C28.2135 25.6813 27.9774 25.5676 27.7972 25.3874C27.617 25.2071 27.5033 24.9711 27.4748 24.7178C27.4678 24.6548 27.4678 24.5808 27.4678 24.4308V21.2168Z" fill="#CEF240"/>
<path opacity="0.5" d="M16.4678 21.2168C16.4678 20.0233 16.9419 18.8787 17.7858 18.0348C18.6297 17.1909 19.7743 16.7168 20.9678 16.7168C22.1612 16.7168 23.3058 17.1909 24.1498 18.0348C24.9937 18.8787 25.4678 20.0233 25.4678 21.2168V24.2168C25.4678 24.5658 25.4678 24.7398 25.4298 24.8828C25.3787 25.0737 25.2782 25.2478 25.1385 25.3875C24.9988 25.5273 24.8247 25.6277 24.6338 25.6788C24.4908 25.7168 24.3178 25.7168 23.9678 25.7168H20.9678C19.7743 25.7168 18.6297 25.2427 17.7858 24.3988C16.9419 23.5549 16.4678 22.4103 16.4678 21.2168ZM27.4678 29.2168C27.4678 28.8678 27.4678 28.6938 27.5058 28.5508C27.6098 28.1628 27.9138 27.8588 28.3018 27.7548C28.4448 27.7168 28.6188 27.7168 28.9678 27.7168H31.9678C32.8578 27.7168 33.7278 27.9807 34.4678 28.4752C35.2079 28.9696 35.7846 29.6725 36.1252 30.4947C36.4658 31.317 36.5549 32.2218 36.3813 33.0947C36.2077 33.9676 35.7791 34.7694 35.1498 35.3988C34.5204 36.0281 33.7186 36.4567 32.8457 36.6303C31.9728 36.804 31.068 36.7148 30.2457 36.3743C29.4234 36.0337 28.7206 35.4569 28.2262 34.7169C27.7317 33.9768 27.4678 33.1068 27.4678 32.2168V29.2168Z" fill="#CEF240"/>
</g>
</g>
</g>
<mask id="path-4-inside-1_504_2382" fill="white">
<path d="M0.467773 10.7168C0.467773 5.19395 4.94493 0.716797 10.4678 0.716797H42.4678C47.9906 0.716797 52.4678 5.19395 52.4678 10.7168V42.7168C52.4678 48.2396 47.9906 52.7168 42.4678 52.7168H10.4678C4.94493 52.7168 0.467773 48.2396 0.467773 42.7168V10.7168Z"/>
</mask>
<path d="M10.4678 1.7168H42.4678V-0.283203H10.4678V1.7168ZM51.4678 10.7168V42.7168H53.4678V10.7168H51.4678ZM42.4678 51.7168H10.4678V53.7168H42.4678V51.7168ZM1.46777 42.7168V10.7168H-0.532227V42.7168H1.46777ZM10.4678 51.7168C5.49721 51.7168 1.46777 47.6874 1.46777 42.7168H-0.532227C-0.532227 48.7919 4.39264 53.7168 10.4678 53.7168V51.7168ZM51.4678 42.7168C51.4678 47.6874 47.4383 51.7168 42.4678 51.7168V53.7168C48.5429 53.7168 53.4678 48.7919 53.4678 42.7168H51.4678ZM42.4678 1.7168C47.4383 1.7168 51.4678 5.74623 51.4678 10.7168H53.4678C53.4678 4.64166 48.5429 -0.283203 42.4678 -0.283203V1.7168ZM10.4678 -0.283203C4.39264 -0.283203 -0.532227 4.64167 -0.532227 10.7168H1.46777C1.46777 5.74624 5.49721 1.7168 10.4678 1.7168V-0.283203Z" fill="#1F1F1F" mask="url(#path-4-inside-1_504_2382)"/>
</g>
<defs>
<clipPath id="clip0_504_2382">
<rect x="0.467773" y="0.716797" width="52" height="52" rx="10" fill="white"/>
</clipPath>
<clipPath id="clip1_504_2382">
<rect width="24" height="24" fill="white" transform="translate(14.4678 14.7168)"/>
</clipPath>
<clipPath id="clip2_504_2382">
<rect width="24" height="24" fill="white" transform="translate(14.4678 14.7168)"/>
</clipPath>
<clipPath id="clip3_504_2382">
<rect width="24" height="24" fill="white" transform="translate(14.4678 14.7168)"/>
</clipPath>
</defs>
</svg>
