<svg width="61" height="61" viewBox="0 0 61 61" fill="none" xmlns="http://www.w3.org/2000/svg">
<g clip-path="url(#clip0_504_2354)">
<rect x="0.467773" y="0.716797" width="60" height="60" rx="10" fill="#141414"/>
<path d="M30.4678 17.7168C27.8966 17.7168 25.3832 18.4792 23.2454 19.9077C21.1075 21.3362 19.4413 23.3665 18.4573 25.7419C17.4734 28.1174 17.216 30.7312 17.7176 33.253C18.2192 35.7747 19.4573 38.0911 21.2754 39.9092C23.0935 41.7273 25.4099 42.9654 27.9316 43.467C30.4534 43.9686 33.0672 43.7112 35.4427 42.7272C37.8181 41.7433 39.8484 40.077 41.2769 37.9392C42.7053 35.8014 43.4678 33.288 43.4678 30.7168C43.4641 27.2701 42.0933 23.9656 39.6561 21.5284C37.219 19.0912 33.9145 17.7204 30.4678 17.7168ZM24.9253 37.2318L24.3253 38.2318C24.2576 38.3444 24.1685 38.4426 24.0629 38.5207C23.9573 38.5989 23.8374 38.6555 23.71 38.6873C23.5825 38.7191 23.4501 38.7255 23.3201 38.7061C23.1902 38.6867 23.0654 38.6419 22.9528 38.5743C22.8402 38.5067 22.742 38.4175 22.6638 38.3119C22.5857 38.2064 22.5291 38.0864 22.4973 37.959C22.4655 37.8315 22.4591 37.6991 22.4785 37.5691C22.4979 37.4392 22.5426 37.3144 22.6103 37.2018L23.2103 36.2018C23.3469 35.9744 23.5682 35.8105 23.8256 35.7463C24.083 35.6821 24.3554 35.7227 24.5828 35.8593C24.8102 35.9959 24.9741 36.2172 25.0383 36.4746C25.1025 36.732 25.0619 37.0044 24.9253 37.2318ZM30.4678 33.7168H21.4678C21.2026 33.7168 20.9482 33.6114 20.7607 33.4239C20.5731 33.2364 20.4678 32.982 20.4678 32.7168C20.4678 32.4516 20.5731 32.1972 20.7607 32.0097C20.9482 31.8222 21.2026 31.7168 21.4678 31.7168H25.9015L29.3015 26.0505L27.6103 23.2318C27.5426 23.1192 27.4979 22.9944 27.4785 22.8644C27.4591 22.7345 27.4655 22.6021 27.4973 22.4746C27.5291 22.3472 27.5857 22.2272 27.6638 22.1217C27.742 22.0161 27.8402 21.9269 27.9528 21.8593C28.1802 21.7227 28.4526 21.6821 28.71 21.7463C28.8374 21.7781 28.9573 21.8347 29.0629 21.9128C29.1685 21.991 29.2576 22.0892 29.3253 22.2018L30.4678 24.1068L31.6103 22.2018C31.6779 22.0892 31.7671 21.991 31.8726 21.9128C31.9782 21.8347 32.0981 21.7781 32.2256 21.7463C32.353 21.7145 32.4855 21.7081 32.6154 21.7275C32.7453 21.7469 32.8702 21.7917 32.9828 21.8593C33.0954 21.9269 33.1936 22.0161 33.2717 22.1217C33.3499 22.2272 33.4065 22.3472 33.4383 22.4746C33.4701 22.6021 33.4765 22.7345 33.4571 22.8644C33.4377 22.9944 33.3929 23.1192 33.3253 23.2318L28.234 31.7168H30.4678C30.733 31.7168 30.9874 31.8222 31.1749 32.0097C31.3624 32.1972 31.4678 32.4516 31.4678 32.7168C31.4678 32.982 31.3624 33.2364 31.1749 33.4239C30.9874 33.6114 30.733 33.7168 30.4678 33.7168ZM39.4678 33.7168H36.234L38.3253 37.2018C38.4619 37.4292 38.5025 37.7016 38.4383 37.959C38.3741 38.2164 38.2102 38.4377 37.9828 38.5743C37.7554 38.7109 37.483 38.7515 37.2256 38.6873C36.9682 38.6231 36.7469 38.4592 36.6103 38.2318L31.8103 30.2318C31.6737 30.0044 31.633 29.732 31.6973 29.4746C31.7615 29.2172 31.9254 28.9959 32.1528 28.8593C32.3802 28.7227 32.6526 28.6821 32.91 28.7463C33.1674 28.8105 33.3887 28.9744 33.5253 29.2018L35.034 31.7168H39.4678C39.733 31.7168 39.9874 31.8222 40.1749 32.0097C40.3624 32.1972 40.4678 32.4516 40.4678 32.7168C40.4678 32.982 40.3624 33.2364 40.1749 33.4239C39.9874 33.6114 39.733 33.7168 39.4678 33.7168Z" fill="#CAFE15"/>
<mask id="path-3-inside-1_504_2354" fill="white">
<path d="M0.467773 10.7168C0.467773 5.19395 4.94493 0.716797 10.4678 0.716797H50.4678C55.9906 0.716797 60.4678 5.19395 60.4678 10.7168V50.7168C60.4678 56.2396 55.9906 60.7168 50.4678 60.7168H10.4678C4.94493 60.7168 0.467773 56.2396 0.467773 50.7168V10.7168Z"/>
</mask>
<path d="M10.4678 1.7168H50.4678V-0.283203H10.4678V1.7168ZM59.4678 10.7168V50.7168H61.4678V10.7168H59.4678ZM50.4678 59.7168H10.4678V61.7168H50.4678V59.7168ZM1.46777 50.7168V10.7168H-0.532227V50.7168H1.46777ZM10.4678 59.7168C5.49721 59.7168 1.46777 55.6874 1.46777 50.7168H-0.532227C-0.532227 56.7919 4.39264 61.7168 10.4678 61.7168V59.7168ZM59.4678 50.7168C59.4678 55.6874 55.4383 59.7168 50.4678 59.7168V61.7168C56.5429 61.7168 61.4678 56.7919 61.4678 50.7168H59.4678ZM50.4678 1.7168C55.4383 1.7168 59.4678 5.74623 59.4678 10.7168H61.4678C61.4678 4.64166 56.5429 -0.283203 50.4678 -0.283203V1.7168ZM10.4678 -0.283203C4.39264 -0.283203 -0.532227 4.64167 -0.532227 10.7168H1.46777C1.46777 5.74624 5.49721 1.7168 10.4678 1.7168V-0.283203Z" fill="#1F1F1F" mask="url(#path-3-inside-1_504_2354)"/>
</g>
<defs>
<clipPath id="clip0_504_2354">
<rect x="0.467773" y="0.716797" width="60" height="60" rx="10" fill="white"/>
</clipPath>
</defs>
</svg>
