<svg width="53" height="53" viewBox="0 0 53 53" fill="none" xmlns="http://www.w3.org/2000/svg">
<g clip-path="url(#clip0_504_2361)">
<rect x="0.467773" y="0.716797" width="52" height="52" rx="10" fill="#141414"/>
<path d="M30.9678 16.2168H21.9678C21.371 16.2168 20.7987 16.4538 20.3768 16.8758C19.9548 17.2978 19.7178 17.8701 19.7178 18.4668V34.9668C19.7178 35.5635 19.9548 36.1358 20.3768 36.5578C20.7987 36.9797 21.371 37.2168 21.9678 37.2168H30.9678C31.5645 37.2168 32.1368 36.9797 32.5588 36.5578C32.9807 36.1358 33.2178 35.5635 33.2178 34.9668V18.4668C33.2178 17.8701 32.9807 17.2978 32.5588 16.8758C32.1368 16.4538 31.5645 16.2168 30.9678 16.2168ZM21.9678 17.7168H30.9678C31.1667 17.7168 31.3575 17.7958 31.4981 17.9365C31.6388 18.0771 31.7178 18.2679 31.7178 18.4668V19.2168H21.2178V18.4668C21.2178 18.2679 21.2968 18.0771 21.4374 17.9365C21.5781 17.7958 21.7689 17.7168 21.9678 17.7168ZM30.9678 35.7168H21.9678C21.7689 35.7168 21.5781 35.6378 21.4374 35.4971C21.2968 35.3565 21.2178 35.1657 21.2178 34.9668V34.2168H31.7178V34.9668C31.7178 35.1657 31.6388 35.3565 31.4981 35.4971C31.3575 35.6378 31.1667 35.7168 30.9678 35.7168Z" fill="#CAFE15"/>
<mask id="path-3-inside-1_504_2361" fill="white">
<path d="M0.467773 10.7168C0.467773 5.19395 4.94493 0.716797 10.4678 0.716797H42.4678C47.9906 0.716797 52.4678 5.19395 52.4678 10.7168V42.7168C52.4678 48.2396 47.9906 52.7168 42.4678 52.7168H10.4678C4.94493 52.7168 0.467773 48.2396 0.467773 42.7168V10.7168Z"/>
</mask>
<path d="M10.4678 1.7168H42.4678V-0.283203H10.4678V1.7168ZM51.4678 10.7168V42.7168H53.4678V10.7168H51.4678ZM42.4678 51.7168H10.4678V53.7168H42.4678V51.7168ZM1.46777 42.7168V10.7168H-0.532227V42.7168H1.46777ZM10.4678 51.7168C5.49721 51.7168 1.46777 47.6874 1.46777 42.7168H-0.532227C-0.532227 48.7919 4.39264 53.7168 10.4678 53.7168V51.7168ZM51.4678 42.7168C51.4678 47.6874 47.4383 51.7168 42.4678 51.7168V53.7168C48.5429 53.7168 53.4678 48.7919 53.4678 42.7168H51.4678ZM42.4678 1.7168C47.4383 1.7168 51.4678 5.74623 51.4678 10.7168H53.4678C53.4678 4.64166 48.5429 -0.283203 42.4678 -0.283203V1.7168ZM10.4678 -0.283203C4.39264 -0.283203 -0.532227 4.64167 -0.532227 10.7168H1.46777C1.46777 5.74624 5.49721 1.7168 10.4678 1.7168V-0.283203Z" fill="#1F1F1F" mask="url(#path-3-inside-1_504_2361)"/>
</g>
<defs>
<clipPath id="clip0_504_2361">
<rect x="0.467773" y="0.716797" width="52" height="52" rx="10" fill="white"/>
</clipPath>
</defs>
</svg>
