<svg width="52" height="52" viewBox="0 0 52 52" fill="none" xmlns="http://www.w3.org/2000/svg">
<rect width="52" height="52" rx="12" fill="#0A0A0A"/>
<g clip-path="url(#clip0_1600_7016)">
<g clip-path="url(#clip1_1600_7016)">
<path fill-rule="evenodd" clip-rule="evenodd" d="M17 20.75C17 20.5511 17.079 20.3603 17.2197 20.2197C17.3603 20.079 17.5511 20 17.75 20H34.25C34.4489 20 34.6397 20.079 34.7803 20.2197C34.921 20.3603 35 20.5511 35 20.75C35 20.9489 34.921 21.1397 34.7803 21.2803C34.6397 21.421 34.4489 21.5 34.25 21.5H17.75C17.5511 21.5 17.3603 21.421 17.2197 21.2803C17.079 21.1397 17 20.9489 17 20.75ZM17 26C17 25.8011 17.079 25.6103 17.2197 25.4697C17.3603 25.329 17.5511 25.25 17.75 25.25H34.25C34.4489 25.25 34.6397 25.329 34.7803 25.4697C34.921 25.6103 35 25.8011 35 26C35 26.1989 34.921 26.3897 34.7803 26.5303C34.6397 26.671 34.4489 26.75 34.25 26.75H17.75C17.5511 26.75 17.3603 26.671 17.2197 26.5303C17.079 26.3897 17 26.1989 17 26ZM25.25 31.25C25.25 31.0511 25.329 30.8603 25.4697 30.7197C25.6103 30.579 25.8011 30.5 26 30.5H34.25C34.4489 30.5 34.6397 30.579 34.7803 30.7197C34.921 30.8603 35 31.0511 35 31.25C35 31.4489 34.921 31.6397 34.7803 31.7803C34.6397 31.921 34.4489 32 34.25 32H26C25.8011 32 25.6103 31.921 25.4697 31.7803C25.329 31.6397 25.25 31.4489 25.25 31.25Z" fill="white"/>
</g>
</g>
<mask id="path-3-inside-1_1600_7016" fill="white">
<path d="M0 12C0 5.37258 5.37258 0 12 0H40C46.6274 0 52 5.37258 52 12V40C52 46.6274 46.6274 52 40 52H12C5.37258 52 0 46.6274 0 40V12Z"/>
</mask>
<path d="M12 1H40V-1H12V1ZM51 12V40H53V12H51ZM40 51H12V53H40V51ZM1 40V12H-1V40H1ZM12 51C5.92487 51 1 46.0751 1 40H-1C-1 47.1797 4.8203 53 12 53V51ZM51 40C51 46.0751 46.0751 51 40 51V53C47.1797 53 53 47.1797 53 40H51ZM40 1C46.0751 1 51 5.92487 51 12H53C53 4.8203 47.1797 -1 40 -1V1ZM12 -1C4.8203 -1 -1 4.8203 -1 12H1C1 5.92487 5.92487 1 12 1V-1Z" fill="#302F2F" mask="url(#path-3-inside-1_1600_7016)"/>
<defs>
<clipPath id="clip0_1600_7016">
<rect width="24" height="24" fill="white" transform="translate(14 14)"/>
</clipPath>
<clipPath id="clip1_1600_7016">
<rect width="24" height="24" fill="white" transform="translate(14 14)"/>
</clipPath>
</defs>
</svg>
