<svg width="52" height="52" viewBox="0 0 52 52" fill="none" xmlns="http://www.w3.org/2000/svg">
<rect width="52" height="52" rx="12" fill="#0A0A0A"/>
<path d="M27.0487 26L35 33.9629L33.9629 35L26 27.0487L18.0371 35L17 33.9629L24.9513 26L17 18.0371L18.0371 17L26 24.9513L33.9629 17L35 18.0371L27.0487 26Z" fill="white"/>
<mask id="path-3-inside-1_1600_7002" fill="white">
<path d="M0 12C0 5.37258 5.37258 0 12 0H40C46.6274 0 52 5.37258 52 12V40C52 46.6274 46.6274 52 40 52H12C5.37258 52 0 46.6274 0 40V12Z"/>
</mask>
<path d="M12 1H40V-1H12V1ZM51 12V40H53V12H51ZM40 51H12V53H40V51ZM1 40V12H-1V40H1ZM12 51C5.92487 51 1 46.0751 1 40H-1C-1 47.1797 4.8203 53 12 53V51ZM51 40C51 46.0751 46.0751 51 40 51V53C47.1797 53 53 47.1797 53 40H51ZM40 1C46.0751 1 51 5.92487 51 12H53C53 4.8203 47.1797 -1 40 -1V1ZM12 -1C4.8203 -1 -1 4.8203 -1 12H1C1 5.92487 5.92487 1 12 1V-1Z" fill="#1E1E1E" mask="url(#path-3-inside-1_1600_7002)"/>
</svg>
