<svg width="158" height="158" viewBox="0 0 158 158" fill="none" xmlns="http://www.w3.org/2000/svg">
<g clip-path="url(#clip0_1760_2658)">
<rect width="2.00085" height="8.00165" transform="matrix(-0.984783 0.173786 -0.173785 -0.984784 93.8396 157.559)" fill="#CAFE15"/>
<rect width="1.99913" height="8.00165" transform="matrix(-0.984783 0.173786 -0.173785 -0.984784 67.4297 7.87939)" fill="#CAFE15"/>
</g>
<g clip-path="url(#clip1_1760_2658)">
<rect width="2.00262" height="8.00362" transform="matrix(0.93974 0.34189 -0.341888 0.939741 105.369 3.42871)" fill="#CAFE15"/>
<rect width="2.00262" height="8.00362" transform="matrix(0.93974 0.34189 -0.341888 0.939741 53.3994 146.269)" fill="#CAFE15"/>
</g>
<g clip-path="url(#clip2_1760_2658)">
<rect width="1.99482" height="7.99979" transform="matrix(0.642893 0.765956 -0.765954 0.642895 139.59 26.7588)" fill="#CAFE15"/>
<rect width="2.00125" height="7.99213" transform="matrix(0.642893 0.765956 -0.765954 0.642895 23.1594 124.479)" fill="#CAFE15"/>
</g>
<g clip-path="url(#clip3_1760_2658)">
<rect width="2.00085" height="8.00166" transform="matrix(0.173785 0.984784 -0.984783 0.173786 157.559 64.0688)" fill="#CAFE15"/>
<rect width="1.99912" height="8.00166" transform="matrix(0.173785 0.984784 -0.984783 0.173786 7.87915 90.479)" fill="#CAFE15"/>
</g>
<g clip-path="url(#clip4_1760_2658)">
<rect width="1.99324" height="8.00362" transform="matrix(-0.341888 0.939741 -0.93974 -0.34189 154.479 105.369)" fill="#CAFE15"/>
<rect width="2.00262" height="8.00362" transform="matrix(-0.341888 0.939741 -0.93974 -0.34189 11.6392 53.3984)" fill="#CAFE15"/>
</g>
<g clip-path="url(#clip5_1760_2658)">
<rect width="1.99482" height="7.99977" transform="matrix(-0.765954 0.642895 -0.642893 -0.765956 131.15 139.589)" fill="#CAFE15"/>
<rect width="2.00125" height="7.99977" transform="matrix(-0.765954 0.642895 -0.642893 -0.765956 33.4297 23.1592)" fill="#CAFE15"/>
</g>
<defs>
<clipPath id="clip0_1760_2658">
<rect width="2.00085" height="159.994" fill="white" transform="matrix(-0.984783 0.173786 -0.173785 -0.984784 93.8396 157.559)"/>
</clipPath>
<clipPath id="clip1_1760_2658">
<rect width="2.00263" height="160.004" fill="white" transform="matrix(0.93974 0.34189 -0.341888 0.939741 105.369 3.42871)"/>
</clipPath>
<clipPath id="clip2_1760_2658">
<rect width="1.99482" height="159.996" fill="white" transform="matrix(0.642893 0.765956 -0.765954 0.642895 139.59 26.7588)"/>
</clipPath>
<clipPath id="clip3_1760_2658">
<rect width="2.00085" height="159.994" fill="white" transform="matrix(0.173785 0.984784 -0.984783 0.173786 157.559 64.0688)"/>
</clipPath>
<clipPath id="clip4_1760_2658">
<rect width="1.99324" height="160.004" fill="white" transform="matrix(-0.341888 0.939741 -0.93974 -0.34189 154.479 105.369)"/>
</clipPath>
<clipPath id="clip5_1760_2658">
<rect width="1.99482" height="160.003" fill="white" transform="matrix(-0.765954 0.642895 -0.642893 -0.765956 131.15 139.589)"/>
</clipPath>
</defs>
</svg>
