<svg width="260" height="220" viewBox="0 0 260 220" fill="none" xmlns="http://www.w3.org/2000/svg">
<rect x="0.5" y="0.5" width="259" height="219" rx="19.5" fill="url(#paint0_linear_2110_8833)" stroke="url(#paint1_linear_2110_8833)"/>
<path d="M86.3584 158.16C85.3318 158.16 84.4384 158 83.6784 157.68C82.9318 157.36 82.3518 156.907 81.9384 156.32C81.5384 155.733 81.3384 155.047 81.3384 154.26V153.68C81.3384 153.547 81.4051 153.48 81.5384 153.48H82.9984C83.1318 153.48 83.1984 153.547 83.1984 153.68V154.16C83.1984 154.84 83.4918 155.4 84.0784 155.84C84.6651 156.28 85.4718 156.5 86.4984 156.5C87.4184 156.5 88.1118 156.307 88.5784 155.92C89.0451 155.533 89.2784 155.027 89.2784 154.4C89.2784 153.987 89.1584 153.633 88.9184 153.34C88.6784 153.047 88.3251 152.78 87.8584 152.54C87.4051 152.287 86.7384 151.987 85.8584 151.64C84.8851 151.267 84.1118 150.927 83.5384 150.62C82.9784 150.313 82.5118 149.913 82.1384 149.42C81.7651 148.913 81.5784 148.28 81.5784 147.52C81.5784 146.373 81.9851 145.473 82.7984 144.82C83.6251 144.167 84.7384 143.84 86.1384 143.84C87.1251 143.84 87.9918 144.007 88.7384 144.34C89.4851 144.673 90.0584 145.14 90.4584 145.74C90.8718 146.34 91.0784 147.033 91.0784 147.82V148.22C91.0784 148.353 91.0118 148.42 90.8784 148.42H89.3784C89.2451 148.42 89.1784 148.353 89.1784 148.22V147.92C89.1784 147.227 88.8984 146.653 88.3384 146.2C87.7918 145.733 87.0318 145.5 86.0584 145.5C85.2318 145.5 84.5918 145.673 84.1384 146.02C83.6851 146.353 83.4584 146.84 83.4584 147.48C83.4584 147.92 83.5718 148.28 83.7984 148.56C84.0251 148.84 84.3584 149.093 84.7984 149.32C85.2518 149.533 85.9384 149.813 86.8584 150.16C87.8051 150.533 88.5718 150.88 89.1584 151.2C89.7451 151.507 90.2318 151.92 90.6184 152.44C91.0051 152.947 91.1984 153.58 91.1984 154.34C91.1984 155.513 90.7651 156.447 89.8984 157.14C89.0451 157.82 87.8651 158.16 86.3584 158.16ZM94.7163 146.22C94.3429 146.22 94.0363 146.1 93.7963 145.86C93.5563 145.62 93.4363 145.313 93.4363 144.94C93.4363 144.567 93.5563 144.26 93.7963 144.02C94.0363 143.78 94.3429 143.66 94.7163 143.66C95.0896 143.66 95.3963 143.78 95.6363 144.02C95.8763 144.26 95.9963 144.567 95.9963 144.94C95.9963 145.313 95.8763 145.62 95.6363 145.86C95.3963 146.1 95.0896 146.22 94.7163 146.22ZM93.9163 157.98C93.7829 157.98 93.7163 157.913 93.7163 157.78V148.02C93.7163 147.887 93.7829 147.82 93.9163 147.82H95.4363C95.5696 147.82 95.6363 147.887 95.6363 148.02V157.78C95.6363 157.913 95.5696 157.98 95.4363 157.98H93.9163ZM103.674 149.2C103.674 149.333 103.607 149.4 103.474 149.4H101.314C101.261 149.4 101.234 149.427 101.234 149.48V154.78C101.234 155.34 101.361 155.747 101.614 156C101.867 156.24 102.261 156.36 102.794 156.36H103.374C103.507 156.36 103.574 156.427 103.574 156.56V157.8C103.574 157.933 103.507 158 103.374 158C102.947 158.027 102.641 158.04 102.454 158.04C101.441 158.04 100.674 157.86 100.154 157.5C99.6472 157.127 99.3939 156.447 99.3939 155.46V149.48C99.3939 149.427 99.3672 149.4 99.3139 149.4H98.0939C97.9606 149.4 97.8939 149.333 97.8939 149.2V148.02C97.8939 147.887 97.9606 147.82 98.0939 147.82H99.3139C99.3672 147.82 99.3939 147.793 99.3939 147.74V145.38C99.3939 145.247 99.4606 145.18 99.5939 145.18H101.034C101.167 145.18 101.234 145.247 101.234 145.38V147.74C101.234 147.793 101.261 147.82 101.314 147.82H103.474C103.607 147.82 103.674 147.887 103.674 148.02V149.2ZM114.042 151.64C114.096 152.187 114.116 152.8 114.102 153.48C114.102 153.613 114.036 153.68 113.902 153.68H107.522C107.469 153.68 107.442 153.707 107.442 153.76C107.442 154.213 107.482 154.56 107.562 154.8C107.709 155.333 108.002 155.753 108.442 156.06C108.896 156.353 109.462 156.5 110.142 156.5C111.129 156.5 111.889 156.093 112.422 155.28C112.489 155.147 112.576 155.127 112.682 155.22L113.822 155.98C113.916 156.06 113.936 156.147 113.882 156.24C113.509 156.84 112.976 157.313 112.282 157.66C111.602 158.007 110.829 158.18 109.962 158.18C108.989 158.18 108.169 157.967 107.502 157.54C106.836 157.113 106.336 156.507 106.002 155.72C105.682 154.933 105.522 153.98 105.522 152.86C105.522 151.887 105.596 151.147 105.742 150.64C105.982 149.72 106.462 148.993 107.182 148.46C107.902 147.927 108.776 147.66 109.802 147.66C111.149 147.66 112.156 148 112.822 148.68C113.489 149.347 113.896 150.333 114.042 151.64ZM109.802 149.32C109.229 149.32 108.756 149.467 108.382 149.76C108.009 150.04 107.756 150.42 107.622 150.9C107.529 151.193 107.469 151.567 107.442 152.02C107.442 152.073 107.469 152.1 107.522 152.1H112.102C112.156 152.1 112.182 152.073 112.182 152.02C112.156 151.58 112.116 151.253 112.062 151.04C111.929 150.52 111.662 150.107 111.262 149.8C110.876 149.48 110.389 149.32 109.802 149.32ZM120.969 158C120.836 158 120.769 157.933 120.769 157.8V144.2C120.769 144.067 120.836 144 120.969 144H125.809C127.196 144 128.302 144.367 129.129 145.1C129.956 145.82 130.369 146.787 130.369 148V154C130.369 155.213 129.956 156.187 129.129 156.92C128.302 157.64 127.196 158 125.809 158H120.969ZM122.689 156.26C122.689 156.313 122.716 156.34 122.769 156.34H125.889C126.662 156.34 127.276 156.107 127.729 155.64C128.196 155.16 128.436 154.52 128.449 153.72V148.28C128.449 147.48 128.216 146.847 127.749 146.38C127.296 145.9 126.676 145.66 125.889 145.66H122.769C122.716 145.66 122.689 145.687 122.689 145.74V156.26ZM141.132 151.64C141.186 152.187 141.206 152.8 141.192 153.48C141.192 153.613 141.126 153.68 140.992 153.68H134.612C134.559 153.68 134.532 153.707 134.532 153.76C134.532 154.213 134.572 154.56 134.652 154.8C134.799 155.333 135.092 155.753 135.532 156.06C135.986 156.353 136.552 156.5 137.232 156.5C138.219 156.5 138.979 156.093 139.512 155.28C139.579 155.147 139.666 155.127 139.772 155.22L140.912 155.98C141.006 156.06 141.026 156.147 140.972 156.24C140.599 156.84 140.066 157.313 139.372 157.66C138.692 158.007 137.919 158.18 137.052 158.18C136.079 158.18 135.259 157.967 134.592 157.54C133.926 157.113 133.426 156.507 133.092 155.72C132.772 154.933 132.612 153.98 132.612 152.86C132.612 151.887 132.686 151.147 132.832 150.64C133.072 149.72 133.552 148.993 134.272 148.46C134.992 147.927 135.866 147.66 136.892 147.66C138.239 147.66 139.246 148 139.912 148.68C140.579 149.347 140.986 150.333 141.132 151.64ZM136.892 149.32C136.319 149.32 135.846 149.467 135.472 149.76C135.099 150.04 134.846 150.42 134.712 150.9C134.619 151.193 134.559 151.567 134.532 152.02C134.532 152.073 134.559 152.1 134.612 152.1H139.192C139.246 152.1 139.272 152.073 139.272 152.02C139.246 151.58 139.206 151.253 139.152 151.04C139.019 150.52 138.752 150.107 138.352 149.8C137.966 149.48 137.479 149.32 136.892 149.32ZM147.039 158.12C146.239 158.12 145.532 158 144.919 157.76C144.319 157.52 143.852 157.193 143.519 156.78C143.185 156.353 143.019 155.887 143.019 155.38V155.16C143.019 155.027 143.085 154.96 143.219 154.96H144.659C144.792 154.96 144.859 155.027 144.859 155.16V155.26C144.859 155.633 145.059 155.96 145.459 156.24C145.872 156.52 146.392 156.66 147.019 156.66C147.619 156.66 148.105 156.533 148.479 156.28C148.852 156.013 149.039 155.68 149.039 155.28C149.039 154.893 148.865 154.607 148.519 154.42C148.172 154.22 147.612 154.013 146.839 153.8C146.079 153.587 145.439 153.373 144.919 153.16C144.412 152.933 143.979 152.62 143.619 152.22C143.272 151.807 143.099 151.28 143.099 150.64C143.099 149.747 143.445 149.04 144.139 148.52C144.845 147.987 145.779 147.72 146.939 147.72C147.712 147.72 148.392 147.847 148.979 148.1C149.579 148.34 150.039 148.68 150.359 149.12C150.679 149.56 150.839 150.053 150.839 150.6V150.66C150.839 150.793 150.772 150.86 150.639 150.86H149.239C149.105 150.86 149.039 150.793 149.039 150.66V150.6C149.039 150.213 148.845 149.893 148.459 149.64C148.085 149.373 147.572 149.24 146.919 149.24C146.332 149.24 145.852 149.353 145.479 149.58C145.119 149.807 144.939 150.113 144.939 150.5C144.939 150.887 145.112 151.18 145.459 151.38C145.819 151.58 146.392 151.793 147.179 152.02C147.952 152.233 148.592 152.447 149.099 152.66C149.619 152.86 150.059 153.167 150.419 153.58C150.779 153.98 150.959 154.507 150.959 155.16C150.959 156.067 150.599 156.787 149.879 157.32C149.172 157.853 148.225 158.12 147.039 158.12ZM154.365 146.22C153.991 146.22 153.685 146.1 153.445 145.86C153.205 145.62 153.085 145.313 153.085 144.94C153.085 144.567 153.205 144.26 153.445 144.02C153.685 143.78 153.991 143.66 154.365 143.66C154.738 143.66 155.045 143.78 155.285 144.02C155.525 144.26 155.645 144.567 155.645 144.94C155.645 145.313 155.525 145.62 155.285 145.86C155.045 146.1 154.738 146.22 154.365 146.22ZM153.565 157.98C153.431 157.98 153.365 157.913 153.365 157.78V148.02C153.365 147.887 153.431 147.82 153.565 147.82H155.085C155.218 147.82 155.285 147.887 155.285 148.02V157.78C155.285 157.913 155.218 157.98 155.085 157.98H153.565ZM164.562 148.02C164.562 147.887 164.629 147.82 164.762 147.82H166.282C166.416 147.82 166.482 147.887 166.482 148.02V157.48C166.482 159.093 166.022 160.247 165.102 160.94C164.196 161.633 162.976 161.98 161.442 161.98C161.229 161.98 160.896 161.967 160.442 161.94C160.309 161.927 160.242 161.853 160.242 161.72L160.302 160.34C160.302 160.287 160.322 160.24 160.362 160.2C160.402 160.16 160.456 160.147 160.522 160.16C160.709 160.173 160.982 160.18 161.342 160.18C162.476 160.18 163.296 159.967 163.802 159.54C164.309 159.127 164.562 158.42 164.562 157.42V157.06C164.562 157.033 164.549 157.013 164.522 157C164.509 156.987 164.489 156.993 164.462 157.02C163.902 157.673 163.082 158 162.002 158C161.136 158 160.349 157.773 159.642 157.32C158.949 156.867 158.469 156.2 158.202 155.32C158.029 154.733 157.942 153.92 157.942 152.88C157.942 151.773 158.042 150.92 158.242 150.32C158.496 149.52 158.942 148.88 159.582 148.4C160.236 147.907 161.002 147.66 161.882 147.66C162.976 147.66 163.836 147.993 164.462 148.66C164.489 148.687 164.509 148.7 164.522 148.7C164.549 148.687 164.562 148.667 164.562 148.64V148.02ZM164.442 154.74C164.482 154.527 164.509 154.3 164.522 154.06C164.549 153.82 164.562 153.42 164.562 152.86C164.562 152.3 164.549 151.907 164.522 151.68C164.509 151.44 164.476 151.213 164.422 151C164.316 150.507 164.076 150.107 163.702 149.8C163.329 149.48 162.862 149.32 162.302 149.32C161.742 149.32 161.276 149.48 160.902 149.8C160.529 150.107 160.262 150.507 160.102 151C159.956 151.4 159.882 152.02 159.882 152.86C159.882 153.78 159.949 154.407 160.082 154.74C160.216 155.233 160.476 155.64 160.862 155.96C161.262 156.267 161.742 156.42 162.302 156.42C162.889 156.42 163.362 156.267 163.722 155.96C164.096 155.64 164.336 155.233 164.442 154.74ZM173.702 147.68C174.795 147.68 175.662 148 176.302 148.64C176.942 149.267 177.262 150.12 177.262 151.2V157.8C177.262 157.933 177.195 158 177.062 158H175.542C175.408 158 175.342 157.933 175.342 157.8V151.58C175.342 150.913 175.148 150.373 174.762 149.96C174.375 149.547 173.862 149.34 173.222 149.34C172.595 149.34 172.082 149.547 171.682 149.96C171.282 150.373 171.082 150.907 171.082 151.56V157.8C171.082 157.933 171.015 158 170.882 158H169.362C169.228 158 169.162 157.933 169.162 157.8V148.02C169.162 147.887 169.228 147.82 169.362 147.82H170.882C171.015 147.82 171.082 147.887 171.082 148.02V148.74C171.082 148.767 171.088 148.787 171.102 148.8C171.128 148.813 171.148 148.807 171.162 148.78C171.735 148.047 172.582 147.68 173.702 147.68Z" fill="url(#paint2_linear_2110_8833)"/>
<g opacity="0.7">
<circle cx="129" cy="84" r="30.5455" fill="url(#paint3_linear_2110_8833)"/>
<circle cx="129" cy="84" r="30.5455" fill="black" fill-opacity="0.2"/>
<circle cx="129" cy="84" r="30.5455" stroke="url(#paint4_linear_2110_8833)" stroke-width="1.09091"/>
</g>
<mask id="mask0_2110_8833" style="mask-type:luminance" maskUnits="userSpaceOnUse" x="114" y="68" width="31" height="31">
<path d="M144.468 68.7168H114.468V98.7168H144.468V68.7168Z" fill="white"/>
</mask>
<g mask="url(#mask0_2110_8833)">
<mask id="mask1_2110_8833" style="mask-type:luminance" maskUnits="userSpaceOnUse" x="114" y="68" width="31" height="31">
<path d="M144.468 68.7168H114.468V98.7168H144.468V68.7168Z" fill="white"/>
</mask>
<g mask="url(#mask1_2110_8833)">
<mask id="mask2_2110_8833" style="mask-type:luminance" maskUnits="userSpaceOnUse" x="114" y="68" width="31" height="31">
<path d="M144.468 68.7168H114.468V98.7168H144.468V68.7168Z" fill="white"/>
</mask>
<g mask="url(#mask2_2110_8833)">
<path d="M137.572 89.6759C135.864 90.0861 134.08 90.0662 132.381 89.618C130.682 89.1697 129.121 88.3071 127.837 87.1075C126.553 85.9077 125.587 84.4084 125.025 82.7436C124.463 81.0789 124.322 79.3007 124.616 77.5684C124.571 77.6115 124.524 77.652 124.475 77.6896C124.125 77.9559 123.687 78.0546 122.812 78.2521L122.019 78.4321C118.944 79.1284 117.406 79.4759 117.04 80.6521C116.675 81.8271 117.722 83.0534 119.819 85.5046L120.361 86.1384C120.956 86.8346 121.255 87.1834 121.389 87.6134C121.522 88.0446 121.477 88.5096 121.387 89.4384L121.305 90.2846C120.989 93.5559 120.83 95.1909 121.787 95.9171C122.745 96.6446 124.185 95.9821 127.062 94.6559L127.809 94.3134C128.626 93.9359 129.035 93.7484 129.469 93.7484C129.902 93.7484 130.311 93.9359 131.13 94.3134L131.874 94.6559C134.752 95.9809 136.192 96.6434 137.149 95.9184C138.107 95.1909 137.949 93.5559 137.632 90.2846L137.572 89.6759Z" fill="white"/>
<path opacity="0.5" d="M125.91 75.4768L125.5 76.2118C125.05 77.0193 124.825 77.423 124.475 77.6893C124.525 77.6518 124.571 77.6118 124.616 77.568C124.322 79.3005 124.463 81.0789 125.025 82.7438C125.587 84.4087 126.553 85.9082 127.837 87.1078C129.121 88.3075 130.683 89.1702 132.382 89.6183C134.081 90.0664 135.865 90.086 137.573 89.6755L137.55 89.438C137.46 88.5093 137.415 88.0443 137.55 87.613C137.682 87.183 137.981 86.8343 138.576 86.138L139.118 85.5043C141.215 83.0543 142.262 81.828 141.897 80.6518C141.531 79.4755 139.993 79.1268 136.918 78.4318L136.123 78.2518C135.25 78.0543 134.813 77.9555 134.462 77.6893C134.112 77.423 133.887 77.0193 133.437 76.2118L133.027 75.4768C131.443 72.6368 130.652 71.2168 129.468 71.2168C128.285 71.2168 127.493 72.6368 125.91 75.4768Z" fill="white"/>
</g>
</g>
</g>
<defs>
<linearGradient id="paint0_linear_2110_8833" x1="-3.08081e-05" y1="-17.4012" x2="269.17" y2="203" gradientUnits="userSpaceOnUse">
<stop stop-color="#1A2613"/>
<stop offset="0.489"/>
<stop offset="1" stop-color="#001D2B"/>
</linearGradient>
<linearGradient id="paint1_linear_2110_8833" x1="241.739" y1="168.454" x2="77.1893" y2="-9.93036" gradientUnits="userSpaceOnUse">
<stop stop-color="#14FF87" stop-opacity="0.76"/>
<stop offset="1" stop-color="#CAFE15"/>
</linearGradient>
<linearGradient id="paint2_linear_2110_8833" x1="172.047" y1="158.502" x2="156.993" y2="115.782" gradientUnits="userSpaceOnUse">
<stop stop-color="#14FF87" stop-opacity="0.76"/>
<stop offset="1" stop-color="#CAFE15"/>
</linearGradient>
<linearGradient id="paint3_linear_2110_8833" x1="156.379" y1="54" x2="98.9423" y2="119.287" gradientUnits="userSpaceOnUse">
<stop stop-color="#66BE53"/>
<stop offset="1" stop-color="#2F5826"/>
</linearGradient>
<linearGradient id="paint4_linear_2110_8833" x1="159" y1="112.537" x2="105.697" y2="49.3656" gradientUnits="userSpaceOnUse">
<stop stop-color="#14FF87"/>
<stop offset="1" stop-color="#CAFE15"/>
</linearGradient>
</defs>
</svg>
