<svg width="260" height="220" viewBox="0 0 260 220" fill="none" xmlns="http://www.w3.org/2000/svg">
<rect x="0.5" y="0.5" width="259" height="219" rx="19.5" fill="url(#paint0_linear_2110_8841)" stroke="url(#paint1_linear_2110_8841)"/>
<path d="M97.8908 158C97.7574 158 97.6908 157.933 97.6908 157.8V144.2C97.6908 144.067 97.7574 144 97.8908 144H102.731C104.117 144 105.224 144.367 106.051 145.1C106.877 145.82 107.291 146.787 107.291 148V154C107.291 155.213 106.877 156.187 106.051 156.92C105.224 157.64 104.117 158 102.731 158H97.8908ZM99.6108 156.26C99.6108 156.313 99.6374 156.34 99.6908 156.34H102.811C103.584 156.34 104.197 156.107 104.651 155.64C105.117 155.16 105.357 154.52 105.371 153.72V148.28C105.371 147.48 105.137 146.847 104.671 146.38C104.217 145.9 103.597 145.66 102.811 145.66H99.6908C99.6374 145.66 99.6108 145.687 99.6108 145.74V156.26ZM118.054 151.64C118.107 152.187 118.127 152.8 118.114 153.48C118.114 153.613 118.047 153.68 117.914 153.68H111.534C111.481 153.68 111.454 153.707 111.454 153.76C111.454 154.213 111.494 154.56 111.574 154.8C111.721 155.333 112.014 155.753 112.454 156.06C112.907 156.353 113.474 156.5 114.154 156.5C115.141 156.5 115.901 156.093 116.434 155.28C116.501 155.147 116.587 155.127 116.694 155.22L117.834 155.98C117.927 156.06 117.947 156.147 117.894 156.24C117.521 156.84 116.987 157.313 116.294 157.66C115.614 158.007 114.841 158.18 113.974 158.18C113.001 158.18 112.181 157.967 111.514 157.54C110.847 157.113 110.347 156.507 110.014 155.72C109.694 154.933 109.534 153.98 109.534 152.86C109.534 151.887 109.607 151.147 109.754 150.64C109.994 149.72 110.474 148.993 111.194 148.46C111.914 147.927 112.787 147.66 113.814 147.66C115.161 147.66 116.167 148 116.834 148.68C117.501 149.347 117.907 150.333 118.054 151.64ZM113.814 149.32C113.241 149.32 112.767 149.467 112.394 149.76C112.021 150.04 111.767 150.42 111.634 150.9C111.541 151.193 111.481 151.567 111.454 152.02C111.454 152.073 111.481 152.1 111.534 152.1H116.114C116.167 152.1 116.194 152.073 116.194 152.02C116.167 151.58 116.127 151.253 116.074 151.04C115.941 150.52 115.674 150.107 115.274 149.8C114.887 149.48 114.401 149.32 113.814 149.32ZM122.865 158C122.745 158 122.665 157.947 122.625 157.84L119.365 148.04L119.345 147.96C119.345 147.867 119.405 147.82 119.525 147.82H121.205C121.325 147.82 121.405 147.873 121.445 147.98L123.645 155.22C123.658 155.247 123.678 155.26 123.705 155.26C123.732 155.26 123.752 155.247 123.765 155.22L125.945 147.98C125.985 147.873 126.065 147.82 126.185 147.82L127.865 147.84C128.012 147.84 128.065 147.913 128.025 148.06L124.785 157.84C124.745 157.947 124.665 158 124.545 158H122.865ZM134.809 158.18C133.836 158.18 132.976 157.98 132.229 157.58C131.483 157.18 130.903 156.62 130.489 155.9C130.076 155.167 129.869 154.327 129.869 153.38V148.62C129.869 147.673 130.076 146.84 130.489 146.12C130.903 145.4 131.483 144.84 132.229 144.44C132.976 144.04 133.836 143.84 134.809 143.84C135.796 143.84 136.663 144.04 137.409 144.44C138.156 144.84 138.736 145.4 139.149 146.12C139.563 146.84 139.769 147.673 139.769 148.62V153.38C139.769 154.327 139.563 155.167 139.149 155.9C138.736 156.62 138.156 157.18 137.409 157.58C136.663 157.98 135.796 158.18 134.809 158.18ZM134.809 156.52C135.716 156.52 136.449 156.24 137.009 155.68C137.569 155.12 137.849 154.38 137.849 153.46V148.6C137.849 147.667 137.569 146.92 137.009 146.36C136.449 145.787 135.716 145.5 134.809 145.5C133.903 145.5 133.169 145.787 132.609 146.36C132.063 146.92 131.789 147.667 131.789 148.6V153.46C131.789 154.38 132.063 155.12 132.609 155.68C133.169 156.24 133.903 156.52 134.809 156.52ZM150.711 150.38C150.964 151.1 151.091 151.953 151.091 152.94C151.091 153.873 150.984 154.68 150.771 155.36C150.491 156.253 150.031 156.947 149.391 157.44C148.751 157.92 147.931 158.16 146.931 158.16C146.477 158.16 146.044 158.073 145.631 157.9C145.231 157.713 144.884 157.453 144.591 157.12C144.564 157.093 144.537 157.087 144.511 157.1C144.497 157.113 144.491 157.133 144.491 157.16V161.62C144.491 161.753 144.424 161.82 144.291 161.82H142.771C142.637 161.82 142.571 161.753 142.571 161.62V148.02C142.571 147.887 142.637 147.82 142.771 147.82H144.291C144.424 147.82 144.491 147.887 144.491 148.02V148.68C144.491 148.707 144.497 148.727 144.511 148.74C144.537 148.753 144.564 148.747 144.591 148.72C144.884 148.387 145.231 148.127 145.631 147.94C146.031 147.753 146.464 147.66 146.931 147.66C147.891 147.66 148.684 147.9 149.311 148.38C149.951 148.847 150.417 149.513 150.711 150.38ZM148.511 155.54C148.937 154.9 149.151 154.02 149.151 152.9C149.151 151.873 148.984 151.047 148.651 150.42C148.264 149.687 147.631 149.32 146.751 149.32C145.977 149.32 145.391 149.68 144.991 150.4C144.671 150.973 144.511 151.813 144.511 152.92C144.511 154.04 144.684 154.893 145.031 155.48C145.417 156.16 145.984 156.5 146.731 156.5C147.531 156.5 148.124 156.18 148.511 155.54ZM157.183 158.12C156.383 158.12 155.676 158 155.063 157.76C154.463 157.52 153.996 157.193 153.663 156.78C153.33 156.353 153.163 155.887 153.163 155.38V155.16C153.163 155.027 153.23 154.96 153.363 154.96H154.803C154.936 154.96 155.003 155.027 155.003 155.16V155.26C155.003 155.633 155.203 155.96 155.603 156.24C156.016 156.52 156.536 156.66 157.163 156.66C157.763 156.66 158.25 156.533 158.623 156.28C158.996 156.013 159.183 155.68 159.183 155.28C159.183 154.893 159.01 154.607 158.663 154.42C158.316 154.22 157.756 154.013 156.983 153.8C156.223 153.587 155.583 153.373 155.063 153.16C154.556 152.933 154.123 152.62 153.763 152.22C153.416 151.807 153.243 151.28 153.243 150.64C153.243 149.747 153.59 149.04 154.283 148.52C154.99 147.987 155.923 147.72 157.083 147.72C157.856 147.72 158.536 147.847 159.123 148.1C159.723 148.34 160.183 148.68 160.503 149.12C160.823 149.56 160.983 150.053 160.983 150.6V150.66C160.983 150.793 160.916 150.86 160.783 150.86H159.383C159.25 150.86 159.183 150.793 159.183 150.66V150.6C159.183 150.213 158.99 149.893 158.603 149.64C158.23 149.373 157.716 149.24 157.063 149.24C156.476 149.24 155.996 149.353 155.623 149.58C155.263 149.807 155.083 150.113 155.083 150.5C155.083 150.887 155.256 151.18 155.603 151.38C155.963 151.58 156.536 151.793 157.323 152.02C158.096 152.233 158.736 152.447 159.243 152.66C159.763 152.86 160.203 153.167 160.563 153.58C160.923 153.98 161.103 154.507 161.103 155.16C161.103 156.067 160.743 156.787 160.023 157.32C159.316 157.853 158.37 158.12 157.183 158.12Z" fill="url(#paint2_linear_2110_8841)"/>
<g opacity="0.7">
<circle cx="129" cy="84" r="30.5455" fill="url(#paint3_linear_2110_8841)"/>
<circle cx="129" cy="84" r="30.5455" fill="black" fill-opacity="0.2"/>
<circle cx="129" cy="84" r="30.5455" stroke="url(#paint4_linear_2110_8841)" stroke-width="1.09091"/>
</g>
<path d="M142.451 75.5987V91.4062L135.959 96.7295L125.896 93.0619V96.6975L120.2 89.248L136.802 90.5462V76.3129L142.451 75.5987ZM136.916 76.3942L127.6 70.7295V74.4461L119.048 76.962L116.483 80.2562V87.7386L120.151 89.3613V79.7692L136.916 76.3942Z" fill="white"/>
<defs>
<linearGradient id="paint0_linear_2110_8841" x1="-3.08081e-05" y1="-17.4012" x2="269.17" y2="203" gradientUnits="userSpaceOnUse">
<stop stop-color="#1A2613"/>
<stop offset="0.489"/>
<stop offset="1" stop-color="#001D2B"/>
</linearGradient>
<linearGradient id="paint1_linear_2110_8841" x1="241.739" y1="168.454" x2="77.1893" y2="-9.93036" gradientUnits="userSpaceOnUse">
<stop stop-color="#14FF87" stop-opacity="0.76"/>
<stop offset="1" stop-color="#CAFE15"/>
</linearGradient>
<linearGradient id="paint2_linear_2110_8841" x1="157.364" y1="158.502" x2="137.523" y2="120.965" gradientUnits="userSpaceOnUse">
<stop stop-color="#14FF87" stop-opacity="0.76"/>
<stop offset="1" stop-color="#CAFE15"/>
</linearGradient>
<linearGradient id="paint3_linear_2110_8841" x1="156.379" y1="54" x2="98.9423" y2="119.287" gradientUnits="userSpaceOnUse">
<stop stop-color="#66BE53"/>
<stop offset="1" stop-color="#2F5826"/>
</linearGradient>
<linearGradient id="paint4_linear_2110_8841" x1="159" y1="112.537" x2="105.697" y2="49.3656" gradientUnits="userSpaceOnUse">
<stop stop-color="#14FF87"/>
<stop offset="1" stop-color="#CAFE15"/>
</linearGradient>
</defs>
</svg>
