<svg width="260" height="220" viewBox="0 0 260 220" fill="none" xmlns="http://www.w3.org/2000/svg">
<rect x="0.5" y="0.5" width="259" height="219" rx="19.5" fill="url(#paint0_linear_2110_8788)" stroke="url(#paint1_linear_2110_8788)"/>
<path d="M62.5 158C62.38 158 62.3067 157.947 62.28 157.84L58.52 144.22L58.5 144.16C58.5 144.053 58.5667 144 58.7 144H60.32C60.44 144 60.5133 144.06 60.54 144.18L63.16 154.14C63.1733 154.167 63.1867 154.18 63.2 154.18C63.2267 154.18 63.2467 154.167 63.26 154.14L65.74 144.18C65.7667 144.06 65.84 144 65.96 144H67.54C67.66 144 67.7333 144.06 67.76 144.18L70.38 154.16C70.3933 154.187 70.4067 154.2 70.42 154.2C70.4333 154.2 70.4467 154.187 70.46 154.16L73.1 144.18C73.1267 144.06 73.2 144 73.32 144H74.84C74.9067 144 74.9533 144.02 74.98 144.06C75.02 144.1 75.0333 144.153 75.02 144.22L71.4 157.82C71.3733 157.94 71.3 158 71.18 158H69.64C69.52 158 69.4467 157.94 69.42 157.82L66.8 147.5C66.7867 147.46 66.7733 147.44 66.76 147.44C66.7467 147.44 66.7333 147.46 66.72 147.5L64.18 157.82C64.1667 157.94 64.0933 158 63.96 158H62.5ZM84.1439 151.64C84.1972 152.187 84.2172 152.8 84.2039 153.48C84.2039 153.613 84.1372 153.68 84.0039 153.68H77.6239C77.5706 153.68 77.5439 153.707 77.5439 153.76C77.5439 154.213 77.5839 154.56 77.6639 154.8C77.8106 155.333 78.1039 155.753 78.5439 156.06C78.9972 156.353 79.5639 156.5 80.2439 156.5C81.2306 156.5 81.9906 156.093 82.5239 155.28C82.5906 155.147 82.6772 155.127 82.7839 155.22L83.9239 155.98C84.0172 156.06 84.0372 156.147 83.9839 156.24C83.6106 156.84 83.0772 157.313 82.3839 157.66C81.7039 158.007 80.9306 158.18 80.0639 158.18C79.0906 158.18 78.2706 157.967 77.6039 157.54C76.9372 157.113 76.4372 156.507 76.1039 155.72C75.7839 154.933 75.6239 153.98 75.6239 152.86C75.6239 151.887 75.6972 151.147 75.8439 150.64C76.0839 149.72 76.5639 148.993 77.2839 148.46C78.0039 147.927 78.8772 147.66 79.9039 147.66C81.2506 147.66 82.2572 148 82.9239 148.68C83.5906 149.347 83.9972 150.333 84.1439 151.64ZM79.9039 149.32C79.3306 149.32 78.8572 149.467 78.4839 149.76C78.1106 150.04 77.8572 150.42 77.7239 150.9C77.6306 151.193 77.5706 151.567 77.5439 152.02C77.5439 152.073 77.5706 152.1 77.6239 152.1H82.2039C82.2572 152.1 82.2839 152.073 82.2839 152.02C82.2572 151.58 82.2172 151.253 82.1639 151.04C82.0306 150.52 81.7639 150.107 81.3639 149.8C80.9772 149.48 80.4906 149.32 79.9039 149.32ZM94.8466 150.46C95.0599 151.14 95.1666 151.947 95.1666 152.88C95.1666 153.88 95.0399 154.733 94.7866 155.44C94.4932 156.307 94.0266 156.98 93.3866 157.46C92.7599 157.927 91.9666 158.16 91.0066 158.16C90.5399 158.16 90.1066 158.067 89.7066 157.88C89.3066 157.693 88.9599 157.433 88.6666 157.1C88.6399 157.073 88.6132 157.067 88.5866 157.08C88.5732 157.093 88.5666 157.113 88.5666 157.14V157.8C88.5666 157.933 88.4999 158 88.3666 158H86.8466C86.7132 158 86.6466 157.933 86.6466 157.8V144.2C86.6466 144.067 86.7132 144 86.8466 144H88.3666C88.4999 144 88.5666 144.067 88.5666 144.2V148.66C88.5666 148.687 88.5732 148.707 88.5866 148.72C88.6132 148.733 88.6399 148.727 88.6666 148.7C88.9599 148.367 89.3066 148.113 89.7066 147.94C90.1199 147.753 90.5532 147.66 91.0066 147.66C92.0066 147.66 92.8266 147.907 93.4666 148.4C94.1066 148.893 94.5666 149.58 94.8466 150.46ZM92.7266 155.4C93.0599 154.773 93.2266 153.947 93.2266 152.92C93.2266 151.827 93.0132 150.947 92.5866 150.28C92.1999 149.64 91.6066 149.32 90.8066 149.32C90.0599 149.32 89.4932 149.66 89.1066 150.34C88.7599 150.953 88.5866 151.807 88.5866 152.9C88.5866 153.993 88.7466 154.833 89.0666 155.42C89.4666 156.14 90.0532 156.5 90.8266 156.5C91.7066 156.5 92.3399 156.133 92.7266 155.4ZM110.425 158C110.305 158 110.225 157.947 110.185 157.84L109.465 155.5C109.452 155.46 109.425 155.44 109.385 155.44H103.765C103.725 155.44 103.698 155.46 103.685 155.5L102.965 157.84C102.925 157.947 102.845 158 102.725 158H101.105C100.958 158 100.905 157.927 100.945 157.78L105.325 144.16C105.365 144.053 105.445 144 105.565 144H107.565C107.685 144 107.765 144.053 107.805 144.16L112.225 157.78L112.245 157.86C112.245 157.953 112.185 158 112.065 158H110.425ZM104.185 153.82C104.172 153.847 104.172 153.873 104.185 153.9C104.212 153.913 104.238 153.92 104.265 153.92H108.865C108.892 153.92 108.912 153.913 108.925 153.9C108.952 153.873 108.958 153.847 108.945 153.82L106.625 146.4C106.612 146.373 106.592 146.36 106.565 146.36C106.538 146.36 106.518 146.373 106.505 146.4L104.185 153.82ZM122.543 150.38C122.796 151.1 122.923 151.953 122.923 152.94C122.923 153.873 122.816 154.68 122.603 155.36C122.323 156.253 121.863 156.947 121.223 157.44C120.583 157.92 119.763 158.16 118.763 158.16C118.309 158.16 117.876 158.073 117.463 157.9C117.063 157.713 116.716 157.453 116.423 157.12C116.396 157.093 116.369 157.087 116.343 157.1C116.329 157.113 116.323 157.133 116.323 157.16V161.62C116.323 161.753 116.256 161.82 116.123 161.82H114.603C114.469 161.82 114.403 161.753 114.403 161.62V148.02C114.403 147.887 114.469 147.82 114.603 147.82H116.123C116.256 147.82 116.323 147.887 116.323 148.02V148.68C116.323 148.707 116.329 148.727 116.343 148.74C116.369 148.753 116.396 148.747 116.423 148.72C116.716 148.387 117.063 148.127 117.463 147.94C117.863 147.753 118.296 147.66 118.763 147.66C119.723 147.66 120.516 147.9 121.143 148.38C121.783 148.847 122.249 149.513 122.543 150.38ZM120.343 155.54C120.769 154.9 120.983 154.02 120.983 152.9C120.983 151.873 120.816 151.047 120.483 150.42C120.096 149.687 119.463 149.32 118.583 149.32C117.809 149.32 117.223 149.68 116.823 150.4C116.503 150.973 116.343 151.813 116.343 152.92C116.343 154.04 116.516 154.893 116.863 155.48C117.249 156.16 117.816 156.5 118.563 156.5C119.363 156.5 119.956 156.18 120.343 155.54ZM133.695 150.38C133.948 151.1 134.075 151.953 134.075 152.94C134.075 153.873 133.968 154.68 133.755 155.36C133.475 156.253 133.015 156.947 132.375 157.44C131.735 157.92 130.915 158.16 129.915 158.16C129.462 158.16 129.028 158.073 128.615 157.9C128.215 157.713 127.868 157.453 127.575 157.12C127.548 157.093 127.522 157.087 127.495 157.1C127.482 157.113 127.475 157.133 127.475 157.16V161.62C127.475 161.753 127.408 161.82 127.275 161.82H125.755C125.622 161.82 125.555 161.753 125.555 161.62V148.02C125.555 147.887 125.622 147.82 125.755 147.82H127.275C127.408 147.82 127.475 147.887 127.475 148.02V148.68C127.475 148.707 127.482 148.727 127.495 148.74C127.522 148.753 127.548 148.747 127.575 148.72C127.868 148.387 128.215 148.127 128.615 147.94C129.015 147.753 129.448 147.66 129.915 147.66C130.875 147.66 131.668 147.9 132.295 148.38C132.935 148.847 133.402 149.513 133.695 150.38ZM131.495 155.54C131.922 154.9 132.135 154.02 132.135 152.9C132.135 151.873 131.968 151.047 131.635 150.42C131.248 149.687 130.615 149.32 129.735 149.32C128.962 149.32 128.375 149.68 127.975 150.4C127.655 150.973 127.495 151.813 127.495 152.92C127.495 154.04 127.668 154.893 128.015 155.48C128.402 156.16 128.968 156.5 129.715 156.5C130.515 156.5 131.108 156.18 131.495 155.54ZM136.788 158C136.654 158 136.588 157.933 136.588 157.8V144.2C136.588 144.067 136.654 144 136.788 144H138.308C138.441 144 138.508 144.067 138.508 144.2V157.8C138.508 157.933 138.441 158 138.308 158H136.788ZM142.455 146.22C142.081 146.22 141.775 146.1 141.535 145.86C141.295 145.62 141.175 145.313 141.175 144.94C141.175 144.567 141.295 144.26 141.535 144.02C141.775 143.78 142.081 143.66 142.455 143.66C142.828 143.66 143.135 143.78 143.375 144.02C143.615 144.26 143.735 144.567 143.735 144.94C143.735 145.313 143.615 145.62 143.375 145.86C143.135 146.1 142.828 146.22 142.455 146.22ZM141.655 157.98C141.521 157.98 141.455 157.913 141.455 157.78V148.02C141.455 147.887 141.521 147.82 141.655 147.82H143.175C143.308 147.82 143.375 147.887 143.375 148.02V157.78C143.375 157.913 143.308 157.98 143.175 157.98H141.655ZM150.472 158.16C149.459 158.16 148.592 157.907 147.872 157.4C147.152 156.88 146.659 156.18 146.392 155.3C146.192 154.687 146.092 153.88 146.092 152.88C146.092 151.96 146.192 151.153 146.392 150.46C146.659 149.607 147.152 148.927 147.872 148.42C148.606 147.913 149.472 147.66 150.472 147.66C151.472 147.66 152.346 147.913 153.092 148.42C153.839 148.927 154.326 149.567 154.552 150.34C154.632 150.553 154.686 150.773 154.712 151C154.712 151.107 154.652 151.173 154.532 151.2L153.032 151.42H152.992C152.899 151.42 152.832 151.36 152.792 151.24L152.732 150.92C152.626 150.467 152.366 150.087 151.952 149.78C151.539 149.473 151.039 149.32 150.452 149.32C149.879 149.32 149.392 149.473 148.992 149.78C148.592 150.087 148.332 150.493 148.212 151C148.092 151.48 148.032 152.113 148.032 152.9C148.032 153.673 148.092 154.3 148.212 154.78C148.346 155.313 148.606 155.733 148.992 156.04C149.392 156.347 149.879 156.5 150.452 156.5C151.039 156.5 151.539 156.347 151.952 156.04C152.379 155.733 152.646 155.333 152.752 154.84C152.766 154.827 152.766 154.813 152.752 154.8C152.752 154.773 152.759 154.753 152.772 154.74V154.66C152.812 154.553 152.886 154.513 152.992 154.54L154.492 154.78C154.599 154.807 154.652 154.86 154.652 154.94V155.02C154.652 155.14 154.619 155.287 154.552 155.46C154.326 156.273 153.839 156.927 153.092 157.42C152.346 157.913 151.472 158.16 150.472 158.16ZM160.64 147.66C161.453 147.66 162.16 147.807 162.76 148.1C163.373 148.38 163.84 148.78 164.16 149.3C164.493 149.807 164.66 150.387 164.66 151.04V157.8C164.66 157.933 164.593 158 164.46 158H162.94C162.806 158 162.74 157.933 162.74 157.8V157.08C162.74 157.013 162.706 157 162.64 157.04C162.293 157.4 161.866 157.68 161.36 157.88C160.866 158.067 160.313 158.16 159.7 158.16C158.713 158.16 157.893 157.913 157.24 157.42C156.6 156.913 156.28 156.153 156.28 155.14C156.28 154.1 156.64 153.287 157.36 152.7C158.093 152.1 159.113 151.8 160.42 151.8H162.66C162.713 151.8 162.74 151.773 162.74 151.72V151.18C162.74 150.593 162.566 150.14 162.22 149.82C161.886 149.487 161.373 149.32 160.68 149.32C160.12 149.32 159.66 149.433 159.3 149.66C158.953 149.873 158.74 150.167 158.66 150.54C158.62 150.673 158.54 150.733 158.42 150.72L156.8 150.5C156.666 150.473 156.606 150.42 156.62 150.34C156.726 149.553 157.146 148.913 157.88 148.42C158.613 147.913 159.533 147.66 160.64 147.66ZM160.12 156.54C160.826 156.54 161.44 156.353 161.96 155.98C162.48 155.607 162.74 155.133 162.74 154.56V153.38C162.74 153.327 162.713 153.3 162.66 153.3H160.78C159.993 153.3 159.366 153.453 158.9 153.76C158.433 154.067 158.2 154.493 158.2 155.04C158.2 155.533 158.373 155.907 158.72 156.16C159.08 156.413 159.546 156.54 160.12 156.54ZM172.135 149.2C172.135 149.333 172.068 149.4 171.935 149.4H169.775C169.722 149.4 169.695 149.427 169.695 149.48V154.78C169.695 155.34 169.822 155.747 170.075 156C170.328 156.24 170.722 156.36 171.255 156.36H171.835C171.968 156.36 172.035 156.427 172.035 156.56V157.8C172.035 157.933 171.968 158 171.835 158C171.408 158.027 171.102 158.04 170.915 158.04C169.902 158.04 169.135 157.86 168.615 157.5C168.108 157.127 167.855 156.447 167.855 155.46V149.48C167.855 149.427 167.828 149.4 167.775 149.4H166.555C166.422 149.4 166.355 149.333 166.355 149.2V148.02C166.355 147.887 166.422 147.82 166.555 147.82H167.775C167.828 147.82 167.855 147.793 167.855 147.74V145.38C167.855 145.247 167.922 145.18 168.055 145.18H169.495C169.628 145.18 169.695 145.247 169.695 145.38V147.74C169.695 147.793 169.722 147.82 169.775 147.82H171.935C172.068 147.82 172.135 147.887 172.135 148.02V149.2ZM175.658 146.22C175.284 146.22 174.978 146.1 174.738 145.86C174.498 145.62 174.378 145.313 174.378 144.94C174.378 144.567 174.498 144.26 174.738 144.02C174.978 143.78 175.284 143.66 175.658 143.66C176.031 143.66 176.338 143.78 176.578 144.02C176.818 144.26 176.938 144.567 176.938 144.94C176.938 145.313 176.818 145.62 176.578 145.86C176.338 146.1 176.031 146.22 175.658 146.22ZM174.858 157.98C174.724 157.98 174.658 157.913 174.658 157.78V148.02C174.658 147.887 174.724 147.82 174.858 147.82H176.378C176.511 147.82 176.578 147.887 176.578 148.02V157.78C176.578 157.913 176.511 157.98 176.378 157.98H174.858ZM183.755 158.16C182.769 158.16 181.909 157.913 181.175 157.42C180.442 156.913 179.929 156.213 179.635 155.32C179.395 154.6 179.275 153.787 179.275 152.88C179.275 151.933 179.389 151.133 179.615 150.48C179.909 149.6 180.422 148.913 181.155 148.42C181.889 147.913 182.762 147.66 183.775 147.66C184.735 147.66 185.569 147.913 186.275 148.42C186.995 148.913 187.509 149.593 187.815 150.46C188.055 151.14 188.175 151.94 188.175 152.86C188.175 153.793 188.055 154.613 187.815 155.32C187.522 156.213 187.015 156.913 186.295 157.42C185.575 157.913 184.729 158.16 183.755 158.16ZM183.755 156.5C184.289 156.5 184.755 156.353 185.155 156.06C185.555 155.753 185.842 155.327 186.015 154.78C186.162 154.273 186.235 153.647 186.235 152.9C186.235 152.153 186.169 151.533 186.035 151.04C185.862 150.493 185.575 150.073 185.175 149.78C184.775 149.473 184.289 149.32 183.715 149.32C183.169 149.32 182.695 149.473 182.295 149.78C181.895 150.073 181.609 150.493 181.435 151.04C181.289 151.507 181.215 152.127 181.215 152.9C181.215 153.673 181.289 154.3 181.435 154.78C181.595 155.327 181.875 155.753 182.275 156.06C182.689 156.353 183.182 156.5 183.755 156.5ZM195.229 147.68C196.322 147.68 197.189 148 197.829 148.64C198.469 149.267 198.789 150.12 198.789 151.2V157.8C198.789 157.933 198.722 158 198.589 158H197.069C196.936 158 196.869 157.933 196.869 157.8V151.58C196.869 150.913 196.676 150.373 196.289 149.96C195.902 149.547 195.389 149.34 194.749 149.34C194.122 149.34 193.609 149.547 193.209 149.96C192.809 150.373 192.609 150.907 192.609 151.56V157.8C192.609 157.933 192.542 158 192.409 158H190.889C190.756 158 190.689 157.933 190.689 157.8V148.02C190.689 147.887 190.756 147.82 190.889 147.82H192.409C192.542 147.82 192.609 147.887 192.609 148.02V148.74C192.609 148.767 192.616 148.787 192.629 148.8C192.656 148.813 192.676 148.807 192.689 148.78C193.262 148.047 194.109 147.68 195.229 147.68Z" fill="url(#paint2_linear_2110_8788)"/>
<g opacity="0.7">
<circle cx="129" cy="84" r="30.5455" fill="url(#paint3_linear_2110_8788)"/>
<circle cx="129" cy="84" r="30.5455" fill="black" fill-opacity="0.2"/>
<circle cx="129" cy="84" r="30.5455" stroke="url(#paint4_linear_2110_8788)" stroke-width="1.09091"/>
</g>
<path d="M129.468 70.7168C126.897 70.7168 124.383 71.4792 122.245 72.9077C120.108 74.3361 118.441 76.3665 117.457 78.7418C116.473 81.1173 116.216 83.7312 116.718 86.2529C117.219 88.7746 118.457 91.091 120.275 92.9091C122.093 94.7273 124.41 95.9653 126.932 96.467C129.453 96.9686 132.067 96.7111 134.443 95.7271C136.818 94.7433 138.848 93.077 140.277 90.9392C141.705 88.8013 142.468 86.288 142.468 83.7168C142.464 80.2702 141.093 76.9658 138.656 74.5288C136.219 72.0917 132.914 70.7208 129.468 70.7168ZM139.263 78.7168H134.806C134.245 76.6579 133.3 74.7239 132.019 73.0168C133.566 73.3884 135.015 74.0903 136.265 75.0741C137.516 76.058 138.537 77.3005 139.263 78.7168ZM140.468 83.7168C140.469 84.7312 140.329 85.7409 140.052 86.7168H135.238C135.544 84.7285 135.544 82.705 135.238 80.7168H140.052C140.329 81.6926 140.469 82.7024 140.468 83.7168ZM129.468 73.0917C130.965 74.6949 132.077 76.6188 132.718 78.7168H126.218C126.858 76.6185 127.97 74.6945 129.468 73.0917ZM126.218 88.7168H132.718C132.077 90.815 130.966 92.739 129.468 94.3417C127.97 92.7386 126.859 90.8148 126.218 88.7168ZM125.73 86.7168C125.387 84.7314 125.387 82.702 125.73 80.7168H133.215C133.559 82.702 133.559 84.7314 133.215 86.7168H125.73ZM132.024 94.4167C133.304 92.7097 134.25 90.7756 134.812 88.7168H139.269C138.543 90.1336 137.519 91.3765 136.268 92.3604C135.016 93.3442 133.567 94.0457 132.019 94.4167H132.024Z" fill="white"/>
<defs>
<linearGradient id="paint0_linear_2110_8788" x1="-3.08081e-05" y1="-17.4012" x2="269.17" y2="203" gradientUnits="userSpaceOnUse">
<stop stop-color="#1A2613"/>
<stop offset="0.489"/>
<stop offset="1" stop-color="#001D2B"/>
</linearGradient>
<linearGradient id="paint1_linear_2110_8788" x1="241.739" y1="168.454" x2="77.1893" y2="-9.93036" gradientUnits="userSpaceOnUse">
<stop stop-color="#14FF87" stop-opacity="0.76"/>
<stop offset="1" stop-color="#CAFE15"/>
</linearGradient>
<linearGradient id="paint2_linear_2110_8788" x1="190.956" y1="158.502" x2="179.899" y2="113.175" gradientUnits="userSpaceOnUse">
<stop stop-color="#14FF87" stop-opacity="0.76"/>
<stop offset="1" stop-color="#CAFE15"/>
</linearGradient>
<linearGradient id="paint3_linear_2110_8788" x1="156.379" y1="54" x2="98.9423" y2="119.287" gradientUnits="userSpaceOnUse">
<stop stop-color="#66BE53"/>
<stop offset="1" stop-color="#2F5826"/>
</linearGradient>
<linearGradient id="paint4_linear_2110_8788" x1="159" y1="112.537" x2="105.697" y2="49.3656" gradientUnits="userSpaceOnUse">
<stop stop-color="#14FF87"/>
<stop offset="1" stop-color="#CAFE15"/>
</linearGradient>
</defs>
</svg>
