<svg width="260" height="220" viewBox="0 0 260 220" fill="none" xmlns="http://www.w3.org/2000/svg">
<rect x="0.5" y="0.5" width="259" height="219" rx="19.5" fill="url(#paint0_linear_2110_8789)" stroke="url(#paint1_linear_2110_8789)"/>
<path d="M68.7898 144.12C68.8565 144.04 68.9365 144 69.0298 144H70.5498C70.6832 144 70.7498 144.067 70.7498 144.2V157.8C70.7498 157.933 70.6832 158 70.5498 158H69.0298C68.8965 158 68.8298 157.933 68.8298 157.8V147.56C68.8298 147.52 68.8165 147.493 68.7898 147.48C68.7632 147.467 68.7432 147.48 68.7298 147.52L65.8698 151.88C65.8165 151.96 65.7365 152 65.6298 152H64.8698C64.7765 152 64.6965 151.96 64.6298 151.88L61.7498 147.56C61.7365 147.52 61.7165 147.507 61.6898 147.52C61.6632 147.533 61.6498 147.56 61.6498 147.6V157.8C61.6498 157.933 61.5832 158 61.4498 158H59.9298C59.7965 158 59.7298 157.933 59.7298 157.8V144.2C59.7298 144.067 59.7965 144 59.9298 144H61.4498C61.5565 144 61.6365 144.04 61.6898 144.12L65.1898 149.36C65.2032 149.373 65.2232 149.38 65.2498 149.38C65.2765 149.38 65.2965 149.373 65.3098 149.36L68.7898 144.12ZM77.9467 158.16C76.9601 158.16 76.1001 157.913 75.3667 157.42C74.6334 156.913 74.1201 156.213 73.8267 155.32C73.5867 154.6 73.4667 153.787 73.4667 152.88C73.4667 151.933 73.5801 151.133 73.8067 150.48C74.1001 149.6 74.6134 148.913 75.3467 148.42C76.0801 147.913 76.9534 147.66 77.9667 147.66C78.9267 147.66 79.7601 147.913 80.4667 148.42C81.1867 148.913 81.7001 149.593 82.0067 150.46C82.2467 151.14 82.3667 151.94 82.3667 152.86C82.3667 153.793 82.2467 154.613 82.0067 155.32C81.7134 156.213 81.2067 156.913 80.4867 157.42C79.7667 157.913 78.9201 158.16 77.9467 158.16ZM77.9467 156.5C78.4801 156.5 78.9467 156.353 79.3467 156.06C79.7467 155.753 80.0334 155.327 80.2067 154.78C80.3534 154.273 80.4267 153.647 80.4267 152.9C80.4267 152.153 80.3601 151.533 80.2267 151.04C80.0534 150.493 79.7667 150.073 79.3667 149.78C78.9667 149.473 78.4801 149.32 77.9067 149.32C77.3601 149.32 76.8867 149.473 76.4867 149.78C76.0867 150.073 75.8001 150.493 75.6267 151.04C75.4801 151.507 75.4067 152.127 75.4067 152.9C75.4067 153.673 75.4801 154.3 75.6267 154.78C75.7867 155.327 76.0667 155.753 76.4667 156.06C76.8801 156.353 77.3734 156.5 77.9467 156.5ZM93.1005 150.46C93.3138 151.14 93.4205 151.947 93.4205 152.88C93.4205 153.88 93.2938 154.733 93.0405 155.44C92.7471 156.307 92.2805 156.98 91.6405 157.46C91.0138 157.927 90.2205 158.16 89.2605 158.16C88.7938 158.16 88.3605 158.067 87.9605 157.88C87.5605 157.693 87.2138 157.433 86.9205 157.1C86.8938 157.073 86.8671 157.067 86.8405 157.08C86.8271 157.093 86.8205 157.113 86.8205 157.14V157.8C86.8205 157.933 86.7538 158 86.6205 158H85.1005C84.9671 158 84.9005 157.933 84.9005 157.8V144.2C84.9005 144.067 84.9671 144 85.1005 144H86.6205C86.7538 144 86.8205 144.067 86.8205 144.2V148.66C86.8205 148.687 86.8271 148.707 86.8405 148.72C86.8671 148.733 86.8938 148.727 86.9205 148.7C87.2138 148.367 87.5605 148.113 87.9605 147.94C88.3738 147.753 88.8071 147.66 89.2605 147.66C90.2605 147.66 91.0805 147.907 91.7205 148.4C92.3605 148.893 92.8205 149.58 93.1005 150.46ZM90.9805 155.4C91.3138 154.773 91.4805 153.947 91.4805 152.92C91.4805 151.827 91.2671 150.947 90.8405 150.28C90.4538 149.64 89.8605 149.32 89.0605 149.32C88.3138 149.32 87.7471 149.66 87.3605 150.34C87.0138 150.953 86.8405 151.807 86.8405 152.9C86.8405 153.993 87.0005 154.833 87.3205 155.42C87.7205 156.14 88.3071 156.5 89.0805 156.5C89.9605 156.5 90.5938 156.133 90.9805 155.4ZM97.0952 146.22C96.7218 146.22 96.4152 146.1 96.1752 145.86C95.9352 145.62 95.8152 145.313 95.8152 144.94C95.8152 144.567 95.9352 144.26 96.1752 144.02C96.4152 143.78 96.7218 143.66 97.0952 143.66C97.4685 143.66 97.7752 143.78 98.0152 144.02C98.2552 144.26 98.3752 144.567 98.3752 144.94C98.3752 145.313 98.2552 145.62 98.0152 145.86C97.7752 146.1 97.4685 146.22 97.0952 146.22ZM96.2952 157.98C96.1618 157.98 96.0952 157.913 96.0952 157.78V148.02C96.0952 147.887 96.1618 147.82 96.2952 147.82H97.8152C97.9485 147.82 98.0152 147.887 98.0152 148.02V157.78C98.0152 157.913 97.9485 157.98 97.8152 157.98H96.2952ZM101.233 158C101.099 158 101.033 157.933 101.033 157.8V144.2C101.033 144.067 101.099 144 101.233 144H102.753C102.886 144 102.953 144.067 102.953 144.2V157.8C102.953 157.933 102.886 158 102.753 158H101.233ZM113.98 151.64C114.033 152.187 114.053 152.8 114.04 153.48C114.04 153.613 113.973 153.68 113.84 153.68H107.46C107.407 153.68 107.38 153.707 107.38 153.76C107.38 154.213 107.42 154.56 107.5 154.8C107.647 155.333 107.94 155.753 108.38 156.06C108.833 156.353 109.4 156.5 110.08 156.5C111.067 156.5 111.827 156.093 112.36 155.28C112.427 155.147 112.513 155.127 112.62 155.22L113.76 155.98C113.853 156.06 113.873 156.147 113.82 156.24C113.447 156.84 112.913 157.313 112.22 157.66C111.54 158.007 110.767 158.18 109.9 158.18C108.927 158.18 108.107 157.967 107.44 157.54C106.773 157.113 106.273 156.507 105.94 155.72C105.62 154.933 105.46 153.98 105.46 152.86C105.46 151.887 105.533 151.147 105.68 150.64C105.92 149.72 106.4 148.993 107.12 148.46C107.84 147.927 108.713 147.66 109.74 147.66C111.087 147.66 112.093 148 112.76 148.68C113.427 149.347 113.833 150.333 113.98 151.64ZM109.74 149.32C109.167 149.32 108.693 149.467 108.32 149.76C107.947 150.04 107.693 150.42 107.56 150.9C107.467 151.193 107.407 151.567 107.38 152.02C107.38 152.073 107.407 152.1 107.46 152.1H112.04C112.093 152.1 112.12 152.073 112.12 152.02C112.093 151.58 112.053 151.253 112 151.04C111.867 150.52 111.6 150.107 111.2 149.8C110.813 149.48 110.327 149.32 109.74 149.32ZM129.206 158C129.086 158 129.006 157.947 128.966 157.84L128.246 155.5C128.233 155.46 128.206 155.44 128.166 155.44H122.546C122.506 155.44 122.48 155.46 122.466 155.5L121.746 157.84C121.706 157.947 121.626 158 121.506 158H119.886C119.74 158 119.686 157.927 119.726 157.78L124.106 144.16C124.146 144.053 124.226 144 124.346 144H126.346C126.466 144 126.546 144.053 126.586 144.16L131.006 157.78L131.026 157.86C131.026 157.953 130.966 158 130.846 158H129.206ZM122.966 153.82C122.953 153.847 122.953 153.873 122.966 153.9C122.993 153.913 123.02 153.92 123.046 153.92H127.646C127.673 153.92 127.693 153.913 127.706 153.9C127.733 153.873 127.74 153.847 127.726 153.82L125.406 146.4C125.393 146.373 125.373 146.36 125.346 146.36C125.32 146.36 125.3 146.373 125.286 146.4L122.966 153.82ZM141.324 150.38C141.577 151.1 141.704 151.953 141.704 152.94C141.704 153.873 141.597 154.68 141.384 155.36C141.104 156.253 140.644 156.947 140.004 157.44C139.364 157.92 138.544 158.16 137.544 158.16C137.091 158.16 136.657 158.073 136.244 157.9C135.844 157.713 135.497 157.453 135.204 157.12C135.177 157.093 135.151 157.087 135.124 157.1C135.111 157.113 135.104 157.133 135.104 157.16V161.62C135.104 161.753 135.037 161.82 134.904 161.82H133.384C133.251 161.82 133.184 161.753 133.184 161.62V148.02C133.184 147.887 133.251 147.82 133.384 147.82H134.904C135.037 147.82 135.104 147.887 135.104 148.02V148.68C135.104 148.707 135.111 148.727 135.124 148.74C135.151 148.753 135.177 148.747 135.204 148.72C135.497 148.387 135.844 148.127 136.244 147.94C136.644 147.753 137.077 147.66 137.544 147.66C138.504 147.66 139.297 147.9 139.924 148.38C140.564 148.847 141.031 149.513 141.324 150.38ZM139.124 155.54C139.551 154.9 139.764 154.02 139.764 152.9C139.764 151.873 139.597 151.047 139.264 150.42C138.877 149.687 138.244 149.32 137.364 149.32C136.591 149.32 136.004 149.68 135.604 150.4C135.284 150.973 135.124 151.813 135.124 152.92C135.124 154.04 135.297 154.893 135.644 155.48C136.031 156.16 136.597 156.5 137.344 156.5C138.144 156.5 138.737 156.18 139.124 155.54ZM152.476 150.38C152.73 151.1 152.856 151.953 152.856 152.94C152.856 153.873 152.75 154.68 152.536 155.36C152.256 156.253 151.796 156.947 151.156 157.44C150.516 157.92 149.696 158.16 148.696 158.16C148.243 158.16 147.81 158.073 147.396 157.9C146.996 157.713 146.65 157.453 146.356 157.12C146.33 157.093 146.303 157.087 146.276 157.1C146.263 157.113 146.256 157.133 146.256 157.16V161.62C146.256 161.753 146.19 161.82 146.056 161.82H144.536C144.403 161.82 144.336 161.753 144.336 161.62V148.02C144.336 147.887 144.403 147.82 144.536 147.82H146.056C146.19 147.82 146.256 147.887 146.256 148.02V148.68C146.256 148.707 146.263 148.727 146.276 148.74C146.303 148.753 146.33 148.747 146.356 148.72C146.65 148.387 146.996 148.127 147.396 147.94C147.796 147.753 148.23 147.66 148.696 147.66C149.656 147.66 150.45 147.9 151.076 148.38C151.716 148.847 152.183 149.513 152.476 150.38ZM150.276 155.54C150.703 154.9 150.916 154.02 150.916 152.9C150.916 151.873 150.75 151.047 150.416 150.42C150.03 149.687 149.396 149.32 148.516 149.32C147.743 149.32 147.156 149.68 146.756 150.4C146.436 150.973 146.276 151.813 146.276 152.92C146.276 154.04 146.45 154.893 146.796 155.48C147.183 156.16 147.75 156.5 148.496 156.5C149.296 156.5 149.89 156.18 150.276 155.54ZM155.569 158C155.435 158 155.369 157.933 155.369 157.8V144.2C155.369 144.067 155.435 144 155.569 144H157.089C157.222 144 157.289 144.067 157.289 144.2V157.8C157.289 157.933 157.222 158 157.089 158H155.569ZM161.236 146.22C160.862 146.22 160.556 146.1 160.316 145.86C160.076 145.62 159.956 145.313 159.956 144.94C159.956 144.567 160.076 144.26 160.316 144.02C160.556 143.78 160.862 143.66 161.236 143.66C161.609 143.66 161.916 143.78 162.156 144.02C162.396 144.26 162.516 144.567 162.516 144.94C162.516 145.313 162.396 145.62 162.156 145.86C161.916 146.1 161.609 146.22 161.236 146.22ZM160.436 157.98C160.302 157.98 160.236 157.913 160.236 157.78V148.02C160.236 147.887 160.302 147.82 160.436 147.82H161.956C162.089 147.82 162.156 147.887 162.156 148.02V157.78C162.156 157.913 162.089 157.98 161.956 157.98H160.436ZM169.253 158.16C168.24 158.16 167.373 157.907 166.653 157.4C165.933 156.88 165.44 156.18 165.173 155.3C164.973 154.687 164.873 153.88 164.873 152.88C164.873 151.96 164.973 151.153 165.173 150.46C165.44 149.607 165.933 148.927 166.653 148.42C167.387 147.913 168.253 147.66 169.253 147.66C170.253 147.66 171.127 147.913 171.873 148.42C172.62 148.927 173.107 149.567 173.333 150.34C173.413 150.553 173.467 150.773 173.493 151C173.493 151.107 173.433 151.173 173.313 151.2L171.813 151.42H171.773C171.68 151.42 171.613 151.36 171.573 151.24L171.513 150.92C171.407 150.467 171.147 150.087 170.733 149.78C170.32 149.473 169.82 149.32 169.233 149.32C168.66 149.32 168.173 149.473 167.773 149.78C167.373 150.087 167.113 150.493 166.993 151C166.873 151.48 166.813 152.113 166.813 152.9C166.813 153.673 166.873 154.3 166.993 154.78C167.127 155.313 167.387 155.733 167.773 156.04C168.173 156.347 168.66 156.5 169.233 156.5C169.82 156.5 170.32 156.347 170.733 156.04C171.16 155.733 171.427 155.333 171.533 154.84C171.547 154.827 171.547 154.813 171.533 154.8C171.533 154.773 171.54 154.753 171.553 154.74V154.66C171.593 154.553 171.667 154.513 171.773 154.54L173.273 154.78C173.38 154.807 173.433 154.86 173.433 154.94V155.02C173.433 155.14 173.4 155.287 173.333 155.46C173.107 156.273 172.62 156.927 171.873 157.42C171.127 157.913 170.253 158.16 169.253 158.16ZM179.421 147.66C180.234 147.66 180.941 147.807 181.541 148.1C182.154 148.38 182.621 148.78 182.941 149.3C183.274 149.807 183.441 150.387 183.441 151.04V157.8C183.441 157.933 183.374 158 183.241 158H181.721C181.587 158 181.521 157.933 181.521 157.8V157.08C181.521 157.013 181.487 157 181.421 157.04C181.074 157.4 180.647 157.68 180.141 157.88C179.647 158.067 179.094 158.16 178.481 158.16C177.494 158.16 176.674 157.913 176.021 157.42C175.381 156.913 175.061 156.153 175.061 155.14C175.061 154.1 175.421 153.287 176.141 152.7C176.874 152.1 177.894 151.8 179.201 151.8H181.441C181.494 151.8 181.521 151.773 181.521 151.72V151.18C181.521 150.593 181.347 150.14 181.001 149.82C180.667 149.487 180.154 149.32 179.461 149.32C178.901 149.32 178.441 149.433 178.081 149.66C177.734 149.873 177.521 150.167 177.441 150.54C177.401 150.673 177.321 150.733 177.201 150.72L175.581 150.5C175.447 150.473 175.387 150.42 175.401 150.34C175.507 149.553 175.927 148.913 176.661 148.42C177.394 147.913 178.314 147.66 179.421 147.66ZM178.901 156.54C179.607 156.54 180.221 156.353 180.741 155.98C181.261 155.607 181.521 155.133 181.521 154.56V153.38C181.521 153.327 181.494 153.3 181.441 153.3H179.561C178.774 153.3 178.147 153.453 177.681 153.76C177.214 154.067 176.981 154.493 176.981 155.04C176.981 155.533 177.154 155.907 177.501 156.16C177.861 156.413 178.327 156.54 178.901 156.54ZM190.916 149.2C190.916 149.333 190.849 149.4 190.716 149.4H188.556C188.503 149.4 188.476 149.427 188.476 149.48V154.78C188.476 155.34 188.603 155.747 188.856 156C189.109 156.24 189.503 156.36 190.036 156.36H190.616C190.749 156.36 190.816 156.427 190.816 156.56V157.8C190.816 157.933 190.749 158 190.616 158C190.189 158.027 189.883 158.04 189.696 158.04C188.683 158.04 187.916 157.86 187.396 157.5C186.889 157.127 186.636 156.447 186.636 155.46V149.48C186.636 149.427 186.609 149.4 186.556 149.4H185.336C185.203 149.4 185.136 149.333 185.136 149.2V148.02C185.136 147.887 185.203 147.82 185.336 147.82H186.556C186.609 147.82 186.636 147.793 186.636 147.74V145.38C186.636 145.247 186.703 145.18 186.836 145.18H188.276C188.409 145.18 188.476 145.247 188.476 145.38V147.74C188.476 147.793 188.503 147.82 188.556 147.82H190.716C190.849 147.82 190.916 147.887 190.916 148.02V149.2ZM194.439 146.22C194.066 146.22 193.759 146.1 193.519 145.86C193.279 145.62 193.159 145.313 193.159 144.94C193.159 144.567 193.279 144.26 193.519 144.02C193.759 143.78 194.066 143.66 194.439 143.66C194.812 143.66 195.119 143.78 195.359 144.02C195.599 144.26 195.719 144.567 195.719 144.94C195.719 145.313 195.599 145.62 195.359 145.86C195.119 146.1 194.812 146.22 194.439 146.22ZM193.639 157.98C193.506 157.98 193.439 157.913 193.439 157.78V148.02C193.439 147.887 193.506 147.82 193.639 147.82H195.159C195.292 147.82 195.359 147.887 195.359 148.02V157.78C195.359 157.913 195.292 157.98 195.159 157.98H193.639ZM202.537 158.16C201.55 158.16 200.69 157.913 199.957 157.42C199.223 156.913 198.71 156.213 198.417 155.32C198.177 154.6 198.057 153.787 198.057 152.88C198.057 151.933 198.17 151.133 198.397 150.48C198.69 149.6 199.203 148.913 199.937 148.42C200.67 147.913 201.543 147.66 202.557 147.66C203.517 147.66 204.35 147.913 205.057 148.42C205.777 148.913 206.29 149.593 206.597 150.46C206.837 151.14 206.957 151.94 206.957 152.86C206.957 153.793 206.837 154.613 206.597 155.32C206.303 156.213 205.797 156.913 205.077 157.42C204.357 157.913 203.51 158.16 202.537 158.16ZM202.537 156.5C203.07 156.5 203.537 156.353 203.937 156.06C204.337 155.753 204.623 155.327 204.797 154.78C204.943 154.273 205.017 153.647 205.017 152.9C205.017 152.153 204.95 151.533 204.817 151.04C204.643 150.493 204.357 150.073 203.957 149.78C203.557 149.473 203.07 149.32 202.497 149.32C201.95 149.32 201.477 149.473 201.077 149.78C200.677 150.073 200.39 150.493 200.217 151.04C200.07 151.507 199.997 152.127 199.997 152.9C199.997 153.673 200.07 154.3 200.217 154.78C200.377 155.327 200.657 155.753 201.057 156.06C201.47 156.353 201.963 156.5 202.537 156.5ZM214.01 147.68C215.104 147.68 215.97 148 216.61 148.64C217.25 149.267 217.57 150.12 217.57 151.2V157.8C217.57 157.933 217.504 158 217.37 158H215.85C215.717 158 215.65 157.933 215.65 157.8V151.58C215.65 150.913 215.457 150.373 215.07 149.96C214.684 149.547 214.17 149.34 213.53 149.34C212.904 149.34 212.39 149.547 211.99 149.96C211.59 150.373 211.39 150.907 211.39 151.56V157.8C211.39 157.933 211.324 158 211.19 158H209.67C209.537 158 209.47 157.933 209.47 157.8V148.02C209.47 147.887 209.537 147.82 209.67 147.82H211.19C211.324 147.82 211.39 147.887 211.39 148.02V148.74C211.39 148.767 211.397 148.787 211.41 148.8C211.437 148.813 211.457 148.807 211.47 148.78C212.044 148.047 212.89 147.68 214.01 147.68Z" fill="url(#paint2_linear_2110_8789)"/>
<g opacity="0.7">
<circle cx="129" cy="84" r="30.5455" fill="url(#paint3_linear_2110_8789)"/>
<circle cx="129" cy="84" r="30.5455" fill="black" fill-opacity="0.2"/>
<circle cx="129" cy="84" r="30.5455" stroke="url(#paint4_linear_2110_8789)" stroke-width="1.09091"/>
</g>
<path d="M129.472 70.6885C126.901 70.6885 124.387 71.4509 122.25 72.8794C120.112 74.3079 118.445 76.3382 117.461 78.7136C116.478 81.0891 116.22 83.7029 116.722 86.2247C117.223 88.7464 118.461 91.0628 120.28 92.8809C122.098 94.699 124.414 95.9371 126.936 96.4387C129.458 96.9403 132.071 96.6829 134.447 95.6989C136.822 94.715 138.853 93.0487 140.281 90.9109C141.709 88.7731 142.472 86.2597 142.472 83.6885C142.468 80.2418 141.097 76.9373 138.66 74.5001C136.223 72.0629 132.919 70.6921 129.472 70.6885ZM123.929 90.2035L123.329 91.2035C123.262 91.3161 123.173 91.4143 123.067 91.4924C122.961 91.5706 122.842 91.6272 122.714 91.659C122.587 91.6908 122.454 91.6972 122.324 91.6778C122.194 91.6584 122.07 91.6136 121.957 91.546C121.844 91.4784 121.746 91.3892 121.668 91.2836C121.59 91.1781 121.533 91.0581 121.501 90.9307C121.47 90.8032 121.463 90.6708 121.483 90.5408C121.502 90.4109 121.547 90.2861 121.614 90.1735L122.214 89.1735C122.351 88.9461 122.572 88.7822 122.83 88.718C123.087 88.6538 123.36 88.6944 123.587 88.831C123.814 88.9676 123.978 89.1889 124.042 89.4463C124.107 89.7037 124.066 89.9761 123.929 90.2035ZM129.472 86.6885H120.472C120.207 86.6885 119.952 86.5831 119.765 86.3956C119.577 86.2081 119.472 85.9537 119.472 85.6885C119.472 85.4233 119.577 85.1689 119.765 84.9814C119.952 84.7939 120.207 84.6885 120.472 84.6885H124.906L128.306 79.0222L126.614 76.2035C126.547 76.0909 126.502 75.9661 126.483 75.8361C126.463 75.7062 126.47 75.5738 126.501 75.4463C126.533 75.3189 126.59 75.1989 126.668 75.0934C126.746 74.9878 126.844 74.8986 126.957 74.831C127.184 74.6944 127.457 74.6538 127.714 74.718C127.842 74.7498 127.961 74.8064 128.067 74.8845C128.173 74.9627 128.262 75.0609 128.329 75.1735L129.472 77.0785L130.614 75.1735C130.682 75.0609 130.771 74.9627 130.877 74.8845C130.982 74.8064 131.102 74.7498 131.23 74.718C131.357 74.6862 131.49 74.6798 131.62 74.6992C131.749 74.7186 131.874 74.7634 131.987 74.831C132.1 74.8986 132.198 74.9878 132.276 75.0934C132.354 75.1989 132.411 75.3189 132.442 75.4463C132.474 75.5738 132.481 75.7062 132.461 75.8361C132.442 75.9661 132.397 76.0909 132.329 76.2035L127.238 84.6885H129.472C129.737 84.6885 129.992 84.7939 130.179 84.9814C130.367 85.1689 130.472 85.4233 130.472 85.6885C130.472 85.9537 130.367 86.2081 130.179 86.3956C129.992 86.5831 129.737 86.6885 129.472 86.6885ZM138.472 86.6885H135.238L137.329 90.1735C137.466 90.4009 137.507 90.6733 137.442 90.9307C137.378 91.1881 137.214 91.4094 136.987 91.546C136.76 91.6826 136.487 91.7232 136.23 91.659C135.972 91.5948 135.751 91.4309 135.614 91.2035L130.814 83.2035C130.678 82.9761 130.637 82.7037 130.701 82.4463C130.766 82.1889 130.93 81.9676 131.157 81.831C131.384 81.6944 131.657 81.6538 131.914 81.718C132.172 81.7822 132.393 81.9461 132.529 82.1735L134.038 84.6885H138.472C138.737 84.6885 138.992 84.7939 139.179 84.9814C139.367 85.1689 139.472 85.4233 139.472 85.6885C139.472 85.9537 139.367 86.2081 139.179 86.3956C138.992 86.5831 138.737 86.6885 138.472 86.6885Z" fill="white"/>
<defs>
<linearGradient id="paint0_linear_2110_8789" x1="-3.08081e-05" y1="-17.4012" x2="269.17" y2="203" gradientUnits="userSpaceOnUse">
<stop stop-color="#1A2613"/>
<stop offset="0.489"/>
<stop offset="1" stop-color="#001D2B"/>
</linearGradient>
<linearGradient id="paint1_linear_2110_8789" x1="241.739" y1="168.454" x2="77.1893" y2="-9.93036" gradientUnits="userSpaceOnUse">
<stop stop-color="#14FF87" stop-opacity="0.76"/>
<stop offset="1" stop-color="#CAFE15"/>
</linearGradient>
<linearGradient id="paint2_linear_2110_8789" x1="207.692" y1="158.502" x2="197.753" y2="112.631" gradientUnits="userSpaceOnUse">
<stop stop-color="#14FF87" stop-opacity="0.76"/>
<stop offset="1" stop-color="#CAFE15"/>
</linearGradient>
<linearGradient id="paint3_linear_2110_8789" x1="156.379" y1="54" x2="98.9423" y2="119.287" gradientUnits="userSpaceOnUse">
<stop stop-color="#66BE53"/>
<stop offset="1" stop-color="#2F5826"/>
</linearGradient>
<linearGradient id="paint4_linear_2110_8789" x1="159" y1="112.537" x2="105.697" y2="49.3656" gradientUnits="userSpaceOnUse">
<stop stop-color="#14FF87"/>
<stop offset="1" stop-color="#CAFE15"/>
</linearGradient>
</defs>
</svg>
