<svg width="260" height="220" viewBox="0 0 260 220" fill="none" xmlns="http://www.w3.org/2000/svg">
<rect x="0.5" y="0.5" width="259" height="219" rx="19.5" fill="url(#paint0_linear_2110_8824)" stroke="url(#paint1_linear_2110_8824)"/>
<path d="M38.3127 158C38.1793 158 38.1127 157.933 38.1127 157.8V144.2C38.1127 144.067 38.1793 144 38.3127 144H43.1527C44.5393 144 45.646 144.367 46.4727 145.1C47.2993 145.82 47.7127 146.787 47.7127 148V154C47.7127 155.213 47.2993 156.187 46.4727 156.92C45.646 157.64 44.5393 158 43.1527 158H38.3127ZM40.0327 156.26C40.0327 156.313 40.0593 156.34 40.1127 156.34H43.2327C44.006 156.34 44.6193 156.107 45.0727 155.64C45.5393 155.16 45.7793 154.52 45.7927 153.72V148.28C45.7927 147.48 45.5593 146.847 45.0927 146.38C44.6393 145.9 44.0193 145.66 43.2327 145.66H40.1127C40.0593 145.66 40.0327 145.687 40.0327 145.74V156.26ZM58.4759 151.64C58.5293 152.187 58.5493 152.8 58.5359 153.48C58.5359 153.613 58.4693 153.68 58.3359 153.68H51.9559C51.9026 153.68 51.8759 153.707 51.8759 153.76C51.8759 154.213 51.9159 154.56 51.9959 154.8C52.1426 155.333 52.4359 155.753 52.8759 156.06C53.3293 156.353 53.8959 156.5 54.5759 156.5C55.5626 156.5 56.3226 156.093 56.8559 155.28C56.9226 155.147 57.0093 155.127 57.1159 155.22L58.2559 155.98C58.3493 156.06 58.3693 156.147 58.3159 156.24C57.9426 156.84 57.4093 157.313 56.7159 157.66C56.0359 158.007 55.2626 158.18 54.3959 158.18C53.4226 158.18 52.6026 157.967 51.9359 157.54C51.2693 157.113 50.7693 156.507 50.4359 155.72C50.1159 154.933 49.9559 153.98 49.9559 152.86C49.9559 151.887 50.0293 151.147 50.1759 150.64C50.4159 149.72 50.8959 148.993 51.6159 148.46C52.3359 147.927 53.2093 147.66 54.2359 147.66C55.5826 147.66 56.5893 148 57.2559 148.68C57.9226 149.347 58.3293 150.333 58.4759 151.64ZM54.2359 149.32C53.6626 149.32 53.1893 149.467 52.8159 149.76C52.4426 150.04 52.1893 150.42 52.0559 150.9C51.9626 151.193 51.9026 151.567 51.8759 152.02C51.8759 152.073 51.9026 152.1 51.9559 152.1H56.5359C56.5893 152.1 56.6159 152.073 56.6159 152.02C56.5893 151.58 56.5493 151.253 56.4959 151.04C56.3626 150.52 56.0959 150.107 55.6959 149.8C55.3093 149.48 54.8226 149.32 54.2359 149.32ZM63.287 158C63.167 158 63.087 157.947 63.047 157.84L59.787 148.04L59.767 147.96C59.767 147.867 59.827 147.82 59.947 147.82H61.627C61.747 147.82 61.827 147.873 61.867 147.98L64.067 155.22C64.0804 155.247 64.1004 155.26 64.127 155.26C64.1537 155.26 64.1737 155.247 64.187 155.22L66.367 147.98C66.407 147.873 66.487 147.82 66.607 147.82L68.287 147.84C68.4337 147.84 68.487 147.913 68.447 148.06L65.207 157.84C65.167 157.947 65.087 158 64.967 158H63.287ZM78.222 151.64C78.2754 152.187 78.2954 152.8 78.282 153.48C78.282 153.613 78.2154 153.68 78.082 153.68H71.702C71.6487 153.68 71.622 153.707 71.622 153.76C71.622 154.213 71.662 154.56 71.742 154.8C71.8887 155.333 72.182 155.753 72.622 156.06C73.0754 156.353 73.642 156.5 74.322 156.5C75.3087 156.5 76.0687 156.093 76.602 155.28C76.6687 155.147 76.7554 155.127 76.862 155.22L78.002 155.98C78.0954 156.06 78.1154 156.147 78.062 156.24C77.6887 156.84 77.1554 157.313 76.462 157.66C75.782 158.007 75.0087 158.18 74.142 158.18C73.1687 158.18 72.3487 157.967 71.682 157.54C71.0154 157.113 70.5154 156.507 70.182 155.72C69.862 154.933 69.702 153.98 69.702 152.86C69.702 151.887 69.7754 151.147 69.922 150.64C70.162 149.72 70.642 148.993 71.362 148.46C72.082 147.927 72.9554 147.66 73.982 147.66C75.3287 147.66 76.3354 148 77.002 148.68C77.6687 149.347 78.0754 150.333 78.222 151.64ZM73.982 149.32C73.4087 149.32 72.9354 149.467 72.562 149.76C72.1887 150.04 71.9354 150.42 71.802 150.9C71.7087 151.193 71.6487 151.567 71.622 152.02C71.622 152.073 71.6487 152.1 71.702 152.1H76.282C76.3354 152.1 76.362 152.073 76.362 152.02C76.3354 151.58 76.2954 151.253 76.242 151.04C76.1087 150.52 75.842 150.107 75.442 149.8C75.0554 149.48 74.5687 149.32 73.982 149.32ZM80.9047 158C80.7714 158 80.7047 157.933 80.7047 157.8V144.2C80.7047 144.067 80.7714 144 80.9047 144H82.4247C82.558 144 82.6247 144.067 82.6247 144.2V157.8C82.6247 157.933 82.558 158 82.4247 158H80.9047ZM89.5717 158.16C88.5851 158.16 87.7251 157.913 86.9917 157.42C86.2584 156.913 85.7451 156.213 85.4517 155.32C85.2117 154.6 85.0917 153.787 85.0917 152.88C85.0917 151.933 85.2051 151.133 85.4317 150.48C85.7251 149.6 86.2384 148.913 86.9717 148.42C87.7051 147.913 88.5784 147.66 89.5917 147.66C90.5517 147.66 91.3851 147.913 92.0917 148.42C92.8117 148.913 93.3251 149.593 93.6317 150.46C93.8717 151.14 93.9917 151.94 93.9917 152.86C93.9917 153.793 93.8717 154.613 93.6317 155.32C93.3384 156.213 92.8317 156.913 92.1117 157.42C91.3917 157.913 90.5451 158.16 89.5717 158.16ZM89.5717 156.5C90.1051 156.5 90.5717 156.353 90.9717 156.06C91.3717 155.753 91.6584 155.327 91.8317 154.78C91.9784 154.273 92.0517 153.647 92.0517 152.9C92.0517 152.153 91.9851 151.533 91.8517 151.04C91.6784 150.493 91.3917 150.073 90.9917 149.78C90.5917 149.473 90.1051 149.32 89.5317 149.32C88.9851 149.32 88.5117 149.473 88.1117 149.78C87.7117 150.073 87.4251 150.493 87.2517 151.04C87.1051 151.507 87.0317 152.127 87.0317 152.9C87.0317 153.673 87.1051 154.3 87.2517 154.78C87.4117 155.327 87.6917 155.753 88.0917 156.06C88.5051 156.353 88.9984 156.5 89.5717 156.5ZM104.765 150.38C105.019 151.1 105.145 151.953 105.145 152.94C105.145 153.873 105.039 154.68 104.825 155.36C104.545 156.253 104.085 156.947 103.445 157.44C102.805 157.92 101.985 158.16 100.985 158.16C100.532 158.16 100.099 158.073 99.6855 157.9C99.2855 157.713 98.9388 157.453 98.6455 157.12C98.6188 157.093 98.5921 157.087 98.5655 157.1C98.5521 157.113 98.5455 157.133 98.5455 157.16V161.62C98.5455 161.753 98.4788 161.82 98.3455 161.82H96.8255C96.6921 161.82 96.6255 161.753 96.6255 161.62V148.02C96.6255 147.887 96.6921 147.82 96.8255 147.82H98.3455C98.4788 147.82 98.5455 147.887 98.5455 148.02V148.68C98.5455 148.707 98.5521 148.727 98.5655 148.74C98.5921 148.753 98.6188 148.747 98.6455 148.72C98.9388 148.387 99.2855 148.127 99.6855 147.94C100.085 147.753 100.519 147.66 100.985 147.66C101.945 147.66 102.739 147.9 103.365 148.38C104.005 148.847 104.472 149.513 104.765 150.38ZM102.565 155.54C102.992 154.9 103.205 154.02 103.205 152.9C103.205 151.873 103.039 151.047 102.705 150.42C102.319 149.687 101.685 149.32 100.805 149.32C100.032 149.32 99.4455 149.68 99.0455 150.4C98.7255 150.973 98.5655 151.813 98.5655 152.92C98.5655 154.04 98.7388 154.893 99.0855 155.48C99.4721 156.16 100.039 156.5 100.785 156.5C101.585 156.5 102.179 156.18 102.565 155.54ZM118.238 147.68C119.251 147.68 120.051 147.987 120.638 148.6C121.224 149.2 121.518 150.04 121.518 151.12V157.8C121.518 157.933 121.451 158 121.318 158H119.818C119.684 158 119.618 157.933 119.618 157.8V151.52C119.618 150.853 119.431 150.327 119.058 149.94C118.698 149.54 118.211 149.34 117.598 149.34C116.984 149.34 116.484 149.533 116.098 149.92C115.711 150.307 115.518 150.827 115.518 151.48V157.8C115.518 157.933 115.451 158 115.318 158H113.818C113.684 158 113.618 157.933 113.618 157.8V151.52C113.618 150.853 113.431 150.327 113.058 149.94C112.698 149.54 112.211 149.34 111.598 149.34C110.984 149.34 110.491 149.533 110.118 149.92C109.758 150.307 109.578 150.827 109.578 151.48V157.8C109.578 157.933 109.511 158 109.378 158H107.858C107.724 158 107.658 157.933 107.658 157.8V148.02C107.658 147.887 107.724 147.82 107.858 147.82H109.378C109.511 147.82 109.578 147.887 109.578 148.02V148.7C109.578 148.727 109.584 148.747 109.598 148.76C109.624 148.773 109.651 148.767 109.678 148.74C110.264 148.033 111.118 147.68 112.238 147.68C112.918 147.68 113.498 147.813 113.978 148.08C114.458 148.333 114.831 148.713 115.098 149.22C115.138 149.273 115.178 149.273 115.218 149.22C115.538 148.7 115.958 148.313 116.478 148.06C117.011 147.807 117.598 147.68 118.238 147.68ZM132.304 151.64C132.357 152.187 132.377 152.8 132.364 153.48C132.364 153.613 132.297 153.68 132.164 153.68H125.784C125.731 153.68 125.704 153.707 125.704 153.76C125.704 154.213 125.744 154.56 125.824 154.8C125.971 155.333 126.264 155.753 126.704 156.06C127.157 156.353 127.724 156.5 128.404 156.5C129.391 156.5 130.151 156.093 130.684 155.28C130.751 155.147 130.837 155.127 130.944 155.22L132.084 155.98C132.177 156.06 132.197 156.147 132.144 156.24C131.771 156.84 131.237 157.313 130.544 157.66C129.864 158.007 129.091 158.18 128.224 158.18C127.251 158.18 126.431 157.967 125.764 157.54C125.097 157.113 124.597 156.507 124.264 155.72C123.944 154.933 123.784 153.98 123.784 152.86C123.784 151.887 123.857 151.147 124.004 150.64C124.244 149.72 124.724 148.993 125.444 148.46C126.164 147.927 127.037 147.66 128.064 147.66C129.411 147.66 130.417 148 131.084 148.68C131.751 149.347 132.157 150.333 132.304 151.64ZM128.064 149.32C127.491 149.32 127.017 149.467 126.644 149.76C126.271 150.04 126.017 150.42 125.884 150.9C125.791 151.193 125.731 151.567 125.704 152.02C125.704 152.073 125.731 152.1 125.784 152.1H130.364C130.417 152.1 130.444 152.073 130.444 152.02C130.417 151.58 130.377 151.253 130.324 151.04C130.191 150.52 129.924 150.107 129.524 149.8C129.137 149.48 128.651 149.32 128.064 149.32ZM139.327 147.68C140.42 147.68 141.287 148 141.927 148.64C142.567 149.267 142.887 150.12 142.887 151.2V157.8C142.887 157.933 142.82 158 142.687 158H141.167C141.033 158 140.967 157.933 140.967 157.8V151.58C140.967 150.913 140.773 150.373 140.387 149.96C140 149.547 139.487 149.34 138.847 149.34C138.22 149.34 137.707 149.547 137.307 149.96C136.907 150.373 136.707 150.907 136.707 151.56V157.8C136.707 157.933 136.64 158 136.507 158H134.987C134.853 158 134.787 157.933 134.787 157.8V148.02C134.787 147.887 134.853 147.82 134.987 147.82H136.507C136.64 147.82 136.707 147.887 136.707 148.02V148.74C136.707 148.767 136.713 148.787 136.727 148.8C136.753 148.813 136.773 148.807 136.787 148.78C137.36 148.047 138.207 147.68 139.327 147.68ZM150.647 149.2C150.647 149.333 150.58 149.4 150.447 149.4H148.287C148.233 149.4 148.207 149.427 148.207 149.48V154.78C148.207 155.34 148.333 155.747 148.587 156C148.84 156.24 149.233 156.36 149.767 156.36H150.347C150.48 156.36 150.547 156.427 150.547 156.56V157.8C150.547 157.933 150.48 158 150.347 158C149.92 158.027 149.613 158.04 149.427 158.04C148.413 158.04 147.647 157.86 147.127 157.5C146.62 157.127 146.367 156.447 146.367 155.46V149.48C146.367 149.427 146.34 149.4 146.287 149.4H145.067C144.933 149.4 144.867 149.333 144.867 149.2V148.02C144.867 147.887 144.933 147.82 145.067 147.82H146.287C146.34 147.82 146.367 147.793 146.367 147.74V145.38C146.367 145.247 146.433 145.18 146.567 145.18H148.007C148.14 145.18 148.207 145.247 148.207 145.38V147.74C148.207 147.793 148.233 147.82 148.287 147.82H150.447C150.58 147.82 150.647 147.887 150.647 148.02V149.2ZM161.173 158.16C160.187 158.16 159.327 157.913 158.593 157.42C157.86 156.913 157.347 156.213 157.053 155.32C156.813 154.6 156.693 153.787 156.693 152.88C156.693 151.933 156.807 151.133 157.033 150.48C157.327 149.6 157.84 148.913 158.573 148.42C159.307 147.913 160.18 147.66 161.193 147.66C162.153 147.66 162.987 147.913 163.693 148.42C164.413 148.913 164.927 149.593 165.233 150.46C165.473 151.14 165.593 151.94 165.593 152.86C165.593 153.793 165.473 154.613 165.233 155.32C164.94 156.213 164.433 156.913 163.713 157.42C162.993 157.913 162.147 158.16 161.173 158.16ZM161.173 156.5C161.707 156.5 162.173 156.353 162.573 156.06C162.973 155.753 163.26 155.327 163.433 154.78C163.58 154.273 163.653 153.647 163.653 152.9C163.653 152.153 163.587 151.533 163.453 151.04C163.28 150.493 162.993 150.073 162.593 149.78C162.193 149.473 161.707 149.32 161.133 149.32C160.587 149.32 160.113 149.473 159.713 149.78C159.313 150.073 159.027 150.493 158.853 151.04C158.707 151.507 158.633 152.127 158.633 152.9C158.633 153.673 158.707 154.3 158.853 154.78C159.013 155.327 159.293 155.753 159.693 156.06C160.107 156.353 160.6 156.5 161.173 156.5ZM172.411 145.68C171.745 145.68 171.291 145.807 171.051 146.06C170.811 146.313 170.691 146.793 170.691 147.5V147.74C170.691 147.793 170.718 147.82 170.771 147.82H172.871C173.005 147.82 173.071 147.887 173.071 148.02V149.38C173.071 149.513 173.005 149.58 172.871 149.58H170.771C170.718 149.58 170.691 149.607 170.691 149.66V157.8C170.691 157.933 170.625 158 170.491 158H168.971C168.838 158 168.771 157.933 168.771 157.8V149.66C168.771 149.607 168.745 149.58 168.691 149.58H167.351C167.218 149.58 167.151 149.513 167.151 149.38V148.02C167.151 147.887 167.218 147.82 167.351 147.82H168.691C168.745 147.82 168.771 147.793 168.771 147.74V147.38C168.771 146.5 168.871 145.82 169.071 145.34C169.285 144.86 169.638 144.52 170.131 144.32C170.625 144.107 171.318 144 172.211 144H172.891C173.025 144 173.091 144.067 173.091 144.2V145.48C173.091 145.613 173.025 145.68 172.891 145.68H172.411ZM188.019 158C187.899 158 187.819 157.947 187.779 157.84L187.059 155.5C187.046 155.46 187.019 155.44 186.979 155.44H181.359C181.319 155.44 181.292 155.46 181.279 155.5L180.559 157.84C180.519 157.947 180.439 158 180.319 158H178.699C178.552 158 178.499 157.927 178.539 157.78L182.919 144.16C182.959 144.053 183.039 144 183.159 144H185.159C185.279 144 185.359 144.053 185.399 144.16L189.819 157.78L189.839 157.86C189.839 157.953 189.779 158 189.659 158H188.019ZM181.779 153.82C181.766 153.847 181.766 153.873 181.779 153.9C181.806 153.913 181.832 153.92 181.859 153.92H186.459C186.486 153.92 186.506 153.913 186.519 153.9C186.546 153.873 186.552 153.847 186.539 153.82L184.219 146.4C184.206 146.373 184.186 146.36 184.159 146.36C184.132 146.36 184.112 146.373 184.099 146.4L181.779 153.82ZM200.137 150.38C200.39 151.1 200.517 151.953 200.517 152.94C200.517 153.873 200.41 154.68 200.197 155.36C199.917 156.253 199.457 156.947 198.817 157.44C198.177 157.92 197.357 158.16 196.357 158.16C195.903 158.16 195.47 158.073 195.057 157.9C194.657 157.713 194.31 157.453 194.017 157.12C193.99 157.093 193.963 157.087 193.937 157.1C193.923 157.113 193.917 157.133 193.917 157.16V161.62C193.917 161.753 193.85 161.82 193.717 161.82H192.197C192.063 161.82 191.997 161.753 191.997 161.62V148.02C191.997 147.887 192.063 147.82 192.197 147.82H193.717C193.85 147.82 193.917 147.887 193.917 148.02V148.68C193.917 148.707 193.923 148.727 193.937 148.74C193.963 148.753 193.99 148.747 194.017 148.72C194.31 148.387 194.657 148.127 195.057 147.94C195.457 147.753 195.89 147.66 196.357 147.66C197.317 147.66 198.11 147.9 198.737 148.38C199.377 148.847 199.843 149.513 200.137 150.38ZM197.937 155.54C198.363 154.9 198.577 154.02 198.577 152.9C198.577 151.873 198.41 151.047 198.077 150.42C197.69 149.687 197.057 149.32 196.177 149.32C195.403 149.32 194.817 149.68 194.417 150.4C194.097 150.973 193.937 151.813 193.937 152.92C193.937 154.04 194.11 154.893 194.457 155.48C194.843 156.16 195.41 156.5 196.157 156.5C196.957 156.5 197.55 156.18 197.937 155.54ZM211.289 150.38C211.542 151.1 211.669 151.953 211.669 152.94C211.669 153.873 211.562 154.68 211.349 155.36C211.069 156.253 210.609 156.947 209.969 157.44C209.329 157.92 208.509 158.16 207.509 158.16C207.056 158.16 206.622 158.073 206.209 157.9C205.809 157.713 205.462 157.453 205.169 157.12C205.142 157.093 205.116 157.087 205.089 157.1C205.076 157.113 205.069 157.133 205.069 157.16V161.62C205.069 161.753 205.002 161.82 204.869 161.82H203.349C203.216 161.82 203.149 161.753 203.149 161.62V148.02C203.149 147.887 203.216 147.82 203.349 147.82H204.869C205.002 147.82 205.069 147.887 205.069 148.02V148.68C205.069 148.707 205.076 148.727 205.089 148.74C205.116 148.753 205.142 148.747 205.169 148.72C205.462 148.387 205.809 148.127 206.209 147.94C206.609 147.753 207.042 147.66 207.509 147.66C208.469 147.66 209.262 147.9 209.889 148.38C210.529 148.847 210.996 149.513 211.289 150.38ZM209.089 155.54C209.516 154.9 209.729 154.02 209.729 152.9C209.729 151.873 209.562 151.047 209.229 150.42C208.842 149.687 208.209 149.32 207.329 149.32C206.556 149.32 205.969 149.68 205.569 150.4C205.249 150.973 205.089 151.813 205.089 152.92C205.089 154.04 205.262 154.893 205.609 155.48C205.996 156.16 206.562 156.5 207.309 156.5C208.109 156.5 208.702 156.18 209.089 155.54ZM217.761 158.12C216.961 158.12 216.255 158 215.641 157.76C215.041 157.52 214.575 157.193 214.241 156.78C213.908 156.353 213.741 155.887 213.741 155.38V155.16C213.741 155.027 213.808 154.96 213.941 154.96H215.381C215.515 154.96 215.581 155.027 215.581 155.16V155.26C215.581 155.633 215.781 155.96 216.181 156.24C216.595 156.52 217.115 156.66 217.741 156.66C218.341 156.66 218.828 156.533 219.201 156.28C219.575 156.013 219.761 155.68 219.761 155.28C219.761 154.893 219.588 154.607 219.241 154.42C218.895 154.22 218.335 154.013 217.561 153.8C216.801 153.587 216.161 153.373 215.641 153.16C215.135 152.933 214.701 152.62 214.341 152.22C213.995 151.807 213.821 151.28 213.821 150.64C213.821 149.747 214.168 149.04 214.861 148.52C215.568 147.987 216.501 147.72 217.661 147.72C218.435 147.72 219.115 147.847 219.701 148.1C220.301 148.34 220.761 148.68 221.081 149.12C221.401 149.56 221.561 150.053 221.561 150.6V150.66C221.561 150.793 221.495 150.86 221.361 150.86H219.961C219.828 150.86 219.761 150.793 219.761 150.66V150.6C219.761 150.213 219.568 149.893 219.181 149.64C218.808 149.373 218.295 149.24 217.641 149.24C217.055 149.24 216.575 149.353 216.201 149.58C215.841 149.807 215.661 150.113 215.661 150.5C215.661 150.887 215.835 151.18 216.181 151.38C216.541 151.58 217.115 151.793 217.901 152.02C218.675 152.233 219.315 152.447 219.821 152.66C220.341 152.86 220.781 153.167 221.141 153.58C221.501 153.98 221.681 154.507 221.681 155.16C221.681 156.067 221.321 156.787 220.601 157.32C219.895 157.853 218.948 158.12 217.761 158.12Z" fill="url(#paint2_linear_2110_8824)"/>
<g opacity="0.7">
<circle cx="129" cy="84" r="30.5455" fill="url(#paint3_linear_2110_8824)"/>
<circle cx="129" cy="84" r="30.5455" fill="black" fill-opacity="0.2"/>
<circle cx="129" cy="84" r="30.5455" stroke="url(#paint4_linear_2110_8824)" stroke-width="1.09091"/>
</g>
<mask id="mask0_2110_8824" style="mask-type:luminance" maskUnits="userSpaceOnUse" x="114" y="68" width="31" height="31">
<path d="M144.468 68.7168H114.468V98.7168H144.468V68.7168Z" fill="white"/>
</mask>
<g mask="url(#mask0_2110_8824)">
<mask id="mask1_2110_8824" style="mask-type:luminance" maskUnits="userSpaceOnUse" x="114" y="68" width="31" height="31">
<path d="M144.468 68.7168H114.468V98.7168H144.468V68.7168Z" fill="white"/>
</mask>
<g mask="url(#mask1_2110_8824)">
<mask id="mask2_2110_8824" style="mask-type:luminance" maskUnits="userSpaceOnUse" x="114" y="68" width="31" height="31">
<path d="M144.468 68.7168H114.468V98.7168H144.468V68.7168Z" fill="white"/>
</mask>
<g mask="url(#mask2_2110_8824)">
<path d="M116.968 90.5918C116.968 89.0999 117.56 87.6692 118.615 86.6143C119.67 85.5594 121.101 84.9668 122.593 84.9668H125.968C126.755 84.9668 127.149 84.9668 127.45 85.1206C127.714 85.2543 127.93 85.4706 128.064 85.7343C128.218 86.0343 128.218 86.4293 128.218 87.2168V90.5918C128.218 91.3304 128.072 92.0619 127.79 92.7444C127.507 93.4268 127.093 94.0469 126.57 94.5693C126.048 95.0916 125.428 95.5059 124.745 95.7887C124.063 96.0713 123.331 96.2168 122.593 96.2168C121.854 96.2168 121.123 96.0713 120.44 95.7887C119.758 95.5059 119.138 95.0916 118.615 94.5693C118.093 94.0469 117.679 93.4268 117.396 92.7444C117.113 92.0619 116.968 91.3304 116.968 90.5918ZM130.718 76.8418C130.718 75.7293 131.048 74.6418 131.666 73.7167C132.284 72.7917 133.162 72.0707 134.19 71.6449C135.218 71.2192 136.349 71.1078 137.44 71.3249C138.531 71.5419 139.534 72.0777 140.32 72.8643C141.107 73.6511 141.643 74.6533 141.86 75.7444C142.077 76.8356 141.965 77.9666 141.54 78.9944C141.114 80.0222 140.393 80.9007 139.468 81.5188C138.543 82.1369 137.455 82.4668 136.343 82.4668H132.325C132.138 82.4668 132.045 82.4668 131.967 82.4581C131.65 82.4224 131.355 82.2803 131.13 82.0551C130.904 81.8297 130.762 81.5347 130.727 81.2181C130.718 81.1393 130.718 81.0468 130.718 80.8593V76.8418Z" fill="white"/>
<path opacity="0.5" d="M116.968 76.8418C116.968 75.3499 117.56 73.9192 118.615 72.8643C119.67 71.8094 121.101 71.2168 122.593 71.2168C124.085 71.2168 125.515 71.8094 126.57 72.8643C127.625 73.9192 128.218 75.3499 128.218 76.8418V80.5918C128.218 81.028 128.218 81.2455 128.17 81.4243C128.106 81.6629 127.981 81.8805 127.806 82.0552C127.632 82.2299 127.414 82.3554 127.175 82.4193C126.997 82.4668 126.78 82.4668 126.343 82.4668H122.593C121.101 82.4668 119.67 81.8742 118.615 80.8193C117.56 79.7644 116.968 78.3337 116.968 76.8418ZM130.718 86.8418C130.718 86.4055 130.718 86.188 130.765 86.0093C130.895 85.5243 131.275 85.1443 131.76 85.0143C131.939 84.9668 132.157 84.9668 132.593 84.9668H136.343C137.455 84.9668 138.543 85.2967 139.468 85.9148C140.393 86.5328 141.114 87.4114 141.54 88.4392C141.965 89.467 142.077 90.598 141.86 91.6892C141.643 92.7803 141.107 93.7825 140.32 94.5693C139.534 95.3559 138.531 95.8917 137.44 96.1087C136.349 96.3258 135.218 96.2143 134.19 95.7887C133.162 95.3629 132.284 94.6419 131.666 93.7169C131.048 92.7918 130.718 91.7043 130.718 90.5918V86.8418Z" fill="white"/>
</g>
</g>
</g>
<defs>
<linearGradient id="paint0_linear_2110_8824" x1="-3.08081e-05" y1="-17.4012" x2="269.17" y2="203" gradientUnits="userSpaceOnUse">
<stop stop-color="#1A2613"/>
<stop offset="0.489"/>
<stop offset="1" stop-color="#001D2B"/>
</linearGradient>
<linearGradient id="paint1_linear_2110_8824" x1="241.739" y1="168.454" x2="77.1893" y2="-9.93036" gradientUnits="userSpaceOnUse">
<stop stop-color="#14FF87" stop-opacity="0.76"/>
<stop offset="1" stop-color="#CAFE15"/>
</linearGradient>
<linearGradient id="paint2_linear_2110_8824" x1="209.866" y1="158.502" x2="201.208" y2="112.093" gradientUnits="userSpaceOnUse">
<stop stop-color="#14FF87" stop-opacity="0.76"/>
<stop offset="1" stop-color="#CAFE15"/>
</linearGradient>
<linearGradient id="paint3_linear_2110_8824" x1="156.379" y1="54" x2="98.9423" y2="119.287" gradientUnits="userSpaceOnUse">
<stop stop-color="#66BE53"/>
<stop offset="1" stop-color="#2F5826"/>
</linearGradient>
<linearGradient id="paint4_linear_2110_8824" x1="159" y1="112.537" x2="105.697" y2="49.3656" gradientUnits="userSpaceOnUse">
<stop stop-color="#14FF87"/>
<stop offset="1" stop-color="#CAFE15"/>
</linearGradient>
</defs>
</svg>
