<svg width="260" height="220" viewBox="0 0 260 220" fill="none" xmlns="http://www.w3.org/2000/svg">
<rect x="0.5" y="0.5" width="259" height="219" rx="19.5" fill="url(#paint0_linear_2110_8816)" stroke="url(#paint1_linear_2110_8816)"/>
<path d="M56.0069 158.16C54.9802 158.16 54.0869 158 53.3269 157.68C52.5802 157.36 52.0002 156.907 51.5869 156.32C51.1869 155.733 50.9869 155.047 50.9869 154.26V153.68C50.9869 153.547 51.0535 153.48 51.1869 153.48H52.6469C52.7802 153.48 52.8469 153.547 52.8469 153.68V154.16C52.8469 154.84 53.1402 155.4 53.7269 155.84C54.3135 156.28 55.1202 156.5 56.1469 156.5C57.0669 156.5 57.7602 156.307 58.2269 155.92C58.6935 155.533 58.9269 155.027 58.9269 154.4C58.9269 153.987 58.8069 153.633 58.5669 153.34C58.3269 153.047 57.9735 152.78 57.5069 152.54C57.0535 152.287 56.3869 151.987 55.5069 151.64C54.5335 151.267 53.7602 150.927 53.1869 150.62C52.6269 150.313 52.1602 149.913 51.7869 149.42C51.4135 148.913 51.2269 148.28 51.2269 147.52C51.2269 146.373 51.6335 145.473 52.4469 144.82C53.2735 144.167 54.3869 143.84 55.7869 143.84C56.7735 143.84 57.6402 144.007 58.3869 144.34C59.1335 144.673 59.7069 145.14 60.1069 145.74C60.5202 146.34 60.7269 147.033 60.7269 147.82V148.22C60.7269 148.353 60.6602 148.42 60.5269 148.42H59.0269C58.8935 148.42 58.8269 148.353 58.8269 148.22V147.92C58.8269 147.227 58.5469 146.653 57.9869 146.2C57.4402 145.733 56.6802 145.5 55.7069 145.5C54.8802 145.5 54.2402 145.673 53.7869 146.02C53.3335 146.353 53.1069 146.84 53.1069 147.48C53.1069 147.92 53.2202 148.28 53.4469 148.56C53.6735 148.84 54.0069 149.093 54.4469 149.32C54.9002 149.533 55.5869 149.813 56.5069 150.16C57.4535 150.533 58.2202 150.88 58.8069 151.2C59.3935 151.507 59.8802 151.92 60.2669 152.44C60.6535 152.947 60.8469 153.58 60.8469 154.34C60.8469 155.513 60.4135 156.447 59.5469 157.14C58.6935 157.82 57.5135 158.16 56.0069 158.16ZM67.3647 158.16C66.378 158.16 65.518 157.913 64.7847 157.42C64.0514 156.913 63.538 156.213 63.2447 155.32C63.0047 154.6 62.8847 153.787 62.8847 152.88C62.8847 151.933 62.998 151.133 63.2247 150.48C63.518 149.6 64.0314 148.913 64.7647 148.42C65.498 147.913 66.3714 147.66 67.3847 147.66C68.3447 147.66 69.178 147.913 69.8847 148.42C70.6047 148.913 71.118 149.593 71.4247 150.46C71.6647 151.14 71.7847 151.94 71.7847 152.86C71.7847 153.793 71.6647 154.613 71.4247 155.32C71.1314 156.213 70.6247 156.913 69.9047 157.42C69.1847 157.913 68.338 158.16 67.3647 158.16ZM67.3647 156.5C67.898 156.5 68.3647 156.353 68.7647 156.06C69.1647 155.753 69.4514 155.327 69.6247 154.78C69.7714 154.273 69.8447 153.647 69.8447 152.9C69.8447 152.153 69.778 151.533 69.6447 151.04C69.4714 150.493 69.1847 150.073 68.7847 149.78C68.3847 149.473 67.898 149.32 67.3247 149.32C66.778 149.32 66.3047 149.473 65.9047 149.78C65.5047 150.073 65.218 150.493 65.0447 151.04C64.898 151.507 64.8247 152.127 64.8247 152.9C64.8247 153.673 64.898 154.3 65.0447 154.78C65.2047 155.327 65.4847 155.753 65.8847 156.06C66.298 156.353 66.7914 156.5 67.3647 156.5ZM78.6027 145.68C77.936 145.68 77.4827 145.807 77.2427 146.06C77.0027 146.313 76.8827 146.793 76.8827 147.5V147.74C76.8827 147.793 76.9093 147.82 76.9627 147.82H79.0627C79.196 147.82 79.2627 147.887 79.2627 148.02V149.38C79.2627 149.513 79.196 149.58 79.0627 149.58H76.9627C76.9093 149.58 76.8827 149.607 76.8827 149.66V157.8C76.8827 157.933 76.816 158 76.6827 158H75.1627C75.0293 158 74.9627 157.933 74.9627 157.8V149.66C74.9627 149.607 74.936 149.58 74.8827 149.58H73.5427C73.4093 149.58 73.3427 149.513 73.3427 149.38V148.02C73.3427 147.887 73.4093 147.82 73.5427 147.82H74.8827C74.936 147.82 74.9627 147.793 74.9627 147.74V147.38C74.9627 146.5 75.0627 145.82 75.2627 145.34C75.476 144.86 75.8293 144.52 76.3227 144.32C76.816 144.107 77.5093 144 78.4027 144H79.0827C79.216 144 79.2827 144.067 79.2827 144.2V145.48C79.2827 145.613 79.216 145.68 79.0827 145.68H78.6027ZM86.4864 149.2C86.4864 149.333 86.4197 149.4 86.2864 149.4H84.1264C84.0731 149.4 84.0464 149.427 84.0464 149.48V154.78C84.0464 155.34 84.1731 155.747 84.4264 156C84.6797 156.24 85.0731 156.36 85.6064 156.36H86.1864C86.3197 156.36 86.3864 156.427 86.3864 156.56V157.8C86.3864 157.933 86.3197 158 86.1864 158C85.7597 158.027 85.4531 158.04 85.2664 158.04C84.2531 158.04 83.4864 157.86 82.9664 157.5C82.4597 157.127 82.2064 156.447 82.2064 155.46V149.48C82.2064 149.427 82.1797 149.4 82.1264 149.4H80.9064C80.7731 149.4 80.7064 149.333 80.7064 149.2V148.02C80.7064 147.887 80.7731 147.82 80.9064 147.82H82.1264C82.1797 147.82 82.2064 147.793 82.2064 147.74V145.38C82.2064 145.247 82.2731 145.18 82.4064 145.18H83.8464C83.9797 145.18 84.0464 145.247 84.0464 145.38V147.74C84.0464 147.793 84.0731 147.82 84.1264 147.82H86.2864C86.4197 147.82 86.4864 147.887 86.4864 148.02V149.2ZM91.1092 158C91.0026 158 90.9292 157.947 90.8892 157.84L88.0092 148.04L87.9892 147.98C87.9892 147.873 88.0559 147.82 88.1892 147.82H89.7492C89.8692 147.82 89.9426 147.88 89.9692 148L91.8692 155.26C91.8826 155.287 91.8959 155.3 91.9092 155.3C91.9359 155.3 91.9559 155.287 91.9692 155.26L93.9092 148C93.9359 147.88 94.0092 147.82 94.1292 147.82H95.5092C95.6292 147.82 95.7026 147.88 95.7292 148L97.7092 155.24C97.7226 155.267 97.7359 155.28 97.7492 155.28C97.7759 155.28 97.7959 155.267 97.8092 155.24L99.7892 148C99.8159 147.88 99.8892 147.82 100.009 147.82L101.549 147.84C101.616 147.84 101.663 147.86 101.689 147.9C101.729 147.94 101.743 147.993 101.729 148.06L98.8292 157.84C98.7892 157.947 98.7159 158 98.6092 158H97.0492C96.9426 158 96.8692 157.947 96.8292 157.84L94.8692 151.08C94.8559 151.053 94.8359 151.04 94.8092 151.04C94.7959 151.04 94.7826 151.053 94.7692 151.08L92.9092 157.82C92.8826 157.94 92.8092 158 92.6892 158H91.1092ZM107.1 147.66C107.914 147.66 108.62 147.807 109.22 148.1C109.834 148.38 110.3 148.78 110.62 149.3C110.954 149.807 111.12 150.387 111.12 151.04V157.8C111.12 157.933 111.054 158 110.92 158H109.4C109.267 158 109.2 157.933 109.2 157.8V157.08C109.2 157.013 109.167 157 109.1 157.04C108.754 157.4 108.327 157.68 107.82 157.88C107.327 158.067 106.774 158.16 106.16 158.16C105.174 158.16 104.354 157.913 103.7 157.42C103.06 156.913 102.74 156.153 102.74 155.14C102.74 154.1 103.1 153.287 103.82 152.7C104.554 152.1 105.574 151.8 106.88 151.8H109.12C109.174 151.8 109.2 151.773 109.2 151.72V151.18C109.2 150.593 109.027 150.14 108.68 149.82C108.347 149.487 107.834 149.32 107.14 149.32C106.58 149.32 106.12 149.433 105.76 149.66C105.414 149.873 105.2 150.167 105.12 150.54C105.08 150.673 105 150.733 104.88 150.72L103.26 150.5C103.127 150.473 103.067 150.42 103.08 150.34C103.187 149.553 103.607 148.913 104.34 148.42C105.074 147.913 105.994 147.66 107.1 147.66ZM106.58 156.54C107.287 156.54 107.9 156.353 108.42 155.98C108.94 155.607 109.2 155.133 109.2 154.56V153.38C109.2 153.327 109.174 153.3 109.12 153.3H107.24C106.454 153.3 105.827 153.453 105.36 153.76C104.894 154.067 104.66 154.493 104.66 155.04C104.66 155.533 104.834 155.907 105.18 156.16C105.54 156.413 106.007 156.54 106.58 156.54ZM118.173 147.72C118.599 147.72 118.986 147.807 119.333 147.98C119.426 148.02 119.459 148.1 119.433 148.22L119.113 149.72C119.099 149.84 119.019 149.88 118.873 149.84C118.646 149.747 118.379 149.7 118.073 149.7L117.793 149.72C117.166 149.747 116.646 149.967 116.233 150.38C115.833 150.78 115.633 151.307 115.633 151.96V157.8C115.633 157.933 115.566 158 115.433 158H113.913C113.779 158 113.713 157.933 113.713 157.8V148.02C113.713 147.887 113.779 147.82 113.913 147.82H115.433C115.566 147.82 115.633 147.887 115.633 148.02V149.08C115.633 149.12 115.639 149.147 115.653 149.16C115.679 149.16 115.699 149.147 115.713 149.12C116.313 148.187 117.133 147.72 118.173 147.72ZM129.218 151.64C129.271 152.187 129.291 152.8 129.278 153.48C129.278 153.613 129.211 153.68 129.078 153.68H122.698C122.645 153.68 122.618 153.707 122.618 153.76C122.618 154.213 122.658 154.56 122.738 154.8C122.885 155.333 123.178 155.753 123.618 156.06C124.071 156.353 124.638 156.5 125.318 156.5C126.305 156.5 127.065 156.093 127.598 155.28C127.665 155.147 127.751 155.127 127.858 155.22L128.998 155.98C129.091 156.06 129.111 156.147 129.058 156.24C128.685 156.84 128.151 157.313 127.458 157.66C126.778 158.007 126.005 158.18 125.138 158.18C124.165 158.18 123.345 157.967 122.678 157.54C122.011 157.113 121.511 156.507 121.178 155.72C120.858 154.933 120.698 153.98 120.698 152.86C120.698 151.887 120.771 151.147 120.918 150.64C121.158 149.72 121.638 148.993 122.358 148.46C123.078 147.927 123.951 147.66 124.978 147.66C126.325 147.66 127.331 148 127.998 148.68C128.665 149.347 129.071 150.333 129.218 151.64ZM124.978 149.32C124.405 149.32 123.931 149.467 123.558 149.76C123.185 150.04 122.931 150.42 122.798 150.9C122.705 151.193 122.645 151.567 122.618 152.02C122.618 152.073 122.645 152.1 122.698 152.1H127.278C127.331 152.1 127.358 152.073 127.358 152.02C127.331 151.58 127.291 151.253 127.238 151.04C127.105 150.52 126.838 150.107 126.438 149.8C126.051 149.48 125.565 149.32 124.978 149.32ZM140.445 158.18C139.485 158.18 138.631 157.993 137.885 157.62C137.151 157.233 136.578 156.693 136.165 156C135.765 155.293 135.565 154.487 135.565 153.58V148.4C135.565 147.493 135.765 146.7 136.165 146.02C136.578 145.327 137.151 144.793 137.885 144.42C138.631 144.033 139.485 143.84 140.445 143.84C141.405 143.84 142.251 144.027 142.985 144.4C143.718 144.76 144.285 145.273 144.685 145.94C145.098 146.607 145.305 147.38 145.305 148.26V148.28C145.305 148.347 145.285 148.4 145.245 148.44C145.205 148.48 145.158 148.5 145.105 148.5L143.585 148.58C143.451 148.58 143.385 148.52 143.385 148.4V148.34C143.385 147.487 143.118 146.8 142.585 146.28C142.051 145.76 141.338 145.5 140.445 145.5C139.551 145.5 138.831 145.76 138.285 146.28C137.751 146.8 137.485 147.487 137.485 148.34V153.66C137.485 154.513 137.751 155.2 138.285 155.72C138.831 156.24 139.551 156.5 140.445 156.5C141.338 156.5 142.051 156.24 142.585 155.72C143.118 155.2 143.385 154.513 143.385 153.66V153.62C143.385 153.5 143.451 153.44 143.585 153.44L145.105 153.52C145.238 153.52 145.305 153.587 145.305 153.72C145.305 154.6 145.098 155.38 144.685 156.06C144.285 156.727 143.718 157.247 142.985 157.62C142.251 157.993 141.405 158.18 140.445 158.18ZM152.313 147.72C152.74 147.72 153.126 147.807 153.473 147.98C153.566 148.02 153.6 148.1 153.573 148.22L153.253 149.72C153.24 149.84 153.16 149.88 153.013 149.84C152.786 149.747 152.52 149.7 152.213 149.7L151.933 149.72C151.306 149.747 150.786 149.967 150.373 150.38C149.973 150.78 149.773 151.307 149.773 151.96V157.8C149.773 157.933 149.706 158 149.573 158H148.053C147.92 158 147.853 157.933 147.853 157.8V148.02C147.853 147.887 147.92 147.82 148.053 147.82H149.573C149.706 147.82 149.773 147.887 149.773 148.02V149.08C149.773 149.12 149.78 149.147 149.793 149.16C149.82 149.16 149.84 149.147 149.853 149.12C150.453 148.187 151.273 147.72 152.313 147.72ZM163.359 151.64C163.412 152.187 163.432 152.8 163.419 153.48C163.419 153.613 163.352 153.68 163.219 153.68H156.839C156.785 153.68 156.759 153.707 156.759 153.76C156.759 154.213 156.799 154.56 156.879 154.8C157.025 155.333 157.319 155.753 157.759 156.06C158.212 156.353 158.779 156.5 159.459 156.5C160.445 156.5 161.205 156.093 161.739 155.28C161.805 155.147 161.892 155.127 161.999 155.22L163.139 155.98C163.232 156.06 163.252 156.147 163.199 156.24C162.825 156.84 162.292 157.313 161.599 157.66C160.919 158.007 160.145 158.18 159.279 158.18C158.305 158.18 157.485 157.967 156.819 157.54C156.152 157.113 155.652 156.507 155.319 155.72C154.999 154.933 154.839 153.98 154.839 152.86C154.839 151.887 154.912 151.147 155.059 150.64C155.299 149.72 155.779 148.993 156.499 148.46C157.219 147.927 158.092 147.66 159.119 147.66C160.465 147.66 161.472 148 162.139 148.68C162.805 149.347 163.212 150.333 163.359 151.64ZM159.119 149.32C158.545 149.32 158.072 149.467 157.699 149.76C157.325 150.04 157.072 150.42 156.939 150.9C156.845 151.193 156.785 151.567 156.759 152.02C156.759 152.073 156.785 152.1 156.839 152.1H161.419C161.472 152.1 161.499 152.073 161.499 152.02C161.472 151.58 161.432 151.253 161.379 151.04C161.245 150.52 160.979 150.107 160.579 149.8C160.192 149.48 159.705 149.32 159.119 149.32ZM169.464 147.66C170.277 147.66 170.984 147.807 171.584 148.1C172.197 148.38 172.664 148.78 172.984 149.3C173.317 149.807 173.484 150.387 173.484 151.04V157.8C173.484 157.933 173.417 158 173.284 158H171.764C171.63 158 171.564 157.933 171.564 157.8V157.08C171.564 157.013 171.53 157 171.464 157.04C171.117 157.4 170.69 157.68 170.184 157.88C169.69 158.067 169.137 158.16 168.524 158.16C167.537 158.16 166.717 157.913 166.064 157.42C165.424 156.913 165.104 156.153 165.104 155.14C165.104 154.1 165.464 153.287 166.184 152.7C166.917 152.1 167.937 151.8 169.244 151.8H171.484C171.537 151.8 171.564 151.773 171.564 151.72V151.18C171.564 150.593 171.39 150.14 171.044 149.82C170.71 149.487 170.197 149.32 169.504 149.32C168.944 149.32 168.484 149.433 168.124 149.66C167.777 149.873 167.564 150.167 167.484 150.54C167.444 150.673 167.364 150.733 167.244 150.72L165.624 150.5C165.49 150.473 165.43 150.42 165.444 150.34C165.55 149.553 165.97 148.913 166.704 148.42C167.437 147.913 168.357 147.66 169.464 147.66ZM168.944 156.54C169.65 156.54 170.264 156.353 170.784 155.98C171.304 155.607 171.564 155.133 171.564 154.56V153.38C171.564 153.327 171.537 153.3 171.484 153.3H169.604C168.817 153.3 168.19 153.453 167.724 153.76C167.257 154.067 167.024 154.493 167.024 155.04C167.024 155.533 167.197 155.907 167.544 156.16C167.904 156.413 168.37 156.54 168.944 156.54ZM180.959 149.2C180.959 149.333 180.892 149.4 180.759 149.4H178.599C178.546 149.4 178.519 149.427 178.519 149.48V154.78C178.519 155.34 178.646 155.747 178.899 156C179.152 156.24 179.546 156.36 180.079 156.36H180.659C180.792 156.36 180.859 156.427 180.859 156.56V157.8C180.859 157.933 180.792 158 180.659 158C180.232 158.027 179.926 158.04 179.739 158.04C178.726 158.04 177.959 157.86 177.439 157.5C176.932 157.127 176.679 156.447 176.679 155.46V149.48C176.679 149.427 176.652 149.4 176.599 149.4H175.379C175.246 149.4 175.179 149.333 175.179 149.2V148.02C175.179 147.887 175.246 147.82 175.379 147.82H176.599C176.652 147.82 176.679 147.793 176.679 147.74V145.38C176.679 145.247 176.746 145.18 176.879 145.18H178.319C178.452 145.18 178.519 145.247 178.519 145.38V147.74C178.519 147.793 178.546 147.82 178.599 147.82H180.759C180.892 147.82 180.959 147.887 180.959 148.02V149.2ZM184.482 146.22C184.109 146.22 183.802 146.1 183.562 145.86C183.322 145.62 183.202 145.313 183.202 144.94C183.202 144.567 183.322 144.26 183.562 144.02C183.802 143.78 184.109 143.66 184.482 143.66C184.855 143.66 185.162 143.78 185.402 144.02C185.642 144.26 185.762 144.567 185.762 144.94C185.762 145.313 185.642 145.62 185.402 145.86C185.162 146.1 184.855 146.22 184.482 146.22ZM183.682 157.98C183.549 157.98 183.482 157.913 183.482 157.78V148.02C183.482 147.887 183.549 147.82 183.682 147.82H185.202C185.335 147.82 185.402 147.887 185.402 148.02V157.78C185.402 157.913 185.335 157.98 185.202 157.98H183.682ZM192.58 158.16C191.593 158.16 190.733 157.913 190 157.42C189.266 156.913 188.753 156.213 188.46 155.32C188.22 154.6 188.1 153.787 188.1 152.88C188.1 151.933 188.213 151.133 188.44 150.48C188.733 149.6 189.246 148.913 189.98 148.42C190.713 147.913 191.586 147.66 192.6 147.66C193.56 147.66 194.393 147.913 195.1 148.42C195.82 148.913 196.333 149.593 196.64 150.46C196.88 151.14 197 151.94 197 152.86C197 153.793 196.88 154.613 196.64 155.32C196.346 156.213 195.84 156.913 195.12 157.42C194.4 157.913 193.553 158.16 192.58 158.16ZM192.58 156.5C193.113 156.5 193.58 156.353 193.98 156.06C194.38 155.753 194.666 155.327 194.84 154.78C194.986 154.273 195.06 153.647 195.06 152.9C195.06 152.153 194.993 151.533 194.86 151.04C194.686 150.493 194.4 150.073 194 149.78C193.6 149.473 193.113 149.32 192.54 149.32C191.993 149.32 191.52 149.473 191.12 149.78C190.72 150.073 190.433 150.493 190.26 151.04C190.113 151.507 190.04 152.127 190.04 152.9C190.04 153.673 190.113 154.3 190.26 154.78C190.42 155.327 190.7 155.753 191.1 156.06C191.513 156.353 192.006 156.5 192.58 156.5ZM204.053 147.68C205.147 147.68 206.013 148 206.653 148.64C207.293 149.267 207.613 150.12 207.613 151.2V157.8C207.613 157.933 207.547 158 207.413 158H205.893C205.76 158 205.693 157.933 205.693 157.8V151.58C205.693 150.913 205.5 150.373 205.113 149.96C204.727 149.547 204.213 149.34 203.573 149.34C202.947 149.34 202.433 149.547 202.033 149.96C201.633 150.373 201.433 150.907 201.433 151.56V157.8C201.433 157.933 201.367 158 201.233 158H199.713C199.58 158 199.513 157.933 199.513 157.8V148.02C199.513 147.887 199.58 147.82 199.713 147.82H201.233C201.367 147.82 201.433 147.887 201.433 148.02V148.74C201.433 148.767 201.44 148.787 201.453 148.8C201.48 148.813 201.5 148.807 201.513 148.78C202.087 148.047 202.933 147.68 204.053 147.68Z" fill="url(#paint2_linear_2110_8816)"/>
<g opacity="0.7">
<circle cx="129" cy="84" r="30.5455" fill="url(#paint3_linear_2110_8816)"/>
<circle cx="129" cy="84" r="30.5455" fill="black" fill-opacity="0.2"/>
<circle cx="129" cy="84" r="30.5455" stroke="url(#paint4_linear_2110_8816)" stroke-width="1.09091"/>
</g>
<path d="M139.5 73.1924H118.5C117.993 73.1924 117.508 73.3935 117.15 73.7515C116.792 74.1095 116.591 74.5952 116.591 75.1015V92.2833C116.591 92.7896 116.792 93.2753 117.15 93.6333C117.508 93.9913 117.993 94.1924 118.5 94.1924H139.5C140.006 94.1924 140.492 93.9913 140.85 93.6333C141.208 93.2753 141.409 92.7896 141.409 92.2833V75.1015C141.409 74.5952 141.208 74.1095 140.85 73.7515C140.492 73.3935 140.006 73.1924 139.5 73.1924ZM124.8 85.7924C125.002 85.9442 125.136 86.1704 125.172 86.421C125.208 86.6716 125.143 86.9263 124.991 87.1287C124.839 87.3312 124.613 87.4651 124.362 87.501C124.111 87.5368 123.857 87.4715 123.654 87.3197L119.836 84.456C119.718 84.3671 119.621 84.2517 119.555 84.1193C119.489 83.9868 119.454 83.8405 119.454 83.6924C119.454 83.5442 119.489 83.398 119.555 83.2655C119.621 83.1329 119.718 83.0177 119.836 82.9287L123.654 80.0651C123.857 79.9131 124.111 79.848 124.362 79.8837C124.613 79.9196 124.839 80.0535 124.991 80.256C125.143 80.4585 125.208 80.7131 125.172 80.9638C125.136 81.2144 125.002 81.4404 124.8 81.5924L122 83.6924L124.8 85.7924ZM131.827 77.273L128.008 90.6366C127.976 90.7593 127.919 90.8743 127.842 90.9748C127.764 91.0753 127.667 91.1593 127.557 91.222C127.447 91.2847 127.325 91.3247 127.199 91.3397C127.073 91.3548 126.945 91.3445 126.823 91.3097C126.701 91.2748 126.587 91.2159 126.488 91.1364C126.389 91.057 126.307 90.9586 126.247 90.8471C126.186 90.7355 126.148 90.6131 126.136 90.4868C126.123 90.3606 126.136 90.2331 126.173 90.1116L129.991 76.748C130.065 76.5091 130.229 76.3085 130.449 76.1893C130.668 76.07 130.926 76.0418 131.166 76.1106C131.407 76.1793 131.611 76.3396 131.734 76.557C131.857 76.7743 131.891 77.0314 131.827 77.273ZM138.164 84.456L134.345 87.3197C134.143 87.4715 133.888 87.5368 133.638 87.501C133.387 87.4651 133.161 87.3312 133.009 87.1287C132.857 86.9263 132.792 86.6716 132.828 86.421C132.863 86.1704 132.997 85.9442 133.2 85.7924L136 83.6924L133.2 81.5924C133.1 81.5172 133.015 81.423 132.951 81.3151C132.887 81.2073 132.845 81.0879 132.828 80.9638C132.81 80.8397 132.817 80.7133 132.848 80.5919C132.879 80.4705 132.934 80.3563 133.009 80.256C133.084 80.1557 133.178 80.0712 133.286 80.0073C133.394 79.9436 133.514 79.9016 133.638 79.8837C133.762 79.8661 133.888 79.8729 134.009 79.9041C134.131 79.9352 134.245 79.9899 134.345 80.0651L138.164 82.9287C138.282 83.0177 138.378 83.1329 138.445 83.2655C138.511 83.398 138.545 83.5442 138.545 83.6924C138.545 83.8405 138.511 83.9868 138.445 84.1193C138.378 84.2517 138.282 84.3671 138.164 84.456Z" fill="white"/>
<defs>
<linearGradient id="paint0_linear_2110_8816" x1="-3.08081e-05" y1="-17.4012" x2="269.17" y2="203" gradientUnits="userSpaceOnUse">
<stop stop-color="#1A2613"/>
<stop offset="0.489"/>
<stop offset="1" stop-color="#001D2B"/>
</linearGradient>
<linearGradient id="paint1_linear_2110_8816" x1="241.739" y1="168.454" x2="77.1893" y2="-9.93036" gradientUnits="userSpaceOnUse">
<stop stop-color="#14FF87" stop-opacity="0.76"/>
<stop offset="1" stop-color="#CAFE15"/>
</linearGradient>
<linearGradient id="paint2_linear_2110_8816" x1="197.833" y1="158.502" x2="187.78" y2="112.683" gradientUnits="userSpaceOnUse">
<stop stop-color="#14FF87" stop-opacity="0.76"/>
<stop offset="1" stop-color="#CAFE15"/>
</linearGradient>
<linearGradient id="paint3_linear_2110_8816" x1="156.379" y1="54" x2="98.9423" y2="119.287" gradientUnits="userSpaceOnUse">
<stop stop-color="#66BE53"/>
<stop offset="1" stop-color="#2F5826"/>
</linearGradient>
<linearGradient id="paint4_linear_2110_8816" x1="159" y1="112.537" x2="105.697" y2="49.3656" gradientUnits="userSpaceOnUse">
<stop stop-color="#14FF87"/>
<stop offset="1" stop-color="#CAFE15"/>
</linearGradient>
</defs>
</svg>
