<svg width="260" height="220" viewBox="0 0 260 220" fill="none" xmlns="http://www.w3.org/2000/svg">
<rect x="0.5" y="0.5" width="259" height="219" rx="19.5" fill="url(#paint0_linear_2110_8807)" stroke="url(#paint1_linear_2110_8807)"/>
<path d="M99.2348 150.7C99.1681 150.74 99.1681 150.78 99.2348 150.82C100.648 151.42 101.355 152.533 101.355 154.16C101.355 155.387 100.948 156.333 100.135 157C99.3214 157.667 98.2614 158 96.9548 158H91.9748C91.8414 158 91.7748 157.933 91.7748 157.8V144.2C91.7748 144.067 91.8414 144 91.9748 144H96.7948C98.1814 144 99.2548 144.32 100.015 144.96C100.788 145.587 101.175 146.507 101.175 147.72C101.175 149.16 100.528 150.153 99.2348 150.7ZM93.7748 145.66C93.7214 145.66 93.6948 145.687 93.6948 145.74V149.96C93.6948 150.013 93.7214 150.04 93.7748 150.04H96.7948C97.5681 150.04 98.1748 149.847 98.6148 149.46C99.0681 149.073 99.2948 148.547 99.2948 147.88C99.2948 147.2 99.0681 146.66 98.6148 146.26C98.1748 145.86 97.5681 145.66 96.7948 145.66H93.7748ZM96.9548 156.32C97.7148 156.32 98.3148 156.113 98.7548 155.7C99.2081 155.273 99.4348 154.7 99.4348 153.98C99.4348 153.26 99.2081 152.693 98.7548 152.28C98.3014 151.853 97.6814 151.64 96.8948 151.64H93.7748C93.7214 151.64 93.6948 151.667 93.6948 151.72V156.24C93.6948 156.293 93.7214 156.32 93.7748 156.32H96.9548ZM108.475 147.72C108.902 147.72 109.289 147.807 109.635 147.98C109.729 148.02 109.762 148.1 109.735 148.22L109.415 149.72C109.402 149.84 109.322 149.88 109.175 149.84C108.949 149.747 108.682 149.7 108.375 149.7L108.095 149.72C107.469 149.747 106.949 149.967 106.535 150.38C106.135 150.78 105.935 151.307 105.935 151.96V157.8C105.935 157.933 105.869 158 105.735 158H104.215C104.082 158 104.015 157.933 104.015 157.8V148.02C104.015 147.887 104.082 147.82 104.215 147.82H105.735C105.869 147.82 105.935 147.887 105.935 148.02V149.08C105.935 149.12 105.942 149.147 105.955 149.16C105.982 149.16 106.002 149.147 106.015 149.12C106.615 148.187 107.435 147.72 108.475 147.72ZM115.079 147.66C115.892 147.66 116.599 147.807 117.199 148.1C117.812 148.38 118.279 148.78 118.599 149.3C118.932 149.807 119.099 150.387 119.099 151.04V157.8C119.099 157.933 119.032 158 118.899 158H117.379C117.246 158 117.179 157.933 117.179 157.8V157.08C117.179 157.013 117.146 157 117.079 157.04C116.732 157.4 116.306 157.68 115.799 157.88C115.306 158.067 114.752 158.16 114.139 158.16C113.152 158.16 112.332 157.913 111.679 157.42C111.039 156.913 110.719 156.153 110.719 155.14C110.719 154.1 111.079 153.287 111.799 152.7C112.532 152.1 113.552 151.8 114.859 151.8H117.099C117.152 151.8 117.179 151.773 117.179 151.72V151.18C117.179 150.593 117.006 150.14 116.659 149.82C116.326 149.487 115.812 149.32 115.119 149.32C114.559 149.32 114.099 149.433 113.739 149.66C113.392 149.873 113.179 150.167 113.099 150.54C113.059 150.673 112.979 150.733 112.859 150.72L111.239 150.5C111.106 150.473 111.046 150.42 111.059 150.34C111.166 149.553 111.586 148.913 112.319 148.42C113.052 147.913 113.972 147.66 115.079 147.66ZM114.559 156.54C115.266 156.54 115.879 156.353 116.399 155.98C116.919 155.607 117.179 155.133 117.179 154.56V153.38C117.179 153.327 117.152 153.3 117.099 153.3H115.219C114.432 153.3 113.806 153.453 113.339 153.76C112.872 154.067 112.639 154.493 112.639 155.04C112.639 155.533 112.812 155.907 113.159 156.16C113.519 156.413 113.986 156.54 114.559 156.54ZM126.231 147.68C127.324 147.68 128.191 148 128.831 148.64C129.471 149.267 129.791 150.12 129.791 151.2V157.8C129.791 157.933 129.724 158 129.591 158H128.071C127.938 158 127.871 157.933 127.871 157.8V151.58C127.871 150.913 127.678 150.373 127.291 149.96C126.904 149.547 126.391 149.34 125.751 149.34C125.124 149.34 124.611 149.547 124.211 149.96C123.811 150.373 123.611 150.907 123.611 151.56V157.8C123.611 157.933 123.544 158 123.411 158H121.891C121.758 158 121.691 157.933 121.691 157.8V148.02C121.691 147.887 121.758 147.82 121.891 147.82H123.411C123.544 147.82 123.611 147.887 123.611 148.02V148.74C123.611 148.767 123.618 148.787 123.631 148.8C123.658 148.813 123.678 148.807 123.691 148.78C124.264 148.047 125.111 147.68 126.231 147.68ZM138.734 144.2C138.734 144.067 138.8 144 138.934 144H140.454C140.587 144 140.654 144.067 140.654 144.2V157.8C140.654 157.933 140.587 158 140.454 158H138.934C138.8 158 138.734 157.933 138.734 157.8V157.14C138.734 157.113 138.72 157.093 138.694 157.08C138.68 157.067 138.66 157.073 138.634 157.1C138.34 157.433 137.994 157.693 137.594 157.88C137.194 158.067 136.76 158.16 136.294 158.16C135.334 158.16 134.534 157.927 133.894 157.46C133.267 156.98 132.807 156.307 132.514 155.44C132.26 154.733 132.134 153.88 132.134 152.88C132.134 151.947 132.24 151.14 132.454 150.46C132.734 149.58 133.194 148.893 133.834 148.4C134.474 147.907 135.294 147.66 136.294 147.66C136.747 147.66 137.174 147.753 137.574 147.94C137.987 148.113 138.34 148.367 138.634 148.7C138.66 148.727 138.68 148.733 138.694 148.72C138.72 148.707 138.734 148.687 138.734 148.66V144.2ZM138.234 155.42C138.54 154.86 138.694 154.02 138.694 152.9C138.694 151.78 138.527 150.927 138.194 150.34C137.807 149.66 137.24 149.32 136.494 149.32C135.694 149.32 135.1 149.64 134.714 150.28C134.287 150.947 134.074 151.827 134.074 152.92C134.074 153.947 134.24 154.773 134.574 155.4C134.96 156.133 135.594 156.5 136.474 156.5C137.247 156.5 137.834 156.14 138.234 155.42ZM144.628 146.22C144.255 146.22 143.948 146.1 143.708 145.86C143.468 145.62 143.348 145.313 143.348 144.94C143.348 144.567 143.468 144.26 143.708 144.02C143.948 143.78 144.255 143.66 144.628 143.66C145.002 143.66 145.308 143.78 145.548 144.02C145.788 144.26 145.908 144.567 145.908 144.94C145.908 145.313 145.788 145.62 145.548 145.86C145.308 146.1 145.002 146.22 144.628 146.22ZM143.828 157.98C143.695 157.98 143.628 157.913 143.628 157.78V148.02C143.628 147.887 143.695 147.82 143.828 147.82H145.348C145.482 147.82 145.548 147.887 145.548 148.02V157.78C145.548 157.913 145.482 157.98 145.348 157.98H143.828ZM153.106 147.68C154.199 147.68 155.066 148 155.706 148.64C156.346 149.267 156.666 150.12 156.666 151.2V157.8C156.666 157.933 156.599 158 156.466 158H154.946C154.813 158 154.746 157.933 154.746 157.8V151.58C154.746 150.913 154.553 150.373 154.166 149.96C153.779 149.547 153.266 149.34 152.626 149.34C151.999 149.34 151.486 149.547 151.086 149.96C150.686 150.373 150.486 150.907 150.486 151.56V157.8C150.486 157.933 150.419 158 150.286 158H148.766C148.633 158 148.566 157.933 148.566 157.8V148.02C148.566 147.887 148.633 147.82 148.766 147.82H150.286C150.419 147.82 150.486 147.887 150.486 148.02V148.74C150.486 148.767 150.493 148.787 150.506 148.8C150.533 148.813 150.553 148.807 150.566 148.78C151.139 148.047 151.986 147.68 153.106 147.68ZM165.666 148.02C165.666 147.887 165.733 147.82 165.866 147.82H167.386C167.519 147.82 167.586 147.887 167.586 148.02V157.48C167.586 159.093 167.126 160.247 166.206 160.94C165.299 161.633 164.079 161.98 162.546 161.98C162.333 161.98 161.999 161.967 161.546 161.94C161.413 161.927 161.346 161.853 161.346 161.72L161.406 160.34C161.406 160.287 161.426 160.24 161.466 160.2C161.506 160.16 161.559 160.147 161.626 160.16C161.813 160.173 162.086 160.18 162.446 160.18C163.579 160.18 164.399 159.967 164.906 159.54C165.413 159.127 165.666 158.42 165.666 157.42V157.06C165.666 157.033 165.653 157.013 165.626 157C165.613 156.987 165.593 156.993 165.566 157.02C165.006 157.673 164.186 158 163.106 158C162.239 158 161.453 157.773 160.746 157.32C160.053 156.867 159.573 156.2 159.306 155.32C159.133 154.733 159.046 153.92 159.046 152.88C159.046 151.773 159.146 150.92 159.346 150.32C159.599 149.52 160.046 148.88 160.686 148.4C161.339 147.907 162.106 147.66 162.986 147.66C164.079 147.66 164.939 147.993 165.566 148.66C165.593 148.687 165.613 148.7 165.626 148.7C165.653 148.687 165.666 148.667 165.666 148.64V148.02ZM165.546 154.74C165.586 154.527 165.613 154.3 165.626 154.06C165.653 153.82 165.666 153.42 165.666 152.86C165.666 152.3 165.653 151.907 165.626 151.68C165.613 151.44 165.579 151.213 165.526 151C165.419 150.507 165.179 150.107 164.806 149.8C164.433 149.48 163.966 149.32 163.406 149.32C162.846 149.32 162.379 149.48 162.006 149.8C161.633 150.107 161.366 150.507 161.206 151C161.059 151.4 160.986 152.02 160.986 152.86C160.986 153.78 161.053 154.407 161.186 154.74C161.319 155.233 161.579 155.64 161.966 155.96C162.366 156.267 162.846 156.42 163.406 156.42C163.993 156.42 164.466 156.267 164.826 155.96C165.199 155.64 165.439 155.233 165.546 154.74Z" fill="url(#paint2_linear_2110_8807)"/>
<g opacity="0.7">
<circle cx="129" cy="84" r="30.5455" fill="url(#paint3_linear_2110_8807)"/>
<circle cx="129" cy="84" r="30.5455" fill="black" fill-opacity="0.2"/>
<circle cx="129" cy="84" r="30.5455" stroke="url(#paint4_linear_2110_8807)" stroke-width="1.09091"/>
</g>
<path d="M141.903 93.3853C141.903 93.6389 141.802 93.8823 141.622 94.0616C141.443 94.241 141.2 94.3418 140.946 94.3418H117.989C117.736 94.3418 117.492 94.241 117.313 94.0616C117.134 93.8823 117.033 93.6389 117.033 93.3853C117.033 93.1316 117.134 92.8883 117.313 92.709C117.492 92.5295 117.736 92.4288 117.989 92.4288H118.946V84.7766C118.946 84.5229 119.047 84.2796 119.226 84.1003C119.406 83.9208 119.649 83.8201 119.903 83.8201H122.772C123.026 83.8201 123.269 83.9208 123.448 84.1003C123.628 84.2796 123.729 84.5229 123.729 84.7766V92.4288H125.642V79.0374C125.642 78.7838 125.742 78.5404 125.922 78.3611C126.101 78.1817 126.345 78.0809 126.598 78.0809H130.424C130.678 78.0809 130.921 78.1817 131.101 78.3611C131.28 78.5404 131.381 78.7838 131.381 79.0374V92.4288H133.294V73.2983C133.294 73.0446 133.395 72.8013 133.574 72.622C133.753 72.4426 133.997 72.3418 134.25 72.3418H139.033C139.287 72.3418 139.53 72.4426 139.709 72.622C139.889 72.8013 139.989 73.0446 139.989 73.2983V92.4288H140.946C141.2 92.4288 141.443 92.5295 141.622 92.709C141.802 92.8883 141.903 93.1316 141.903 93.3853Z" fill="white"/>
<defs>
<linearGradient id="paint0_linear_2110_8807" x1="-3.08081e-05" y1="-17.4012" x2="269.17" y2="203" gradientUnits="userSpaceOnUse">
<stop stop-color="#1A2613"/>
<stop offset="0.489"/>
<stop offset="1" stop-color="#001D2B"/>
</linearGradient>
<linearGradient id="paint1_linear_2110_8807" x1="241.739" y1="168.454" x2="77.1893" y2="-9.93036" gradientUnits="userSpaceOnUse">
<stop stop-color="#14FF87" stop-opacity="0.76"/>
<stop offset="1" stop-color="#CAFE15"/>
</linearGradient>
<linearGradient id="paint2_linear_2110_8807" x1="163.451" y1="158.502" x2="145.705" y2="118.314" gradientUnits="userSpaceOnUse">
<stop stop-color="#14FF87" stop-opacity="0.76"/>
<stop offset="1" stop-color="#CAFE15"/>
</linearGradient>
<linearGradient id="paint3_linear_2110_8807" x1="156.379" y1="54" x2="98.9423" y2="119.287" gradientUnits="userSpaceOnUse">
<stop stop-color="#66BE53"/>
<stop offset="1" stop-color="#2F5826"/>
</linearGradient>
<linearGradient id="paint4_linear_2110_8807" x1="159" y1="112.537" x2="105.697" y2="49.3656" gradientUnits="userSpaceOnUse">
<stop stop-color="#14FF87"/>
<stop offset="1" stop-color="#CAFE15"/>
</linearGradient>
</defs>
</svg>
