<svg width="47" height="45" viewBox="0 0 47 45" fill="none" xmlns="http://www.w3.org/2000/svg">
<path d="M9.67168 8.90644L9.6718 8.90657L9.68146 8.89718L15.708 3.03504C16.7586 2.01309 18.1665 1.44132 19.6321 1.44132H40.0843C43.1925 1.44132 45.7122 3.96102 45.7122 7.06922V37.9296C45.7122 41.0378 43.1925 43.5575 40.0843 43.5575H6.78211C3.6739 43.5575 1.15421 41.0378 1.15421 37.9296V19.2307C1.15421 17.6597 1.8109 16.1601 2.96551 15.0947L9.67168 8.90644Z" fill="#66BE53" stroke="#66BE53" stroke-width="1.02326"/>
<path d="M0.195538 1.41684C0.195507 1.1413 0.432073 0.917341 0.723123 0.917371L9.34993 0.918235C9.81755 0.918282 10.0499 1.45315 9.71853 1.76676L1.09264 9.93053C0.761332 10.2441 0.196508 10.0241 0.196458 9.58147L0.195538 1.41684Z" fill="#66BE53"/>
<path fill-rule="evenodd" clip-rule="evenodd" d="M19.6631 21.0113L26.3328 14.6202L28 16.2177L22.1638 21.8101L28 27.4025L26.3328 29L19.6631 22.6089C19.442 22.397 19.3179 22.1097 19.3179 21.8101C19.3179 21.5105 19.442 21.2232 19.6631 21.0113Z" fill="white"/>
</svg>
