<svg width="1601" height="600" viewBox="0 0 1601 600" fill="none" xmlns="http://www.w3.org/2000/svg">
<g clip-path="url(#clip0_1459_6758)">
<rect x="2" y="1" width="1598" height="598" rx="39" fill="#1F1F1F" stroke="#343734" stroke-width="2"/>
<g filter="url(#filter0_f_1459_6758)">
<circle cx="110" cy="110" r="110" fill="url(#paint0_linear_1459_6758)" style="mix-blend-mode:color-dodge"/>
</g>
<path style="mix-blend-mode:screen" d="M-86.8772 -381.317C-179.618 -320.974 -205.878 -196.974 -145.532 -104.355C-85.1854 -11.7364 38.9161 14.4279 131.657 -45.9155C224.397 -106.259 250.658 -230.259 190.311 -322.878C129.965 -415.496 5.86333 -441.661 -86.8772 -381.317Z" fill="url(#paint1_linear_1459_6758)" fill-opacity="0.2"/>
<path style="mix-blend-mode:screen" opacity="0.5" d="M132.259 -44.992C225.117 -105.412 251.504 -230.012 191.082 -322.748C130.659 -415.484 5.95661 -441.775 -86.9011 -381.355C-179.759 -320.935 -206.146 -196.335 -145.724 -103.599C-85.3011 -10.8634 39.4012 15.4276 132.259 -44.992ZM-121.716 -74.9937C-93.4759 -48.5837 -56.1258 -33.366 -16.0572 -30.265C21.8436 -16.9278 62.1646 -15.7785 98.6989 -28.532C22.9412 2.67682 -65.0783 -15.8803 -121.706 -75.0001L-121.716 -74.9937ZM-108.546 -96.8437C-101.045 -98.1217 -92.5819 -100.221 -83.2195 -103.17C-79.5145 -98.8361 -75.7006 -94.6565 -71.7969 -90.661C-82.0557 -88.6362 -91.6022 -87.5357 -100.261 -87.39C-103.093 -90.4489 -105.856 -93.5948 -108.546 -96.8437ZM-101.662 -87.3723C-118.46 -87.293 -131.768 -90.9364 -140.125 -98.6118C-133.626 -95.1181 -123.332 -94.4706 -109.737 -96.655C-107.118 -93.4717 -104.419 -90.3817 -101.652 -87.3787L-101.662 -87.3723ZM-82.1563 -103.513C-80.2681 -104.113 -78.3569 -104.742 -76.4029 -105.413C-70.7074 -107.36 -64.824 -109.554 -58.782 -111.977C-54.4548 -106.902 -50.0246 -102.035 -45.5042 -97.393C-54.2204 -94.6962 -62.6059 -92.5218 -70.5692 -90.9013C-74.5245 -94.933 -78.3934 -99.1327 -82.1465 -103.519L-82.1563 -103.513ZM-142.178 -151.724C-138.542 -159.578 -133.673 -167.858 -127.67 -176.414C-125.586 -171.22 -123.311 -166.054 -120.843 -160.914C-127.33 -153.551 -132.674 -146.667 -136.879 -140.328C-138.763 -144.101 -140.531 -147.909 -142.178 -151.724ZM-137.543 -139.309C-145.032 -127.775 -148.597 -118.096 -148.046 -110.747C-151.679 -121.495 -149.629 -135.132 -142.771 -150.445C-141.139 -146.717 -139.413 -142.994 -137.553 -139.303L-137.543 -139.309ZM-126.953 -177.439C-122.249 -184.061 -116.867 -190.845 -110.873 -197.719C-108.454 -191.71 -105.791 -185.692 -102.898 -179.685C-107.559 -175.144 -111.948 -170.654 -116.033 -166.237C-117.437 -164.722 -118.786 -163.23 -120.099 -161.747C-122.579 -166.949 -124.874 -172.187 -126.963 -177.433L-126.953 -177.439ZM-93.7005 -344.211C-92.4256 -336.718 -90.3296 -328.264 -87.3825 -318.912C-91.723 -315.208 -95.9087 -311.396 -99.9102 -307.493C-101.931 -317.741 -103.027 -327.278 -103.168 -335.929C-100.104 -338.76 -96.954 -341.522 -93.6906 -344.218L-93.7005 -344.211ZM-103.185 -337.328C-103.254 -354.11 -99.5999 -367.409 -91.9125 -375.762C-95.4034 -369.273 -96.0673 -358.982 -93.8887 -345.402C-97.0764 -342.783 -100.171 -340.085 -103.178 -337.318L-103.185 -337.328ZM-87.0401 -317.85C-86.4405 -315.964 -85.8119 -314.055 -85.1414 -312.104C-83.1966 -306.415 -81.0036 -300.538 -78.5817 -294.503C-83.6635 -290.177 -88.5385 -285.748 -93.187 -281.229C-95.8814 -289.936 -98.053 -298.312 -99.6704 -306.267C-95.6326 -310.221 -91.4169 -314.095 -87.0337 -317.841L-87.0401 -317.85ZM-38.7488 -377.844C-30.8895 -374.216 -22.6052 -369.356 -14.0443 -363.364C-19.2442 -361.279 -24.4169 -359.002 -29.5625 -356.534C-36.9286 -363.011 -43.8168 -368.346 -50.1587 -372.543C-46.3811 -374.428 -42.5692 -376.196 -38.7488 -377.844ZM-51.1782 -373.206C-62.7186 -380.681 -72.405 -384.238 -79.7618 -383.682C-69.0009 -387.318 -55.3526 -385.278 -40.029 -378.435C-43.7615 -376.803 -47.4886 -375.076 -51.1846 -373.216L-51.1782 -373.206ZM-13.019 -362.648C-6.39339 -357.952 0.393613 -352.579 7.27128 -346.594C1.25532 -344.174 -4.76987 -341.511 -10.7846 -338.616C-15.3277 -343.271 -19.8185 -347.653 -24.2379 -351.732C-25.7529 -353.134 -27.2457 -354.481 -28.7291 -355.792C-23.5216 -358.272 -18.2772 -360.567 -13.0253 -362.658L-13.019 -362.648ZM153.891 -329.523C146.39 -328.245 137.927 -326.146 128.565 -323.196C124.86 -327.53 121.046 -331.71 117.142 -335.706C127.401 -337.73 136.947 -338.831 145.606 -338.977C148.438 -335.918 151.201 -332.772 153.891 -329.523ZM147.007 -338.994C163.805 -339.074 177.113 -335.43 185.47 -327.755C178.971 -331.248 168.677 -331.896 155.082 -329.712C152.463 -332.895 149.764 -335.985 146.997 -338.988L147.007 -338.994ZM127.501 -322.854C125.613 -322.253 123.702 -321.624 121.748 -320.953C116.052 -319.007 110.169 -316.813 104.127 -314.39C99.7999 -319.464 95.3697 -324.332 90.8493 -328.974C99.5655 -331.67 107.951 -333.845 115.914 -335.465C119.87 -331.434 123.738 -327.234 127.492 -322.847L127.501 -322.854ZM187.533 -274.649C183.897 -266.795 179.028 -258.515 173.025 -249.959C170.941 -255.153 168.666 -260.319 166.198 -265.459C172.685 -272.822 178.029 -279.706 182.233 -286.045C184.118 -282.272 185.886 -278.464 187.533 -274.649ZM182.898 -287.064C190.387 -298.598 193.952 -308.277 193.4 -315.626C197.034 -304.878 194.978 -291.251 188.126 -275.928C186.494 -279.656 184.768 -283.379 182.908 -287.07L182.898 -287.064ZM172.308 -248.934C167.604 -242.312 162.228 -235.518 156.228 -228.654C153.809 -234.662 151.146 -240.68 148.253 -246.688C152.914 -251.229 157.303 -255.719 161.388 -260.136C162.792 -261.651 164.141 -263.143 165.454 -264.626C167.934 -259.424 170.229 -254.186 172.318 -248.94L172.308 -248.934ZM139.055 -82.1616C137.781 -89.6551 135.685 -98.1086 132.737 -107.461C137.078 -111.165 141.264 -114.977 145.265 -118.88C147.286 -108.632 148.382 -99.0947 148.523 -90.4444C145.459 -87.6132 142.309 -84.8512 139.055 -82.1616ZM148.54 -89.0449C148.609 -72.2627 144.955 -58.9644 137.267 -50.6109C140.768 -57.1061 141.422 -67.3908 139.244 -80.9714C142.431 -83.5902 145.526 -86.2879 148.533 -89.0548L148.54 -89.0449ZM132.389 -108.532C131.789 -110.418 131.16 -112.327 130.49 -114.279C128.545 -119.968 126.352 -125.845 123.93 -131.88C129.012 -136.206 133.887 -140.635 138.536 -145.154C141.23 -136.447 143.402 -128.071 145.019 -120.116C140.981 -116.162 136.775 -112.294 132.382 -108.542L132.389 -108.532ZM84.1037 -48.5289C76.2444 -52.1571 67.9601 -57.0169 59.3992 -63.0094C64.5991 -65.0941 69.7718 -67.3705 74.9174 -69.8388C82.2835 -63.3622 89.1716 -58.0269 95.5136 -53.8303C91.736 -51.945 87.9241 -50.1769 84.0939 -48.5226L84.1037 -48.5289ZM96.5331 -53.167C108.074 -45.6919 117.76 -42.1354 125.117 -42.6909C114.356 -39.0546 100.707 -41.0945 85.3839 -47.9375C89.1262 -49.5765 92.8434 -51.297 96.5394 -53.1572L96.5331 -53.167ZM58.3738 -63.7247C51.7482 -68.4209 44.9612 -73.7942 38.0836 -79.7787C44.0995 -82.1989 50.1247 -84.8624 56.1395 -87.7566C60.6825 -83.1018 65.1734 -78.7203 69.5928 -74.6415C71.1078 -73.2392 72.6006 -71.8924 74.084 -70.5814C68.8667 -68.0943 63.6321 -65.8055 58.3802 -63.7149L58.3738 -63.7247ZM35.9851 -191.807C29.062 -187.302 22.1791 -182.908 15.3723 -178.632C10.8809 -185.29 6.36821 -192.087 1.86335 -199.001L22.5344 -212.451L35.9851 -191.807ZM36.5538 -190.934L49.5955 -170.918C42.8295 -166.516 36.0915 -162.285 29.4074 -158.229C24.9612 -164.581 20.4748 -171.102 15.9607 -177.772C22.738 -182.029 29.6047 -186.427 36.5474 -190.944L36.5538 -190.934ZM50.1642 -170.045L63.2059 -150.029C56.7542 -145.831 50.2788 -141.841 43.8348 -138.039C39.2865 -144.269 34.6758 -150.723 30.0055 -157.375C36.7029 -161.454 43.4311 -165.678 50.1578 -170.055L50.1642 -170.045ZM63.7746 -149.156L76.8164 -129.14C70.8164 -125.236 64.7701 -121.553 58.7227 -118.065C54.069 -124.156 49.308 -130.54 44.4653 -137.179C50.9192 -140.987 57.3622 -144.984 63.781 -149.146L63.7746 -149.156ZM64.6486 -149.725C71.0611 -153.897 77.3187 -158.178 83.4148 -162.536C87.5307 -155.425 91.4438 -148.475 95.145 -141.764C89.5066 -137.648 83.6904 -133.613 77.6904 -129.709L64.6486 -149.725ZM64.0799 -150.598L51.0382 -170.614C57.7551 -174.984 64.3525 -179.431 70.7943 -183.901C74.9868 -176.952 79.0343 -170.117 82.8952 -163.441C76.8089 -159.09 70.5316 -154.796 64.0863 -150.588L64.0799 -150.598ZM50.4695 -171.487L37.4278 -191.503C44.3803 -196.027 51.1767 -200.533 57.81 -204.988C62.0884 -198.165 66.241 -191.426 70.255 -184.793C63.8329 -180.336 57.2355 -175.889 50.4759 -171.477L50.4695 -171.487ZM36.8591 -192.376L23.4084 -213.02L44.0794 -226.47C48.5843 -219.556 52.9791 -212.682 57.2545 -205.884C50.5883 -201.393 43.7821 -196.88 36.8591 -192.376ZM44.9534 -227.038L64.9959 -240.079C69.3986 -233.322 73.6293 -226.593 77.6851 -219.918C71.3249 -215.472 64.8016 -210.976 58.1157 -206.472C53.8595 -213.241 49.4612 -220.098 44.9436 -227.032L44.9534 -227.038ZM65.8699 -240.648L85.9125 -253.689C90.1107 -247.246 94.1006 -240.779 97.9023 -234.343C91.6644 -229.796 85.2016 -225.185 78.5399 -220.516C74.4615 -227.204 70.2308 -233.934 65.8601 -240.642L65.8699 -240.648ZM86.7865 -254.258L106.829 -267.299C110.733 -261.307 114.416 -255.268 117.904 -249.229C111.804 -244.576 105.411 -239.816 98.7542 -234.967C94.946 -241.413 90.9492 -247.847 86.7865 -254.258ZM86.2178 -255.131C82.0452 -261.535 77.7636 -267.784 73.4055 -273.872C80.5258 -277.988 87.4845 -281.901 94.1938 -285.597C98.3101 -279.966 102.346 -274.157 106.251 -268.165L86.208 -255.124L86.2178 -255.131ZM85.3438 -254.562L65.3012 -241.521C60.9306 -248.229 56.4902 -254.808 52.0126 -261.251C58.9712 -265.443 65.8144 -269.491 72.4996 -273.352C76.8513 -267.274 81.1457 -261.005 85.3536 -254.568L85.3438 -254.562ZM64.4272 -240.952L44.3847 -227.911C39.8606 -234.855 35.3544 -241.642 30.8983 -248.267C37.7311 -252.545 44.478 -256.697 51.1194 -260.712C55.5779 -254.298 60.0246 -247.709 64.4371 -240.959L64.4272 -240.952ZM43.5107 -227.343L22.8397 -213.893L9.38899 -234.536C16.3121 -239.041 23.1949 -243.436 30.0017 -247.711C34.4932 -241.054 39.0058 -234.257 43.5107 -227.343ZM8.82029 -235.409L-4.22145 -255.425C2.54451 -259.828 9.28255 -264.058 15.9667 -268.114C20.4128 -261.763 24.9091 -255.248 29.4134 -248.571C22.636 -244.315 15.7694 -239.917 8.82668 -235.399L8.82029 -235.409ZM-4.79014 -256.298L-17.8319 -276.315C-11.3802 -280.512 -4.90478 -284.502 1.53928 -288.304C6.08752 -282.075 10.6982 -275.621 15.3685 -268.968C8.67113 -264.89 1.9331 -260.659 -4.78376 -256.289L-4.79014 -256.298ZM-18.4006 -277.187L-31.4423 -297.204C-25.4423 -301.108 -19.3961 -304.79 -13.3487 -308.278C-8.69493 -302.187 -3.93394 -295.803 0.915092 -289.155C-5.53879 -285.347 -11.9817 -281.35 -18.4006 -277.187ZM-19.2746 -276.619C-25.687 -272.446 -31.9447 -268.165 -38.0407 -263.808C-42.1567 -270.919 -46.0697 -277.869 -49.7646 -284.57C-44.1262 -288.685 -38.3099 -292.721 -32.3099 -296.625L-19.2682 -276.609L-19.2746 -276.619ZM-18.7059 -275.746L-5.66413 -255.73C-12.381 -251.359 -18.9687 -246.919 -25.4202 -242.442C-29.6127 -249.392 -33.6603 -256.226 -37.5211 -262.903C-31.4349 -267.254 -25.1576 -271.548 -18.7123 -275.756L-18.7059 -275.746ZM-5.09544 -254.857L7.9463 -234.841C0.993758 -230.317 -5.80259 -225.811 -12.4359 -221.355C-16.7143 -228.179 -20.8669 -234.917 -24.881 -241.55C-18.4589 -246.008 -11.8614 -250.454 -5.10184 -254.867L-5.09544 -254.857ZM8.515 -233.968L21.9657 -213.324L1.29465 -199.874C-3.21021 -206.788 -7.60505 -213.662 -11.8805 -220.46C-5.21427 -224.951 1.59192 -229.463 8.515 -233.968ZM0.420662 -199.305L-19.6219 -186.264C-24.0245 -193.021 -28.2552 -199.75 -32.3111 -206.426C-25.9508 -210.872 -19.4275 -215.367 -12.7417 -219.871C-8.4854 -213.103 -4.08715 -206.245 0.430492 -199.312L0.420662 -199.305ZM-20.4959 -185.695L-40.5384 -172.654C-44.7366 -179.098 -48.7265 -185.565 -52.5283 -192C-46.2904 -196.548 -39.8276 -201.158 -33.1659 -205.828C-29.0875 -199.139 -24.8631 -192.42 -20.4861 -185.702L-20.4959 -185.695ZM-41.4124 -172.086L-61.455 -159.045C-65.3592 -165.037 -69.0419 -171.075 -72.5297 -177.115C-66.4303 -181.768 -60.0373 -186.528 -53.3899 -191.37C-49.5818 -184.924 -45.585 -178.49 -41.4222 -172.079L-41.4124 -172.086ZM-40.8437 -171.213C-36.6711 -164.809 -32.3896 -158.56 -28.0315 -152.472C-35.1517 -148.355 -42.1105 -144.442 -48.8296 -140.74C-52.9458 -146.371 -56.9821 -152.18 -60.8863 -158.172L-40.8437 -171.213ZM-39.9697 -171.782L-19.9272 -184.823C-15.5565 -178.115 -11.1098 -171.526 -6.63853 -165.093C-13.5971 -160.9 -20.4404 -156.852 -27.1256 -152.991C-31.4773 -159.069 -35.7716 -165.338 -39.9796 -171.775L-39.9697 -171.782ZM-19.0532 -185.391L0.989361 -198.432C5.51339 -191.489 10.0197 -184.702 14.4758 -178.077C7.64294 -173.799 0.895998 -169.646 -5.7454 -165.632C-10.2038 -172.045 -14.6506 -178.634 -19.063 -185.385L-19.0532 -185.391ZM15.0769 -177.197C19.5939 -170.501 24.074 -163.99 28.4912 -157.661C21.7418 -153.577 15.0625 -149.663 8.45679 -145.938C3.92631 -152.011 -0.595425 -158.286 -5.11185 -164.745C1.4937 -168.75 8.24061 -172.903 15.0769 -177.197ZM29.0957 -156.797C33.7625 -150.129 38.3634 -143.668 42.8729 -137.455C36.3473 -133.628 29.8565 -130.005 23.4005 -126.587C18.6441 -132.513 13.8709 -138.68 9.08736 -145.077C15.7127 -148.816 22.392 -152.729 29.0859 -156.791L29.0957 -156.797ZM43.4971 -136.605C48.3427 -129.94 53.0874 -123.559 57.7186 -117.482C51.5735 -113.972 45.4308 -110.673 39.2904 -107.586C34.2753 -113.33 29.1923 -119.393 24.0767 -125.742C30.5426 -129.167 37.0172 -132.793 43.4873 -136.598L43.4971 -136.605ZM58.3462 -116.647C63.4354 -109.974 68.3663 -103.672 73.1295 -97.7781C67.5638 -94.6454 61.968 -91.7306 56.3614 -89.0042C51.009 -94.5149 45.5444 -100.455 39.9931 -106.786C46.1041 -109.855 52.237 -113.147 58.3462 -116.647ZM59.3666 -117.227C65.3943 -120.702 71.4047 -124.376 77.3915 -128.257L90.4332 -108.241C85.0519 -104.74 79.6242 -101.459 74.1597 -98.3646C69.3901 -104.268 64.443 -110.574 59.3567 -117.221L59.3666 -117.227ZM78.2655 -128.826C84.2458 -132.717 90.0424 -136.74 95.6612 -140.843C99.6933 -133.496 103.456 -126.434 106.929 -119.687C101.886 -115.945 96.6821 -112.321 91.3072 -108.81L78.2655 -128.826ZM96.6048 -141.541C102.289 -145.714 107.773 -149.981 113.054 -154.324C116.602 -146.69 119.827 -139.293 122.705 -132.172C117.948 -128.141 113.011 -124.216 107.892 -120.397C104.422 -127.118 100.653 -134.19 96.6048 -141.541ZM96.095 -142.452C92.3968 -149.137 88.4867 -156.061 84.3482 -163.185C90.4476 -167.559 96.3791 -172.019 102.136 -176.532C105.876 -169.289 109.369 -162.191 112.596 -155.284C107.297 -150.928 101.789 -146.632 96.0852 -142.446L96.095 -142.452ZM83.8123 -164.093C79.9446 -170.738 75.8937 -177.556 71.6786 -184.519C78.1139 -188.999 84.3872 -193.514 90.4886 -198.057C94.408 -191.097 98.127 -184.23 101.62 -177.496C95.8796 -172.978 89.9383 -168.512 83.7961 -164.097L83.8123 -164.093ZM71.1393 -185.411C67.1346 -192.008 62.982 -198.746 58.6874 -205.573C65.3929 -210.09 71.9127 -214.57 78.2499 -218.986C82.3343 -212.246 86.2472 -205.575 89.9724 -198.978C83.8907 -194.448 77.6076 -189.927 71.1393 -185.411ZM79.1047 -219.584C85.7826 -224.251 92.2518 -228.851 98.473 -233.36C102.3 -226.843 105.922 -220.36 109.341 -213.912C103.406 -209.157 97.2305 -204.384 90.8242 -199.602C87.0862 -206.219 83.1733 -212.889 79.1111 -219.575L79.1047 -219.584ZM99.3249 -233.984C105.998 -238.829 112.388 -243.573 118.474 -248.203C121.983 -242.066 125.282 -235.931 128.369 -229.798C122.616 -224.784 116.545 -219.703 110.187 -214.588C106.762 -221.046 103.136 -227.512 99.3313 -233.974L99.3249 -233.984ZM119.31 -248.831C125.992 -253.919 132.303 -258.849 138.205 -263.611C141.337 -258.052 144.252 -252.464 146.977 -246.864C141.468 -241.52 135.509 -236.05 129.169 -230.501C126.101 -236.604 122.81 -242.729 119.31 -248.831ZM118.73 -249.85C115.255 -255.87 111.581 -261.872 107.693 -267.861L127.736 -280.902C131.237 -275.528 134.518 -270.107 137.612 -264.65C131.7 -259.881 125.386 -254.935 118.73 -249.85ZM107.131 -268.724C103.239 -274.697 99.216 -280.486 95.1189 -286.087C102.475 -290.119 109.546 -293.882 116.302 -297.356C120.045 -292.32 123.668 -287.123 127.18 -281.755L107.137 -268.714L107.131 -268.724ZM94.4147 -287.039C90.2405 -292.716 85.973 -298.192 81.6286 -303.465C89.2722 -307.014 96.6782 -310.241 103.807 -313.12C107.839 -308.37 111.765 -303.44 115.585 -298.328C108.855 -294.857 101.775 -291.088 94.4147 -287.039ZM93.5023 -286.529C86.8092 -282.831 79.8829 -278.91 72.743 -274.781C68.3687 -280.873 63.9017 -286.806 59.3935 -292.545C66.646 -296.286 73.7528 -299.779 80.6681 -303.008C85.0253 -297.715 89.3217 -292.216 93.5087 -286.519L93.5023 -286.529ZM71.8337 -274.246C65.1809 -270.378 58.3538 -266.327 51.3918 -262.118C46.9108 -268.544 42.3954 -274.809 37.8458 -280.912C44.8143 -284.832 51.6897 -288.551 58.4325 -292.045C62.9505 -286.313 67.4176 -280.379 71.8337 -274.246ZM50.4889 -261.572C43.8833 -257.567 37.1364 -253.415 30.3001 -249.12C25.7831 -255.817 21.303 -262.328 16.8858 -268.657C23.6353 -272.741 30.3145 -276.654 36.9202 -280.38C41.4507 -274.306 45.9788 -268.022 50.4889 -261.572ZM16.2877 -269.51C11.6209 -276.179 7.01996 -282.64 2.51053 -288.852C9.03611 -292.68 15.5269 -296.302 21.9829 -299.721C26.7393 -293.795 31.5125 -287.628 36.296 -281.23C29.6707 -277.492 22.9914 -273.579 16.2975 -269.517L16.2877 -269.51ZM1.88634 -289.703C-2.95926 -296.368 -7.70403 -302.748 -12.3352 -308.826C-6.19011 -312.336 -0.047363 -315.634 6.09302 -318.722C11.1081 -312.978 16.1911 -306.915 21.3067 -300.566C14.8408 -297.141 8.36623 -293.514 1.89614 -289.71L1.88634 -289.703ZM-12.9628 -309.661C-18.052 -316.334 -22.9829 -322.636 -27.7461 -328.53C-22.1804 -331.662 -16.5846 -334.577 -10.978 -337.304C-5.62557 -331.793 -0.160974 -325.852 5.39025 -319.522C-0.720672 -316.453 -6.85359 -313.161 -12.9628 -309.661ZM-13.9832 -309.08C-20.0109 -305.605 -26.0213 -301.932 -32.0179 -298.044L-45.0596 -318.06C-39.6783 -321.562 -34.2506 -324.842 -28.7861 -327.937C-24.0165 -322.033 -19.0694 -315.728 -13.9832 -309.08ZM-32.8821 -297.482C-38.8624 -293.591 -44.659 -289.567 -50.268 -285.471C-54.3001 -292.818 -58.0624 -299.88 -61.5357 -306.628C-56.4929 -310.37 -51.2889 -313.993 -45.914 -317.504L-32.8722 -297.488L-32.8821 -297.482ZM-51.2214 -284.767C-56.906 -280.593 -62.3901 -276.327 -67.6703 -271.983C-71.2183 -279.618 -74.4439 -287.015 -77.3217 -294.136C-72.5649 -298.166 -67.6272 -302.091 -62.5088 -305.911C-59.0384 -299.189 -55.2697 -292.118 -51.2214 -284.767ZM-50.7116 -283.856C-47.0134 -277.171 -43.0935 -270.253 -38.9648 -263.123C-45.0642 -258.749 -50.9957 -254.289 -56.7523 -249.775C-60.493 -257.019 -63.9852 -264.117 -67.2131 -271.024C-61.9132 -275.38 -56.406 -279.676 -50.7018 -283.862L-50.7116 -283.856ZM-38.4289 -262.214C-34.5612 -255.57 -30.5103 -248.752 -26.3015 -241.799C-32.7369 -237.318 -39.0102 -232.803 -45.1116 -228.261C-49.031 -235.221 -52.75 -242.087 -56.243 -248.822C-50.5026 -253.339 -44.5613 -257.805 -38.4191 -262.221L-38.4289 -262.214ZM-25.7559 -240.897C-21.7512 -234.3 -17.5986 -227.562 -13.304 -220.734C-20.0095 -216.218 -26.5293 -211.738 -32.8665 -207.321C-36.9509 -214.062 -40.8638 -220.733 -44.589 -227.33C-38.5073 -231.86 -32.2242 -236.381 -25.7559 -240.897ZM-33.7213 -206.723C-40.3992 -202.057 -46.8684 -197.457 -53.0995 -192.941C-56.9263 -199.459 -60.5489 -205.941 -63.9671 -212.389C-58.0323 -217.145 -51.8569 -221.917 -45.4507 -226.7C-41.7126 -220.083 -37.7997 -213.412 -33.7311 -206.717L-33.7213 -206.723ZM-53.9415 -192.324C-60.6149 -187.479 -67.0045 -182.735 -73.0906 -178.105C-76.6 -184.242 -79.8981 -190.377 -82.9851 -196.51C-77.2327 -201.523 -71.1611 -206.605 -64.8032 -211.72C-61.3786 -205.262 -57.7526 -198.795 -53.9479 -192.334L-53.9415 -192.324ZM-73.9262 -177.477C-80.6088 -172.389 -86.9192 -167.459 -92.8215 -162.697C-95.9539 -168.255 -98.8683 -173.844 -101.594 -179.444C-96.0751 -184.795 -90.126 -190.258 -83.7859 -195.807C-80.7181 -189.704 -77.4263 -183.578 -73.9262 -177.477ZM-73.3462 -176.458C-69.8712 -170.438 -66.1978 -164.435 -62.3162 -158.456L-82.3587 -145.415C-85.8604 -150.79 -89.1405 -156.21 -92.2351 -161.668C-86.3229 -166.436 -80.0091 -171.382 -73.3525 -176.468L-73.3462 -176.458ZM-61.7475 -157.584C-57.8561 -151.611 -53.8326 -145.822 -49.7292 -140.211C-57.0857 -136.178 -64.1564 -132.416 -70.9121 -128.942C-74.6547 -133.978 -78.2786 -139.175 -81.79 -144.542L-61.7475 -157.584ZM-49.0313 -139.269C-44.8571 -133.592 -40.5896 -128.115 -36.2452 -122.843C-43.8888 -119.294 -51.2948 -116.067 -58.424 -113.187C-62.4558 -117.937 -66.3816 -122.868 -70.2014 -127.98C-63.4718 -131.451 -56.3912 -135.22 -49.0313 -139.269ZM-48.1189 -139.778C-41.4258 -143.477 -34.4995 -147.397 -27.3596 -151.526C-22.9853 -145.435 -18.5247 -139.512 -14.0101 -133.763C-21.2626 -130.022 -28.3694 -126.529 -35.2847 -123.3C-39.6419 -128.592 -43.9383 -134.092 -48.1253 -139.788L-48.1189 -139.778ZM-26.4503 -152.062C-19.7975 -155.93 -12.9704 -159.981 -5.99859 -164.196C-1.51755 -157.77 2.99779 -151.505 7.54105 -145.412C0.572489 -141.492 -6.30285 -137.773 -13.0457 -134.279C-17.5637 -140.011 -22.0308 -145.945 -26.4468 -152.078L-26.4503 -152.062ZM8.17161 -144.551C12.9198 -138.187 17.693 -132.02 22.4621 -126.074C15.6108 -122.468 8.82712 -119.101 2.12733 -115.971C-2.74032 -121.531 -7.58553 -127.358 -12.3729 -133.418C-5.60058 -136.931 1.26495 -140.644 8.18784 -144.548L8.17161 -144.551ZM23.132 -125.239C28.2122 -118.923 33.279 -112.863 38.3231 -107.096C31.755 -103.828 25.2157 -100.816 18.7181 -98.0403C13.4227 -103.421 8.12131 -109.132 2.84922 -115.142C9.56865 -118.285 16.3361 -121.655 23.132 -125.239ZM39.0258 -106.296C44.5289 -100.018 49.9935 -94.0775 55.3812 -88.534C49.3306 -85.6305 43.2696 -82.9576 37.2114 -80.5378C31.3479 -85.6741 25.4277 -91.2621 19.4862 -97.2693C25.9641 -100.032 32.4773 -103.041 39.0194 -106.306L39.0258 -106.296ZM57.1098 -88.2204C62.687 -90.9276 68.2469 -93.8331 73.7832 -96.9466C79.226 -90.224 84.4118 -84.0463 89.3084 -78.4625C84.5833 -75.8209 79.8341 -73.3452 75.0509 -71.0289C69.2812 -76.1284 63.2784 -81.8862 57.1063 -88.2042L57.1098 -88.2204ZM74.833 -97.5459C80.2617 -100.631 85.6534 -103.902 91.0117 -107.375L104.053 -87.3584C99.5363 -84.4192 94.9659 -81.6689 90.3582 -79.0618C85.4616 -84.6456 80.2695 -90.8331 74.8266 -97.5557L74.833 -97.5459ZM91.8857 -107.943C97.2376 -111.426 102.406 -115.04 107.425 -118.753C111.369 -111.069 114.931 -103.821 118.067 -97.0769C113.817 -93.9206 109.445 -90.8663 104.934 -87.9173L91.8921 -107.933L91.8857 -107.943ZM108.389 -119.463C113.478 -123.263 118.386 -127.169 123.12 -131.171C126.411 -122.965 129.245 -115.159 131.578 -107.823C127.53 -104.379 123.343 -101.041 119.007 -97.8007C115.885 -104.525 112.333 -111.779 108.373 -119.467L108.389 -119.463ZM123.532 -132.878C120.632 -140.054 117.413 -147.441 113.893 -155.01C119.518 -159.662 124.917 -164.403 130.065 -169.206C133.153 -161.356 135.872 -153.684 138.206 -146.238C133.535 -141.69 128.643 -137.223 123.538 -132.868L123.532 -132.878ZM113.446 -155.976C110.199 -162.912 106.707 -170.011 102.988 -177.199C109.017 -181.96 114.839 -186.781 120.434 -191.65C123.791 -184.394 126.873 -177.239 129.664 -170.229C124.502 -165.404 119.1 -160.647 113.446 -155.976ZM102.489 -178.158C98.9763 -184.922 95.2637 -191.779 91.36 -198.693C97.7334 -203.441 103.909 -208.213 109.863 -212.981C113.469 -206.138 116.835 -199.363 119.964 -192.671C114.395 -187.805 108.56 -182.961 102.492 -178.175L102.489 -178.158ZM110.699 -213.651C117.015 -218.724 123.093 -223.796 128.868 -228.838C132.136 -222.278 135.147 -215.747 137.921 -209.257C132.533 -203.963 126.813 -198.664 120.794 -193.393C117.652 -200.104 114.283 -206.864 110.699 -213.651ZM129.669 -229.541C135.956 -235.042 141.905 -240.505 147.457 -245.891C150.36 -239.848 153.032 -233.794 155.45 -227.743C150.306 -221.882 144.709 -215.964 138.693 -210.025C135.932 -216.495 132.923 -223 129.659 -229.534L129.669 -229.541ZM147.772 -247.618C145.066 -253.189 142.161 -258.742 139.047 -264.271C145.779 -269.713 151.966 -274.897 157.558 -279.792C160.199 -275.073 162.674 -270.33 164.99 -265.552C159.883 -259.785 154.116 -253.785 147.788 -247.615L147.772 -247.618ZM138.438 -265.313C135.353 -270.735 132.082 -276.12 128.61 -281.471L148.652 -294.512C151.592 -290.001 154.342 -285.436 156.949 -280.834C151.357 -275.939 145.161 -270.748 138.429 -265.307L138.438 -265.313ZM128.041 -282.344C124.559 -287.689 120.944 -292.85 117.23 -297.863C124.924 -301.807 132.181 -305.37 138.933 -308.507C142.09 -304.262 145.144 -299.896 148.093 -295.391L128.051 -282.35L128.041 -282.344ZM116.52 -298.825C112.719 -303.907 108.812 -308.808 104.81 -313.535C113.026 -316.828 120.84 -319.664 128.184 -321.999C131.629 -317.956 134.969 -313.775 138.209 -309.446C131.477 -306.322 124.213 -302.769 116.516 -298.809L116.52 -298.825ZM103.102 -313.946C95.917 -311.045 88.5208 -307.824 80.9426 -304.304C76.29 -309.92 71.5472 -315.311 66.7431 -320.452C74.6025 -323.541 82.2824 -326.262 89.737 -328.599C94.2864 -323.934 98.7554 -319.05 103.112 -313.952L103.102 -313.946ZM79.9757 -303.856C73.0309 -300.608 65.9241 -297.115 58.727 -293.396C53.9652 -299.416 49.1427 -305.23 44.272 -310.817C51.5366 -314.175 58.7005 -317.258 65.7183 -320.051C70.5449 -314.896 75.304 -309.502 79.9757 -303.856ZM57.7661 -292.896C50.9938 -289.383 44.1283 -285.67 37.2054 -281.766C32.4572 -288.131 27.684 -294.298 22.9149 -300.244C29.7662 -303.85 36.5499 -307.216 43.2497 -310.347C48.1173 -304.786 52.9625 -298.959 57.7499 -292.899L57.7661 -292.896ZM22.2451 -301.079C17.1712 -307.385 12.098 -313.454 7.05395 -319.222C13.622 -322.49 20.1613 -325.502 26.6589 -328.277C31.9543 -322.897 37.2557 -317.186 42.5278 -311.176C35.8083 -308.033 29.0409 -304.663 22.2451 -301.079ZM6.3512 -320.021C0.848132 -326.3 -4.61646 -332.24 -10.0042 -337.784C-3.95364 -340.687 2.1074 -343.36 8.1656 -345.78C14.0291 -340.643 19.9493 -335.055 25.8908 -329.048C19.4129 -326.286 12.8996 -323.277 6.35758 -320.011L6.3512 -320.021ZM-11.7328 -338.097C-17.31 -335.39 -22.8699 -332.484 -28.4062 -329.371C-33.8491 -336.094 -39.0348 -342.271 -43.9314 -347.855C-39.2063 -350.497 -34.4571 -352.972 -29.6739 -355.289C-23.9042 -350.189 -17.9014 -344.431 -11.7293 -338.113L-11.7328 -338.097ZM-29.456 -328.772C-34.8847 -325.686 -40.2764 -322.415 -45.6347 -318.943L-58.6765 -338.959C-54.1593 -341.898 -49.5889 -344.649 -44.9812 -347.256C-40.0846 -341.672 -34.8925 -335.484 -29.4496 -328.762L-29.456 -328.772ZM-46.5087 -318.374C-51.8606 -314.892 -57.0287 -311.278 -62.0485 -307.565C-65.9923 -315.249 -69.5543 -322.497 -72.6897 -329.241C-68.4399 -332.397 -64.0676 -335.451 -59.5568 -338.4L-46.5151 -318.384L-46.5087 -318.374ZM-63.0118 -306.854C-68.1007 -303.054 -73.0089 -299.148 -77.7426 -295.147C-81.034 -303.353 -83.8684 -311.158 -86.2011 -318.494C-82.1527 -321.938 -77.9658 -325.277 -73.6304 -328.517C-70.5078 -321.793 -66.9556 -314.538 -62.9955 -306.851L-63.0118 -306.854ZM-78.1548 -293.44C-75.255 -286.264 -72.0357 -278.876 -68.5163 -271.307C-74.1412 -266.656 -79.5396 -261.914 -84.6885 -257.112C-87.7758 -264.962 -90.4947 -272.633 -92.8294 -280.079C-88.1578 -284.627 -83.2661 -289.095 -78.1612 -293.45L-78.1548 -293.44ZM-68.0625 -270.332C-64.8154 -263.395 -61.3233 -256.297 -57.6046 -249.109C-63.6337 -244.348 -69.4554 -239.527 -75.0502 -234.658C-78.4074 -241.913 -81.4895 -249.069 -84.2808 -256.078C-79.1186 -260.903 -73.7168 -265.661 -68.0625 -270.332ZM-57.1051 -248.149C-53.5929 -241.385 -49.8803 -234.528 -45.9767 -227.614C-52.35 -222.867 -58.5254 -218.095 -64.4798 -213.327C-68.0853 -220.169 -71.4511 -226.945 -74.5806 -233.636C-69.0118 -238.503 -63.1769 -243.347 -57.1085 -248.133L-57.1051 -248.149ZM-65.3159 -212.657C-71.6312 -207.584 -77.7092 -202.512 -83.4846 -197.469C-86.7521 -204.03 -89.7632 -210.561 -92.5375 -217.051C-87.1492 -222.344 -81.4293 -227.644 -75.4108 -232.915C-72.2685 -226.203 -68.8993 -219.444 -65.3159 -212.657ZM-84.2854 -196.767C-90.5729 -191.265 -96.5221 -185.802 -102.074 -180.417C-104.977 -186.46 -107.649 -192.514 -110.067 -198.565C-104.923 -204.426 -99.3259 -210.344 -93.3097 -216.283C-90.5482 -209.813 -87.5401 -203.307 -84.2756 -196.773L-84.2854 -196.767ZM-102.389 -178.689C-99.6822 -173.119 -96.7773 -167.566 -93.6641 -162.037C-100.396 -156.595 -106.583 -151.411 -112.174 -146.515C-114.816 -151.235 -117.291 -155.978 -119.607 -160.755C-114.499 -166.523 -108.733 -172.523 -102.405 -178.693L-102.389 -178.689ZM-93.0648 -160.988C-89.9797 -155.566 -86.7088 -150.182 -83.2362 -144.83L-103.279 -131.789C-106.218 -136.301 -108.968 -140.865 -111.575 -145.467C-105.983 -150.362 -99.787 -155.553 -93.055 -160.995L-93.0648 -160.988ZM-82.6675 -143.958C-79.185 -138.613 -75.5705 -133.452 -71.8568 -128.439C-79.5503 -124.494 -86.8073 -120.931 -93.5592 -117.795C-96.716 -122.039 -99.7707 -126.405 -102.72 -130.91L-82.6773 -143.951L-82.6675 -143.958ZM-71.1461 -127.477C-67.3455 -122.395 -63.4389 -117.493 -59.4361 -112.766C-67.652 -109.473 -75.4664 -106.637 -82.8105 -104.302C-86.2555 -108.345 -89.5949 -112.526 -92.8352 -116.855C-86.103 -119.979 -78.8396 -123.532 -71.1427 -127.493L-71.1461 -127.477ZM-57.7282 -112.355C-50.5435 -115.257 -43.1473 -118.477 -35.569 -121.998C-30.9164 -116.381 -26.1736 -110.99 -21.3695 -105.849C-29.229 -102.76 -36.9088 -100.039 -44.3634 -97.7024C-48.9128 -102.367 -53.3818 -107.252 -57.7379 -112.349L-57.7282 -112.355ZM-34.5923 -122.452C-27.6475 -125.7 -20.5407 -129.193 -13.3436 -132.912C-8.58185 -126.891 -3.75926 -121.078 1.11135 -115.491C-6.15316 -112.133 -13.3171 -109.05 -20.3348 -106.257C-25.1615 -111.411 -29.9206 -116.805 -34.5923 -122.452ZM1.83967 -114.652C7.06999 -108.685 12.3552 -102.977 17.6633 -97.5774C10.5425 -94.578 3.4835 -91.8702 -3.49072 -89.4828C-8.90082 -94.4812 -14.2585 -99.8068 -19.5545 -105.424C-12.5107 -108.22 -5.36296 -111.306 1.83967 -114.652ZM18.4442 -96.7868C24.3213 -90.8355 30.2253 -85.2509 36.1208 -80.0656C29.3937 -77.4062 22.6828 -75.0226 16.0109 -72.9437C9.77333 -77.7527 3.5473 -83.0161 -2.63523 -88.6849C4.31639 -91.0855 11.3558 -93.7805 18.4505 -96.777L18.4442 -96.7868ZM36.9929 -79.3065C42.9758 -74.0943 48.9438 -69.2914 54.8649 -64.9467C55.6643 -64.3637 56.4509 -63.8002 57.2439 -63.2269C51.2972 -60.8937 45.3272 -58.8107 39.3601 -56.9809C31.9513 -61.3769 24.4655 -66.4491 16.9902 -72.1705C23.6296 -74.2562 30.3047 -76.6304 36.9895 -79.2903L36.9929 -79.3065ZM58.2531 -62.515C66.8651 -56.444 75.0811 -51.5817 82.8329 -47.9255C78.4153 -46.0566 73.9801 -44.3437 69.5172 -42.7805C60.1291 -45.9865 50.4211 -50.5204 40.5578 -56.28C46.4665 -58.1136 52.3682 -60.1941 58.2531 -62.515ZM84.0807 -47.3409C98.1285 -40.9107 110.555 -38.5784 120.776 -40.4673C106.454 -35.4076 89.4329 -36.2722 71.1167 -42.2572C75.4592 -43.8119 79.7805 -45.5065 84.0645 -47.3444L84.0807 -47.3409ZM97.5588 -53.6529C100.938 -55.3769 104.296 -57.1985 107.628 -59.1016C116.834 -50.3167 124.091 -45.1658 128.749 -44.4122C121.299 -41.8967 110.52 -45.3284 97.549 -53.6465L97.5588 -53.6529ZM96.5457 -54.3064C90.1454 -58.5068 83.2218 -63.875 75.9166 -70.2796C80.6444 -72.5737 85.3543 -75.0239 90.0274 -77.6595C96.1309 -70.7384 101.774 -64.7604 106.85 -59.8663C103.449 -57.9185 100.016 -56.0619 96.5556 -54.3128L96.5457 -54.3064ZM91.0639 -78.2362C95.6162 -80.8212 100.151 -83.5621 104.625 -86.4596L117.667 -66.4433C114.416 -64.3284 111.132 -62.3307 107.822 -60.4144C102.797 -65.3145 97.1705 -71.2891 91.0703 -78.2264L91.0639 -78.2362ZM105.499 -87.0283C109.967 -89.9355 114.3 -92.9643 118.511 -96.095C122.392 -87.7137 125.583 -80.1545 128.035 -73.5803C124.942 -71.3306 121.785 -69.1368 118.534 -67.0218L105.493 -87.0381L105.499 -87.0283ZM119.474 -96.8056C123.76 -100.013 127.914 -103.317 131.936 -106.716C134.842 -97.4486 136.954 -88.9496 138.208 -81.4011C135.208 -78.9459 132.12 -76.5598 128.962 -74.2393C126.527 -80.8523 123.345 -88.4179 119.484 -96.812L119.474 -96.8056ZM138.39 -80.2207C140.755 -65.0018 139.535 -53.7621 134.219 -47.9712C135.417 -52.5492 133.646 -61.2556 129.33 -73.2225C132.427 -75.4884 135.452 -77.82 138.39 -80.2207ZM149.619 -89.9848C153.044 -93.1628 156.343 -96.4265 159.513 -99.7597C157.58 -80.5994 151.495 -64.7003 141.061 -53.6519C146.925 -62.2291 149.817 -74.5291 149.616 -89.9686L149.619 -89.9848ZM149.583 -91.3715C149.379 -99.925 148.247 -109.41 146.175 -119.737C150.679 -124.176 154.971 -128.728 159.039 -133.386C160.314 -122.052 160.535 -111.346 159.678 -101.459C156.442 -98.013 153.08 -94.6526 149.583 -91.3715ZM145.932 -120.947C145.734 -121.894 145.54 -122.857 145.32 -123.817C143.739 -130.986 141.758 -138.383 139.409 -145.959C144.547 -150.992 149.43 -156.139 154.015 -161.356C156.227 -152.21 157.84 -143.317 158.866 -134.768C154.778 -130.055 150.466 -125.448 145.925 -120.957L145.932 -120.947ZM139.067 -147.063C136.707 -154.549 133.984 -162.204 130.916 -169.982C136.528 -175.254 141.849 -180.587 146.851 -185.979C149.548 -178.042 151.83 -170.226 153.713 -162.57C149.112 -157.314 144.222 -152.135 139.061 -147.073L139.067 -147.063ZM130.514 -171.006C127.72 -178.042 124.635 -185.181 121.29 -192.375C127.266 -197.604 132.982 -202.887 138.39 -208.194C141.388 -201.081 144.094 -194.03 146.48 -187.064C141.474 -181.656 136.14 -176.3 130.514 -171.006ZM139.172 -208.968C145.132 -214.843 150.726 -220.745 155.919 -226.637C158.577 -219.918 160.959 -213.215 163.036 -206.551C158.219 -200.316 152.947 -194.093 147.269 -187.913C144.87 -194.857 142.177 -201.888 139.182 -208.974L139.172 -208.968ZM156.679 -227.509C161.9 -233.49 166.711 -239.455 171.063 -245.373C171.647 -246.172 172.211 -246.958 172.786 -247.751C175.118 -241.811 177.199 -235.848 179.021 -229.897C174.617 -222.492 169.535 -215.011 163.804 -207.539C161.72 -214.171 159.348 -220.839 156.689 -227.516L156.679 -227.509ZM173.499 -248.759C179.581 -257.367 184.452 -265.578 188.116 -273.324C189.984 -268.912 191.696 -264.482 193.258 -260.024C190.044 -250.643 185.5 -240.941 179.739 -231.091C177.907 -236.993 175.828 -242.888 173.509 -248.766L173.499 -248.759ZM188.702 -274.571C195.147 -288.61 197.488 -301.026 195.604 -311.237C200.66 -296.931 199.784 -279.925 193.783 -261.622C192.23 -265.96 190.536 -270.276 188.699 -274.555L188.702 -274.571ZM182.392 -288.033C180.668 -291.408 178.847 -294.762 176.944 -298.09C185.743 -307.292 190.893 -314.539 191.653 -319.21C194.167 -311.768 190.726 -300.996 182.392 -288.033ZM181.737 -287.021C177.529 -280.624 172.152 -273.704 165.737 -266.402C163.444 -271.124 160.994 -275.828 158.359 -280.495C165.29 -286.597 171.277 -292.238 176.178 -297.312C178.126 -293.915 179.982 -290.487 181.731 -287.03L181.737 -287.021ZM157.782 -281.53C155.197 -286.077 152.456 -290.605 149.559 -295.074L169.601 -308.115C171.716 -304.869 173.714 -301.588 175.63 -298.282C170.723 -293.26 164.739 -287.635 157.792 -281.537L157.782 -281.53ZM148.99 -295.947C146.083 -300.409 143.053 -304.736 139.922 -308.941C148.314 -312.823 155.882 -316.016 162.464 -318.469C164.714 -315.38 166.908 -312.228 169.023 -308.981L148.98 -295.94L148.99 -295.947ZM139.212 -309.903C136.003 -314.183 132.699 -318.331 129.299 -322.348C138.577 -325.256 147.085 -327.371 154.641 -328.629C157.097 -325.632 159.484 -322.549 161.804 -319.395C155.194 -316.964 147.609 -313.775 139.205 -309.913L139.212 -309.903ZM155.823 -328.811C171.057 -331.183 182.307 -329.97 188.1 -324.662C183.519 -325.857 174.803 -324.082 162.829 -319.754C160.563 -322.846 158.231 -325.867 155.829 -328.801L155.823 -328.811ZM146.056 -340.024C142.877 -343.443 139.612 -346.737 136.278 -349.902C155.455 -347.983 171.366 -341.912 182.418 -331.495C173.836 -337.348 161.527 -340.231 146.072 -340.02L146.056 -340.024ZM144.668 -339.986C136.106 -339.778 126.611 -338.641 116.274 -336.565C111.833 -341.063 107.28 -345.348 102.62 -349.41C113.965 -350.689 124.682 -350.917 134.567 -350.06C138.015 -346.829 141.376 -343.472 144.658 -339.98L144.668 -339.986ZM115.063 -336.322C114.115 -336.124 113.151 -335.929 112.19 -335.709C105.013 -334.126 97.608 -332.142 90.0232 -329.791C84.9883 -334.921 79.8401 -339.797 74.6202 -344.374C83.7763 -346.589 92.6787 -348.206 101.237 -349.236C105.952 -345.154 110.56 -340.849 115.053 -336.315L115.063 -336.322ZM88.9114 -329.458C81.4175 -327.096 73.7539 -324.372 65.9662 -321.301C60.6928 -326.905 55.3577 -332.218 49.9638 -337.213C57.9099 -339.911 65.7343 -342.195 73.3984 -344.082C78.657 -339.488 83.8377 -334.606 88.9016 -329.452L88.9114 -329.458ZM64.9413 -320.9C57.8975 -318.104 50.7498 -315.017 43.5472 -311.672C38.3168 -317.639 33.0316 -323.347 27.7235 -328.746C34.8443 -331.746 41.9033 -334.454 48.8775 -336.841C54.2876 -331.843 59.6453 -326.517 64.9413 -320.9ZM26.9491 -329.527C21.0719 -335.479 15.1679 -341.063 9.27242 -346.249C15.9995 -348.908 22.7104 -351.292 29.3822 -353.37C35.6198 -348.561 41.8459 -343.298 48.0284 -337.629C41.0768 -335.229 34.0374 -332.534 26.9427 -329.537L26.9491 -329.527ZM8.40024 -347.008C2.41734 -352.22 -3.5506 -357.023 -9.47167 -361.367C-10.2711 -361.95 -11.0577 -362.514 -11.8507 -363.087C-5.90394 -365.42 0.0660117 -367.503 6.02333 -369.327C13.4321 -364.931 20.9179 -359.859 28.3932 -354.137C21.7538 -352.052 15.0787 -349.677 8.39386 -347.017L8.40024 -347.008ZM-12.8599 -363.799C-21.4719 -369.87 -29.6879 -374.732 -37.4397 -378.389C-33.0285 -380.267 -28.5868 -381.97 -24.124 -383.534C-14.7359 -380.328 -5.02792 -375.794 4.82899 -370.044C-1.0797 -368.21 -6.98141 -366.13 -12.8663 -363.809L-12.8599 -363.799ZM-38.6875 -378.973C-52.7353 -385.403 -65.1617 -387.736 -75.3832 -385.847C-61.0611 -390.907 -44.0397 -390.042 -25.7234 -384.057C-30.066 -382.502 -34.3873 -380.808 -38.6811 -378.963L-38.6875 -378.973ZM-52.1656 -372.661C-55.5449 -370.937 -58.9025 -369.116 -62.2351 -367.213C-71.4407 -375.997 -78.6981 -381.148 -83.366 -381.896C-75.9159 -384.411 -65.1362 -380.979 -52.1656 -372.661ZM-51.1525 -372.008C-44.7522 -367.807 -37.8286 -362.439 -30.5234 -356.035C-35.2512 -353.74 -39.9611 -351.29 -44.6342 -348.655C-50.7377 -355.576 -56.3806 -361.554 -61.4572 -366.448C-58.0559 -368.396 -54.6231 -370.252 -51.1623 -372.001L-51.1525 -372.008ZM-45.6707 -348.078C-50.2229 -345.493 -54.7574 -342.752 -59.2319 -339.855L-72.2736 -359.871C-69.0232 -361.986 -65.7384 -363.983 -62.4284 -365.9C-57.404 -361 -51.7772 -355.025 -45.6771 -348.088L-45.6707 -348.078ZM-60.1059 -339.286C-64.574 -336.379 -68.9069 -333.35 -73.1175 -330.219C-76.9984 -338.6 -80.1897 -346.16 -82.6414 -352.734C-79.5487 -354.984 -76.3916 -357.177 -73.1412 -359.292L-60.0995 -339.276L-60.1059 -339.286ZM-74.0808 -329.509C-78.367 -326.301 -82.5211 -322.997 -86.5429 -319.598C-89.4488 -328.865 -91.5605 -337.365 -92.8152 -344.913C-89.8145 -347.368 -86.7268 -349.754 -83.5683 -352.075C-81.1334 -345.462 -77.9518 -337.896 -74.0907 -329.502L-74.0808 -329.509ZM-92.9971 -346.093C-95.3621 -361.312 -94.1418 -372.552 -88.8259 -378.343C-90.024 -373.765 -88.2525 -365.058 -83.9372 -353.092C-87.0333 -350.826 -90.0587 -348.494 -92.9971 -346.093ZM-104.226 -336.329C-107.651 -333.151 -110.95 -329.888 -114.129 -326.548C-112.197 -345.708 -106.112 -361.607 -95.6776 -372.656C-101.541 -364.079 -104.434 -351.779 -104.232 -336.339L-104.226 -336.329ZM-104.189 -334.943C-103.986 -326.389 -102.853 -316.904 -100.782 -306.577C-105.286 -302.138 -109.578 -297.586 -113.646 -292.928C-114.92 -304.262 -115.142 -314.968 -114.278 -324.845C-111.042 -328.291 -107.68 -331.652 -104.183 -334.933L-104.189 -334.943ZM-100.538 -305.367C-100.341 -304.42 -100.147 -303.457 -99.9269 -302.497C-98.3462 -295.328 -96.3652 -287.931 -94.0157 -280.355C-99.1541 -275.322 -104.037 -270.175 -108.622 -264.958C-110.834 -274.104 -112.447 -282.997 -113.473 -291.546C-109.384 -296.259 -105.073 -300.866 -100.522 -305.364L-100.538 -305.367ZM-93.6836 -279.244C-91.3233 -271.759 -88.601 -264.104 -85.5324 -256.325C-91.1447 -251.054 -96.4652 -245.72 -101.468 -240.329C-104.164 -248.266 -106.446 -256.082 -108.33 -263.737C-103.729 -268.994 -98.8387 -274.172 -93.6772 -279.234L-93.6836 -279.244ZM-85.1311 -255.302C-82.3368 -248.266 -79.2513 -241.127 -75.9064 -233.933C-81.8822 -228.704 -87.5986 -223.42 -93.0066 -218.114C-96.0047 -225.227 -98.711 -232.277 -101.097 -239.244C-96.0904 -244.652 -90.7566 -250.007 -85.1311 -255.302ZM-93.7886 -217.34C-99.7488 -211.465 -105.342 -205.563 -110.536 -199.67C-113.194 -206.389 -115.576 -213.093 -117.653 -219.757C-112.836 -225.992 -107.564 -232.215 -101.886 -238.395C-99.4871 -231.451 -96.7936 -224.42 -93.7984 -217.334L-93.7886 -217.34ZM-111.296 -198.798C-116.517 -192.818 -121.327 -186.853 -125.68 -180.935C-126.264 -180.136 -126.828 -179.35 -127.402 -178.557C-129.734 -184.497 -131.816 -190.46 -133.638 -196.411C-129.233 -203.815 -124.152 -211.297 -118.421 -218.769C-116.337 -212.137 -113.964 -205.469 -111.306 -198.792L-111.296 -198.798ZM-128.116 -177.549C-134.197 -168.941 -139.069 -160.73 -142.733 -152.983C-144.601 -157.396 -146.313 -161.826 -147.875 -166.284C-144.661 -175.665 -140.117 -185.366 -134.356 -195.217C-132.524 -189.315 -130.445 -183.42 -128.125 -177.542L-128.116 -177.549ZM-143.319 -151.736C-149.763 -137.698 -152.105 -125.282 -150.22 -115.071C-155.276 -129.377 -154.401 -146.383 -148.4 -164.685C-146.846 -160.348 -145.152 -156.031 -143.309 -151.743L-143.319 -151.736ZM-137.009 -138.275C-135.285 -134.899 -133.464 -131.546 -131.561 -128.218C-140.359 -119.016 -145.519 -111.762 -146.27 -107.098C-148.783 -114.54 -145.342 -125.311 -137.009 -138.275ZM-136.354 -139.287C-132.146 -145.684 -126.769 -152.604 -120.354 -159.906C-118.06 -155.184 -115.604 -150.47 -112.975 -145.813C-119.906 -139.711 -125.893 -134.07 -130.795 -128.995C-132.743 -132.392 -134.599 -135.821 -136.348 -139.277L-136.354 -139.287ZM-112.399 -144.778C-109.814 -140.231 -107.073 -135.702 -104.175 -131.234L-124.218 -118.193C-126.333 -121.439 -128.331 -124.72 -130.247 -128.025C-125.339 -133.048 -119.356 -138.673 -112.408 -144.771L-112.399 -144.778ZM-103.607 -130.361C-100.699 -125.899 -97.6701 -121.572 -94.5389 -117.367C-102.93 -113.485 -110.498 -110.292 -117.08 -107.839C-119.33 -110.927 -121.524 -114.08 -123.639 -117.326L-103.597 -130.367L-103.607 -130.361ZM-93.8282 -116.405C-90.6198 -112.124 -87.3157 -107.976 -83.9159 -103.96C-93.1934 -101.052 -101.702 -98.937 -109.258 -97.6791C-111.714 -100.676 -114.1 -103.759 -116.421 -106.913C-109.8 -109.35 -102.226 -112.533 -93.8218 -116.395L-93.8282 -116.405ZM-110.44 -97.4968C-125.674 -95.1251 -136.924 -96.3379 -142.717 -101.645C-138.135 -100.451 -129.42 -102.226 -117.439 -106.544C-115.173 -103.452 -112.841 -100.431 -110.44 -97.4968ZM-100.673 -86.284C-97.4938 -82.8643 -94.2289 -79.5704 -90.888 -76.3957C-110.065 -78.3154 -125.976 -84.3855 -137.028 -94.8034C-128.447 -88.9502 -116.137 -86.0673 -100.683 -86.2776L-100.673 -86.284ZM-99.2848 -86.3213C-90.7231 -86.5297 -81.2281 -87.6665 -70.8907 -89.7424C-66.4499 -85.2446 -61.8963 -80.9598 -57.2362 -76.8979C-68.5817 -75.6183 -79.2981 -75.3904 -89.1836 -76.2479C-92.6311 -79.4789 -95.9928 -82.8355 -99.275 -86.3277L-99.2848 -86.3213ZM-69.6792 -89.9861C-68.7314 -90.1839 -67.7674 -90.3783 -66.8063 -90.5986C-59.6298 -92.1819 -52.2246 -94.1654 -44.6398 -96.5171C-39.6049 -91.3864 -34.4567 -86.5109 -29.2369 -81.9334C-38.3929 -79.7184 -47.2953 -78.1014 -55.8532 -77.0716C-60.5683 -81.1535 -65.177 -85.4584 -69.6694 -89.9925L-69.6792 -89.9861ZM-43.5344 -96.8593C-36.0405 -99.2217 -28.3769 -101.946 -20.5891 -105.016C-15.3158 -99.4122 -9.98067 -94.0997 -4.58678 -89.1048C-12.5328 -86.4063 -20.3573 -84.1221 -28.0214 -82.2355C-33.28 -86.8297 -38.4607 -91.7119 -43.5246 -96.8657L-43.5344 -96.8593ZM-3.75387 -88.3201C2.39624 -82.6582 8.59326 -77.4178 14.795 -72.5994C7.00841 -70.2142 -0.715021 -68.2471 -8.34632 -66.675C-14.6815 -71.1832 -20.9437 -76.1158 -27.1074 -81.4337C-19.4758 -83.3271 -11.6803 -85.6344 -3.7701 -88.3235L-3.75387 -88.3201ZM15.8003 -71.8291C23.2432 -66.1146 30.6833 -61.0267 38.0626 -56.6115C30.883 -54.4535 23.7139 -52.6656 16.5782 -51.2345C8.59871 -55.4548 0.649391 -60.337 -7.20497 -65.8676C0.371318 -67.4597 8.05596 -69.4434 15.8003 -71.8291ZM39.2668 -55.9007C49.0294 -50.1455 58.6785 -45.5733 68.0135 -42.2769C62.4256 -40.3587 56.7983 -38.6941 51.1605 -37.2602C40.2367 -40.2908 29.1206 -44.7325 18.0289 -50.4887C25.0837 -51.9369 32.1814 -53.7483 39.2766 -55.9071L39.2668 -55.9007ZM69.5899 -41.7246C86.4664 -36.0177 102.305 -34.565 116.043 -37.9881C97.2247 -30.9662 75.6493 -30.8367 53.1951 -36.7128C58.6836 -38.1613 64.1582 -39.8242 69.5899 -41.7246ZM108.571 -59.6728C111.805 -61.5541 115.025 -63.5233 118.203 -65.5774L131.219 -45.6003C127.454 -43.9746 119.47 -49.1689 108.571 -59.6728ZM119.077 -66.146C122.259 -68.2162 125.347 -70.3653 128.377 -72.5605C133.587 -58.3408 135.104 -48.952 132.093 -46.169L119.077 -66.146ZM160.582 -100.93C164.518 -105.125 168.255 -109.456 171.801 -113.886C168.095 -90.9879 159.248 -71.3227 145.209 -56.9651C153.889 -68.1294 158.977 -83.1982 160.582 -100.93ZM160.714 -102.594C161.474 -112.459 161.2 -123.117 159.876 -134.377C164.722 -139.988 169.241 -145.736 173.43 -151.603C174.204 -139.148 173.778 -127.182 172.133 -115.973C168.54 -111.401 164.734 -106.941 160.724 -102.601L160.714 -102.594ZM159.712 -135.765C158.657 -144.295 157.004 -153.163 154.792 -162.267C160.108 -168.379 165.033 -174.6 169.555 -180.88C171.438 -171.464 172.681 -162.218 173.325 -153.224C169.128 -147.282 164.592 -141.454 159.712 -135.765ZM154.494 -163.497C152.603 -171.121 150.298 -178.907 147.611 -186.809C153.282 -192.956 158.537 -199.141 163.357 -205.349C165.74 -197.571 167.705 -189.856 169.274 -182.233C164.758 -175.901 159.817 -169.642 154.491 -163.481L154.494 -163.497ZM164.139 -206.36C169.863 -213.8 174.96 -221.236 179.384 -228.611C181.539 -221.439 183.325 -214.278 184.753 -207.149C180.524 -199.175 175.633 -191.23 170.093 -183.38C168.503 -190.948 166.522 -198.625 164.139 -206.36ZM180.096 -229.814C185.862 -239.571 190.444 -249.214 193.749 -258.542C195.666 -252.96 197.329 -247.339 198.761 -241.707C195.721 -230.792 191.269 -219.684 185.51 -208.606C184.065 -215.653 182.256 -222.743 180.099 -229.83L180.096 -229.814ZM194.303 -260.117C200.025 -276.981 201.488 -292.805 198.069 -306.529C205.087 -287.732 205.204 -266.177 199.31 -243.74C197.863 -249.223 196.202 -254.691 194.303 -260.117ZM176.36 -299.051C174.479 -302.281 172.51 -305.497 170.456 -308.671L190.459 -321.686C192.084 -317.926 186.88 -309.946 176.36 -299.051ZM169.887 -309.544C167.817 -312.721 165.667 -315.805 163.472 -318.832C177.708 -324.045 187.106 -325.566 189.89 -322.559L169.887 -309.544ZM135.094 -350.989C130.897 -354.92 126.565 -358.65 122.133 -362.19C145.05 -358.501 164.729 -349.674 179.092 -335.656C167.922 -344.322 152.842 -349.396 135.094 -350.989ZM133.428 -351.12C123.555 -351.874 112.887 -351.594 101.615 -350.265C96.0019 -355.103 90.2516 -359.614 84.3807 -363.796C96.8483 -364.577 108.815 -364.152 120.034 -362.514C124.608 -358.927 129.07 -355.127 133.412 -351.124L133.428 -351.12ZM100.226 -350.101C91.6871 -349.041 82.8103 -347.385 73.6965 -345.17C67.5814 -350.477 61.358 -355.393 55.0749 -359.907C64.5002 -361.795 73.7559 -363.041 82.758 -363.69C88.7036 -359.501 94.5348 -354.972 100.226 -350.101ZM72.4648 -344.871C64.8332 -342.978 57.0377 -340.67 49.1275 -337.981C42.9773 -343.643 36.7803 -348.884 30.5786 -353.702C38.3652 -356.087 46.0886 -358.054 53.7199 -359.626C60.0551 -355.118 66.3173 -350.186 72.481 -344.868L72.4648 -344.871ZM29.5669 -354.482C22.124 -360.197 14.6839 -365.284 7.30458 -369.7C14.4842 -371.858 21.6532 -373.646 28.789 -375.077C36.7685 -370.856 44.7178 -365.974 52.5722 -360.444C44.9959 -358.851 37.3112 -356.868 29.5669 -354.482ZM6.1004 -370.41C-3.66221 -376.166 -13.3113 -380.738 -22.6463 -384.034C-17.0584 -385.952 -11.4311 -387.617 -5.79333 -389.051C5.1305 -386.02 16.2466 -381.579 27.3383 -375.822C20.2835 -374.374 13.1857 -372.563 6.09057 -370.404L6.1004 -370.41ZM-24.2227 -384.587C-41.0992 -390.293 -56.9378 -391.746 -70.6762 -388.323C-51.8576 -395.345 -30.2821 -395.474 -7.82157 -389.589C-13.31 -388.14 -18.7846 -386.477 -24.2163 -384.577L-24.2227 -384.587ZM-63.2033 -366.638C-66.4382 -364.757 -69.6577 -362.788 -72.8359 -360.734L-85.8521 -380.711C-82.0872 -382.337 -74.1024 -377.142 -63.2033 -366.638ZM-73.7099 -360.165C-76.8916 -358.095 -79.9799 -355.946 -83.0102 -353.751C-88.2201 -367.97 -89.737 -377.359 -86.7261 -380.142L-73.7099 -360.165ZM-115.215 -325.381C-119.151 -321.186 -122.888 -316.855 -126.434 -312.425C-122.727 -335.323 -113.881 -354.988 -99.8479 -369.356C-108.528 -358.192 -113.616 -343.123 -115.221 -325.391L-115.215 -325.381ZM-115.347 -323.717C-116.107 -313.852 -115.832 -303.194 -114.509 -291.934C-119.354 -286.323 -123.874 -280.576 -128.063 -274.708C-128.837 -287.163 -128.405 -299.119 -126.766 -310.338C-123.173 -314.91 -119.366 -319.37 -115.357 -323.71L-115.347 -323.717ZM-114.345 -290.546C-113.29 -282.016 -111.637 -273.148 -109.425 -264.044C-114.741 -257.932 -119.665 -251.712 -124.187 -245.432C-126.071 -254.847 -127.313 -264.093 -127.957 -273.087C-123.761 -279.029 -119.225 -284.857 -114.345 -290.546ZM-109.127 -262.814C-107.236 -255.191 -104.931 -247.404 -102.244 -239.503C-107.915 -233.355 -113.164 -227.161 -117.99 -220.962C-120.373 -228.74 -122.338 -236.455 -123.907 -244.078C-119.391 -250.41 -114.45 -256.669 -109.123 -262.83L-109.127 -262.814ZM-118.772 -219.951C-124.496 -212.512 -129.593 -205.075 -134.016 -197.7C-136.172 -204.872 -137.958 -212.033 -139.386 -219.162C-135.167 -227.13 -130.266 -235.081 -124.725 -242.931C-123.136 -235.363 -121.155 -227.686 -118.772 -219.951ZM-134.728 -196.497C-140.495 -186.74 -145.077 -177.098 -148.382 -167.769C-150.298 -173.351 -151.961 -178.972 -153.393 -184.604C-150.354 -195.519 -145.901 -206.627 -140.133 -217.712C-138.688 -210.665 -136.879 -203.575 -134.722 -196.487L-134.728 -196.497ZM-148.935 -166.194C-154.657 -149.33 -156.121 -133.506 -152.702 -119.782C-159.72 -138.579 -159.837 -160.134 -153.933 -182.577C-152.486 -177.095 -150.825 -171.626 -148.926 -166.201L-148.935 -166.194ZM-130.993 -127.26C-129.112 -124.03 -127.143 -120.814 -125.088 -117.64L-145.092 -104.625C-146.717 -108.385 -141.513 -116.366 -130.993 -127.26ZM-124.52 -116.768C-122.449 -113.59 -120.3 -110.506 -118.105 -107.48C-132.341 -102.266 -141.739 -100.746 -144.523 -103.752L-124.52 -116.768ZM-89.7268 -75.3218C-85.5299 -71.3914 -81.1976 -67.6609 -76.7656 -64.1209C-99.6828 -67.8104 -119.361 -76.6376 -133.734 -90.6487C-122.564 -81.9827 -107.484 -76.9084 -89.7367 -75.3154L-89.7268 -75.3218ZM-88.0613 -75.1907C-78.1877 -74.4372 -67.5194 -74.7175 -56.248 -76.0466C-50.6347 -71.2084 -44.8844 -66.6968 -39.0135 -62.515C-51.4812 -61.7342 -63.4479 -62.1591 -74.6766 -63.7904C-79.251 -67.3774 -83.7125 -71.1775 -88.0549 -75.1809L-88.0613 -75.1907ZM-54.8586 -76.2105C-46.3199 -77.2697 -37.4431 -78.926 -28.3293 -81.1414C-22.2142 -75.8337 -15.9908 -70.9178 -9.70764 -66.4037C-19.133 -64.5162 -28.3888 -63.2697 -37.3908 -62.6212C-43.3364 -66.8103 -49.1677 -71.3391 -54.8586 -76.2105ZM-8.56635 -65.5962C-0.786648 -60.0729 7.10722 -55.1686 15.015 -50.9296C5.77278 -49.1473 -3.39116 -47.9745 -12.4119 -47.3976C-20.4277 -51.5663 -28.3392 -56.3476 -36.0623 -61.6982C-27.1118 -62.3829 -17.9106 -63.6917 -8.55013 -65.5928L-8.56635 -65.5962ZM16.4623 -50.1676C27.4174 -44.4063 38.4029 -39.9076 49.2118 -36.7743C41.424 -34.863 33.5991 -33.4164 25.7986 -32.4046C13.5809 -35.6826 1.3567 -40.4087 -10.6315 -46.4893C-1.7075 -47.1289 7.33995 -48.3516 16.4623 -50.1676ZM51.2072 -36.2013C72.2974 -30.4013 92.6723 -29.8195 110.812 -35.1571C85.5056 -25.324 57.0371 -24.5496 28.4556 -31.7175C36.039 -32.7836 43.637 -34.278 51.2072 -36.2013ZM173.093 -115.508C177.915 -121.649 182.35 -127.998 186.4 -134.487C181.404 -105.457 169.178 -79.7531 149.935 -60.6131C162.158 -75.032 169.869 -93.8879 173.093 -115.508ZM173.376 -117.564C174.874 -128.719 175.208 -140.569 174.367 -152.912C179.72 -160.514 184.499 -168.288 188.694 -176.184C189.409 -162.769 188.789 -149.685 186.846 -137.193C182.765 -130.474 178.269 -123.918 173.376 -117.564ZM174.256 -154.543C173.575 -163.484 172.271 -172.676 170.373 -182.027C175.906 -189.802 180.82 -197.691 185.067 -205.594C186.846 -196.362 188.015 -187.207 188.587 -178.195C184.409 -170.184 179.619 -162.278 174.259 -154.559L174.256 -154.543ZM185.827 -207.024C191.6 -217.973 196.11 -228.95 199.252 -239.751C201.161 -231.972 202.604 -224.155 203.612 -216.362C200.324 -204.154 195.587 -191.939 189.494 -179.958C188.858 -188.873 187.64 -197.912 185.827 -207.024ZM199.827 -241.745C205.645 -262.819 206.239 -283.175 200.907 -301.295C210.744 -276.024 211.493 -247.576 204.302 -219.017C203.239 -226.593 201.748 -234.183 199.827 -241.745ZM120.516 -363.47C114.372 -368.285 108.02 -372.712 101.527 -376.754C130.581 -371.779 156.302 -359.58 175.449 -340.366C161.024 -352.57 142.155 -360.262 120.516 -363.47ZM118.459 -363.752C107.293 -365.243 95.4328 -365.569 83.0782 -364.722C75.4784 -370.055 67.6936 -374.835 59.7918 -379.022C73.2207 -379.744 86.3162 -379.132 98.8185 -377.198C105.542 -373.124 112.102 -368.637 118.459 -363.752ZM81.4457 -364.61C72.4952 -363.925 63.294 -362.616 53.9335 -360.715C46.1538 -366.238 38.2664 -371.133 30.3522 -375.382C39.5944 -377.164 48.7583 -378.337 57.7791 -378.914C65.7949 -374.745 73.6999 -369.973 81.4295 -364.613L81.4457 -364.61ZM28.9211 -376.14C17.966 -381.901 6.98051 -386.4 -3.82844 -389.533C3.95937 -391.445 11.7843 -392.891 19.5848 -393.903C31.8025 -390.625 44.0267 -385.899 56.0149 -379.818C47.0909 -379.179 38.0434 -377.956 28.9211 -376.14ZM-5.8238 -390.106C-26.914 -395.906 -47.2889 -396.488 -65.4291 -391.151C-40.1222 -400.984 -11.6537 -401.758 16.9342 -394.58C9.35075 -393.514 1.75282 -392.02 -5.81741 -390.097L-5.8238 -390.106ZM-127.719 -310.793C-132.542 -304.653 -136.977 -298.304 -141.026 -291.814C-136.03 -320.844 -123.805 -346.548 -104.568 -365.698C-116.791 -351.279 -124.501 -332.423 -127.726 -310.803L-127.719 -310.793ZM-128.002 -308.738C-129.501 -297.582 -129.834 -285.732 -128.994 -273.39C-134.336 -265.794 -139.125 -258.014 -143.321 -250.117C-144.036 -263.533 -143.415 -276.616 -141.473 -289.108C-137.391 -295.828 -132.895 -302.384 -128.002 -308.738ZM-128.882 -271.759C-128.202 -262.817 -126.897 -253.625 -125 -244.275C-130.533 -236.499 -135.446 -228.61 -139.694 -220.707C-141.472 -229.94 -142.641 -239.094 -143.213 -248.106C-139.036 -256.117 -134.246 -264.024 -128.886 -271.743L-128.882 -271.759ZM-140.454 -219.277C-146.227 -208.329 -150.736 -197.351 -153.879 -186.55C-155.787 -194.33 -157.231 -202.146 -158.239 -209.939C-154.951 -222.147 -150.213 -234.363 -144.12 -246.343C-143.485 -237.428 -142.266 -228.39 -140.454 -219.277ZM-154.453 -184.556C-160.271 -163.483 -160.865 -143.127 -155.533 -125.006C-165.361 -150.284 -166.119 -178.725 -158.918 -207.29C-157.856 -199.715 -156.364 -192.125 -154.443 -184.563L-154.453 -184.556ZM-75.1358 -62.8213C-68.9925 -58.0068 -62.6401 -53.5796 -56.147 -49.5374C-85.2014 -54.5124 -110.922 -66.7115 -130.079 -85.9189C-115.654 -73.7155 -96.7846 -66.0234 -75.1456 -62.8149L-75.1358 -62.8213ZM-73.0787 -62.5398C-61.9135 -61.0488 -50.0529 -60.7224 -37.6982 -61.5693C-30.0984 -56.2363 -22.3137 -51.4564 -14.4119 -47.2694C-27.8407 -46.5474 -40.9362 -47.1595 -53.4386 -49.0932C-60.1621 -53.1672 -66.7217 -57.6549 -73.0787 -62.5398ZM-12.6285 -46.3351C-0.877499 -40.2537 11.112 -35.4587 23.1171 -32.0563C10.001 -30.5324 -3.04894 -30.2804 -15.8121 -31.2624C-27.8888 -35.5259 -39.7146 -41.0139 -51.0917 -47.7017C-38.7333 -45.9675 -25.8343 -45.5068 -12.6123 -46.3316L-12.6285 -46.3351ZM25.7574 -31.3304C53.0054 -24.0629 80.2485 -23.9282 104.865 -31.9018C68.0294 -17.1646 26.8341 -17.1446 -12.0571 -29.9631C0.374457 -29.2541 13.0333 -29.6985 25.7476 -31.324L25.7574 -31.3304ZM187.846 -136.796C194.477 -147.758 200.015 -159.154 204.385 -170.795C200.392 -130.073 183.699 -92.4271 155.31 -64.725C172.566 -83.9964 183.47 -108.938 187.836 -136.79L187.846 -136.796ZM188.26 -139.509C190.002 -151.857 190.465 -164.754 189.653 -177.953C195.747 -189.697 200.553 -201.678 203.966 -213.674C205.484 -200.571 205.728 -187.533 204.738 -174.781C200.464 -162.714 194.964 -150.896 188.263 -139.526L188.26 -139.509ZM204.694 -216.312C211.984 -243.539 212.135 -270.756 204.168 -295.345C218.898 -258.552 218.9 -217.386 206.041 -178.534C206.758 -190.954 206.32 -203.601 204.7 -216.302L204.694 -216.312ZM99.2228 -378.187C88.2544 -384.806 76.8515 -390.332 65.2015 -394.691C105.959 -390.726 143.631 -374.07 171.343 -345.724C152.063 -362.952 127.104 -373.832 99.2291 -378.178L99.2228 -378.187ZM96.5075 -378.599C84.1491 -380.333 71.2501 -380.794 58.0281 -379.969C46.2771 -386.051 34.2876 -390.846 22.2825 -394.248C35.3986 -395.772 48.4485 -396.024 61.2117 -395.042C73.2884 -390.778 85.1142 -385.29 96.4912 -378.603L96.5075 -378.599ZM19.6422 -394.974C-7.60582 -402.241 -34.8587 -402.37 -59.4754 -394.396C-22.6396 -409.133 18.5655 -409.16 57.4468 -396.335C45.0153 -397.044 32.3565 -396.599 19.6422 -394.974ZM-142.446 -289.508C-149.077 -278.546 -154.615 -267.151 -158.985 -255.509C-154.993 -296.231 -138.299 -333.877 -109.911 -361.579C-127.166 -342.308 -138.071 -317.366 -142.436 -289.514L-142.446 -289.508ZM-142.86 -286.795C-144.603 -274.447 -145.071 -261.56 -144.254 -248.351C-150.347 -236.607 -155.154 -224.626 -158.566 -212.631C-160.084 -225.734 -160.329 -238.771 -159.338 -251.523C-155.064 -263.591 -149.564 -275.409 -142.863 -286.779L-142.86 -286.795ZM-159.285 -209.999C-166.575 -182.772 -166.719 -155.545 -158.752 -130.956C-173.482 -167.748 -173.484 -208.915 -160.625 -247.767C-161.342 -235.347 -160.904 -222.7 -159.285 -209.999ZM-53.8134 -48.1232C-42.8386 -41.4949 -31.4421 -35.9789 -19.7857 -31.6095C-60.5434 -35.5748 -98.2154 -52.2309 -125.927 -80.5767C-106.648 -63.3484 -81.6886 -52.4689 -53.807 -48.1134L-53.8134 -48.1232ZM160.928 -68.9804C187.379 -97.2095 202.632 -134.533 205.766 -174.556C219.137 -212.429 220.311 -252.713 207.567 -289.206C238.751 -213.531 220.136 -125.59 160.928 -68.9804ZM167.087 -351.334C138.847 -377.744 101.503 -392.952 61.4376 -396.069C23.5369 -409.406 -16.7842 -410.555 -53.3249 -397.812C22.4392 -429.011 110.452 -410.463 167.08 -351.343L167.087 -351.334ZM-115.528 -357.324C-141.979 -329.095 -157.233 -291.771 -160.366 -251.748C-173.738 -213.875 -174.911 -173.591 -162.167 -137.098C-193.361 -212.767 -174.736 -300.715 -115.528 -357.324Z" fill="url(#paint2_linear_1459_6758)" fill-opacity="0.2"/>
<g style="mix-blend-mode:screen">
<path d="M-67.8994 -41.986C-67.2727 -41.9469 -66.7011 -42.2071 -66.3128 -42.6413L-44.4447 -27.8787C-44.5079 -27.7398 -44.5585 -27.5812 -44.5604 -27.4124C-44.6179 -26.6209 -44.0243 -25.9458 -43.232 -25.8887C-42.7644 -25.8578 -42.343 -26.0482 -42.0534 -26.3763L-2.17721 -2.73254C-2.25718 -2.55482 -2.30817 -2.35406 -2.32673 -2.14648C-2.3999 -1.12131 -1.62342 -0.230041 -0.597339 -0.157532C0.428743 -0.0850237 1.32131 -0.861298 1.39448 -1.88646C1.39495 -1.92866 1.38559 -1.96447 1.39245 -1.99686L81.4252 -12.5257C81.6191 -11.8418 82.2112 -11.3194 82.9647 -11.2789C83.9161 -11.2137 84.7527 -11.9256 84.822 -12.8924C84.8341 -13.1098 84.804 -13.3276 84.7445 -13.5263L125.409 -33.1843C125.767 -32.6351 126.354 -32.249 127.055 -32.2027C128.24 -32.122 129.258 -33.0073 129.345 -34.1817C129.427 -35.3659 128.541 -36.3817 127.366 -36.4687C126.515 -36.5297 125.75 -36.0735 125.349 -35.3797L76.089 -55.655C76.1228 -55.7747 76.1503 -55.9043 76.1615 -56.0373C76.2454 -57.1533 75.4016 -58.1264 74.2812 -58.1934C73.1609 -58.2605 72.1897 -57.4331 72.122 -56.3137C72.1059 -56.0379 72.1419 -55.768 72.2172 -55.5237L52.1098 -45.7362C51.8158 -46.1874 51.3058 -46.4979 50.7311 -46.5429C49.8382 -46.6043 49.0551 -46.0249 48.8379 -45.1993L13.8136 -49.614C13.7876 -50.4909 13.1134 -51.2253 12.2204 -51.2866C11.269 -51.3519 10.4486 -50.6365 10.3828 -49.686C10.3789 -49.6276 10.3848 -49.5755 10.3873 -49.5073L-30.4534 -42.0098C-30.689 -42.7363 -31.3588 -43.2921 -32.1673 -43.3525C-33.1511 -43.4246 -34.0069 -42.7421 -34.2058 -41.8027L-65.7742 -44.0252C-65.835 -44.9771 -66.5899 -45.7707 -67.5737 -45.8428C-68.642 -45.9157 -69.5837 -45.1075 -69.6573 -44.0402C-69.731 -42.9728 -68.9225 -42.0325 -67.8542 -41.9595L-67.8994 -41.986ZM-32.493 -39.4957C-31.8662 -39.4567 -31.2946 -39.7169 -30.9063 -40.1511L-7.99954 -24.6957C-8.15855 -24.4247 -8.25616 -24.1238 -8.31494 -23.8062L-41.7037 -27.4278C-41.7294 -27.7462 -41.8593 -28.0528 -42.0647 -28.2822L-33.2991 -39.7672C-33.0569 -39.6315 -32.7818 -39.5312 -32.4733 -39.5085L-32.493 -39.4957ZM60.4745 -34.3789C60.6874 -33.9449 61.0899 -33.6062 61.5924 -33.5003L60.687 -20.7895C59.8742 -20.7494 59.1573 -20.283 58.7986 -19.5887L55.3554 -20.8815L38.8383 -27.0879C38.8383 -27.0879 38.8658 -27.2175 38.8731 -27.2921C38.8809 -27.4089 38.8725 -27.5291 38.8607 -27.6331L40.5368 -28.1512L60.4809 -34.3691L60.4745 -34.3789ZM-0.351134 -3.87882C-0.451825 -3.88313 -0.546121 -3.87764 -0.640422 -3.87214L-4.43448 -20.3401C-3.28976 -20.7079 -2.4366 -21.7378 -2.33801 -23.003C-2.33707 -23.0874 -2.34596 -23.1654 -2.34502 -23.2498L35.6753 -26.9849C35.6969 -26.8873 35.7319 -26.8123 35.7732 -26.7274L0.89969 -3.26826C0.591559 -3.6124 0.148892 -3.84108 -0.351134 -3.87882ZM35.4958 -27.4966L11.9946 -25.1926L-2.39441 -23.7762C-2.63966 -25.097 -3.74577 -26.1508 -5.14859 -26.2435C-6.17467 -26.316 -7.11554 -25.8714 -7.71537 -25.118L-30.6059 -40.57C-30.5726 -40.6475 -30.5392 -40.7251 -30.5157 -40.7962L-17.5559 -38.1824L35.5022 -27.4868L35.4958 -27.4966ZM1.18724 -2.82693L36.0607 -26.2861C36.3305 -26.0008 36.7117 -25.802 37.1371 -25.7715C37.7801 -25.729 38.359 -26.0638 38.6573 -26.5931L41.175 -25.6478L58.6176 -19.0939C58.5838 -18.9741 58.5563 -18.8446 58.5451 -18.7116C58.527 -18.5462 58.5512 -18.3803 58.5689 -18.2243L51.5806 -16.3306L1.22509 -2.72587C1.22509 -2.72587 1.19315 -2.77492 1.1838 -2.81073L1.18724 -2.82693ZM61.2033 -20.7484L62.1086 -33.4591C62.8601 -33.5291 63.4772 -34.0843 63.6025 -34.8362L125.062 -34.1035L62.8936 -19.3345C62.632 -20.058 61.9946 -20.6069 61.2067 -20.7646L61.2033 -20.7484ZM60.5474 -35.9625C60.4085 -35.7464 60.3212 -35.4941 60.3052 -35.2183C60.2974 -35.1016 60.3058 -34.9813 60.3142 -34.8611L48.3659 -31.1366L38.6939 -28.1251C38.6241 -28.2752 38.5312 -28.3963 38.4285 -28.5111L49.6631 -43.1387C49.8891 -43.0065 50.1514 -42.9258 50.4274 -42.9099C50.9373 -42.8786 51.4235 -43.0552 51.7779 -43.3697L53.9478 -41.5417L60.541 -35.9723L60.5474 -35.9625ZM-41.7747 -26.8928L-32.8522 -25.9254L-8.38588 -23.2713C-8.41996 -21.6711 -7.20364 -20.2979 -5.57684 -20.1833C-5.35925 -20.1713 -5.14461 -20.1853 -4.93637 -20.209L-1.14234 -3.74107C-1.45565 -3.621 -1.72421 -3.43229 -1.93184 -3.1715L-41.7918 -26.8118C-41.7918 -26.8118 -41.7717 -26.8668 -41.7585 -26.8894L-41.7747 -26.8928ZM29.6385 -9.87396L58.7097 -17.7293C59.0195 -16.9534 59.7378 -16.3874 60.6308 -16.326C61.6407 -16.2569 62.5412 -16.8708 62.8762 -17.7731L81.3414 -13.1694C81.3414 -13.1694 81.3346 -13.137 81.3409 -13.1272C81.3341 -13.0948 81.3469 -13.0752 81.34 -13.0428L3.33807 -2.788L29.6321 -9.88377L29.6385 -9.87396ZM49.2636 -43.4514L46.3519 -39.6576L38.029 -28.8237C37.832 -28.9329 37.6085 -28.9969 37.3747 -29.0124C36.9395 -29.0365 36.5383 -28.9011 36.23 -28.6446L13.5169 -48.6529C13.6062 -48.7948 13.6892 -48.9466 13.7333 -49.1149L48.7576 -44.7002C48.7652 -44.2164 48.9521 -43.7793 49.2734 -43.4578L49.2636 -43.4514ZM11.9352 -47.8612C12.4028 -47.8303 12.8335 -47.9848 13.1615 -48.2541L35.8746 -28.2458C35.8216 -28.1554 35.775 -28.0553 35.7284 -27.9551L-30.4192 -41.292C-30.4118 -41.3666 -30.4207 -41.4446 -30.4232 -41.5128L10.4175 -49.0103C10.6378 -48.3716 11.2176 -47.911 11.9254 -47.8548L11.9352 -47.8612ZM-33.728 -40.0607L-42.4936 -28.5756C-42.6616 -28.6618 -42.8463 -28.7092 -43.0379 -28.7243C-43.4731 -28.7483 -43.8713 -28.5869 -44.1541 -28.2912L-66.0158 -43.044C-65.9427 -43.1893 -65.8922 -43.3479 -65.8579 -43.5098L-34.2896 -41.2873C-34.2559 -40.8065 -34.0529 -40.366 -33.7251 -40.0347L-33.728 -40.0607ZM84.5026 -13.9834C84.2117 -14.4085 83.7469 -14.6926 83.1982 -14.7406C82.4384 -14.7909 81.751 -14.3436 81.4738 -13.6745L81.4413 -13.6813L63.0086 -18.2781C63.0086 -18.2781 63.0257 -18.3591 63.036 -18.4077C63.0408 -18.5505 63.0359 -18.6869 63.0245 -18.8331L124.951 -33.543L84.5125 -13.9898L84.5026 -13.9834ZM125.129 -34.9015C125.102 -34.8141 125.098 -34.7135 125.077 -34.6163L63.618 -35.349C63.5544 -35.7685 63.3376 -36.1441 63.0124 -36.4073L73.3347 -54.3237C73.5287 -54.2405 73.7361 -54.1799 73.9699 -54.1644C74.772 -54.1137 75.4947 -54.5282 75.8628 -55.1866L125.123 -34.9113L125.129 -34.9015ZM72.4267 -55.0735C72.5545 -54.8774 72.7053 -54.7102 72.8891 -54.5784L62.5668 -36.662C62.4179 -36.7187 62.2656 -36.7593 62.0903 -36.7709C61.6325 -36.8082 61.2082 -36.6438 60.8866 -36.3648L52.1235 -43.7621C52.2757 -44.0008 52.3796 -44.2919 52.4026 -44.6001C52.4182 -44.8336 52.3852 -45.0775 52.3192 -45.286L72.4267 -55.0735Z" fill="#37F1FF" fill-opacity="0.2"/>
</g>
</g>
<defs>
<filter id="filter0_f_1459_6758" x="-760" y="-760" width="1740" height="1740" filterUnits="userSpaceOnUse" color-interpolation-filters="sRGB">
<feFlood flood-opacity="0" result="BackgroundImageFix"/>
<feBlend mode="normal" in="SourceGraphic" in2="BackgroundImageFix" result="shape"/>
<feGaussianBlur stdDeviation="380" result="effect1_foregroundBlur_1459_6758"/>
</filter>
<linearGradient id="paint0_linear_1459_6758" x1="219.858" y1="218.88" x2="-26.8641" y2="44.1807" gradientUnits="userSpaceOnUse">
<stop stop-color="#CAFE15"/>
<stop offset="1" stop-color="#14FF87"/>
</linearGradient>
<linearGradient id="paint1_linear_1459_6758" x1="-122.792" y1="345.624" x2="23.1511" y2="-218.752" gradientUnits="userSpaceOnUse">
<stop stop-color="#37F1FF"/>
<stop offset="1"/>
</linearGradient>
<linearGradient id="paint2_linear_1459_6758" x1="-13.6398" y1="94.8504" x2="40.1328" y2="-364.327" gradientUnits="userSpaceOnUse">
<stop stop-color="#37F1FF"/>
<stop offset="1"/>
</linearGradient>
<clipPath id="clip0_1459_6758">
<rect width="1601" height="600" rx="40" fill="white"/>
</clipPath>
</defs>
</svg>
