<svg width="180" height="181" viewBox="0 0 180 181" fill="none" xmlns="http://www.w3.org/2000/svg">
<g clip-path="url(#clip0_911_11797)">
<g clip-path="url(#clip1_911_11797)">
<g clip-path="url(#clip2_911_11797)">
<g clip-path="url(#clip3_911_11797)">
<path d="M180 90.2C180 40.4943 139.706 0.199951 90 0.199951C40.2944 0.199951 0 40.4943 0 90.2C0 139.906 40.2944 180.2 90 180.2C139.706 180.2 180 139.906 180 90.2Z" fill="url(#paint0_linear_911_11797)" fill-opacity="0.1"/>
<path d="M179.286 90.1999C179.286 40.8888 139.311 0.914185 90.0001 0.914185C40.6889 0.914185 0.714355 40.8888 0.714355 90.1999C0.714355 139.511 40.6889 179.486 90.0001 179.486C139.311 179.486 179.286 139.511 179.286 90.1999Z" stroke="url(#paint1_linear_911_11797)" stroke-opacity="0.05" stroke-width="1.42857"/>
<path d="M168.572 90.2C168.572 46.8062 133.394 11.6285 90.0001 11.6285C46.6063 11.6285 11.4287 46.8062 11.4287 90.2C11.4287 133.594 46.6063 168.771 90.0001 168.771C133.394 168.771 168.572 133.594 168.572 90.2Z" fill="url(#paint2_linear_911_11797)" fill-opacity="0.15"/>
<path d="M167.857 90.1999C167.857 47.2006 133 12.3428 90.0002 12.3428C47.0009 12.3428 12.1431 47.2006 12.1431 90.1999C12.1431 133.199 47.0009 168.057 90.0002 168.057C133 168.057 167.857 133.199 167.857 90.1999Z" stroke="url(#paint3_linear_911_11797)" stroke-opacity="0.15" stroke-width="1.42857"/>
<path d="M157.143 90.2C157.143 53.118 127.082 23.0571 89.9998 23.0571C52.9178 23.0571 22.8569 53.118 22.8569 90.2C22.8569 127.282 52.9178 157.343 89.9998 157.343C127.082 157.343 157.143 127.282 157.143 90.2Z" fill="url(#paint4_linear_911_11797)" fill-opacity="0.2"/>
<path d="M156.428 90.1999C156.428 53.5124 126.687 23.7714 89.9999 23.7714C53.3124 23.7714 23.5713 53.5124 23.5713 90.1999C23.5713 126.887 53.3124 156.629 89.9999 156.629C126.687 156.629 156.428 126.887 156.428 90.1999Z" stroke="url(#paint5_linear_911_11797)" stroke-opacity="0.2" stroke-width="1.42857"/>
<g filter="url(#filter0_i_911_11797)">
<path d="M142.857 90.1999C142.857 61.0077 119.192 37.3428 90.0002 37.3428C60.808 37.3428 37.1431 61.0077 37.1431 90.1999C37.1431 119.392 60.808 143.057 90.0002 143.057C119.192 143.057 142.857 119.392 142.857 90.1999Z" fill="url(#paint6_linear_911_11797)" fill-opacity="0.2"/>
<path d="M142.143 90.1999C142.143 61.4022 118.798 38.057 90.0003 38.057C61.2026 38.057 37.8574 61.4022 37.8574 90.1999C37.8574 118.998 61.2026 142.343 90.0003 142.343C118.798 142.343 142.143 118.998 142.143 90.1999Z" stroke="url(#paint7_linear_911_11797)" stroke-opacity="0.2" stroke-width="1.42857"/>
</g>
</g>
</g>
</g>
<g clip-path="url(#clip4_911_11797)">
<g clip-path="url(#clip5_911_11797)">
<g clip-path="url(#clip6_911_11797)">
<path d="M71.6665 80.1166C71.6665 77.9285 72.5357 75.8301 74.0829 74.2829C75.63 72.7358 77.7285 71.8666 79.9165 71.8666C82.1045 71.8666 84.203 72.7358 85.7501 74.2829C87.2973 75.8301 88.1665 77.9285 88.1665 80.1166V85.6166C88.1665 86.2564 88.1665 86.5754 88.0968 86.8376C88.0032 87.1876 87.819 87.5067 87.5628 87.7629C87.3066 88.0191 86.9875 88.2033 86.6375 88.2969C86.3753 88.3666 86.0582 88.3666 85.4165 88.3666H79.9165C77.7285 88.3666 75.63 87.4974 74.0829 85.9502C72.5357 84.403 71.6665 82.3046 71.6665 80.1166ZM91.8332 94.7832C91.8332 94.1434 91.8332 93.8244 91.9028 93.5622C92.0935 92.8509 92.6508 92.2936 93.3622 92.1029C93.6243 92.0332 93.9433 92.0332 94.5832 92.0332H100.083C101.715 92.0332 103.31 92.5171 104.667 93.4236C106.023 94.3301 107.081 95.6186 107.705 97.1261C108.33 98.6336 108.493 100.292 108.175 101.893C107.856 103.493 107.071 104.963 105.917 106.117C104.763 107.271 103.293 108.056 101.693 108.375C100.092 108.693 98.4335 108.53 96.926 107.905C95.4185 107.281 94.1301 106.223 93.2235 104.867C92.317 103.51 91.8332 101.915 91.8332 100.283V94.7832ZM71.6665 100.283C71.6665 98.0952 72.5357 95.9968 74.0829 94.4496C75.63 92.9024 77.7285 92.0332 79.9165 92.0332H84.8665C86.0215 92.0332 86.599 92.0332 87.0408 92.2587C87.4277 92.4549 87.7448 92.7721 87.941 93.1589C88.1665 93.5989 88.1665 94.1782 88.1665 95.3332V100.283C88.1665 101.367 87.9531 102.439 87.5385 103.44C87.1239 104.441 86.5162 105.351 85.7501 106.117C84.9841 106.883 84.0746 107.491 83.0736 107.905C82.0727 108.32 80.9999 108.533 79.9165 108.533C78.8331 108.533 77.7603 108.32 76.7594 107.905C75.7584 107.491 74.849 106.883 74.0829 106.117C73.3168 105.351 72.7091 104.441 72.2945 103.44C71.8799 102.439 71.6665 101.367 71.6665 100.283ZM91.8332 80.1166C91.8332 78.4849 92.317 76.8898 93.2235 75.5331C94.1301 74.1764 95.4185 73.119 96.926 72.4946C98.4335 71.8702 100.092 71.7068 101.693 72.0251C103.293 72.3434 104.763 73.1292 105.917 74.2829C107.071 75.4367 107.856 76.9067 108.175 78.5071C108.493 80.1074 108.33 81.7662 107.705 83.2737C107.081 84.7812 106.023 86.0697 104.667 86.9762C103.31 87.8827 101.715 88.3666 100.083 88.3666H94.1908C93.9158 88.3666 93.7802 88.3666 93.6647 88.3537C93.2003 88.3014 92.7675 88.093 92.4371 87.7626C92.1067 87.4322 91.8983 86.9994 91.846 86.5351C91.8332 86.4196 91.8332 86.2839 91.8332 86.0089V80.1166Z" fill="#DCFC36"/>
</g>
</g>
</g>
</g>
<defs>
<filter id="filter0_i_911_11797" x="37.1431" y="37.3428" width="105.714" height="111.429" filterUnits="userSpaceOnUse" color-interpolation-filters="sRGB">
<feFlood flood-opacity="0" result="BackgroundImageFix"/>
<feBlend mode="normal" in="SourceGraphic" in2="BackgroundImageFix" result="shape"/>
<feColorMatrix in="SourceAlpha" type="matrix" values="0 0 0 0 0 0 0 0 0 0 0 0 0 0 0 0 0 0 127 0" result="hardAlpha"/>
<feOffset dy="5.71429"/>
<feGaussianBlur stdDeviation="2.85714"/>
<feComposite in2="hardAlpha" operator="arithmetic" k2="-1" k3="1"/>
<feColorMatrix type="matrix" values="0 0 0 0 0.862745 0 0 0 0 0.988235 0 0 0 0 0.211765 0 0 0 0.2 0"/>
<feBlend mode="normal" in2="shape" result="effect1_innerShadow_911_11797"/>
</filter>
<linearGradient id="paint0_linear_911_11797" x1="90" y1="-48.0729" x2="90" y2="226.836" gradientUnits="userSpaceOnUse">
<stop stop-color="#DCFC36"/>
<stop offset="0.793" stop-color="#DCFC36" stop-opacity="0"/>
</linearGradient>
<linearGradient id="paint1_linear_911_11797" x1="90.0001" y1="0.199899" x2="90.0001" y2="180.2" gradientUnits="userSpaceOnUse">
<stop stop-color="#F6FECD"/>
<stop offset="1" stop-color="#F6FECD" stop-opacity="0"/>
</linearGradient>
<linearGradient id="paint2_linear_911_11797" x1="90.0001" y1="-30.5143" x2="90.0001" y2="209.486" gradientUnits="userSpaceOnUse">
<stop stop-color="#DCFC36"/>
<stop offset="0.793" stop-color="#DCFC36" stop-opacity="0"/>
</linearGradient>
<linearGradient id="paint3_linear_911_11797" x1="90.0002" y1="11.6285" x2="90.0002" y2="168.771" gradientUnits="userSpaceOnUse">
<stop stop-color="#F6FECD"/>
<stop offset="1" stop-color="#F6FECD" stop-opacity="0"/>
</linearGradient>
<linearGradient id="paint4_linear_911_11797" x1="89.9998" y1="-12.9557" x2="89.9998" y2="192.136" gradientUnits="userSpaceOnUse">
<stop stop-color="#DCFC36"/>
<stop offset="0.793" stop-color="#DCFC36" stop-opacity="0"/>
</linearGradient>
<linearGradient id="paint5_linear_911_11797" x1="89.9999" y1="23.0571" x2="89.9999" y2="157.343" gradientUnits="userSpaceOnUse">
<stop stop-color="#F6FECD"/>
<stop offset="1" stop-color="#F6FECD" stop-opacity="0"/>
</linearGradient>
<linearGradient id="paint6_linear_911_11797" x1="90.0002" y1="-20.4701" x2="90.0002" y2="170.447" gradientUnits="userSpaceOnUse">
<stop stop-color="#DCFC36"/>
<stop offset="0.87" stop-color="#DCFC36" stop-opacity="0"/>
</linearGradient>
<linearGradient id="paint7_linear_911_11797" x1="90.0003" y1="37.3427" x2="90.0003" y2="143.057" gradientUnits="userSpaceOnUse">
<stop stop-color="#F6FECD"/>
<stop offset="1" stop-color="#F6FECD" stop-opacity="0"/>
</linearGradient>
<clipPath id="clip0_911_11797">
<rect width="180" height="180" fill="white" transform="translate(0 0.199951)"/>
</clipPath>
<clipPath id="clip1_911_11797">
<rect width="180" height="180" fill="white" transform="translate(0 0.199951)"/>
</clipPath>
<clipPath id="clip2_911_11797">
<rect width="180" height="180" fill="white" transform="translate(0 0.199951)"/>
</clipPath>
<clipPath id="clip3_911_11797">
<rect width="180" height="180" fill="white" transform="translate(0 0.199951)"/>
</clipPath>
<clipPath id="clip4_911_11797">
<rect width="44" height="44" fill="white" transform="translate(68 68.2)"/>
</clipPath>
<clipPath id="clip5_911_11797">
<rect width="44" height="44" fill="white" transform="translate(68 68.2)"/>
</clipPath>
<clipPath id="clip6_911_11797">
<rect width="44" height="44" fill="white" transform="translate(68 68.2)"/>
</clipPath>
</defs>
</svg>
