<svg width="520" height="500" viewBox="0 0 520 500" fill="none" xmlns="http://www.w3.org/2000/svg">
<path d="M0 40C0 17.9086 17.9086 0 40 0H480C502.091 0 520 17.9086 520 40V460C520 482.091 502.091 500 480 500H0V40Z" fill="#121212"/>
<path d="M32 1H487.968C505.101 1 518.985 14.8981 518.968 32.031L518.532 468.031C518.515 485.14 504.641 499 487.532 499H137.907C129.411 499 121.288 495.513 115.436 489.355L96.6102 469.546C90.3802 462.991 81.7329 459.279 72.6893 459.279H32C14.8792 459.279 1 445.4 1 428.279V32C1 14.8792 14.8792 1 32 1Z" fill="url(#paint0_linear_1055_9507)" stroke="url(#paint1_linear_1055_9507)" stroke-width="2"/>
<defs>
<linearGradient id="paint0_linear_1055_9507" x1="-6.16161e-05" y1="-39.5481" x2="591.939" y2="386.979" gradientUnits="userSpaceOnUse">
<stop stop-color="#1A2613"/>
<stop offset="0.489"/>
<stop offset="1" stop-color="#001D2B"/>
</linearGradient>
<linearGradient id="paint1_linear_1055_9507" x1="483.477" y1="382.851" x2="108.698" y2="25.3148" gradientUnits="userSpaceOnUse">
<stop stop-color="#14FF87" stop-opacity="0.76"/>
<stop offset="1" stop-color="#CAFE15"/>
</linearGradient>
</defs>
</svg>
