<svg width="520" height="500" viewBox="0 0 520 500" fill="none" xmlns="http://www.w3.org/2000/svg">
<mask id="mask0_1186_2485" style="mask-type:alpha" maskUnits="userSpaceOnUse" x="0" y="0" width="520" height="500">
<path d="M488 499H32.032C14.8991 499 1.01489 485.102 1.03204 467.969L1.46802 31.969C1.48517 14.8603 15.3593 1 32.468 1H382.093C390.589 1 398.712 4.48654 404.564 10.6447L423.39 30.4537C429.62 37.0092 438.267 40.7207 447.311 40.7207H488C505.121 40.7207 519 54.5998 519 71.7207V468C519 485.121 505.121 499 488 499Z" fill="url(#paint0_linear_1186_2485)" stroke="url(#paint1_linear_1186_2485)" stroke-width="2"/>
</mask>
<g mask="url(#mask0_1186_2485)">
<path d="M488 499H32.032C14.8991 499 1.01489 485.102 1.03204 467.969L1.46802 31.969C1.48517 14.8603 15.3593 1 32.468 1H382.093C390.589 1 398.712 4.48654 404.564 10.6447L423.39 30.4537C429.62 37.0092 438.267 40.7207 447.311 40.7207H488C505.121 40.7207 519 54.5998 519 71.7207V468C519 485.121 505.121 499 488 499Z" stroke="url(#paint2_linear_1186_2485)" stroke-width="2"/>
<circle cx="86.5" cy="86.5" r="85.5" transform="matrix(-1 0 0 1 28 -150)" fill="url(#paint3_linear_1186_2485)" stroke="url(#paint4_linear_1186_2485)" stroke-width="2"/>
</g>
<g clip-path="url(#clip0_1186_2485)">
<path d="M519.91 3.8147e-05V71.72C519.91 71.72 519.9 71.7 519.9 71.69C519.9 69.96 519.76 68.26 519.49 66.6C519.24 65.09 518.9 63.6 518.45 62.17C518.02 60.82 517.51 59.51 516.91 58.24C516.35 57.03 515.71 55.85 515 54.73C514.3 53.63 513.55 52.57 512.73 51.57C511.93 50.58 511.06 49.64 510.15 48.75C509.23 47.87 508.27 47.03 507.25 46.26C506.23 45.48 505.15 44.76 504.03 44.1C502.89 43.43 501.7 42.83 500.48 42.3C499.2 41.76 497.88 41.29 496.53 40.91C495.09 40.51 493.62 40.21 492.12 40.01C490.74 39.83 489.33 39.72 487.91 39.72H447.22C446.48 39.72 445.74 39.69 445.01 39.64C443.44 39.53 441.89 39.3 440.37 38.97C438.97 38.66 437.59 38.26 436.24 37.77C434.97 37.3 433.73 36.75 432.53 36.13C431.37 35.53 430.24 34.87 429.16 34.13C428.11 33.41 427.1 32.63 426.13 31.78C425.4 31.14 424.69 30.47 424.02 29.76L423.4 29.12L420.77 26.35L418.13 23.58L415.5 20.81L412.87 18.04L407.61 12.5L405.2 9.96C405.12 9.89 405.04 9.81 404.97 9.74C404.08 8.82 403.14 7.96 402.15 7.16C401.15 6.35 400.1 5.6 399.02 4.92C397.9 4.22 396.73 3.59 395.54 3.04C394.29 2.45 393.01 1.95 391.7 1.53C390.31 1.08 388.88 0.74 387.43 0.48C385.84 0.21 384.22 0.0500005 382.59 0.0200005C382.39 0.0200005 382.2 0 382 0L447 9.34601e-05C447 9.34601e-05 512 -6.10352e-05 519.91 3.8147e-05Z" fill="#121212"/>
</g>
<defs>
<linearGradient id="paint0_linear_1186_2485" x1="520" y1="539.548" x2="-71.9387" y2="113.021" gradientUnits="userSpaceOnUse">
<stop stop-color="#1A2613"/>
<stop offset="0.489"/>
<stop offset="1" stop-color="#001D2B"/>
</linearGradient>
<linearGradient id="paint1_linear_1186_2485" x1="36.5226" y1="117.149" x2="411.302" y2="474.685" gradientUnits="userSpaceOnUse">
<stop stop-color="#14FF87" stop-opacity="0.76"/>
<stop offset="1" stop-color="#CAFE15"/>
</linearGradient>
<linearGradient id="paint2_linear_1186_2485" x1="36.5226" y1="117.149" x2="411.302" y2="474.685" gradientUnits="userSpaceOnUse">
<stop stop-color="#14FF87" stop-opacity="0.76"/>
<stop offset="1" stop-color="#CAFE15"/>
</linearGradient>
<linearGradient id="paint3_linear_1186_2485" x1="0" y1="0" x2="190.319" y2="156.826" gradientUnits="userSpaceOnUse">
<stop stop-color="#66BE53"/>
<stop offset="1" stop-color="#419F2D"/>
</linearGradient>
<linearGradient id="paint4_linear_1186_2485" x1="160.849" y1="132.466" x2="31.5138" y2="13.8272" gradientUnits="userSpaceOnUse">
<stop stop-color="#14FF87" stop-opacity="0.76"/>
<stop offset="1" stop-color="#CAFE15"/>
</linearGradient>
<clipPath id="clip0_1186_2485">
<rect width="137.91" height="71.72" fill="white" transform="translate(382)"/>
</clipPath>
</defs>
</svg>
