<svg width="216" height="216" viewBox="0 0 216 216" fill="none" xmlns="http://www.w3.org/2000/svg">
<rect x="1" y="1" width="214" height="214" rx="31" fill="url(#paint0_linear_991_566)" stroke="url(#paint1_linear_991_566)" stroke-width="2"/>
<path d="M66.5 67.15C66.6667 67.05 66.9167 67 67.25 67H73.3C73.4667 67 73.6 67.0667 73.7 67.2C73.8333 67.3 73.9 67.4333 73.9 67.6V101.4C73.9 101.567 73.8333 101.717 73.7 101.85C73.6 101.95 73.4667 102 73.3 102H67.45C67.2833 102 67.1333 101.95 67 101.85C66.9 101.717 66.85 101.567 66.85 101.4V74C66.85 73.9333 66.8167 73.8667 66.75 73.8C66.6833 73.7333 66.6167 73.7167 66.55 73.75L61.6 75.1L61.4 75.15C61.1 75.15 60.95 74.9667 60.95 74.6L60.8 70.3C60.8 69.9667 60.95 69.7333 61.25 69.6L66.5 67.15ZM89.9258 102.55C86.2591 102.55 83.3591 101.533 81.2258 99.5C79.0924 97.4333 78.0258 94.6333 78.0258 91.1V77.9C78.0258 74.4333 79.0924 71.6833 81.2258 69.65C83.3591 67.6167 86.2591 66.6 89.9258 66.6C93.5924 66.6 96.4924 67.6167 98.6258 69.65C100.792 71.6833 101.876 74.4333 101.876 77.9V91.1C101.876 94.6333 100.792 97.4333 98.6258 99.5C96.4924 101.533 93.5924 102.55 89.9258 102.55ZM89.9258 96.5C91.4258 96.5 92.6091 96.05 93.4758 95.15C94.3758 94.2167 94.8258 92.9833 94.8258 91.45V77.7C94.8258 76.1667 94.3758 74.95 93.4758 74.05C92.6091 73.1167 91.4258 72.65 89.9258 72.65C88.4591 72.65 87.2758 73.1167 86.3758 74.05C85.5091 74.95 85.0758 76.1667 85.0758 77.7V91.45C85.0758 92.9833 85.5091 94.2167 86.3758 95.15C87.2758 96.05 88.4591 96.5 89.9258 96.5ZM117.491 102.55C113.825 102.55 110.925 101.533 108.791 99.5C106.658 97.4333 105.591 94.6333 105.591 91.1V77.9C105.591 74.4333 106.658 71.6833 108.791 69.65C110.925 67.6167 113.825 66.6 117.491 66.6C121.158 66.6 124.058 67.6167 126.191 69.65C128.358 71.6833 129.441 74.4333 129.441 77.9V91.1C129.441 94.6333 128.358 97.4333 126.191 99.5C124.058 101.533 121.158 102.55 117.491 102.55ZM117.491 96.5C118.991 96.5 120.175 96.05 121.041 95.15C121.941 94.2167 122.391 92.9833 122.391 91.45V77.7C122.391 76.1667 121.941 74.95 121.041 74.05C120.175 73.1167 118.991 72.65 117.491 72.65C116.025 72.65 114.841 73.1167 113.941 74.05C113.075 74.95 112.641 76.1667 112.641 77.7V91.45C112.641 92.9833 113.075 94.2167 113.941 95.15C114.841 96.05 116.025 96.5 117.491 96.5ZM153.107 83.95C153.274 83.95 153.407 84.0167 153.507 84.15C153.64 84.25 153.707 84.3833 153.707 84.55V89.4C153.707 89.5667 153.64 89.7167 153.507 89.85C153.407 89.95 153.274 90 153.107 90H146.257C146.09 90 146.007 90.0833 146.007 90.25V97C146.007 97.1667 145.94 97.3167 145.807 97.45C145.707 97.55 145.574 97.6 145.407 97.6H140.607C140.44 97.6 140.29 97.55 140.157 97.45C140.057 97.3167 140.007 97.1667 140.007 97V90.25C140.007 90.0833 139.924 90 139.757 90H132.907C132.74 90 132.59 89.95 132.457 89.85C132.357 89.7167 132.307 89.5667 132.307 89.4V84.55C132.307 84.3833 132.357 84.25 132.457 84.15C132.59 84.0167 132.74 83.95 132.907 83.95H139.757C139.924 83.95 140.007 83.8667 140.007 83.7V76.8C140.007 76.6333 140.057 76.5 140.157 76.4C140.29 76.2667 140.44 76.2 140.607 76.2H145.407C145.574 76.2 145.707 76.2667 145.807 76.4C145.94 76.5 146.007 76.6333 146.007 76.8V83.7C146.007 83.8667 146.09 83.95 146.257 83.95H153.107Z" fill="white"/>
<path d="M45.648 127.2C45.808 127.2 45.888 127.28 45.888 127.44V128.976C45.888 129.136 45.808 129.216 45.648 129.216H41.04C40.976 129.216 40.944 129.248 40.944 129.312V143.76C40.944 143.92 40.864 144 40.704 144H38.88C38.72 144 38.64 143.92 38.64 143.76V129.312C38.64 129.248 38.608 129.216 38.544 129.216H34.152C33.992 129.216 33.912 129.136 33.912 128.976V127.44C33.912 127.28 33.992 127.2 34.152 127.2H45.648ZM56.0886 136.368C56.1526 137.024 56.1766 137.76 56.1606 138.576C56.1606 138.736 56.0806 138.816 55.9206 138.816H48.2646C48.2006 138.816 48.1686 138.848 48.1686 138.912C48.1686 139.456 48.2166 139.872 48.3126 140.16C48.4886 140.8 48.8406 141.304 49.3686 141.672C49.9126 142.024 50.5926 142.2 51.4086 142.2C52.5926 142.2 53.5046 141.712 54.1446 140.736C54.2246 140.576 54.3286 140.552 54.4566 140.664L55.8246 141.576C55.9366 141.672 55.9606 141.776 55.8966 141.888C55.4486 142.608 54.8086 143.176 53.9766 143.592C53.1606 144.008 52.2326 144.216 51.1926 144.216C50.0246 144.216 49.0406 143.96 48.2406 143.448C47.4406 142.936 46.8406 142.208 46.4406 141.264C46.0566 140.32 45.8646 139.176 45.8646 137.832C45.8646 136.664 45.9526 135.776 46.1286 135.168C46.4166 134.064 46.9926 133.192 47.8566 132.552C48.7206 131.912 49.7686 131.592 51.0006 131.592C52.6166 131.592 53.8246 132 54.6246 132.816C55.4246 133.616 55.9126 134.8 56.0886 136.368ZM51.0006 133.584C50.3126 133.584 49.7446 133.76 49.2966 134.112C48.8486 134.448 48.5446 134.904 48.3846 135.48C48.2726 135.832 48.2006 136.28 48.1686 136.824C48.1686 136.888 48.2006 136.92 48.2646 136.92H53.7606C53.8246 136.92 53.8566 136.888 53.8566 136.824C53.8246 136.296 53.7766 135.904 53.7126 135.648C53.5526 135.024 53.2326 134.528 52.7526 134.16C52.2886 133.776 51.7046 133.584 51.0006 133.584ZM62.9586 131.592C63.9346 131.592 64.7826 131.768 65.5026 132.12C66.2386 132.456 66.7986 132.936 67.1826 133.56C67.5826 134.168 67.7826 134.864 67.7826 135.648V143.76C67.7826 143.92 67.7026 144 67.5426 144H65.7186C65.5586 144 65.4786 143.92 65.4786 143.76V142.896C65.4786 142.816 65.4386 142.8 65.3586 142.848C64.9426 143.28 64.4306 143.616 63.8226 143.856C63.2306 144.08 62.5666 144.192 61.8306 144.192C60.6466 144.192 59.6626 143.896 58.8786 143.304C58.1106 142.696 57.7266 141.784 57.7266 140.568C57.7266 139.32 58.1586 138.344 59.0226 137.64C59.9026 136.92 61.1266 136.56 62.6946 136.56H65.3826C65.4466 136.56 65.4786 136.528 65.4786 136.464V135.816C65.4786 135.112 65.2706 134.568 64.8546 134.184C64.4546 133.784 63.8386 133.584 63.0066 133.584C62.3346 133.584 61.7826 133.72 61.3506 133.992C60.9346 134.248 60.6786 134.6 60.5826 135.048C60.5346 135.208 60.4386 135.28 60.2946 135.264L58.3506 135C58.1906 134.968 58.1186 134.904 58.1346 134.808C58.2626 133.864 58.7666 133.096 59.6466 132.504C60.5266 131.896 61.6306 131.592 62.9586 131.592ZM62.3346 142.248C63.1826 142.248 63.9186 142.024 64.5426 141.576C65.1666 141.128 65.4786 140.56 65.4786 139.872V138.456C65.4786 138.392 65.4466 138.36 65.3826 138.36H63.1266C62.1826 138.36 61.4306 138.544 60.8706 138.912C60.3106 139.28 60.0306 139.792 60.0306 140.448C60.0306 141.04 60.2386 141.488 60.6546 141.792C61.0866 142.096 61.6466 142.248 62.3346 142.248ZM83.133 131.616C84.349 131.616 85.309 131.984 86.013 132.72C86.717 133.44 87.069 134.448 87.069 135.744V143.76C87.069 143.92 86.989 144 86.829 144H85.029C84.869 144 84.789 143.92 84.789 143.76V136.224C84.789 135.424 84.565 134.792 84.117 134.328C83.685 133.848 83.101 133.608 82.365 133.608C81.629 133.608 81.029 133.84 80.565 134.304C80.101 134.768 79.869 135.392 79.869 136.176V143.76C79.869 143.92 79.789 144 79.629 144H77.829C77.669 144 77.589 143.92 77.589 143.76V136.224C77.589 135.424 77.365 134.792 76.917 134.328C76.485 133.848 75.901 133.608 75.165 133.608C74.429 133.608 73.837 133.84 73.389 134.304C72.957 134.768 72.741 135.392 72.741 136.176V143.76C72.741 143.92 72.661 144 72.501 144H70.677C70.517 144 70.437 143.92 70.437 143.76V132.024C70.437 131.864 70.517 131.784 70.677 131.784H72.501C72.661 131.784 72.741 131.864 72.741 132.024V132.84C72.741 132.872 72.749 132.896 72.765 132.912C72.797 132.928 72.829 132.92 72.861 132.888C73.565 132.04 74.589 131.616 75.933 131.616C76.749 131.616 77.445 131.776 78.021 132.096C78.597 132.4 79.045 132.856 79.365 133.464C79.413 133.528 79.461 133.528 79.509 133.464C79.893 132.84 80.397 132.376 81.021 132.072C81.661 131.768 82.365 131.616 83.133 131.616ZM99.6298 144.192C98.3978 144.192 97.3258 144 96.4138 143.616C95.5178 143.232 94.8218 142.688 94.3258 141.984C93.8458 141.28 93.6058 140.456 93.6058 139.512V138.816C93.6058 138.656 93.6858 138.576 93.8458 138.576H95.5978C95.7578 138.576 95.8378 138.656 95.8378 138.816V139.392C95.8378 140.208 96.1898 140.88 96.8938 141.408C97.5978 141.936 98.5658 142.2 99.7978 142.2C100.902 142.2 101.734 141.968 102.294 141.504C102.854 141.04 103.134 140.432 103.134 139.68C103.134 139.184 102.99 138.76 102.702 138.408C102.414 138.056 101.99 137.736 101.43 137.448C100.886 137.144 100.086 136.784 99.0298 136.368C97.8618 135.92 96.9338 135.512 96.2458 135.144C95.5738 134.776 95.0138 134.296 94.5658 133.704C94.1178 133.096 93.8938 132.336 93.8938 131.424C93.8938 130.048 94.3818 128.968 95.3578 128.184C96.3498 127.4 97.6858 127.008 99.3658 127.008C100.55 127.008 101.59 127.208 102.486 127.608C103.382 128.008 104.07 128.568 104.55 129.288C105.046 130.008 105.294 130.84 105.294 131.784V132.264C105.294 132.424 105.214 132.504 105.054 132.504H103.254C103.094 132.504 103.014 132.424 103.014 132.264V131.904C103.014 131.072 102.678 130.384 102.006 129.84C101.35 129.28 100.438 129 99.2698 129C98.2778 129 97.5098 129.208 96.9658 129.624C96.4218 130.024 96.1498 130.608 96.1498 131.376C96.1498 131.904 96.2858 132.336 96.5578 132.672C96.8298 133.008 97.2298 133.312 97.7578 133.584C98.3018 133.84 99.1258 134.176 100.23 134.592C101.366 135.04 102.286 135.456 102.99 135.84C103.694 136.208 104.278 136.704 104.742 137.328C105.206 137.936 105.438 138.696 105.438 139.608C105.438 141.016 104.918 142.136 103.878 142.968C102.854 143.784 101.438 144.192 99.6298 144.192ZM113.835 133.44C113.835 133.6 113.755 133.68 113.595 133.68H111.003C110.939 133.68 110.907 133.712 110.907 133.776V140.136C110.907 140.808 111.059 141.296 111.363 141.6C111.667 141.888 112.139 142.032 112.779 142.032H113.475C113.635 142.032 113.715 142.112 113.715 142.272V143.76C113.715 143.92 113.635 144 113.475 144C112.963 144.032 112.595 144.048 112.371 144.048C111.155 144.048 110.235 143.832 109.611 143.4C109.003 142.952 108.699 142.136 108.699 140.952V133.776C108.699 133.712 108.667 133.68 108.603 133.68H107.139C106.979 133.68 106.899 133.6 106.899 133.44V132.024C106.899 131.864 106.979 131.784 107.139 131.784H108.603C108.667 131.784 108.699 131.752 108.699 131.688V128.856C108.699 128.696 108.779 128.616 108.939 128.616H110.667C110.827 128.616 110.907 128.696 110.907 128.856V131.688C110.907 131.752 110.939 131.784 111.003 131.784H113.595C113.755 131.784 113.835 131.864 113.835 132.024V133.44ZM121.567 131.664C122.079 131.664 122.543 131.768 122.959 131.976C123.071 132.024 123.111 132.12 123.079 132.264L122.695 134.064C122.679 134.208 122.583 134.256 122.407 134.208C122.135 134.096 121.815 134.04 121.447 134.04L121.111 134.064C120.359 134.096 119.735 134.36 119.239 134.856C118.759 135.336 118.519 135.968 118.519 136.752V143.76C118.519 143.92 118.439 144 118.279 144H116.455C116.295 144 116.215 143.92 116.215 143.76V132.024C116.215 131.864 116.295 131.784 116.455 131.784H118.279C118.439 131.784 118.519 131.864 118.519 132.024V133.296C118.519 133.344 118.527 133.376 118.543 133.392C118.575 133.392 118.599 133.376 118.615 133.344C119.335 132.224 120.319 131.664 121.567 131.664ZM134.365 136.368C134.429 137.024 134.453 137.76 134.437 138.576C134.437 138.736 134.357 138.816 134.197 138.816H126.541C126.477 138.816 126.445 138.848 126.445 138.912C126.445 139.456 126.493 139.872 126.589 140.16C126.765 140.8 127.117 141.304 127.645 141.672C128.189 142.024 128.869 142.2 129.685 142.2C130.869 142.2 131.781 141.712 132.421 140.736C132.501 140.576 132.605 140.552 132.733 140.664L134.101 141.576C134.213 141.672 134.237 141.776 134.173 141.888C133.725 142.608 133.085 143.176 132.253 143.592C131.437 144.008 130.509 144.216 129.469 144.216C128.301 144.216 127.317 143.96 126.517 143.448C125.717 142.936 125.117 142.208 124.717 141.264C124.333 140.32 124.141 139.176 124.141 137.832C124.141 136.664 124.229 135.776 124.405 135.168C124.693 134.064 125.269 133.192 126.133 132.552C126.997 131.912 128.045 131.592 129.277 131.592C130.893 131.592 132.101 132 132.901 132.816C133.701 133.616 134.189 134.8 134.365 136.368ZM129.277 133.584C128.589 133.584 128.021 133.76 127.573 134.112C127.125 134.448 126.821 134.904 126.661 135.48C126.549 135.832 126.477 136.28 126.445 136.824C126.445 136.888 126.477 136.92 126.541 136.92H132.037C132.101 136.92 132.133 136.888 132.133 136.824C132.101 136.296 132.053 135.904 131.989 135.648C131.829 135.024 131.509 134.528 131.029 134.16C130.565 133.776 129.981 133.584 129.277 133.584ZM142.337 131.616C143.649 131.616 144.689 132 145.457 132.768C146.225 133.52 146.609 134.544 146.609 135.84V143.76C146.609 143.92 146.529 144 146.369 144H144.545C144.385 144 144.305 143.92 144.305 143.76V136.296C144.305 135.496 144.073 134.848 143.609 134.352C143.145 133.856 142.529 133.608 141.761 133.608C141.009 133.608 140.393 133.856 139.913 134.352C139.433 134.848 139.193 135.488 139.193 136.272V143.76C139.193 143.92 139.113 144 138.953 144H137.129C136.969 144 136.889 143.92 136.889 143.76V132.024C136.889 131.864 136.969 131.784 137.129 131.784H138.953C139.113 131.784 139.193 131.864 139.193 132.024V132.888C139.193 132.92 139.201 132.944 139.217 132.96C139.249 132.976 139.273 132.968 139.289 132.936C139.977 132.056 140.993 131.616 142.337 131.616ZM156.952 132.024C156.952 131.864 157.032 131.784 157.192 131.784H159.016C159.176 131.784 159.256 131.864 159.256 132.024V143.376C159.256 145.312 158.704 146.696 157.6 147.528C156.512 148.36 155.048 148.776 153.208 148.776C152.952 148.776 152.552 148.76 152.008 148.728C151.848 148.712 151.768 148.624 151.768 148.464L151.84 146.808C151.84 146.744 151.864 146.688 151.912 146.64C151.96 146.592 152.024 146.576 152.104 146.592C152.328 146.608 152.656 146.616 153.088 146.616C154.448 146.616 155.432 146.36 156.04 145.848C156.648 145.352 156.952 144.504 156.952 143.304V142.872C156.952 142.84 156.936 142.816 156.904 142.8C156.888 142.784 156.864 142.792 156.832 142.824C156.16 143.608 155.176 144 153.88 144C152.84 144 151.896 143.728 151.048 143.184C150.216 142.64 149.64 141.84 149.32 140.784C149.112 140.08 149.008 139.104 149.008 137.856C149.008 136.528 149.128 135.504 149.368 134.784C149.672 133.824 150.208 133.056 150.976 132.48C151.76 131.888 152.68 131.592 153.736 131.592C155.048 131.592 156.08 131.992 156.832 132.792C156.864 132.824 156.888 132.84 156.904 132.84C156.936 132.824 156.952 132.8 156.952 132.768V132.024ZM156.808 140.088C156.856 139.832 156.888 139.56 156.904 139.272C156.936 138.984 156.952 138.504 156.952 137.832C156.952 137.16 156.936 136.688 156.904 136.416C156.888 136.128 156.848 135.856 156.784 135.6C156.656 135.008 156.368 134.528 155.92 134.16C155.472 133.776 154.912 133.584 154.24 133.584C153.568 133.584 153.008 133.776 152.56 134.16C152.112 134.528 151.792 135.008 151.6 135.6C151.424 136.08 151.336 136.824 151.336 137.832C151.336 138.936 151.416 139.688 151.576 140.088C151.736 140.68 152.048 141.168 152.512 141.552C152.992 141.92 153.568 142.104 154.24 142.104C154.944 142.104 155.512 141.92 155.944 141.552C156.392 141.168 156.68 140.68 156.808 140.088ZM168.04 133.44C168.04 133.6 167.96 133.68 167.8 133.68H165.208C165.144 133.68 165.112 133.712 165.112 133.776V140.136C165.112 140.808 165.264 141.296 165.568 141.6C165.872 141.888 166.344 142.032 166.984 142.032H167.68C167.84 142.032 167.92 142.112 167.92 142.272V143.76C167.92 143.92 167.84 144 167.68 144C167.168 144.032 166.8 144.048 166.576 144.048C165.36 144.048 164.44 143.832 163.816 143.4C163.208 142.952 162.904 142.136 162.904 140.952V133.776C162.904 133.712 162.872 133.68 162.808 133.68H161.344C161.184 133.68 161.104 133.6 161.104 133.44V132.024C161.104 131.864 161.184 131.784 161.344 131.784H162.808C162.872 131.784 162.904 131.752 162.904 131.688V128.856C162.904 128.696 162.984 128.616 163.144 128.616H164.872C165.032 128.616 165.112 128.696 165.112 128.856V131.688C165.112 131.752 165.144 131.784 165.208 131.784H167.8C167.96 131.784 168.04 131.864 168.04 132.024V133.44ZM175.867 131.616C177.179 131.616 178.219 132 178.987 132.768C179.755 133.52 180.139 134.544 180.139 135.84V143.76C180.139 143.92 180.059 144 179.899 144H178.075C177.915 144 177.835 143.92 177.835 143.76V136.296C177.835 135.496 177.603 134.848 177.139 134.352C176.675 133.856 176.059 133.608 175.291 133.608C174.539 133.608 173.923 133.856 173.443 134.352C172.963 134.848 172.723 135.488 172.723 136.272V143.76C172.723 143.92 172.643 144 172.483 144H170.659C170.499 144 170.419 143.92 170.419 143.76V127.44C170.419 127.28 170.499 127.2 170.659 127.2H172.483C172.643 127.2 172.723 127.28 172.723 127.44V132.888C172.723 132.92 172.731 132.944 172.747 132.96C172.779 132.976 172.803 132.968 172.819 132.936C173.507 132.056 174.523 131.616 175.867 131.616Z" fill="white"/>
<defs>
<linearGradient id="paint0_linear_991_566" x1="-2.55944e-05" y1="-17.0848" x2="252.39" y2="157.782" gradientUnits="userSpaceOnUse">
<stop stop-color="#1A2613"/>
<stop offset="0.489"/>
<stop offset="1" stop-color="#001D2B"/>
</linearGradient>
<linearGradient id="paint1_linear_991_566" x1="216" y1="210.732" x2="24.1102" y2="-16.684" gradientUnits="userSpaceOnUse">
<stop stop-color="#14FF87" stop-opacity="0.3"/>
<stop offset="1" stop-color="#CAFE15"/>
</linearGradient>
</defs>
</svg>
