<svg width="1920" height="6150" viewBox="0 0 1920 6150" fill="none" xmlns="http://www.w3.org/2000/svg">
<g clip-path="url(#clip0_1690_11010)">
<path d="M1919 6110C1919 6132.09 1901.09 6150 1879 6150H857.814C849.135 6150 840.69 6147.18 833.756 6141.96L739.565 6071.04C732.63 6065.82 724.186 6063 715.506 6063H39C16.9087 6063 -0.999878 6045.09 -0.999878 6023V40C-0.999878 17.9087 16.9087 0 39.0001 0H1879C1901.09 0 1919 17.9087 1919 40V6110Z" fill="#F0F0F0"/>
<g opacity="0.1">
<path fill-rule="evenodd" clip-rule="evenodd" d="M1707.56 6009.45C1614.58 6101.37 1613.64 6251.24 1705.56 6344.34C1797.48 6437.31 1947.35 6438.26 2040.45 6346.33C2133.43 6254.41 2134.37 6104.54 2042.45 6011.45C1950.53 5918.47 1800.66 5917.53 1707.56 6009.45ZM1973.1 6278.28C1917.61 6333.05 1828.28 6332.46 1773.5 6277.1C1718.73 6221.62 1719.31 6132.28 1774.68 6077.51C1830.16 6022.73 1919.49 6023.32 1974.27 6078.68C2029.05 6134.05 2028.46 6223.5 1973.1 6278.28Z" fill="black"/>
<circle cx="1873.42" cy="6177.3" r="84.0991" fill="black"/>
</g>
<path d="M141.719 3682.52L-34.9322 3681.46L52.4677 3834.97L141.719 3682.52Z" stroke="black" stroke-opacity="0.1" stroke-width="4.98102" stroke-miterlimit="10"/>
<path d="M203.645 3729.88L41.5573 3728.9L121.766 3869.73L203.645 3729.88Z" stroke="black" stroke-opacity="0.1" stroke-width="4.98102" stroke-miterlimit="10"/>
<g opacity="0.3" clip-path="url(#clip1_1690_11010)">
<path d="M1820.12 2496.98L1793.5 2523.48L1767.16 2496.71L1739.36 2524.4L1765.61 2551.18L1739 2577.68L1766.52 2605.64L1793.14 2579.23L1819.48 2606.01L1847.28 2578.32L1821.02 2551.54L1847.64 2525.04L1820.12 2496.98Z" fill="black" fill-opacity="0.5"/>
<path d="M1935.48 2382.37L1908.86 2408.78L1882.52 2382L1854.72 2409.69L1880.97 2436.47L1854.36 2462.97L1881.88 2490.94L1908.5 2464.53L1934.84 2491.3L1962.73 2463.61L1936.38 2436.83L1963 2410.33L1935.48 2382.37Z" fill="black" fill-opacity="0.3"/>
</g>
<path d="M73.5793 -28.0703L-15.6641 124.385L160.984 125.452L73.5793 -28.0703Z" stroke="black" stroke-opacity="0.1" stroke-width="4.98102" stroke-miterlimit="10"/>
<path d="M145.558 -58.0195L63.668 81.8642L225.729 82.813L145.558 -58.0195Z" stroke="black" stroke-opacity="0.1" stroke-width="4.98102" stroke-miterlimit="10"/>
<path d="M1990.39 716.352L1747.66 573.92L1745.96 855.851L1990.39 716.352Z" stroke="black" stroke-opacity="0.1" stroke-width="4.98102" stroke-miterlimit="10"/>
<path d="M2038.07 831.231L1815.36 700.534L1813.85 959.184L2038.07 831.231Z" stroke="black" stroke-opacity="0.1" stroke-width="4.98102" stroke-miterlimit="10"/>
<path opacity="0.1" fill-rule="evenodd" clip-rule="evenodd" d="M1797 4128.21C1782.26 4208.79 1835.58 4286.09 1916.21 4300.89C1996.79 4315.64 2074.09 4262.31 2088.89 4181.69C2103.63 4101.1 2050.31 4023.81 1969.69 4009C1889.1 3994.26 1811.81 4047.58 1797 4128.21ZM2029.87 4170.92C2021.05 4218.97 1974.96 4250.74 1926.96 4241.97C1878.91 4233.15 1847.14 4187.06 1855.9 4139.06C1864.73 4091.01 1910.81 4059.24 1958.82 4068.01C2006.82 4076.77 2038.63 4122.92 2029.87 4170.92Z" fill="black"/>
<path opacity="0.1" fill-rule="evenodd" clip-rule="evenodd" d="M-407.35 1346.65C-437.406 1510.92 -328.704 1668.5 -164.348 1698.67C-0.0770908 1728.73 157.496 1620.03 187.675 1455.67C217.731 1291.4 109.029 1133.83 -55.3273 1103.65C-219.598 1073.59 -377.171 1182.3 -407.35 1346.65ZM67.3588 1433.72C49.3698 1531.67 -44.5758 1596.43 -142.435 1578.57C-240.38 1560.58 -305.146 1466.63 -287.28 1368.77C-269.291 1270.83 -175.345 1206.06 -77.4863 1223.93C20.3726 1241.8 85.2247 1335.86 67.3588 1433.72Z" fill="black"/>
</g>
<defs>
<clipPath id="clip0_1690_11010">
<rect width="1920" height="6150" fill="white"/>
</clipPath>
<clipPath id="clip1_1690_11010">
<rect width="224" height="224" fill="white" transform="translate(1739 2382)"/>
</clipPath>
</defs>
</svg>
