<svg width="472" height="96" viewBox="0 0 472 96" fill="none" xmlns="http://www.w3.org/2000/svg">
<path d="M0 16C0 7.16345 7.16344 0 16 0H456C464.837 0 472 7.16344 472 16V80C472 88.8366 464.837 96 456 96H16C7.16344 96 0 88.8366 0 80V16Z" fill="url(#paint0_linear_1029_9465)"/>
<circle cx="48" cy="48" r="35" fill="url(#paint1_linear_1029_9465)" stroke="url(#paint2_linear_1029_9465)" stroke-width="2"/>
<path d="M100.955 42.196V39.5455H114.881V42.196H109.486V57H106.349V42.196H100.955ZM115.614 57V43.9091H118.605V46.0909H118.741C118.98 45.3352 119.389 44.7528 119.969 44.3438C120.554 43.929 121.222 43.7216 121.972 43.7216C122.142 43.7216 122.332 43.7301 122.543 43.7472C122.758 43.7585 122.937 43.7784 123.08 43.8068V46.6449C122.949 46.5994 122.741 46.5597 122.457 46.5256C122.179 46.4858 121.909 46.4659 121.648 46.4659C121.085 46.4659 120.58 46.5881 120.131 46.8324C119.687 47.071 119.338 47.4034 119.082 47.8295C118.827 48.2557 118.699 48.7472 118.699 49.304V57H115.614ZM128.206 57.2642C127.376 57.2642 126.629 57.1165 125.964 56.821C125.305 56.5199 124.783 56.0767 124.396 55.4915C124.016 54.9062 123.825 54.1847 123.825 53.3267C123.825 52.5881 123.962 51.9773 124.234 51.4943C124.507 51.0114 124.879 50.625 125.351 50.3352C125.822 50.0455 126.354 49.8267 126.945 49.679C127.541 49.5256 128.158 49.4148 128.794 49.3466C129.561 49.267 130.183 49.196 130.66 49.1335C131.138 49.0653 131.484 48.9631 131.7 48.8267C131.922 48.6847 132.033 48.4659 132.033 48.1705V48.1193C132.033 47.4773 131.842 46.9801 131.462 46.6278C131.081 46.2756 130.533 46.0994 129.817 46.0994C129.061 46.0994 128.462 46.2642 128.018 46.5938C127.581 46.9233 127.285 47.3125 127.132 47.7614L124.251 47.3523C124.479 46.5568 124.854 45.892 125.376 45.358C125.899 44.8182 126.538 44.4148 127.294 44.1477C128.05 43.875 128.885 43.7386 129.8 43.7386C130.43 43.7386 131.058 43.8125 131.683 43.9602C132.308 44.108 132.879 44.3523 133.396 44.6932C133.913 45.0284 134.328 45.4858 134.641 46.0653C134.959 46.6449 135.118 47.3693 135.118 48.2386V57H132.152V55.2017H132.05C131.862 55.5653 131.598 55.9062 131.257 56.2244C130.922 56.5369 130.499 56.7898 129.987 56.983C129.481 57.1705 128.888 57.2642 128.206 57.2642ZM129.007 54.9972C129.626 54.9972 130.163 54.875 130.618 54.6307C131.072 54.3807 131.422 54.0511 131.666 53.642C131.916 53.233 132.041 52.7869 132.041 52.304V50.7614C131.945 50.8409 131.78 50.9148 131.547 50.983C131.32 51.0511 131.064 51.1108 130.78 51.1619C130.496 51.2131 130.214 51.2585 129.936 51.2983C129.658 51.3381 129.416 51.3722 129.212 51.4006C128.751 51.4631 128.339 51.5653 127.976 51.7074C127.612 51.8494 127.325 52.0483 127.115 52.304C126.905 52.554 126.8 52.8778 126.8 53.2756C126.8 53.8438 127.007 54.2727 127.422 54.5625C127.837 54.8523 128.365 54.9972 129.007 54.9972ZM140.849 49.3295V57H137.764V43.9091H140.713V46.1335H140.866C141.168 45.4006 141.648 44.8182 142.307 44.3864C142.971 43.9545 143.793 43.7386 144.77 43.7386C145.673 43.7386 146.46 43.9318 147.131 44.3182C147.807 44.7045 148.329 45.2642 148.699 45.9972C149.074 46.7301 149.258 47.6193 149.253 48.6648V57H146.168V49.142C146.168 48.267 145.94 47.5824 145.486 47.0881C145.037 46.5937 144.415 46.3466 143.619 46.3466C143.079 46.3466 142.599 46.4659 142.179 46.7045C141.764 46.9375 141.437 47.2756 141.199 47.7188C140.966 48.1619 140.849 48.6989 140.849 49.3295ZM162.28 47.3693L159.467 47.6761C159.388 47.392 159.248 47.125 159.05 46.875C158.856 46.625 158.595 46.4233 158.265 46.2699C157.936 46.1165 157.533 46.0398 157.055 46.0398C156.413 46.0398 155.873 46.179 155.436 46.4574C155.004 46.7358 154.791 47.0966 154.797 47.5398C154.791 47.9205 154.93 48.2301 155.214 48.4688C155.504 48.7074 155.981 48.9034 156.646 49.0568L158.879 49.5341C160.118 49.8011 161.038 50.2244 161.64 50.804C162.248 51.3835 162.555 52.142 162.561 53.0795C162.555 53.9034 162.314 54.6307 161.837 55.2614C161.365 55.8864 160.709 56.375 159.868 56.7273C159.027 57.0795 158.061 57.2557 156.97 57.2557C155.368 57.2557 154.078 56.9205 153.101 56.25C152.123 55.5739 151.541 54.6335 151.354 53.429L154.362 53.1392C154.498 53.7301 154.788 54.1761 155.231 54.4773C155.675 54.7784 156.251 54.929 156.962 54.929C157.694 54.929 158.283 54.7784 158.726 54.4773C159.175 54.1761 159.399 53.804 159.399 53.3608C159.399 52.9858 159.254 52.6761 158.964 52.4318C158.68 52.1875 158.237 52 157.635 51.8693L155.402 51.4006C154.146 51.1392 153.217 50.6989 152.615 50.0795C152.013 49.4545 151.714 48.6648 151.72 47.7102C151.714 46.9034 151.933 46.2045 152.376 45.6136C152.825 45.017 153.447 44.5568 154.243 44.233C155.044 43.9034 155.967 43.7386 157.013 43.7386C158.547 43.7386 159.754 44.0653 160.635 44.7188C161.521 45.3722 162.069 46.2557 162.28 47.3693ZM164.649 61.9091V43.9091H167.683V46.0739H167.862C168.021 45.7557 168.246 45.4176 168.535 45.0597C168.825 44.696 169.217 44.3864 169.711 44.1307C170.206 43.8693 170.836 43.7386 171.604 43.7386C172.615 43.7386 173.527 43.9972 174.339 44.5142C175.158 45.0256 175.805 45.7841 176.283 46.7898C176.765 47.7898 177.007 49.017 177.007 50.4716C177.007 51.9091 176.771 53.1307 176.3 54.1364C175.828 55.142 175.186 55.9091 174.373 56.4375C173.561 56.9659 172.64 57.2301 171.612 57.2301C170.862 57.2301 170.24 57.1051 169.746 56.8551C169.251 56.6051 168.854 56.304 168.552 55.9517C168.257 55.5937 168.027 55.2557 167.862 54.9375H167.734V61.9091H164.649ZM167.675 50.4545C167.675 51.3011 167.794 52.0426 168.033 52.679C168.277 53.3153 168.626 53.8125 169.081 54.1705C169.541 54.5227 170.098 54.6989 170.751 54.6989C171.433 54.6989 172.004 54.517 172.464 54.1534C172.925 53.7841 173.271 53.2812 173.504 52.6449C173.743 52.0028 173.862 51.2727 173.862 50.4545C173.862 49.642 173.746 48.9205 173.513 48.2898C173.28 47.6591 172.933 47.1648 172.473 46.8068C172.013 46.4489 171.439 46.2699 170.751 46.2699C170.092 46.2699 169.533 46.4432 169.072 46.7898C168.612 47.1364 168.263 47.6222 168.024 48.2472C167.791 48.8722 167.675 49.608 167.675 50.4545ZM182.96 57.2642C182.13 57.2642 181.383 57.1165 180.719 56.821C180.059 56.5199 179.537 56.0767 179.15 55.4915C178.77 54.9062 178.579 54.1847 178.579 53.3267C178.579 52.5881 178.716 51.9773 178.988 51.4943C179.261 51.0114 179.633 50.625 180.105 50.3352C180.577 50.0455 181.108 49.8267 181.699 49.679C182.295 49.5256 182.912 49.4148 183.548 49.3466C184.315 49.267 184.937 49.196 185.415 49.1335C185.892 49.0653 186.238 48.9631 186.454 48.8267C186.676 48.6847 186.787 48.4659 186.787 48.1705V48.1193C186.787 47.4773 186.596 46.9801 186.216 46.6278C185.835 46.2756 185.287 46.0994 184.571 46.0994C183.815 46.0994 183.216 46.2642 182.773 46.5938C182.335 46.9233 182.04 47.3125 181.886 47.7614L179.005 47.3523C179.233 46.5568 179.608 45.892 180.13 45.358C180.653 44.8182 181.292 44.4148 182.048 44.1477C182.804 43.875 183.639 43.7386 184.554 43.7386C185.184 43.7386 185.812 43.8125 186.437 43.9602C187.062 44.108 187.633 44.3523 188.15 44.6932C188.667 45.0284 189.082 45.4858 189.395 46.0653C189.713 46.6449 189.872 47.3693 189.872 48.2386V57H186.906V55.2017H186.804C186.616 55.5653 186.352 55.9062 186.011 56.2244C185.676 56.5369 185.253 56.7898 184.741 56.983C184.236 57.1705 183.642 57.2642 182.96 57.2642ZM183.761 54.9972C184.38 54.9972 184.917 54.875 185.372 54.6307C185.827 54.3807 186.176 54.0511 186.42 53.642C186.67 53.233 186.795 52.7869 186.795 52.304V50.7614C186.699 50.8409 186.534 50.9148 186.301 50.983C186.074 51.0511 185.818 51.1108 185.534 51.1619C185.25 51.2131 184.969 51.2585 184.69 51.2983C184.412 51.3381 184.17 51.3722 183.966 51.4006C183.505 51.4631 183.094 51.5653 182.73 51.7074C182.366 51.8494 182.079 52.0483 181.869 52.304C181.659 52.554 181.554 52.8778 181.554 53.2756C181.554 53.8438 181.761 54.2727 182.176 54.5625C182.591 54.8523 183.119 54.9972 183.761 54.9972ZM192.518 57V43.9091H195.51V46.0909H195.646C195.885 45.3352 196.294 44.7528 196.873 44.3438C197.459 43.929 198.126 43.7216 198.876 43.7216C199.047 43.7216 199.237 43.7301 199.447 43.7472C199.663 43.7585 199.842 43.7784 199.984 43.8068V46.6449C199.853 46.5994 199.646 46.5597 199.362 46.5256C199.084 46.4858 198.814 46.4659 198.552 46.4659C197.99 46.4659 197.484 46.5881 197.035 46.8324C196.592 47.071 196.243 47.4034 195.987 47.8295C195.731 48.2557 195.603 48.7472 195.603 49.304V57H192.518ZM206.834 57.2557C205.522 57.2557 204.388 56.983 203.434 56.4375C202.485 55.8864 201.755 55.108 201.243 54.1023C200.732 53.0909 200.476 51.9006 200.476 50.5312C200.476 49.1847 200.732 48.0028 201.243 46.9858C201.76 45.9631 202.482 45.1676 203.408 44.5994C204.334 44.0256 205.422 43.7386 206.672 43.7386C207.479 43.7386 208.24 43.8693 208.956 44.1307C209.678 44.3864 210.314 44.7841 210.865 45.3239C211.422 45.8636 211.86 46.5511 212.178 47.3864C212.496 48.2159 212.655 49.2045 212.655 50.3523V51.2983H201.925V49.2188H209.698C209.692 48.6278 209.564 48.1023 209.314 47.642C209.064 47.1761 208.715 46.8097 208.266 46.5426C207.823 46.2756 207.306 46.142 206.715 46.142C206.084 46.142 205.53 46.2955 205.053 46.6023C204.576 46.9034 204.204 47.3011 203.937 47.7955C203.675 48.2841 203.542 48.821 203.536 49.4062V51.2216C203.536 51.983 203.675 52.6364 203.954 53.1818C204.232 53.7216 204.621 54.1364 205.121 54.4261C205.621 54.7102 206.206 54.8523 206.877 54.8523C207.326 54.8523 207.732 54.7898 208.096 54.6648C208.459 54.5341 208.775 54.3438 209.042 54.0938C209.309 53.8438 209.51 53.5341 209.647 53.1648L212.527 53.4886C212.346 54.25 211.999 54.9148 211.488 55.483C210.982 56.0455 210.334 56.483 209.544 56.7955C208.755 57.1023 207.851 57.2557 206.834 57.2557ZM217.895 49.3295V57H214.809V43.9091H217.758V46.1335H217.912C218.213 45.4006 218.693 44.8182 219.352 44.3864C220.017 43.9545 220.838 43.7386 221.815 43.7386C222.718 43.7386 223.505 43.9318 224.176 44.3182C224.852 44.7045 225.375 45.2642 225.744 45.9972C226.119 46.7301 226.304 47.6193 226.298 48.6648V57H223.213V49.142C223.213 48.267 222.985 47.5824 222.531 47.0881C222.082 46.5937 221.46 46.3466 220.664 46.3466C220.125 46.3466 219.645 46.4659 219.224 46.7045C218.809 46.9375 218.483 47.2756 218.244 47.7188C218.011 48.1619 217.895 48.6989 217.895 49.3295ZM234.689 57.2557C233.382 57.2557 232.26 56.9688 231.322 56.3949C230.39 55.821 229.672 55.0284 229.166 54.017C228.666 53 228.416 51.8295 228.416 50.5057C228.416 49.1761 228.672 48.0028 229.183 46.9858C229.694 45.9631 230.416 45.1676 231.348 44.5994C232.285 44.0256 233.393 43.7386 234.672 43.7386C235.734 43.7386 236.674 43.9347 237.493 44.3267C238.316 44.7131 238.973 45.2614 239.461 45.9716C239.95 46.6761 240.228 47.5 240.297 48.4432H237.348C237.228 47.8125 236.944 47.2869 236.495 46.8665C236.052 46.4403 235.458 46.2273 234.714 46.2273C234.083 46.2273 233.529 46.3977 233.052 46.7386C232.575 47.0739 232.203 47.5568 231.936 48.1875C231.674 48.8182 231.544 49.5739 231.544 50.4545C231.544 51.3466 231.674 52.1136 231.936 52.7557C232.197 53.392 232.564 53.8835 233.035 54.2301C233.512 54.571 234.072 54.7415 234.714 54.7415C235.169 54.7415 235.575 54.6562 235.933 54.4858C236.297 54.3097 236.601 54.0568 236.845 53.7273C237.089 53.3977 237.257 52.9972 237.348 52.5256H240.297C240.223 53.4517 239.95 54.2727 239.478 54.9886C239.007 55.6989 238.365 56.2557 237.552 56.6591C236.74 57.0568 235.785 57.2557 234.689 57.2557ZM244.292 61.9091C243.871 61.9091 243.482 61.875 243.124 61.8068C242.772 61.7443 242.49 61.6705 242.28 61.5852L242.996 59.1818C243.445 59.3125 243.845 59.375 244.198 59.3693C244.55 59.3636 244.86 59.2528 245.127 59.0369C245.399 58.8267 245.63 58.4744 245.817 57.9801L246.081 57.2727L241.334 43.9091H244.607L247.624 53.7955H247.76L250.786 43.9091H254.067L248.826 58.5852C248.581 59.2784 248.257 59.8722 247.854 60.3665C247.451 60.8665 246.956 61.2472 246.371 61.5085C245.792 61.7756 245.098 61.9091 244.292 61.9091Z" fill="white"/>
<path d="M39.7995 58.8204C41.5071 60.2289 43.5022 61.2467 45.6449 61.8024C46.445 61.8528 47.1924 61.4145 47.9946 61.1542C48.0917 61.1151 48.18 61.0571 48.2547 60.9838C48.3294 60.9105 48.3889 60.8232 48.4298 60.7269C48.4707 60.6305 48.4922 60.5271 48.4932 60.4225C48.4941 60.3178 48.4745 60.214 48.4353 60.117C48.3961 60.0199 48.3382 59.9315 48.2649 59.8569C48.1916 59.7822 48.1042 59.7227 48.0079 59.6818C47.9116 59.6409 47.8082 59.6193 47.7035 59.6184C47.5989 59.6174 47.4951 59.6371 47.398 59.6763C46.8919 59.8816 46.3748 60.0585 45.8489 60.2059C44.0056 59.6991 42.2903 58.8083 40.8153 57.5922C35.5304 53.2158 33.2917 44.7593 35.0178 35.8848C37.4559 36.3324 39.9599 36.2752 42.375 35.7169C43.568 35.4375 44.7308 35.0419 45.8468 34.5359C46.964 35.0429 48.1285 35.4387 49.3233 35.7174C51.7375 36.2761 54.2407 36.3331 56.6779 35.8848C57.3045 39.0454 57.4066 42.2875 56.9802 45.4813C56.9545 45.6887 57.0113 45.8978 57.1384 46.0637C57.2654 46.2296 57.4525 46.339 57.6594 46.3682C57.8663 46.3975 58.0764 46.3443 58.2445 46.2201C58.4126 46.096 58.5251 45.9108 58.558 45.7044C59.0431 42.0597 58.8794 38.3579 58.0745 34.7702C58.0519 34.6671 58.009 34.5695 57.9483 34.4831C57.8877 34.3967 57.8104 34.3232 57.7211 34.2669C57.6318 34.2106 57.5322 34.1726 57.4281 34.1551C57.3239 34.1377 57.2174 34.1411 57.1146 34.1651C54.6704 34.7312 52.1293 34.7314 49.685 34.1657C48.48 33.8848 47.3091 33.4735 46.1931 32.939C46.0855 32.887 45.9675 32.86 45.8479 32.8599C45.7283 32.8598 45.6103 32.8866 45.5025 32.9385C44.3867 33.4722 43.2165 33.8837 42.0122 34.1657C39.5674 34.732 37.0255 34.7324 34.5805 34.1667C34.4778 34.1432 34.3714 34.1401 34.2675 34.1578C34.1636 34.1755 34.0642 34.2135 33.975 34.2696C33.8858 34.3258 33.8086 34.399 33.7478 34.4851C33.6869 34.5712 33.6437 34.6685 33.6206 34.7713C31.4807 44.5017 33.9059 53.9409 39.799 58.821L39.7995 58.8204Z" fill="white"/>
<path d="M58.8046 57.6772C62.2221 53.4368 59.0744 46.9072 53.5611 46.9603C49.0471 47.1393 46.9911 50.5234 46.9911 53.5913C46.7909 58.5686 52.879 62.4367 57.6778 58.804L61.7806 62.9073C61.9309 63.0525 62.1322 63.1328 62.3411 63.131C62.5501 63.1292 62.7499 63.0454 62.8977 62.8976C63.0454 62.7499 63.1292 62.55 63.1311 62.3411C63.1329 62.1321 63.0526 61.9309 62.9074 61.7806L58.8046 57.6772ZM53.6233 58.6297C50.1425 58.4916 48.5849 56 48.5849 53.5913C48.5849 51.1832 50.143 48.6906 53.5919 48.5535C60.2602 48.8191 60.2724 58.3391 53.6233 58.6297Z" fill="white"/>
<defs>
<linearGradient id="paint0_linear_1029_9465" x1="488.235" y1="5.70002" x2="226.614" y2="298.49" gradientUnits="userSpaceOnUse">
<stop stop-color="#B0D8A7" stop-opacity="0"/>
<stop offset="1" stop-color="#66BE53"/>
</linearGradient>
<linearGradient id="paint1_linear_1029_9465" x1="12" y1="6.30507" x2="96.1299" y2="64.5941" gradientUnits="userSpaceOnUse">
<stop stop-color="#1A2613"/>
<stop offset="0.489"/>
<stop offset="1" stop-color="#001D2B"/>
</linearGradient>
<linearGradient id="paint2_linear_1029_9465" x1="84" y1="82.2439" x2="20.0367" y2="6.43866" gradientUnits="userSpaceOnUse">
<stop stop-color="#14FF87"/>
<stop offset="1" stop-color="#CAFE15"/>
</linearGradient>
</defs>
</svg>
