<svg width="472" height="96" viewBox="0 0 472 96" fill="none" xmlns="http://www.w3.org/2000/svg">
<path d="M0 16C0 7.16345 7.16344 0 16 0H456C464.837 0 472 7.16344 472 16V80C472 88.8366 464.837 96 456 96H16C7.16344 96 0 88.8366 0 80V16Z" fill="url(#paint0_linear_1678_10314)"/>
<circle cx="48" cy="48" r="35" fill="url(#paint1_linear_1678_10314)" stroke="url(#paint2_linear_1678_10314)" stroke-width="2"/>
<path d="M60.131 59.34C61.0169 59.8439 62.0665 59.9757 63.0495 59.7067C64.0326 59.4376 64.8687 58.7896 65.3746 57.9048C65.6245 57.4664 65.7855 56.983 65.8485 56.4823C65.9115 55.9816 65.8752 55.4734 65.7417 54.9867C65.6082 54.5 65.3801 54.0444 65.0705 53.6459C64.7608 53.2474 64.3756 52.9138 63.937 52.6642C63.6003 52.4725 63.2366 52.3325 62.8582 52.2491V43.7424C63.2377 43.6618 63.6027 43.5239 63.9407 43.3333C64.3793 43.0835 64.7643 42.7496 65.0737 42.3507C65.383 41.9519 65.6107 41.496 65.7437 41.009C65.8767 40.5221 65.9123 40.0137 65.8486 39.513C65.7848 39.0122 65.6229 38.529 65.3722 38.0909C64.8665 37.2074 64.0312 36.5604 63.0493 36.2917C62.0674 36.0231 61.019 36.1546 60.134 36.6576C59.7324 36.8876 59.3759 37.1886 59.0819 37.5461L51.5837 33.2139C51.7536 32.7758 51.8411 32.31 51.8419 31.84C51.8419 29.7224 50.117 28 47.997 28C46.979 28.0013 46.003 28.4063 45.2831 29.1261C44.5633 29.846 44.1583 30.822 44.157 31.84C44.157 32.3248 44.2504 32.7855 44.414 33.2127L36.9158 37.5455C36.6219 37.1885 36.2656 36.8879 35.8643 36.6582C35.4263 36.4081 34.9432 36.2468 34.4428 36.1836C33.9424 36.1203 33.4345 36.1563 32.948 36.2895C32.4615 36.4226 32.0061 36.6504 31.6076 36.9597C31.2092 37.269 30.8757 37.6538 30.6261 38.0921C30.3754 38.5302 30.2135 39.0135 30.1498 39.5143C30.0861 40.015 30.1218 40.5234 30.2548 41.0104C30.3879 41.4973 30.6156 41.9532 30.9251 42.3521C31.2345 42.7509 31.6196 43.0847 32.0582 43.3345C32.3968 43.5256 32.7627 43.6638 33.1431 43.7442V52.2485C32.7638 52.3318 32.3993 52.472 32.0619 52.6642C31.6232 52.9138 31.238 53.2473 30.9283 53.6458C30.6186 54.0443 30.3904 54.4999 30.2569 54.9866C30.1234 55.4733 30.0871 55.9816 30.1502 56.4823C30.2132 56.983 30.3743 57.4664 30.6243 57.9048C31.6801 59.7558 34.0364 60.3855 35.8679 59.34C36.1116 59.2005 36.3393 59.0347 36.5467 58.8455L44.2558 63.3018C44.1909 63.5819 44.1578 63.8683 44.157 64.1558C44.157 66.2752 45.8794 68 47.997 68C49.0163 67.999 49.9936 67.5937 50.7145 66.873C51.4353 66.1523 51.8407 65.1751 51.8419 64.1558C51.8419 63.8618 51.8055 63.5764 51.7425 63.3012L59.4576 58.8497C59.6601 59.0333 59.8837 59.1994 60.1304 59.3406L60.131 59.34ZM48.437 56.6691C48.3063 56.7298 48.1628 56.7579 48.0188 56.7509C47.8724 56.7485 47.7283 56.7135 47.597 56.6485C44.5243 55.063 41.977 52.9333 40.9813 49.6079C40.954 49.5124 40.9413 49.4133 40.9437 49.3139V41.9321C40.9437 41.4515 41.2831 41.0448 41.7691 40.9442C45.8322 40.1055 50.054 40.0836 54.2825 40.9564C54.7322 41.0485 55.0582 41.4594 55.0582 41.9321V49.2594C55.0582 49.3855 55.0364 49.5097 54.9952 49.6273C53.7988 52.7855 51.7467 55.1182 48.437 56.6691ZM36.8594 53.4764C36.221 52.7411 35.325 52.2785 34.3558 52.1836V43.8115C35.2636 43.7176 36.1084 43.3041 36.7394 42.6448L39.7316 44.2752V49.3139C39.7316 49.5564 39.7637 49.78 39.8237 49.9667C39.9867 50.5109 40.2025 51.0273 40.4425 51.5255L36.8594 53.4764ZM56.1328 50.0442C56.2243 49.7861 56.271 49.5218 56.271 49.26V44.2806L59.2643 42.6503C59.8957 43.3072 60.7397 43.7187 61.6461 43.8115V52.183C60.6782 52.2771 59.783 52.7382 59.1443 53.4715L55.5079 51.4909C55.7255 51.0503 55.9322 50.5758 56.1328 50.0442ZM64.3219 57.3048C63.9752 57.9105 63.4026 58.3541 62.7295 58.5382C62.0563 58.7224 61.3377 58.6321 60.731 58.2873C60.1259 57.9406 59.6831 57.3681 59.4996 56.6954C59.3162 56.0227 59.407 55.3046 59.7522 54.6988C60.099 54.0952 60.6709 53.6537 61.3427 53.4711C62.0144 53.2885 62.7311 53.3796 63.3358 53.7244C63.9405 54.0693 64.3838 54.6397 64.5687 55.3109C64.7535 55.982 64.6647 56.699 64.3219 57.3048ZM60.734 37.7109C61.3398 37.3665 62.0574 37.2764 62.7295 37.4604C63.4017 37.6443 63.9734 38.0873 64.3194 38.6921C64.491 38.992 64.6017 39.3227 64.6454 39.6655C64.689 40.0082 64.6646 40.3561 64.5737 40.6894C64.4827 41.0227 64.3269 41.3348 64.1152 41.6078C63.9036 41.8808 63.6402 42.1095 63.3401 42.2806C62.7334 42.6255 62.0147 42.7158 61.3416 42.5315C60.6686 42.3472 60.0961 41.9034 59.7498 41.2976C59.4056 40.6911 59.316 39.9728 59.5006 39.3004C59.6852 38.6279 60.129 38.0561 60.7346 37.7103L60.734 37.7109ZM58.4643 38.5891C58.2709 39.0789 58.1805 39.6033 58.1987 40.1295C58.2169 40.6558 58.3435 41.1727 58.5704 41.6479L56.271 42.9V41.9321C56.271 40.8861 55.537 39.9764 54.5267 39.7685C52.5789 39.369 50.5984 39.1501 48.6104 39.1145V35.6309C49.5406 35.4809 50.3833 34.9943 50.9782 34.2636L58.4643 38.5891ZM47.9976 29.2121C48.6949 29.2124 49.3635 29.4893 49.857 29.9819C50.3504 30.4745 50.6283 31.1428 50.6297 31.84C50.6291 32.538 50.3515 33.2073 49.8579 33.7009C49.3643 34.1945 48.6951 34.4721 47.997 34.4727C47.2997 34.4713 46.6314 34.1933 46.1387 33.6997C45.6461 33.2062 45.3693 32.5374 45.3691 31.84C45.3699 31.1433 45.6471 30.4753 46.1397 29.9827C46.6324 29.49 47.3003 29.2129 47.997 29.2121H47.9976ZM45.0188 34.263C45.6159 34.9974 46.4633 35.4852 47.3982 35.6327V39.1139C45.4194 39.1503 43.4516 39.3588 41.5231 39.757C40.4685 39.977 39.7316 40.8715 39.7316 41.9327V42.8939L37.4316 41.6412C37.6571 41.1665 37.7826 40.6505 37.8002 40.1252C37.8178 39.5999 37.7272 39.0766 37.534 38.5879L45.0188 34.263ZM31.6794 38.6921C31.8502 38.3921 32.0784 38.1287 32.3511 37.917C32.6237 37.7052 32.9354 37.5493 33.2684 37.4581C33.6013 37.367 33.9489 37.3423 34.2914 37.3856C34.6339 37.4288 34.9645 37.5392 35.2643 37.7103C35.8701 38.0561 36.3139 38.628 36.4986 39.3006C36.6832 39.9732 36.5935 40.6916 36.2491 41.2982C35.9027 41.9041 35.3301 42.3478 34.6569 42.532C33.9836 42.7162 33.2649 42.6258 32.6582 42.2806C32.3581 42.1095 32.0947 41.8808 31.883 41.6078C31.6714 41.3347 31.5156 41.0226 31.4247 40.6893C31.3338 40.356 31.3095 40.0081 31.3532 39.6654C31.3969 39.3227 31.5078 38.9919 31.6794 38.6921ZM35.2673 58.2873C34.6606 58.632 33.942 58.7222 33.269 58.5379C32.5959 58.3536 32.0234 57.91 31.677 57.3042C31.4198 56.8523 31.3024 56.3342 31.3396 55.8155C31.3767 55.2968 31.5668 54.8007 31.8858 54.39C32.2047 53.9793 32.6383 53.6724 33.1317 53.508C33.625 53.3436 34.1561 53.3291 34.6576 53.4665C35.1592 53.6038 35.6088 53.8867 35.9497 54.2794C36.2905 54.6722 36.5073 55.1572 36.5726 55.6731C36.6379 56.189 36.5488 56.7127 36.3166 57.178C36.0844 57.6433 35.7195 58.0293 35.2679 58.2873H35.2673ZM37.3073 57.8848C37.5944 57.374 37.761 56.8043 37.7942 56.2192C37.8275 55.6342 37.7267 55.0492 37.4994 54.5091L41.0231 52.5897C42.2734 54.5939 44.2425 56.2812 47.0425 57.7261C47.154 57.7836 47.2758 57.8224 47.3982 57.8594V60.3667C46.8473 60.4544 46.3221 60.661 45.8591 60.9721C45.3961 61.2833 45.0063 61.6915 44.717 62.1685L37.3073 57.8848ZM47.997 66.7879C47.2998 66.7864 46.6316 66.5085 46.1389 66.0151C45.6463 65.5217 45.3695 64.853 45.3691 64.1558C45.3698 63.4589 45.6468 62.7908 46.1395 62.2981C46.6322 61.8053 47.3002 61.5281 47.997 61.5273C48.6945 61.5274 49.3634 61.8043 49.857 62.2971C50.3505 62.7898 50.6285 63.4583 50.6297 64.1558C50.6289 64.8537 50.3513 65.5228 49.8577 66.0163C49.3641 66.5097 48.695 66.7872 47.997 66.7879ZM48.6104 60.3691V57.8824C48.7267 57.8509 48.8431 57.8176 48.9522 57.7661C51.5673 56.5418 53.5176 54.8255 54.9128 52.5473L58.5019 54.5018C58.2727 55.0437 58.1708 55.631 58.2042 56.2185C58.2377 56.8059 58.4054 57.3779 58.6946 57.8903L51.2807 62.1685C50.9921 61.6933 50.6039 61.2863 50.1429 60.9756C49.6819 60.6649 49.1591 60.4583 48.6104 60.3691Z" fill="white"/>
<path d="M48.0018 43.4448C47.2786 43.4448 46.585 43.7317 46.0731 44.2426C45.5612 44.7534 45.2729 45.4465 45.2715 46.1697C45.2715 46.9236 45.5806 47.6345 46.1139 48.1418L45.6206 50.6133C45.603 50.7012 45.6052 50.7919 45.6269 50.8789C45.6486 50.9658 45.6893 51.0469 45.7461 51.1162C45.8029 51.1855 45.8744 51.2414 45.9554 51.2798C46.0364 51.3182 46.1249 51.3381 46.2145 51.3382H49.7824C49.872 51.3381 49.9605 51.3182 50.0415 51.2798C50.1225 51.2414 50.194 51.1855 50.2508 51.1162C50.3076 51.0469 50.3483 50.9658 50.37 50.8789C50.3918 50.7919 50.3939 50.7012 50.3763 50.6133L49.8836 48.1412C50.1504 47.8869 50.3626 47.5809 50.5075 47.242C50.6523 46.9031 50.7266 46.5382 50.726 46.1697C50.7254 45.4473 50.4382 44.7547 49.9274 44.2438C49.4167 43.733 48.7242 43.4456 48.0018 43.4448ZM48.8727 47.4054C48.7756 47.4728 48.7004 47.5672 48.6563 47.6768C48.6121 47.7864 48.601 47.9065 48.6242 48.0224L49.0436 50.1254H46.9539L47.3739 48.0224C47.397 47.9064 47.3857 47.7862 47.3413 47.6766C47.297 47.5669 47.2215 47.4727 47.1242 47.4054C46.9255 47.2666 46.7634 47.0816 46.6518 46.8664C46.5403 46.6512 46.4825 46.4121 46.4836 46.1697C46.4847 45.7679 46.6452 45.3829 46.9298 45.0993C47.2145 44.8157 47.6 44.6566 48.0018 44.6569C48.4028 44.6574 48.7872 44.817 49.0707 45.1006C49.3542 45.3842 49.5136 45.7687 49.5139 46.1697C49.5139 46.6654 49.2739 47.1279 48.8727 47.4054Z" fill="white"/>
<path d="M100.955 42.196V39.5455H114.881V42.196H109.486V57H106.349V42.196H100.955ZM115.614 57V43.9091H118.605V46.0909H118.741C118.98 45.3352 119.389 44.7528 119.969 44.3438C120.554 43.929 121.222 43.7216 121.972 43.7216C122.142 43.7216 122.332 43.7301 122.543 43.7472C122.758 43.7585 122.937 43.7784 123.08 43.8068V46.6449C122.949 46.5994 122.741 46.5597 122.457 46.5256C122.179 46.4858 121.909 46.4659 121.648 46.4659C121.085 46.4659 120.58 46.5881 120.131 46.8324C119.687 47.071 119.338 47.4034 119.082 47.8295C118.827 48.2557 118.699 48.7472 118.699 49.304V57H115.614ZM128.206 57.2642C127.376 57.2642 126.629 57.1165 125.964 56.821C125.305 56.5199 124.783 56.0767 124.396 55.4915C124.016 54.9062 123.825 54.1847 123.825 53.3267C123.825 52.5881 123.962 51.9773 124.234 51.4943C124.507 51.0114 124.879 50.625 125.351 50.3352C125.822 50.0455 126.354 49.8267 126.945 49.679C127.541 49.5256 128.158 49.4148 128.794 49.3466C129.561 49.267 130.183 49.196 130.66 49.1335C131.138 49.0653 131.484 48.9631 131.7 48.8267C131.922 48.6847 132.033 48.4659 132.033 48.1705V48.1193C132.033 47.4773 131.842 46.9801 131.462 46.6278C131.081 46.2756 130.533 46.0994 129.817 46.0994C129.061 46.0994 128.462 46.2642 128.018 46.5938C127.581 46.9233 127.285 47.3125 127.132 47.7614L124.251 47.3523C124.479 46.5568 124.854 45.892 125.376 45.358C125.899 44.8182 126.538 44.4148 127.294 44.1477C128.05 43.875 128.885 43.7386 129.8 43.7386C130.43 43.7386 131.058 43.8125 131.683 43.9602C132.308 44.108 132.879 44.3523 133.396 44.6932C133.913 45.0284 134.328 45.4858 134.641 46.0653C134.959 46.6449 135.118 47.3693 135.118 48.2386V57H132.152V55.2017H132.05C131.862 55.5653 131.598 55.9062 131.257 56.2244C130.922 56.5369 130.499 56.7898 129.987 56.983C129.481 57.1705 128.888 57.2642 128.206 57.2642ZM129.007 54.9972C129.626 54.9972 130.163 54.875 130.618 54.6307C131.072 54.3807 131.422 54.0511 131.666 53.642C131.916 53.233 132.041 52.7869 132.041 52.304V50.7614C131.945 50.8409 131.78 50.9148 131.547 50.983C131.32 51.0511 131.064 51.1108 130.78 51.1619C130.496 51.2131 130.214 51.2585 129.936 51.2983C129.658 51.3381 129.416 51.3722 129.212 51.4006C128.751 51.4631 128.339 51.5653 127.976 51.7074C127.612 51.8494 127.325 52.0483 127.115 52.304C126.905 52.554 126.8 52.8778 126.8 53.2756C126.8 53.8438 127.007 54.2727 127.422 54.5625C127.837 54.8523 128.365 54.9972 129.007 54.9972ZM140.849 49.3295V57H137.764V43.9091H140.713V46.1335H140.866C141.168 45.4006 141.648 44.8182 142.307 44.3864C142.971 43.9545 143.793 43.7386 144.77 43.7386C145.673 43.7386 146.46 43.9318 147.131 44.3182C147.807 44.7045 148.329 45.2642 148.699 45.9972C149.074 46.7301 149.258 47.6193 149.253 48.6648V57H146.168V49.142C146.168 48.267 145.94 47.5824 145.486 47.0881C145.037 46.5937 144.415 46.3466 143.619 46.3466C143.079 46.3466 142.599 46.4659 142.179 46.7045C141.764 46.9375 141.437 47.2756 141.199 47.7188C140.966 48.1619 140.849 48.6989 140.849 49.3295ZM162.28 47.3693L159.467 47.6761C159.388 47.392 159.248 47.125 159.05 46.875C158.856 46.625 158.595 46.4233 158.265 46.2699C157.936 46.1165 157.533 46.0398 157.055 46.0398C156.413 46.0398 155.873 46.179 155.436 46.4574C155.004 46.7358 154.791 47.0966 154.797 47.5398C154.791 47.9205 154.93 48.2301 155.214 48.4688C155.504 48.7074 155.981 48.9034 156.646 49.0568L158.879 49.5341C160.118 49.8011 161.038 50.2244 161.64 50.804C162.248 51.3835 162.555 52.142 162.561 53.0795C162.555 53.9034 162.314 54.6307 161.837 55.2614C161.365 55.8864 160.709 56.375 159.868 56.7273C159.027 57.0795 158.061 57.2557 156.97 57.2557C155.368 57.2557 154.078 56.9205 153.101 56.25C152.123 55.5739 151.541 54.6335 151.354 53.429L154.362 53.1392C154.498 53.7301 154.788 54.1761 155.231 54.4773C155.675 54.7784 156.251 54.929 156.962 54.929C157.694 54.929 158.283 54.7784 158.726 54.4773C159.175 54.1761 159.399 53.804 159.399 53.3608C159.399 52.9858 159.254 52.6761 158.964 52.4318C158.68 52.1875 158.237 52 157.635 51.8693L155.402 51.4006C154.146 51.1392 153.217 50.6989 152.615 50.0795C152.013 49.4545 151.714 48.6648 151.72 47.7102C151.714 46.9034 151.933 46.2045 152.376 45.6136C152.825 45.017 153.447 44.5568 154.243 44.233C155.044 43.9034 155.967 43.7386 157.013 43.7386C158.547 43.7386 159.754 44.0653 160.635 44.7188C161.521 45.3722 162.069 46.2557 162.28 47.3693ZM164.649 61.9091V43.9091H167.683V46.0739H167.862C168.021 45.7557 168.246 45.4176 168.535 45.0597C168.825 44.696 169.217 44.3864 169.711 44.1307C170.206 43.8693 170.836 43.7386 171.604 43.7386C172.615 43.7386 173.527 43.9972 174.339 44.5142C175.158 45.0256 175.805 45.7841 176.283 46.7898C176.765 47.7898 177.007 49.017 177.007 50.4716C177.007 51.9091 176.771 53.1307 176.3 54.1364C175.828 55.142 175.186 55.9091 174.373 56.4375C173.561 56.9659 172.64 57.2301 171.612 57.2301C170.862 57.2301 170.24 57.1051 169.746 56.8551C169.251 56.6051 168.854 56.304 168.552 55.9517C168.257 55.5937 168.027 55.2557 167.862 54.9375H167.734V61.9091H164.649ZM167.675 50.4545C167.675 51.3011 167.794 52.0426 168.033 52.679C168.277 53.3153 168.626 53.8125 169.081 54.1705C169.541 54.5227 170.098 54.6989 170.751 54.6989C171.433 54.6989 172.004 54.517 172.464 54.1534C172.925 53.7841 173.271 53.2812 173.504 52.6449C173.743 52.0028 173.862 51.2727 173.862 50.4545C173.862 49.642 173.746 48.9205 173.513 48.2898C173.28 47.6591 172.933 47.1648 172.473 46.8068C172.013 46.4489 171.439 46.2699 170.751 46.2699C170.092 46.2699 169.533 46.4432 169.072 46.7898C168.612 47.1364 168.263 47.6222 168.024 48.2472C167.791 48.8722 167.675 49.608 167.675 50.4545ZM182.96 57.2642C182.13 57.2642 181.383 57.1165 180.719 56.821C180.059 56.5199 179.537 56.0767 179.15 55.4915C178.77 54.9062 178.579 54.1847 178.579 53.3267C178.579 52.5881 178.716 51.9773 178.988 51.4943C179.261 51.0114 179.633 50.625 180.105 50.3352C180.577 50.0455 181.108 49.8267 181.699 49.679C182.295 49.5256 182.912 49.4148 183.548 49.3466C184.315 49.267 184.937 49.196 185.415 49.1335C185.892 49.0653 186.238 48.9631 186.454 48.8267C186.676 48.6847 186.787 48.4659 186.787 48.1705V48.1193C186.787 47.4773 186.596 46.9801 186.216 46.6278C185.835 46.2756 185.287 46.0994 184.571 46.0994C183.815 46.0994 183.216 46.2642 182.773 46.5938C182.335 46.9233 182.04 47.3125 181.886 47.7614L179.005 47.3523C179.233 46.5568 179.608 45.892 180.13 45.358C180.653 44.8182 181.292 44.4148 182.048 44.1477C182.804 43.875 183.639 43.7386 184.554 43.7386C185.184 43.7386 185.812 43.8125 186.437 43.9602C187.062 44.108 187.633 44.3523 188.15 44.6932C188.667 45.0284 189.082 45.4858 189.395 46.0653C189.713 46.6449 189.872 47.3693 189.872 48.2386V57H186.906V55.2017H186.804C186.616 55.5653 186.352 55.9062 186.011 56.2244C185.676 56.5369 185.253 56.7898 184.741 56.983C184.236 57.1705 183.642 57.2642 182.96 57.2642ZM183.761 54.9972C184.38 54.9972 184.917 54.875 185.372 54.6307C185.827 54.3807 186.176 54.0511 186.42 53.642C186.67 53.233 186.795 52.7869 186.795 52.304V50.7614C186.699 50.8409 186.534 50.9148 186.301 50.983C186.074 51.0511 185.818 51.1108 185.534 51.1619C185.25 51.2131 184.969 51.2585 184.69 51.2983C184.412 51.3381 184.17 51.3722 183.966 51.4006C183.505 51.4631 183.094 51.5653 182.73 51.7074C182.366 51.8494 182.079 52.0483 181.869 52.304C181.659 52.554 181.554 52.8778 181.554 53.2756C181.554 53.8438 181.761 54.2727 182.176 54.5625C182.591 54.8523 183.119 54.9972 183.761 54.9972ZM192.518 57V43.9091H195.51V46.0909H195.646C195.885 45.3352 196.294 44.7528 196.873 44.3438C197.459 43.929 198.126 43.7216 198.876 43.7216C199.047 43.7216 199.237 43.7301 199.447 43.7472C199.663 43.7585 199.842 43.7784 199.984 43.8068V46.6449C199.853 46.5994 199.646 46.5597 199.362 46.5256C199.084 46.4858 198.814 46.4659 198.552 46.4659C197.99 46.4659 197.484 46.5881 197.035 46.8324C196.592 47.071 196.243 47.4034 195.987 47.8295C195.731 48.2557 195.603 48.7472 195.603 49.304V57H192.518ZM206.834 57.2557C205.522 57.2557 204.388 56.983 203.434 56.4375C202.485 55.8864 201.755 55.108 201.243 54.1023C200.732 53.0909 200.476 51.9006 200.476 50.5312C200.476 49.1847 200.732 48.0028 201.243 46.9858C201.76 45.9631 202.482 45.1676 203.408 44.5994C204.334 44.0256 205.422 43.7386 206.672 43.7386C207.479 43.7386 208.24 43.8693 208.956 44.1307C209.678 44.3864 210.314 44.7841 210.865 45.3239C211.422 45.8636 211.86 46.5511 212.178 47.3864C212.496 48.2159 212.655 49.2045 212.655 50.3523V51.2983H201.925V49.2188H209.698C209.692 48.6278 209.564 48.1023 209.314 47.642C209.064 47.1761 208.715 46.8097 208.266 46.5426C207.823 46.2756 207.306 46.142 206.715 46.142C206.084 46.142 205.53 46.2955 205.053 46.6023C204.576 46.9034 204.204 47.3011 203.937 47.7955C203.675 48.2841 203.542 48.821 203.536 49.4062V51.2216C203.536 51.983 203.675 52.6364 203.954 53.1818C204.232 53.7216 204.621 54.1364 205.121 54.4261C205.621 54.7102 206.206 54.8523 206.877 54.8523C207.326 54.8523 207.732 54.7898 208.096 54.6648C208.459 54.5341 208.775 54.3438 209.042 54.0938C209.309 53.8438 209.51 53.5341 209.647 53.1648L212.527 53.4886C212.346 54.25 211.999 54.9148 211.488 55.483C210.982 56.0455 210.334 56.483 209.544 56.7955C208.755 57.1023 207.851 57.2557 206.834 57.2557ZM217.895 49.3295V57H214.809V43.9091H217.758V46.1335H217.912C218.213 45.4006 218.693 44.8182 219.352 44.3864C220.017 43.9545 220.838 43.7386 221.815 43.7386C222.718 43.7386 223.505 43.9318 224.176 44.3182C224.852 44.7045 225.375 45.2642 225.744 45.9972C226.119 46.7301 226.304 47.6193 226.298 48.6648V57H223.213V49.142C223.213 48.267 222.985 47.5824 222.531 47.0881C222.082 46.5937 221.46 46.3466 220.664 46.3466C220.125 46.3466 219.645 46.4659 219.224 46.7045C218.809 46.9375 218.483 47.2756 218.244 47.7188C218.011 48.1619 217.895 48.6989 217.895 49.3295ZM234.689 57.2557C233.382 57.2557 232.26 56.9688 231.322 56.3949C230.39 55.821 229.672 55.0284 229.166 54.017C228.666 53 228.416 51.8295 228.416 50.5057C228.416 49.1761 228.672 48.0028 229.183 46.9858C229.694 45.9631 230.416 45.1676 231.348 44.5994C232.285 44.0256 233.393 43.7386 234.672 43.7386C235.734 43.7386 236.674 43.9347 237.493 44.3267C238.316 44.7131 238.973 45.2614 239.461 45.9716C239.95 46.6761 240.228 47.5 240.297 48.4432H237.348C237.228 47.8125 236.944 47.2869 236.495 46.8665C236.052 46.4403 235.458 46.2273 234.714 46.2273C234.083 46.2273 233.529 46.3977 233.052 46.7386C232.575 47.0739 232.203 47.5568 231.936 48.1875C231.674 48.8182 231.544 49.5739 231.544 50.4545C231.544 51.3466 231.674 52.1136 231.936 52.7557C232.197 53.392 232.564 53.8835 233.035 54.2301C233.512 54.571 234.072 54.7415 234.714 54.7415C235.169 54.7415 235.575 54.6562 235.933 54.4858C236.297 54.3097 236.601 54.0568 236.845 53.7273C237.089 53.3977 237.257 52.9972 237.348 52.5256H240.297C240.223 53.4517 239.95 54.2727 239.478 54.9886C239.007 55.6989 238.365 56.2557 237.552 56.6591C236.74 57.0568 235.785 57.2557 234.689 57.2557ZM244.292 61.9091C243.871 61.9091 243.482 61.875 243.124 61.8068C242.772 61.7443 242.49 61.6705 242.28 61.5852L242.996 59.1818C243.445 59.3125 243.845 59.375 244.198 59.3693C244.55 59.3636 244.86 59.2528 245.127 59.0369C245.399 58.8267 245.63 58.4744 245.817 57.9801L246.081 57.2727L241.334 43.9091H244.607L247.624 53.7955H247.76L250.786 43.9091H254.067L248.826 58.5852C248.581 59.2784 248.257 59.8722 247.854 60.3665C247.451 60.8665 246.956 61.2472 246.371 61.5085C245.792 61.7756 245.098 61.9091 244.292 61.9091Z" fill="white"/>
<defs>
<linearGradient id="paint0_linear_1678_10314" x1="488.235" y1="5.70002" x2="226.614" y2="298.49" gradientUnits="userSpaceOnUse">
<stop stop-color="#B0D8A7" stop-opacity="0"/>
<stop offset="1" stop-color="#66BE53"/>
</linearGradient>
<linearGradient id="paint1_linear_1678_10314" x1="12" y1="6.30507" x2="96.1299" y2="64.5941" gradientUnits="userSpaceOnUse">
<stop stop-color="#1A2613"/>
<stop offset="0.489"/>
<stop offset="1" stop-color="#001D2B"/>
</linearGradient>
<linearGradient id="paint2_linear_1678_10314" x1="84" y1="82.2439" x2="20.0367" y2="6.43866" gradientUnits="userSpaceOnUse">
<stop stop-color="#14FF87"/>
<stop offset="1" stop-color="#CAFE15"/>
</linearGradient>
</defs>
</svg>
