<svg width="472" height="96" viewBox="0 0 472 96" fill="none" xmlns="http://www.w3.org/2000/svg">
<rect x="1" y="1" width="470" height="94" rx="15" fill="url(#paint0_linear_1678_10344)"/>
<rect x="1" y="1" width="470" height="94" rx="15" stroke="url(#paint1_linear_1678_10344)" stroke-width="2"/>
<circle cx="48" cy="48" r="35" fill="url(#paint2_linear_1678_10344)" stroke="url(#paint3_linear_1678_10344)" stroke-width="2"/>
<path d="M42.9809 48.686C53.5948 48.412 53.5968 33.0392 42.9809 32.7632C32.3671 33.0379 32.3644 48.4107 42.9809 48.686Z" fill="white"/>
<path d="M51.1188 45.23C52.7952 45.5324 54.3661 46.2597 55.6813 47.3424C64.2929 46.7931 64.0733 33.3124 55.0152 33.4345C53.3096 33.3568 51.638 33.9292 50.3379 35.036C51.4455 36.4751 52.1093 38.206 52.248 40.0166C52.3867 41.8272 51.9943 43.639 51.1188 45.23Z" fill="white"/>
<path d="M67.8878 52.5054C67.8921 50.75 67.2757 49.0496 66.1474 47.7049C65.0192 46.3602 63.4518 45.4577 61.7223 45.157C60.5407 46.8178 58.7862 47.9824 56.7969 48.4265C59.3405 51.1466 59.8302 55.6833 58.9703 59.254C61.0058 58.9548 63.1866 58.5176 64.9832 58.1202C67.6483 57.6252 68.1147 54.7863 67.8878 52.5054Z" fill="white"/>
<path d="M50.3222 46.4348C46.9917 51.1553 38.9699 51.1546 35.64 46.4348C33.5336 46.6815 31.5912 47.6934 30.1818 49.2782C28.7724 50.863 27.9942 52.9103 27.9951 55.0312C27.741 57.6478 28.2379 60.9372 31.3124 61.5058C38.942 63.6616 47.0196 63.6616 54.6492 61.5058C57.723 60.9372 58.2219 57.6491 57.9665 55.0312C57.9674 52.9104 57.1894 50.8632 55.7801 49.2784C54.3708 47.6936 52.4285 46.6817 50.3222 46.4348Z" fill="white"/>
<path d="M112.724 39.5455H115.886V50.9489C115.886 52.1989 115.591 53.2983 115 54.2472C114.415 55.196 113.591 55.9375 112.528 56.4716C111.466 57 110.224 57.2642 108.804 57.2642C107.378 57.2642 106.134 57 105.071 56.4716C104.009 55.9375 103.185 55.196 102.599 54.2472C102.014 53.2983 101.722 52.1989 101.722 50.9489V39.5455H104.884V50.6847C104.884 51.4119 105.043 52.0597 105.361 52.6278C105.685 53.196 106.139 53.642 106.724 53.9659C107.31 54.2841 108.003 54.4432 108.804 54.4432C109.605 54.4432 110.298 54.2841 110.884 53.9659C111.474 53.642 111.929 53.196 112.247 52.6278C112.565 52.0597 112.724 51.4119 112.724 50.6847V39.5455ZM129.077 47.3693L126.265 47.6761C126.185 47.392 126.046 47.125 125.847 46.875C125.654 46.625 125.393 46.4233 125.063 46.2699C124.734 46.1165 124.33 46.0398 123.853 46.0398C123.211 46.0398 122.671 46.179 122.234 46.4574C121.802 46.7358 121.589 47.0966 121.594 47.5398C121.589 47.9205 121.728 48.2301 122.012 48.4688C122.302 48.7074 122.779 48.9034 123.444 49.0568L125.677 49.5341C126.915 49.8011 127.836 50.2244 128.438 50.804C129.046 51.3835 129.353 52.142 129.359 53.0795C129.353 53.9034 129.111 54.6307 128.634 55.2614C128.163 55.8864 127.506 56.375 126.665 56.7273C125.825 57.0795 124.859 57.2557 123.768 57.2557C122.165 57.2557 120.876 56.9205 119.898 56.25C118.921 55.5739 118.339 54.6335 118.151 53.429L121.16 53.1392C121.296 53.7301 121.586 54.1761 122.029 54.4773C122.472 54.7784 123.049 54.929 123.759 54.929C124.492 54.929 125.08 54.7784 125.523 54.4773C125.972 54.1761 126.197 53.804 126.197 53.3608C126.197 52.9858 126.052 52.6761 125.762 52.4318C125.478 52.1875 125.035 52 124.432 51.8693L122.2 51.4006C120.944 51.1392 120.015 50.6989 119.413 50.0795C118.81 49.4545 118.512 48.6648 118.518 47.7102C118.512 46.9034 118.731 46.2045 119.174 45.6136C119.623 45.017 120.245 44.5568 121.04 44.233C121.842 43.9034 122.765 43.7386 123.81 43.7386C125.344 43.7386 126.552 44.0653 127.432 44.7188C128.319 45.3722 128.867 46.2557 129.077 47.3693ZM137.242 57.2557C135.93 57.2557 134.796 56.983 133.842 56.4375C132.893 55.8864 132.163 55.108 131.651 54.1023C131.14 53.0909 130.884 51.9006 130.884 50.5312C130.884 49.1847 131.14 48.0028 131.651 46.9858C132.168 45.9631 132.89 45.1676 133.816 44.5994C134.742 44.0256 135.83 43.7386 137.08 43.7386C137.887 43.7386 138.648 43.8693 139.364 44.1307C140.086 44.3864 140.722 44.7841 141.273 45.3239C141.83 45.8636 142.268 46.5511 142.586 47.3864C142.904 48.2159 143.063 49.2045 143.063 50.3523V51.2983H132.333V49.2188H140.106C140.1 48.6278 139.972 48.1023 139.722 47.642C139.472 47.1761 139.123 46.8097 138.674 46.5426C138.231 46.2756 137.714 46.142 137.123 46.142C136.492 46.142 135.938 46.2955 135.461 46.6023C134.984 46.9034 134.611 47.3011 134.344 47.7955C134.083 48.2841 133.95 48.821 133.944 49.4062V51.2216C133.944 51.983 134.083 52.6364 134.361 53.1818C134.64 53.7216 135.029 54.1364 135.529 54.4261C136.029 54.7102 136.614 54.8523 137.285 54.8523C137.734 54.8523 138.14 54.7898 138.503 54.6648C138.867 54.5341 139.182 54.3438 139.45 54.0938C139.717 53.8438 139.918 53.5341 140.055 53.1648L142.935 53.4886C142.753 54.25 142.407 54.9148 141.896 55.483C141.39 56.0455 140.742 56.483 139.952 56.7955C139.163 57.1023 138.259 57.2557 137.242 57.2557ZM145.217 57V43.9091H148.209V46.0909H148.345C148.584 45.3352 148.993 44.7528 149.572 44.3438C150.158 43.929 150.825 43.7216 151.575 43.7216C151.746 43.7216 151.936 43.7301 152.146 43.7472C152.362 43.7585 152.541 43.7784 152.683 43.8068V46.6449C152.552 46.5994 152.345 46.5597 152.061 46.5256C151.783 46.4858 151.513 46.4659 151.251 46.4659C150.689 46.4659 150.183 46.5881 149.734 46.8324C149.291 47.071 148.942 47.4034 148.686 47.8295C148.43 48.2557 148.302 48.7472 148.302 49.304V57H145.217ZM159.91 57V39.5455H171.092V42.196H163.072V46.9347H170.325V49.5852H163.072V57H159.91ZM173.193 57V43.9091H176.184V46.0909H176.321C176.559 45.3352 176.969 44.7528 177.548 44.3438C178.133 43.929 178.801 43.7216 179.551 43.7216C179.721 43.7216 179.912 43.7301 180.122 43.7472C180.338 43.7585 180.517 43.7784 180.659 43.8068V46.6449C180.528 46.5994 180.321 46.5597 180.037 46.5256C179.758 46.4858 179.488 46.4659 179.227 46.4659C178.665 46.4659 178.159 46.5881 177.71 46.8324C177.267 47.071 176.917 47.4034 176.662 47.8295C176.406 48.2557 176.278 48.7472 176.278 49.304V57H173.193ZM182.253 57V43.9091H185.338V57H182.253ZM183.804 42.0511C183.315 42.0511 182.895 41.8892 182.542 41.5653C182.19 41.2358 182.014 40.8409 182.014 40.3807C182.014 39.9148 182.19 39.5199 182.542 39.196C182.895 38.8665 183.315 38.7017 183.804 38.7017C184.298 38.7017 184.719 38.8665 185.065 39.196C185.417 39.5199 185.594 39.9148 185.594 40.3807C185.594 40.8409 185.417 41.2358 185.065 41.5653C184.719 41.8892 184.298 42.0511 183.804 42.0511ZM193.85 57.2557C192.537 57.2557 191.404 56.983 190.449 56.4375C189.5 55.8864 188.77 55.108 188.259 54.1023C187.748 53.0909 187.492 51.9006 187.492 50.5312C187.492 49.1847 187.748 48.0028 188.259 46.9858C188.776 45.9631 189.498 45.1676 190.424 44.5994C191.35 44.0256 192.438 43.7386 193.688 43.7386C194.495 43.7386 195.256 43.8693 195.972 44.1307C196.694 44.3864 197.33 44.7841 197.881 45.3239C198.438 45.8636 198.875 46.5511 199.194 47.3864C199.512 48.2159 199.671 49.2045 199.671 50.3523V51.2983H188.941V49.2188H196.714C196.708 48.6278 196.58 48.1023 196.33 47.642C196.08 47.1761 195.731 46.8097 195.282 46.5426C194.839 46.2756 194.321 46.142 193.731 46.142C193.1 46.142 192.546 46.2955 192.069 46.6023C191.591 46.9034 191.219 47.3011 190.952 47.7955C190.691 48.2841 190.557 48.821 190.552 49.4062V51.2216C190.552 51.983 190.691 52.6364 190.969 53.1818C191.248 53.7216 191.637 54.1364 192.137 54.4261C192.637 54.7102 193.222 54.8523 193.892 54.8523C194.341 54.8523 194.748 54.7898 195.111 54.6648C195.475 54.5341 195.79 54.3438 196.057 54.0938C196.324 53.8438 196.526 53.5341 196.662 53.1648L199.543 53.4886C199.361 54.25 199.015 54.9148 198.503 55.483C197.998 56.0455 197.35 56.483 196.56 56.7955C195.77 57.1023 194.867 57.2557 193.85 57.2557ZM204.91 49.3295V57H201.825V43.9091H204.774V46.1335H204.927C205.228 45.4006 205.709 44.8182 206.368 44.3864C207.032 43.9545 207.853 43.7386 208.831 43.7386C209.734 43.7386 210.521 43.9318 211.191 44.3182C211.868 44.7045 212.39 45.2642 212.76 45.9972C213.135 46.7301 213.319 47.6193 213.314 48.6648V57H210.228V49.142C210.228 48.267 210.001 47.5824 209.547 47.0881C209.098 46.5937 208.476 46.3466 207.68 46.3466C207.14 46.3466 206.66 46.4659 206.24 46.7045C205.825 46.9375 205.498 47.2756 205.26 47.7188C205.027 48.1619 204.91 48.6989 204.91 49.3295ZM220.852 57.2301C219.824 57.2301 218.903 56.9659 218.091 56.4375C217.278 55.9091 216.636 55.142 216.164 54.1364C215.693 53.1307 215.457 51.9091 215.457 50.4716C215.457 49.017 215.696 47.7898 216.173 46.7898C216.656 45.7841 217.306 45.0256 218.125 44.5142C218.943 43.9972 219.855 43.7386 220.86 43.7386C221.628 43.7386 222.258 43.8693 222.753 44.1307C223.247 44.3864 223.639 44.696 223.929 45.0597C224.218 45.4176 224.443 45.7557 224.602 46.0739H224.73V39.5455H227.824V57H224.789V54.9375H224.602C224.443 55.2557 224.213 55.5937 223.912 55.9517C223.61 56.304 223.213 56.6051 222.718 56.8551C222.224 57.1051 221.602 57.2301 220.852 57.2301ZM221.713 54.6989C222.366 54.6989 222.923 54.5227 223.383 54.1705C223.843 53.8125 224.193 53.3153 224.431 52.679C224.67 52.0426 224.789 51.3011 224.789 50.4545C224.789 49.608 224.67 48.8722 224.431 48.2472C224.199 47.6222 223.852 47.1364 223.392 46.7898C222.937 46.4432 222.378 46.2699 221.713 46.2699C221.025 46.2699 220.451 46.4489 219.991 46.8068C219.531 47.1648 219.184 47.6591 218.951 48.2898C218.718 48.9205 218.602 49.642 218.602 50.4545C218.602 51.2727 218.718 52.0028 218.951 52.6449C219.19 53.2812 219.539 53.7841 220 54.1534C220.466 54.517 221.037 54.6989 221.713 54.6989ZM233.74 39.5455V57H230.655V39.5455H233.74ZM238.375 61.9091C237.954 61.9091 237.565 61.875 237.207 61.8068C236.855 61.7443 236.573 61.6705 236.363 61.5852L237.079 59.1818C237.528 59.3125 237.929 59.375 238.281 59.3693C238.633 59.3636 238.943 59.2528 239.21 59.0369C239.483 58.8267 239.713 58.4744 239.9 57.9801L240.164 57.2727L235.417 43.9091H238.69L241.707 53.7955H241.843L244.869 43.9091H248.15L242.909 58.5852C242.664 59.2784 242.341 59.8722 241.937 60.3665C241.534 60.8665 241.039 61.2472 240.454 61.5085C239.875 61.7756 239.181 61.9091 238.375 61.9091Z" fill="url(#paint4_linear_1678_10344)"/>
<defs>
<linearGradient id="paint0_linear_1678_10344" x1="-5.59285e-05" y1="-7.59324" x2="64.7616" y2="213.017" gradientUnits="userSpaceOnUse">
<stop stop-color="#1A2613"/>
<stop offset="0.489"/>
<stop offset="1" stop-color="#001D2B"/>
</linearGradient>
<linearGradient id="paint1_linear_1678_10344" x1="472" y1="93.6585" x2="443.154" y2="-74.4262" gradientUnits="userSpaceOnUse">
<stop stop-color="#14FF87" stop-opacity="0.3"/>
<stop offset="1" stop-color="#CAFE15"/>
</linearGradient>
<linearGradient id="paint2_linear_1678_10344" x1="12" y1="6.30507" x2="96.1299" y2="64.5941" gradientUnits="userSpaceOnUse">
<stop stop-color="#1A2613"/>
<stop offset="0.489"/>
<stop offset="1" stop-color="#001D2B"/>
</linearGradient>
<linearGradient id="paint3_linear_1678_10344" x1="84" y1="82.2439" x2="20.0367" y2="6.43866" gradientUnits="userSpaceOnUse">
<stop stop-color="#14FF87"/>
<stop offset="1" stop-color="#CAFE15"/>
</linearGradient>
<linearGradient id="paint4_linear_1678_10344" x1="238.535" y1="56.5024" x2="227.875" y2="10.9732" gradientUnits="userSpaceOnUse">
<stop stop-color="#14FF87" stop-opacity="0.76"/>
<stop offset="1" stop-color="#CAFE15"/>
</linearGradient>
</defs>
</svg>
